<?xml version="1.0" encoding="utf-8"?>
<svg xmlns="http://www.w3.org/2000/svg" xmlns:xlink="http://www.w3.org/1999/xlink" width="600" height="400" viewBox="0 0 2400 1600">
<defs>
  <clipPath id="clip560">
    <rect x="0" y="0" width="2400" height="1600"/>
  </clipPath>
</defs>
<path clip-path="url(#clip560)" d="
M0 1600 L2400 1600 L2400 0 L0 0  Z
  " fill="#ffffff" fill-rule="evenodd" fill-opacity="1"/>
<defs>
  <clipPath id="clip561">
    <rect x="480" y="0" width="1681" height="1600"/>
  </clipPath>
</defs>
<path clip-path="url(#clip560)" d="
M193.936 1423.18 L2352.76 1423.18 L2352.76 47.2441 L193.936 47.2441  Z
  " fill="#ffffff" fill-rule="evenodd" fill-opacity="1"/>
<defs>
  <clipPath id="clip562">
    <rect x="193" y="47" width="2160" height="1377"/>
  </clipPath>
</defs>
<polyline clip-path="url(#clip562)" style="stroke:#000000; stroke-linecap:round; stroke-linejoin:round; stroke-width:2; stroke-opacity:0.1; fill:none" points="
  255.035,1423.18 255.035,47.2441 
  "/>
<polyline clip-path="url(#clip562)" style="stroke:#000000; stroke-linecap:round; stroke-linejoin:round; stroke-width:2; stroke-opacity:0.1; fill:none" points="
  764.19,1423.18 764.19,47.2441 
  "/>
<polyline clip-path="url(#clip562)" style="stroke:#000000; stroke-linecap:round; stroke-linejoin:round; stroke-width:2; stroke-opacity:0.1; fill:none" points="
  1273.35,1423.18 1273.35,47.2441 
  "/>
<polyline clip-path="url(#clip562)" style="stroke:#000000; stroke-linecap:round; stroke-linejoin:round; stroke-width:2; stroke-opacity:0.1; fill:none" points="
  1782.5,1423.18 1782.5,47.2441 
  "/>
<polyline clip-path="url(#clip562)" style="stroke:#000000; stroke-linecap:round; stroke-linejoin:round; stroke-width:2; stroke-opacity:0.1; fill:none" points="
  2291.66,1423.18 2291.66,47.2441 
  "/>
<polyline clip-path="url(#clip560)" style="stroke:#000000; stroke-linecap:round; stroke-linejoin:round; stroke-width:4; stroke-opacity:1; fill:none" points="
  193.936,1423.18 2352.76,1423.18 
  "/>
<polyline clip-path="url(#clip560)" style="stroke:#000000; stroke-linecap:round; stroke-linejoin:round; stroke-width:4; stroke-opacity:1; fill:none" points="
  255.035,1423.18 255.035,1404.28 
  "/>
<polyline clip-path="url(#clip560)" style="stroke:#000000; stroke-linecap:round; stroke-linejoin:round; stroke-width:4; stroke-opacity:1; fill:none" points="
  764.19,1423.18 764.19,1404.28 
  "/>
<polyline clip-path="url(#clip560)" style="stroke:#000000; stroke-linecap:round; stroke-linejoin:round; stroke-width:4; stroke-opacity:1; fill:none" points="
  1273.35,1423.18 1273.35,1404.28 
  "/>
<polyline clip-path="url(#clip560)" style="stroke:#000000; stroke-linecap:round; stroke-linejoin:round; stroke-width:4; stroke-opacity:1; fill:none" points="
  1782.5,1423.18 1782.5,1404.28 
  "/>
<polyline clip-path="url(#clip560)" style="stroke:#000000; stroke-linecap:round; stroke-linejoin:round; stroke-width:4; stroke-opacity:1; fill:none" points="
  2291.66,1423.18 2291.66,1404.28 
  "/>
<path clip-path="url(#clip560)" d="M255.035 1454.1 Q251.424 1454.1 249.595 1457.66 Q247.789 1461.2 247.789 1468.33 Q247.789 1475.44 249.595 1479.01 Q251.424 1482.55 255.035 1482.55 Q258.669 1482.55 260.474 1479.01 Q262.303 1475.44 262.303 1468.33 Q262.303 1461.2 260.474 1457.66 Q258.669 1454.1 255.035 1454.1 M255.035 1450.39 Q260.845 1450.39 263.9 1455 Q266.979 1459.58 266.979 1468.33 Q266.979 1477.06 263.9 1481.67 Q260.845 1486.25 255.035 1486.25 Q249.225 1486.25 246.146 1481.67 Q243.09 1477.06 243.09 1468.33 Q243.09 1459.58 246.146 1455 Q249.225 1450.39 255.035 1450.39 Z" fill="#000000" fill-rule="evenodd" fill-opacity="1" /><path clip-path="url(#clip560)" d="M758.843 1481.64 L775.162 1481.64 L775.162 1485.58 L753.218 1485.58 L753.218 1481.64 Q755.88 1478.89 760.463 1474.26 Q765.07 1469.61 766.25 1468.27 Q768.496 1465.74 769.375 1464.01 Q770.278 1462.25 770.278 1460.56 Q770.278 1457.8 768.334 1456.07 Q766.413 1454.33 763.311 1454.33 Q761.112 1454.33 758.658 1455.09 Q756.227 1455.86 753.45 1457.41 L753.45 1452.69 Q756.274 1451.55 758.727 1450.97 Q761.181 1450.39 763.218 1450.39 Q768.588 1450.39 771.783 1453.08 Q774.977 1455.77 774.977 1460.26 Q774.977 1462.39 774.167 1464.31 Q773.38 1466.2 771.274 1468.8 Q770.695 1469.47 767.593 1472.69 Q764.491 1475.88 758.843 1481.64 Z" fill="#000000" fill-rule="evenodd" fill-opacity="1" /><path clip-path="url(#clip560)" d="M1276.36 1455.09 L1264.55 1473.54 L1276.36 1473.54 L1276.36 1455.09 M1275.13 1451.02 L1281.01 1451.02 L1281.01 1473.54 L1285.94 1473.54 L1285.94 1477.43 L1281.01 1477.43 L1281.01 1485.58 L1276.36 1485.58 L1276.36 1477.43 L1260.75 1477.43 L1260.75 1472.92 L1275.13 1451.02 Z" fill="#000000" fill-rule="evenodd" fill-opacity="1" /><path clip-path="url(#clip560)" d="M1782.91 1466.44 Q1779.76 1466.44 1777.91 1468.59 Q1776.08 1470.74 1776.08 1474.49 Q1776.08 1478.22 1777.91 1480.39 Q1779.76 1482.55 1782.91 1482.55 Q1786.05 1482.55 1787.88 1480.39 Q1789.74 1478.22 1789.74 1474.49 Q1789.74 1470.74 1787.88 1468.59 Q1786.05 1466.44 1782.91 1466.44 M1792.19 1451.78 L1792.19 1456.04 Q1790.43 1455.21 1788.62 1454.77 Q1786.84 1454.33 1785.08 1454.33 Q1780.45 1454.33 1778 1457.45 Q1775.57 1460.58 1775.22 1466.9 Q1776.59 1464.89 1778.65 1463.82 Q1780.71 1462.73 1783.18 1462.73 Q1788.39 1462.73 1791.4 1465.9 Q1794.43 1469.05 1794.43 1474.49 Q1794.43 1479.82 1791.29 1483.03 Q1788.14 1486.25 1782.91 1486.25 Q1776.91 1486.25 1773.74 1481.67 Q1770.57 1477.06 1770.57 1468.33 Q1770.57 1460.14 1774.46 1455.28 Q1778.35 1450.39 1784.9 1450.39 Q1786.66 1450.39 1788.44 1450.74 Q1790.24 1451.09 1792.19 1451.78 Z" fill="#000000" fill-rule="evenodd" fill-opacity="1" /><path clip-path="url(#clip560)" d="M2291.66 1469.17 Q2288.32 1469.17 2286.4 1470.95 Q2284.5 1472.73 2284.5 1475.86 Q2284.5 1478.98 2286.4 1480.77 Q2288.32 1482.55 2291.66 1482.55 Q2294.99 1482.55 2296.91 1480.77 Q2298.83 1478.96 2298.83 1475.86 Q2298.83 1472.73 2296.91 1470.95 Q2295.01 1469.17 2291.66 1469.17 M2286.98 1467.18 Q2283.97 1466.44 2282.28 1464.38 Q2280.62 1462.32 2280.62 1459.35 Q2280.62 1455.21 2283.56 1452.8 Q2286.52 1450.39 2291.66 1450.39 Q2296.82 1450.39 2299.76 1452.8 Q2302.7 1455.21 2302.7 1459.35 Q2302.7 1462.32 2301.01 1464.38 Q2299.34 1466.44 2296.36 1467.18 Q2299.74 1467.96 2301.61 1470.26 Q2303.51 1472.55 2303.51 1475.86 Q2303.51 1480.88 2300.43 1483.57 Q2297.37 1486.25 2291.66 1486.25 Q2285.94 1486.25 2282.86 1483.57 Q2279.81 1480.88 2279.81 1475.86 Q2279.81 1472.55 2281.7 1470.26 Q2283.6 1467.96 2286.98 1467.18 M2285.27 1459.79 Q2285.27 1462.48 2286.94 1463.98 Q2288.62 1465.49 2291.66 1465.49 Q2294.67 1465.49 2296.36 1463.98 Q2298.07 1462.48 2298.07 1459.79 Q2298.07 1457.11 2296.36 1455.6 Q2294.67 1454.1 2291.66 1454.1 Q2288.62 1454.1 2286.94 1455.6 Q2285.27 1457.11 2285.27 1459.79 Z" fill="#000000" fill-rule="evenodd" fill-opacity="1" /><path clip-path="url(#clip560)" d="M1221.66 1522.27 L1221.66 1532.4 L1233.72 1532.4 L1233.72 1536.95 L1221.66 1536.95 L1221.66 1556.3 Q1221.66 1560.66 1222.83 1561.9 Q1224.04 1563.14 1227.7 1563.14 L1233.72 1563.14 L1233.72 1568.04 L1227.7 1568.04 Q1220.92 1568.04 1218.35 1565.53 Q1215.77 1562.98 1215.77 1556.3 L1215.77 1536.95 L1211.47 1536.95 L1211.47 1532.4 L1215.77 1532.4 L1215.77 1522.27 L1221.66 1522.27 Z" fill="#000000" fill-rule="evenodd" fill-opacity="1" /><path clip-path="url(#clip560)" d="M1261.6 1518.52 L1275.1 1518.52 L1275.1 1523.07 L1267.46 1523.07 L1267.46 1572.09 L1275.1 1572.09 L1275.1 1576.64 L1261.6 1576.64 L1261.6 1518.52 Z" fill="#000000" fill-rule="evenodd" fill-opacity="1" /><path clip-path="url(#clip560)" d="M1310.3 1533.45 L1310.3 1538.98 Q1307.82 1537.71 1305.14 1537.07 Q1302.47 1536.44 1299.6 1536.44 Q1295.24 1536.44 1293.05 1537.77 Q1290.88 1539.11 1290.88 1541.79 Q1290.88 1543.82 1292.44 1545 Q1294 1546.15 1298.71 1547.2 L1300.72 1547.64 Q1306.96 1548.98 1309.57 1551.43 Q1312.21 1553.85 1312.21 1558.21 Q1312.21 1563.17 1308.26 1566.07 Q1304.35 1568.97 1297.47 1568.97 Q1294.61 1568.97 1291.49 1568.39 Q1288.4 1567.85 1284.96 1566.74 L1284.96 1560.69 Q1288.21 1562.38 1291.36 1563.24 Q1294.51 1564.07 1297.6 1564.07 Q1301.74 1564.07 1303.97 1562.66 Q1306.19 1561.23 1306.19 1558.65 Q1306.19 1556.27 1304.57 1554.99 Q1302.98 1553.72 1297.54 1552.54 L1295.5 1552.07 Q1290.06 1550.92 1287.64 1548.56 Q1285.22 1546.18 1285.22 1542.04 Q1285.22 1537.01 1288.78 1534.27 Q1292.35 1531.54 1298.9 1531.54 Q1302.15 1531.54 1305.02 1532.01 Q1307.88 1532.49 1310.3 1533.45 Z" fill="#000000" fill-rule="evenodd" fill-opacity="1" /><path clip-path="url(#clip560)" d="M1335.22 1518.52 L1335.22 1576.64 L1321.73 1576.64 L1321.73 1572.09 L1329.33 1572.09 L1329.33 1523.07 L1321.73 1523.07 L1321.73 1518.52 L1335.22 1518.52 Z" fill="#000000" fill-rule="evenodd" fill-opacity="1" /><polyline clip-path="url(#clip562)" style="stroke:#000000; stroke-linecap:round; stroke-linejoin:round; stroke-width:2; stroke-opacity:0.1; fill:none" points="
  193.936,1275.22 2352.76,1275.22 
  "/>
<polyline clip-path="url(#clip562)" style="stroke:#000000; stroke-linecap:round; stroke-linejoin:round; stroke-width:2; stroke-opacity:0.1; fill:none" points="
  193.936,1033.95 2352.76,1033.95 
  "/>
<polyline clip-path="url(#clip562)" style="stroke:#000000; stroke-linecap:round; stroke-linejoin:round; stroke-width:2; stroke-opacity:0.1; fill:none" points="
  193.936,792.678 2352.76,792.678 
  "/>
<polyline clip-path="url(#clip562)" style="stroke:#000000; stroke-linecap:round; stroke-linejoin:round; stroke-width:2; stroke-opacity:0.1; fill:none" points="
  193.936,551.407 2352.76,551.407 
  "/>
<polyline clip-path="url(#clip562)" style="stroke:#000000; stroke-linecap:round; stroke-linejoin:round; stroke-width:2; stroke-opacity:0.1; fill:none" points="
  193.936,310.135 2352.76,310.135 
  "/>
<polyline clip-path="url(#clip562)" style="stroke:#000000; stroke-linecap:round; stroke-linejoin:round; stroke-width:2; stroke-opacity:0.1; fill:none" points="
  193.936,68.8642 2352.76,68.8642 
  "/>
<polyline clip-path="url(#clip560)" style="stroke:#000000; stroke-linecap:round; stroke-linejoin:round; stroke-width:4; stroke-opacity:1; fill:none" points="
  193.936,1423.18 193.936,47.2441 
  "/>
<polyline clip-path="url(#clip560)" style="stroke:#000000; stroke-linecap:round; stroke-linejoin:round; stroke-width:4; stroke-opacity:1; fill:none" points="
  193.936,1275.22 212.834,1275.22 
  "/>
<polyline clip-path="url(#clip560)" style="stroke:#000000; stroke-linecap:round; stroke-linejoin:round; stroke-width:4; stroke-opacity:1; fill:none" points="
  193.936,1033.95 212.834,1033.95 
  "/>
<polyline clip-path="url(#clip560)" style="stroke:#000000; stroke-linecap:round; stroke-linejoin:round; stroke-width:4; stroke-opacity:1; fill:none" points="
  193.936,792.678 212.834,792.678 
  "/>
<polyline clip-path="url(#clip560)" style="stroke:#000000; stroke-linecap:round; stroke-linejoin:round; stroke-width:4; stroke-opacity:1; fill:none" points="
  193.936,551.407 212.834,551.407 
  "/>
<polyline clip-path="url(#clip560)" style="stroke:#000000; stroke-linecap:round; stroke-linejoin:round; stroke-width:4; stroke-opacity:1; fill:none" points="
  193.936,310.135 212.834,310.135 
  "/>
<polyline clip-path="url(#clip560)" style="stroke:#000000; stroke-linecap:round; stroke-linejoin:round; stroke-width:4; stroke-opacity:1; fill:none" points="
  193.936,68.8642 212.834,68.8642 
  "/>
<path clip-path="url(#clip560)" d="M50.9921 1275.67 L80.6679 1275.67 L80.6679 1279.61 L50.9921 1279.61 L50.9921 1275.67 Z" fill="#000000" fill-rule="evenodd" fill-opacity="1" /><path clip-path="url(#clip560)" d="M91.5706 1288.57 L99.2095 1288.57 L99.2095 1262.2 L90.8993 1263.87 L90.8993 1259.61 L99.1632 1257.94 L103.839 1257.94 L103.839 1288.57 L111.478 1288.57 L111.478 1292.5 L91.5706 1292.5 L91.5706 1288.57 Z" fill="#000000" fill-rule="evenodd" fill-opacity="1" /><path clip-path="url(#clip560)" d="M120.922 1286.62 L125.807 1286.62 L125.807 1292.5 L120.922 1292.5 L120.922 1286.62 Z" fill="#000000" fill-rule="evenodd" fill-opacity="1" /><path clip-path="url(#clip560)" d="M145.992 1261.02 Q142.381 1261.02 140.552 1264.58 Q138.746 1268.13 138.746 1275.25 Q138.746 1282.36 140.552 1285.93 Q142.381 1289.47 145.992 1289.47 Q149.626 1289.47 151.431 1285.93 Q153.26 1282.36 153.26 1275.25 Q153.26 1268.13 151.431 1264.58 Q149.626 1261.02 145.992 1261.02 M145.992 1257.32 Q151.802 1257.32 154.857 1261.92 Q157.936 1266.51 157.936 1275.25 Q157.936 1283.98 154.857 1288.59 Q151.802 1293.17 145.992 1293.17 Q140.181 1293.17 137.103 1288.59 Q134.047 1283.98 134.047 1275.25 Q134.047 1266.51 137.103 1261.92 Q140.181 1257.32 145.992 1257.32 Z" fill="#000000" fill-rule="evenodd" fill-opacity="1" /><path clip-path="url(#clip560)" d="M51.9875 1034.4 L81.6633 1034.4 L81.6633 1038.34 L51.9875 1038.34 L51.9875 1034.4 Z" fill="#000000" fill-rule="evenodd" fill-opacity="1" /><path clip-path="url(#clip560)" d="M101.756 1019.75 Q98.1447 1019.75 96.316 1023.31 Q94.5104 1026.85 94.5104 1033.98 Q94.5104 1041.09 96.316 1044.65 Q98.1447 1048.2 101.756 1048.2 Q105.39 1048.2 107.196 1044.65 Q109.024 1041.09 109.024 1033.98 Q109.024 1026.85 107.196 1023.31 Q105.39 1019.75 101.756 1019.75 M101.756 1016.04 Q107.566 1016.04 110.621 1020.65 Q113.7 1025.23 113.7 1033.98 Q113.7 1042.71 110.621 1047.32 Q107.566 1051.9 101.756 1051.9 Q95.9456 1051.9 92.8669 1047.32 Q89.8114 1042.71 89.8114 1033.98 Q89.8114 1025.23 92.8669 1020.65 Q95.9456 1016.04 101.756 1016.04 Z" fill="#000000" fill-rule="evenodd" fill-opacity="1" /><path clip-path="url(#clip560)" d="M121.918 1045.35 L126.802 1045.35 L126.802 1051.23 L121.918 1051.23 L121.918 1045.35 Z" fill="#000000" fill-rule="evenodd" fill-opacity="1" /><path clip-path="url(#clip560)" d="M137.033 1016.67 L155.39 1016.67 L155.39 1020.6 L141.316 1020.6 L141.316 1029.08 Q142.334 1028.73 143.353 1028.57 Q144.371 1028.38 145.39 1028.38 Q151.177 1028.38 154.556 1031.55 Q157.936 1034.72 157.936 1040.14 Q157.936 1045.72 154.464 1048.82 Q150.992 1051.9 144.672 1051.9 Q142.496 1051.9 140.228 1051.53 Q137.982 1051.16 135.575 1050.42 L135.575 1045.72 Q137.658 1046.85 139.881 1047.41 Q142.103 1047.97 144.58 1047.97 Q148.584 1047.97 150.922 1045.86 Q153.26 1043.75 153.26 1040.14 Q153.26 1036.53 150.922 1034.42 Q148.584 1032.32 144.58 1032.32 Q142.705 1032.32 140.83 1032.73 Q138.978 1033.15 137.033 1034.03 L137.033 1016.67 Z" fill="#000000" fill-rule="evenodd" fill-opacity="1" /><path clip-path="url(#clip560)" d="M100.76 778.477 Q97.1493 778.477 95.3206 782.041 Q93.515 785.583 93.515 792.713 Q93.515 799.819 95.3206 803.384 Q97.1493 806.925 100.76 806.925 Q104.395 806.925 106.2 803.384 Q108.029 799.819 108.029 792.713 Q108.029 785.583 106.2 782.041 Q104.395 778.477 100.76 778.477 M100.76 774.773 Q106.571 774.773 109.626 779.379 Q112.705 783.963 112.705 792.713 Q112.705 801.439 109.626 806.046 Q106.571 810.629 100.76 810.629 Q94.9502 810.629 91.8715 806.046 Q88.816 801.439 88.816 792.713 Q88.816 783.963 91.8715 779.379 Q94.9502 774.773 100.76 774.773 Z" fill="#000000" fill-rule="evenodd" fill-opacity="1" /><path clip-path="url(#clip560)" d="M120.922 804.078 L125.807 804.078 L125.807 809.958 L120.922 809.958 L120.922 804.078 Z" fill="#000000" fill-rule="evenodd" fill-opacity="1" /><path clip-path="url(#clip560)" d="M145.992 778.477 Q142.381 778.477 140.552 782.041 Q138.746 785.583 138.746 792.713 Q138.746 799.819 140.552 803.384 Q142.381 806.925 145.992 806.925 Q149.626 806.925 151.431 803.384 Q153.26 799.819 153.26 792.713 Q153.26 785.583 151.431 782.041 Q149.626 778.477 145.992 778.477 M145.992 774.773 Q151.802 774.773 154.857 779.379 Q157.936 783.963 157.936 792.713 Q157.936 801.439 154.857 806.046 Q151.802 810.629 145.992 810.629 Q140.181 810.629 137.103 806.046 Q134.047 801.439 134.047 792.713 Q134.047 783.963 137.103 779.379 Q140.181 774.773 145.992 774.773 Z" fill="#000000" fill-rule="evenodd" fill-opacity="1" /><path clip-path="url(#clip560)" d="M101.756 537.205 Q98.1447 537.205 96.316 540.77 Q94.5104 544.312 94.5104 551.441 Q94.5104 558.548 96.316 562.113 Q98.1447 565.654 101.756 565.654 Q105.39 565.654 107.196 562.113 Q109.024 558.548 109.024 551.441 Q109.024 544.312 107.196 540.77 Q105.39 537.205 101.756 537.205 M101.756 533.502 Q107.566 533.502 110.621 538.108 Q113.7 542.691 113.7 551.441 Q113.7 560.168 110.621 564.775 Q107.566 569.358 101.756 569.358 Q95.9456 569.358 92.8669 564.775 Q89.8114 560.168 89.8114 551.441 Q89.8114 542.691 92.8669 538.108 Q95.9456 533.502 101.756 533.502 Z" fill="#000000" fill-rule="evenodd" fill-opacity="1" /><path clip-path="url(#clip560)" d="M121.918 562.807 L126.802 562.807 L126.802 568.687 L121.918 568.687 L121.918 562.807 Z" fill="#000000" fill-rule="evenodd" fill-opacity="1" /><path clip-path="url(#clip560)" d="M137.033 534.127 L155.39 534.127 L155.39 538.062 L141.316 538.062 L141.316 546.534 Q142.334 546.187 143.353 546.025 Q144.371 545.84 145.39 545.84 Q151.177 545.84 154.556 549.011 Q157.936 552.182 157.936 557.599 Q157.936 563.177 154.464 566.279 Q150.992 569.358 144.672 569.358 Q142.496 569.358 140.228 568.988 Q137.982 568.617 135.575 567.876 L135.575 563.177 Q137.658 564.312 139.881 564.867 Q142.103 565.423 144.58 565.423 Q148.584 565.423 150.922 563.316 Q153.26 561.21 153.26 557.599 Q153.26 553.988 150.922 551.881 Q148.584 549.775 144.58 549.775 Q142.705 549.775 140.83 550.191 Q138.978 550.608 137.033 551.488 L137.033 534.127 Z" fill="#000000" fill-rule="evenodd" fill-opacity="1" /><path clip-path="url(#clip560)" d="M91.5706 323.48 L99.2095 323.48 L99.2095 297.115 L90.8993 298.781 L90.8993 294.522 L99.1632 292.855 L103.839 292.855 L103.839 323.48 L111.478 323.48 L111.478 327.415 L91.5706 327.415 L91.5706 323.48 Z" fill="#000000" fill-rule="evenodd" fill-opacity="1" /><path clip-path="url(#clip560)" d="M120.922 321.536 L125.807 321.536 L125.807 327.415 L120.922 327.415 L120.922 321.536 Z" fill="#000000" fill-rule="evenodd" fill-opacity="1" /><path clip-path="url(#clip560)" d="M145.992 295.934 Q142.381 295.934 140.552 299.499 Q138.746 303.041 138.746 310.17 Q138.746 317.277 140.552 320.841 Q142.381 324.383 145.992 324.383 Q149.626 324.383 151.431 320.841 Q153.26 317.277 153.26 310.17 Q153.26 303.041 151.431 299.499 Q149.626 295.934 145.992 295.934 M145.992 292.23 Q151.802 292.23 154.857 296.837 Q157.936 301.42 157.936 310.17 Q157.936 318.897 154.857 323.503 Q151.802 328.087 145.992 328.087 Q140.181 328.087 137.103 323.503 Q134.047 318.897 134.047 310.17 Q134.047 301.42 137.103 296.837 Q140.181 292.23 145.992 292.23 Z" fill="#000000" fill-rule="evenodd" fill-opacity="1" /><path clip-path="url(#clip560)" d="M92.566 82.209 L100.205 82.209 L100.205 55.8434 L91.8947 57.5101 L91.8947 53.2509 L100.159 51.5842 L104.834 51.5842 L104.834 82.209 L112.473 82.209 L112.473 86.1442 L92.566 86.1442 L92.566 82.209 Z" fill="#000000" fill-rule="evenodd" fill-opacity="1" /><path clip-path="url(#clip560)" d="M121.918 80.2646 L126.802 80.2646 L126.802 86.1442 L121.918 86.1442 L121.918 80.2646 Z" fill="#000000" fill-rule="evenodd" fill-opacity="1" /><path clip-path="url(#clip560)" d="M137.033 51.5842 L155.39 51.5842 L155.39 55.5194 L141.316 55.5194 L141.316 63.9915 Q142.334 63.6443 143.353 63.4823 Q144.371 63.2971 145.39 63.2971 Q151.177 63.2971 154.556 66.4684 Q157.936 69.6397 157.936 75.0563 Q157.936 80.635 154.464 83.7368 Q150.992 86.8155 144.672 86.8155 Q142.496 86.8155 140.228 86.4451 Q137.982 86.0748 135.575 85.334 L135.575 80.635 Q137.658 81.7692 139.881 82.3248 Q142.103 82.8803 144.58 82.8803 Q148.584 82.8803 150.922 80.7739 Q153.26 78.6674 153.26 75.0563 Q153.26 71.4452 150.922 69.3387 Q148.584 67.2323 144.58 67.2323 Q142.705 67.2323 140.83 67.6489 Q138.978 68.0656 137.033 68.9452 L137.033 51.5842 Z" fill="#000000" fill-rule="evenodd" fill-opacity="1" /><polyline clip-path="url(#clip562)" style="stroke:#009af9; stroke-linecap:round; stroke-linejoin:round; stroke-width:4; stroke-opacity:1; fill:none" points="
  255.035,551.407 257.58,551.299 260.126,550.986 262.672,550.467 265.218,549.738 267.764,548.801 270.309,547.654 272.855,546.297 275.401,544.731 277.947,542.955 
  280.492,540.971 283.038,538.779 285.584,536.382 288.13,533.78 290.676,530.976 293.221,527.973 295.767,524.773 298.313,521.377 300.859,517.79 303.404,514.016 
  305.95,510.055 308.496,505.913 311.042,501.594 313.588,497.102 316.133,492.439 318.679,487.614 321.225,482.631 323.771,477.493 326.316,472.205 328.862,466.772 
  331.408,461.198 333.954,455.488 336.5,449.655 339.045,443.699 341.591,437.626 344.137,431.442 346.683,425.151 349.228,418.759 351.774,412.277 354.32,405.709 
  356.866,399.063 359.412,392.343 361.957,385.557 364.503,378.711 367.049,371.813 369.595,364.869 372.14,357.886 374.686,350.872 377.232,343.834 379.778,336.779 
  382.324,329.716 384.869,322.648 387.415,315.583 389.961,308.53 392.507,301.495 395.052,294.486 397.598,287.511 400.144,280.576 402.69,273.686 405.236,266.848 
  407.781,260.071 410.327,253.361 412.873,246.726 415.419,240.172 417.964,233.705 420.51,227.33 423.056,221.055 425.602,214.886 428.148,208.83 430.693,202.893 
  433.239,197.081 435.785,191.398 438.331,185.851 440.876,180.445 443.422,175.187 445.968,170.082 448.514,165.135 451.06,160.352 453.605,155.734 456.151,151.289 
  458.697,147.022 461.243,142.936 463.788,139.037 466.334,135.329 468.88,131.814 471.426,128.497 473.972,125.382 476.517,122.472 479.063,119.772 481.609,117.284 
  484.155,115.012 486.7,112.958 489.246,111.125 491.792,109.517 494.338,108.135 496.884,106.983 499.429,106.062 501.975,105.375 504.521,104.924 507.067,104.712 
  509.612,104.74 512.158,104.937 514.704,105.302 517.25,105.836 519.796,106.543 522.341,107.423 524.887,108.477 527.433,109.704 529.979,111.105 532.524,112.679 
  535.07,114.425 537.616,116.342 540.162,118.43 542.708,120.685 545.253,123.105 547.799,125.69 550.345,128.438 552.891,131.348 555.437,134.416 557.982,137.635 
  560.528,141.007 563.074,144.53 565.62,148.201 568.165,152.017 570.711,155.967 573.257,160.053 575.803,164.273 578.349,168.622 580.894,173.098 583.44,177.687 
  585.986,182.392 588.532,187.208 591.077,192.131 593.623,197.157 596.169,202.275 598.715,207.484 601.261,212.778 603.806,218.155 606.352,223.608 608.898,229.129 
  611.444,234.713 613.989,240.356 616.535,246.052 619.081,251.798 621.627,257.583 624.173,263.404 626.718,269.255 629.264,275.131 631.81,281.026 634.356,286.932 
  636.901,292.845 639.447,298.758 641.993,304.667 644.539,310.564 647.085,316.444 649.63,322.301 652.176,328.129 654.722,333.923 657.268,339.675 659.813,345.382 
  662.359,351.037 664.905,356.634 667.451,362.168 669.997,367.632 672.542,373.022 675.088,378.333 677.634,383.558 680.18,388.693 682.725,393.731 685.271,398.669 
  687.817,403.502 690.363,408.224 692.909,412.83 695.454,417.315 698,421.673 700.546,425.906 703.092,430.004 705.637,433.963 708.183,437.778 710.729,441.446 
  713.275,444.967 715.821,448.334 718.366,451.542 720.912,454.587 723.458,457.465 726.004,460.179 728.549,462.722 731.095,465.089 733.641,467.278 736.187,469.284 
  738.733,471.111 741.278,472.752 743.824,474.204 746.37,475.465 748.916,476.531 751.461,477.404 754.007,478.082 756.553,478.561 759.099,478.838 761.645,478.909 
  764.19,478.798 766.736,478.569 769.282,478.21 771.828,477.717 774.373,477.09 776.919,476.326 779.465,475.426 782.011,474.39 784.557,473.218 787.102,471.91 
  789.648,470.468 792.194,468.891 794.74,467.181 797.285,465.339 799.831,463.365 802.377,461.262 804.923,459.03 807.469,456.672 810.014,454.19 812.56,451.585 
  815.106,448.861 817.652,446.021 820.197,443.065 822.743,439.996 825.289,436.817 827.835,433.533 830.381,430.146 832.926,426.658 835.472,423.071 838.018,419.391 
  840.564,415.622 843.109,411.766 845.655,407.826 848.201,403.806 850.747,399.712 853.293,395.547 855.838,391.315 858.384,387.018 860.93,382.663 863.476,378.255 
  866.021,373.797 868.567,369.294 871.113,364.748 873.659,360.166 876.205,355.55 878.75,350.905 881.296,346.239 883.842,341.555 886.388,336.856 888.933,332.148 
  891.479,327.436 894.025,322.722 896.571,318.014 899.117,313.314 901.662,308.629 904.208,303.962 906.754,299.319 909.3,294.704 911.845,290.122 914.391,285.578 
  916.937,281.078 919.483,276.623 922.029,272.218 924.574,267.869 927.12,263.58 929.666,259.356 932.212,255.202 934.757,251.122 937.303,247.121 939.849,243.2 
  942.395,239.363 944.941,235.616 947.486,231.963 950.032,228.408 952.578,224.955 955.124,221.608 957.669,218.371 960.215,215.243 962.761,212.23 965.307,209.336 
  967.853,206.564 970.398,203.918 972.944,201.401 975.49,199.015 978.036,196.762 980.581,194.646 983.127,192.668 985.673,190.833 988.219,189.141 990.765,187.597 
  993.31,186.201 995.856,184.957 998.402,183.864 1000.95,182.927 1003.49,182.146 1006.04,181.523 1008.59,181.06 1011.13,180.758 1013.68,180.619 1016.22,180.651 
  1018.77,180.777 1021.31,180.991 1023.86,181.293 1026.41,181.69 1028.95,182.181 1031.5,182.768 1034.04,183.451 1036.59,184.229 1039.13,185.104 1041.68,186.075 
  1044.23,187.141 1046.77,188.301 1049.32,189.557 1051.86,190.906 1054.41,192.348 1056.95,193.882 1059.5,195.506 1062.05,197.221 1064.59,199.022 1067.14,200.909 
  1069.68,202.88 1072.23,204.935 1074.78,207.073 1077.32,209.292 1079.87,211.59 1082.41,213.959 1084.96,216.402 1087.5,218.917 1090.05,221.504 1092.6,224.159 
  1095.14,226.881 1097.69,229.66 1100.23,232.499 1102.78,235.395 1105.32,238.347 1107.87,241.352 1110.42,244.408 1112.96,247.505 1115.51,250.645 1118.05,253.824 
  1120.6,257.041 1123.15,260.293 1125.69,263.577 1128.24,266.885 1130.78,270.216 1133.33,273.568 1135.87,276.938 1138.42,280.323 1140.97,283.719 1143.51,287.121 
  1146.06,290.526 1148.6,293.932 1151.15,297.335 1153.69,300.732 1156.24,304.119 1158.79,307.493 1161.33,310.85 1163.88,314.187 1166.42,317.501 1168.97,320.788 
  1171.51,324.044 1174.06,327.267 1176.61,330.454 1179.15,333.601 1181.7,336.704 1184.24,339.76 1186.79,342.767 1189.34,345.72 1191.88,348.619 1194.43,351.459 
  1196.97,354.237 1199.52,356.949 1202.06,359.593 1204.61,362.165 1207.16,364.666 1209.7,367.091 1212.25,369.437 1214.79,371.701 1217.34,373.88 1219.88,375.971 
  1222.43,377.976 1224.98,379.89 1227.52,381.71 1230.07,383.433 1232.61,385.057 1235.16,386.58 1237.71,388.003 1240.25,389.323 1242.8,390.536 1245.34,391.641 
  1247.89,392.635 1250.43,393.517 1252.98,394.287 1255.53,394.944 1258.07,395.485 1260.62,395.908 1263.16,396.211 1265.71,396.393 1268.25,396.453 1270.8,396.42 
  1273.35,396.341 1275.89,396.212 1278.44,396.031 1280.98,395.799 1283.53,395.516 1286.07,395.181 1288.62,394.795 1291.17,394.357 1293.71,393.868 1296.26,393.327 
  1298.8,392.734 1301.35,392.09 1303.9,391.396 1306.44,390.65 1308.99,389.856 1311.53,389.012 1314.08,388.119 1316.62,387.177 1319.17,386.185 1321.72,385.148 
  1324.26,384.065 1326.81,382.935 1329.35,381.76 1331.9,380.54 1334.44,379.277 1336.99,377.973 1339.54,376.628 1342.08,375.242 1344.63,373.817 1347.17,372.353 
  1349.72,370.854 1352.27,369.321 1354.81,367.753 1357.36,366.153 1359.9,364.521 1362.45,362.86 1364.99,361.172 1367.54,359.457 1370.09,357.718 1372.63,355.955 
  1375.18,354.17 1377.72,352.366 1380.27,350.545 1382.81,348.707 1385.36,346.854 1387.91,344.987 1390.45,343.111 1393,341.226 1395.54,339.334 1398.09,337.436 
  1400.63,335.534 1403.18,333.631 1405.73,331.728 1408.27,329.828 1410.82,327.932 1413.36,326.042 1415.91,324.159 1418.46,322.287 1421,320.426 1423.55,318.579 
  1426.09,316.748 1428.64,314.934 1431.18,313.14 1433.73,311.366 1436.28,309.616 1438.82,307.891 1441.37,306.192 1443.91,304.522 1446.46,302.882 1449,301.274 
  1451.55,299.7 1454.1,298.162 1456.64,296.662 1459.19,295.201 1461.73,293.781 1464.28,292.403 1466.83,291.068 1469.37,289.779 1471.92,288.537 1474.46,287.344 
  1477.01,286.201 1479.55,285.11 1482.1,284.073 1484.65,283.091 1487.19,282.164 1489.74,281.293 1492.28,280.48 1494.83,279.727 1497.37,279.035 1499.92,278.405 
  1502.47,277.838 1505.01,277.336 1507.56,276.9 1510.1,276.53 1512.65,276.226 1515.19,275.99 1517.74,275.823 1520.29,275.726 1522.83,275.698 1525.38,275.698 
  1527.92,275.698 1530.47,275.698 1533.02,275.698 1535.56,275.698 1538.11,275.698 1540.65,275.698 1543.2,275.698 1545.74,275.698 1548.29,275.698 1550.84,275.698 
  1553.38,275.698 1555.93,275.698 1558.47,275.698 1561.02,275.698 1563.56,275.698 1566.11,275.698 1568.66,275.698 1571.2,275.698 1573.75,275.698 1576.29,275.698 
  1578.84,275.698 1581.39,275.698 1583.93,275.698 1586.48,275.698 1589.02,275.698 1591.57,275.698 1594.11,275.698 1596.66,275.698 1599.21,275.698 1601.75,275.698 
  1604.3,275.698 1606.84,275.698 1609.39,275.698 1611.93,275.698 1614.48,275.698 1617.03,275.698 1619.57,275.698 1622.12,275.698 1624.66,275.698 1627.21,275.698 
  1629.75,275.698 1632.3,275.698 1634.85,275.698 1637.39,275.698 1639.94,275.698 1642.48,275.698 1645.03,275.698 1647.58,275.698 1650.12,275.698 1652.67,275.698 
  1655.21,275.698 1657.76,275.698 1660.3,275.698 1662.85,275.698 1665.4,275.698 1667.94,275.698 1670.49,275.698 1673.03,275.698 1675.58,275.698 1678.12,275.698 
  1680.67,275.698 1683.22,275.698 1685.76,275.698 1688.31,275.698 1690.85,275.698 1693.4,275.698 1695.95,275.698 1698.49,275.698 1701.04,275.698 1703.58,275.698 
  1706.13,275.698 1708.67,275.698 1711.22,275.698 1713.77,275.698 1716.31,275.698 1718.86,275.698 1721.4,275.698 1723.95,275.698 1726.49,275.698 1729.04,275.698 
  1731.59,275.698 1734.13,275.698 1736.68,275.698 1739.22,275.698 1741.77,275.698 1744.31,275.698 1746.86,275.698 1749.41,275.698 1751.95,275.698 1754.5,275.698 
  1757.04,275.698 1759.59,275.698 1762.14,275.698 1764.68,275.698 1767.23,275.698 1769.77,275.698 1772.32,275.698 1774.86,275.698 1777.41,275.698 1779.96,275.698 
  1782.5,275.698 1785.05,275.698 1787.59,275.698 1790.14,275.698 1792.68,275.698 1795.23,275.698 1797.78,275.698 1800.32,275.698 1802.87,275.698 1805.41,275.698 
  1807.96,275.698 1810.51,275.698 1813.05,275.698 1815.6,275.698 1818.14,275.698 1820.69,275.698 1823.23,275.698 1825.78,275.698 1828.33,275.698 1830.87,275.698 
  1833.42,275.698 1835.96,275.698 1838.51,275.698 1841.05,275.698 1843.6,275.698 1846.15,275.698 1848.69,275.698 1851.24,275.698 1853.78,275.698 1856.33,275.698 
  1858.87,275.698 1861.42,275.698 1863.97,275.698 1866.51,275.698 1869.06,275.698 1871.6,275.698 1874.15,275.698 1876.7,275.698 1879.24,275.698 1881.79,275.698 
  1884.33,275.698 1886.88,275.698 1889.42,275.698 1891.97,275.698 1894.52,275.698 1897.06,275.698 1899.61,275.698 1902.15,275.698 1904.7,275.698 1907.24,275.698 
  1909.79,275.698 1912.34,275.698 1914.88,275.698 1917.43,275.698 1919.97,275.698 1922.52,275.698 1925.07,275.698 1927.61,275.698 1930.16,275.698 1932.7,275.698 
  1935.25,275.698 1937.79,275.698 1940.34,275.698 1942.89,275.698 1945.43,275.698 1947.98,275.698 1950.52,275.698 1953.07,275.698 1955.61,275.698 1958.16,275.698 
  1960.71,275.698 1963.25,275.698 1965.8,275.698 1968.34,275.698 1970.89,275.698 1973.43,275.698 1975.98,275.698 1978.53,275.698 1981.07,275.698 1983.62,275.698 
  1986.16,275.698 1988.71,275.698 1991.26,275.698 1993.8,275.698 1996.35,275.698 1998.89,275.698 2001.44,275.698 2003.98,275.698 2006.53,275.698 2009.08,275.698 
  2011.62,275.698 2014.17,275.698 2016.71,275.698 2019.26,275.698 2021.8,275.698 2024.35,275.698 2026.9,275.698 2029.44,275.698 2031.99,275.698 2034.53,275.698 
  2037.08,275.698 2039.63,275.698 2042.17,275.698 2044.72,275.698 2047.26,275.698 2049.81,275.698 2052.35,275.698 2054.9,275.698 2057.45,275.698 2059.99,275.698 
  2062.54,275.698 2065.08,275.698 2067.63,275.698 2070.17,275.698 2072.72,275.698 2075.27,275.698 2077.81,275.698 2080.36,275.698 2082.9,275.698 2085.45,275.698 
  2087.99,275.698 2090.54,275.698 2093.09,275.698 2095.63,275.698 2098.18,275.698 2100.72,275.698 2103.27,275.698 2105.82,275.698 2108.36,275.698 2110.91,275.698 
  2113.45,275.698 2116,275.698 2118.54,275.698 2121.09,275.698 2123.64,275.698 2126.18,275.698 2128.73,275.698 2131.27,275.698 2133.82,275.698 2136.36,275.698 
  2138.91,275.698 2141.46,275.698 2144,275.698 2146.55,275.698 2149.09,275.698 2151.64,275.698 2154.19,275.698 2156.73,275.698 2159.28,275.698 2161.82,275.698 
  2164.37,275.698 2166.91,275.698 2169.46,275.698 2172.01,275.698 2174.55,275.698 2177.1,275.698 2179.64,275.698 2182.19,275.698 2184.73,275.698 2187.28,275.698 
  2189.83,275.698 2192.37,275.698 2194.92,275.698 2197.46,275.698 2200.01,275.698 2202.55,275.698 2205.1,275.698 2207.65,275.698 2210.19,275.698 2212.74,275.698 
  2215.28,275.698 2217.83,275.698 2220.38,275.698 2222.92,275.698 2225.47,275.698 2228.01,275.698 2230.56,275.698 2233.1,275.698 2235.65,275.698 2238.2,275.698 
  2240.74,275.698 2243.29,275.698 2245.83,275.698 2248.38,275.698 2250.92,275.698 2253.47,275.698 2256.02,275.698 2258.56,275.698 2261.11,275.698 2263.65,275.698 
  2266.2,275.698 2268.75,275.698 2271.29,275.698 2273.84,275.698 2276.38,275.698 2278.93,275.698 2281.47,275.698 2284.02,275.698 2286.57,275.698 2289.11,275.698 
  2291.66,275.698 
  "/>
<polyline clip-path="url(#clip562)" style="stroke:#e26f46; stroke-linecap:round; stroke-linejoin:round; stroke-width:4; stroke-opacity:1; fill:none" points="
  255.035,792.678 257.58,772.077 260.126,751.334 262.672,730.468 265.218,709.525 267.764,688.524 270.309,667.497 272.855,646.489 275.401,625.516 277.947,604.617 
  280.492,583.809 283.038,563.132 285.584,542.609 288.13,522.271 290.676,502.146 293.221,482.255 295.767,462.629 298.313,443.294 300.859,424.272 303.404,405.582 
  305.95,387.253 308.496,369.309 311.042,351.759 313.588,334.632 316.133,317.95 318.679,301.721 321.225,285.961 323.771,270.694 326.316,255.938 328.862,241.712 
  331.408,228.036 333.954,214.922 336.5,202.358 339.045,190.38 341.591,179 344.137,168.234 346.683,158.095 349.228,148.598 351.774,139.738 354.32,131.521 
  356.866,123.965 359.412,117.08 361.957,110.872 364.503,105.35 367.049,100.519 369.595,96.3752 372.14,92.9296 374.686,90.1853 377.232,88.1453 379.778,86.8116 
  382.324,86.1857 384.869,86.2675 387.415,87.0567 389.961,88.5526 392.507,90.7536 395.052,93.6574 397.598,97.2606 400.144,101.559 402.69,106.552 405.236,112.232 
  407.781,118.594 410.327,125.631 412.873,133.335 415.419,141.7 417.964,150.718 420.51,160.382 423.056,170.681 425.602,181.605 428.148,193.143 430.693,205.284 
  433.239,218.016 435.785,231.332 438.331,245.217 440.876,259.658 443.422,274.64 445.968,290.15 448.514,306.173 451.06,322.696 453.605,339.711 456.151,357.198 
  458.697,375.141 461.243,393.523 463.788,412.329 466.334,431.542 468.88,451.159 471.426,471.16 473.972,491.526 476.517,512.242 479.063,533.292 481.609,554.657 
  484.155,576.329 486.7,598.315 489.246,620.585 491.792,643.126 494.338,665.925 496.884,688.969 499.429,712.246 501.975,735.741 504.521,759.443 507.067,783.339 
  509.612,803.064 512.158,820.151 514.704,837.345 517.25,854.624 519.796,871.966 522.341,889.344 524.887,906.73 527.433,924.108 529.979,941.448 532.524,958.728 
  535.07,975.922 537.616,993.006 540.162,1009.96 542.708,1026.75 545.253,1043.38 547.799,1059.81 550.345,1076.01 552.891,1091.98 555.437,1107.68 557.982,1123.11 
  560.528,1138.25 563.074,1153.07 565.62,1167.54 568.165,1181.66 570.711,1195.44 573.257,1208.82 575.803,1221.81 578.349,1234.38 580.894,1246.51 583.44,1258.22 
  585.986,1269.47 588.532,1280.26 591.077,1290.56 593.623,1300.36 596.169,1309.68 598.715,1318.49 601.261,1326.78 603.806,1334.53 606.352,1341.74 608.898,1348.41 
  611.444,1354.54 613.989,1360.11 616.535,1365.1 619.081,1369.52 621.627,1373.37 624.173,1376.66 626.718,1379.35 629.264,1381.46 631.81,1382.97 634.356,1383.89 
  636.901,1384.24 639.447,1383.99 641.993,1383.14 644.539,1381.7 647.085,1379.67 649.63,1377.07 652.176,1373.87 654.722,1370.09 657.268,1365.72 659.813,1360.78 
  662.359,1355.28 664.905,1349.22 667.451,1342.59 669.997,1335.39 672.542,1327.66 675.088,1319.39 677.634,1310.59 680.18,1301.26 682.725,1291.41 685.271,1281.05 
  687.817,1270.2 690.363,1258.87 692.909,1247.05 695.454,1234.76 698,1222.02 700.546,1208.83 703.092,1195.22 705.637,1181.17 708.183,1166.72 710.729,1151.85 
  713.275,1136.62 715.821,1121 718.366,1105.02 720.912,1088.69 723.458,1072.02 726.004,1055.03 728.549,1037.73 731.095,1020.12 733.641,1002.22 736.187,984.049 
  738.733,965.604 741.278,946.901 743.824,927.952 746.37,908.77 748.916,889.365 751.461,869.764 754.007,849.979 756.553,830.018 759.099,809.895 761.645,790.682 
  764.19,777.33 766.736,763.892 769.282,750.377 771.828,736.808 774.373,723.19 776.919,709.556 779.465,695.91 782.011,682.279 784.557,668.68 787.102,655.124 
  789.648,641.646 792.194,628.246 794.74,614.943 797.285,601.762 799.831,588.713 802.377,575.817 804.923,563.091 807.469,550.55 810.014,538.21 812.56,526.089 
  815.106,514.196 817.652,502.547 820.197,491.159 822.743,480.047 825.289,469.226 827.835,458.696 830.381,448.478 832.926,438.587 835.472,429.037 838.018,419.831 
  840.564,410.978 843.109,402.493 845.655,394.39 848.201,386.679 850.747,379.352 853.293,372.43 855.838,365.922 858.384,359.837 860.93,354.174 863.476,348.932 
  866.021,344.125 868.567,339.76 871.113,335.845 873.659,332.385 876.205,329.389 878.75,326.862 881.296,324.78 883.842,323.158 886.388,322.005 888.933,321.323 
  891.479,321.116 894.025,321.385 896.571,322.133 899.117,323.359 901.662,325.041 904.208,327.193 906.754,329.816 909.3,332.906 911.845,336.461 914.391,340.479 
  916.937,344.957 919.483,349.889 922.029,355.27 924.574,361.097 927.12,367.365 929.666,374.068 932.212,381.199 934.757,388.752 937.303,396.72 939.849,405.1 
  942.395,413.884 944.941,423.062 947.486,432.627 950.032,442.569 952.578,452.878 955.124,463.547 957.669,474.566 960.215,485.937 962.761,497.643 965.307,509.674 
  967.853,522.02 970.398,534.669 972.944,547.613 975.49,560.838 978.036,574.343 980.581,588.125 983.127,602.165 985.673,616.453 988.219,630.978 990.765,645.731 
  993.31,660.7 995.856,675.874 998.402,691.246 1000.95,706.806 1003.49,722.539 1006.04,738.437 1008.59,754.487 1011.13,770.678 1013.68,787 1016.22,798.815 
  1018.77,808.251 1021.31,817.742 1023.86,827.284 1026.41,836.868 1028.95,846.478 1031.5,856.109 1034.04,865.743 1036.59,875.367 1039.13,884.97 1041.68,894.549 
  1044.23,904.081 1046.77,913.559 1049.32,922.974 1051.86,932.308 1054.41,941.552 1056.95,950.694 1059.5,959.722 1062.05,968.623 1064.59,977.389 1067.14,986.012 
  1069.68,994.478 1072.23,1002.77 1074.78,1010.89 1077.32,1018.81 1079.87,1026.54 1082.41,1034.07 1084.96,1041.38 1087.5,1048.47 1090.05,1055.31 1092.6,1061.91 
  1095.14,1068.26 1097.69,1074.36 1100.23,1080.2 1102.78,1085.77 1105.32,1091.05 1107.87,1096.05 1110.42,1100.74 1112.96,1105.16 1115.51,1109.27 1118.05,1113.08 
  1120.6,1116.57 1123.15,1119.74 1125.69,1122.58 1128.24,1125.12 1130.78,1127.32 1133.33,1129.2 1135.87,1130.75 1138.42,1131.95 1140.97,1132.8 1143.51,1133.33 
  1146.06,1133.53 1148.6,1133.39 1151.15,1132.9 1153.69,1132.06 1156.24,1130.88 1158.79,1129.36 1161.33,1127.51 1163.88,1125.32 1166.42,1122.8 1168.97,1119.93 
  1171.51,1116.72 1174.06,1113.18 1176.61,1109.33 1179.15,1105.15 1181.7,1100.64 1184.24,1095.81 1186.79,1090.66 1189.34,1085.2 1191.88,1079.44 1194.43,1073.38 
  1196.97,1067.03 1199.52,1060.37 1202.06,1053.43 1204.61,1046.19 1207.16,1038.7 1209.7,1030.93 1212.25,1022.9 1214.79,1014.61 1217.34,1006.06 1219.88,997.259 
  1222.43,988.229 1224.98,978.968 1227.52,969.48 1230.07,959.771 1232.61,949.848 1235.16,939.716 1237.71,929.389 1240.25,918.871 1242.8,908.168 1245.34,897.286 
  1247.89,886.232 1250.43,875.012 1252.98,863.633 1255.53,852.102 1258.07,840.424 1260.62,828.608 1263.16,816.658 1265.71,804.583 1268.25,792.578 1270.8,787.537 
  1273.35,782.46 1275.89,777.349 1278.44,772.216 1280.98,767.063 1283.53,761.885 1286.07,756.704 1288.62,751.519 1291.17,746.324 1293.71,741.148 1296.26,735.982 
  1298.8,730.825 1301.35,725.706 1303.9,720.614 1306.44,715.548 1308.99,710.547 1311.53,705.595 1314.08,700.695 1316.62,695.849 1319.17,691.06 1321.72,686.348 
  1324.26,681.718 1326.81,677.169 1329.35,672.705 1331.9,668.331 1334.44,664.055 1336.99,659.886 1339.54,655.825 1342.08,651.879 1344.63,648.053 1347.17,644.353 
  1349.72,640.779 1352.27,637.338 1354.81,634.036 1357.36,630.878 1359.9,627.87 1362.45,625.009 1364.99,622.301 1367.54,619.751 1370.09,617.365 1372.63,615.145 
  1375.18,613.095 1377.72,611.21 1380.27,609.499 1382.81,607.965 1385.36,606.612 1387.91,605.443 1390.45,604.449 1393,603.64 1395.54,603.018 1398.09,602.585 
  1400.63,602.344 1403.18,602.289 1405.73,602.422 1408.27,602.746 1410.82,603.264 1413.36,603.976 1415.91,604.88 1418.46,605.966 1421,607.243 1423.55,608.709 
  1426.09,610.365 1428.64,612.212 1431.18,614.248 1433.73,616.475 1436.28,618.893 1438.82,621.5 1441.37,624.275 1443.91,627.23 1446.46,630.365 1449,633.678 
  1451.55,637.168 1454.1,640.833 1456.64,644.671 1459.19,648.679 1461.73,652.858 1464.28,657.192 1466.83,661.685 1469.37,666.333 1471.92,671.136 1474.46,676.088 
  1477.01,681.187 1479.55,686.428 1482.1,691.808 1484.65,697.324 1487.19,702.972 1489.74,708.749 1492.28,714.65 1494.83,720.67 1497.37,726.805 1499.92,733.05 
  1502.47,739.401 1505.01,745.853 1507.56,752.4 1510.1,759.039 1512.65,765.767 1515.19,772.576 1517.74,779.463 1520.29,786.423 1522.83,792.678 1525.38,792.678 
  1527.92,792.678 1530.47,792.678 1533.02,792.678 1535.56,792.678 1538.11,792.678 1540.65,792.678 1543.2,792.678 1545.74,792.678 1548.29,792.678 1550.84,792.678 
  1553.38,792.678 1555.93,792.678 1558.47,792.678 1561.02,792.678 1563.56,792.678 1566.11,792.678 1568.66,792.678 1571.2,792.678 1573.75,792.678 1576.29,792.678 
  1578.84,792.678 1581.39,792.678 1583.93,792.678 1586.48,792.678 1589.02,792.678 1591.57,792.678 1594.11,792.678 1596.66,792.678 1599.21,792.678 1601.75,792.678 
  1604.3,792.678 1606.84,792.678 1609.39,792.678 1611.93,792.678 1614.48,792.678 1617.03,792.678 1619.57,792.678 1622.12,792.678 1624.66,792.678 1627.21,792.678 
  1629.75,792.678 1632.3,792.678 1634.85,792.678 1637.39,792.678 1639.94,792.678 1642.48,792.678 1645.03,792.678 1647.58,792.678 1650.12,792.678 1652.67,792.678 
  1655.21,792.678 1657.76,792.678 1660.3,792.678 1662.85,792.678 1665.4,792.678 1667.94,792.678 1670.49,792.678 1673.03,792.678 1675.58,792.678 1678.12,792.678 
  1680.67,792.678 1683.22,792.678 1685.76,792.678 1688.31,792.678 1690.85,792.678 1693.4,792.678 1695.95,792.678 1698.49,792.678 1701.04,792.678 1703.58,792.678 
  1706.13,792.678 1708.67,792.678 1711.22,792.678 1713.77,792.678 1716.31,792.678 1718.86,792.678 1721.4,792.678 1723.95,792.678 1726.49,792.678 1729.04,792.678 
  1731.59,792.678 1734.13,792.678 1736.68,792.678 1739.22,792.678 1741.77,792.678 1744.31,792.678 1746.86,792.678 1749.41,792.678 1751.95,792.678 1754.5,792.678 
  1757.04,792.678 1759.59,792.678 1762.14,792.678 1764.68,792.678 1767.23,792.678 1769.77,792.678 1772.32,792.678 1774.86,792.678 1777.41,792.678 1779.96,792.678 
  1782.5,792.678 1785.05,792.678 1787.59,792.678 1790.14,792.678 1792.68,792.678 1795.23,792.678 1797.78,792.678 1800.32,792.678 1802.87,792.678 1805.41,792.678 
  1807.96,792.678 1810.51,792.678 1813.05,792.678 1815.6,792.678 1818.14,792.678 1820.69,792.678 1823.23,792.678 1825.78,792.678 1828.33,792.678 1830.87,792.678 
  1833.42,792.678 1835.96,792.678 1838.51,792.678 1841.05,792.678 1843.6,792.678 1846.15,792.678 1848.69,792.678 1851.24,792.678 1853.78,792.678 1856.33,792.678 
  1858.87,792.678 1861.42,792.678 1863.97,792.678 1866.51,792.678 1869.06,792.678 1871.6,792.678 1874.15,792.678 1876.7,792.678 1879.24,792.678 1881.79,792.678 
  1884.33,792.678 1886.88,792.678 1889.42,792.678 1891.97,792.678 1894.52,792.678 1897.06,792.678 1899.61,792.678 1902.15,792.678 1904.7,792.678 1907.24,792.678 
  1909.79,792.678 1912.34,792.678 1914.88,792.678 1917.43,792.678 1919.97,792.678 1922.52,792.678 1925.07,792.678 1927.61,792.678 1930.16,792.678 1932.7,792.678 
  1935.25,792.678 1937.79,792.678 1940.34,792.678 1942.89,792.678 1945.43,792.678 1947.98,792.678 1950.52,792.678 1953.07,792.678 1955.61,792.678 1958.16,792.678 
  1960.71,792.678 1963.25,792.678 1965.8,792.678 1968.34,792.678 1970.89,792.678 1973.43,792.678 1975.98,792.678 1978.53,792.678 1981.07,792.678 1983.62,792.678 
  1986.16,792.678 1988.71,792.678 1991.26,792.678 1993.8,792.678 1996.35,792.678 1998.89,792.678 2001.44,792.678 2003.98,792.678 2006.53,792.678 2009.08,792.678 
  2011.62,792.678 2014.17,792.678 2016.71,792.678 2019.26,792.678 2021.8,792.678 2024.35,792.678 2026.9,792.678 2029.44,792.678 2031.99,792.678 2034.53,792.678 
  2037.08,792.678 2039.63,792.678 2042.17,792.678 2044.72,792.678 2047.26,792.678 2049.81,792.678 2052.35,792.678 2054.9,792.678 2057.45,792.678 2059.99,792.678 
  2062.54,792.678 2065.08,792.678 2067.63,792.678 2070.17,792.678 2072.72,792.678 2075.27,792.678 2077.81,792.678 2080.36,792.678 2082.9,792.678 2085.45,792.678 
  2087.99,792.678 2090.54,792.678 2093.09,792.678 2095.63,792.678 2098.18,792.678 2100.72,792.678 2103.27,792.678 2105.82,792.678 2108.36,792.678 2110.91,792.678 
  2113.45,792.678 2116,792.678 2118.54,792.678 2121.09,792.678 2123.64,792.678 2126.18,792.678 2128.73,792.678 2131.27,792.678 2133.82,792.678 2136.36,792.678 
  2138.91,792.678 2141.46,792.678 2144,792.678 2146.55,792.678 2149.09,792.678 2151.64,792.678 2154.19,792.678 2156.73,792.678 2159.28,792.678 2161.82,792.678 
  2164.37,792.678 2166.91,792.678 2169.46,792.678 2172.01,792.678 2174.55,792.678 2177.1,792.678 2179.64,792.678 2182.19,792.678 2184.73,792.678 2187.28,792.678 
  2189.83,792.678 2192.37,792.678 2194.92,792.678 2197.46,792.678 2200.01,792.678 2202.55,792.678 2205.1,792.678 2207.65,792.678 2210.19,792.678 2212.74,792.678 
  2215.28,792.678 2217.83,792.678 2220.38,792.678 2222.92,792.678 2225.47,792.678 2228.01,792.678 2230.56,792.678 2233.1,792.678 2235.65,792.678 2238.2,792.678 
  2240.74,792.678 2243.29,792.678 2245.83,792.678 2248.38,792.678 2250.92,792.678 2253.47,792.678 2256.02,792.678 2258.56,792.678 2261.11,792.678 2263.65,792.678 
  2266.2,792.678 2268.75,792.678 2271.29,792.678 2273.84,792.678 2276.38,792.678 2278.93,792.678 2281.47,792.678 2284.02,792.678 2286.57,792.678 2289.11,792.678 
  2291.66,792.678 
  "/>
<path clip-path="url(#clip560)" d="
M1588.2 248.629 L2280.8 248.629 L2280.8 93.1086 L1588.2 93.1086  Z
  " fill="#ffffff" fill-rule="evenodd" fill-opacity="1"/>
<polyline clip-path="url(#clip560)" style="stroke:#000000; stroke-linecap:round; stroke-linejoin:round; stroke-width:4; stroke-opacity:1; fill:none" points="
  1588.2,248.629 2280.8,248.629 2280.8,93.1086 1588.2,93.1086 1588.2,248.629 
  "/>
<polyline clip-path="url(#clip560)" style="stroke:#009af9; stroke-linecap:round; stroke-linejoin:round; stroke-width:4; stroke-opacity:1; fill:none" points="
  1612.18,144.949 1756.11,144.949 
  "/>
<path clip-path="url(#clip560)" d="M1800.44 141.28 Q1802.04 138.409 1804.26 137.044 Q1806.48 135.678 1809.49 135.678 Q1813.54 135.678 1815.74 138.525 Q1817.94 141.349 1817.94 146.581 L1817.94 162.229 L1813.66 162.229 L1813.66 146.719 Q1813.66 142.993 1812.34 141.187 Q1811.02 139.382 1808.31 139.382 Q1805 139.382 1803.08 141.581 Q1801.16 143.78 1801.16 147.576 L1801.16 162.229 L1796.87 162.229 L1796.87 146.719 Q1796.87 142.969 1795.56 141.187 Q1794.24 139.382 1791.48 139.382 Q1788.22 139.382 1786.3 141.604 Q1784.37 143.803 1784.37 147.576 L1784.37 162.229 L1780.09 162.229 L1780.09 136.303 L1784.37 136.303 L1784.37 140.331 Q1785.83 137.946 1787.87 136.812 Q1789.91 135.678 1792.71 135.678 Q1795.53 135.678 1797.5 137.113 Q1799.49 138.548 1800.44 141.28 Z" fill="#000000" fill-rule="evenodd" fill-opacity="1" /><path clip-path="url(#clip560)" d="M1838.22 149.196 Q1833.06 149.196 1831.06 150.377 Q1829.07 151.557 1829.07 154.405 Q1829.07 156.673 1830.56 158.016 Q1832.06 159.335 1834.63 159.335 Q1838.17 159.335 1840.3 156.835 Q1842.45 154.312 1842.45 150.145 L1842.45 149.196 L1838.22 149.196 M1846.71 147.437 L1846.71 162.229 L1842.45 162.229 L1842.45 158.293 Q1840.99 160.655 1838.82 161.789 Q1836.64 162.9 1833.49 162.9 Q1829.51 162.9 1827.15 160.678 Q1824.81 158.432 1824.81 154.682 Q1824.81 150.307 1827.73 148.085 Q1830.67 145.863 1836.48 145.863 L1842.45 145.863 L1842.45 145.446 Q1842.45 142.507 1840.51 140.909 Q1838.59 139.289 1835.09 139.289 Q1832.87 139.289 1830.76 139.821 Q1828.66 140.354 1826.71 141.419 L1826.71 137.483 Q1829.05 136.581 1831.25 136.141 Q1833.45 135.678 1835.53 135.678 Q1841.16 135.678 1843.93 138.594 Q1846.71 141.511 1846.71 147.437 Z" fill="#000000" fill-rule="evenodd" fill-opacity="1" /><path clip-path="url(#clip560)" d="M1872.01 137.067 L1872.01 141.094 Q1870.21 140.169 1868.26 139.706 Q1866.32 139.243 1864.24 139.243 Q1861.06 139.243 1859.47 140.215 Q1857.89 141.187 1857.89 143.131 Q1857.89 144.613 1859.03 145.469 Q1860.16 146.303 1863.59 147.067 L1865.05 147.391 Q1869.58 148.363 1871.48 150.145 Q1873.4 151.905 1873.4 155.076 Q1873.4 158.687 1870.53 160.793 Q1867.68 162.9 1862.68 162.9 Q1860.6 162.9 1858.33 162.483 Q1856.09 162.09 1853.59 161.28 L1853.59 156.881 Q1855.95 158.108 1858.24 158.733 Q1860.53 159.335 1862.78 159.335 Q1865.79 159.335 1867.41 158.317 Q1869.03 157.275 1869.03 155.4 Q1869.03 153.664 1867.85 152.738 Q1866.69 151.812 1862.73 150.956 L1861.25 150.608 Q1857.29 149.775 1855.53 148.062 Q1853.77 146.326 1853.77 143.317 Q1853.77 139.659 1856.37 137.669 Q1858.96 135.678 1863.73 135.678 Q1866.09 135.678 1868.17 136.025 Q1870.25 136.372 1872.01 137.067 Z" fill="#000000" fill-rule="evenodd" fill-opacity="1" /><path clip-path="url(#clip560)" d="M1896.71 137.067 L1896.71 141.094 Q1894.91 140.169 1892.96 139.706 Q1891.02 139.243 1888.93 139.243 Q1885.76 139.243 1884.17 140.215 Q1882.59 141.187 1882.59 143.131 Q1882.59 144.613 1883.73 145.469 Q1884.86 146.303 1888.29 147.067 L1889.74 147.391 Q1894.28 148.363 1896.18 150.145 Q1898.1 151.905 1898.1 155.076 Q1898.1 158.687 1895.23 160.793 Q1892.38 162.9 1887.38 162.9 Q1885.3 162.9 1883.03 162.483 Q1880.79 162.09 1878.29 161.28 L1878.29 156.881 Q1880.65 158.108 1882.94 158.733 Q1885.23 159.335 1887.48 159.335 Q1890.49 159.335 1892.11 158.317 Q1893.73 157.275 1893.73 155.4 Q1893.73 153.664 1892.55 152.738 Q1891.39 151.812 1887.43 150.956 L1885.95 150.608 Q1881.99 149.775 1880.23 148.062 Q1878.47 146.326 1878.47 143.317 Q1878.47 139.659 1881.06 137.669 Q1883.66 135.678 1888.43 135.678 Q1890.79 135.678 1892.87 136.025 Q1894.95 136.372 1896.71 137.067 Z" fill="#000000" fill-rule="evenodd" fill-opacity="1" /><path clip-path="url(#clip560)" d="M1905.49 156.349 L1910.37 156.349 L1910.37 162.229 L1905.49 162.229 L1905.49 156.349 Z" fill="#000000" fill-rule="evenodd" fill-opacity="1" /><path clip-path="url(#clip560)" d="M1936.48 137.067 L1936.48 141.094 Q1934.67 140.169 1932.73 139.706 Q1930.79 139.243 1928.7 139.243 Q1925.53 139.243 1923.93 140.215 Q1922.36 141.187 1922.36 143.131 Q1922.36 144.613 1923.49 145.469 Q1924.63 146.303 1928.05 147.067 L1929.51 147.391 Q1934.05 148.363 1935.95 150.145 Q1937.87 151.905 1937.87 155.076 Q1937.87 158.687 1935 160.793 Q1932.15 162.9 1927.15 162.9 Q1925.07 162.9 1922.8 162.483 Q1920.55 162.09 1918.05 161.28 L1918.05 156.881 Q1920.42 158.108 1922.71 158.733 Q1925 159.335 1927.24 159.335 Q1930.25 159.335 1931.87 158.317 Q1933.49 157.275 1933.49 155.4 Q1933.49 153.664 1932.31 152.738 Q1931.16 151.812 1927.2 150.956 L1925.72 150.608 Q1921.76 149.775 1920 148.062 Q1918.24 146.326 1918.24 143.317 Q1918.24 139.659 1920.83 137.669 Q1923.42 135.678 1928.19 135.678 Q1930.55 135.678 1932.64 136.025 Q1934.72 136.372 1936.48 137.067 Z" fill="#000000" fill-rule="evenodd" fill-opacity="1" /><path clip-path="url(#clip560)" d="M1969.95 126.257 Q1966.85 131.581 1965.35 136.789 Q1963.84 141.997 1963.84 147.344 Q1963.84 152.692 1965.35 157.946 Q1966.87 163.178 1969.95 168.479 L1966.25 168.479 Q1962.78 163.039 1961.04 157.784 Q1959.33 152.53 1959.33 147.344 Q1959.33 142.182 1961.04 136.951 Q1962.75 131.72 1966.25 126.257 L1969.95 126.257 Z" fill="#000000" fill-rule="evenodd" fill-opacity="1" /><path clip-path="url(#clip560)" d="M1992.98 143.594 Q1996.34 144.312 1998.22 146.581 Q2000.11 148.849 2000.11 152.182 Q2000.11 157.298 1996.6 160.099 Q1993.08 162.9 1986.6 162.9 Q1984.42 162.9 1982.11 162.46 Q1979.81 162.043 1977.36 161.187 L1977.36 156.673 Q1979.3 157.807 1981.62 158.386 Q1983.93 158.965 1986.46 158.965 Q1990.86 158.965 1993.15 157.229 Q1995.46 155.493 1995.46 152.182 Q1995.46 149.127 1993.31 147.414 Q1991.18 145.678 1987.36 145.678 L1983.33 145.678 L1983.33 141.835 L1987.55 141.835 Q1990.99 141.835 1992.82 140.469 Q1994.65 139.081 1994.65 136.488 Q1994.65 133.826 1992.75 132.414 Q1990.88 130.979 1987.36 130.979 Q1985.44 130.979 1983.24 131.395 Q1981.04 131.812 1978.4 132.692 L1978.4 128.525 Q1981.06 127.784 1983.38 127.414 Q1985.72 127.044 1987.78 127.044 Q1993.1 127.044 1996.2 129.474 Q1999.3 131.882 1999.3 136.002 Q1999.3 138.872 1997.66 140.863 Q1996.02 142.831 1992.98 143.594 Z" fill="#000000" fill-rule="evenodd" fill-opacity="1" /><path clip-path="url(#clip560)" d="M2023.15 143.594 Q2026.5 144.312 2028.38 146.581 Q2030.28 148.849 2030.28 152.182 Q2030.28 157.298 2026.76 160.099 Q2023.24 162.9 2016.76 162.9 Q2014.58 162.9 2012.27 162.46 Q2009.98 162.043 2007.52 161.187 L2007.52 156.673 Q2009.47 157.807 2011.78 158.386 Q2014.1 158.965 2016.62 158.965 Q2021.02 158.965 2023.31 157.229 Q2025.62 155.493 2025.62 152.182 Q2025.62 149.127 2023.47 147.414 Q2021.34 145.678 2017.52 145.678 L2013.49 145.678 L2013.49 141.835 L2017.71 141.835 Q2021.16 141.835 2022.98 140.469 Q2024.81 139.081 2024.81 136.488 Q2024.81 133.826 2022.92 132.414 Q2021.04 130.979 2017.52 130.979 Q2015.6 130.979 2013.4 131.395 Q2011.2 131.812 2008.56 132.692 L2008.56 128.525 Q2011.23 127.784 2013.54 127.414 Q2015.88 127.044 2017.94 127.044 Q2023.26 127.044 2026.36 129.474 Q2029.47 131.882 2029.47 136.002 Q2029.47 138.872 2027.82 140.863 Q2026.18 142.831 2023.15 143.594 Z" fill="#000000" fill-rule="evenodd" fill-opacity="1" /><path clip-path="url(#clip560)" d="M2039.19 127.669 L2057.54 127.669 L2057.54 131.604 L2043.47 131.604 L2043.47 140.076 Q2044.49 139.729 2045.51 139.567 Q2046.53 139.382 2047.54 139.382 Q2053.33 139.382 2056.71 142.553 Q2060.09 145.724 2060.09 151.141 Q2060.09 156.719 2056.62 159.821 Q2053.15 162.9 2046.83 162.9 Q2044.65 162.9 2042.38 162.53 Q2040.14 162.159 2037.73 161.418 L2037.73 156.719 Q2039.81 157.854 2042.04 158.409 Q2044.26 158.965 2046.73 158.965 Q2050.74 158.965 2053.08 156.858 Q2055.42 154.752 2055.42 151.141 Q2055.42 147.53 2053.08 145.423 Q2050.74 143.317 2046.73 143.317 Q2044.86 143.317 2042.98 143.733 Q2041.13 144.15 2039.19 145.03 L2039.19 127.669 Z" fill="#000000" fill-rule="evenodd" fill-opacity="1" /><path clip-path="url(#clip560)" d="M2069.35 127.669 L2087.71 127.669 L2087.71 131.604 L2073.63 131.604 L2073.63 140.076 Q2074.65 139.729 2075.67 139.567 Q2076.69 139.382 2077.71 139.382 Q2083.49 139.382 2086.87 142.553 Q2090.25 145.724 2090.25 151.141 Q2090.25 156.719 2086.78 159.821 Q2083.31 162.9 2076.99 162.9 Q2074.81 162.9 2072.54 162.53 Q2070.3 162.159 2067.89 161.418 L2067.89 156.719 Q2069.98 157.854 2072.2 158.409 Q2074.42 158.965 2076.9 158.965 Q2080.9 158.965 2083.24 156.858 Q2085.58 154.752 2085.58 151.141 Q2085.58 147.53 2083.24 145.423 Q2080.9 143.317 2076.9 143.317 Q2075.02 143.317 2073.15 143.733 Q2071.29 144.15 2069.35 145.03 L2069.35 127.669 Z" fill="#000000" fill-rule="evenodd" fill-opacity="1" /><path clip-path="url(#clip560)" d="M2112.31 131.743 L2100.51 150.192 L2112.31 150.192 L2112.31 131.743 M2111.09 127.669 L2116.97 127.669 L2116.97 150.192 L2121.9 150.192 L2121.9 154.081 L2116.97 154.081 L2116.97 162.229 L2112.31 162.229 L2112.31 154.081 L2096.71 154.081 L2096.71 149.567 L2111.09 127.669 Z" fill="#000000" fill-rule="evenodd" fill-opacity="1" /><path clip-path="url(#clip560)" d="M2142.47 131.743 L2130.67 150.192 L2142.47 150.192 L2142.47 131.743 M2141.25 127.669 L2147.13 127.669 L2147.13 150.192 L2152.06 150.192 L2152.06 154.081 L2147.13 154.081 L2147.13 162.229 L2142.47 162.229 L2142.47 154.081 L2126.87 154.081 L2126.87 149.567 L2141.25 127.669 Z" fill="#000000" fill-rule="evenodd" fill-opacity="1" /><path clip-path="url(#clip560)" d="M2173.96 143.594 Q2177.31 144.312 2179.19 146.581 Q2181.09 148.849 2181.09 152.182 Q2181.09 157.298 2177.57 160.099 Q2174.05 162.9 2167.57 162.9 Q2165.39 162.9 2163.08 162.46 Q2160.78 162.043 2158.33 161.187 L2158.33 156.673 Q2160.28 157.807 2162.59 158.386 Q2164.91 158.965 2167.43 158.965 Q2171.83 158.965 2174.12 157.229 Q2176.43 155.493 2176.43 152.182 Q2176.43 149.127 2174.28 147.414 Q2172.15 145.678 2168.33 145.678 L2164.3 145.678 L2164.3 141.835 L2168.52 141.835 Q2171.97 141.835 2173.79 140.469 Q2175.62 139.081 2175.62 136.488 Q2175.62 133.826 2173.72 132.414 Q2171.85 130.979 2168.33 130.979 Q2166.41 130.979 2164.21 131.395 Q2162.01 131.812 2159.37 132.692 L2159.37 128.525 Q2162.03 127.784 2164.35 127.414 Q2166.69 127.044 2168.75 127.044 Q2174.07 127.044 2177.17 129.474 Q2180.28 131.882 2180.28 136.002 Q2180.28 138.872 2178.63 140.863 Q2176.99 142.831 2173.96 143.594 Z" fill="#000000" fill-rule="evenodd" fill-opacity="1" /><path clip-path="url(#clip560)" d="M2193.98 158.293 L2210.3 158.293 L2210.3 162.229 L2188.35 162.229 L2188.35 158.293 Q2191.02 155.539 2195.6 150.909 Q2200.21 146.256 2201.39 144.914 Q2203.63 142.391 2204.51 140.655 Q2205.41 138.895 2205.41 137.206 Q2205.41 134.451 2203.47 132.715 Q2201.55 130.979 2198.45 130.979 Q2196.25 130.979 2193.79 131.743 Q2191.36 132.507 2188.59 134.057 L2188.59 129.335 Q2191.41 128.201 2193.86 127.622 Q2196.32 127.044 2198.35 127.044 Q2203.72 127.044 2206.92 129.729 Q2210.11 132.414 2210.11 136.905 Q2210.11 139.034 2209.3 140.956 Q2208.52 142.854 2206.41 145.446 Q2205.83 146.118 2202.73 149.335 Q2199.63 152.53 2193.98 158.293 Z" fill="#000000" fill-rule="evenodd" fill-opacity="1" /><path clip-path="url(#clip560)" d="M2218.84 126.257 L2222.54 126.257 Q2226.02 131.72 2227.73 136.951 Q2229.47 142.182 2229.47 147.344 Q2229.47 152.53 2227.73 157.784 Q2226.02 163.039 2222.54 168.479 L2218.84 168.479 Q2221.92 163.178 2223.42 157.946 Q2224.95 152.692 2224.95 147.344 Q2224.95 141.997 2223.42 136.789 Q2221.92 131.581 2218.84 126.257 Z" fill="#000000" fill-rule="evenodd" fill-opacity="1" /><polyline clip-path="url(#clip560)" style="stroke:#e26f46; stroke-linecap:round; stroke-linejoin:round; stroke-width:4; stroke-opacity:1; fill:none" points="
  1612.18,196.789 1756.11,196.789 
  "/>
<path clip-path="url(#clip560)" d="M1800.44 193.12 Q1802.04 190.249 1804.26 188.884 Q1806.48 187.518 1809.49 187.518 Q1813.54 187.518 1815.74 190.365 Q1817.94 193.189 1817.94 198.421 L1817.94 214.069 L1813.66 214.069 L1813.66 198.559 Q1813.66 194.833 1812.34 193.027 Q1811.02 191.222 1808.31 191.222 Q1805 191.222 1803.08 193.421 Q1801.16 195.62 1801.16 199.416 L1801.16 214.069 L1796.87 214.069 L1796.87 198.559 Q1796.87 194.809 1795.56 193.027 Q1794.24 191.222 1791.48 191.222 Q1788.22 191.222 1786.3 193.444 Q1784.37 195.643 1784.37 199.416 L1784.37 214.069 L1780.09 214.069 L1780.09 188.143 L1784.37 188.143 L1784.37 192.171 Q1785.83 189.786 1787.87 188.652 Q1789.91 187.518 1792.71 187.518 Q1795.53 187.518 1797.5 188.953 Q1799.49 190.388 1800.44 193.12 Z" fill="#000000" fill-rule="evenodd" fill-opacity="1" /><path clip-path="url(#clip560)" d="M1838.22 201.036 Q1833.06 201.036 1831.06 202.217 Q1829.07 203.397 1829.07 206.245 Q1829.07 208.513 1830.56 209.856 Q1832.06 211.175 1834.63 211.175 Q1838.17 211.175 1840.3 208.675 Q1842.45 206.152 1842.45 201.985 L1842.45 201.036 L1838.22 201.036 M1846.71 199.277 L1846.71 214.069 L1842.45 214.069 L1842.45 210.133 Q1840.99 212.495 1838.82 213.629 Q1836.64 214.74 1833.49 214.74 Q1829.51 214.74 1827.15 212.518 Q1824.81 210.272 1824.81 206.522 Q1824.81 202.147 1827.73 199.925 Q1830.67 197.703 1836.48 197.703 L1842.45 197.703 L1842.45 197.286 Q1842.45 194.347 1840.51 192.749 Q1838.59 191.129 1835.09 191.129 Q1832.87 191.129 1830.76 191.661 Q1828.66 192.194 1826.71 193.259 L1826.71 189.323 Q1829.05 188.421 1831.25 187.981 Q1833.45 187.518 1835.53 187.518 Q1841.16 187.518 1843.93 190.434 Q1846.71 193.351 1846.71 199.277 Z" fill="#000000" fill-rule="evenodd" fill-opacity="1" /><path clip-path="url(#clip560)" d="M1872.01 188.907 L1872.01 192.934 Q1870.21 192.009 1868.26 191.546 Q1866.32 191.083 1864.24 191.083 Q1861.06 191.083 1859.47 192.055 Q1857.89 193.027 1857.89 194.971 Q1857.89 196.453 1859.03 197.309 Q1860.16 198.143 1863.59 198.907 L1865.05 199.231 Q1869.58 200.203 1871.48 201.985 Q1873.4 203.745 1873.4 206.916 Q1873.4 210.527 1870.53 212.633 Q1867.68 214.74 1862.68 214.74 Q1860.6 214.74 1858.33 214.323 Q1856.09 213.93 1853.59 213.12 L1853.59 208.721 Q1855.95 209.948 1858.24 210.573 Q1860.53 211.175 1862.78 211.175 Q1865.79 211.175 1867.41 210.157 Q1869.03 209.115 1869.03 207.24 Q1869.03 205.504 1867.85 204.578 Q1866.69 203.652 1862.73 202.796 L1861.25 202.448 Q1857.29 201.615 1855.53 199.902 Q1853.77 198.166 1853.77 195.157 Q1853.77 191.499 1856.37 189.509 Q1858.96 187.518 1863.73 187.518 Q1866.09 187.518 1868.17 187.865 Q1870.25 188.212 1872.01 188.907 Z" fill="#000000" fill-rule="evenodd" fill-opacity="1" /><path clip-path="url(#clip560)" d="M1896.71 188.907 L1896.71 192.934 Q1894.91 192.009 1892.96 191.546 Q1891.02 191.083 1888.93 191.083 Q1885.76 191.083 1884.17 192.055 Q1882.59 193.027 1882.59 194.971 Q1882.59 196.453 1883.73 197.309 Q1884.86 198.143 1888.29 198.907 L1889.74 199.231 Q1894.28 200.203 1896.18 201.985 Q1898.1 203.745 1898.1 206.916 Q1898.1 210.527 1895.23 212.633 Q1892.38 214.74 1887.38 214.74 Q1885.3 214.74 1883.03 214.323 Q1880.79 213.93 1878.29 213.12 L1878.29 208.721 Q1880.65 209.948 1882.94 210.573 Q1885.23 211.175 1887.48 211.175 Q1890.49 211.175 1892.11 210.157 Q1893.73 209.115 1893.73 207.24 Q1893.73 205.504 1892.55 204.578 Q1891.39 203.652 1887.43 202.796 L1885.95 202.448 Q1881.99 201.615 1880.23 199.902 Q1878.47 198.166 1878.47 195.157 Q1878.47 191.499 1881.06 189.509 Q1883.66 187.518 1888.43 187.518 Q1890.79 187.518 1892.87 187.865 Q1894.95 188.212 1896.71 188.907 Z" fill="#000000" fill-rule="evenodd" fill-opacity="1" /><path clip-path="url(#clip560)" d="M1905.49 208.189 L1910.37 208.189 L1910.37 214.069 L1905.49 214.069 L1905.49 208.189 Z" fill="#000000" fill-rule="evenodd" fill-opacity="1" /><path clip-path="url(#clip560)" d="M1916.9 188.143 L1921.41 188.143 L1929.51 209.902 L1937.61 188.143 L1942.13 188.143 L1932.41 214.069 L1926.62 214.069 L1916.9 188.143 Z" fill="#000000" fill-rule="evenodd" fill-opacity="1" /><path clip-path="url(#clip560)" d="M1973.31 178.097 Q1970.21 183.421 1968.7 188.629 Q1967.2 193.837 1967.2 199.184 Q1967.2 204.532 1968.7 209.786 Q1970.23 215.018 1973.31 220.319 L1969.61 220.319 Q1966.13 214.879 1964.4 209.624 Q1962.68 204.37 1962.68 199.184 Q1962.68 194.022 1964.4 188.791 Q1966.11 183.56 1969.61 178.097 L1973.31 178.097 Z" fill="#000000" fill-rule="evenodd" fill-opacity="1" /><path clip-path="url(#clip560)" d="M1996.34 195.434 Q1999.7 196.152 2001.57 198.421 Q2003.47 200.689 2003.47 204.022 Q2003.47 209.138 1999.95 211.939 Q1996.43 214.74 1989.95 214.74 Q1987.78 214.74 1985.46 214.3 Q1983.17 213.883 1980.72 213.027 L1980.72 208.513 Q1982.66 209.647 1984.98 210.226 Q1987.29 210.805 1989.81 210.805 Q1994.21 210.805 1996.5 209.069 Q1998.82 207.333 1998.82 204.022 Q1998.82 200.967 1996.67 199.254 Q1994.54 197.518 1990.72 197.518 L1986.69 197.518 L1986.69 193.675 L1990.9 193.675 Q1994.35 193.675 1996.18 192.309 Q1998.01 190.921 1998.01 188.328 Q1998.01 185.666 1996.11 184.254 Q1994.23 182.819 1990.72 182.819 Q1988.79 182.819 1986.6 183.235 Q1984.4 183.652 1981.76 184.532 L1981.76 180.365 Q1984.42 179.624 1986.73 179.254 Q1989.07 178.884 1991.13 178.884 Q1996.46 178.884 1999.56 181.314 Q2002.66 183.722 2002.66 187.842 Q2002.66 190.712 2001.02 192.703 Q1999.37 194.671 1996.34 195.434 Z" fill="#000000" fill-rule="evenodd" fill-opacity="1" /><path clip-path="url(#clip560)" d="M2026.5 195.434 Q2029.86 196.152 2031.73 198.421 Q2033.63 200.689 2033.63 204.022 Q2033.63 209.138 2030.11 211.939 Q2026.6 214.74 2020.11 214.74 Q2017.94 214.74 2015.62 214.3 Q2013.33 213.883 2010.88 213.027 L2010.88 208.513 Q2012.82 209.647 2015.14 210.226 Q2017.45 210.805 2019.98 210.805 Q2024.37 210.805 2026.67 209.069 Q2028.98 207.333 2028.98 204.022 Q2028.98 200.967 2026.83 199.254 Q2024.7 197.518 2020.88 197.518 L2016.85 197.518 L2016.85 193.675 L2021.06 193.675 Q2024.51 193.675 2026.34 192.309 Q2028.17 190.921 2028.17 188.328 Q2028.17 185.666 2026.27 184.254 Q2024.4 182.819 2020.88 182.819 Q2018.96 182.819 2016.76 183.235 Q2014.56 183.652 2011.92 184.532 L2011.92 180.365 Q2014.58 179.624 2016.9 179.254 Q2019.23 178.884 2021.29 178.884 Q2026.62 178.884 2029.72 181.314 Q2032.82 183.722 2032.82 187.842 Q2032.82 190.712 2031.18 192.703 Q2029.54 194.671 2026.5 195.434 Z" fill="#000000" fill-rule="evenodd" fill-opacity="1" /><path clip-path="url(#clip560)" d="M2042.54 179.509 L2060.9 179.509 L2060.9 183.444 L2046.83 183.444 L2046.83 191.916 Q2047.85 191.569 2048.86 191.407 Q2049.88 191.222 2050.9 191.222 Q2056.69 191.222 2060.07 194.393 Q2063.45 197.564 2063.45 202.981 Q2063.45 208.559 2059.98 211.661 Q2056.5 214.74 2050.18 214.74 Q2048.01 214.74 2045.74 214.37 Q2043.49 213.999 2041.09 213.258 L2041.09 208.559 Q2043.17 209.694 2045.39 210.249 Q2047.61 210.805 2050.09 210.805 Q2054.1 210.805 2056.43 208.698 Q2058.77 206.592 2058.77 202.981 Q2058.77 199.37 2056.43 197.263 Q2054.1 195.157 2050.09 195.157 Q2048.22 195.157 2046.34 195.573 Q2044.49 195.99 2042.54 196.87 L2042.54 179.509 Z" fill="#000000" fill-rule="evenodd" fill-opacity="1" /><path clip-path="url(#clip560)" d="M2072.71 179.509 L2091.06 179.509 L2091.06 183.444 L2076.99 183.444 L2076.99 191.916 Q2078.01 191.569 2079.03 191.407 Q2080.04 191.222 2081.06 191.222 Q2086.85 191.222 2090.23 194.393 Q2093.61 197.564 2093.61 202.981 Q2093.61 208.559 2090.14 211.661 Q2086.66 214.74 2080.35 214.74 Q2078.17 214.74 2075.9 214.37 Q2073.66 213.999 2071.25 213.258 L2071.25 208.559 Q2073.33 209.694 2075.55 210.249 Q2077.78 210.805 2080.25 210.805 Q2084.26 210.805 2086.6 208.698 Q2088.93 206.592 2088.93 202.981 Q2088.93 199.37 2086.6 197.263 Q2084.26 195.157 2080.25 195.157 Q2078.38 195.157 2076.5 195.573 Q2074.65 195.99 2072.71 196.87 L2072.71 179.509 Z" fill="#000000" fill-rule="evenodd" fill-opacity="1" /><path clip-path="url(#clip560)" d="M2115.67 183.583 L2103.86 202.032 L2115.67 202.032 L2115.67 183.583 M2114.44 179.509 L2120.32 179.509 L2120.32 202.032 L2125.25 202.032 L2125.25 205.921 L2120.32 205.921 L2120.32 214.069 L2115.67 214.069 L2115.67 205.921 L2100.07 205.921 L2100.07 201.407 L2114.44 179.509 Z" fill="#000000" fill-rule="evenodd" fill-opacity="1" /><path clip-path="url(#clip560)" d="M2145.83 183.583 L2134.03 202.032 L2145.83 202.032 L2145.83 183.583 M2144.6 179.509 L2150.48 179.509 L2150.48 202.032 L2155.41 202.032 L2155.41 205.921 L2150.48 205.921 L2150.48 214.069 L2145.83 214.069 L2145.83 205.921 L2130.23 205.921 L2130.23 201.407 L2144.6 179.509 Z" fill="#000000" fill-rule="evenodd" fill-opacity="1" /><path clip-path="url(#clip560)" d="M2177.31 195.434 Q2180.67 196.152 2182.54 198.421 Q2184.44 200.689 2184.44 204.022 Q2184.44 209.138 2180.92 211.939 Q2177.41 214.74 2170.92 214.74 Q2168.75 214.74 2166.43 214.3 Q2164.14 213.883 2161.69 213.027 L2161.69 208.513 Q2163.63 209.647 2165.95 210.226 Q2168.26 210.805 2170.78 210.805 Q2175.18 210.805 2177.47 209.069 Q2179.79 207.333 2179.79 204.022 Q2179.79 200.967 2177.64 199.254 Q2175.51 197.518 2171.69 197.518 L2167.66 197.518 L2167.66 193.675 L2171.87 193.675 Q2175.32 193.675 2177.15 192.309 Q2178.98 190.921 2178.98 188.328 Q2178.98 185.666 2177.08 184.254 Q2175.21 182.819 2171.69 182.819 Q2169.77 182.819 2167.57 183.235 Q2165.37 183.652 2162.73 184.532 L2162.73 180.365 Q2165.39 179.624 2167.71 179.254 Q2170.04 178.884 2172.1 178.884 Q2177.43 178.884 2180.53 181.314 Q2183.63 183.722 2183.63 187.842 Q2183.63 190.712 2181.99 192.703 Q2180.34 194.671 2177.31 195.434 Z" fill="#000000" fill-rule="evenodd" fill-opacity="1" /><path clip-path="url(#clip560)" d="M2207.47 195.434 Q2210.83 196.152 2212.71 198.421 Q2214.6 200.689 2214.6 204.022 Q2214.6 209.138 2211.09 211.939 Q2207.57 214.74 2201.09 214.74 Q2198.91 214.74 2196.59 214.3 Q2194.3 213.883 2191.85 213.027 L2191.85 208.513 Q2193.79 209.647 2196.11 210.226 Q2198.42 210.805 2200.95 210.805 Q2205.34 210.805 2207.64 209.069 Q2209.95 207.333 2209.95 204.022 Q2209.95 200.967 2207.8 199.254 Q2205.67 197.518 2201.85 197.518 L2197.82 197.518 L2197.82 193.675 L2202.03 193.675 Q2205.48 193.675 2207.31 192.309 Q2209.14 190.921 2209.14 188.328 Q2209.14 185.666 2207.24 184.254 Q2205.37 182.819 2201.85 182.819 Q2199.93 182.819 2197.73 183.235 Q2195.53 183.652 2192.89 184.532 L2192.89 180.365 Q2195.55 179.624 2197.87 179.254 Q2200.21 178.884 2202.27 178.884 Q2207.59 178.884 2210.69 181.314 Q2213.79 183.722 2213.79 187.842 Q2213.79 190.712 2212.15 192.703 Q2210.51 194.671 2207.47 195.434 Z" fill="#000000" fill-rule="evenodd" fill-opacity="1" /><path clip-path="url(#clip560)" d="M2222.2 178.097 L2225.9 178.097 Q2229.37 183.56 2231.09 188.791 Q2232.82 194.022 2232.82 199.184 Q2232.82 204.37 2231.09 209.624 Q2229.37 214.879 2225.9 220.319 L2222.2 220.319 Q2225.28 215.018 2226.78 209.786 Q2228.31 204.532 2228.31 199.184 Q2228.31 193.837 2226.78 188.629 Q2225.28 183.421 2222.2 178.097 Z" fill="#000000" fill-rule="evenodd" fill-opacity="1" /></svg>
