<?xml version="1.0" encoding="utf-8"?>
<svg xmlns="http://www.w3.org/2000/svg" xmlns:xlink="http://www.w3.org/1999/xlink" width="600" height="400" viewBox="0 0 2400 1600">
<defs>
  <clipPath id="clip420">
    <rect x="0" y="0" width="2400" height="1600"/>
  </clipPath>
</defs>
<path clip-path="url(#clip420)" d="
M0 1600 L2400 1600 L2400 0 L0 0  Z
  " fill="#ffffff" fill-rule="evenodd" fill-opacity="1"/>
<defs>
  <clipPath id="clip421">
    <rect x="480" y="0" width="1681" height="1600"/>
  </clipPath>
</defs>
<path clip-path="url(#clip420)" d="
M193.936 1423.18 L2352.76 1423.18 L2352.76 47.2441 L193.936 47.2441  Z
  " fill="#ffffff" fill-rule="evenodd" fill-opacity="1"/>
<defs>
  <clipPath id="clip422">
    <rect x="193" y="47" width="2160" height="1377"/>
  </clipPath>
</defs>
<polyline clip-path="url(#clip422)" style="stroke:#000000; stroke-linecap:butt; stroke-linejoin:round; stroke-width:2; stroke-opacity:0.1; fill:none" points="
  255.035,1423.18 255.035,47.2441 
  "/>
<polyline clip-path="url(#clip422)" style="stroke:#000000; stroke-linecap:butt; stroke-linejoin:round; stroke-width:2; stroke-opacity:0.1; fill:none" points="
  764.19,1423.18 764.19,47.2441 
  "/>
<polyline clip-path="url(#clip422)" style="stroke:#000000; stroke-linecap:butt; stroke-linejoin:round; stroke-width:2; stroke-opacity:0.1; fill:none" points="
  1273.35,1423.18 1273.35,47.2441 
  "/>
<polyline clip-path="url(#clip422)" style="stroke:#000000; stroke-linecap:butt; stroke-linejoin:round; stroke-width:2; stroke-opacity:0.1; fill:none" points="
  1782.5,1423.18 1782.5,47.2441 
  "/>
<polyline clip-path="url(#clip422)" style="stroke:#000000; stroke-linecap:butt; stroke-linejoin:round; stroke-width:2; stroke-opacity:0.1; fill:none" points="
  2291.66,1423.18 2291.66,47.2441 
  "/>
<polyline clip-path="url(#clip420)" style="stroke:#000000; stroke-linecap:butt; stroke-linejoin:round; stroke-width:4; stroke-opacity:1; fill:none" points="
  193.936,1423.18 2352.76,1423.18 
  "/>
<polyline clip-path="url(#clip420)" style="stroke:#000000; stroke-linecap:butt; stroke-linejoin:round; stroke-width:4; stroke-opacity:1; fill:none" points="
  255.035,1423.18 255.035,1404.28 
  "/>
<polyline clip-path="url(#clip420)" style="stroke:#000000; stroke-linecap:butt; stroke-linejoin:round; stroke-width:4; stroke-opacity:1; fill:none" points="
  764.19,1423.18 764.19,1404.28 
  "/>
<polyline clip-path="url(#clip420)" style="stroke:#000000; stroke-linecap:butt; stroke-linejoin:round; stroke-width:4; stroke-opacity:1; fill:none" points="
  1273.35,1423.18 1273.35,1404.28 
  "/>
<polyline clip-path="url(#clip420)" style="stroke:#000000; stroke-linecap:butt; stroke-linejoin:round; stroke-width:4; stroke-opacity:1; fill:none" points="
  1782.5,1423.18 1782.5,1404.28 
  "/>
<polyline clip-path="url(#clip420)" style="stroke:#000000; stroke-linecap:butt; stroke-linejoin:round; stroke-width:4; stroke-opacity:1; fill:none" points="
  2291.66,1423.18 2291.66,1404.28 
  "/>
<path clip-path="url(#clip420)" d="M255.035 1454.1 Q251.424 1454.1 249.595 1457.66 Q247.789 1461.2 247.789 1468.33 Q247.789 1475.44 249.595 1479.01 Q251.424 1482.55 255.035 1482.55 Q258.669 1482.55 260.474 1479.01 Q262.303 1475.44 262.303 1468.33 Q262.303 1461.2 260.474 1457.66 Q258.669 1454.1 255.035 1454.1 M255.035 1450.39 Q260.845 1450.39 263.9 1455 Q266.979 1459.58 266.979 1468.33 Q266.979 1477.06 263.9 1481.67 Q260.845 1486.25 255.035 1486.25 Q249.225 1486.25 246.146 1481.67 Q243.09 1477.06 243.09 1468.33 Q243.09 1459.58 246.146 1455 Q249.225 1450.39 255.035 1450.39 Z" fill="#000000" fill-rule="evenodd" fill-opacity="1" /><path clip-path="url(#clip420)" d="M758.843 1481.64 L775.162 1481.64 L775.162 1485.58 L753.218 1485.58 L753.218 1481.64 Q755.88 1478.89 760.463 1474.26 Q765.07 1469.61 766.25 1468.27 Q768.496 1465.74 769.375 1464.01 Q770.278 1462.25 770.278 1460.56 Q770.278 1457.8 768.334 1456.07 Q766.413 1454.33 763.311 1454.33 Q761.112 1454.33 758.658 1455.09 Q756.227 1455.86 753.45 1457.41 L753.45 1452.69 Q756.274 1451.55 758.727 1450.97 Q761.181 1450.39 763.218 1450.39 Q768.588 1450.39 771.783 1453.08 Q774.977 1455.77 774.977 1460.26 Q774.977 1462.39 774.167 1464.31 Q773.38 1466.2 771.274 1468.8 Q770.695 1469.47 767.593 1472.69 Q764.491 1475.88 758.843 1481.64 Z" fill="#000000" fill-rule="evenodd" fill-opacity="1" /><path clip-path="url(#clip420)" d="M1276.36 1455.09 L1264.55 1473.54 L1276.36 1473.54 L1276.36 1455.09 M1275.13 1451.02 L1281.01 1451.02 L1281.01 1473.54 L1285.94 1473.54 L1285.94 1477.43 L1281.01 1477.43 L1281.01 1485.58 L1276.36 1485.58 L1276.36 1477.43 L1260.75 1477.43 L1260.75 1472.92 L1275.13 1451.02 Z" fill="#000000" fill-rule="evenodd" fill-opacity="1" /><path clip-path="url(#clip420)" d="M1782.91 1466.44 Q1779.76 1466.44 1777.91 1468.59 Q1776.08 1470.74 1776.08 1474.49 Q1776.08 1478.22 1777.91 1480.39 Q1779.76 1482.55 1782.91 1482.55 Q1786.05 1482.55 1787.88 1480.39 Q1789.74 1478.22 1789.74 1474.49 Q1789.74 1470.74 1787.88 1468.59 Q1786.05 1466.44 1782.91 1466.44 M1792.19 1451.78 L1792.19 1456.04 Q1790.43 1455.21 1788.62 1454.77 Q1786.84 1454.33 1785.08 1454.33 Q1780.45 1454.33 1778 1457.45 Q1775.57 1460.58 1775.22 1466.9 Q1776.59 1464.89 1778.65 1463.82 Q1780.71 1462.73 1783.18 1462.73 Q1788.39 1462.73 1791.4 1465.9 Q1794.43 1469.05 1794.43 1474.49 Q1794.43 1479.82 1791.29 1483.03 Q1788.14 1486.25 1782.91 1486.25 Q1776.91 1486.25 1773.74 1481.67 Q1770.57 1477.06 1770.57 1468.33 Q1770.57 1460.14 1774.46 1455.28 Q1778.35 1450.39 1784.9 1450.39 Q1786.66 1450.39 1788.44 1450.74 Q1790.24 1451.09 1792.19 1451.78 Z" fill="#000000" fill-rule="evenodd" fill-opacity="1" /><path clip-path="url(#clip420)" d="M2291.66 1469.17 Q2288.32 1469.17 2286.4 1470.95 Q2284.5 1472.73 2284.5 1475.86 Q2284.5 1478.98 2286.4 1480.77 Q2288.32 1482.55 2291.66 1482.55 Q2294.99 1482.55 2296.91 1480.77 Q2298.83 1478.96 2298.83 1475.86 Q2298.83 1472.73 2296.91 1470.95 Q2295.01 1469.17 2291.66 1469.17 M2286.98 1467.18 Q2283.97 1466.44 2282.28 1464.38 Q2280.62 1462.32 2280.62 1459.35 Q2280.62 1455.21 2283.56 1452.8 Q2286.52 1450.39 2291.66 1450.39 Q2296.82 1450.39 2299.76 1452.8 Q2302.7 1455.21 2302.7 1459.35 Q2302.7 1462.32 2301.01 1464.38 Q2299.34 1466.44 2296.36 1467.18 Q2299.74 1467.96 2301.61 1470.26 Q2303.51 1472.55 2303.51 1475.86 Q2303.51 1480.88 2300.43 1483.57 Q2297.37 1486.25 2291.66 1486.25 Q2285.94 1486.25 2282.86 1483.57 Q2279.81 1480.88 2279.81 1475.86 Q2279.81 1472.55 2281.7 1470.26 Q2283.6 1467.96 2286.98 1467.18 M2285.27 1459.79 Q2285.27 1462.48 2286.94 1463.98 Q2288.62 1465.49 2291.66 1465.49 Q2294.67 1465.49 2296.36 1463.98 Q2298.07 1462.48 2298.07 1459.79 Q2298.07 1457.11 2296.36 1455.6 Q2294.67 1454.1 2291.66 1454.1 Q2288.62 1454.1 2286.94 1455.6 Q2285.27 1457.11 2285.27 1459.79 Z" fill="#000000" fill-rule="evenodd" fill-opacity="1" /><path clip-path="url(#clip420)" d="M1221.66 1522.27 L1221.66 1532.4 L1233.72 1532.4 L1233.72 1536.95 L1221.66 1536.95 L1221.66 1556.3 Q1221.66 1560.66 1222.83 1561.9 Q1224.04 1563.14 1227.7 1563.14 L1233.72 1563.14 L1233.72 1568.04 L1227.7 1568.04 Q1220.92 1568.04 1218.35 1565.53 Q1215.77 1562.98 1215.77 1556.3 L1215.77 1536.95 L1211.47 1536.95 L1211.47 1532.4 L1215.77 1532.4 L1215.77 1522.27 L1221.66 1522.27 Z" fill="#000000" fill-rule="evenodd" fill-opacity="1" /><path clip-path="url(#clip420)" d="M1261.6 1518.52 L1275.1 1518.52 L1275.1 1523.07 L1267.46 1523.07 L1267.46 1572.09 L1275.1 1572.09 L1275.1 1576.64 L1261.6 1576.64 L1261.6 1518.52 Z" fill="#000000" fill-rule="evenodd" fill-opacity="1" /><path clip-path="url(#clip420)" d="M1310.3 1533.45 L1310.3 1538.98 Q1307.82 1537.71 1305.14 1537.07 Q1302.47 1536.44 1299.6 1536.44 Q1295.24 1536.44 1293.05 1537.77 Q1290.88 1539.11 1290.88 1541.79 Q1290.88 1543.82 1292.44 1545 Q1294 1546.15 1298.71 1547.2 L1300.72 1547.64 Q1306.96 1548.98 1309.57 1551.43 Q1312.21 1553.85 1312.21 1558.21 Q1312.21 1563.17 1308.26 1566.07 Q1304.35 1568.97 1297.47 1568.97 Q1294.61 1568.97 1291.49 1568.39 Q1288.4 1567.85 1284.96 1566.74 L1284.96 1560.69 Q1288.21 1562.38 1291.36 1563.24 Q1294.51 1564.07 1297.6 1564.07 Q1301.74 1564.07 1303.97 1562.66 Q1306.19 1561.23 1306.19 1558.65 Q1306.19 1556.27 1304.57 1554.99 Q1302.98 1553.72 1297.54 1552.54 L1295.5 1552.07 Q1290.06 1550.92 1287.64 1548.56 Q1285.22 1546.18 1285.22 1542.04 Q1285.22 1537.01 1288.78 1534.27 Q1292.35 1531.54 1298.9 1531.54 Q1302.15 1531.54 1305.02 1532.01 Q1307.88 1532.49 1310.3 1533.45 Z" fill="#000000" fill-rule="evenodd" fill-opacity="1" /><path clip-path="url(#clip420)" d="M1335.22 1518.52 L1335.22 1576.64 L1321.73 1576.64 L1321.73 1572.09 L1329.33 1572.09 L1329.33 1523.07 L1321.73 1523.07 L1321.73 1518.52 L1335.22 1518.52 Z" fill="#000000" fill-rule="evenodd" fill-opacity="1" /><polyline clip-path="url(#clip422)" style="stroke:#000000; stroke-linecap:butt; stroke-linejoin:round; stroke-width:2; stroke-opacity:0.1; fill:none" points="
  193.936,1276.47 2352.76,1276.47 
  "/>
<polyline clip-path="url(#clip422)" style="stroke:#000000; stroke-linecap:butt; stroke-linejoin:round; stroke-width:2; stroke-opacity:0.1; fill:none" points="
  193.936,1034.83 2352.76,1034.83 
  "/>
<polyline clip-path="url(#clip422)" style="stroke:#000000; stroke-linecap:butt; stroke-linejoin:round; stroke-width:2; stroke-opacity:0.1; fill:none" points="
  193.936,793.191 2352.76,793.191 
  "/>
<polyline clip-path="url(#clip422)" style="stroke:#000000; stroke-linecap:butt; stroke-linejoin:round; stroke-width:2; stroke-opacity:0.1; fill:none" points="
  193.936,551.551 2352.76,551.551 
  "/>
<polyline clip-path="url(#clip422)" style="stroke:#000000; stroke-linecap:butt; stroke-linejoin:round; stroke-width:2; stroke-opacity:0.1; fill:none" points="
  193.936,309.911 2352.76,309.911 
  "/>
<polyline clip-path="url(#clip422)" style="stroke:#000000; stroke-linecap:butt; stroke-linejoin:round; stroke-width:2; stroke-opacity:0.1; fill:none" points="
  193.936,68.2716 2352.76,68.2716 
  "/>
<polyline clip-path="url(#clip420)" style="stroke:#000000; stroke-linecap:butt; stroke-linejoin:round; stroke-width:4; stroke-opacity:1; fill:none" points="
  193.936,1423.18 193.936,47.2441 
  "/>
<polyline clip-path="url(#clip420)" style="stroke:#000000; stroke-linecap:butt; stroke-linejoin:round; stroke-width:4; stroke-opacity:1; fill:none" points="
  193.936,1276.47 212.834,1276.47 
  "/>
<polyline clip-path="url(#clip420)" style="stroke:#000000; stroke-linecap:butt; stroke-linejoin:round; stroke-width:4; stroke-opacity:1; fill:none" points="
  193.936,1034.83 212.834,1034.83 
  "/>
<polyline clip-path="url(#clip420)" style="stroke:#000000; stroke-linecap:butt; stroke-linejoin:round; stroke-width:4; stroke-opacity:1; fill:none" points="
  193.936,793.191 212.834,793.191 
  "/>
<polyline clip-path="url(#clip420)" style="stroke:#000000; stroke-linecap:butt; stroke-linejoin:round; stroke-width:4; stroke-opacity:1; fill:none" points="
  193.936,551.551 212.834,551.551 
  "/>
<polyline clip-path="url(#clip420)" style="stroke:#000000; stroke-linecap:butt; stroke-linejoin:round; stroke-width:4; stroke-opacity:1; fill:none" points="
  193.936,309.911 212.834,309.911 
  "/>
<polyline clip-path="url(#clip420)" style="stroke:#000000; stroke-linecap:butt; stroke-linejoin:round; stroke-width:4; stroke-opacity:1; fill:none" points="
  193.936,68.2716 212.834,68.2716 
  "/>
<path clip-path="url(#clip420)" d="M50.9921 1276.92 L80.6679 1276.92 L80.6679 1280.86 L50.9921 1280.86 L50.9921 1276.92 Z" fill="#000000" fill-rule="evenodd" fill-opacity="1" /><path clip-path="url(#clip420)" d="M91.5706 1289.81 L99.2095 1289.81 L99.2095 1263.45 L90.8993 1265.12 L90.8993 1260.86 L99.1632 1259.19 L103.839 1259.19 L103.839 1289.81 L111.478 1289.81 L111.478 1293.75 L91.5706 1293.75 L91.5706 1289.81 Z" fill="#000000" fill-rule="evenodd" fill-opacity="1" /><path clip-path="url(#clip420)" d="M120.922 1287.87 L125.807 1287.87 L125.807 1293.75 L120.922 1293.75 L120.922 1287.87 Z" fill="#000000" fill-rule="evenodd" fill-opacity="1" /><path clip-path="url(#clip420)" d="M145.992 1262.27 Q142.381 1262.27 140.552 1265.83 Q138.746 1269.37 138.746 1276.5 Q138.746 1283.61 140.552 1287.18 Q142.381 1290.72 145.992 1290.72 Q149.626 1290.72 151.431 1287.18 Q153.26 1283.61 153.26 1276.5 Q153.26 1269.37 151.431 1265.83 Q149.626 1262.27 145.992 1262.27 M145.992 1258.56 Q151.802 1258.56 154.857 1263.17 Q157.936 1267.75 157.936 1276.5 Q157.936 1285.23 154.857 1289.84 Q151.802 1294.42 145.992 1294.42 Q140.181 1294.42 137.103 1289.84 Q134.047 1285.23 134.047 1276.5 Q134.047 1267.75 137.103 1263.17 Q140.181 1258.56 145.992 1258.56 Z" fill="#000000" fill-rule="evenodd" fill-opacity="1" /><path clip-path="url(#clip420)" d="M51.9875 1035.28 L81.6633 1035.28 L81.6633 1039.22 L51.9875 1039.22 L51.9875 1035.28 Z" fill="#000000" fill-rule="evenodd" fill-opacity="1" /><path clip-path="url(#clip420)" d="M101.756 1020.63 Q98.1447 1020.63 96.316 1024.19 Q94.5104 1027.74 94.5104 1034.86 Q94.5104 1041.97 96.316 1045.54 Q98.1447 1049.08 101.756 1049.08 Q105.39 1049.08 107.196 1045.54 Q109.024 1041.97 109.024 1034.86 Q109.024 1027.74 107.196 1024.19 Q105.39 1020.63 101.756 1020.63 M101.756 1016.93 Q107.566 1016.93 110.621 1021.53 Q113.7 1026.11 113.7 1034.86 Q113.7 1043.59 110.621 1048.2 Q107.566 1052.78 101.756 1052.78 Q95.9456 1052.78 92.8669 1048.2 Q89.8114 1043.59 89.8114 1034.86 Q89.8114 1026.11 92.8669 1021.53 Q95.9456 1016.93 101.756 1016.93 Z" fill="#000000" fill-rule="evenodd" fill-opacity="1" /><path clip-path="url(#clip420)" d="M121.918 1046.23 L126.802 1046.23 L126.802 1052.11 L121.918 1052.11 L121.918 1046.23 Z" fill="#000000" fill-rule="evenodd" fill-opacity="1" /><path clip-path="url(#clip420)" d="M137.033 1017.55 L155.39 1017.55 L155.39 1021.49 L141.316 1021.49 L141.316 1029.96 Q142.334 1029.61 143.353 1029.45 Q144.371 1029.26 145.39 1029.26 Q151.177 1029.26 154.556 1032.43 Q157.936 1035.61 157.936 1041.02 Q157.936 1046.6 154.464 1049.7 Q150.992 1052.78 144.672 1052.78 Q142.496 1052.78 140.228 1052.41 Q137.982 1052.04 135.575 1051.3 L135.575 1046.6 Q137.658 1047.74 139.881 1048.29 Q142.103 1048.85 144.58 1048.85 Q148.584 1048.85 150.922 1046.74 Q153.26 1044.63 153.26 1041.02 Q153.26 1037.41 150.922 1035.3 Q148.584 1033.2 144.58 1033.2 Q142.705 1033.2 140.83 1033.61 Q138.978 1034.03 137.033 1034.91 L137.033 1017.55 Z" fill="#000000" fill-rule="evenodd" fill-opacity="1" /><path clip-path="url(#clip420)" d="M100.76 778.989 Q97.1493 778.989 95.3206 782.554 Q93.515 786.096 93.515 793.225 Q93.515 800.332 95.3206 803.896 Q97.1493 807.438 100.76 807.438 Q104.395 807.438 106.2 803.896 Q108.029 800.332 108.029 793.225 Q108.029 786.096 106.2 782.554 Q104.395 778.989 100.76 778.989 M100.76 775.286 Q106.571 775.286 109.626 779.892 Q112.705 784.475 112.705 793.225 Q112.705 801.952 109.626 806.559 Q106.571 811.142 100.76 811.142 Q94.9502 811.142 91.8715 806.559 Q88.816 801.952 88.816 793.225 Q88.816 784.475 91.8715 779.892 Q94.9502 775.286 100.76 775.286 Z" fill="#000000" fill-rule="evenodd" fill-opacity="1" /><path clip-path="url(#clip420)" d="M120.922 804.591 L125.807 804.591 L125.807 810.471 L120.922 810.471 L120.922 804.591 Z" fill="#000000" fill-rule="evenodd" fill-opacity="1" /><path clip-path="url(#clip420)" d="M145.992 778.989 Q142.381 778.989 140.552 782.554 Q138.746 786.096 138.746 793.225 Q138.746 800.332 140.552 803.896 Q142.381 807.438 145.992 807.438 Q149.626 807.438 151.431 803.896 Q153.26 800.332 153.26 793.225 Q153.26 786.096 151.431 782.554 Q149.626 778.989 145.992 778.989 M145.992 775.286 Q151.802 775.286 154.857 779.892 Q157.936 784.475 157.936 793.225 Q157.936 801.952 154.857 806.559 Q151.802 811.142 145.992 811.142 Q140.181 811.142 137.103 806.559 Q134.047 801.952 134.047 793.225 Q134.047 784.475 137.103 779.892 Q140.181 775.286 145.992 775.286 Z" fill="#000000" fill-rule="evenodd" fill-opacity="1" /><path clip-path="url(#clip420)" d="M101.756 537.35 Q98.1447 537.35 96.316 540.914 Q94.5104 544.456 94.5104 551.586 Q94.5104 558.692 96.316 562.257 Q98.1447 565.798 101.756 565.798 Q105.39 565.798 107.196 562.257 Q109.024 558.692 109.024 551.586 Q109.024 544.456 107.196 540.914 Q105.39 537.35 101.756 537.35 M101.756 533.646 Q107.566 533.646 110.621 538.252 Q113.7 542.836 113.7 551.586 Q113.7 560.312 110.621 564.919 Q107.566 569.502 101.756 569.502 Q95.9456 569.502 92.8669 564.919 Q89.8114 560.312 89.8114 551.586 Q89.8114 542.836 92.8669 538.252 Q95.9456 533.646 101.756 533.646 Z" fill="#000000" fill-rule="evenodd" fill-opacity="1" /><path clip-path="url(#clip420)" d="M121.918 562.951 L126.802 562.951 L126.802 568.831 L121.918 568.831 L121.918 562.951 Z" fill="#000000" fill-rule="evenodd" fill-opacity="1" /><path clip-path="url(#clip420)" d="M137.033 534.271 L155.39 534.271 L155.39 538.206 L141.316 538.206 L141.316 546.678 Q142.334 546.331 143.353 546.169 Q144.371 545.984 145.39 545.984 Q151.177 545.984 154.556 549.155 Q157.936 552.326 157.936 557.743 Q157.936 563.322 154.464 566.423 Q150.992 569.502 144.672 569.502 Q142.496 569.502 140.228 569.132 Q137.982 568.761 135.575 568.021 L135.575 563.322 Q137.658 564.456 139.881 565.011 Q142.103 565.567 144.58 565.567 Q148.584 565.567 150.922 563.461 Q153.26 561.354 153.26 557.743 Q153.26 554.132 150.922 552.025 Q148.584 549.919 144.58 549.919 Q142.705 549.919 140.83 550.336 Q138.978 550.752 137.033 551.632 L137.033 534.271 Z" fill="#000000" fill-rule="evenodd" fill-opacity="1" /><path clip-path="url(#clip420)" d="M91.5706 323.256 L99.2095 323.256 L99.2095 296.89 L90.8993 298.557 L90.8993 294.298 L99.1632 292.631 L103.839 292.631 L103.839 323.256 L111.478 323.256 L111.478 327.191 L91.5706 327.191 L91.5706 323.256 Z" fill="#000000" fill-rule="evenodd" fill-opacity="1" /><path clip-path="url(#clip420)" d="M120.922 321.312 L125.807 321.312 L125.807 327.191 L120.922 327.191 L120.922 321.312 Z" fill="#000000" fill-rule="evenodd" fill-opacity="1" /><path clip-path="url(#clip420)" d="M145.992 295.71 Q142.381 295.71 140.552 299.275 Q138.746 302.816 138.746 309.946 Q138.746 317.052 140.552 320.617 Q142.381 324.159 145.992 324.159 Q149.626 324.159 151.431 320.617 Q153.26 317.052 153.26 309.946 Q153.26 302.816 151.431 299.275 Q149.626 295.71 145.992 295.71 M145.992 292.006 Q151.802 292.006 154.857 296.613 Q157.936 301.196 157.936 309.946 Q157.936 318.673 154.857 323.279 Q151.802 327.863 145.992 327.863 Q140.181 327.863 137.103 323.279 Q134.047 318.673 134.047 309.946 Q134.047 301.196 137.103 296.613 Q140.181 292.006 145.992 292.006 Z" fill="#000000" fill-rule="evenodd" fill-opacity="1" /><path clip-path="url(#clip420)" d="M92.566 81.6164 L100.205 81.6164 L100.205 55.2508 L91.8947 56.9175 L91.8947 52.6583 L100.159 50.9916 L104.834 50.9916 L104.834 81.6164 L112.473 81.6164 L112.473 85.5516 L92.566 85.5516 L92.566 81.6164 Z" fill="#000000" fill-rule="evenodd" fill-opacity="1" /><path clip-path="url(#clip420)" d="M121.918 79.672 L126.802 79.672 L126.802 85.5516 L121.918 85.5516 L121.918 79.672 Z" fill="#000000" fill-rule="evenodd" fill-opacity="1" /><path clip-path="url(#clip420)" d="M137.033 50.9916 L155.39 50.9916 L155.39 54.9268 L141.316 54.9268 L141.316 63.3989 Q142.334 63.0517 143.353 62.8897 Q144.371 62.7045 145.39 62.7045 Q151.177 62.7045 154.556 65.8758 Q157.936 69.0471 157.936 74.4637 Q157.936 80.0424 154.464 83.1442 Q150.992 86.2229 144.672 86.2229 Q142.496 86.2229 140.228 85.8525 Q137.982 85.4822 135.575 84.7414 L135.575 80.0424 Q137.658 81.1766 139.881 81.7322 Q142.103 82.2877 144.58 82.2877 Q148.584 82.2877 150.922 80.1813 Q153.26 78.0748 153.26 74.4637 Q153.26 70.8526 150.922 68.7461 Q148.584 66.6397 144.58 66.6397 Q142.705 66.6397 140.83 67.0563 Q138.978 67.473 137.033 68.3526 L137.033 50.9916 Z" fill="#000000" fill-rule="evenodd" fill-opacity="1" /><polyline clip-path="url(#clip422)" style="stroke:#009af9; stroke-linecap:butt; stroke-linejoin:round; stroke-width:4; stroke-opacity:1; fill:none" points="
  255.035,551.551 257.58,551.448 260.126,551.138 262.672,550.619 265.218,549.891 267.764,548.952 270.309,547.803 272.855,546.443 275.401,544.872 277.947,543.091 
  280.492,541.102 283.038,538.904 285.584,536.5 288.13,533.892 290.676,531.08 293.221,528.069 295.767,524.859 298.313,521.455 300.859,517.858 303.404,514.073 
  305.95,510.102 308.496,505.95 311.042,501.62 313.588,497.117 316.133,492.445 318.679,487.608 321.225,482.61 323.771,477.458 326.316,472.156 328.862,466.709 
  331.408,461.122 333.954,455.402 336.5,449.553 339.045,443.581 341.591,437.493 344.137,431.295 346.683,424.992 349.228,418.591 351.774,412.098 354.32,405.521 
  356.866,398.864 359.412,392.136 361.957,385.342 364.503,378.49 367.049,371.586 369.595,364.637 372.14,357.651 374.686,350.634 377.232,343.592 379.778,336.535 
  382.324,329.467 384.869,322.397 387.415,315.331 389.961,308.277 392.507,301.241 395.052,294.231 397.598,287.253 400.144,280.315 402.69,273.424 405.236,266.586 
  407.781,259.808 410.327,253.097 412.873,246.46 415.419,239.904 417.964,233.434 420.51,227.058 423.056,220.782 425.602,214.611 428.148,208.553 430.693,202.614 
  433.239,196.799 435.785,191.115 438.331,185.566 440.876,180.159 443.422,174.899 445.968,169.792 448.514,164.842 451.06,160.055 453.605,155.436 456.151,150.99 
  458.697,146.72 461.243,142.633 463.788,138.731 466.334,135.019 468.88,131.502 471.426,128.182 473.972,125.065 476.517,122.152 479.063,119.449 481.609,116.958 
  484.155,114.681 486.7,112.624 489.246,110.787 491.792,109.174 494.338,107.787 496.884,106.63 499.429,105.705 501.975,105.013 504.521,104.557 507.067,104.341 
  509.612,104.358 512.158,104.548 514.704,104.909 517.25,105.442 519.796,106.149 522.341,107.03 524.887,108.085 527.433,109.314 529.979,110.717 532.524,112.293 
  535.07,114.042 537.616,115.962 540.162,118.052 542.708,120.312 545.253,122.738 547.799,125.33 550.345,128.085 552.891,131.001 555.437,134.075 557.982,137.304 
  560.528,140.687 563.074,144.219 565.62,147.897 568.165,151.719 570.711,155.679 573.257,159.775 575.803,164.003 578.349,168.359 580.894,172.837 583.44,177.435 
  585.986,182.148 588.532,186.97 591.077,191.897 593.623,196.925 596.169,202.048 598.715,207.262 601.261,212.561 603.806,217.94 606.352,223.393 608.898,228.915 
  611.444,234.502 613.989,240.146 616.535,245.843 619.081,251.587 621.627,257.371 624.173,263.192 626.718,269.041 629.264,274.915 631.81,280.806 634.356,286.71 
  636.901,292.619 639.447,298.529 641.993,304.432 644.539,310.325 647.085,316.199 649.63,322.05 652.176,327.872 654.722,333.659 657.268,339.405 659.813,345.104 
  662.359,350.751 664.905,356.339 667.451,361.864 669.997,367.32 672.542,372.701 675.088,378.002 677.634,383.217 680.18,388.341 682.725,393.369 685.271,398.297 
  687.817,403.118 690.363,407.828 692.909,412.422 695.454,416.896 698,421.245 700.546,425.464 703.092,429.548 705.637,433.495 708.183,437.299 710.729,440.957 
  713.275,444.464 715.821,447.817 718.366,451.012 720.912,454.046 723.458,456.915 726.004,459.616 728.549,462.146 731.095,464.501 733.641,466.679 736.187,468.677 
  738.733,470.493 741.278,472.123 743.824,473.565 746.37,474.816 748.916,475.876 751.461,476.74 754.007,477.408 756.553,477.877 759.099,478.144 761.645,478.206 
  764.19,478.115 766.736,477.89 769.282,477.531 771.828,477.037 774.373,476.407 776.919,475.641 779.465,474.739 782.011,473.701 784.557,472.528 787.102,471.219 
  789.648,469.775 792.194,468.197 794.74,466.485 797.285,464.642 799.831,462.668 802.377,460.565 804.923,458.334 807.469,455.978 810.014,453.497 812.56,450.895 
  815.106,448.173 817.652,445.334 820.197,442.38 822.743,439.315 825.289,436.14 827.835,432.86 830.381,429.476 832.926,425.992 835.472,422.412 838.018,418.738 
  840.564,414.975 843.109,411.125 845.655,407.194 848.201,403.183 850.747,399.098 853.293,394.943 855.838,390.721 858.384,386.436 860.93,382.093 863.476,377.697 
  866.021,373.25 868.567,368.759 871.113,364.226 873.659,359.658 876.205,355.057 878.75,350.43 881.296,345.78 883.842,341.112 886.388,336.43 888.933,331.74 
  891.479,327.047 894.025,322.353 896.571,317.666 899.117,312.988 901.662,308.326 904.208,303.682 906.754,299.063 909.3,294.473 911.845,289.916 914.391,285.398 
  916.937,280.922 919.483,276.493 922.029,272.115 924.574,267.794 927.12,263.533 929.666,259.337 932.212,255.21 934.757,251.156 937.303,247.18 939.849,243.285 
  942.395,239.475 944.941,235.755 947.486,232.129 950.032,228.6 952.578,225.171 955.124,221.847 957.669,218.631 960.215,215.526 962.761,212.537 965.307,209.665 
  967.853,206.915 970.398,204.289 972.944,201.79 975.49,199.422 978.036,197.186 980.581,195.087 983.127,193.125 985.673,191.305 988.219,189.628 990.765,188.096 
  993.31,186.712 995.856,185.479 998.402,184.397 1000.95,183.469 1003.49,182.697 1006.04,182.084 1008.59,181.629 1011.13,181.336 1013.68,181.206 1016.22,181.225 
  1018.77,181.338 1021.31,181.545 1023.86,181.846 1026.41,182.242 1028.95,182.733 1031.5,183.319 1034.04,184.002 1036.59,184.779 1039.13,185.652 1041.68,186.621 
  1044.23,187.684 1046.77,188.842 1049.32,190.093 1051.86,191.437 1054.41,192.874 1056.95,194.401 1059.5,196.018 1062.05,197.725 1064.59,199.518 1067.14,201.398 
  1069.68,203.363 1072.23,205.41 1074.78,207.539 1077.32,209.747 1079.87,212.032 1082.41,214.393 1084.96,216.827 1087.5,219.332 1090.05,221.905 1092.6,224.546 
  1095.14,227.25 1097.69,230.015 1100.23,232.84 1102.78,235.72 1105.32,238.654 1107.87,241.639 1110.42,244.671 1112.96,247.748 1115.51,250.867 1118.05,254.024 
  1120.6,257.218 1123.15,260.444 1125.69,263.699 1128.24,266.981 1130.78,270.285 1133.33,273.61 1135.87,276.951 1138.42,280.305 1140.97,283.669 1143.51,287.039 
  1146.06,290.413 1148.6,293.786 1151.15,297.155 1153.69,300.518 1156.24,303.87 1158.79,307.209 1161.33,310.53 1163.88,313.831 1166.42,317.108 1168.97,320.358 
  1171.51,323.577 1174.06,326.762 1176.61,329.911 1179.15,333.019 1181.7,336.084 1184.24,339.102 1186.79,342.071 1189.34,344.986 1191.88,347.846 1194.43,350.647 
  1196.97,353.385 1199.52,356.059 1202.06,358.666 1204.61,361.202 1207.16,363.665 1209.7,366.051 1212.25,368.36 1214.79,370.587 1217.34,372.73 1219.88,374.788 
  1222.43,376.757 1224.98,378.635 1227.52,380.421 1230.07,382.111 1232.61,383.703 1235.16,385.196 1237.71,386.588 1240.25,387.877 1242.8,389.06 1245.34,390.137 
  1247.89,391.105 1250.43,391.962 1252.98,392.708 1255.53,393.34 1258.07,393.858 1260.62,394.259 1263.16,394.543 1265.71,394.707 1268.25,394.75 1270.8,394.719 
  1273.35,394.639 1275.89,394.51 1278.44,394.331 1280.98,394.102 1283.53,393.822 1286.07,393.492 1288.62,393.112 1291.17,392.681 1293.71,392.2 1296.26,391.668 
  1298.8,391.087 1301.35,390.455 1303.9,389.773 1306.44,389.043 1308.99,388.263 1311.53,387.434 1314.08,386.558 1316.62,385.634 1319.17,384.663 1321.72,383.647 
  1324.26,382.584 1326.81,381.477 1329.35,380.327 1331.9,379.133 1334.44,377.898 1336.99,376.621 1339.54,375.305 1342.08,373.95 1344.63,372.558 1347.17,371.129 
  1349.72,369.665 1352.27,368.167 1354.81,366.637 1357.36,365.075 1359.9,363.484 1362.45,361.865 1364.99,360.218 1367.54,358.547 1370.09,356.852 1372.63,355.135 
  1375.18,353.397 1377.72,351.641 1380.27,349.867 1382.81,348.078 1385.36,346.275 1387.91,344.461 1390.45,342.636 1393,340.803 1395.54,338.963 1398.09,337.119 
  1400.63,335.271 1403.18,333.422 1405.73,331.575 1408.27,329.729 1410.82,327.888 1413.36,326.054 1415.91,324.228 1418.46,322.411 1421,320.607 1423.55,318.816 
  1426.09,317.041 1428.64,315.284 1431.18,313.546 1433.73,311.829 1436.28,310.135 1438.82,308.465 1441.37,306.822 1443.91,305.208 1446.46,303.623 1449,302.071 
  1451.55,300.551 1454.1,299.067 1456.64,297.62 1459.19,296.211 1461.73,294.842 1464.28,293.515 1466.83,292.232 1469.37,290.992 1471.92,289.799 1474.46,288.654 
  1477.01,287.558 1479.55,286.512 1482.1,285.519 1484.65,284.578 1487.19,283.692 1489.74,282.861 1492.28,282.087 1494.83,281.372 1497.37,280.715 1499.92,280.119 
  1502.47,279.584 1505.01,279.111 1507.56,278.701 1510.1,278.356 1512.65,278.076 1515.19,277.861 1517.74,277.713 1520.29,277.633 1522.83,277.618 1525.38,277.618 
  1527.92,277.618 1530.47,277.618 1533.02,277.618 1535.56,277.618 1538.11,277.618 1540.65,277.618 1543.2,277.618 1545.74,277.618 1548.29,277.618 1550.84,277.618 
  1553.38,277.618 1555.93,277.618 1558.47,277.618 1561.02,277.618 1563.56,277.618 1566.11,277.618 1568.66,277.618 1571.2,277.618 1573.75,277.618 1576.29,277.618 
  1578.84,277.618 1581.39,277.618 1583.93,277.618 1586.48,277.618 1589.02,277.618 1591.57,277.618 1594.11,277.618 1596.66,277.618 1599.21,277.618 1601.75,277.618 
  1604.3,277.618 1606.84,277.618 1609.39,277.618 1611.93,277.618 1614.48,277.618 1617.03,277.618 1619.57,277.618 1622.12,277.618 1624.66,277.618 1627.21,277.618 
  1629.75,277.618 1632.3,277.618 1634.85,277.618 1637.39,277.618 1639.94,277.618 1642.48,277.618 1645.03,277.618 1647.58,277.618 1650.12,277.618 1652.67,277.618 
  1655.21,277.618 1657.76,277.618 1660.3,277.618 1662.85,277.618 1665.4,277.618 1667.94,277.618 1670.49,277.618 1673.03,277.618 1675.58,277.618 1678.12,277.618 
  1680.67,277.618 1683.22,277.618 1685.76,277.618 1688.31,277.618 1690.85,277.618 1693.4,277.618 1695.95,277.618 1698.49,277.618 1701.04,277.618 1703.58,277.618 
  1706.13,277.618 1708.67,277.618 1711.22,277.618 1713.77,277.618 1716.31,277.618 1718.86,277.618 1721.4,277.618 1723.95,277.618 1726.49,277.618 1729.04,277.618 
  1731.59,277.618 1734.13,277.618 1736.68,277.618 1739.22,277.618 1741.77,277.618 1744.31,277.618 1746.86,277.618 1749.41,277.618 1751.95,277.618 1754.5,277.618 
  1757.04,277.618 1759.59,277.618 1762.14,277.618 1764.68,277.618 1767.23,277.618 1769.77,277.618 1772.32,277.618 1774.86,277.618 1777.41,277.618 1779.96,277.618 
  1782.5,277.618 1785.05,277.618 1787.59,277.618 1790.14,277.618 1792.68,277.618 1795.23,277.618 1797.78,277.618 1800.32,277.618 1802.87,277.618 1805.41,277.618 
  1807.96,277.618 1810.51,277.618 1813.05,277.618 1815.6,277.618 1818.14,277.618 1820.69,277.618 1823.23,277.618 1825.78,277.618 1828.33,277.618 1830.87,277.618 
  1833.42,277.618 1835.96,277.618 1838.51,277.618 1841.05,277.618 1843.6,277.618 1846.15,277.618 1848.69,277.618 1851.24,277.618 1853.78,277.618 1856.33,277.618 
  1858.87,277.618 1861.42,277.618 1863.97,277.618 1866.51,277.618 1869.06,277.618 1871.6,277.618 1874.15,277.618 1876.7,277.618 1879.24,277.618 1881.79,277.618 
  1884.33,277.618 1886.88,277.618 1889.42,277.618 1891.97,277.618 1894.52,277.618 1897.06,277.618 1899.61,277.618 1902.15,277.618 1904.7,277.618 1907.24,277.618 
  1909.79,277.618 1912.34,277.618 1914.88,277.618 1917.43,277.618 1919.97,277.618 1922.52,277.618 1925.07,277.618 1927.61,277.618 1930.16,277.618 1932.7,277.618 
  1935.25,277.618 1937.79,277.618 1940.34,277.618 1942.89,277.618 1945.43,277.618 1947.98,277.618 1950.52,277.618 1953.07,277.618 1955.61,277.618 1958.16,277.618 
  1960.71,277.618 1963.25,277.618 1965.8,277.618 1968.34,277.618 1970.89,277.618 1973.43,277.618 1975.98,277.618 1978.53,277.618 1981.07,277.618 1983.62,277.618 
  1986.16,277.618 1988.71,277.618 1991.26,277.618 1993.8,277.618 1996.35,277.618 1998.89,277.618 2001.44,277.618 2003.98,277.618 2006.53,277.618 2009.08,277.618 
  2011.62,277.618 2014.17,277.618 2016.71,277.618 2019.26,277.618 2021.8,277.618 2024.35,277.618 2026.9,277.618 2029.44,277.618 2031.99,277.618 2034.53,277.618 
  2037.08,277.618 2039.63,277.618 2042.17,277.618 2044.72,277.618 2047.26,277.618 2049.81,277.618 2052.35,277.618 2054.9,277.618 2057.45,277.618 2059.99,277.618 
  2062.54,277.618 2065.08,277.618 2067.63,277.618 2070.17,277.618 2072.72,277.618 2075.27,277.618 2077.81,277.618 2080.36,277.618 2082.9,277.618 2085.45,277.618 
  2087.99,277.618 2090.54,277.618 2093.09,277.618 2095.63,277.618 2098.18,277.618 2100.72,277.618 2103.27,277.618 2105.82,277.618 2108.36,277.618 2110.91,277.618 
  2113.45,277.618 2116,277.618 2118.54,277.618 2121.09,277.618 2123.64,277.618 2126.18,277.618 2128.73,277.618 2131.27,277.618 2133.82,277.618 2136.36,277.618 
  2138.91,277.618 2141.46,277.618 2144,277.618 2146.55,277.618 2149.09,277.618 2151.64,277.618 2154.19,277.618 2156.73,277.618 2159.28,277.618 2161.82,277.618 
  2164.37,277.618 2166.91,277.618 2169.46,277.618 2172.01,277.618 2174.55,277.618 2177.1,277.618 2179.64,277.618 2182.19,277.618 2184.73,277.618 2187.28,277.618 
  2189.83,277.618 2192.37,277.618 2194.92,277.618 2197.46,277.618 2200.01,277.618 2202.55,277.618 2205.1,277.618 2207.65,277.618 2210.19,277.618 2212.74,277.618 
  2215.28,277.618 2217.83,277.618 2220.38,277.618 2222.92,277.618 2225.47,277.618 2228.01,277.618 2230.56,277.618 2233.1,277.618 2235.65,277.618 2238.2,277.618 
  2240.74,277.618 2243.29,277.618 2245.83,277.618 2248.38,277.618 2250.92,277.618 2253.47,277.618 2256.02,277.618 2258.56,277.618 2261.11,277.618 2263.65,277.618 
  2266.2,277.618 2268.75,277.618 2271.29,277.618 2273.84,277.618 2276.38,277.618 2278.93,277.618 2281.47,277.618 2284.02,277.618 2286.57,277.618 2289.11,277.618 
  2291.66,277.618 
  "/>
<polyline clip-path="url(#clip422)" style="stroke:#e26f46; stroke-linecap:butt; stroke-linejoin:round; stroke-width:4; stroke-opacity:1; fill:none" points="
  255.035,793.191 257.58,772.56 260.126,751.769 262.672,730.855 265.218,709.852 267.764,688.793 270.309,667.713 272.855,646.643 275.401,625.615 277.947,604.66 
  280.492,583.809 283.038,563.09 285.584,542.531 288.13,522.161 290.676,502.005 293.221,482.091 295.767,462.443 298.313,443.086 300.859,424.044 303.404,405.339 
  305.95,386.994 308.496,369.03 311.042,351.469 313.588,334.33 316.133,317.633 318.679,301.397 321.225,285.639 323.771,270.378 326.316,255.63 328.862,241.411 
  331.408,227.736 333.954,214.621 336.5,202.078 339.045,190.123 341.591,178.766 344.137,168.021 346.683,157.898 349.228,148.409 351.774,139.562 354.32,131.368 
  356.866,123.834 359.412,116.968 361.957,110.778 364.503,105.269 367.049,100.449 369.595,96.3201 372.14,92.8882 374.686,90.1564 377.232,88.1275 379.778,86.8034 
  382.324,86.1857 384.869,86.2748 387.415,87.0709 389.961,88.5731 392.507,90.7799 395.052,93.6892 397.598,97.2981 400.144,101.603 402.69,106.6 405.236,112.284 
  407.781,118.649 410.327,125.69 412.873,133.398 415.419,141.768 417.964,150.791 420.51,160.458 423.056,170.76 425.602,181.687 428.148,193.229 430.693,205.375 
  433.239,218.113 435.785,231.432 438.331,245.319 440.876,259.762 443.422,274.747 445.968,290.26 448.514,306.288 451.06,322.817 453.605,339.831 456.151,357.317 
  458.697,375.258 461.243,393.641 463.788,412.45 466.334,431.669 468.88,451.284 471.426,471.278 473.972,491.638 476.517,512.348 479.063,533.394 481.609,554.761 
  484.155,576.437 486.7,598.408 489.246,620.66 491.792,643.184 494.338,665.968 496.884,689.004 499.429,712.283 501.975,735.798 504.521,759.546 507.067,783.523 
  509.612,803.597 512.158,820.692 514.704,837.904 517.25,855.206 519.796,872.571 522.341,889.974 524.887,907.388 527.433,924.788 529.979,942.148 532.524,959.444 
  535.07,976.652 537.616,993.749 540.162,1010.71 542.708,1027.51 545.253,1044.14 547.799,1060.56 550.345,1076.77 552.891,1092.73 555.437,1108.43 557.982,1123.85 
  560.528,1138.97 563.074,1153.77 565.62,1168.23 568.165,1182.35 570.711,1196.1 573.257,1209.46 575.803,1222.42 578.349,1234.97 580.894,1247.09 583.44,1258.77 
  585.986,1270 588.532,1280.76 591.077,1291.04 593.623,1300.83 596.169,1310.12 598.715,1318.89 601.261,1327.15 603.806,1334.88 606.352,1342.07 608.898,1348.72 
  611.444,1354.81 613.989,1360.35 616.535,1365.32 619.081,1369.72 621.627,1373.54 624.173,1376.79 626.718,1379.45 629.264,1381.53 631.81,1383.02 634.356,1383.93 
  636.901,1384.24 639.447,1383.96 641.993,1383.09 644.539,1381.63 647.085,1379.58 649.63,1376.94 652.176,1373.72 654.722,1369.92 657.268,1365.53 659.813,1360.58 
  662.359,1355.05 664.905,1348.96 667.451,1342.31 669.997,1335.11 672.542,1327.36 675.088,1319.07 677.634,1310.25 680.18,1300.91 682.725,1291.06 685.271,1280.69 
  687.817,1269.84 690.363,1258.49 692.909,1246.67 695.454,1234.38 698,1221.64 700.546,1208.45 703.092,1194.83 705.637,1180.8 708.183,1166.35 710.729,1151.5 
  713.275,1136.27 715.821,1120.67 718.366,1104.7 720.912,1088.39 723.458,1071.74 726.004,1054.77 728.549,1037.49 731.095,1019.91 733.641,1002.04 736.187,983.899 
  738.733,965.491 741.278,946.829 743.824,927.923 746.37,908.783 748.916,889.418 751.461,869.835 754.007,850.042 756.553,830.045 759.099,809.848 761.645,790.687 
  764.19,777.4 766.736,764.012 769.282,750.54 771.828,737.004 774.373,723.424 776.919,709.818 779.465,696.207 782.011,682.608 784.557,669.04 787.102,655.522 
  789.648,642.072 792.194,628.709 794.74,615.449 797.285,602.31 799.831,589.309 802.377,576.463 804.923,563.788 807.469,551.299 810.014,539.014 812.56,526.946 
  815.106,515.11 817.652,503.522 820.197,492.194 822.743,481.14 825.289,470.374 827.835,459.908 830.381,449.755 832.926,439.926 835.472,430.432 838.018,421.286 
  840.564,412.496 843.109,404.073 845.655,396.027 848.201,388.367 850.747,381.102 853.293,374.239 855.838,367.787 858.384,361.752 860.93,356.143 863.476,350.963 
  866.021,346.221 868.567,341.921 871.113,338.067 873.659,334.666 876.205,331.719 878.75,329.231 881.296,327.205 883.842,325.643 886.388,324.547 888.933,323.92 
  891.479,323.761 894.025,324.071 896.571,324.851 899.117,326.1 901.662,327.818 904.208,330.003 906.754,332.654 909.3,335.768 911.845,339.342 914.391,343.374 
  916.937,347.861 919.483,352.798 922.029,358.181 924.574,364.006 927.12,370.267 929.666,376.959 932.212,384.075 934.757,391.611 937.303,399.559 939.849,407.913 
  942.395,416.665 944.941,425.808 947.486,435.334 950.032,445.235 952.578,455.503 955.124,466.129 957.669,477.105 960.215,488.421 962.761,500.069 965.307,512.039 
  967.853,524.322 970.398,536.909 972.944,549.79 975.49,562.955 978.036,576.395 980.581,590.1 983.127,604.061 985.673,618.269 988.219,632.714 990.765,647.388 
  993.31,662.28 995.856,677.383 998.402,692.689 1000.95,708.188 1003.49,723.876 1006.04,739.742 1008.59,755.783 1011.13,771.99 1013.68,788.361 1016.22,799.805 
  1018.77,809.149 1021.31,818.56 1023.86,828.025 1026.41,837.533 1028.95,847.072 1031.5,856.628 1034.04,866.189 1036.59,875.743 1039.13,885.278 1041.68,894.781 
  1044.23,904.24 1046.77,913.643 1049.32,922.978 1051.86,932.232 1054.41,941.395 1056.95,950.454 1059.5,959.399 1062.05,968.217 1064.59,976.899 1067.14,985.432 
  1069.68,993.808 1072.23,1002.01 1074.78,1010.04 1077.32,1017.88 1079.87,1025.52 1082.41,1032.96 1084.96,1040.18 1087.5,1047.17 1090.05,1053.93 1092.6,1060.45 
  1095.14,1066.72 1097.69,1072.73 1100.23,1078.48 1102.78,1083.96 1105.32,1089.16 1107.87,1094.08 1110.42,1098.7 1112.96,1103.03 1115.51,1107.07 1118.05,1110.79 
  1120.6,1114.21 1123.15,1117.31 1125.69,1120.1 1128.24,1122.56 1130.78,1124.7 1133.33,1126.51 1135.87,1127.99 1138.42,1129.14 1140.97,1129.96 1143.51,1130.44 
  1146.06,1130.58 1148.6,1130.39 1151.15,1129.86 1153.69,1128.99 1156.24,1127.78 1158.79,1126.23 1161.33,1124.35 1163.88,1122.14 1166.42,1119.59 1168.97,1116.7 
  1171.51,1113.49 1174.06,1109.95 1176.61,1106.08 1179.15,1101.9 1181.7,1097.39 1184.24,1092.57 1186.79,1087.44 1189.34,1082 1191.88,1076.26 1194.43,1070.22 
  1196.97,1063.88 1199.52,1057.26 1202.06,1050.35 1204.61,1043.17 1207.16,1035.71 1209.7,1027.99 1212.25,1020.01 1214.79,1011.77 1217.34,1003.28 1219.88,994.557 
  1222.43,985.593 1224.98,976.401 1227.52,966.987 1230.07,957.357 1232.61,947.519 1235.16,937.479 1237.71,927.244 1240.25,916.82 1242.8,906.215 1245.34,895.436 
  1247.89,884.488 1250.43,873.38 1252.98,862.116 1255.53,850.704 1258.07,839.149 1260.62,827.458 1263.16,815.637 1265.71,803.691 1268.25,792.539 1270.8,787.652 
  1273.35,782.724 1275.89,777.763 1278.44,772.772 1280.98,767.759 1283.53,762.728 1286.07,757.686 1288.62,752.638 1291.17,747.591 1293.71,742.55 1296.26,737.521 
  1298.8,732.511 1301.35,727.525 1303.9,722.569 1306.44,717.649 1308.99,712.772 1311.53,707.942 1314.08,703.167 1316.62,698.451 1319.17,693.801 1321.72,689.221 
  1324.26,684.719 1326.81,680.298 1329.35,675.965 1331.9,671.726 1334.44,667.584 1336.99,663.546 1339.54,659.616 1342.08,655.799 1344.63,652.1 1347.17,648.524 
  1349.72,645.075 1352.27,641.758 1354.81,638.576 1357.36,635.533 1359.9,632.635 1362.45,629.884 1364.99,627.284 1367.54,624.838 1370.09,622.55 1372.63,620.423 
  1375.18,618.46 1377.72,616.663 1380.27,615.035 1382.81,613.579 1385.36,612.297 1387.91,611.19 1390.45,610.262 1393,609.512 1395.54,608.944 1398.09,608.557 
  1400.63,608.355 1403.18,608.336 1405.73,608.503 1408.27,608.855 1410.82,609.394 1413.36,610.119 1415.91,611.03 1418.46,612.128 1421,613.412 1423.55,614.881 
  1426.09,616.536 1428.64,618.375 1431.18,620.396 1433.73,622.6 1436.28,624.985 1438.82,627.549 1441.37,630.291 1443.91,633.208 1446.46,636.3 1449,639.563 
  1451.55,642.996 1454.1,646.597 1456.64,650.362 1459.19,654.289 1461.73,658.376 1464.28,662.62 1466.83,667.017 1469.37,671.564 1471.92,676.259 1474.46,681.097 
  1477.01,686.077 1479.55,691.193 1482.1,696.442 1484.65,701.821 1487.19,707.327 1489.74,712.954 1492.28,718.699 1494.83,724.559 1497.37,730.529 1499.92,736.605 
  1502.47,742.783 1505.01,749.058 1507.56,755.428 1510.1,761.887 1512.65,768.431 1515.19,775.056 1517.74,781.757 1520.29,788.531 1522.83,793.191 1525.38,793.191 
  1527.92,793.191 1530.47,793.191 1533.02,793.191 1535.56,793.191 1538.11,793.191 1540.65,793.191 1543.2,793.191 1545.74,793.191 1548.29,793.191 1550.84,793.191 
  1553.38,793.191 1555.93,793.191 1558.47,793.191 1561.02,793.191 1563.56,793.191 1566.11,793.191 1568.66,793.191 1571.2,793.191 1573.75,793.191 1576.29,793.191 
  1578.84,793.191 1581.39,793.191 1583.93,793.191 1586.48,793.191 1589.02,793.191 1591.57,793.191 1594.11,793.191 1596.66,793.191 1599.21,793.191 1601.75,793.191 
  1604.3,793.191 1606.84,793.191 1609.39,793.191 1611.93,793.191 1614.48,793.191 1617.03,793.191 1619.57,793.191 1622.12,793.191 1624.66,793.191 1627.21,793.191 
  1629.75,793.191 1632.3,793.191 1634.85,793.191 1637.39,793.191 1639.94,793.191 1642.48,793.191 1645.03,793.191 1647.58,793.191 1650.12,793.191 1652.67,793.191 
  1655.21,793.191 1657.76,793.191 1660.3,793.191 1662.85,793.191 1665.4,793.191 1667.94,793.191 1670.49,793.191 1673.03,793.191 1675.58,793.191 1678.12,793.191 
  1680.67,793.191 1683.22,793.191 1685.76,793.191 1688.31,793.191 1690.85,793.191 1693.4,793.191 1695.95,793.191 1698.49,793.191 1701.04,793.191 1703.58,793.191 
  1706.13,793.191 1708.67,793.191 1711.22,793.191 1713.77,793.191 1716.31,793.191 1718.86,793.191 1721.4,793.191 1723.95,793.191 1726.49,793.191 1729.04,793.191 
  1731.59,793.191 1734.13,793.191 1736.68,793.191 1739.22,793.191 1741.77,793.191 1744.31,793.191 1746.86,793.191 1749.41,793.191 1751.95,793.191 1754.5,793.191 
  1757.04,793.191 1759.59,793.191 1762.14,793.191 1764.68,793.191 1767.23,793.191 1769.77,793.191 1772.32,793.191 1774.86,793.191 1777.41,793.191 1779.96,793.191 
  1782.5,793.191 1785.05,793.191 1787.59,793.191 1790.14,793.191 1792.68,793.191 1795.23,793.191 1797.78,793.191 1800.32,793.191 1802.87,793.191 1805.41,793.191 
  1807.96,793.191 1810.51,793.191 1813.05,793.191 1815.6,793.191 1818.14,793.191 1820.69,793.191 1823.23,793.191 1825.78,793.191 1828.33,793.191 1830.87,793.191 
  1833.42,793.191 1835.96,793.191 1838.51,793.191 1841.05,793.191 1843.6,793.191 1846.15,793.191 1848.69,793.191 1851.24,793.191 1853.78,793.191 1856.33,793.191 
  1858.87,793.191 1861.42,793.191 1863.97,793.191 1866.51,793.191 1869.06,793.191 1871.6,793.191 1874.15,793.191 1876.7,793.191 1879.24,793.191 1881.79,793.191 
  1884.33,793.191 1886.88,793.191 1889.42,793.191 1891.97,793.191 1894.52,793.191 1897.06,793.191 1899.61,793.191 1902.15,793.191 1904.7,793.191 1907.24,793.191 
  1909.79,793.191 1912.34,793.191 1914.88,793.191 1917.43,793.191 1919.97,793.191 1922.52,793.191 1925.07,793.191 1927.61,793.191 1930.16,793.191 1932.7,793.191 
  1935.25,793.191 1937.79,793.191 1940.34,793.191 1942.89,793.191 1945.43,793.191 1947.98,793.191 1950.52,793.191 1953.07,793.191 1955.61,793.191 1958.16,793.191 
  1960.71,793.191 1963.25,793.191 1965.8,793.191 1968.34,793.191 1970.89,793.191 1973.43,793.191 1975.98,793.191 1978.53,793.191 1981.07,793.191 1983.62,793.191 
  1986.16,793.191 1988.71,793.191 1991.26,793.191 1993.8,793.191 1996.35,793.191 1998.89,793.191 2001.44,793.191 2003.98,793.191 2006.53,793.191 2009.08,793.191 
  2011.62,793.191 2014.17,793.191 2016.71,793.191 2019.26,793.191 2021.8,793.191 2024.35,793.191 2026.9,793.191 2029.44,793.191 2031.99,793.191 2034.53,793.191 
  2037.08,793.191 2039.63,793.191 2042.17,793.191 2044.72,793.191 2047.26,793.191 2049.81,793.191 2052.35,793.191 2054.9,793.191 2057.45,793.191 2059.99,793.191 
  2062.54,793.191 2065.08,793.191 2067.63,793.191 2070.17,793.191 2072.72,793.191 2075.27,793.191 2077.81,793.191 2080.36,793.191 2082.9,793.191 2085.45,793.191 
  2087.99,793.191 2090.54,793.191 2093.09,793.191 2095.63,793.191 2098.18,793.191 2100.72,793.191 2103.27,793.191 2105.82,793.191 2108.36,793.191 2110.91,793.191 
  2113.45,793.191 2116,793.191 2118.54,793.191 2121.09,793.191 2123.64,793.191 2126.18,793.191 2128.73,793.191 2131.27,793.191 2133.82,793.191 2136.36,793.191 
  2138.91,793.191 2141.46,793.191 2144,793.191 2146.55,793.191 2149.09,793.191 2151.64,793.191 2154.19,793.191 2156.73,793.191 2159.28,793.191 2161.82,793.191 
  2164.37,793.191 2166.91,793.191 2169.46,793.191 2172.01,793.191 2174.55,793.191 2177.1,793.191 2179.64,793.191 2182.19,793.191 2184.73,793.191 2187.28,793.191 
  2189.83,793.191 2192.37,793.191 2194.92,793.191 2197.46,793.191 2200.01,793.191 2202.55,793.191 2205.1,793.191 2207.65,793.191 2210.19,793.191 2212.74,793.191 
  2215.28,793.191 2217.83,793.191 2220.38,793.191 2222.92,793.191 2225.47,793.191 2228.01,793.191 2230.56,793.191 2233.1,793.191 2235.65,793.191 2238.2,793.191 
  2240.74,793.191 2243.29,793.191 2245.83,793.191 2248.38,793.191 2250.92,793.191 2253.47,793.191 2256.02,793.191 2258.56,793.191 2261.11,793.191 2263.65,793.191 
  2266.2,793.191 2268.75,793.191 2271.29,793.191 2273.84,793.191 2276.38,793.191 2278.93,793.191 2281.47,793.191 2284.02,793.191 2286.57,793.191 2289.11,793.191 
  2291.66,793.191 
  "/>
<polyline clip-path="url(#clip422)" style="stroke:#0000ff; stroke-linecap:butt; stroke-linejoin:round; stroke-width:4; stroke-opacity:1; fill:none" stroke-dasharray="16, 10" points="
  255.035,1384.24 255.035,86.1857 
  "/>
<polyline clip-path="url(#clip422)" style="stroke:#0000ff; stroke-linecap:butt; stroke-linejoin:round; stroke-width:4; stroke-opacity:1; fill:none" stroke-dasharray="16, 10" points="
  508.052,1384.24 508.052,86.1857 
  "/>
<polyline clip-path="url(#clip422)" style="stroke:#0000ff; stroke-linecap:butt; stroke-linejoin:round; stroke-width:4; stroke-opacity:1; fill:none" stroke-dasharray="16, 10" points="
  761.162,1384.24 761.162,86.1857 
  "/>
<polyline clip-path="url(#clip422)" style="stroke:#0000ff; stroke-linecap:butt; stroke-linejoin:round; stroke-width:4; stroke-opacity:1; fill:none" stroke-dasharray="16, 10" points="
  1014.41,1384.24 1014.41,86.1857 
  "/>
<polyline clip-path="url(#clip422)" style="stroke:#0000ff; stroke-linecap:butt; stroke-linejoin:round; stroke-width:4; stroke-opacity:1; fill:none" stroke-dasharray="16, 10" points="
  1267.91,1384.24 1267.91,86.1857 
  "/>
<polyline clip-path="url(#clip422)" style="stroke:#0000ff; stroke-linecap:butt; stroke-linejoin:round; stroke-width:4; stroke-opacity:1; fill:none" stroke-dasharray="16, 10" points="
  1522.02,1384.24 1522.02,86.1857 
  "/>
<path clip-path="url(#clip420)" d="
M1588.2 300.469 L2280.8 300.469 L2280.8 93.1086 L1588.2 93.1086  Z
  " fill="#ffffff" fill-rule="evenodd" fill-opacity="1"/>
<polyline clip-path="url(#clip420)" style="stroke:#000000; stroke-linecap:butt; stroke-linejoin:round; stroke-width:4; stroke-opacity:1; fill:none" points="
  1588.2,300.469 2280.8,300.469 2280.8,93.1086 1588.2,93.1086 1588.2,300.469 
  "/>
<polyline clip-path="url(#clip420)" style="stroke:#009af9; stroke-linecap:butt; stroke-linejoin:round; stroke-width:4; stroke-opacity:1; fill:none" points="
  1612.18,144.949 1756.11,144.949 
  "/>
<path clip-path="url(#clip420)" d="M1800.44 141.28 Q1802.04 138.409 1804.26 137.044 Q1806.48 135.678 1809.49 135.678 Q1813.54 135.678 1815.74 138.525 Q1817.94 141.349 1817.94 146.581 L1817.94 162.229 L1813.66 162.229 L1813.66 146.719 Q1813.66 142.993 1812.34 141.187 Q1811.02 139.382 1808.31 139.382 Q1805 139.382 1803.08 141.581 Q1801.16 143.78 1801.16 147.576 L1801.16 162.229 L1796.87 162.229 L1796.87 146.719 Q1796.87 142.969 1795.56 141.187 Q1794.24 139.382 1791.48 139.382 Q1788.22 139.382 1786.3 141.604 Q1784.37 143.803 1784.37 147.576 L1784.37 162.229 L1780.09 162.229 L1780.09 136.303 L1784.37 136.303 L1784.37 140.331 Q1785.83 137.946 1787.87 136.812 Q1789.91 135.678 1792.71 135.678 Q1795.53 135.678 1797.5 137.113 Q1799.49 138.548 1800.44 141.28 Z" fill="#000000" fill-rule="evenodd" fill-opacity="1" /><path clip-path="url(#clip420)" d="M1838.22 149.196 Q1833.06 149.196 1831.06 150.377 Q1829.07 151.557 1829.07 154.405 Q1829.07 156.673 1830.56 158.016 Q1832.06 159.335 1834.63 159.335 Q1838.17 159.335 1840.3 156.835 Q1842.45 154.312 1842.45 150.145 L1842.45 149.196 L1838.22 149.196 M1846.71 147.437 L1846.71 162.229 L1842.45 162.229 L1842.45 158.293 Q1840.99 160.655 1838.82 161.789 Q1836.64 162.9 1833.49 162.9 Q1829.51 162.9 1827.15 160.678 Q1824.81 158.432 1824.81 154.682 Q1824.81 150.307 1827.73 148.085 Q1830.67 145.863 1836.48 145.863 L1842.45 145.863 L1842.45 145.446 Q1842.45 142.507 1840.51 140.909 Q1838.59 139.289 1835.09 139.289 Q1832.87 139.289 1830.76 139.821 Q1828.66 140.354 1826.71 141.419 L1826.71 137.483 Q1829.05 136.581 1831.25 136.141 Q1833.45 135.678 1835.53 135.678 Q1841.16 135.678 1843.93 138.594 Q1846.71 141.511 1846.71 147.437 Z" fill="#000000" fill-rule="evenodd" fill-opacity="1" /><path clip-path="url(#clip420)" d="M1872.01 137.067 L1872.01 141.094 Q1870.21 140.169 1868.26 139.706 Q1866.32 139.243 1864.24 139.243 Q1861.06 139.243 1859.47 140.215 Q1857.89 141.187 1857.89 143.131 Q1857.89 144.613 1859.03 145.469 Q1860.16 146.303 1863.59 147.067 L1865.05 147.391 Q1869.58 148.363 1871.48 150.145 Q1873.4 151.905 1873.4 155.076 Q1873.4 158.687 1870.53 160.793 Q1867.68 162.9 1862.68 162.9 Q1860.6 162.9 1858.33 162.483 Q1856.09 162.09 1853.59 161.28 L1853.59 156.881 Q1855.95 158.108 1858.24 158.733 Q1860.53 159.335 1862.78 159.335 Q1865.79 159.335 1867.41 158.317 Q1869.03 157.275 1869.03 155.4 Q1869.03 153.664 1867.85 152.738 Q1866.69 151.812 1862.73 150.956 L1861.25 150.608 Q1857.29 149.775 1855.53 148.062 Q1853.77 146.326 1853.77 143.317 Q1853.77 139.659 1856.37 137.669 Q1858.96 135.678 1863.73 135.678 Q1866.09 135.678 1868.17 136.025 Q1870.25 136.372 1872.01 137.067 Z" fill="#000000" fill-rule="evenodd" fill-opacity="1" /><path clip-path="url(#clip420)" d="M1896.71 137.067 L1896.71 141.094 Q1894.91 140.169 1892.96 139.706 Q1891.02 139.243 1888.93 139.243 Q1885.76 139.243 1884.17 140.215 Q1882.59 141.187 1882.59 143.131 Q1882.59 144.613 1883.73 145.469 Q1884.86 146.303 1888.29 147.067 L1889.74 147.391 Q1894.28 148.363 1896.18 150.145 Q1898.1 151.905 1898.1 155.076 Q1898.1 158.687 1895.23 160.793 Q1892.38 162.9 1887.38 162.9 Q1885.3 162.9 1883.03 162.483 Q1880.79 162.09 1878.29 161.28 L1878.29 156.881 Q1880.65 158.108 1882.94 158.733 Q1885.23 159.335 1887.48 159.335 Q1890.49 159.335 1892.11 158.317 Q1893.73 157.275 1893.73 155.4 Q1893.73 153.664 1892.55 152.738 Q1891.39 151.812 1887.43 150.956 L1885.95 150.608 Q1881.99 149.775 1880.23 148.062 Q1878.47 146.326 1878.47 143.317 Q1878.47 139.659 1881.06 137.669 Q1883.66 135.678 1888.43 135.678 Q1890.79 135.678 1892.87 136.025 Q1894.95 136.372 1896.71 137.067 Z" fill="#000000" fill-rule="evenodd" fill-opacity="1" /><path clip-path="url(#clip420)" d="M1905.49 156.349 L1910.37 156.349 L1910.37 162.229 L1905.49 162.229 L1905.49 156.349 Z" fill="#000000" fill-rule="evenodd" fill-opacity="1" /><path clip-path="url(#clip420)" d="M1936.48 137.067 L1936.48 141.094 Q1934.67 140.169 1932.73 139.706 Q1930.79 139.243 1928.7 139.243 Q1925.53 139.243 1923.93 140.215 Q1922.36 141.187 1922.36 143.131 Q1922.36 144.613 1923.49 145.469 Q1924.63 146.303 1928.05 147.067 L1929.51 147.391 Q1934.05 148.363 1935.95 150.145 Q1937.87 151.905 1937.87 155.076 Q1937.87 158.687 1935 160.793 Q1932.15 162.9 1927.15 162.9 Q1925.07 162.9 1922.8 162.483 Q1920.55 162.09 1918.05 161.28 L1918.05 156.881 Q1920.42 158.108 1922.71 158.733 Q1925 159.335 1927.24 159.335 Q1930.25 159.335 1931.87 158.317 Q1933.49 157.275 1933.49 155.4 Q1933.49 153.664 1932.31 152.738 Q1931.16 151.812 1927.2 150.956 L1925.72 150.608 Q1921.76 149.775 1920 148.062 Q1918.24 146.326 1918.24 143.317 Q1918.24 139.659 1920.83 137.669 Q1923.42 135.678 1928.19 135.678 Q1930.55 135.678 1932.64 136.025 Q1934.72 136.372 1936.48 137.067 Z" fill="#000000" fill-rule="evenodd" fill-opacity="1" /><path clip-path="url(#clip420)" d="M1969.95 126.257 Q1966.85 131.581 1965.35 136.789 Q1963.84 141.997 1963.84 147.344 Q1963.84 152.692 1965.35 157.946 Q1966.87 163.178 1969.95 168.479 L1966.25 168.479 Q1962.78 163.039 1961.04 157.784 Q1959.33 152.53 1959.33 147.344 Q1959.33 142.182 1961.04 136.951 Q1962.75 131.72 1966.25 126.257 L1969.95 126.257 Z" fill="#000000" fill-rule="evenodd" fill-opacity="1" /><path clip-path="url(#clip420)" d="M1992.98 143.594 Q1996.34 144.312 1998.22 146.581 Q2000.11 148.849 2000.11 152.182 Q2000.11 157.298 1996.6 160.099 Q1993.08 162.9 1986.6 162.9 Q1984.42 162.9 1982.11 162.46 Q1979.81 162.043 1977.36 161.187 L1977.36 156.673 Q1979.3 157.807 1981.62 158.386 Q1983.93 158.965 1986.46 158.965 Q1990.86 158.965 1993.15 157.229 Q1995.46 155.493 1995.46 152.182 Q1995.46 149.127 1993.31 147.414 Q1991.18 145.678 1987.36 145.678 L1983.33 145.678 L1983.33 141.835 L1987.55 141.835 Q1990.99 141.835 1992.82 140.469 Q1994.65 139.081 1994.65 136.488 Q1994.65 133.826 1992.75 132.414 Q1990.88 130.979 1987.36 130.979 Q1985.44 130.979 1983.24 131.395 Q1981.04 131.812 1978.4 132.692 L1978.4 128.525 Q1981.06 127.784 1983.38 127.414 Q1985.72 127.044 1987.78 127.044 Q1993.1 127.044 1996.2 129.474 Q1999.3 131.882 1999.3 136.002 Q1999.3 138.872 1997.66 140.863 Q1996.02 142.831 1992.98 143.594 Z" fill="#000000" fill-rule="evenodd" fill-opacity="1" /><path clip-path="url(#clip420)" d="M2023.15 143.594 Q2026.5 144.312 2028.38 146.581 Q2030.28 148.849 2030.28 152.182 Q2030.28 157.298 2026.76 160.099 Q2023.24 162.9 2016.76 162.9 Q2014.58 162.9 2012.27 162.46 Q2009.98 162.043 2007.52 161.187 L2007.52 156.673 Q2009.47 157.807 2011.78 158.386 Q2014.1 158.965 2016.62 158.965 Q2021.02 158.965 2023.31 157.229 Q2025.62 155.493 2025.62 152.182 Q2025.62 149.127 2023.47 147.414 Q2021.34 145.678 2017.52 145.678 L2013.49 145.678 L2013.49 141.835 L2017.71 141.835 Q2021.16 141.835 2022.98 140.469 Q2024.81 139.081 2024.81 136.488 Q2024.81 133.826 2022.92 132.414 Q2021.04 130.979 2017.52 130.979 Q2015.6 130.979 2013.4 131.395 Q2011.2 131.812 2008.56 132.692 L2008.56 128.525 Q2011.23 127.784 2013.54 127.414 Q2015.88 127.044 2017.94 127.044 Q2023.26 127.044 2026.36 129.474 Q2029.47 131.882 2029.47 136.002 Q2029.47 138.872 2027.82 140.863 Q2026.18 142.831 2023.15 143.594 Z" fill="#000000" fill-rule="evenodd" fill-opacity="1" /><path clip-path="url(#clip420)" d="M2039.19 127.669 L2057.54 127.669 L2057.54 131.604 L2043.47 131.604 L2043.47 140.076 Q2044.49 139.729 2045.51 139.567 Q2046.53 139.382 2047.54 139.382 Q2053.33 139.382 2056.71 142.553 Q2060.09 145.724 2060.09 151.141 Q2060.09 156.719 2056.62 159.821 Q2053.15 162.9 2046.83 162.9 Q2044.65 162.9 2042.38 162.53 Q2040.14 162.159 2037.73 161.418 L2037.73 156.719 Q2039.81 157.854 2042.04 158.409 Q2044.26 158.965 2046.73 158.965 Q2050.74 158.965 2053.08 156.858 Q2055.42 154.752 2055.42 151.141 Q2055.42 147.53 2053.08 145.423 Q2050.74 143.317 2046.73 143.317 Q2044.86 143.317 2042.98 143.733 Q2041.13 144.15 2039.19 145.03 L2039.19 127.669 Z" fill="#000000" fill-rule="evenodd" fill-opacity="1" /><path clip-path="url(#clip420)" d="M2069.35 127.669 L2087.71 127.669 L2087.71 131.604 L2073.63 131.604 L2073.63 140.076 Q2074.65 139.729 2075.67 139.567 Q2076.69 139.382 2077.71 139.382 Q2083.49 139.382 2086.87 142.553 Q2090.25 145.724 2090.25 151.141 Q2090.25 156.719 2086.78 159.821 Q2083.31 162.9 2076.99 162.9 Q2074.81 162.9 2072.54 162.53 Q2070.3 162.159 2067.89 161.418 L2067.89 156.719 Q2069.98 157.854 2072.2 158.409 Q2074.42 158.965 2076.9 158.965 Q2080.9 158.965 2083.24 156.858 Q2085.58 154.752 2085.58 151.141 Q2085.58 147.53 2083.24 145.423 Q2080.9 143.317 2076.9 143.317 Q2075.02 143.317 2073.15 143.733 Q2071.29 144.15 2069.35 145.03 L2069.35 127.669 Z" fill="#000000" fill-rule="evenodd" fill-opacity="1" /><path clip-path="url(#clip420)" d="M2112.31 131.743 L2100.51 150.192 L2112.31 150.192 L2112.31 131.743 M2111.09 127.669 L2116.97 127.669 L2116.97 150.192 L2121.9 150.192 L2121.9 154.081 L2116.97 154.081 L2116.97 162.229 L2112.31 162.229 L2112.31 154.081 L2096.71 154.081 L2096.71 149.567 L2111.09 127.669 Z" fill="#000000" fill-rule="evenodd" fill-opacity="1" /><path clip-path="url(#clip420)" d="M2142.47 131.743 L2130.67 150.192 L2142.47 150.192 L2142.47 131.743 M2141.25 127.669 L2147.13 127.669 L2147.13 150.192 L2152.06 150.192 L2152.06 154.081 L2147.13 154.081 L2147.13 162.229 L2142.47 162.229 L2142.47 154.081 L2126.87 154.081 L2126.87 149.567 L2141.25 127.669 Z" fill="#000000" fill-rule="evenodd" fill-opacity="1" /><path clip-path="url(#clip420)" d="M2173.96 143.594 Q2177.31 144.312 2179.19 146.581 Q2181.09 148.849 2181.09 152.182 Q2181.09 157.298 2177.57 160.099 Q2174.05 162.9 2167.57 162.9 Q2165.39 162.9 2163.08 162.46 Q2160.78 162.043 2158.33 161.187 L2158.33 156.673 Q2160.28 157.807 2162.59 158.386 Q2164.91 158.965 2167.43 158.965 Q2171.83 158.965 2174.12 157.229 Q2176.43 155.493 2176.43 152.182 Q2176.43 149.127 2174.28 147.414 Q2172.15 145.678 2168.33 145.678 L2164.3 145.678 L2164.3 141.835 L2168.52 141.835 Q2171.97 141.835 2173.79 140.469 Q2175.62 139.081 2175.62 136.488 Q2175.62 133.826 2173.72 132.414 Q2171.85 130.979 2168.33 130.979 Q2166.41 130.979 2164.21 131.395 Q2162.01 131.812 2159.37 132.692 L2159.37 128.525 Q2162.03 127.784 2164.35 127.414 Q2166.69 127.044 2168.75 127.044 Q2174.07 127.044 2177.17 129.474 Q2180.28 131.882 2180.28 136.002 Q2180.28 138.872 2178.63 140.863 Q2176.99 142.831 2173.96 143.594 Z" fill="#000000" fill-rule="evenodd" fill-opacity="1" /><path clip-path="url(#clip420)" d="M2193.98 158.293 L2210.3 158.293 L2210.3 162.229 L2188.35 162.229 L2188.35 158.293 Q2191.02 155.539 2195.6 150.909 Q2200.21 146.256 2201.39 144.914 Q2203.63 142.391 2204.51 140.655 Q2205.41 138.895 2205.41 137.206 Q2205.41 134.451 2203.47 132.715 Q2201.55 130.979 2198.45 130.979 Q2196.25 130.979 2193.79 131.743 Q2191.36 132.507 2188.59 134.057 L2188.59 129.335 Q2191.41 128.201 2193.86 127.622 Q2196.32 127.044 2198.35 127.044 Q2203.72 127.044 2206.92 129.729 Q2210.11 132.414 2210.11 136.905 Q2210.11 139.034 2209.3 140.956 Q2208.52 142.854 2206.41 145.446 Q2205.83 146.118 2202.73 149.335 Q2199.63 152.53 2193.98 158.293 Z" fill="#000000" fill-rule="evenodd" fill-opacity="1" /><path clip-path="url(#clip420)" d="M2218.84 126.257 L2222.54 126.257 Q2226.02 131.72 2227.73 136.951 Q2229.47 142.182 2229.47 147.344 Q2229.47 152.53 2227.73 157.784 Q2226.02 163.039 2222.54 168.479 L2218.84 168.479 Q2221.92 163.178 2223.42 157.946 Q2224.95 152.692 2224.95 147.344 Q2224.95 141.997 2223.42 136.789 Q2221.92 131.581 2218.84 126.257 Z" fill="#000000" fill-rule="evenodd" fill-opacity="1" /><polyline clip-path="url(#clip420)" style="stroke:#e26f46; stroke-linecap:butt; stroke-linejoin:round; stroke-width:4; stroke-opacity:1; fill:none" points="
  1612.18,196.789 1756.11,196.789 
  "/>
<path clip-path="url(#clip420)" d="M1800.44 193.12 Q1802.04 190.249 1804.26 188.884 Q1806.48 187.518 1809.49 187.518 Q1813.54 187.518 1815.74 190.365 Q1817.94 193.189 1817.94 198.421 L1817.94 214.069 L1813.66 214.069 L1813.66 198.559 Q1813.66 194.833 1812.34 193.027 Q1811.02 191.222 1808.31 191.222 Q1805 191.222 1803.08 193.421 Q1801.16 195.62 1801.16 199.416 L1801.16 214.069 L1796.87 214.069 L1796.87 198.559 Q1796.87 194.809 1795.56 193.027 Q1794.24 191.222 1791.48 191.222 Q1788.22 191.222 1786.3 193.444 Q1784.37 195.643 1784.37 199.416 L1784.37 214.069 L1780.09 214.069 L1780.09 188.143 L1784.37 188.143 L1784.37 192.171 Q1785.83 189.786 1787.87 188.652 Q1789.91 187.518 1792.71 187.518 Q1795.53 187.518 1797.5 188.953 Q1799.49 190.388 1800.44 193.12 Z" fill="#000000" fill-rule="evenodd" fill-opacity="1" /><path clip-path="url(#clip420)" d="M1838.22 201.036 Q1833.06 201.036 1831.06 202.217 Q1829.07 203.397 1829.07 206.245 Q1829.07 208.513 1830.56 209.856 Q1832.06 211.175 1834.63 211.175 Q1838.17 211.175 1840.3 208.675 Q1842.45 206.152 1842.45 201.985 L1842.45 201.036 L1838.22 201.036 M1846.71 199.277 L1846.71 214.069 L1842.45 214.069 L1842.45 210.133 Q1840.99 212.495 1838.82 213.629 Q1836.64 214.74 1833.49 214.74 Q1829.51 214.74 1827.15 212.518 Q1824.81 210.272 1824.81 206.522 Q1824.81 202.147 1827.73 199.925 Q1830.67 197.703 1836.48 197.703 L1842.45 197.703 L1842.45 197.286 Q1842.45 194.347 1840.51 192.749 Q1838.59 191.129 1835.09 191.129 Q1832.87 191.129 1830.76 191.661 Q1828.66 192.194 1826.71 193.259 L1826.71 189.323 Q1829.05 188.421 1831.25 187.981 Q1833.45 187.518 1835.53 187.518 Q1841.16 187.518 1843.93 190.434 Q1846.71 193.351 1846.71 199.277 Z" fill="#000000" fill-rule="evenodd" fill-opacity="1" /><path clip-path="url(#clip420)" d="M1872.01 188.907 L1872.01 192.934 Q1870.21 192.009 1868.26 191.546 Q1866.32 191.083 1864.24 191.083 Q1861.06 191.083 1859.47 192.055 Q1857.89 193.027 1857.89 194.971 Q1857.89 196.453 1859.03 197.309 Q1860.16 198.143 1863.59 198.907 L1865.05 199.231 Q1869.58 200.203 1871.48 201.985 Q1873.4 203.745 1873.4 206.916 Q1873.4 210.527 1870.53 212.633 Q1867.68 214.74 1862.68 214.74 Q1860.6 214.74 1858.33 214.323 Q1856.09 213.93 1853.59 213.12 L1853.59 208.721 Q1855.95 209.948 1858.24 210.573 Q1860.53 211.175 1862.78 211.175 Q1865.79 211.175 1867.41 210.157 Q1869.03 209.115 1869.03 207.24 Q1869.03 205.504 1867.85 204.578 Q1866.69 203.652 1862.73 202.796 L1861.25 202.448 Q1857.29 201.615 1855.53 199.902 Q1853.77 198.166 1853.77 195.157 Q1853.77 191.499 1856.37 189.509 Q1858.96 187.518 1863.73 187.518 Q1866.09 187.518 1868.17 187.865 Q1870.25 188.212 1872.01 188.907 Z" fill="#000000" fill-rule="evenodd" fill-opacity="1" /><path clip-path="url(#clip420)" d="M1896.71 188.907 L1896.71 192.934 Q1894.91 192.009 1892.96 191.546 Q1891.02 191.083 1888.93 191.083 Q1885.76 191.083 1884.17 192.055 Q1882.59 193.027 1882.59 194.971 Q1882.59 196.453 1883.73 197.309 Q1884.86 198.143 1888.29 198.907 L1889.74 199.231 Q1894.28 200.203 1896.18 201.985 Q1898.1 203.745 1898.1 206.916 Q1898.1 210.527 1895.23 212.633 Q1892.38 214.74 1887.38 214.74 Q1885.3 214.74 1883.03 214.323 Q1880.79 213.93 1878.29 213.12 L1878.29 208.721 Q1880.65 209.948 1882.94 210.573 Q1885.23 211.175 1887.48 211.175 Q1890.49 211.175 1892.11 210.157 Q1893.73 209.115 1893.73 207.24 Q1893.73 205.504 1892.55 204.578 Q1891.39 203.652 1887.43 202.796 L1885.95 202.448 Q1881.99 201.615 1880.23 199.902 Q1878.47 198.166 1878.47 195.157 Q1878.47 191.499 1881.06 189.509 Q1883.66 187.518 1888.43 187.518 Q1890.79 187.518 1892.87 187.865 Q1894.95 188.212 1896.71 188.907 Z" fill="#000000" fill-rule="evenodd" fill-opacity="1" /><path clip-path="url(#clip420)" d="M1905.49 208.189 L1910.37 208.189 L1910.37 214.069 L1905.49 214.069 L1905.49 208.189 Z" fill="#000000" fill-rule="evenodd" fill-opacity="1" /><path clip-path="url(#clip420)" d="M1916.9 188.143 L1921.41 188.143 L1929.51 209.902 L1937.61 188.143 L1942.13 188.143 L1932.41 214.069 L1926.62 214.069 L1916.9 188.143 Z" fill="#000000" fill-rule="evenodd" fill-opacity="1" /><path clip-path="url(#clip420)" d="M1973.31 178.097 Q1970.21 183.421 1968.7 188.629 Q1967.2 193.837 1967.2 199.184 Q1967.2 204.532 1968.7 209.786 Q1970.23 215.018 1973.31 220.319 L1969.61 220.319 Q1966.13 214.879 1964.4 209.624 Q1962.68 204.37 1962.68 199.184 Q1962.68 194.022 1964.4 188.791 Q1966.11 183.56 1969.61 178.097 L1973.31 178.097 Z" fill="#000000" fill-rule="evenodd" fill-opacity="1" /><path clip-path="url(#clip420)" d="M1996.34 195.434 Q1999.7 196.152 2001.57 198.421 Q2003.47 200.689 2003.47 204.022 Q2003.47 209.138 1999.95 211.939 Q1996.43 214.74 1989.95 214.74 Q1987.78 214.74 1985.46 214.3 Q1983.17 213.883 1980.72 213.027 L1980.72 208.513 Q1982.66 209.647 1984.98 210.226 Q1987.29 210.805 1989.81 210.805 Q1994.21 210.805 1996.5 209.069 Q1998.82 207.333 1998.82 204.022 Q1998.82 200.967 1996.67 199.254 Q1994.54 197.518 1990.72 197.518 L1986.69 197.518 L1986.69 193.675 L1990.9 193.675 Q1994.35 193.675 1996.18 192.309 Q1998.01 190.921 1998.01 188.328 Q1998.01 185.666 1996.11 184.254 Q1994.23 182.819 1990.72 182.819 Q1988.79 182.819 1986.6 183.235 Q1984.4 183.652 1981.76 184.532 L1981.76 180.365 Q1984.42 179.624 1986.73 179.254 Q1989.07 178.884 1991.13 178.884 Q1996.46 178.884 1999.56 181.314 Q2002.66 183.722 2002.66 187.842 Q2002.66 190.712 2001.02 192.703 Q1999.37 194.671 1996.34 195.434 Z" fill="#000000" fill-rule="evenodd" fill-opacity="1" /><path clip-path="url(#clip420)" d="M2026.5 195.434 Q2029.86 196.152 2031.73 198.421 Q2033.63 200.689 2033.63 204.022 Q2033.63 209.138 2030.11 211.939 Q2026.6 214.74 2020.11 214.74 Q2017.94 214.74 2015.62 214.3 Q2013.33 213.883 2010.88 213.027 L2010.88 208.513 Q2012.82 209.647 2015.14 210.226 Q2017.45 210.805 2019.98 210.805 Q2024.37 210.805 2026.67 209.069 Q2028.98 207.333 2028.98 204.022 Q2028.98 200.967 2026.83 199.254 Q2024.7 197.518 2020.88 197.518 L2016.85 197.518 L2016.85 193.675 L2021.06 193.675 Q2024.51 193.675 2026.34 192.309 Q2028.17 190.921 2028.17 188.328 Q2028.17 185.666 2026.27 184.254 Q2024.4 182.819 2020.88 182.819 Q2018.96 182.819 2016.76 183.235 Q2014.56 183.652 2011.92 184.532 L2011.92 180.365 Q2014.58 179.624 2016.9 179.254 Q2019.23 178.884 2021.29 178.884 Q2026.62 178.884 2029.72 181.314 Q2032.82 183.722 2032.82 187.842 Q2032.82 190.712 2031.18 192.703 Q2029.54 194.671 2026.5 195.434 Z" fill="#000000" fill-rule="evenodd" fill-opacity="1" /><path clip-path="url(#clip420)" d="M2042.54 179.509 L2060.9 179.509 L2060.9 183.444 L2046.83 183.444 L2046.83 191.916 Q2047.85 191.569 2048.86 191.407 Q2049.88 191.222 2050.9 191.222 Q2056.69 191.222 2060.07 194.393 Q2063.45 197.564 2063.45 202.981 Q2063.45 208.559 2059.98 211.661 Q2056.5 214.74 2050.18 214.74 Q2048.01 214.74 2045.74 214.37 Q2043.49 213.999 2041.09 213.258 L2041.09 208.559 Q2043.17 209.694 2045.39 210.249 Q2047.61 210.805 2050.09 210.805 Q2054.1 210.805 2056.43 208.698 Q2058.77 206.592 2058.77 202.981 Q2058.77 199.37 2056.43 197.263 Q2054.1 195.157 2050.09 195.157 Q2048.22 195.157 2046.34 195.573 Q2044.49 195.99 2042.54 196.87 L2042.54 179.509 Z" fill="#000000" fill-rule="evenodd" fill-opacity="1" /><path clip-path="url(#clip420)" d="M2072.71 179.509 L2091.06 179.509 L2091.06 183.444 L2076.99 183.444 L2076.99 191.916 Q2078.01 191.569 2079.03 191.407 Q2080.04 191.222 2081.06 191.222 Q2086.85 191.222 2090.23 194.393 Q2093.61 197.564 2093.61 202.981 Q2093.61 208.559 2090.14 211.661 Q2086.66 214.74 2080.35 214.74 Q2078.17 214.74 2075.9 214.37 Q2073.66 213.999 2071.25 213.258 L2071.25 208.559 Q2073.33 209.694 2075.55 210.249 Q2077.78 210.805 2080.25 210.805 Q2084.26 210.805 2086.6 208.698 Q2088.93 206.592 2088.93 202.981 Q2088.93 199.37 2086.6 197.263 Q2084.26 195.157 2080.25 195.157 Q2078.38 195.157 2076.5 195.573 Q2074.65 195.99 2072.71 196.87 L2072.71 179.509 Z" fill="#000000" fill-rule="evenodd" fill-opacity="1" /><path clip-path="url(#clip420)" d="M2115.67 183.583 L2103.86 202.032 L2115.67 202.032 L2115.67 183.583 M2114.44 179.509 L2120.32 179.509 L2120.32 202.032 L2125.25 202.032 L2125.25 205.921 L2120.32 205.921 L2120.32 214.069 L2115.67 214.069 L2115.67 205.921 L2100.07 205.921 L2100.07 201.407 L2114.44 179.509 Z" fill="#000000" fill-rule="evenodd" fill-opacity="1" /><path clip-path="url(#clip420)" d="M2145.83 183.583 L2134.03 202.032 L2145.83 202.032 L2145.83 183.583 M2144.6 179.509 L2150.48 179.509 L2150.48 202.032 L2155.41 202.032 L2155.41 205.921 L2150.48 205.921 L2150.48 214.069 L2145.83 214.069 L2145.83 205.921 L2130.23 205.921 L2130.23 201.407 L2144.6 179.509 Z" fill="#000000" fill-rule="evenodd" fill-opacity="1" /><path clip-path="url(#clip420)" d="M2177.31 195.434 Q2180.67 196.152 2182.54 198.421 Q2184.44 200.689 2184.44 204.022 Q2184.44 209.138 2180.92 211.939 Q2177.41 214.74 2170.92 214.74 Q2168.75 214.74 2166.43 214.3 Q2164.14 213.883 2161.69 213.027 L2161.69 208.513 Q2163.63 209.647 2165.95 210.226 Q2168.26 210.805 2170.78 210.805 Q2175.18 210.805 2177.47 209.069 Q2179.79 207.333 2179.79 204.022 Q2179.79 200.967 2177.64 199.254 Q2175.51 197.518 2171.69 197.518 L2167.66 197.518 L2167.66 193.675 L2171.87 193.675 Q2175.32 193.675 2177.15 192.309 Q2178.98 190.921 2178.98 188.328 Q2178.98 185.666 2177.08 184.254 Q2175.21 182.819 2171.69 182.819 Q2169.77 182.819 2167.57 183.235 Q2165.37 183.652 2162.73 184.532 L2162.73 180.365 Q2165.39 179.624 2167.71 179.254 Q2170.04 178.884 2172.1 178.884 Q2177.43 178.884 2180.53 181.314 Q2183.63 183.722 2183.63 187.842 Q2183.63 190.712 2181.99 192.703 Q2180.34 194.671 2177.31 195.434 Z" fill="#000000" fill-rule="evenodd" fill-opacity="1" /><path clip-path="url(#clip420)" d="M2207.47 195.434 Q2210.83 196.152 2212.71 198.421 Q2214.6 200.689 2214.6 204.022 Q2214.6 209.138 2211.09 211.939 Q2207.57 214.74 2201.09 214.74 Q2198.91 214.74 2196.59 214.3 Q2194.3 213.883 2191.85 213.027 L2191.85 208.513 Q2193.79 209.647 2196.11 210.226 Q2198.42 210.805 2200.95 210.805 Q2205.34 210.805 2207.64 209.069 Q2209.95 207.333 2209.95 204.022 Q2209.95 200.967 2207.8 199.254 Q2205.67 197.518 2201.85 197.518 L2197.82 197.518 L2197.82 193.675 L2202.03 193.675 Q2205.48 193.675 2207.31 192.309 Q2209.14 190.921 2209.14 188.328 Q2209.14 185.666 2207.24 184.254 Q2205.37 182.819 2201.85 182.819 Q2199.93 182.819 2197.73 183.235 Q2195.53 183.652 2192.89 184.532 L2192.89 180.365 Q2195.55 179.624 2197.87 179.254 Q2200.21 178.884 2202.27 178.884 Q2207.59 178.884 2210.69 181.314 Q2213.79 183.722 2213.79 187.842 Q2213.79 190.712 2212.15 192.703 Q2210.51 194.671 2207.47 195.434 Z" fill="#000000" fill-rule="evenodd" fill-opacity="1" /><path clip-path="url(#clip420)" d="M2222.2 178.097 L2225.9 178.097 Q2229.37 183.56 2231.09 188.791 Q2232.82 194.022 2232.82 199.184 Q2232.82 204.37 2231.09 209.624 Q2229.37 214.879 2225.9 220.319 L2222.2 220.319 Q2225.28 215.018 2226.78 209.786 Q2228.31 204.532 2228.31 199.184 Q2228.31 193.837 2226.78 188.629 Q2225.28 183.421 2222.2 178.097 Z" fill="#000000" fill-rule="evenodd" fill-opacity="1" /><polyline clip-path="url(#clip420)" style="stroke:#0000ff; stroke-linecap:butt; stroke-linejoin:round; stroke-width:4; stroke-opacity:1; fill:none" stroke-dasharray="16, 10" points="
  1612.18,248.629 1756.11,248.629 
  "/>
<path clip-path="url(#clip420)" d="M1802.34 232.483 L1802.34 237.043 Q1799.68 235.77 1797.31 235.145 Q1794.95 234.52 1792.75 234.52 Q1788.93 234.52 1786.85 236.001 Q1784.79 237.483 1784.79 240.214 Q1784.79 242.506 1786.16 243.687 Q1787.55 244.844 1791.39 245.562 L1794.21 246.14 Q1799.44 247.136 1801.92 249.659 Q1804.42 252.159 1804.42 256.372 Q1804.42 261.395 1801.04 263.987 Q1797.68 266.58 1791.18 266.58 Q1788.73 266.58 1785.95 266.024 Q1783.19 265.469 1780.23 264.381 L1780.23 259.566 Q1783.08 261.163 1785.81 261.973 Q1788.54 262.784 1791.18 262.784 Q1795.18 262.784 1797.36 261.21 Q1799.54 259.636 1799.54 256.719 Q1799.54 254.173 1797.96 252.737 Q1796.41 251.302 1792.85 250.585 L1790 250.029 Q1784.77 248.987 1782.43 246.765 Q1780.09 244.543 1780.09 240.585 Q1780.09 236.001 1783.31 233.362 Q1786.55 230.724 1792.22 230.724 Q1794.65 230.724 1797.18 231.163 Q1799.7 231.603 1802.34 232.483 Z" fill="#000000" fill-rule="evenodd" fill-opacity="1" /><path clip-path="url(#clip420)" d="M1815.74 232.622 L1815.74 239.983 L1824.51 239.983 L1824.51 243.293 L1815.74 243.293 L1815.74 257.367 Q1815.74 260.538 1816.6 261.441 Q1817.48 262.344 1820.14 262.344 L1824.51 262.344 L1824.51 265.909 L1820.14 265.909 Q1815.21 265.909 1813.33 264.08 Q1811.46 262.228 1811.46 257.367 L1811.46 243.293 L1808.33 243.293 L1808.33 239.983 L1811.46 239.983 L1811.46 232.622 L1815.74 232.622 Z" fill="#000000" fill-rule="evenodd" fill-opacity="1" /><path clip-path="url(#clip420)" d="M1841.9 252.876 Q1836.74 252.876 1834.74 254.057 Q1832.75 255.237 1832.75 258.085 Q1832.75 260.353 1834.24 261.696 Q1835.74 263.015 1838.31 263.015 Q1841.85 263.015 1843.98 260.515 Q1846.13 257.992 1846.13 253.825 L1846.13 252.876 L1841.9 252.876 M1850.39 251.117 L1850.39 265.909 L1846.13 265.909 L1846.13 261.973 Q1844.68 264.335 1842.5 265.469 Q1840.32 266.58 1837.18 266.58 Q1833.19 266.58 1830.83 264.358 Q1828.49 262.112 1828.49 258.362 Q1828.49 253.987 1831.41 251.765 Q1834.35 249.543 1840.16 249.543 L1846.13 249.543 L1846.13 249.126 Q1846.13 246.187 1844.19 244.589 Q1842.27 242.969 1838.77 242.969 Q1836.55 242.969 1834.44 243.501 Q1832.34 244.034 1830.39 245.099 L1830.39 241.163 Q1832.73 240.261 1834.93 239.821 Q1837.13 239.358 1839.21 239.358 Q1844.84 239.358 1847.62 242.274 Q1850.39 245.191 1850.39 251.117 Z" fill="#000000" fill-rule="evenodd" fill-opacity="1" /><path clip-path="url(#clip420)" d="M1863.38 232.622 L1863.38 239.983 L1872.15 239.983 L1872.15 243.293 L1863.38 243.293 L1863.38 257.367 Q1863.38 260.538 1864.24 261.441 Q1865.12 262.344 1867.78 262.344 L1872.15 262.344 L1872.15 265.909 L1867.78 265.909 Q1862.85 265.909 1860.97 264.08 Q1859.1 262.228 1859.1 257.367 L1859.1 243.293 L1855.97 243.293 L1855.97 239.983 L1859.1 239.983 L1859.1 232.622 L1863.38 232.622 Z" fill="#000000" fill-rule="evenodd" fill-opacity="1" /><path clip-path="url(#clip420)" d="M1899.93 251.881 L1899.93 253.964 L1880.35 253.964 Q1880.62 258.362 1882.99 260.677 Q1885.37 262.969 1889.61 262.969 Q1892.06 262.969 1894.35 262.367 Q1896.67 261.765 1898.93 260.561 L1898.93 264.589 Q1896.64 265.561 1894.24 266.071 Q1891.83 266.58 1889.35 266.58 Q1883.15 266.58 1879.51 262.969 Q1875.9 259.358 1875.9 253.2 Q1875.9 246.835 1879.33 243.108 Q1882.78 239.358 1888.61 239.358 Q1893.84 239.358 1896.87 242.737 Q1899.93 246.094 1899.93 251.881 M1895.67 250.631 Q1895.62 247.136 1893.7 245.052 Q1891.8 242.969 1888.66 242.969 Q1885.09 242.969 1882.94 244.983 Q1880.81 246.997 1880.49 250.654 L1895.67 250.631 Z" fill="#000000" fill-rule="evenodd" fill-opacity="1" /><path clip-path="url(#clip420)" d="M1944.17 251.881 L1944.17 253.964 L1924.58 253.964 Q1924.86 258.362 1927.22 260.677 Q1929.61 262.969 1933.84 262.969 Q1936.3 262.969 1938.59 262.367 Q1940.9 261.765 1943.17 260.561 L1943.17 264.589 Q1940.88 265.561 1938.47 266.071 Q1936.06 266.58 1933.59 266.58 Q1927.38 266.58 1923.75 262.969 Q1920.14 259.358 1920.14 253.2 Q1920.14 246.835 1923.56 243.108 Q1927.01 239.358 1932.85 239.358 Q1938.08 239.358 1941.11 242.737 Q1944.17 246.094 1944.17 251.881 M1939.91 250.631 Q1939.86 247.136 1937.94 245.052 Q1936.04 242.969 1932.89 242.969 Q1929.33 242.969 1927.17 244.983 Q1925.05 246.997 1924.72 250.654 L1939.91 250.631 Z" fill="#000000" fill-rule="evenodd" fill-opacity="1" /><path clip-path="url(#clip420)" d="M1948.1 239.983 L1952.61 239.983 L1960.72 261.742 L1968.82 239.983 L1973.33 239.983 L1963.61 265.909 L1957.82 265.909 L1948.1 239.983 Z" fill="#000000" fill-rule="evenodd" fill-opacity="1" /><path clip-path="url(#clip420)" d="M2001.39 251.881 L2001.39 253.964 L1981.8 253.964 Q1982.08 258.362 1984.44 260.677 Q1986.83 262.969 1991.06 262.969 Q1993.52 262.969 1995.81 262.367 Q1998.12 261.765 2000.39 260.561 L2000.39 264.589 Q1998.1 265.561 1995.69 266.071 Q1993.29 266.58 1990.81 266.58 Q1984.61 266.58 1980.97 262.969 Q1977.36 259.358 1977.36 253.2 Q1977.36 246.835 1980.79 243.108 Q1984.23 239.358 1990.07 239.358 Q1995.3 239.358 1998.33 242.737 Q2001.39 246.094 2001.39 251.881 M1997.13 250.631 Q1997.08 247.136 1995.16 245.052 Q1993.26 242.969 1990.11 242.969 Q1986.55 242.969 1984.4 244.983 Q1982.27 246.997 1981.94 250.654 L1997.13 250.631 Z" fill="#000000" fill-rule="evenodd" fill-opacity="1" /><path clip-path="url(#clip420)" d="M2029.93 250.261 L2029.93 265.909 L2025.67 265.909 L2025.67 250.399 Q2025.67 246.719 2024.23 244.89 Q2022.8 243.062 2019.93 243.062 Q2016.48 243.062 2014.49 245.261 Q2012.5 247.46 2012.5 251.256 L2012.5 265.909 L2008.22 265.909 L2008.22 239.983 L2012.5 239.983 L2012.5 244.011 Q2014.03 241.673 2016.09 240.515 Q2018.17 239.358 2020.88 239.358 Q2025.35 239.358 2027.64 242.136 Q2029.93 244.89 2029.93 250.261 Z" fill="#000000" fill-rule="evenodd" fill-opacity="1" /><path clip-path="url(#clip420)" d="M2042.64 232.622 L2042.64 239.983 L2051.41 239.983 L2051.41 243.293 L2042.64 243.293 L2042.64 257.367 Q2042.64 260.538 2043.49 261.441 Q2044.37 262.344 2047.04 262.344 L2051.41 262.344 L2051.41 265.909 L2047.04 265.909 Q2042.1 265.909 2040.23 264.08 Q2038.35 262.228 2038.35 257.367 L2038.35 243.293 L2035.23 243.293 L2035.23 239.983 L2038.35 239.983 L2038.35 232.622 L2042.64 232.622 Z" fill="#000000" fill-rule="evenodd" fill-opacity="1" /><path clip-path="url(#clip420)" d="M2067.24 229.937 Q2064.14 235.261 2062.64 240.469 Q2061.13 245.677 2061.13 251.024 Q2061.13 256.372 2062.64 261.626 Q2064.16 266.858 2067.24 272.159 L2063.54 272.159 Q2060.07 266.719 2058.33 261.464 Q2056.62 256.21 2056.62 251.024 Q2056.62 245.862 2058.33 240.631 Q2060.04 235.4 2063.54 229.937 L2067.24 229.937 Z" fill="#000000" fill-rule="evenodd" fill-opacity="1" /><path clip-path="url(#clip420)" d="M2092.04 240.747 L2092.04 244.774 Q2090.23 243.849 2088.29 243.386 Q2086.34 242.923 2084.26 242.923 Q2081.09 242.923 2079.49 243.895 Q2077.91 244.867 2077.91 246.811 Q2077.91 248.293 2079.05 249.149 Q2080.18 249.983 2083.61 250.747 L2085.07 251.071 Q2089.6 252.043 2091.5 253.825 Q2093.42 255.585 2093.42 258.756 Q2093.42 262.367 2090.55 264.473 Q2087.71 266.58 2082.71 266.58 Q2080.62 266.58 2078.35 266.163 Q2076.11 265.77 2073.61 264.96 L2073.61 260.561 Q2075.97 261.788 2078.26 262.413 Q2080.55 263.015 2082.8 263.015 Q2085.81 263.015 2087.43 261.997 Q2089.05 260.955 2089.05 259.08 Q2089.05 257.344 2087.87 256.418 Q2086.71 255.492 2082.75 254.636 L2081.27 254.288 Q2077.31 253.455 2075.55 251.742 Q2073.79 250.006 2073.79 246.997 Q2073.79 243.339 2076.39 241.349 Q2078.98 239.358 2083.75 239.358 Q2086.11 239.358 2088.19 239.705 Q2090.28 240.052 2092.04 240.747 Z" fill="#000000" fill-rule="evenodd" fill-opacity="1" /><path clip-path="url(#clip420)" d="M2099.54 229.937 L2103.24 229.937 Q2106.71 235.4 2108.42 240.631 Q2110.16 245.862 2110.16 251.024 Q2110.16 256.21 2108.42 261.464 Q2106.71 266.719 2103.24 272.159 L2099.54 272.159 Q2102.61 266.858 2104.12 261.626 Q2105.65 256.372 2105.65 251.024 Q2105.65 245.677 2104.12 240.469 Q2102.61 235.261 2099.54 229.937 Z" fill="#000000" fill-rule="evenodd" fill-opacity="1" /></svg>
