<?xml version="1.0" encoding="utf-8"?>
<svg xmlns="http://www.w3.org/2000/svg" xmlns:xlink="http://www.w3.org/1999/xlink" width="600" height="400" viewBox="0 0 2400 1600">
<defs>
  <clipPath id="clip620">
    <rect x="0" y="0" width="2400" height="1600"/>
  </clipPath>
</defs>
<path clip-path="url(#clip620)" d="
M0 1600 L2400 1600 L2400 0 L0 0  Z
  " fill="#ffffff" fill-rule="evenodd" fill-opacity="1"/>
<defs>
  <clipPath id="clip621">
    <rect x="480" y="0" width="1681" height="1600"/>
  </clipPath>
</defs>
<path clip-path="url(#clip620)" d="
M193.936 1423.18 L2352.76 1423.18 L2352.76 47.2441 L193.936 47.2441  Z
  " fill="#ffffff" fill-rule="evenodd" fill-opacity="1"/>
<defs>
  <clipPath id="clip622">
    <rect x="193" y="47" width="2160" height="1377"/>
  </clipPath>
</defs>
<polyline clip-path="url(#clip622)" style="stroke:#000000; stroke-linecap:round; stroke-linejoin:round; stroke-width:2; stroke-opacity:0.1; fill:none" points="
  255.035,1423.18 255.035,47.2441 
  "/>
<polyline clip-path="url(#clip622)" style="stroke:#000000; stroke-linecap:round; stroke-linejoin:round; stroke-width:2; stroke-opacity:0.1; fill:none" points="
  764.19,1423.18 764.19,47.2441 
  "/>
<polyline clip-path="url(#clip622)" style="stroke:#000000; stroke-linecap:round; stroke-linejoin:round; stroke-width:2; stroke-opacity:0.1; fill:none" points="
  1273.35,1423.18 1273.35,47.2441 
  "/>
<polyline clip-path="url(#clip622)" style="stroke:#000000; stroke-linecap:round; stroke-linejoin:round; stroke-width:2; stroke-opacity:0.1; fill:none" points="
  1782.5,1423.18 1782.5,47.2441 
  "/>
<polyline clip-path="url(#clip622)" style="stroke:#000000; stroke-linecap:round; stroke-linejoin:round; stroke-width:2; stroke-opacity:0.1; fill:none" points="
  2291.66,1423.18 2291.66,47.2441 
  "/>
<polyline clip-path="url(#clip620)" style="stroke:#000000; stroke-linecap:round; stroke-linejoin:round; stroke-width:4; stroke-opacity:1; fill:none" points="
  193.936,1423.18 2352.76,1423.18 
  "/>
<polyline clip-path="url(#clip620)" style="stroke:#000000; stroke-linecap:round; stroke-linejoin:round; stroke-width:4; stroke-opacity:1; fill:none" points="
  255.035,1423.18 255.035,1404.28 
  "/>
<polyline clip-path="url(#clip620)" style="stroke:#000000; stroke-linecap:round; stroke-linejoin:round; stroke-width:4; stroke-opacity:1; fill:none" points="
  764.19,1423.18 764.19,1404.28 
  "/>
<polyline clip-path="url(#clip620)" style="stroke:#000000; stroke-linecap:round; stroke-linejoin:round; stroke-width:4; stroke-opacity:1; fill:none" points="
  1273.35,1423.18 1273.35,1404.28 
  "/>
<polyline clip-path="url(#clip620)" style="stroke:#000000; stroke-linecap:round; stroke-linejoin:round; stroke-width:4; stroke-opacity:1; fill:none" points="
  1782.5,1423.18 1782.5,1404.28 
  "/>
<polyline clip-path="url(#clip620)" style="stroke:#000000; stroke-linecap:round; stroke-linejoin:round; stroke-width:4; stroke-opacity:1; fill:none" points="
  2291.66,1423.18 2291.66,1404.28 
  "/>
<path clip-path="url(#clip620)" d="M255.035 1454.1 Q251.424 1454.1 249.595 1457.66 Q247.789 1461.2 247.789 1468.33 Q247.789 1475.44 249.595 1479.01 Q251.424 1482.55 255.035 1482.55 Q258.669 1482.55 260.474 1479.01 Q262.303 1475.44 262.303 1468.33 Q262.303 1461.2 260.474 1457.66 Q258.669 1454.1 255.035 1454.1 M255.035 1450.39 Q260.845 1450.39 263.9 1455 Q266.979 1459.58 266.979 1468.33 Q266.979 1477.06 263.9 1481.67 Q260.845 1486.25 255.035 1486.25 Q249.225 1486.25 246.146 1481.67 Q243.09 1477.06 243.09 1468.33 Q243.09 1459.58 246.146 1455 Q249.225 1450.39 255.035 1450.39 Z" fill="#000000" fill-rule="evenodd" fill-opacity="1" /><path clip-path="url(#clip620)" d="M758.843 1481.64 L775.162 1481.64 L775.162 1485.58 L753.218 1485.58 L753.218 1481.64 Q755.88 1478.89 760.463 1474.26 Q765.07 1469.61 766.25 1468.27 Q768.496 1465.74 769.375 1464.01 Q770.278 1462.25 770.278 1460.56 Q770.278 1457.8 768.334 1456.07 Q766.413 1454.33 763.311 1454.33 Q761.112 1454.33 758.658 1455.09 Q756.227 1455.86 753.45 1457.41 L753.45 1452.69 Q756.274 1451.55 758.727 1450.97 Q761.181 1450.39 763.218 1450.39 Q768.588 1450.39 771.783 1453.08 Q774.977 1455.77 774.977 1460.26 Q774.977 1462.39 774.167 1464.31 Q773.38 1466.2 771.274 1468.8 Q770.695 1469.47 767.593 1472.69 Q764.491 1475.88 758.843 1481.64 Z" fill="#000000" fill-rule="evenodd" fill-opacity="1" /><path clip-path="url(#clip620)" d="M1276.36 1455.09 L1264.55 1473.54 L1276.36 1473.54 L1276.36 1455.09 M1275.13 1451.02 L1281.01 1451.02 L1281.01 1473.54 L1285.94 1473.54 L1285.94 1477.43 L1281.01 1477.43 L1281.01 1485.58 L1276.36 1485.58 L1276.36 1477.43 L1260.75 1477.43 L1260.75 1472.92 L1275.13 1451.02 Z" fill="#000000" fill-rule="evenodd" fill-opacity="1" /><path clip-path="url(#clip620)" d="M1782.91 1466.44 Q1779.76 1466.44 1777.91 1468.59 Q1776.08 1470.74 1776.08 1474.49 Q1776.08 1478.22 1777.91 1480.39 Q1779.76 1482.55 1782.91 1482.55 Q1786.05 1482.55 1787.88 1480.39 Q1789.74 1478.22 1789.74 1474.49 Q1789.74 1470.74 1787.88 1468.59 Q1786.05 1466.44 1782.91 1466.44 M1792.19 1451.78 L1792.19 1456.04 Q1790.43 1455.21 1788.62 1454.77 Q1786.84 1454.33 1785.08 1454.33 Q1780.45 1454.33 1778 1457.45 Q1775.57 1460.58 1775.22 1466.9 Q1776.59 1464.89 1778.65 1463.82 Q1780.71 1462.73 1783.18 1462.73 Q1788.39 1462.73 1791.4 1465.9 Q1794.43 1469.05 1794.43 1474.49 Q1794.43 1479.82 1791.29 1483.03 Q1788.14 1486.25 1782.91 1486.25 Q1776.91 1486.25 1773.74 1481.67 Q1770.57 1477.06 1770.57 1468.33 Q1770.57 1460.14 1774.46 1455.28 Q1778.35 1450.39 1784.9 1450.39 Q1786.66 1450.39 1788.44 1450.74 Q1790.24 1451.09 1792.19 1451.78 Z" fill="#000000" fill-rule="evenodd" fill-opacity="1" /><path clip-path="url(#clip620)" d="M2291.66 1469.17 Q2288.32 1469.17 2286.4 1470.95 Q2284.5 1472.73 2284.5 1475.86 Q2284.5 1478.98 2286.4 1480.77 Q2288.32 1482.55 2291.66 1482.55 Q2294.99 1482.55 2296.91 1480.77 Q2298.83 1478.96 2298.83 1475.86 Q2298.83 1472.73 2296.91 1470.95 Q2295.01 1469.17 2291.66 1469.17 M2286.98 1467.18 Q2283.97 1466.44 2282.28 1464.38 Q2280.62 1462.32 2280.62 1459.35 Q2280.62 1455.21 2283.56 1452.8 Q2286.52 1450.39 2291.66 1450.39 Q2296.82 1450.39 2299.76 1452.8 Q2302.7 1455.21 2302.7 1459.35 Q2302.7 1462.32 2301.01 1464.38 Q2299.34 1466.44 2296.36 1467.18 Q2299.74 1467.96 2301.61 1470.26 Q2303.51 1472.55 2303.51 1475.86 Q2303.51 1480.88 2300.43 1483.57 Q2297.37 1486.25 2291.66 1486.25 Q2285.94 1486.25 2282.86 1483.57 Q2279.81 1480.88 2279.81 1475.86 Q2279.81 1472.55 2281.7 1470.26 Q2283.6 1467.96 2286.98 1467.18 M2285.27 1459.79 Q2285.27 1462.48 2286.94 1463.98 Q2288.62 1465.49 2291.66 1465.49 Q2294.67 1465.49 2296.36 1463.98 Q2298.07 1462.48 2298.07 1459.79 Q2298.07 1457.11 2296.36 1455.6 Q2294.67 1454.1 2291.66 1454.1 Q2288.62 1454.1 2286.94 1455.6 Q2285.27 1457.11 2285.27 1459.79 Z" fill="#000000" fill-rule="evenodd" fill-opacity="1" /><path clip-path="url(#clip620)" d="M1221.66 1522.27 L1221.66 1532.4 L1233.72 1532.4 L1233.72 1536.95 L1221.66 1536.95 L1221.66 1556.3 Q1221.66 1560.66 1222.83 1561.9 Q1224.04 1563.14 1227.7 1563.14 L1233.72 1563.14 L1233.72 1568.04 L1227.7 1568.04 Q1220.92 1568.04 1218.35 1565.53 Q1215.77 1562.98 1215.77 1556.3 L1215.77 1536.95 L1211.47 1536.95 L1211.47 1532.4 L1215.77 1532.4 L1215.77 1522.27 L1221.66 1522.27 Z" fill="#000000" fill-rule="evenodd" fill-opacity="1" /><path clip-path="url(#clip620)" d="M1261.6 1518.52 L1275.1 1518.52 L1275.1 1523.07 L1267.46 1523.07 L1267.46 1572.09 L1275.1 1572.09 L1275.1 1576.64 L1261.6 1576.64 L1261.6 1518.52 Z" fill="#000000" fill-rule="evenodd" fill-opacity="1" /><path clip-path="url(#clip620)" d="M1310.3 1533.45 L1310.3 1538.98 Q1307.82 1537.71 1305.14 1537.07 Q1302.47 1536.44 1299.6 1536.44 Q1295.24 1536.44 1293.05 1537.77 Q1290.88 1539.11 1290.88 1541.79 Q1290.88 1543.82 1292.44 1545 Q1294 1546.15 1298.71 1547.2 L1300.72 1547.64 Q1306.96 1548.98 1309.57 1551.43 Q1312.21 1553.85 1312.21 1558.21 Q1312.21 1563.17 1308.26 1566.07 Q1304.35 1568.97 1297.47 1568.97 Q1294.61 1568.97 1291.49 1568.39 Q1288.4 1567.85 1284.96 1566.74 L1284.96 1560.69 Q1288.21 1562.38 1291.36 1563.24 Q1294.51 1564.07 1297.6 1564.07 Q1301.74 1564.07 1303.97 1562.66 Q1306.19 1561.23 1306.19 1558.65 Q1306.19 1556.27 1304.57 1554.99 Q1302.98 1553.72 1297.54 1552.54 L1295.5 1552.07 Q1290.06 1550.92 1287.64 1548.56 Q1285.22 1546.18 1285.22 1542.04 Q1285.22 1537.01 1288.78 1534.27 Q1292.35 1531.54 1298.9 1531.54 Q1302.15 1531.54 1305.02 1532.01 Q1307.88 1532.49 1310.3 1533.45 Z" fill="#000000" fill-rule="evenodd" fill-opacity="1" /><path clip-path="url(#clip620)" d="M1335.22 1518.52 L1335.22 1576.64 L1321.73 1576.64 L1321.73 1572.09 L1329.33 1572.09 L1329.33 1523.07 L1321.73 1523.07 L1321.73 1518.52 L1335.22 1518.52 Z" fill="#000000" fill-rule="evenodd" fill-opacity="1" /><polyline clip-path="url(#clip622)" style="stroke:#000000; stroke-linecap:round; stroke-linejoin:round; stroke-width:2; stroke-opacity:0.1; fill:none" points="
  193.936,1237.72 2352.76,1237.72 
  "/>
<polyline clip-path="url(#clip622)" style="stroke:#000000; stroke-linecap:round; stroke-linejoin:round; stroke-width:2; stroke-opacity:0.1; fill:none" points="
  193.936,1006.69 2352.76,1006.69 
  "/>
<polyline clip-path="url(#clip622)" style="stroke:#000000; stroke-linecap:round; stroke-linejoin:round; stroke-width:2; stroke-opacity:0.1; fill:none" points="
  193.936,775.663 2352.76,775.663 
  "/>
<polyline clip-path="url(#clip622)" style="stroke:#000000; stroke-linecap:round; stroke-linejoin:round; stroke-width:2; stroke-opacity:0.1; fill:none" points="
  193.936,544.634 2352.76,544.634 
  "/>
<polyline clip-path="url(#clip622)" style="stroke:#000000; stroke-linecap:round; stroke-linejoin:round; stroke-width:2; stroke-opacity:0.1; fill:none" points="
  193.936,313.605 2352.76,313.605 
  "/>
<polyline clip-path="url(#clip622)" style="stroke:#000000; stroke-linecap:round; stroke-linejoin:round; stroke-width:2; stroke-opacity:0.1; fill:none" points="
  193.936,82.5763 2352.76,82.5763 
  "/>
<polyline clip-path="url(#clip620)" style="stroke:#000000; stroke-linecap:round; stroke-linejoin:round; stroke-width:4; stroke-opacity:1; fill:none" points="
  193.936,1423.18 193.936,47.2441 
  "/>
<polyline clip-path="url(#clip620)" style="stroke:#000000; stroke-linecap:round; stroke-linejoin:round; stroke-width:4; stroke-opacity:1; fill:none" points="
  193.936,1237.72 212.834,1237.72 
  "/>
<polyline clip-path="url(#clip620)" style="stroke:#000000; stroke-linecap:round; stroke-linejoin:round; stroke-width:4; stroke-opacity:1; fill:none" points="
  193.936,1006.69 212.834,1006.69 
  "/>
<polyline clip-path="url(#clip620)" style="stroke:#000000; stroke-linecap:round; stroke-linejoin:round; stroke-width:4; stroke-opacity:1; fill:none" points="
  193.936,775.663 212.834,775.663 
  "/>
<polyline clip-path="url(#clip620)" style="stroke:#000000; stroke-linecap:round; stroke-linejoin:round; stroke-width:4; stroke-opacity:1; fill:none" points="
  193.936,544.634 212.834,544.634 
  "/>
<polyline clip-path="url(#clip620)" style="stroke:#000000; stroke-linecap:round; stroke-linejoin:round; stroke-width:4; stroke-opacity:1; fill:none" points="
  193.936,313.605 212.834,313.605 
  "/>
<polyline clip-path="url(#clip620)" style="stroke:#000000; stroke-linecap:round; stroke-linejoin:round; stroke-width:4; stroke-opacity:1; fill:none" points="
  193.936,82.5763 212.834,82.5763 
  "/>
<path clip-path="url(#clip620)" d="M50.9921 1238.17 L80.6679 1238.17 L80.6679 1242.11 L50.9921 1242.11 L50.9921 1238.17 Z" fill="#000000" fill-rule="evenodd" fill-opacity="1" /><path clip-path="url(#clip620)" d="M91.5706 1251.07 L99.2095 1251.07 L99.2095 1224.7 L90.8993 1226.37 L90.8993 1222.11 L99.1632 1220.44 L103.839 1220.44 L103.839 1251.07 L111.478 1251.07 L111.478 1255 L91.5706 1255 L91.5706 1251.07 Z" fill="#000000" fill-rule="evenodd" fill-opacity="1" /><path clip-path="url(#clip620)" d="M120.922 1249.12 L125.807 1249.12 L125.807 1255 L120.922 1255 L120.922 1249.12 Z" fill="#000000" fill-rule="evenodd" fill-opacity="1" /><path clip-path="url(#clip620)" d="M145.992 1223.52 Q142.381 1223.52 140.552 1227.08 Q138.746 1230.63 138.746 1237.75 Q138.746 1244.86 140.552 1248.43 Q142.381 1251.97 145.992 1251.97 Q149.626 1251.97 151.431 1248.43 Q153.26 1244.86 153.26 1237.75 Q153.26 1230.63 151.431 1227.08 Q149.626 1223.52 145.992 1223.52 M145.992 1219.82 Q151.802 1219.82 154.857 1224.42 Q157.936 1229.01 157.936 1237.75 Q157.936 1246.48 154.857 1251.09 Q151.802 1255.67 145.992 1255.67 Q140.181 1255.67 137.103 1251.09 Q134.047 1246.48 134.047 1237.75 Q134.047 1229.01 137.103 1224.42 Q140.181 1219.82 145.992 1219.82 Z" fill="#000000" fill-rule="evenodd" fill-opacity="1" /><path clip-path="url(#clip620)" d="M51.9875 1007.14 L81.6633 1007.14 L81.6633 1011.08 L51.9875 1011.08 L51.9875 1007.14 Z" fill="#000000" fill-rule="evenodd" fill-opacity="1" /><path clip-path="url(#clip620)" d="M101.756 992.49 Q98.1447 992.49 96.316 996.055 Q94.5104 999.597 94.5104 1006.73 Q94.5104 1013.83 96.316 1017.4 Q98.1447 1020.94 101.756 1020.94 Q105.39 1020.94 107.196 1017.4 Q109.024 1013.83 109.024 1006.73 Q109.024 999.597 107.196 996.055 Q105.39 992.49 101.756 992.49 M101.756 988.786 Q107.566 988.786 110.621 993.393 Q113.7 997.976 113.7 1006.73 Q113.7 1015.45 110.621 1020.06 Q107.566 1024.64 101.756 1024.64 Q95.9456 1024.64 92.8669 1020.06 Q89.8114 1015.45 89.8114 1006.73 Q89.8114 997.976 92.8669 993.393 Q95.9456 988.786 101.756 988.786 Z" fill="#000000" fill-rule="evenodd" fill-opacity="1" /><path clip-path="url(#clip620)" d="M121.918 1018.09 L126.802 1018.09 L126.802 1023.97 L121.918 1023.97 L121.918 1018.09 Z" fill="#000000" fill-rule="evenodd" fill-opacity="1" /><path clip-path="url(#clip620)" d="M137.033 989.411 L155.39 989.411 L155.39 993.347 L141.316 993.347 L141.316 1001.82 Q142.334 1001.47 143.353 1001.31 Q144.371 1001.12 145.39 1001.12 Q151.177 1001.12 154.556 1004.3 Q157.936 1007.47 157.936 1012.88 Q157.936 1018.46 154.464 1021.56 Q150.992 1024.64 144.672 1024.64 Q142.496 1024.64 140.228 1024.27 Q137.982 1023.9 135.575 1023.16 L135.575 1018.46 Q137.658 1019.6 139.881 1020.15 Q142.103 1020.71 144.58 1020.71 Q148.584 1020.71 150.922 1018.6 Q153.26 1016.49 153.26 1012.88 Q153.26 1009.27 150.922 1007.17 Q148.584 1005.06 144.58 1005.06 Q142.705 1005.06 140.83 1005.48 Q138.978 1005.89 137.033 1006.77 L137.033 989.411 Z" fill="#000000" fill-rule="evenodd" fill-opacity="1" /><path clip-path="url(#clip620)" d="M100.76 761.461 Q97.1493 761.461 95.3206 765.026 Q93.515 768.568 93.515 775.697 Q93.515 782.804 95.3206 786.369 Q97.1493 789.91 100.76 789.91 Q104.395 789.91 106.2 786.369 Q108.029 782.804 108.029 775.697 Q108.029 768.568 106.2 765.026 Q104.395 761.461 100.76 761.461 M100.76 757.758 Q106.571 757.758 109.626 762.364 Q112.705 766.947 112.705 775.697 Q112.705 784.424 109.626 789.031 Q106.571 793.614 100.76 793.614 Q94.9502 793.614 91.8715 789.031 Q88.816 784.424 88.816 775.697 Q88.816 766.947 91.8715 762.364 Q94.9502 757.758 100.76 757.758 Z" fill="#000000" fill-rule="evenodd" fill-opacity="1" /><path clip-path="url(#clip620)" d="M120.922 787.063 L125.807 787.063 L125.807 792.943 L120.922 792.943 L120.922 787.063 Z" fill="#000000" fill-rule="evenodd" fill-opacity="1" /><path clip-path="url(#clip620)" d="M145.992 761.461 Q142.381 761.461 140.552 765.026 Q138.746 768.568 138.746 775.697 Q138.746 782.804 140.552 786.369 Q142.381 789.91 145.992 789.91 Q149.626 789.91 151.431 786.369 Q153.26 782.804 153.26 775.697 Q153.26 768.568 151.431 765.026 Q149.626 761.461 145.992 761.461 M145.992 757.758 Q151.802 757.758 154.857 762.364 Q157.936 766.947 157.936 775.697 Q157.936 784.424 154.857 789.031 Q151.802 793.614 145.992 793.614 Q140.181 793.614 137.103 789.031 Q134.047 784.424 134.047 775.697 Q134.047 766.947 137.103 762.364 Q140.181 757.758 145.992 757.758 Z" fill="#000000" fill-rule="evenodd" fill-opacity="1" /><path clip-path="url(#clip620)" d="M101.756 530.433 Q98.1447 530.433 96.316 533.997 Q94.5104 537.539 94.5104 544.669 Q94.5104 551.775 96.316 555.34 Q98.1447 558.882 101.756 558.882 Q105.39 558.882 107.196 555.34 Q109.024 551.775 109.024 544.669 Q109.024 537.539 107.196 533.997 Q105.39 530.433 101.756 530.433 M101.756 526.729 Q107.566 526.729 110.621 531.335 Q113.7 535.919 113.7 544.669 Q113.7 553.395 110.621 558.002 Q107.566 562.585 101.756 562.585 Q95.9456 562.585 92.8669 558.002 Q89.8114 553.395 89.8114 544.669 Q89.8114 535.919 92.8669 531.335 Q95.9456 526.729 101.756 526.729 Z" fill="#000000" fill-rule="evenodd" fill-opacity="1" /><path clip-path="url(#clip620)" d="M121.918 556.034 L126.802 556.034 L126.802 561.914 L121.918 561.914 L121.918 556.034 Z" fill="#000000" fill-rule="evenodd" fill-opacity="1" /><path clip-path="url(#clip620)" d="M137.033 527.354 L155.39 527.354 L155.39 531.289 L141.316 531.289 L141.316 539.761 Q142.334 539.414 143.353 539.252 Q144.371 539.067 145.39 539.067 Q151.177 539.067 154.556 542.238 Q157.936 545.409 157.936 550.826 Q157.936 556.405 154.464 559.506 Q150.992 562.585 144.672 562.585 Q142.496 562.585 140.228 562.215 Q137.982 561.844 135.575 561.104 L135.575 556.405 Q137.658 557.539 139.881 558.094 Q142.103 558.65 144.58 558.65 Q148.584 558.65 150.922 556.544 Q153.26 554.437 153.26 550.826 Q153.26 547.215 150.922 545.108 Q148.584 543.002 144.58 543.002 Q142.705 543.002 140.83 543.419 Q138.978 543.835 137.033 544.715 L137.033 527.354 Z" fill="#000000" fill-rule="evenodd" fill-opacity="1" /><path clip-path="url(#clip620)" d="M91.5706 326.95 L99.2095 326.95 L99.2095 300.584 L90.8993 302.251 L90.8993 297.992 L99.1632 296.325 L103.839 296.325 L103.839 326.95 L111.478 326.95 L111.478 330.885 L91.5706 330.885 L91.5706 326.95 Z" fill="#000000" fill-rule="evenodd" fill-opacity="1" /><path clip-path="url(#clip620)" d="M120.922 325.006 L125.807 325.006 L125.807 330.885 L120.922 330.885 L120.922 325.006 Z" fill="#000000" fill-rule="evenodd" fill-opacity="1" /><path clip-path="url(#clip620)" d="M145.992 299.404 Q142.381 299.404 140.552 302.969 Q138.746 306.51 138.746 313.64 Q138.746 320.746 140.552 324.311 Q142.381 327.853 145.992 327.853 Q149.626 327.853 151.431 324.311 Q153.26 320.746 153.26 313.64 Q153.26 306.51 151.431 302.969 Q149.626 299.404 145.992 299.404 M145.992 295.7 Q151.802 295.7 154.857 300.307 Q157.936 304.89 157.936 313.64 Q157.936 322.367 154.857 326.973 Q151.802 331.556 145.992 331.556 Q140.181 331.556 137.103 326.973 Q134.047 322.367 134.047 313.64 Q134.047 304.89 137.103 300.307 Q140.181 295.7 145.992 295.7 Z" fill="#000000" fill-rule="evenodd" fill-opacity="1" /><path clip-path="url(#clip620)" d="M92.566 95.9211 L100.205 95.9211 L100.205 69.5555 L91.8947 71.2222 L91.8947 66.963 L100.159 65.2963 L104.834 65.2963 L104.834 95.9211 L112.473 95.9211 L112.473 99.8563 L92.566 99.8563 L92.566 95.9211 Z" fill="#000000" fill-rule="evenodd" fill-opacity="1" /><path clip-path="url(#clip620)" d="M121.918 93.9767 L126.802 93.9767 L126.802 99.8563 L121.918 99.8563 L121.918 93.9767 Z" fill="#000000" fill-rule="evenodd" fill-opacity="1" /><path clip-path="url(#clip620)" d="M137.033 65.2963 L155.39 65.2963 L155.39 69.2315 L141.316 69.2315 L141.316 77.7037 Q142.334 77.3564 143.353 77.1944 Q144.371 77.0092 145.39 77.0092 Q151.177 77.0092 154.556 80.1805 Q157.936 83.3518 157.936 88.7684 Q157.936 94.3471 154.464 97.4489 Q150.992 100.528 144.672 100.528 Q142.496 100.528 140.228 100.157 Q137.982 99.7869 135.575 99.0461 L135.575 94.3471 Q137.658 95.4813 139.881 96.0369 Q142.103 96.5924 144.58 96.5924 Q148.584 96.5924 150.922 94.486 Q153.26 92.3795 153.26 88.7684 Q153.26 85.1573 150.922 83.0508 Q148.584 80.9444 144.58 80.9444 Q142.705 80.9444 140.83 81.361 Q138.978 81.7777 137.033 82.6573 L137.033 65.2963 Z" fill="#000000" fill-rule="evenodd" fill-opacity="1" /><polyline clip-path="url(#clip622)" style="stroke:#009af9; stroke-linecap:round; stroke-linejoin:round; stroke-width:4; stroke-opacity:1; fill:none" points="
  255.035,544.634 257.58,544.549 260.126,544.275 262.672,543.81 265.218,543.152 267.764,542.289 270.309,541.252 272.855,539.992 275.401,538.544 277.947,536.906 
  280.492,535.071 283.038,533.037 285.584,530.805 288.13,528.374 290.676,525.75 293.221,522.934 295.767,519.932 298.313,516.748 300.859,513.385 303.404,509.837 
  305.95,506.093 308.496,502.159 311.042,498.054 313.588,493.793 316.133,489.381 318.679,484.812 321.225,480.063 323.771,475.144 326.316,470.087 328.862,464.905 
  331.408,459.595 333.954,454.129 336.5,448.516 339.045,442.795 341.591,436.975 344.137,431.044 346.683,424.977 349.228,418.812 351.774,412.572 354.32,406.251 
  356.866,399.826 359.412,393.321 361.957,386.761 364.503,380.146 367.049,373.46 369.595,366.719 372.14,359.946 374.686,353.139 377.232,346.294 379.778,339.426 
  382.324,332.546 384.869,325.656 387.415,318.761 389.961,311.875 392.507,304.996 395.052,298.131 397.598,291.302 400.144,284.504 402.69,277.733 405.236,271.008 
  407.781,264.354 410.327,257.75 412.873,251.193 415.419,244.724 417.964,238.35 420.51,232.042 423.056,225.807 425.602,219.702 428.148,213.709 430.693,207.796 
  433.239,201.989 435.785,196.35 438.331,190.83 440.876,185.407 443.422,180.131 445.968,175.046 448.514,170.088 451.06,165.246 453.605,160.594 456.151,156.145 
  458.697,151.829 461.243,147.653 463.788,143.705 466.334,139.964 468.88,136.369 471.426,132.935 473.972,129.753 476.517,126.789 479.063,123.988 481.609,121.362 
  484.155,118.992 486.7,116.866 489.246,114.928 491.792,113.178 494.338,111.652 496.884,110.395 499.429,109.375 501.975,108.576 504.521,108.001 507.067,107.655 
  509.612,107.57 512.158,107.726 514.704,108.051 517.25,108.543 519.796,109.204 522.341,110.022 524.887,111.01 527.433,112.17 529.979,113.499 532.524,115.005 
  535.07,116.694 537.616,118.56 540.162,120.588 542.708,122.767 545.253,125.103 547.799,127.644 550.345,130.368 552.891,133.231 555.437,136.227 557.982,139.407 
  560.528,142.781 563.074,146.282 565.62,149.902 568.165,153.7 570.711,157.673 573.257,161.755 575.803,165.949 578.349,170.32 580.894,174.83 583.44,179.431 
  585.986,184.144 588.532,189.019 591.077,193.995 593.623,199.048 596.169,204.217 598.715,209.512 601.261,214.877 603.806,220.312 606.352,225.855 608.898,231.48 
  611.444,237.155 613.989,242.894 616.535,248.715 619.081,254.582 621.627,260.485 624.173,266.439 626.718,272.438 629.264,278.458 631.81,284.5 634.356,290.569 
  636.901,296.647 639.447,302.731 641.993,308.818 644.539,314.897 647.085,320.963 649.63,327.018 652.176,333.046 654.722,339.036 657.268,344.998 659.813,350.928 
  662.359,356.793 664.905,362.602 667.451,368.369 669.997,374.072 672.542,379.677 675.088,385.216 677.634,390.696 680.18,396.07 682.725,401.33 685.271,406.513 
  687.817,411.613 690.363,416.567 692.909,421.398 695.454,426.141 698,430.772 700.546,435.226 703.092,439.55 705.637,443.771 708.183,447.852 710.729,451.737 
  713.275,455.478 715.821,459.099 718.366,462.565 720.912,465.816 723.458,468.903 726.004,471.853 728.549,474.644 731.095,477.214 733.641,479.586 736.187,481.796 
  738.733,483.843 741.278,485.699 743.824,487.325 746.37,488.745 748.916,489.978 751.461,491.022 754.007,491.867 756.553,492.501 759.099,492.917 761.645,493.113 
  764.19,493.054 766.736,492.86 769.282,492.525 771.828,492.049 774.373,491.422 776.919,490.669 779.465,489.753 782.011,488.697 784.557,487.498 787.102,486.156 
  789.648,484.671 792.194,483.046 794.74,481.277 797.285,479.353 799.831,477.272 802.377,475.048 804.923,472.698 807.469,470.225 810.014,467.612 812.56,464.832 
  815.106,461.919 817.652,458.898 820.197,455.765 822.743,452.481 825.289,449.056 827.835,445.531 830.381,441.911 832.926,438.16 835.472,434.275 838.018,430.304 
  840.564,426.25 843.109,422.079 845.655,417.795 848.201,413.438 850.747,409.012 853.293,404.481 855.838,399.862 858.384,395.189 860.93,390.456 863.476,385.635 
  866.021,380.755 868.567,375.836 871.113,370.866 873.659,365.835 876.205,360.77 878.75,355.679 881.296,350.551 883.842,345.392 886.388,340.22 888.933,335.033 
  891.479,329.833 894.025,324.63 896.571,319.427 899.117,314.227 901.662,309.043 904.208,303.876 906.754,298.722 909.3,293.597 911.845,288.514 914.391,283.46 
  916.937,278.438 919.483,273.476 922.029,268.573 924.574,263.711 927.12,258.904 929.666,254.19 932.212,249.543 934.757,244.949 937.303,240.444 939.849,236.051 
  942.395,231.732 944.941,227.484 947.486,223.361 950.032,219.359 952.578,215.437 955.124,211.609 957.669,207.938 960.215,204.391 962.761,200.934 965.307,197.597 
  967.853,194.437 970.398,191.406 972.944,188.479 975.49,185.691 978.036,183.095 980.581,180.638 983.127,178.3 985.673,176.109 988.219,174.122 990.765,172.295 
  993.31,170.603 995.856,169.059 998.402,167.703 1000.95,166.544 1003.49,165.552 1006.04,164.722 1008.59,164.062 1011.13,163.584 1013.68,163.293 1016.22,163.202 
  1018.77,163.289 1021.31,163.489 1023.86,163.801 1026.41,164.229 1028.95,164.766 1031.5,165.428 1034.04,166.199 1036.59,167.081 1039.13,168.07 1041.68,169.169 
  1044.23,170.398 1046.77,171.765 1049.32,173.236 1051.86,174.798 1054.41,176.482 1056.95,178.317 1059.5,180.245 1062.05,182.255 1064.59,184.409 1067.14,186.686 
  1069.68,189.034 1072.23,191.488 1074.78,194.087 1077.32,196.761 1079.87,199.509 1082.41,202.397 1084.96,205.374 1087.5,208.41 1090.05,211.557 1092.6,214.808 
  1095.14,218.113 1097.69,221.495 1100.23,224.987 1102.78,228.533 1105.32,232.132 1107.87,235.827 1110.42,239.582 1112.96,243.377 1115.51,247.238 1118.05,251.165 
  1120.6,255.125 1123.15,259.126 1125.69,263.184 1128.24,267.273 1130.78,271.386 1133.33,275.535 1135.87,279.713 1138.42,283.904 1140.97,288.113 1143.51,292.338 
  1146.06,296.568 1148.6,300.802 1151.15,305.037 1153.69,309.265 1156.24,313.486 1158.79,317.698 1161.33,321.884 1163.88,326.05 1166.42,330.199 1168.97,334.314 
  1171.51,338.384 1174.06,342.425 1176.61,346.434 1179.15,350.379 1181.7,354.271 1184.24,358.125 1186.79,361.922 1189.34,365.633 1191.88,369.287 1194.43,372.89 
  1196.97,376.406 1199.52,379.825 1202.06,383.182 1204.61,386.471 1207.16,389.644 1209.7,392.717 1212.25,395.719 1214.79,398.634 1217.34,401.412 1219.88,404.085 
  1222.43,406.676 1224.98,409.164 1227.52,411.502 1230.07,413.724 1232.61,415.851 1235.16,417.868 1237.71,419.728 1240.25,421.451 1242.8,423.064 1245.34,424.563 
  1247.89,425.919 1250.43,427.113 1252.98,428.167 1255.53,429.093 1258.07,429.886 1260.62,430.535 1263.16,431.033 1265.71,431.375 1268.25,431.561 1270.8,431.559 
  1273.35,431.473 1275.89,431.305 1278.44,431.054 1280.98,430.724 1283.53,430.304 1286.07,429.81 1288.62,429.233 1291.17,428.569 1293.71,427.818 1296.26,426.987 
  1298.8,426.084 1301.35,425.098 1303.9,424.002 1306.44,422.826 1308.99,421.589 1311.53,420.266 1314.08,418.832 1316.62,417.336 1319.17,415.78 1321.72,414.108 
  1324.26,412.364 1326.81,410.571 1329.35,408.679 1331.9,406.702 1334.44,404.682 1336.99,402.582 1339.54,400.39 1342.08,398.156 1344.63,395.86 1347.17,393.472 
  1349.72,391.043 1352.27,388.566 1354.81,386.004 1357.36,383.399 1359.9,380.758 1362.45,378.045 1364.99,375.287 1367.54,372.501 1370.09,369.662 1372.63,366.776 
  1375.18,363.867 1377.72,360.924 1380.27,357.938 1382.81,354.932 1385.36,351.907 1387.91,348.849 1390.45,345.774 1393,342.689 1395.54,339.586 1398.09,336.473 
  1400.63,333.355 1403.18,330.233 1405.73,327.109 1408.27,323.99 1410.82,320.873 1413.36,317.766 1415.91,314.675 1418.46,311.594 1421,308.529 1423.55,305.493 
  1426.09,302.48 1428.64,299.486 1431.18,296.528 1433.73,293.612 1436.28,290.723 1438.82,287.866 1441.37,285.067 1443.91,282.315 1446.46,279.597 1449,276.931 
  1451.55,274.338 1454.1,271.794 1456.64,269.293 1459.19,266.867 1461.73,264.52 1464.28,262.228 1466.83,259.991 1469.37,257.847 1471.92,255.788 1474.46,253.79 
  1477.01,251.859 1479.55,250.033 1482.1,248.301 1484.65,246.639 1487.19,245.052 1489.74,243.574 1492.28,242.204 1494.83,240.917 1497.37,239.712 1499.92,238.606 
  1502.47,237.623 1505.01,236.745 1507.56,235.963 1510.1,235.278 1512.65,234.697 1515.19,234.229 1517.74,233.879 1520.29,233.643 1522.83,233.521 1525.38,233.529 
  1527.92,233.584 1530.47,233.682 1533.02,233.825 1535.56,234.015 1538.11,234.247 1540.65,234.529 1543.2,234.854 1545.74,235.22 1548.29,235.623 1550.84,236.09 
  1553.38,236.598 1555.93,237.135 1558.47,237.741 1561.02,238.389 1563.56,239.063 1566.11,239.812 1568.66,240.592 1571.2,241.407 1573.75,242.294 1576.29,243.2 
  1578.84,244.159 1581.39,245.172 1583.93,246.201 1586.48,247.299 1589.02,248.428 1591.57,249.585 1594.11,250.806 1596.66,252.044 1599.21,253.325 1601.75,254.654 
  1604.3,255.997 1606.84,257.392 1609.39,258.817 1611.93,260.26 1614.48,261.752 1617.03,263.265 1619.57,264.798 1622.12,266.373 1624.66,267.963 1627.21,269.573 
  1629.75,271.217 1632.3,272.872 1634.85,274.545 1637.39,276.244 1639.94,277.952 1642.48,279.673 1645.03,281.412 1647.58,283.158 1650.12,284.912 1652.67,286.677 
  1655.21,288.445 1657.76,290.217 1660.3,291.992 1662.85,293.766 1665.4,295.54 1667.94,297.31 1670.49,299.074 1673.03,300.833 1675.58,302.584 1678.12,304.319 
  1680.67,306.046 1683.22,307.762 1685.76,309.456 1688.31,311.132 1690.85,312.795 1693.4,314.436 1695.95,316.045 1698.49,317.636 1701.04,319.206 1703.58,320.739 
  1706.13,322.24 1708.67,323.718 1711.22,325.165 1713.77,326.565 1716.31,327.931 1718.86,329.269 1721.4,330.566 1723.95,331.808 1726.49,333.014 1729.04,334.185 
  1731.59,335.308 1734.13,336.37 1736.68,337.389 1739.22,338.368 1741.77,339.297 1744.31,340.16 1746.86,340.968 1749.41,341.73 1751.95,342.442 1754.5,343.092 
  1757.04,343.674 1759.59,344.196 1762.14,344.663 1764.68,345.072 1767.23,345.42 1769.77,345.703 1772.32,345.917 1774.86,346.065 1777.41,346.146 1779.96,346.151 
  1782.5,346.15 1785.05,346.15 1787.59,346.15 1790.14,346.149 1792.68,346.149 1795.23,346.149 1797.78,346.148 1800.32,346.148 1802.87,346.148 1805.41,346.147 
  1807.96,346.147 1810.51,346.147 1813.05,346.146 1815.6,346.146 1818.14,346.146 1820.69,346.145 1823.23,346.145 1825.78,346.145 1828.33,346.144 1830.87,346.144 
  1833.42,346.144 1835.96,346.143 1838.51,346.143 1841.05,346.143 1843.6,346.142 1846.15,346.142 1848.69,346.142 1851.24,346.141 1853.78,346.141 1856.33,346.141 
  1858.87,346.14 1861.42,346.14 1863.97,346.14 1866.51,346.139 1869.06,346.139 1871.6,346.139 1874.15,346.138 1876.7,346.138 1879.24,346.138 1881.79,346.137 
  1884.33,346.137 1886.88,346.137 1889.42,346.136 1891.97,346.136 1894.52,346.136 1897.06,346.135 1899.61,346.135 1902.15,346.135 1904.7,346.134 1907.24,346.134 
  1909.79,346.134 1912.34,346.133 1914.88,346.133 1917.43,346.133 1919.97,346.132 1922.52,346.132 1925.07,346.132 1927.61,346.131 1930.16,346.131 1932.7,346.131 
  1935.25,346.13 1937.79,346.13 1940.34,346.13 1942.89,346.129 1945.43,346.129 1947.98,346.129 1950.52,346.128 1953.07,346.128 1955.61,346.128 1958.16,346.127 
  1960.71,346.127 1963.25,346.127 1965.8,346.126 1968.34,346.126 1970.89,346.126 1973.43,346.125 1975.98,346.125 1978.53,346.125 1981.07,346.124 1983.62,346.124 
  1986.16,346.124 1988.71,346.123 1991.26,346.123 1993.8,346.123 1996.35,346.122 1998.89,346.122 2001.44,346.122 2003.98,346.121 2006.53,346.121 2009.08,346.121 
  2011.62,346.12 2014.17,346.12 2016.71,346.12 2019.26,346.119 2021.8,346.119 2024.35,346.119 2026.9,346.118 2029.44,346.118 2031.99,346.118 2034.53,346.117 
  2037.08,346.117 2039.63,346.117 2042.17,346.116 2044.72,346.116 2047.26,346.116 2049.81,346.115 2052.35,346.115 2054.9,346.115 2057.45,346.114 2059.99,346.114 
  2062.54,346.114 2065.08,346.113 2067.63,346.113 2070.17,346.113 2072.72,346.112 2075.27,346.112 2077.81,346.112 2080.36,346.111 2082.9,346.111 2085.45,346.111 
  2087.99,346.11 2090.54,346.11 2093.09,346.11 2095.63,346.109 2098.18,346.109 2100.72,346.109 2103.27,346.108 2105.82,346.108 2108.36,346.108 2110.91,346.107 
  2113.45,346.107 2116,346.107 2118.54,346.106 2121.09,346.106 2123.64,346.106 2126.18,346.105 2128.73,346.105 2131.27,346.105 2133.82,346.104 2136.36,346.104 
  2138.91,346.104 2141.46,346.103 2144,346.103 2146.55,346.103 2149.09,346.102 2151.64,346.102 2154.19,346.102 2156.73,346.101 2159.28,346.101 2161.82,346.101 
  2164.37,346.1 2166.91,346.1 2169.46,346.1 2172.01,346.099 2174.55,346.099 2177.1,346.099 2179.64,346.098 2182.19,346.098 2184.73,346.098 2187.28,346.097 
  2189.83,346.097 2192.37,346.097 2194.92,346.096 2197.46,346.096 2200.01,346.095 2202.55,346.095 2205.1,346.095 2207.65,346.094 2210.19,346.094 2212.74,346.094 
  2215.28,346.093 2217.83,346.093 2220.38,346.093 2222.92,346.092 2225.47,346.092 2228.01,346.092 2230.56,346.091 2233.1,346.091 2235.65,346.091 2238.2,346.09 
  2240.74,346.09 2243.29,346.09 2245.83,346.089 2248.38,346.089 2250.92,346.089 2253.47,346.088 2256.02,346.088 2258.56,346.088 2261.11,346.087 2263.65,346.087 
  2266.2,346.087 2268.75,346.086 2271.29,346.086 2273.84,346.086 2276.38,346.085 2278.93,346.085 2281.47,346.085 2284.02,346.084 2286.57,346.084 2289.11,346.084 
  2291.66,346.083 
  "/>
<polyline clip-path="url(#clip622)" style="stroke:#e26f46; stroke-linecap:round; stroke-linejoin:round; stroke-width:4; stroke-opacity:1; fill:none" points="
  255.035,775.663 257.58,755.949 260.126,736.085 262.672,716.101 265.218,696.026 267.764,675.887 270.309,655.72 272.855,635.551 275.401,615.407 277.947,595.316 
  280.492,575.306 283.038,555.405 285.584,535.642 288.13,516.043 290.676,496.634 293.221,477.436 295.767,458.471 298.313,439.755 300.859,421.311 303.404,403.17 
  305.95,385.386 308.496,367.98 311.042,350.944 313.588,334.271 316.133,317.966 318.679,302.066 321.225,286.674 323.771,271.8 326.316,257.381 328.862,243.388 
  331.408,229.858 333.954,216.94 336.5,204.642 339.045,192.845 341.591,181.514 344.137,170.749 346.683,160.736 349.228,151.328 351.774,142.411 354.32,134.039 
  356.866,126.467 359.412,119.593 361.957,113.236 364.503,107.425 367.049,102.446 369.595,98.2162 372.14,94.5122 374.686,91.37 377.232,89.1064 379.778,87.5894 
  382.324,86.5908 384.869,86.1857 387.415,86.7053 389.961,87.923 392.507,89.6451 395.052,92.0173 397.598,95.3212 400.144,99.25 402.69,103.674 405.236,108.825 
  407.781,114.854 410.327,121.431 412.873,128.509 415.419,136.385 417.964,145.033 420.51,154.163 423.056,163.815 425.602,174.302 428.148,185.426 430.693,196.987 
  433.239,209.108 435.785,222.023 438.331,235.456 440.876,249.298 443.422,263.732 445.968,278.86 448.514,294.415 451.06,310.36 453.605,326.898 456.151,344.011 
  458.697,361.485 461.243,379.328 463.788,397.726 466.334,416.592 468.88,435.769 471.426,455.283 473.972,475.281 476.517,495.668 479.063,516.329 481.609,537.28 
  484.155,558.622 486.7,580.309 489.246,602.248 491.792,624.43 494.338,646.889 496.884,669.661 499.429,692.693 501.975,715.958 504.521,739.455 507.067,763.182 
  509.612,783.907 512.158,801.183 514.704,818.58 517.25,836.071 519.796,853.633 522.341,871.239 524.887,888.868 527.433,906.498 529.979,924.105 532.524,941.664 
  535.07,959.144 537.616,976.522 540.162,993.785 542.708,1010.92 545.253,1027.92 547.799,1044.69 550.345,1061.23 552.891,1077.57 555.437,1093.71 557.982,1109.56 
  560.528,1125.04 563.074,1140.26 565.62,1155.24 568.165,1169.82 570.711,1183.95 573.257,1197.79 575.803,1211.32 578.349,1224.32 580.894,1236.85 583.44,1249.07 
  585.986,1260.88 588.532,1272.05 591.077,1282.77 593.623,1293.15 596.169,1302.98 598.715,1312.14 601.261,1320.89 603.806,1329.24 606.352,1336.87 608.898,1343.9 
  611.444,1350.53 613.989,1356.64 616.535,1361.96 619.081,1366.76 621.627,1371.14 624.173,1374.84 626.718,1377.79 629.264,1380.29 631.81,1382.32 634.356,1383.52 
  636.901,1384.09 639.447,1384.24 641.993,1383.79 644.539,1382.5 647.085,1380.7 649.63,1378.46 652.176,1375.49 654.722,1371.78 657.268,1367.64 659.813,1363 
  662.359,1357.54 664.905,1351.49 667.451,1345.04 669.997,1338 672.542,1330.18 675.088,1321.9 677.634,1313.2 680.18,1303.83 682.725,1293.82 685.271,1283.4 
  687.817,1272.55 690.363,1261.01 692.909,1248.94 695.454,1236.51 698,1223.64 700.546,1210.13 703.092,1196.17 705.637,1181.89 708.183,1167.17 710.729,1151.89 
  713.275,1136.23 715.821,1120.26 718.366,1103.9 720.912,1087.06 723.458,1069.88 726.004,1052.41 728.549,1034.64 731.095,1016.46 733.641,997.955 736.187,979.189 
  738.733,960.172 741.278,940.876 743.824,921.264 746.37,901.391 748.916,881.289 751.461,860.966 754.007,840.419 756.553,819.645 759.099,798.644 761.645,777.421 
  764.19,762.28 766.736,747.631 769.282,732.888 771.828,718.07 774.373,703.194 776.919,688.286 779.465,673.361 782.011,658.44 784.557,643.543 787.102,628.688 
  789.648,613.892 792.194,599.174 794.74,584.552 797.285,570.057 799.831,555.717 802.377,541.538 804.923,527.518 807.469,513.665 810.014,500.02 812.56,486.654 
  815.106,473.539 817.652,460.641 820.197,447.975 822.743,435.654 825.289,423.691 827.835,411.998 830.381,400.568 832.926,389.536 835.472,378.946 838.018,368.667 
  840.564,358.686 843.109,349.169 845.655,340.148 848.201,331.461 850.747,323.109 853.293,315.305 855.838,308.014 858.384,301.064 860.93,294.501 863.476,288.573 
  866.021,283.131 868.567,278.036 871.113,273.412 873.659,269.464 876.205,265.956 878.75,262.812 881.296,260.251 883.842,258.336 886.388,256.816 888.933,255.703 
  891.479,255.277 894.025,255.41 896.571,255.913 899.117,256.902 901.662,258.609 904.208,260.779 906.754,263.321 909.3,266.45 911.845,270.233 914.391,274.411 
  916.937,278.987 919.483,284.229 922.029,290.012 924.574,296.149 927.12,302.739 929.666,309.997 932.212,317.689 934.757,325.72 937.303,334.266 939.849,343.403 
  942.395,352.898 944.941,362.735 947.486,373.12 950.032,383.992 952.578,395.173 955.124,406.703 957.669,418.769 960.215,431.225 962.761,443.96 965.307,457.043 
  967.853,470.607 970.398,484.493 972.944,498.633 975.49,513.099 978.036,527.978 980.581,543.137 983.127,558.526 985.673,574.19 988.219,590.206 990.765,606.479 
  993.31,622.961 995.856,639.663 998.402,656.629 1000.95,673.853 1003.49,691.283 1006.04,708.906 1008.59,726.723 1011.13,744.739 1013.68,762.952 1016.22,779.273 
  1018.77,790.925 1021.31,802.666 1023.86,814.478 1026.41,826.349 1028.95,838.26 1031.5,850.201 1034.04,862.154 1036.59,874.105 1039.13,886.042 1041.68,897.955 
  1044.23,909.819 1046.77,921.608 1049.32,933.324 1051.86,944.973 1054.41,956.513 1056.95,967.892 1059.5,979.155 1062.05,990.313 1064.59,1001.26 1067.14,1012 
  1069.68,1022.62 1072.23,1033.04 1074.78,1043.15 1077.32,1053.09 1079.87,1062.85 1082.41,1072.25 1084.96,1081.39 1087.5,1090.36 1090.05,1098.97 1092.6,1107.22 
  1095.14,1115.27 1097.69,1123.03 1100.23,1130.31 1102.78,1137.34 1105.32,1144.12 1107.87,1150.41 1110.42,1156.33 1112.96,1162.02 1115.51,1167.28 1118.05,1172.05 
  1120.6,1176.56 1123.15,1180.73 1125.69,1184.33 1128.24,1187.59 1130.78,1190.57 1133.33,1193.03 1135.87,1195.01 1138.42,1196.7 1140.97,1198.01 1143.51,1198.73 
  1146.06,1199.08 1148.6,1199.14 1151.15,1198.68 1153.69,1197.71 1156.24,1196.44 1158.79,1194.79 1161.33,1192.56 1163.88,1189.94 1166.42,1187.03 1168.97,1183.63 
  1171.51,1179.71 1174.06,1175.49 1176.61,1170.93 1179.15,1165.82 1181.7,1160.3 1184.24,1154.5 1186.79,1148.31 1189.34,1141.59 1191.88,1134.54 1194.43,1127.22 
  1196.97,1119.46 1199.52,1111.25 1202.06,1102.77 1204.61,1094 1207.16,1084.78 1209.7,1075.2 1212.25,1065.37 1214.79,1055.26 1217.34,1044.72 1219.88,1033.88 
  1222.43,1022.82 1224.98,1011.48 1227.52,999.772 1230.07,987.797 1232.61,975.614 1235.16,963.197 1237.71,950.466 1240.25,937.484 1242.8,924.307 1245.34,910.937 
  1247.89,897.337 1250.43,883.492 1252.98,869.452 1255.53,855.239 1258.07,840.853 1260.62,826.291 1263.16,811.552 1265.71,796.641 1268.25,781.565 1270.8,770.511 
  1273.35,762.104 1275.89,753.635 1278.44,745.114 1280.98,736.553 1283.53,727.957 1286.07,719.342 1288.62,710.714 1291.17,702.084 1293.71,693.463 1296.26,684.86 
  1298.8,676.28 1301.35,667.735 1303.9,659.254 1306.44,650.835 1308.99,642.466 1311.53,634.177 1314.08,626.014 1316.62,617.931 1319.17,609.927 1321.72,602.098 
  1324.26,594.398 1326.81,586.782 1329.35,579.361 1331.9,572.129 1334.44,564.996 1336.99,558.06 1339.54,551.376 1342.08,544.812 1344.63,538.437 1347.17,532.369 
  1349.72,526.454 1352.27,520.712 1354.81,515.32 1357.36,510.126 1359.9,505.093 1362.45,500.42 1364.99,496.009 1367.54,491.759 1370.09,487.839 1372.63,484.259 
  1375.18,480.855 1377.72,477.728 1380.27,475.009 1382.81,472.506 1385.36,470.223 1387.91,468.37 1390.45,466.803 1393,465.434 1395.54,464.434 1398.09,463.817 
  1400.63,463.411 1403.18,463.281 1405.73,463.597 1408.27,464.18 1410.82,464.98 1413.36,466.177 1415.91,467.742 1418.46,469.523 1421,471.587 1423.55,474.089 
  1426.09,476.859 1428.64,479.847 1431.18,483.203 1433.73,486.931 1436.28,490.879 1438.82,495.075 1441.37,499.679 1443.91,504.569 1446.46,509.663 1449,515.05 
  1451.55,520.813 1454.1,526.807 1456.64,533.004 1459.19,539.52 1461.73,546.355 1464.28,553.391 1466.83,560.631 1469.37,568.185 1471.92,576.008 1474.46,584.013 
  1477.01,592.215 1479.55,600.702 1482.1,609.427 1484.65,618.321 1487.19,627.391 1489.74,636.702 1492.28,646.233 1494.83,655.927 1497.37,665.774 1499.92,675.798 
  1502.47,686.026 1505.01,696.419 1507.56,706.954 1510.1,717.626 1512.65,728.441 1515.19,739.399 1517.74,750.498 1520.29,761.727 1522.83,773.078 1525.38,779.226 
  1527.92,783.817 1530.47,788.442 1533.02,793.096 1535.56,797.775 1538.11,802.473 1540.65,807.186 1543.2,811.908 1545.74,816.636 1548.29,821.364 1550.84,826.087 
  1553.38,830.798 1555.93,835.503 1558.47,840.178 1561.02,844.826 1563.56,849.46 1566.11,854.033 1568.66,858.574 1571.2,863.083 1573.75,867.504 1576.29,871.899 
  1578.84,876.219 1581.39,880.449 1583.93,884.652 1586.48,888.724 1589.02,892.73 1591.57,896.676 1594.11,900.464 1596.66,904.208 1599.21,907.833 1601.75,911.311 
  1604.3,914.745 1606.84,918.002 1609.39,921.139 1611.93,924.211 1614.48,927.069 1617.03,929.829 1619.57,932.493 1622.12,934.929 1624.66,937.274 1627.21,939.495 
  1629.75,941.482 1632.3,943.376 1634.85,945.131 1637.39,946.643 1639.94,948.056 1642.48,949.325 1645.03,950.342 1647.58,951.246 1650.12,952.014 1652.67,952.521 
  1655.21,952.894 1657.76,953.146 1660.3,953.137 1662.85,952.964 1665.4,952.678 1667.94,952.16 1670.49,951.434 1673.03,950.594 1675.58,949.57 1678.12,948.298 
  1680.67,946.894 1683.22,945.353 1685.76,943.56 1688.31,941.593 1690.85,939.508 1693.4,937.229 1695.95,934.721 1698.49,932.083 1701.04,929.31 1703.58,926.31 
  1706.13,923.133 1708.67,919.838 1711.22,916.387 1713.77,912.716 1716.31,908.902 1718.86,904.972 1721.4,900.878 1723.95,896.589 1726.49,892.171 1729.04,887.641 
  1731.59,882.958 1734.13,878.098 1736.68,873.118 1739.22,868.032 1741.77,862.818 1744.31,857.445 1746.86,851.952 1749.41,846.36 1751.95,840.665 1754.5,834.85 
  1757.04,828.911 1759.59,822.872 1762.14,816.742 1764.68,810.525 1767.23,804.217 1769.77,797.821 1772.32,791.338 1774.86,784.774 1777.41,778.137 1779.96,775.629 
  1782.5,775.629 1785.05,775.629 1787.59,775.629 1790.14,775.629 1792.68,775.629 1795.23,775.629 1797.78,775.629 1800.32,775.629 1802.87,775.629 1805.41,775.629 
  1807.96,775.629 1810.51,775.629 1813.05,775.629 1815.6,775.629 1818.14,775.629 1820.69,775.629 1823.23,775.629 1825.78,775.629 1828.33,775.629 1830.87,775.629 
  1833.42,775.629 1835.96,775.629 1838.51,775.629 1841.05,775.629 1843.6,775.629 1846.15,775.629 1848.69,775.629 1851.24,775.629 1853.78,775.629 1856.33,775.629 
  1858.87,775.629 1861.42,775.629 1863.97,775.629 1866.51,775.629 1869.06,775.629 1871.6,775.629 1874.15,775.629 1876.7,775.629 1879.24,775.629 1881.79,775.629 
  1884.33,775.629 1886.88,775.629 1889.42,775.629 1891.97,775.629 1894.52,775.629 1897.06,775.629 1899.61,775.629 1902.15,775.629 1904.7,775.629 1907.24,775.629 
  1909.79,775.629 1912.34,775.629 1914.88,775.629 1917.43,775.629 1919.97,775.629 1922.52,775.629 1925.07,775.629 1927.61,775.629 1930.16,775.629 1932.7,775.629 
  1935.25,775.629 1937.79,775.629 1940.34,775.629 1942.89,775.629 1945.43,775.629 1947.98,775.629 1950.52,775.629 1953.07,775.629 1955.61,775.629 1958.16,775.629 
  1960.71,775.629 1963.25,775.629 1965.8,775.629 1968.34,775.629 1970.89,775.629 1973.43,775.629 1975.98,775.629 1978.53,775.629 1981.07,775.629 1983.62,775.629 
  1986.16,775.629 1988.71,775.629 1991.26,775.629 1993.8,775.629 1996.35,775.629 1998.89,775.629 2001.44,775.629 2003.98,775.629 2006.53,775.629 2009.08,775.629 
  2011.62,775.629 2014.17,775.629 2016.71,775.629 2019.26,775.629 2021.8,775.629 2024.35,775.629 2026.9,775.629 2029.44,775.629 2031.99,775.629 2034.53,775.629 
  2037.08,775.629 2039.63,775.629 2042.17,775.629 2044.72,775.629 2047.26,775.629 2049.81,775.629 2052.35,775.629 2054.9,775.629 2057.45,775.629 2059.99,775.629 
  2062.54,775.629 2065.08,775.629 2067.63,775.629 2070.17,775.629 2072.72,775.629 2075.27,775.629 2077.81,775.629 2080.36,775.629 2082.9,775.629 2085.45,775.629 
  2087.99,775.629 2090.54,775.629 2093.09,775.629 2095.63,775.629 2098.18,775.629 2100.72,775.629 2103.27,775.629 2105.82,775.629 2108.36,775.629 2110.91,775.629 
  2113.45,775.629 2116,775.629 2118.54,775.629 2121.09,775.629 2123.64,775.629 2126.18,775.629 2128.73,775.629 2131.27,775.629 2133.82,775.629 2136.36,775.629 
  2138.91,775.629 2141.46,775.629 2144,775.629 2146.55,775.629 2149.09,775.629 2151.64,775.629 2154.19,775.629 2156.73,775.629 2159.28,775.629 2161.82,775.629 
  2164.37,775.629 2166.91,775.629 2169.46,775.629 2172.01,775.629 2174.55,775.629 2177.1,775.629 2179.64,775.629 2182.19,775.629 2184.73,775.629 2187.28,775.629 
  2189.83,775.629 2192.37,775.629 2194.92,775.629 2197.46,775.629 2200.01,775.629 2202.55,775.629 2205.1,775.629 2207.65,775.629 2210.19,775.629 2212.74,775.629 
  2215.28,775.629 2217.83,775.629 2220.38,775.629 2222.92,775.629 2225.47,775.629 2228.01,775.629 2230.56,775.629 2233.1,775.629 2235.65,775.629 2238.2,775.629 
  2240.74,775.629 2243.29,775.629 2245.83,775.629 2248.38,775.629 2250.92,775.629 2253.47,775.629 2256.02,775.629 2258.56,775.629 2261.11,775.629 2263.65,775.629 
  2266.2,775.629 2268.75,775.629 2271.29,775.629 2273.84,775.629 2276.38,775.629 2278.93,775.629 2281.47,775.629 2284.02,775.629 2286.57,775.629 2289.11,775.629 
  2291.66,775.629 
  "/>
<polyline clip-path="url(#clip622)" style="stroke:#0000ff; stroke-linecap:round; stroke-linejoin:round; stroke-width:4; stroke-opacity:1; fill:none" stroke-dasharray="16, 10" points="
  255.035,1384.24 255.035,86.1857 
  "/>
<polyline clip-path="url(#clip622)" style="stroke:#0000ff; stroke-linecap:round; stroke-linejoin:round; stroke-width:4; stroke-opacity:1; fill:none" stroke-dasharray="16, 10" points="
  508.397,1384.24 508.397,86.1857 
  "/>
<polyline clip-path="url(#clip622)" style="stroke:#0000ff; stroke-linecap:round; stroke-linejoin:round; stroke-width:4; stroke-opacity:1; fill:none" stroke-dasharray="16, 10" points="
  761.854,1384.24 761.854,86.1857 
  "/>
<polyline clip-path="url(#clip622)" style="stroke:#0000ff; stroke-linecap:round; stroke-linejoin:round; stroke-width:4; stroke-opacity:1; fill:none" stroke-dasharray="16, 10" points="
  1015.44,1384.24 1015.44,86.1857 
  "/>
<polyline clip-path="url(#clip622)" style="stroke:#0000ff; stroke-linecap:round; stroke-linejoin:round; stroke-width:4; stroke-opacity:1; fill:none" stroke-dasharray="16, 10" points="
  1269.24,1384.24 1269.24,86.1857 
  "/>
<polyline clip-path="url(#clip622)" style="stroke:#0000ff; stroke-linecap:round; stroke-linejoin:round; stroke-width:4; stroke-opacity:1; fill:none" stroke-dasharray="16, 10" points="
  1523.41,1384.24 1523.41,86.1857 
  "/>
<polyline clip-path="url(#clip622)" style="stroke:#0000ff; stroke-linecap:round; stroke-linejoin:round; stroke-width:4; stroke-opacity:1; fill:none" stroke-dasharray="16, 10" points="
  1778.35,1384.24 1778.35,86.1857 
  "/>
<path clip-path="url(#clip620)" d="
M1612.18 1377.32 L2280.8 1377.32 L2280.8 1169.96 L1612.18 1169.96  Z
  " fill="#ffffff" fill-rule="evenodd" fill-opacity="1"/>
<polyline clip-path="url(#clip620)" style="stroke:#000000; stroke-linecap:round; stroke-linejoin:round; stroke-width:4; stroke-opacity:1; fill:none" points="
  1612.18,1377.32 2280.8,1377.32 2280.8,1169.96 1612.18,1169.96 1612.18,1377.32 
  "/>
<polyline clip-path="url(#clip620)" style="stroke:#009af9; stroke-linecap:round; stroke-linejoin:round; stroke-width:4; stroke-opacity:1; fill:none" points="
  1636.17,1221.8 1780.09,1221.8 
  "/>
<path clip-path="url(#clip620)" d="M1824.43 1218.13 Q1826.02 1215.26 1828.25 1213.89 Q1830.47 1212.52 1833.48 1212.52 Q1837.53 1212.52 1839.73 1215.37 Q1841.93 1218.2 1841.93 1223.43 L1841.93 1239.08 L1837.64 1239.08 L1837.64 1223.57 Q1837.64 1219.84 1836.32 1218.03 Q1835.01 1216.23 1832.3 1216.23 Q1828.99 1216.23 1827.07 1218.43 Q1825.14 1220.63 1825.14 1224.42 L1825.14 1239.08 L1820.86 1239.08 L1820.86 1223.57 Q1820.86 1219.82 1819.54 1218.03 Q1818.22 1216.23 1815.47 1216.23 Q1812.2 1216.23 1810.28 1218.45 Q1808.36 1220.65 1808.36 1224.42 L1808.36 1239.08 L1804.08 1239.08 L1804.08 1213.15 L1808.36 1213.15 L1808.36 1217.18 Q1809.82 1214.79 1811.86 1213.66 Q1813.89 1212.52 1816.69 1212.52 Q1819.52 1212.52 1821.49 1213.96 Q1823.48 1215.39 1824.43 1218.13 Z" fill="#000000" fill-rule="evenodd" fill-opacity="1" /><path clip-path="url(#clip620)" d="M1862.2 1226.04 Q1857.04 1226.04 1855.05 1227.22 Q1853.06 1228.4 1853.06 1231.25 Q1853.06 1233.52 1854.54 1234.86 Q1856.05 1236.18 1858.62 1236.18 Q1862.16 1236.18 1864.29 1233.68 Q1866.44 1231.16 1866.44 1226.99 L1866.44 1226.04 L1862.2 1226.04 M1870.7 1224.28 L1870.7 1239.08 L1866.44 1239.08 L1866.44 1235.14 Q1864.98 1237.5 1862.81 1238.64 Q1860.63 1239.75 1857.48 1239.75 Q1853.5 1239.75 1851.14 1237.52 Q1848.8 1235.28 1848.8 1231.53 Q1848.8 1227.15 1851.72 1224.93 Q1854.66 1222.71 1860.47 1222.71 L1866.44 1222.71 L1866.44 1222.29 Q1866.44 1219.35 1864.5 1217.76 Q1862.57 1216.14 1859.08 1216.14 Q1856.86 1216.14 1854.75 1216.67 Q1852.64 1217.2 1850.7 1218.27 L1850.7 1214.33 Q1853.04 1213.43 1855.24 1212.99 Q1857.44 1212.52 1859.52 1212.52 Q1865.14 1212.52 1867.92 1215.44 Q1870.7 1218.36 1870.7 1224.28 Z" fill="#000000" fill-rule="evenodd" fill-opacity="1" /><path clip-path="url(#clip620)" d="M1896 1213.91 L1896 1217.94 Q1894.19 1217.02 1892.25 1216.55 Q1890.31 1216.09 1888.22 1216.09 Q1885.05 1216.09 1883.45 1217.06 Q1881.88 1218.03 1881.88 1219.98 Q1881.88 1221.46 1883.01 1222.32 Q1884.15 1223.15 1887.57 1223.91 L1889.03 1224.24 Q1893.57 1225.21 1895.47 1226.99 Q1897.39 1228.75 1897.39 1231.92 Q1897.39 1235.53 1894.52 1237.64 Q1891.67 1239.75 1886.67 1239.75 Q1884.59 1239.75 1882.32 1239.33 Q1880.07 1238.94 1877.57 1238.13 L1877.57 1233.73 Q1879.94 1234.95 1882.23 1235.58 Q1884.52 1236.18 1886.76 1236.18 Q1889.77 1236.18 1891.39 1235.16 Q1893.01 1234.12 1893.01 1232.25 Q1893.01 1230.51 1891.83 1229.58 Q1890.68 1228.66 1886.72 1227.8 L1885.24 1227.46 Q1881.28 1226.62 1879.52 1224.91 Q1877.76 1223.17 1877.76 1220.16 Q1877.76 1216.51 1880.35 1214.52 Q1882.94 1212.52 1887.71 1212.52 Q1890.07 1212.52 1892.16 1212.87 Q1894.24 1213.22 1896 1213.91 Z" fill="#000000" fill-rule="evenodd" fill-opacity="1" /><path clip-path="url(#clip620)" d="M1920.7 1213.91 L1920.7 1217.94 Q1918.89 1217.02 1916.95 1216.55 Q1915 1216.09 1912.92 1216.09 Q1909.75 1216.09 1908.15 1217.06 Q1906.58 1218.03 1906.58 1219.98 Q1906.58 1221.46 1907.71 1222.32 Q1908.85 1223.15 1912.27 1223.91 L1913.73 1224.24 Q1918.27 1225.21 1920.17 1226.99 Q1922.09 1228.75 1922.09 1231.92 Q1922.09 1235.53 1919.22 1237.64 Q1916.37 1239.75 1911.37 1239.75 Q1909.29 1239.75 1907.02 1239.33 Q1904.77 1238.94 1902.27 1238.13 L1902.27 1233.73 Q1904.63 1234.95 1906.93 1235.58 Q1909.22 1236.18 1911.46 1236.18 Q1914.47 1236.18 1916.09 1235.16 Q1917.71 1234.12 1917.71 1232.25 Q1917.71 1230.51 1916.53 1229.58 Q1915.37 1228.66 1911.42 1227.8 L1909.94 1227.46 Q1905.98 1226.62 1904.22 1224.91 Q1902.46 1223.17 1902.46 1220.16 Q1902.46 1216.51 1905.05 1214.52 Q1907.64 1212.52 1912.41 1212.52 Q1914.77 1212.52 1916.86 1212.87 Q1918.94 1213.22 1920.7 1213.91 Z" fill="#000000" fill-rule="evenodd" fill-opacity="1" /><path clip-path="url(#clip620)" d="M1929.47 1233.2 L1934.36 1233.2 L1934.36 1239.08 L1929.47 1239.08 L1929.47 1233.2 Z" fill="#000000" fill-rule="evenodd" fill-opacity="1" /><path clip-path="url(#clip620)" d="M1960.47 1213.91 L1960.47 1217.94 Q1958.66 1217.02 1956.72 1216.55 Q1954.77 1216.09 1952.69 1216.09 Q1949.52 1216.09 1947.92 1217.06 Q1946.35 1218.03 1946.35 1219.98 Q1946.35 1221.46 1947.48 1222.32 Q1948.62 1223.15 1952.04 1223.91 L1953.5 1224.24 Q1958.04 1225.21 1959.93 1226.99 Q1961.86 1228.75 1961.86 1231.92 Q1961.86 1235.53 1958.99 1237.64 Q1956.14 1239.75 1951.14 1239.75 Q1949.06 1239.75 1946.79 1239.33 Q1944.54 1238.94 1942.04 1238.13 L1942.04 1233.73 Q1944.4 1234.95 1946.69 1235.58 Q1948.99 1236.18 1951.23 1236.18 Q1954.24 1236.18 1955.86 1235.16 Q1957.48 1234.12 1957.48 1232.25 Q1957.48 1230.51 1956.3 1229.58 Q1955.14 1228.66 1951.18 1227.8 L1949.7 1227.46 Q1945.75 1226.62 1943.99 1224.91 Q1942.23 1223.17 1942.23 1220.16 Q1942.23 1216.51 1944.82 1214.52 Q1947.41 1212.52 1952.18 1212.52 Q1954.54 1212.52 1956.62 1212.87 Q1958.71 1213.22 1960.47 1213.91 Z" fill="#000000" fill-rule="evenodd" fill-opacity="1" /><path clip-path="url(#clip620)" d="M1993.94 1203.1 Q1990.84 1208.43 1989.33 1213.64 Q1987.83 1218.84 1987.83 1224.19 Q1987.83 1229.54 1989.33 1234.79 Q1990.86 1240.02 1993.94 1245.33 L1990.24 1245.33 Q1986.76 1239.89 1985.03 1234.63 Q1983.31 1229.38 1983.31 1224.19 Q1983.31 1219.03 1985.03 1213.8 Q1986.74 1208.57 1990.24 1203.1 L1993.94 1203.1 Z" fill="#000000" fill-rule="evenodd" fill-opacity="1" /><path clip-path="url(#clip620)" d="M2016.97 1220.44 Q2020.33 1221.16 2022.2 1223.43 Q2024.1 1225.7 2024.1 1229.03 Q2024.1 1234.14 2020.58 1236.95 Q2017.06 1239.75 2010.58 1239.75 Q2008.41 1239.75 2006.09 1239.31 Q2003.8 1238.89 2001.35 1238.03 L2001.35 1233.52 Q2003.29 1234.65 2005.61 1235.23 Q2007.92 1235.81 2010.44 1235.81 Q2014.84 1235.81 2017.13 1234.08 Q2019.45 1232.34 2019.45 1229.03 Q2019.45 1225.97 2017.3 1224.26 Q2015.17 1222.52 2011.35 1222.52 L2007.32 1222.52 L2007.32 1218.68 L2011.53 1218.68 Q2014.98 1218.68 2016.81 1217.32 Q2018.64 1215.93 2018.64 1213.33 Q2018.64 1210.67 2016.74 1209.26 Q2014.87 1207.83 2011.35 1207.83 Q2009.43 1207.83 2007.23 1208.24 Q2005.03 1208.66 2002.39 1209.54 L2002.39 1205.37 Q2005.05 1204.63 2007.37 1204.26 Q2009.7 1203.89 2011.76 1203.89 Q2017.09 1203.89 2020.19 1206.32 Q2023.29 1208.73 2023.29 1212.85 Q2023.29 1215.72 2021.65 1217.71 Q2020 1219.68 2016.97 1220.44 Z" fill="#000000" fill-rule="evenodd" fill-opacity="1" /><path clip-path="url(#clip620)" d="M2047.13 1220.44 Q2050.49 1221.16 2052.37 1223.43 Q2054.26 1225.7 2054.26 1229.03 Q2054.26 1234.14 2050.74 1236.95 Q2047.23 1239.75 2040.74 1239.75 Q2038.57 1239.75 2036.25 1239.31 Q2033.96 1238.89 2031.51 1238.03 L2031.51 1233.52 Q2033.45 1234.65 2035.77 1235.23 Q2038.08 1235.81 2040.61 1235.81 Q2045 1235.81 2047.3 1234.08 Q2049.61 1232.34 2049.61 1229.03 Q2049.61 1225.97 2047.46 1224.26 Q2045.33 1222.52 2041.51 1222.52 L2037.48 1222.52 L2037.48 1218.68 L2041.69 1218.68 Q2045.14 1218.68 2046.97 1217.32 Q2048.8 1215.93 2048.8 1213.33 Q2048.8 1210.67 2046.9 1209.26 Q2045.03 1207.83 2041.51 1207.83 Q2039.59 1207.83 2037.39 1208.24 Q2035.19 1208.66 2032.55 1209.54 L2032.55 1205.37 Q2035.21 1204.63 2037.53 1204.26 Q2039.87 1203.89 2041.93 1203.89 Q2047.25 1203.89 2050.35 1206.32 Q2053.45 1208.73 2053.45 1212.85 Q2053.45 1215.72 2051.81 1217.71 Q2050.17 1219.68 2047.13 1220.44 Z" fill="#000000" fill-rule="evenodd" fill-opacity="1" /><path clip-path="url(#clip620)" d="M2063.18 1204.52 L2081.53 1204.52 L2081.53 1208.45 L2067.46 1208.45 L2067.46 1216.92 Q2068.48 1216.58 2069.49 1216.41 Q2070.51 1216.23 2071.53 1216.23 Q2077.32 1216.23 2080.7 1219.4 Q2084.08 1222.57 2084.08 1227.99 Q2084.08 1233.57 2080.61 1236.67 Q2077.13 1239.75 2070.81 1239.75 Q2068.64 1239.75 2066.37 1239.38 Q2064.12 1239.01 2061.72 1238.27 L2061.72 1233.57 Q2063.8 1234.7 2066.02 1235.26 Q2068.24 1235.81 2070.72 1235.81 Q2074.73 1235.81 2077.06 1233.7 Q2079.4 1231.6 2079.4 1227.99 Q2079.4 1224.38 2077.06 1222.27 Q2074.73 1220.16 2070.72 1220.16 Q2068.85 1220.16 2066.97 1220.58 Q2065.12 1221 2063.18 1221.88 L2063.18 1204.52 Z" fill="#000000" fill-rule="evenodd" fill-opacity="1" /><path clip-path="url(#clip620)" d="M2093.34 1204.52 L2111.69 1204.52 L2111.69 1208.45 L2097.62 1208.45 L2097.62 1216.92 Q2098.64 1216.58 2099.66 1216.41 Q2100.67 1216.23 2101.69 1216.23 Q2107.48 1216.23 2110.86 1219.4 Q2114.24 1222.57 2114.24 1227.99 Q2114.24 1233.57 2110.77 1236.67 Q2107.3 1239.75 2100.98 1239.75 Q2098.8 1239.75 2096.53 1239.38 Q2094.29 1239.01 2091.88 1238.27 L2091.88 1233.57 Q2093.96 1234.7 2096.18 1235.26 Q2098.41 1235.81 2100.88 1235.81 Q2104.89 1235.81 2107.23 1233.7 Q2109.56 1231.6 2109.56 1227.99 Q2109.56 1224.38 2107.23 1222.27 Q2104.89 1220.16 2100.88 1220.16 Q2099.01 1220.16 2097.13 1220.58 Q2095.28 1221 2093.34 1221.88 L2093.34 1204.52 Z" fill="#000000" fill-rule="evenodd" fill-opacity="1" /><path clip-path="url(#clip620)" d="M2136.3 1208.59 L2124.49 1227.04 L2136.3 1227.04 L2136.3 1208.59 M2135.07 1204.52 L2140.95 1204.52 L2140.95 1227.04 L2145.88 1227.04 L2145.88 1230.93 L2140.95 1230.93 L2140.95 1239.08 L2136.3 1239.08 L2136.3 1230.93 L2120.7 1230.93 L2120.7 1226.41 L2135.07 1204.52 Z" fill="#000000" fill-rule="evenodd" fill-opacity="1" /><path clip-path="url(#clip620)" d="M2166.46 1208.59 L2154.66 1227.04 L2166.46 1227.04 L2166.46 1208.59 M2165.23 1204.52 L2171.11 1204.52 L2171.11 1227.04 L2176.04 1227.04 L2176.04 1230.93 L2171.11 1230.93 L2171.11 1239.08 L2166.46 1239.08 L2166.46 1230.93 L2150.86 1230.93 L2150.86 1226.41 L2165.23 1204.52 Z" fill="#000000" fill-rule="evenodd" fill-opacity="1" /><path clip-path="url(#clip620)" d="M2197.94 1220.44 Q2201.3 1221.16 2203.17 1223.43 Q2205.07 1225.7 2205.07 1229.03 Q2205.07 1234.14 2201.55 1236.95 Q2198.04 1239.75 2191.55 1239.75 Q2189.38 1239.75 2187.06 1239.31 Q2184.77 1238.89 2182.32 1238.03 L2182.32 1233.52 Q2184.26 1234.65 2186.58 1235.23 Q2188.89 1235.81 2191.42 1235.81 Q2195.81 1235.81 2198.1 1234.08 Q2200.42 1232.34 2200.42 1229.03 Q2200.42 1225.97 2198.27 1224.26 Q2196.14 1222.52 2192.32 1222.52 L2188.29 1222.52 L2188.29 1218.68 L2192.5 1218.68 Q2195.95 1218.68 2197.78 1217.32 Q2199.61 1215.93 2199.61 1213.33 Q2199.61 1210.67 2197.71 1209.26 Q2195.84 1207.83 2192.32 1207.83 Q2190.4 1207.83 2188.2 1208.24 Q2186 1208.66 2183.36 1209.54 L2183.36 1205.37 Q2186.02 1204.63 2188.34 1204.26 Q2190.67 1203.89 2192.73 1203.89 Q2198.06 1203.89 2201.16 1206.32 Q2204.26 1208.73 2204.26 1212.85 Q2204.26 1215.72 2202.62 1217.71 Q2200.98 1219.68 2197.94 1220.44 Z" fill="#000000" fill-rule="evenodd" fill-opacity="1" /><path clip-path="url(#clip620)" d="M2217.97 1235.14 L2234.29 1235.14 L2234.29 1239.08 L2212.34 1239.08 L2212.34 1235.14 Q2215 1232.39 2219.59 1227.76 Q2224.19 1223.1 2225.37 1221.76 Q2227.62 1219.24 2228.5 1217.5 Q2229.4 1215.74 2229.4 1214.05 Q2229.4 1211.3 2227.46 1209.56 Q2225.54 1207.83 2222.43 1207.83 Q2220.23 1207.83 2217.78 1208.59 Q2215.35 1209.35 2212.57 1210.9 L2212.57 1206.18 Q2215.4 1205.05 2217.85 1204.47 Q2220.3 1203.89 2222.34 1203.89 Q2227.71 1203.89 2230.91 1206.58 Q2234.1 1209.26 2234.1 1213.75 Q2234.1 1215.88 2233.29 1217.8 Q2232.5 1219.7 2230.4 1222.29 Q2229.82 1222.96 2226.72 1226.18 Q2223.61 1229.38 2217.97 1235.14 Z" fill="#000000" fill-rule="evenodd" fill-opacity="1" /><path clip-path="url(#clip620)" d="M2242.83 1203.1 L2246.53 1203.1 Q2250 1208.57 2251.72 1213.8 Q2253.45 1219.03 2253.45 1224.19 Q2253.45 1229.38 2251.72 1234.63 Q2250 1239.89 2246.53 1245.33 L2242.83 1245.33 Q2245.91 1240.02 2247.41 1234.79 Q2248.94 1229.54 2248.94 1224.19 Q2248.94 1218.84 2247.41 1213.64 Q2245.91 1208.43 2242.83 1203.1 Z" fill="#000000" fill-rule="evenodd" fill-opacity="1" /><polyline clip-path="url(#clip620)" style="stroke:#e26f46; stroke-linecap:round; stroke-linejoin:round; stroke-width:4; stroke-opacity:1; fill:none" points="
  1636.17,1273.64 1780.09,1273.64 
  "/>
<path clip-path="url(#clip620)" d="M1824.43 1269.97 Q1826.02 1267.1 1828.25 1265.73 Q1830.47 1264.36 1833.48 1264.36 Q1837.53 1264.36 1839.73 1267.21 Q1841.93 1270.04 1841.93 1275.27 L1841.93 1290.92 L1837.64 1290.92 L1837.64 1275.41 Q1837.64 1271.68 1836.32 1269.87 Q1835.01 1268.07 1832.3 1268.07 Q1828.99 1268.07 1827.07 1270.27 Q1825.14 1272.47 1825.14 1276.26 L1825.14 1290.92 L1820.86 1290.92 L1820.86 1275.41 Q1820.86 1271.66 1819.54 1269.87 Q1818.22 1268.07 1815.47 1268.07 Q1812.2 1268.07 1810.28 1270.29 Q1808.36 1272.49 1808.36 1276.26 L1808.36 1290.92 L1804.08 1290.92 L1804.08 1264.99 L1808.36 1264.99 L1808.36 1269.02 Q1809.82 1266.63 1811.86 1265.5 Q1813.89 1264.36 1816.69 1264.36 Q1819.52 1264.36 1821.49 1265.8 Q1823.48 1267.23 1824.43 1269.97 Z" fill="#000000" fill-rule="evenodd" fill-opacity="1" /><path clip-path="url(#clip620)" d="M1862.2 1277.88 Q1857.04 1277.88 1855.05 1279.06 Q1853.06 1280.24 1853.06 1283.09 Q1853.06 1285.36 1854.54 1286.7 Q1856.05 1288.02 1858.62 1288.02 Q1862.16 1288.02 1864.29 1285.52 Q1866.44 1283 1866.44 1278.83 L1866.44 1277.88 L1862.2 1277.88 M1870.7 1276.12 L1870.7 1290.92 L1866.44 1290.92 L1866.44 1286.98 Q1864.98 1289.34 1862.81 1290.48 Q1860.63 1291.59 1857.48 1291.59 Q1853.5 1291.59 1851.14 1289.36 Q1848.8 1287.12 1848.8 1283.37 Q1848.8 1278.99 1851.72 1276.77 Q1854.66 1274.55 1860.47 1274.55 L1866.44 1274.55 L1866.44 1274.13 Q1866.44 1271.19 1864.5 1269.6 Q1862.57 1267.98 1859.08 1267.98 Q1856.86 1267.98 1854.75 1268.51 Q1852.64 1269.04 1850.7 1270.11 L1850.7 1266.17 Q1853.04 1265.27 1855.24 1264.83 Q1857.44 1264.36 1859.52 1264.36 Q1865.14 1264.36 1867.92 1267.28 Q1870.7 1270.2 1870.7 1276.12 Z" fill="#000000" fill-rule="evenodd" fill-opacity="1" /><path clip-path="url(#clip620)" d="M1896 1265.75 L1896 1269.78 Q1894.19 1268.86 1892.25 1268.39 Q1890.31 1267.93 1888.22 1267.93 Q1885.05 1267.93 1883.45 1268.9 Q1881.88 1269.87 1881.88 1271.82 Q1881.88 1273.3 1883.01 1274.16 Q1884.15 1274.99 1887.57 1275.75 L1889.03 1276.08 Q1893.57 1277.05 1895.47 1278.83 Q1897.39 1280.59 1897.39 1283.76 Q1897.39 1287.37 1894.52 1289.48 Q1891.67 1291.59 1886.67 1291.59 Q1884.59 1291.59 1882.32 1291.17 Q1880.07 1290.78 1877.57 1289.97 L1877.57 1285.57 Q1879.94 1286.79 1882.23 1287.42 Q1884.52 1288.02 1886.76 1288.02 Q1889.77 1288.02 1891.39 1287 Q1893.01 1285.96 1893.01 1284.09 Q1893.01 1282.35 1891.83 1281.42 Q1890.68 1280.5 1886.72 1279.64 L1885.24 1279.3 Q1881.28 1278.46 1879.52 1276.75 Q1877.76 1275.01 1877.76 1272 Q1877.76 1268.35 1880.35 1266.36 Q1882.94 1264.36 1887.71 1264.36 Q1890.07 1264.36 1892.16 1264.71 Q1894.24 1265.06 1896 1265.75 Z" fill="#000000" fill-rule="evenodd" fill-opacity="1" /><path clip-path="url(#clip620)" d="M1920.7 1265.75 L1920.7 1269.78 Q1918.89 1268.86 1916.95 1268.39 Q1915 1267.93 1912.92 1267.93 Q1909.75 1267.93 1908.15 1268.9 Q1906.58 1269.87 1906.58 1271.82 Q1906.58 1273.3 1907.71 1274.16 Q1908.85 1274.99 1912.27 1275.75 L1913.73 1276.08 Q1918.27 1277.05 1920.17 1278.83 Q1922.09 1280.59 1922.09 1283.76 Q1922.09 1287.37 1919.22 1289.48 Q1916.37 1291.59 1911.37 1291.59 Q1909.29 1291.59 1907.02 1291.17 Q1904.77 1290.78 1902.27 1289.97 L1902.27 1285.57 Q1904.63 1286.79 1906.93 1287.42 Q1909.22 1288.02 1911.46 1288.02 Q1914.47 1288.02 1916.09 1287 Q1917.71 1285.96 1917.71 1284.09 Q1917.71 1282.35 1916.53 1281.42 Q1915.37 1280.5 1911.42 1279.64 L1909.94 1279.3 Q1905.98 1278.46 1904.22 1276.75 Q1902.46 1275.01 1902.46 1272 Q1902.46 1268.35 1905.05 1266.36 Q1907.64 1264.36 1912.41 1264.36 Q1914.77 1264.36 1916.86 1264.71 Q1918.94 1265.06 1920.7 1265.75 Z" fill="#000000" fill-rule="evenodd" fill-opacity="1" /><path clip-path="url(#clip620)" d="M1929.47 1285.04 L1934.36 1285.04 L1934.36 1290.92 L1929.47 1290.92 L1929.47 1285.04 Z" fill="#000000" fill-rule="evenodd" fill-opacity="1" /><path clip-path="url(#clip620)" d="M1940.88 1264.99 L1945.4 1264.99 L1953.5 1286.75 L1961.6 1264.99 L1966.12 1264.99 L1956.39 1290.92 L1950.61 1290.92 L1940.88 1264.99 Z" fill="#000000" fill-rule="evenodd" fill-opacity="1" /><path clip-path="url(#clip620)" d="M1997.3 1254.94 Q1994.19 1260.27 1992.69 1265.48 Q1991.18 1270.68 1991.18 1276.03 Q1991.18 1281.38 1992.69 1286.63 Q1994.22 1291.86 1997.3 1297.17 L1993.59 1297.17 Q1990.12 1291.73 1988.38 1286.47 Q1986.67 1281.22 1986.67 1276.03 Q1986.67 1270.87 1988.38 1265.64 Q1990.1 1260.41 1993.59 1254.94 L1997.3 1254.94 Z" fill="#000000" fill-rule="evenodd" fill-opacity="1" /><path clip-path="url(#clip620)" d="M2020.33 1272.28 Q2023.68 1273 2025.56 1275.27 Q2027.46 1277.54 2027.46 1280.87 Q2027.46 1285.98 2023.94 1288.79 Q2020.42 1291.59 2013.94 1291.59 Q2011.76 1291.59 2009.45 1291.15 Q2007.16 1290.73 2004.7 1289.87 L2004.7 1285.36 Q2006.65 1286.49 2008.96 1287.07 Q2011.28 1287.65 2013.8 1287.65 Q2018.2 1287.65 2020.49 1285.92 Q2022.8 1284.18 2022.8 1280.87 Q2022.8 1277.81 2020.65 1276.1 Q2018.52 1274.36 2014.7 1274.36 L2010.68 1274.36 L2010.68 1270.52 L2014.89 1270.52 Q2018.34 1270.52 2020.17 1269.16 Q2021.99 1267.77 2021.99 1265.17 Q2021.99 1262.51 2020.1 1261.1 Q2018.22 1259.67 2014.7 1259.67 Q2012.78 1259.67 2010.58 1260.08 Q2008.38 1260.5 2005.74 1261.38 L2005.74 1257.21 Q2008.41 1256.47 2010.72 1256.1 Q2013.06 1255.73 2015.12 1255.73 Q2020.44 1255.73 2023.55 1258.16 Q2026.65 1260.57 2026.65 1264.69 Q2026.65 1267.56 2025 1269.55 Q2023.36 1271.52 2020.33 1272.28 Z" fill="#000000" fill-rule="evenodd" fill-opacity="1" /><path clip-path="url(#clip620)" d="M2050.49 1272.28 Q2053.85 1273 2055.72 1275.27 Q2057.62 1277.54 2057.62 1280.87 Q2057.62 1285.98 2054.1 1288.79 Q2050.58 1291.59 2044.1 1291.59 Q2041.93 1291.59 2039.61 1291.15 Q2037.32 1290.73 2034.87 1289.87 L2034.87 1285.36 Q2036.81 1286.49 2039.12 1287.07 Q2041.44 1287.65 2043.96 1287.65 Q2048.36 1287.65 2050.65 1285.92 Q2052.97 1284.18 2052.97 1280.87 Q2052.97 1277.81 2050.81 1276.1 Q2048.68 1274.36 2044.87 1274.36 L2040.84 1274.36 L2040.84 1270.52 L2045.05 1270.52 Q2048.5 1270.52 2050.33 1269.16 Q2052.16 1267.77 2052.16 1265.17 Q2052.16 1262.51 2050.26 1261.1 Q2048.38 1259.67 2044.87 1259.67 Q2042.94 1259.67 2040.74 1260.08 Q2038.55 1260.5 2035.91 1261.38 L2035.91 1257.21 Q2038.57 1256.47 2040.88 1256.1 Q2043.22 1255.73 2045.28 1255.73 Q2050.61 1255.73 2053.71 1258.16 Q2056.81 1260.57 2056.81 1264.69 Q2056.81 1267.56 2055.17 1269.55 Q2053.52 1271.52 2050.49 1272.28 Z" fill="#000000" fill-rule="evenodd" fill-opacity="1" /><path clip-path="url(#clip620)" d="M2066.53 1256.36 L2084.89 1256.36 L2084.89 1260.29 L2070.81 1260.29 L2070.81 1268.76 Q2071.83 1268.42 2072.85 1268.25 Q2073.87 1268.07 2074.89 1268.07 Q2080.68 1268.07 2084.05 1271.24 Q2087.43 1274.41 2087.43 1279.83 Q2087.43 1285.41 2083.96 1288.51 Q2080.49 1291.59 2074.17 1291.59 Q2071.99 1291.59 2069.73 1291.22 Q2067.48 1290.85 2065.07 1290.11 L2065.07 1285.41 Q2067.16 1286.54 2069.38 1287.1 Q2071.6 1287.65 2074.08 1287.65 Q2078.08 1287.65 2080.42 1285.54 Q2082.76 1283.44 2082.76 1279.83 Q2082.76 1276.22 2080.42 1274.11 Q2078.08 1272 2074.08 1272 Q2072.2 1272 2070.33 1272.42 Q2068.48 1272.84 2066.53 1273.72 L2066.53 1256.36 Z" fill="#000000" fill-rule="evenodd" fill-opacity="1" /><path clip-path="url(#clip620)" d="M2096.69 1256.36 L2115.05 1256.36 L2115.05 1260.29 L2100.98 1260.29 L2100.98 1268.76 Q2101.99 1268.42 2103.01 1268.25 Q2104.03 1268.07 2105.05 1268.07 Q2110.84 1268.07 2114.22 1271.24 Q2117.6 1274.41 2117.6 1279.83 Q2117.6 1285.41 2114.12 1288.51 Q2110.65 1291.59 2104.33 1291.59 Q2102.16 1291.59 2099.89 1291.22 Q2097.64 1290.85 2095.24 1290.11 L2095.24 1285.41 Q2097.32 1286.54 2099.54 1287.1 Q2101.76 1287.65 2104.24 1287.65 Q2108.24 1287.65 2110.58 1285.54 Q2112.92 1283.44 2112.92 1279.83 Q2112.92 1276.22 2110.58 1274.11 Q2108.24 1272 2104.24 1272 Q2102.36 1272 2100.49 1272.42 Q2098.64 1272.84 2096.69 1273.72 L2096.69 1256.36 Z" fill="#000000" fill-rule="evenodd" fill-opacity="1" /><path clip-path="url(#clip620)" d="M2139.66 1260.43 L2127.85 1278.88 L2139.66 1278.88 L2139.66 1260.43 M2138.43 1256.36 L2144.31 1256.36 L2144.31 1278.88 L2149.24 1278.88 L2149.24 1282.77 L2144.31 1282.77 L2144.31 1290.92 L2139.66 1290.92 L2139.66 1282.77 L2124.05 1282.77 L2124.05 1278.25 L2138.43 1256.36 Z" fill="#000000" fill-rule="evenodd" fill-opacity="1" /><path clip-path="url(#clip620)" d="M2169.82 1260.43 L2158.01 1278.88 L2169.82 1278.88 L2169.82 1260.43 M2168.59 1256.36 L2174.47 1256.36 L2174.47 1278.88 L2179.4 1278.88 L2179.4 1282.77 L2174.47 1282.77 L2174.47 1290.92 L2169.82 1290.92 L2169.82 1282.77 L2154.22 1282.77 L2154.22 1278.25 L2168.59 1256.36 Z" fill="#000000" fill-rule="evenodd" fill-opacity="1" /><path clip-path="url(#clip620)" d="M2201.3 1272.28 Q2204.66 1273 2206.53 1275.27 Q2208.43 1277.54 2208.43 1280.87 Q2208.43 1285.98 2204.91 1288.79 Q2201.39 1291.59 2194.91 1291.59 Q2192.73 1291.59 2190.42 1291.15 Q2188.13 1290.73 2185.67 1289.87 L2185.67 1285.36 Q2187.62 1286.49 2189.93 1287.07 Q2192.25 1287.65 2194.77 1287.65 Q2199.17 1287.65 2201.46 1285.92 Q2203.78 1284.18 2203.78 1280.87 Q2203.78 1277.81 2201.62 1276.1 Q2199.49 1274.36 2195.67 1274.36 L2191.65 1274.36 L2191.65 1270.52 L2195.86 1270.52 Q2199.31 1270.52 2201.14 1269.16 Q2202.97 1267.77 2202.97 1265.17 Q2202.97 1262.51 2201.07 1261.1 Q2199.19 1259.67 2195.67 1259.67 Q2193.75 1259.67 2191.55 1260.08 Q2189.36 1260.5 2186.72 1261.38 L2186.72 1257.21 Q2189.38 1256.47 2191.69 1256.1 Q2194.03 1255.73 2196.09 1255.73 Q2201.42 1255.73 2204.52 1258.16 Q2207.62 1260.57 2207.62 1264.69 Q2207.62 1267.56 2205.98 1269.55 Q2204.33 1271.52 2201.3 1272.28 Z" fill="#000000" fill-rule="evenodd" fill-opacity="1" /><path clip-path="url(#clip620)" d="M2231.46 1272.28 Q2234.82 1273 2236.69 1275.27 Q2238.59 1277.54 2238.59 1280.87 Q2238.59 1285.98 2235.07 1288.79 Q2231.55 1291.59 2225.07 1291.59 Q2222.9 1291.59 2220.58 1291.15 Q2218.29 1290.73 2215.84 1289.87 L2215.84 1285.36 Q2217.78 1286.49 2220.1 1287.07 Q2222.41 1287.65 2224.93 1287.65 Q2229.33 1287.65 2231.62 1285.92 Q2233.94 1284.18 2233.94 1280.87 Q2233.94 1277.81 2231.79 1276.1 Q2229.66 1274.36 2225.84 1274.36 L2221.81 1274.36 L2221.81 1270.52 L2226.02 1270.52 Q2229.47 1270.52 2231.3 1269.16 Q2233.13 1267.77 2233.13 1265.17 Q2233.13 1262.51 2231.23 1261.1 Q2229.35 1259.67 2225.84 1259.67 Q2223.92 1259.67 2221.72 1260.08 Q2219.52 1260.5 2216.88 1261.38 L2216.88 1257.21 Q2219.54 1256.47 2221.85 1256.1 Q2224.19 1255.73 2226.25 1255.73 Q2231.58 1255.73 2234.68 1258.16 Q2237.78 1260.57 2237.78 1264.69 Q2237.78 1267.56 2236.14 1269.55 Q2234.49 1271.52 2231.46 1272.28 Z" fill="#000000" fill-rule="evenodd" fill-opacity="1" /><path clip-path="url(#clip620)" d="M2246.18 1254.94 L2249.89 1254.94 Q2253.36 1260.41 2255.07 1265.64 Q2256.81 1270.87 2256.81 1276.03 Q2256.81 1281.22 2255.07 1286.47 Q2253.36 1291.73 2249.89 1297.17 L2246.18 1297.17 Q2249.26 1291.86 2250.77 1286.63 Q2252.29 1281.38 2252.29 1276.03 Q2252.29 1270.68 2250.77 1265.48 Q2249.26 1260.27 2246.18 1254.94 Z" fill="#000000" fill-rule="evenodd" fill-opacity="1" /><polyline clip-path="url(#clip620)" style="stroke:#0000ff; stroke-linecap:round; stroke-linejoin:round; stroke-width:4; stroke-opacity:1; fill:none" stroke-dasharray="16, 10" points="
  1636.17,1325.48 1780.09,1325.48 
  "/>
<path clip-path="url(#clip620)" d="M1826.32 1309.33 L1826.32 1313.89 Q1823.66 1312.62 1821.3 1311.99 Q1818.94 1311.37 1816.74 1311.37 Q1812.92 1311.37 1810.84 1312.85 Q1808.78 1314.33 1808.78 1317.06 Q1808.78 1319.35 1810.14 1320.53 Q1811.53 1321.69 1815.38 1322.41 L1818.2 1322.99 Q1823.43 1323.98 1825.91 1326.51 Q1828.41 1329.01 1828.41 1333.22 Q1828.41 1338.24 1825.03 1340.83 Q1821.67 1343.43 1815.17 1343.43 Q1812.71 1343.43 1809.94 1342.87 Q1807.18 1342.32 1804.22 1341.23 L1804.22 1336.41 Q1807.07 1338.01 1809.8 1338.82 Q1812.53 1339.63 1815.17 1339.63 Q1819.17 1339.63 1821.35 1338.06 Q1823.52 1336.48 1823.52 1333.57 Q1823.52 1331.02 1821.95 1329.58 Q1820.4 1328.15 1816.83 1327.43 L1813.99 1326.88 Q1808.76 1325.83 1806.42 1323.61 Q1804.08 1321.39 1804.08 1317.43 Q1804.08 1312.85 1807.3 1310.21 Q1810.54 1307.57 1816.21 1307.57 Q1818.64 1307.57 1821.16 1308.01 Q1823.69 1308.45 1826.32 1309.33 Z" fill="#000000" fill-rule="evenodd" fill-opacity="1" /><path clip-path="url(#clip620)" d="M1839.73 1309.47 L1839.73 1316.83 L1848.5 1316.83 L1848.5 1320.14 L1839.73 1320.14 L1839.73 1334.21 Q1839.73 1337.38 1840.58 1338.29 Q1841.46 1339.19 1844.13 1339.19 L1848.5 1339.19 L1848.5 1342.76 L1844.13 1342.76 Q1839.19 1342.76 1837.32 1340.93 Q1835.44 1339.07 1835.44 1334.21 L1835.44 1320.14 L1832.32 1320.14 L1832.32 1316.83 L1835.44 1316.83 L1835.44 1309.47 L1839.73 1309.47 Z" fill="#000000" fill-rule="evenodd" fill-opacity="1" /><path clip-path="url(#clip620)" d="M1865.88 1329.72 Q1860.72 1329.72 1858.73 1330.9 Q1856.74 1332.08 1856.74 1334.93 Q1856.74 1337.2 1858.22 1338.54 Q1859.73 1339.86 1862.3 1339.86 Q1865.84 1339.86 1867.97 1337.36 Q1870.12 1334.84 1870.12 1330.67 L1870.12 1329.72 L1865.88 1329.72 M1874.38 1327.96 L1874.38 1342.76 L1870.12 1342.76 L1870.12 1338.82 Q1868.66 1341.18 1866.49 1342.32 Q1864.31 1343.43 1861.16 1343.43 Q1857.18 1343.43 1854.82 1341.2 Q1852.48 1338.96 1852.48 1335.21 Q1852.48 1330.83 1855.4 1328.61 Q1858.34 1326.39 1864.15 1326.39 L1870.12 1326.39 L1870.12 1325.97 Q1870.12 1323.03 1868.18 1321.44 Q1866.25 1319.82 1862.76 1319.82 Q1860.54 1319.82 1858.43 1320.35 Q1856.32 1320.88 1854.38 1321.95 L1854.38 1318.01 Q1856.72 1317.11 1858.92 1316.67 Q1861.12 1316.2 1863.2 1316.2 Q1868.82 1316.2 1871.6 1319.12 Q1874.38 1322.04 1874.38 1327.96 Z" fill="#000000" fill-rule="evenodd" fill-opacity="1" /><path clip-path="url(#clip620)" d="M1887.37 1309.47 L1887.37 1316.83 L1896.14 1316.83 L1896.14 1320.14 L1887.37 1320.14 L1887.37 1334.21 Q1887.37 1337.38 1888.22 1338.29 Q1889.1 1339.19 1891.76 1339.19 L1896.14 1339.19 L1896.14 1342.76 L1891.76 1342.76 Q1886.83 1342.76 1884.96 1340.93 Q1883.08 1339.07 1883.08 1334.21 L1883.08 1320.14 L1879.96 1320.14 L1879.96 1316.83 L1883.08 1316.83 L1883.08 1309.47 L1887.37 1309.47 Z" fill="#000000" fill-rule="evenodd" fill-opacity="1" /><path clip-path="url(#clip620)" d="M1923.92 1328.73 L1923.92 1330.81 L1904.33 1330.81 Q1904.61 1335.21 1906.97 1337.52 Q1909.36 1339.82 1913.59 1339.82 Q1916.05 1339.82 1918.34 1339.21 Q1920.65 1338.61 1922.92 1337.41 L1922.92 1341.44 Q1920.63 1342.41 1918.22 1342.92 Q1915.81 1343.43 1913.34 1343.43 Q1907.13 1343.43 1903.5 1339.82 Q1899.89 1336.2 1899.89 1330.05 Q1899.89 1323.68 1903.31 1319.95 Q1906.76 1316.2 1912.6 1316.2 Q1917.83 1316.2 1920.86 1319.58 Q1923.92 1322.94 1923.92 1328.73 M1919.66 1327.48 Q1919.61 1323.98 1917.69 1321.9 Q1915.79 1319.82 1912.64 1319.82 Q1909.08 1319.82 1906.93 1321.83 Q1904.8 1323.84 1904.47 1327.5 L1919.66 1327.48 Z" fill="#000000" fill-rule="evenodd" fill-opacity="1" /><path clip-path="url(#clip620)" d="M1968.15 1328.73 L1968.15 1330.81 L1948.57 1330.81 Q1948.85 1335.21 1951.21 1337.52 Q1953.59 1339.82 1957.83 1339.82 Q1960.28 1339.82 1962.57 1339.21 Q1964.89 1338.61 1967.16 1337.41 L1967.16 1341.44 Q1964.87 1342.41 1962.46 1342.92 Q1960.05 1343.43 1957.57 1343.43 Q1951.37 1343.43 1947.74 1339.82 Q1944.12 1336.2 1944.12 1330.05 Q1944.12 1323.68 1947.55 1319.95 Q1951 1316.2 1956.83 1316.2 Q1962.06 1316.2 1965.1 1319.58 Q1968.15 1322.94 1968.15 1328.73 M1963.89 1327.48 Q1963.85 1323.98 1961.93 1321.9 Q1960.03 1319.82 1956.88 1319.82 Q1953.31 1319.82 1951.16 1321.83 Q1949.03 1323.84 1948.71 1327.5 L1963.89 1327.48 Z" fill="#000000" fill-rule="evenodd" fill-opacity="1" /><path clip-path="url(#clip620)" d="M1972.09 1316.83 L1976.6 1316.83 L1984.7 1338.59 L1992.81 1316.83 L1997.32 1316.83 L1987.6 1342.76 L1981.81 1342.76 L1972.09 1316.83 Z" fill="#000000" fill-rule="evenodd" fill-opacity="1" /><path clip-path="url(#clip620)" d="M2025.37 1328.73 L2025.37 1330.81 L2005.79 1330.81 Q2006.07 1335.21 2008.43 1337.52 Q2010.81 1339.82 2015.05 1339.82 Q2017.5 1339.82 2019.8 1339.21 Q2022.11 1338.61 2024.38 1337.41 L2024.38 1341.44 Q2022.09 1342.41 2019.68 1342.92 Q2017.27 1343.43 2014.8 1343.43 Q2008.59 1343.43 2004.96 1339.82 Q2001.35 1336.2 2001.35 1330.05 Q2001.35 1323.68 2004.77 1319.95 Q2008.22 1316.2 2014.06 1316.2 Q2019.29 1316.2 2022.32 1319.58 Q2025.37 1322.94 2025.37 1328.73 M2021.12 1327.48 Q2021.07 1323.98 2019.15 1321.9 Q2017.25 1319.82 2014.1 1319.82 Q2010.54 1319.82 2008.38 1321.83 Q2006.25 1323.84 2005.93 1327.5 L2021.12 1327.48 Z" fill="#000000" fill-rule="evenodd" fill-opacity="1" /><path clip-path="url(#clip620)" d="M2053.92 1327.11 L2053.92 1342.76 L2049.66 1342.76 L2049.66 1327.25 Q2049.66 1323.57 2048.22 1321.74 Q2046.79 1319.91 2043.92 1319.91 Q2040.47 1319.91 2038.48 1322.11 Q2036.49 1324.31 2036.49 1328.1 L2036.49 1342.76 L2032.2 1342.76 L2032.2 1316.83 L2036.49 1316.83 L2036.49 1320.86 Q2038.01 1318.52 2040.07 1317.36 Q2042.16 1316.2 2044.87 1316.2 Q2049.33 1316.2 2051.62 1318.98 Q2053.92 1321.74 2053.92 1327.11 Z" fill="#000000" fill-rule="evenodd" fill-opacity="1" /><path clip-path="url(#clip620)" d="M2066.62 1309.47 L2066.62 1316.83 L2075.4 1316.83 L2075.4 1320.14 L2066.62 1320.14 L2066.62 1334.21 Q2066.62 1337.38 2067.48 1338.29 Q2068.36 1339.19 2071.02 1339.19 L2075.4 1339.19 L2075.4 1342.76 L2071.02 1342.76 Q2066.09 1342.76 2064.22 1340.93 Q2062.34 1339.07 2062.34 1334.21 L2062.34 1320.14 L2059.22 1320.14 L2059.22 1316.83 L2062.34 1316.83 L2062.34 1309.47 L2066.62 1309.47 Z" fill="#000000" fill-rule="evenodd" fill-opacity="1" /><path clip-path="url(#clip620)" d="M2091.23 1306.78 Q2088.13 1312.11 2086.62 1317.32 Q2085.12 1322.52 2085.12 1327.87 Q2085.12 1333.22 2086.62 1338.47 Q2088.15 1343.7 2091.23 1349.01 L2087.53 1349.01 Q2084.05 1343.57 2082.32 1338.31 Q2080.61 1333.06 2080.61 1327.87 Q2080.61 1322.71 2082.32 1317.48 Q2084.03 1312.25 2087.53 1306.78 L2091.23 1306.78 Z" fill="#000000" fill-rule="evenodd" fill-opacity="1" /><path clip-path="url(#clip620)" d="M2116.02 1317.59 L2116.02 1321.62 Q2114.22 1320.7 2112.27 1320.23 Q2110.33 1319.77 2108.24 1319.77 Q2105.07 1319.77 2103.48 1320.74 Q2101.9 1321.71 2101.9 1323.66 Q2101.9 1325.14 2103.04 1326 Q2104.17 1326.83 2107.6 1327.59 L2109.05 1327.92 Q2113.59 1328.89 2115.49 1330.67 Q2117.41 1332.43 2117.41 1335.6 Q2117.41 1339.21 2114.54 1341.32 Q2111.69 1343.43 2106.69 1343.43 Q2104.61 1343.43 2102.34 1343.01 Q2100.1 1342.62 2097.6 1341.81 L2097.6 1337.41 Q2099.96 1338.63 2102.25 1339.26 Q2104.54 1339.86 2106.79 1339.86 Q2109.8 1339.86 2111.42 1338.84 Q2113.04 1337.8 2113.04 1335.93 Q2113.04 1334.19 2111.86 1333.26 Q2110.7 1332.34 2106.74 1331.48 L2105.26 1331.14 Q2101.3 1330.3 2099.54 1328.59 Q2097.78 1326.85 2097.78 1323.84 Q2097.78 1320.19 2100.37 1318.2 Q2102.97 1316.2 2107.74 1316.2 Q2110.1 1316.2 2112.18 1316.55 Q2114.26 1316.9 2116.02 1317.59 Z" fill="#000000" fill-rule="evenodd" fill-opacity="1" /><path clip-path="url(#clip620)" d="M2123.52 1306.78 L2127.23 1306.78 Q2130.7 1312.25 2132.41 1317.48 Q2134.15 1322.71 2134.15 1327.87 Q2134.15 1333.06 2132.41 1338.31 Q2130.7 1343.57 2127.23 1349.01 L2123.52 1349.01 Q2126.6 1343.7 2128.11 1338.47 Q2129.63 1333.22 2129.63 1327.87 Q2129.63 1322.52 2128.11 1317.32 Q2126.6 1312.11 2123.52 1306.78 Z" fill="#000000" fill-rule="evenodd" fill-opacity="1" /></svg>
