<?xml version="1.0" encoding="utf-8"?>
<svg xmlns="http://www.w3.org/2000/svg" xmlns:xlink="http://www.w3.org/1999/xlink" width="600" height="400" viewBox="0 0 2400 1600">
<defs>
  <clipPath id="clip580">
    <rect x="0" y="0" width="2400" height="1600"/>
  </clipPath>
</defs>
<path clip-path="url(#clip580)" d="
M0 1600 L2400 1600 L2400 0 L0 0  Z
  " fill="#ffffff" fill-rule="evenodd" fill-opacity="1"/>
<defs>
  <clipPath id="clip581">
    <rect x="480" y="0" width="1681" height="1600"/>
  </clipPath>
</defs>
<path clip-path="url(#clip580)" d="
M193.936 1423.18 L2352.76 1423.18 L2352.76 47.2441 L193.936 47.2441  Z
  " fill="#ffffff" fill-rule="evenodd" fill-opacity="1"/>
<defs>
  <clipPath id="clip582">
    <rect x="193" y="47" width="2160" height="1377"/>
  </clipPath>
</defs>
<polyline clip-path="url(#clip582)" style="stroke:#000000; stroke-linecap:round; stroke-linejoin:round; stroke-width:2; stroke-opacity:0.1; fill:none" points="
  255.035,1423.18 255.035,47.2441 
  "/>
<polyline clip-path="url(#clip582)" style="stroke:#000000; stroke-linecap:round; stroke-linejoin:round; stroke-width:2; stroke-opacity:0.1; fill:none" points="
  764.19,1423.18 764.19,47.2441 
  "/>
<polyline clip-path="url(#clip582)" style="stroke:#000000; stroke-linecap:round; stroke-linejoin:round; stroke-width:2; stroke-opacity:0.1; fill:none" points="
  1273.35,1423.18 1273.35,47.2441 
  "/>
<polyline clip-path="url(#clip582)" style="stroke:#000000; stroke-linecap:round; stroke-linejoin:round; stroke-width:2; stroke-opacity:0.1; fill:none" points="
  1782.5,1423.18 1782.5,47.2441 
  "/>
<polyline clip-path="url(#clip582)" style="stroke:#000000; stroke-linecap:round; stroke-linejoin:round; stroke-width:2; stroke-opacity:0.1; fill:none" points="
  2291.66,1423.18 2291.66,47.2441 
  "/>
<polyline clip-path="url(#clip580)" style="stroke:#000000; stroke-linecap:round; stroke-linejoin:round; stroke-width:4; stroke-opacity:1; fill:none" points="
  193.936,1423.18 2352.76,1423.18 
  "/>
<polyline clip-path="url(#clip580)" style="stroke:#000000; stroke-linecap:round; stroke-linejoin:round; stroke-width:4; stroke-opacity:1; fill:none" points="
  255.035,1423.18 255.035,1404.28 
  "/>
<polyline clip-path="url(#clip580)" style="stroke:#000000; stroke-linecap:round; stroke-linejoin:round; stroke-width:4; stroke-opacity:1; fill:none" points="
  764.19,1423.18 764.19,1404.28 
  "/>
<polyline clip-path="url(#clip580)" style="stroke:#000000; stroke-linecap:round; stroke-linejoin:round; stroke-width:4; stroke-opacity:1; fill:none" points="
  1273.35,1423.18 1273.35,1404.28 
  "/>
<polyline clip-path="url(#clip580)" style="stroke:#000000; stroke-linecap:round; stroke-linejoin:round; stroke-width:4; stroke-opacity:1; fill:none" points="
  1782.5,1423.18 1782.5,1404.28 
  "/>
<polyline clip-path="url(#clip580)" style="stroke:#000000; stroke-linecap:round; stroke-linejoin:round; stroke-width:4; stroke-opacity:1; fill:none" points="
  2291.66,1423.18 2291.66,1404.28 
  "/>
<path clip-path="url(#clip580)" d="M255.035 1454.1 Q251.424 1454.1 249.595 1457.66 Q247.789 1461.2 247.789 1468.33 Q247.789 1475.44 249.595 1479.01 Q251.424 1482.55 255.035 1482.55 Q258.669 1482.55 260.474 1479.01 Q262.303 1475.44 262.303 1468.33 Q262.303 1461.2 260.474 1457.66 Q258.669 1454.1 255.035 1454.1 M255.035 1450.39 Q260.845 1450.39 263.9 1455 Q266.979 1459.58 266.979 1468.33 Q266.979 1477.06 263.9 1481.67 Q260.845 1486.25 255.035 1486.25 Q249.225 1486.25 246.146 1481.67 Q243.09 1477.06 243.09 1468.33 Q243.09 1459.58 246.146 1455 Q249.225 1450.39 255.035 1450.39 Z" fill="#000000" fill-rule="evenodd" fill-opacity="1" /><path clip-path="url(#clip580)" d="M758.843 1481.64 L775.162 1481.64 L775.162 1485.58 L753.218 1485.58 L753.218 1481.64 Q755.88 1478.89 760.463 1474.26 Q765.07 1469.61 766.25 1468.27 Q768.496 1465.74 769.375 1464.01 Q770.278 1462.25 770.278 1460.56 Q770.278 1457.8 768.334 1456.07 Q766.413 1454.33 763.311 1454.33 Q761.112 1454.33 758.658 1455.09 Q756.227 1455.86 753.45 1457.41 L753.45 1452.69 Q756.274 1451.55 758.727 1450.97 Q761.181 1450.39 763.218 1450.39 Q768.588 1450.39 771.783 1453.08 Q774.977 1455.77 774.977 1460.26 Q774.977 1462.39 774.167 1464.31 Q773.38 1466.2 771.274 1468.8 Q770.695 1469.47 767.593 1472.69 Q764.491 1475.88 758.843 1481.64 Z" fill="#000000" fill-rule="evenodd" fill-opacity="1" /><path clip-path="url(#clip580)" d="M1276.36 1455.09 L1264.55 1473.54 L1276.36 1473.54 L1276.36 1455.09 M1275.13 1451.02 L1281.01 1451.02 L1281.01 1473.54 L1285.94 1473.54 L1285.94 1477.43 L1281.01 1477.43 L1281.01 1485.58 L1276.36 1485.58 L1276.36 1477.43 L1260.75 1477.43 L1260.75 1472.92 L1275.13 1451.02 Z" fill="#000000" fill-rule="evenodd" fill-opacity="1" /><path clip-path="url(#clip580)" d="M1782.91 1466.44 Q1779.76 1466.44 1777.91 1468.59 Q1776.08 1470.74 1776.08 1474.49 Q1776.08 1478.22 1777.91 1480.39 Q1779.76 1482.55 1782.91 1482.55 Q1786.05 1482.55 1787.88 1480.39 Q1789.74 1478.22 1789.74 1474.49 Q1789.74 1470.74 1787.88 1468.59 Q1786.05 1466.44 1782.91 1466.44 M1792.19 1451.78 L1792.19 1456.04 Q1790.43 1455.21 1788.62 1454.77 Q1786.84 1454.33 1785.08 1454.33 Q1780.45 1454.33 1778 1457.45 Q1775.57 1460.58 1775.22 1466.9 Q1776.59 1464.89 1778.65 1463.82 Q1780.71 1462.73 1783.18 1462.73 Q1788.39 1462.73 1791.4 1465.9 Q1794.43 1469.05 1794.43 1474.49 Q1794.43 1479.82 1791.29 1483.03 Q1788.14 1486.25 1782.91 1486.25 Q1776.91 1486.25 1773.74 1481.67 Q1770.57 1477.06 1770.57 1468.33 Q1770.57 1460.14 1774.46 1455.28 Q1778.35 1450.39 1784.9 1450.39 Q1786.66 1450.39 1788.44 1450.74 Q1790.24 1451.09 1792.19 1451.78 Z" fill="#000000" fill-rule="evenodd" fill-opacity="1" /><path clip-path="url(#clip580)" d="M2291.66 1469.17 Q2288.32 1469.17 2286.4 1470.95 Q2284.5 1472.73 2284.5 1475.86 Q2284.5 1478.98 2286.4 1480.77 Q2288.32 1482.55 2291.66 1482.55 Q2294.99 1482.55 2296.91 1480.77 Q2298.83 1478.96 2298.83 1475.86 Q2298.83 1472.73 2296.91 1470.95 Q2295.01 1469.17 2291.66 1469.17 M2286.98 1467.18 Q2283.97 1466.44 2282.28 1464.38 Q2280.62 1462.32 2280.62 1459.35 Q2280.62 1455.21 2283.56 1452.8 Q2286.52 1450.39 2291.66 1450.39 Q2296.82 1450.39 2299.76 1452.8 Q2302.7 1455.21 2302.7 1459.35 Q2302.7 1462.32 2301.01 1464.38 Q2299.34 1466.44 2296.36 1467.18 Q2299.74 1467.96 2301.61 1470.26 Q2303.51 1472.55 2303.51 1475.86 Q2303.51 1480.88 2300.43 1483.57 Q2297.37 1486.25 2291.66 1486.25 Q2285.94 1486.25 2282.86 1483.57 Q2279.81 1480.88 2279.81 1475.86 Q2279.81 1472.55 2281.7 1470.26 Q2283.6 1467.96 2286.98 1467.18 M2285.27 1459.79 Q2285.27 1462.48 2286.94 1463.98 Q2288.62 1465.49 2291.66 1465.49 Q2294.67 1465.49 2296.36 1463.98 Q2298.07 1462.48 2298.07 1459.79 Q2298.07 1457.11 2296.36 1455.6 Q2294.67 1454.1 2291.66 1454.1 Q2288.62 1454.1 2286.94 1455.6 Q2285.27 1457.11 2285.27 1459.79 Z" fill="#000000" fill-rule="evenodd" fill-opacity="1" /><path clip-path="url(#clip580)" d="M1221.66 1522.27 L1221.66 1532.4 L1233.72 1532.4 L1233.72 1536.95 L1221.66 1536.95 L1221.66 1556.3 Q1221.66 1560.66 1222.83 1561.9 Q1224.04 1563.14 1227.7 1563.14 L1233.72 1563.14 L1233.72 1568.04 L1227.7 1568.04 Q1220.92 1568.04 1218.35 1565.53 Q1215.77 1562.98 1215.77 1556.3 L1215.77 1536.95 L1211.47 1536.95 L1211.47 1532.4 L1215.77 1532.4 L1215.77 1522.27 L1221.66 1522.27 Z" fill="#000000" fill-rule="evenodd" fill-opacity="1" /><path clip-path="url(#clip580)" d="M1261.6 1518.52 L1275.1 1518.52 L1275.1 1523.07 L1267.46 1523.07 L1267.46 1572.09 L1275.1 1572.09 L1275.1 1576.64 L1261.6 1576.64 L1261.6 1518.52 Z" fill="#000000" fill-rule="evenodd" fill-opacity="1" /><path clip-path="url(#clip580)" d="M1310.3 1533.45 L1310.3 1538.98 Q1307.82 1537.71 1305.14 1537.07 Q1302.47 1536.44 1299.6 1536.44 Q1295.24 1536.44 1293.05 1537.77 Q1290.88 1539.11 1290.88 1541.79 Q1290.88 1543.82 1292.44 1545 Q1294 1546.15 1298.71 1547.2 L1300.72 1547.64 Q1306.96 1548.98 1309.57 1551.43 Q1312.21 1553.85 1312.21 1558.21 Q1312.21 1563.17 1308.26 1566.07 Q1304.35 1568.97 1297.47 1568.97 Q1294.61 1568.97 1291.49 1568.39 Q1288.4 1567.85 1284.96 1566.74 L1284.96 1560.69 Q1288.21 1562.38 1291.36 1563.24 Q1294.51 1564.07 1297.6 1564.07 Q1301.74 1564.07 1303.97 1562.66 Q1306.19 1561.23 1306.19 1558.65 Q1306.19 1556.27 1304.57 1554.99 Q1302.98 1553.72 1297.54 1552.54 L1295.5 1552.07 Q1290.06 1550.92 1287.64 1548.56 Q1285.22 1546.18 1285.22 1542.04 Q1285.22 1537.01 1288.78 1534.27 Q1292.35 1531.54 1298.9 1531.54 Q1302.15 1531.54 1305.02 1532.01 Q1307.88 1532.49 1310.3 1533.45 Z" fill="#000000" fill-rule="evenodd" fill-opacity="1" /><path clip-path="url(#clip580)" d="M1335.22 1518.52 L1335.22 1576.64 L1321.73 1576.64 L1321.73 1572.09 L1329.33 1572.09 L1329.33 1523.07 L1321.73 1523.07 L1321.73 1518.52 L1335.22 1518.52 Z" fill="#000000" fill-rule="evenodd" fill-opacity="1" /><polyline clip-path="url(#clip582)" style="stroke:#000000; stroke-linecap:round; stroke-linejoin:round; stroke-width:2; stroke-opacity:0.1; fill:none" points="
  193.936,1275.22 2352.76,1275.22 
  "/>
<polyline clip-path="url(#clip582)" style="stroke:#000000; stroke-linecap:round; stroke-linejoin:round; stroke-width:2; stroke-opacity:0.1; fill:none" points="
  193.936,1033.95 2352.76,1033.95 
  "/>
<polyline clip-path="url(#clip582)" style="stroke:#000000; stroke-linecap:round; stroke-linejoin:round; stroke-width:2; stroke-opacity:0.1; fill:none" points="
  193.936,792.678 2352.76,792.678 
  "/>
<polyline clip-path="url(#clip582)" style="stroke:#000000; stroke-linecap:round; stroke-linejoin:round; stroke-width:2; stroke-opacity:0.1; fill:none" points="
  193.936,551.407 2352.76,551.407 
  "/>
<polyline clip-path="url(#clip582)" style="stroke:#000000; stroke-linecap:round; stroke-linejoin:round; stroke-width:2; stroke-opacity:0.1; fill:none" points="
  193.936,310.135 2352.76,310.135 
  "/>
<polyline clip-path="url(#clip582)" style="stroke:#000000; stroke-linecap:round; stroke-linejoin:round; stroke-width:2; stroke-opacity:0.1; fill:none" points="
  193.936,68.8642 2352.76,68.8642 
  "/>
<polyline clip-path="url(#clip580)" style="stroke:#000000; stroke-linecap:round; stroke-linejoin:round; stroke-width:4; stroke-opacity:1; fill:none" points="
  193.936,1423.18 193.936,47.2441 
  "/>
<polyline clip-path="url(#clip580)" style="stroke:#000000; stroke-linecap:round; stroke-linejoin:round; stroke-width:4; stroke-opacity:1; fill:none" points="
  193.936,1275.22 212.834,1275.22 
  "/>
<polyline clip-path="url(#clip580)" style="stroke:#000000; stroke-linecap:round; stroke-linejoin:round; stroke-width:4; stroke-opacity:1; fill:none" points="
  193.936,1033.95 212.834,1033.95 
  "/>
<polyline clip-path="url(#clip580)" style="stroke:#000000; stroke-linecap:round; stroke-linejoin:round; stroke-width:4; stroke-opacity:1; fill:none" points="
  193.936,792.678 212.834,792.678 
  "/>
<polyline clip-path="url(#clip580)" style="stroke:#000000; stroke-linecap:round; stroke-linejoin:round; stroke-width:4; stroke-opacity:1; fill:none" points="
  193.936,551.407 212.834,551.407 
  "/>
<polyline clip-path="url(#clip580)" style="stroke:#000000; stroke-linecap:round; stroke-linejoin:round; stroke-width:4; stroke-opacity:1; fill:none" points="
  193.936,310.135 212.834,310.135 
  "/>
<polyline clip-path="url(#clip580)" style="stroke:#000000; stroke-linecap:round; stroke-linejoin:round; stroke-width:4; stroke-opacity:1; fill:none" points="
  193.936,68.8642 212.834,68.8642 
  "/>
<path clip-path="url(#clip580)" d="M50.9921 1275.67 L80.6679 1275.67 L80.6679 1279.61 L50.9921 1279.61 L50.9921 1275.67 Z" fill="#000000" fill-rule="evenodd" fill-opacity="1" /><path clip-path="url(#clip580)" d="M91.5706 1288.57 L99.2095 1288.57 L99.2095 1262.2 L90.8993 1263.87 L90.8993 1259.61 L99.1632 1257.94 L103.839 1257.94 L103.839 1288.57 L111.478 1288.57 L111.478 1292.5 L91.5706 1292.5 L91.5706 1288.57 Z" fill="#000000" fill-rule="evenodd" fill-opacity="1" /><path clip-path="url(#clip580)" d="M120.922 1286.62 L125.807 1286.62 L125.807 1292.5 L120.922 1292.5 L120.922 1286.62 Z" fill="#000000" fill-rule="evenodd" fill-opacity="1" /><path clip-path="url(#clip580)" d="M145.992 1261.02 Q142.381 1261.02 140.552 1264.58 Q138.746 1268.13 138.746 1275.25 Q138.746 1282.36 140.552 1285.93 Q142.381 1289.47 145.992 1289.47 Q149.626 1289.47 151.431 1285.93 Q153.26 1282.36 153.26 1275.25 Q153.26 1268.13 151.431 1264.58 Q149.626 1261.02 145.992 1261.02 M145.992 1257.32 Q151.802 1257.32 154.857 1261.92 Q157.936 1266.51 157.936 1275.25 Q157.936 1283.98 154.857 1288.59 Q151.802 1293.17 145.992 1293.17 Q140.181 1293.17 137.103 1288.59 Q134.047 1283.98 134.047 1275.25 Q134.047 1266.51 137.103 1261.92 Q140.181 1257.32 145.992 1257.32 Z" fill="#000000" fill-rule="evenodd" fill-opacity="1" /><path clip-path="url(#clip580)" d="M51.9875 1034.4 L81.6633 1034.4 L81.6633 1038.34 L51.9875 1038.34 L51.9875 1034.4 Z" fill="#000000" fill-rule="evenodd" fill-opacity="1" /><path clip-path="url(#clip580)" d="M101.756 1019.75 Q98.1447 1019.75 96.316 1023.31 Q94.5104 1026.85 94.5104 1033.98 Q94.5104 1041.09 96.316 1044.65 Q98.1447 1048.2 101.756 1048.2 Q105.39 1048.2 107.196 1044.65 Q109.024 1041.09 109.024 1033.98 Q109.024 1026.85 107.196 1023.31 Q105.39 1019.75 101.756 1019.75 M101.756 1016.04 Q107.566 1016.04 110.621 1020.65 Q113.7 1025.23 113.7 1033.98 Q113.7 1042.71 110.621 1047.32 Q107.566 1051.9 101.756 1051.9 Q95.9456 1051.9 92.8669 1047.32 Q89.8114 1042.71 89.8114 1033.98 Q89.8114 1025.23 92.8669 1020.65 Q95.9456 1016.04 101.756 1016.04 Z" fill="#000000" fill-rule="evenodd" fill-opacity="1" /><path clip-path="url(#clip580)" d="M121.918 1045.35 L126.802 1045.35 L126.802 1051.23 L121.918 1051.23 L121.918 1045.35 Z" fill="#000000" fill-rule="evenodd" fill-opacity="1" /><path clip-path="url(#clip580)" d="M137.033 1016.67 L155.39 1016.67 L155.39 1020.6 L141.316 1020.6 L141.316 1029.08 Q142.334 1028.73 143.353 1028.57 Q144.371 1028.38 145.39 1028.38 Q151.177 1028.38 154.556 1031.55 Q157.936 1034.72 157.936 1040.14 Q157.936 1045.72 154.464 1048.82 Q150.992 1051.9 144.672 1051.9 Q142.496 1051.9 140.228 1051.53 Q137.982 1051.16 135.575 1050.42 L135.575 1045.72 Q137.658 1046.85 139.881 1047.41 Q142.103 1047.97 144.58 1047.97 Q148.584 1047.97 150.922 1045.86 Q153.26 1043.75 153.26 1040.14 Q153.26 1036.53 150.922 1034.42 Q148.584 1032.32 144.58 1032.32 Q142.705 1032.32 140.83 1032.73 Q138.978 1033.15 137.033 1034.03 L137.033 1016.67 Z" fill="#000000" fill-rule="evenodd" fill-opacity="1" /><path clip-path="url(#clip580)" d="M100.76 778.477 Q97.1493 778.477 95.3206 782.041 Q93.515 785.583 93.515 792.713 Q93.515 799.819 95.3206 803.384 Q97.1493 806.925 100.76 806.925 Q104.395 806.925 106.2 803.384 Q108.029 799.819 108.029 792.713 Q108.029 785.583 106.2 782.041 Q104.395 778.477 100.76 778.477 M100.76 774.773 Q106.571 774.773 109.626 779.379 Q112.705 783.963 112.705 792.713 Q112.705 801.439 109.626 806.046 Q106.571 810.629 100.76 810.629 Q94.9502 810.629 91.8715 806.046 Q88.816 801.439 88.816 792.713 Q88.816 783.963 91.8715 779.379 Q94.9502 774.773 100.76 774.773 Z" fill="#000000" fill-rule="evenodd" fill-opacity="1" /><path clip-path="url(#clip580)" d="M120.922 804.078 L125.807 804.078 L125.807 809.958 L120.922 809.958 L120.922 804.078 Z" fill="#000000" fill-rule="evenodd" fill-opacity="1" /><path clip-path="url(#clip580)" d="M145.992 778.477 Q142.381 778.477 140.552 782.041 Q138.746 785.583 138.746 792.713 Q138.746 799.819 140.552 803.384 Q142.381 806.925 145.992 806.925 Q149.626 806.925 151.431 803.384 Q153.26 799.819 153.26 792.713 Q153.26 785.583 151.431 782.041 Q149.626 778.477 145.992 778.477 M145.992 774.773 Q151.802 774.773 154.857 779.379 Q157.936 783.963 157.936 792.713 Q157.936 801.439 154.857 806.046 Q151.802 810.629 145.992 810.629 Q140.181 810.629 137.103 806.046 Q134.047 801.439 134.047 792.713 Q134.047 783.963 137.103 779.379 Q140.181 774.773 145.992 774.773 Z" fill="#000000" fill-rule="evenodd" fill-opacity="1" /><path clip-path="url(#clip580)" d="M101.756 537.205 Q98.1447 537.205 96.316 540.77 Q94.5104 544.312 94.5104 551.441 Q94.5104 558.548 96.316 562.113 Q98.1447 565.654 101.756 565.654 Q105.39 565.654 107.196 562.113 Q109.024 558.548 109.024 551.441 Q109.024 544.312 107.196 540.77 Q105.39 537.205 101.756 537.205 M101.756 533.502 Q107.566 533.502 110.621 538.108 Q113.7 542.691 113.7 551.441 Q113.7 560.168 110.621 564.775 Q107.566 569.358 101.756 569.358 Q95.9456 569.358 92.8669 564.775 Q89.8114 560.168 89.8114 551.441 Q89.8114 542.691 92.8669 538.108 Q95.9456 533.502 101.756 533.502 Z" fill="#000000" fill-rule="evenodd" fill-opacity="1" /><path clip-path="url(#clip580)" d="M121.918 562.807 L126.802 562.807 L126.802 568.687 L121.918 568.687 L121.918 562.807 Z" fill="#000000" fill-rule="evenodd" fill-opacity="1" /><path clip-path="url(#clip580)" d="M137.033 534.127 L155.39 534.127 L155.39 538.062 L141.316 538.062 L141.316 546.534 Q142.334 546.187 143.353 546.025 Q144.371 545.84 145.39 545.84 Q151.177 545.84 154.556 549.011 Q157.936 552.182 157.936 557.599 Q157.936 563.177 154.464 566.279 Q150.992 569.358 144.672 569.358 Q142.496 569.358 140.228 568.988 Q137.982 568.617 135.575 567.876 L135.575 563.177 Q137.658 564.312 139.881 564.867 Q142.103 565.423 144.58 565.423 Q148.584 565.423 150.922 563.316 Q153.26 561.21 153.26 557.599 Q153.26 553.988 150.922 551.881 Q148.584 549.775 144.58 549.775 Q142.705 549.775 140.83 550.191 Q138.978 550.608 137.033 551.488 L137.033 534.127 Z" fill="#000000" fill-rule="evenodd" fill-opacity="1" /><path clip-path="url(#clip580)" d="M91.5706 323.48 L99.2095 323.48 L99.2095 297.115 L90.8993 298.781 L90.8993 294.522 L99.1632 292.855 L103.839 292.855 L103.839 323.48 L111.478 323.48 L111.478 327.415 L91.5706 327.415 L91.5706 323.48 Z" fill="#000000" fill-rule="evenodd" fill-opacity="1" /><path clip-path="url(#clip580)" d="M120.922 321.536 L125.807 321.536 L125.807 327.415 L120.922 327.415 L120.922 321.536 Z" fill="#000000" fill-rule="evenodd" fill-opacity="1" /><path clip-path="url(#clip580)" d="M145.992 295.934 Q142.381 295.934 140.552 299.499 Q138.746 303.041 138.746 310.17 Q138.746 317.277 140.552 320.841 Q142.381 324.383 145.992 324.383 Q149.626 324.383 151.431 320.841 Q153.26 317.277 153.26 310.17 Q153.26 303.041 151.431 299.499 Q149.626 295.934 145.992 295.934 M145.992 292.23 Q151.802 292.23 154.857 296.837 Q157.936 301.42 157.936 310.17 Q157.936 318.897 154.857 323.503 Q151.802 328.087 145.992 328.087 Q140.181 328.087 137.103 323.503 Q134.047 318.897 134.047 310.17 Q134.047 301.42 137.103 296.837 Q140.181 292.23 145.992 292.23 Z" fill="#000000" fill-rule="evenodd" fill-opacity="1" /><path clip-path="url(#clip580)" d="M92.566 82.209 L100.205 82.209 L100.205 55.8434 L91.8947 57.5101 L91.8947 53.2509 L100.159 51.5842 L104.834 51.5842 L104.834 82.209 L112.473 82.209 L112.473 86.1442 L92.566 86.1442 L92.566 82.209 Z" fill="#000000" fill-rule="evenodd" fill-opacity="1" /><path clip-path="url(#clip580)" d="M121.918 80.2646 L126.802 80.2646 L126.802 86.1442 L121.918 86.1442 L121.918 80.2646 Z" fill="#000000" fill-rule="evenodd" fill-opacity="1" /><path clip-path="url(#clip580)" d="M137.033 51.5842 L155.39 51.5842 L155.39 55.5194 L141.316 55.5194 L141.316 63.9915 Q142.334 63.6443 143.353 63.4823 Q144.371 63.2971 145.39 63.2971 Q151.177 63.2971 154.556 66.4684 Q157.936 69.6397 157.936 75.0563 Q157.936 80.635 154.464 83.7368 Q150.992 86.8155 144.672 86.8155 Q142.496 86.8155 140.228 86.4451 Q137.982 86.0748 135.575 85.334 L135.575 80.635 Q137.658 81.7692 139.881 82.3248 Q142.103 82.8803 144.58 82.8803 Q148.584 82.8803 150.922 80.7739 Q153.26 78.6674 153.26 75.0563 Q153.26 71.4452 150.922 69.3387 Q148.584 67.2323 144.58 67.2323 Q142.705 67.2323 140.83 67.6489 Q138.978 68.0656 137.033 68.9452 L137.033 51.5842 Z" fill="#000000" fill-rule="evenodd" fill-opacity="1" /><polyline clip-path="url(#clip582)" style="stroke:#009af9; stroke-linecap:round; stroke-linejoin:round; stroke-width:4; stroke-opacity:1; fill:none" points="
  255.035,551.407 257.58,551.299 260.126,550.986 262.672,550.467 265.218,549.738 267.764,548.801 270.309,547.654 272.855,546.297 275.401,544.731 277.947,542.955 
  280.492,540.971 283.038,538.779 285.584,536.382 288.13,533.78 290.676,530.976 293.221,527.973 295.767,524.773 298.313,521.377 300.859,517.79 303.404,514.016 
  305.95,510.055 308.496,505.913 311.042,501.594 313.588,497.102 316.133,492.439 318.679,487.614 321.225,482.631 323.771,477.493 326.316,472.205 328.862,466.772 
  331.408,461.198 333.954,455.488 336.5,449.655 339.045,443.699 341.591,437.626 344.137,431.442 346.683,425.151 349.228,418.759 351.774,412.277 354.32,405.709 
  356.866,399.063 359.412,392.343 361.957,385.557 364.503,378.711 367.049,371.813 369.595,364.869 372.14,357.886 374.686,350.872 377.232,343.834 379.778,336.779 
  382.324,329.716 384.869,322.648 387.415,315.583 389.961,308.53 392.507,301.495 395.052,294.486 397.598,287.511 400.144,280.576 402.69,273.686 405.236,266.848 
  407.781,260.071 410.327,253.361 412.873,246.726 415.419,240.172 417.964,233.705 420.51,227.33 423.056,221.055 425.602,214.886 428.148,208.83 430.693,202.893 
  433.239,197.081 435.785,191.398 438.331,185.851 440.876,180.445 443.422,175.187 445.968,170.082 448.514,165.135 451.06,160.352 453.605,155.734 456.151,151.289 
  458.697,147.022 461.243,142.936 463.788,139.037 466.334,135.329 468.88,131.814 471.426,128.497 473.972,125.382 476.517,122.472 479.063,119.772 481.609,117.284 
  484.155,115.012 486.7,112.958 489.246,111.125 491.792,109.517 494.338,108.135 496.884,106.983 499.429,106.062 501.975,105.375 504.521,104.924 507.067,104.712 
  509.612,104.74 512.158,104.937 514.704,105.302 517.25,105.836 519.796,106.543 522.341,107.423 524.887,108.477 527.433,109.704 529.979,111.105 532.524,112.679 
  535.07,114.425 537.616,116.342 540.162,118.43 542.708,120.685 545.253,123.105 547.799,125.69 550.345,128.438 552.891,131.348 555.437,134.416 557.982,137.635 
  560.528,141.007 563.074,144.53 565.62,148.201 568.165,152.017 570.711,155.967 573.257,160.053 575.803,164.273 578.349,168.622 580.894,173.098 583.44,177.687 
  585.986,182.392 588.532,187.208 591.077,192.131 593.623,197.157 596.169,202.275 598.715,207.484 601.261,212.778 603.806,218.155 606.352,223.608 608.898,229.129 
  611.444,234.713 613.989,240.356 616.535,246.052 619.081,251.798 621.627,257.583 624.173,263.404 626.718,269.255 629.264,275.131 631.81,281.026 634.356,286.932 
  636.901,292.845 639.447,298.758 641.993,304.667 644.539,310.564 647.085,316.444 649.63,322.301 652.176,328.129 654.722,333.923 657.268,339.675 659.813,345.382 
  662.359,351.037 664.905,356.634 667.451,362.168 669.997,367.632 672.542,373.022 675.088,378.333 677.634,383.558 680.18,388.693 682.725,393.731 685.271,398.669 
  687.817,403.502 690.363,408.224 692.909,412.83 695.454,417.315 698,421.673 700.546,425.906 703.092,430.004 705.637,433.963 708.183,437.778 710.729,441.446 
  713.275,444.967 715.821,448.334 718.366,451.542 720.912,454.587 723.458,457.465 726.004,460.179 728.549,462.722 731.095,465.089 733.641,467.278 736.187,469.284 
  738.733,471.111 741.278,472.752 743.824,474.204 746.37,475.465 748.916,476.531 751.461,477.404 754.007,478.082 756.553,478.561 759.099,478.838 761.645,478.909 
  764.19,478.798 766.736,478.569 769.282,478.21 771.828,477.717 774.373,477.09 776.919,476.326 779.465,475.426 782.011,474.39 784.557,473.218 787.102,471.91 
  789.648,470.468 792.194,468.891 794.74,467.181 797.285,465.339 799.831,463.365 802.377,461.262 804.923,459.03 807.469,456.672 810.014,454.19 812.56,451.585 
  815.106,448.861 817.652,446.021 820.197,443.065 822.743,439.996 825.289,436.817 827.835,433.533 830.381,430.146 832.926,426.658 835.472,423.071 838.018,419.391 
  840.564,415.622 843.109,411.766 845.655,407.826 848.201,403.806 850.747,399.712 853.293,395.547 855.838,391.315 858.384,387.018 860.93,382.663 863.476,378.255 
  866.021,373.797 868.567,369.294 871.113,364.748 873.659,360.166 876.205,355.55 878.75,350.905 881.296,346.239 883.842,341.555 886.388,336.856 888.933,332.148 
  891.479,327.436 894.025,322.722 896.571,318.014 899.117,313.314 901.662,308.629 904.208,303.962 906.754,299.319 909.3,294.704 911.845,290.122 914.391,285.578 
  916.937,281.078 919.483,276.623 922.029,272.218 924.574,267.869 927.12,263.58 929.666,259.356 932.212,255.202 934.757,251.122 937.303,247.121 939.849,243.2 
  942.395,239.363 944.941,235.616 947.486,231.963 950.032,228.408 952.578,224.955 955.124,221.608 957.669,218.371 960.215,215.243 962.761,212.23 965.307,209.336 
  967.853,206.564 970.398,203.918 972.944,201.401 975.49,199.015 978.036,196.762 980.581,194.646 983.127,192.668 985.673,190.833 988.219,189.141 990.765,187.597 
  993.31,186.201 995.856,184.957 998.402,183.864 1000.95,182.927 1003.49,182.146 1006.04,181.523 1008.59,181.06 1011.13,180.758 1013.68,180.619 1016.22,180.651 
  1018.77,180.777 1021.31,180.991 1023.86,181.293 1026.41,181.69 1028.95,182.181 1031.5,182.768 1034.04,183.451 1036.59,184.229 1039.13,185.104 1041.68,186.075 
  1044.23,187.141 1046.77,188.301 1049.32,189.557 1051.86,190.906 1054.41,192.348 1056.95,193.882 1059.5,195.506 1062.05,197.221 1064.59,199.022 1067.14,200.909 
  1069.68,202.88 1072.23,204.935 1074.78,207.073 1077.32,209.292 1079.87,211.59 1082.41,213.959 1084.96,216.402 1087.5,218.917 1090.05,221.504 1092.6,224.159 
  1095.14,226.881 1097.69,229.66 1100.23,232.499 1102.78,235.395 1105.32,238.347 1107.87,241.352 1110.42,244.408 1112.96,247.505 1115.51,250.645 1118.05,253.824 
  1120.6,257.041 1123.15,260.293 1125.69,263.577 1128.24,266.885 1130.78,270.216 1133.33,273.568 1135.87,276.938 1138.42,280.323 1140.97,283.719 1143.51,287.121 
  1146.06,290.526 1148.6,293.932 1151.15,297.335 1153.69,300.732 1156.24,304.119 1158.79,307.493 1161.33,310.85 1163.88,314.187 1166.42,317.501 1168.97,320.788 
  1171.51,324.044 1174.06,327.267 1176.61,330.454 1179.15,333.601 1181.7,336.704 1184.24,339.76 1186.79,342.767 1189.34,345.72 1191.88,348.619 1194.43,351.459 
  1196.97,354.237 1199.52,356.949 1202.06,359.593 1204.61,362.165 1207.16,364.666 1209.7,367.091 1212.25,369.437 1214.79,371.701 1217.34,373.88 1219.88,375.971 
  1222.43,377.976 1224.98,379.89 1227.52,381.71 1230.07,383.433 1232.61,385.057 1235.16,386.58 1237.71,388.003 1240.25,389.323 1242.8,390.536 1245.34,391.641 
  1247.89,392.635 1250.43,393.517 1252.98,394.287 1255.53,394.944 1258.07,395.485 1260.62,395.908 1263.16,396.211 1265.71,396.393 1268.25,396.453 1270.8,396.42 
  1273.35,396.341 1275.89,396.212 1278.44,396.031 1280.98,395.799 1283.53,395.516 1286.07,395.181 1288.62,394.795 1291.17,394.357 1293.71,393.868 1296.26,393.327 
  1298.8,392.734 1301.35,392.09 1303.9,391.396 1306.44,390.65 1308.99,389.856 1311.53,389.012 1314.08,388.119 1316.62,387.177 1319.17,386.185 1321.72,385.148 
  1324.26,384.065 1326.81,382.935 1329.35,381.76 1331.9,380.54 1334.44,379.277 1336.99,377.973 1339.54,376.628 1342.08,375.242 1344.63,373.817 1347.17,372.353 
  1349.72,370.854 1352.27,369.321 1354.81,367.753 1357.36,366.153 1359.9,364.521 1362.45,362.86 1364.99,361.172 1367.54,359.457 1370.09,357.718 1372.63,355.955 
  1375.18,354.17 1377.72,352.366 1380.27,350.545 1382.81,348.707 1385.36,346.854 1387.91,344.987 1390.45,343.111 1393,341.226 1395.54,339.334 1398.09,337.436 
  1400.63,335.534 1403.18,333.631 1405.73,331.728 1408.27,329.828 1410.82,327.932 1413.36,326.042 1415.91,324.159 1418.46,322.287 1421,320.426 1423.55,318.579 
  1426.09,316.748 1428.64,314.934 1431.18,313.14 1433.73,311.366 1436.28,309.616 1438.82,307.891 1441.37,306.192 1443.91,304.522 1446.46,302.882 1449,301.274 
  1451.55,299.7 1454.1,298.162 1456.64,296.662 1459.19,295.201 1461.73,293.781 1464.28,292.403 1466.83,291.068 1469.37,289.779 1471.92,288.537 1474.46,287.344 
  1477.01,286.201 1479.55,285.11 1482.1,284.073 1484.65,283.091 1487.19,282.164 1489.74,281.293 1492.28,280.48 1494.83,279.727 1497.37,279.035 1499.92,278.405 
  1502.47,277.838 1505.01,277.336 1507.56,276.9 1510.1,276.53 1512.65,276.226 1515.19,275.99 1517.74,275.823 1520.29,275.726 1522.83,275.698 1525.38,275.698 
  1527.92,275.698 1530.47,275.698 1533.02,275.698 1535.56,275.698 1538.11,275.698 1540.65,275.698 1543.2,275.698 1545.74,275.698 1548.29,275.698 1550.84,275.698 
  1553.38,275.698 1555.93,275.698 1558.47,275.698 1561.02,275.698 1563.56,275.698 1566.11,275.698 1568.66,275.698 1571.2,275.698 1573.75,275.698 1576.29,275.698 
  1578.84,275.698 1581.39,275.698 1583.93,275.698 1586.48,275.698 1589.02,275.698 1591.57,275.698 1594.11,275.698 1596.66,275.698 1599.21,275.698 1601.75,275.698 
  1604.3,275.698 1606.84,275.698 1609.39,275.698 1611.93,275.698 1614.48,275.698 1617.03,275.698 1619.57,275.698 1622.12,275.698 1624.66,275.698 1627.21,275.698 
  1629.75,275.698 1632.3,275.698 1634.85,275.698 1637.39,275.698 1639.94,275.698 1642.48,275.698 1645.03,275.698 1647.58,275.698 1650.12,275.698 1652.67,275.698 
  1655.21,275.698 1657.76,275.698 1660.3,275.698 1662.85,275.698 1665.4,275.698 1667.94,275.698 1670.49,275.698 1673.03,275.698 1675.58,275.698 1678.12,275.698 
  1680.67,275.698 1683.22,275.698 1685.76,275.698 1688.31,275.698 1690.85,275.698 1693.4,275.698 1695.95,275.698 1698.49,275.698 1701.04,275.698 1703.58,275.698 
  1706.13,275.698 1708.67,275.698 1711.22,275.698 1713.77,275.698 1716.31,275.698 1718.86,275.698 1721.4,275.698 1723.95,275.698 1726.49,275.698 1729.04,275.698 
  1731.59,275.698 1734.13,275.698 1736.68,275.698 1739.22,275.698 1741.77,275.698 1744.31,275.698 1746.86,275.698 1749.41,275.698 1751.95,275.698 1754.5,275.698 
  1757.04,275.698 1759.59,275.698 1762.14,275.698 1764.68,275.698 1767.23,275.698 1769.77,275.698 1772.32,275.698 1774.86,275.698 1777.41,275.698 1779.96,275.698 
  1782.5,275.698 1785.05,275.698 1787.59,275.698 1790.14,275.698 1792.68,275.698 1795.23,275.698 1797.78,275.698 1800.32,275.698 1802.87,275.698 1805.41,275.698 
  1807.96,275.698 1810.51,275.698 1813.05,275.698 1815.6,275.698 1818.14,275.698 1820.69,275.698 1823.23,275.698 1825.78,275.698 1828.33,275.698 1830.87,275.698 
  1833.42,275.698 1835.96,275.698 1838.51,275.698 1841.05,275.698 1843.6,275.698 1846.15,275.698 1848.69,275.698 1851.24,275.698 1853.78,275.698 1856.33,275.698 
  1858.87,275.698 1861.42,275.698 1863.97,275.698 1866.51,275.698 1869.06,275.698 1871.6,275.698 1874.15,275.698 1876.7,275.698 1879.24,275.698 1881.79,275.698 
  1884.33,275.698 1886.88,275.698 1889.42,275.698 1891.97,275.698 1894.52,275.698 1897.06,275.698 1899.61,275.698 1902.15,275.698 1904.7,275.698 1907.24,275.698 
  1909.79,275.698 1912.34,275.698 1914.88,275.698 1917.43,275.698 1919.97,275.698 1922.52,275.698 1925.07,275.698 1927.61,275.698 1930.16,275.698 1932.7,275.698 
  1935.25,275.698 1937.79,275.698 1940.34,275.698 1942.89,275.698 1945.43,275.698 1947.98,275.698 1950.52,275.698 1953.07,275.698 1955.61,275.698 1958.16,275.698 
  1960.71,275.698 1963.25,275.698 1965.8,275.698 1968.34,275.698 1970.89,275.698 1973.43,275.698 1975.98,275.698 1978.53,275.698 1981.07,275.698 1983.62,275.698 
  1986.16,275.698 1988.71,275.698 1991.26,275.698 1993.8,275.698 1996.35,275.698 1998.89,275.698 2001.44,275.698 2003.98,275.698 2006.53,275.698 2009.08,275.698 
  2011.62,275.698 2014.17,275.698 2016.71,275.698 2019.26,275.698 2021.8,275.698 2024.35,275.698 2026.9,275.698 2029.44,275.698 2031.99,275.698 2034.53,275.698 
  2037.08,275.698 2039.63,275.698 2042.17,275.698 2044.72,275.698 2047.26,275.698 2049.81,275.698 2052.35,275.698 2054.9,275.698 2057.45,275.698 2059.99,275.698 
  2062.54,275.698 2065.08,275.698 2067.63,275.698 2070.17,275.698 2072.72,275.698 2075.27,275.698 2077.81,275.698 2080.36,275.698 2082.9,275.698 2085.45,275.698 
  2087.99,275.698 2090.54,275.698 2093.09,275.698 2095.63,275.698 2098.18,275.698 2100.72,275.698 2103.27,275.698 2105.82,275.698 2108.36,275.698 2110.91,275.698 
  2113.45,275.698 2116,275.698 2118.54,275.698 2121.09,275.698 2123.64,275.698 2126.18,275.698 2128.73,275.698 2131.27,275.698 2133.82,275.698 2136.36,275.698 
  2138.91,275.698 2141.46,275.698 2144,275.698 2146.55,275.698 2149.09,275.698 2151.64,275.698 2154.19,275.698 2156.73,275.698 2159.28,275.698 2161.82,275.698 
  2164.37,275.698 2166.91,275.698 2169.46,275.698 2172.01,275.698 2174.55,275.698 2177.1,275.698 2179.64,275.698 2182.19,275.698 2184.73,275.698 2187.28,275.698 
  2189.83,275.698 2192.37,275.698 2194.92,275.698 2197.46,275.698 2200.01,275.698 2202.55,275.698 2205.1,275.698 2207.65,275.698 2210.19,275.698 2212.74,275.698 
  2215.28,275.698 2217.83,275.698 2220.38,275.698 2222.92,275.698 2225.47,275.698 2228.01,275.698 2230.56,275.698 2233.1,275.698 2235.65,275.698 2238.2,275.698 
  2240.74,275.698 2243.29,275.698 2245.83,275.698 2248.38,275.698 2250.92,275.698 2253.47,275.698 2256.02,275.698 2258.56,275.698 2261.11,275.698 2263.65,275.698 
  2266.2,275.698 2268.75,275.698 2271.29,275.698 2273.84,275.698 2276.38,275.698 2278.93,275.698 2281.47,275.698 2284.02,275.698 2286.57,275.698 2289.11,275.698 
  2291.66,275.698 
  "/>
<polyline clip-path="url(#clip582)" style="stroke:#e26f46; stroke-linecap:round; stroke-linejoin:round; stroke-width:4; stroke-opacity:1; fill:none" points="
  255.035,792.678 257.58,772.077 260.126,751.334 262.672,730.468 265.218,709.525 267.764,688.524 270.309,667.497 272.855,646.489 275.401,625.516 277.947,604.617 
  280.492,583.809 283.038,563.132 285.584,542.609 288.13,522.271 290.676,502.146 293.221,482.255 295.767,462.629 298.313,443.294 300.859,424.272 303.404,405.582 
  305.95,387.253 308.496,369.309 311.042,351.759 313.588,334.632 316.133,317.95 318.679,301.721 321.225,285.961 323.771,270.694 326.316,255.938 328.862,241.712 
  331.408,228.036 333.954,214.922 336.5,202.358 339.045,190.38 341.591,179 344.137,168.234 346.683,158.095 349.228,148.598 351.774,139.738 354.32,131.521 
  356.866,123.965 359.412,117.08 361.957,110.872 364.503,105.35 367.049,100.519 369.595,96.3752 372.14,92.9296 374.686,90.1853 377.232,88.1453 379.778,86.8116 
  382.324,86.1857 384.869,86.2675 387.415,87.0567 389.961,88.5526 392.507,90.7536 395.052,93.6574 397.598,97.2606 400.144,101.559 402.69,106.552 405.236,112.232 
  407.781,118.594 410.327,125.631 412.873,133.335 415.419,141.7 417.964,150.718 420.51,160.382 423.056,170.681 425.602,181.605 428.148,193.143 430.693,205.284 
  433.239,218.016 435.785,231.332 438.331,245.217 440.876,259.658 443.422,274.64 445.968,290.15 448.514,306.173 451.06,322.696 453.605,339.711 456.151,357.198 
  458.697,375.141 461.243,393.523 463.788,412.329 466.334,431.542 468.88,451.159 471.426,471.16 473.972,491.526 476.517,512.242 479.063,533.292 481.609,554.657 
  484.155,576.329 486.7,598.315 489.246,620.585 491.792,643.126 494.338,665.925 496.884,688.969 499.429,712.246 501.975,735.741 504.521,759.443 507.067,783.339 
  509.612,803.064 512.158,820.151 514.704,837.345 517.25,854.624 519.796,871.966 522.341,889.344 524.887,906.73 527.433,924.108 529.979,941.448 532.524,958.728 
  535.07,975.922 537.616,993.006 540.162,1009.96 542.708,1026.75 545.253,1043.38 547.799,1059.81 550.345,1076.01 552.891,1091.98 555.437,1107.68 557.982,1123.11 
  560.528,1138.25 563.074,1153.07 565.62,1167.54 568.165,1181.66 570.711,1195.44 573.257,1208.82 575.803,1221.81 578.349,1234.38 580.894,1246.51 583.44,1258.22 
  585.986,1269.47 588.532,1280.26 591.077,1290.56 593.623,1300.36 596.169,1309.68 598.715,1318.49 601.261,1326.78 603.806,1334.53 606.352,1341.74 608.898,1348.41 
  611.444,1354.54 613.989,1360.11 616.535,1365.1 619.081,1369.52 621.627,1373.37 624.173,1376.66 626.718,1379.35 629.264,1381.46 631.81,1382.97 634.356,1383.89 
  636.901,1384.24 639.447,1383.99 641.993,1383.14 644.539,1381.7 647.085,1379.67 649.63,1377.07 652.176,1373.87 654.722,1370.09 657.268,1365.72 659.813,1360.78 
  662.359,1355.28 664.905,1349.22 667.451,1342.59 669.997,1335.39 672.542,1327.66 675.088,1319.39 677.634,1310.59 680.18,1301.26 682.725,1291.41 685.271,1281.05 
  687.817,1270.2 690.363,1258.87 692.909,1247.05 695.454,1234.76 698,1222.02 700.546,1208.83 703.092,1195.22 705.637,1181.17 708.183,1166.72 710.729,1151.85 
  713.275,1136.62 715.821,1121 718.366,1105.02 720.912,1088.69 723.458,1072.02 726.004,1055.03 728.549,1037.73 731.095,1020.12 733.641,1002.22 736.187,984.049 
  738.733,965.604 741.278,946.901 743.824,927.952 746.37,908.77 748.916,889.365 751.461,869.764 754.007,849.979 756.553,830.018 759.099,809.895 761.645,790.682 
  764.19,777.33 766.736,763.892 769.282,750.377 771.828,736.808 774.373,723.19 776.919,709.556 779.465,695.91 782.011,682.279 784.557,668.68 787.102,655.124 
  789.648,641.646 792.194,628.246 794.74,614.943 797.285,601.762 799.831,588.713 802.377,575.817 804.923,563.091 807.469,550.55 810.014,538.21 812.56,526.089 
  815.106,514.196 817.652,502.547 820.197,491.159 822.743,480.047 825.289,469.226 827.835,458.696 830.381,448.478 832.926,438.587 835.472,429.037 838.018,419.831 
  840.564,410.978 843.109,402.493 845.655,394.39 848.201,386.679 850.747,379.352 853.293,372.43 855.838,365.922 858.384,359.837 860.93,354.174 863.476,348.932 
  866.021,344.125 868.567,339.76 871.113,335.845 873.659,332.385 876.205,329.389 878.75,326.862 881.296,324.78 883.842,323.158 886.388,322.005 888.933,321.323 
  891.479,321.116 894.025,321.385 896.571,322.133 899.117,323.359 901.662,325.041 904.208,327.193 906.754,329.816 909.3,332.906 911.845,336.461 914.391,340.479 
  916.937,344.957 919.483,349.889 922.029,355.27 924.574,361.097 927.12,367.365 929.666,374.068 932.212,381.199 934.757,388.752 937.303,396.72 939.849,405.1 
  942.395,413.884 944.941,423.062 947.486,432.627 950.032,442.569 952.578,452.878 955.124,463.547 957.669,474.566 960.215,485.937 962.761,497.643 965.307,509.674 
  967.853,522.02 970.398,534.669 972.944,547.613 975.49,560.838 978.036,574.343 980.581,588.125 983.127,602.165 985.673,616.453 988.219,630.978 990.765,645.731 
  993.31,660.7 995.856,675.874 998.402,691.246 1000.95,706.806 1003.49,722.539 1006.04,738.437 1008.59,754.487 1011.13,770.678 1013.68,787 1016.22,798.815 
  1018.77,808.251 1021.31,817.742 1023.86,827.284 1026.41,836.868 1028.95,846.478 1031.5,856.109 1034.04,865.743 1036.59,875.367 1039.13,884.97 1041.68,894.549 
  1044.23,904.081 1046.77,913.559 1049.32,922.974 1051.86,932.308 1054.41,941.552 1056.95,950.694 1059.5,959.722 1062.05,968.623 1064.59,977.389 1067.14,986.012 
  1069.68,994.478 1072.23,1002.77 1074.78,1010.89 1077.32,1018.81 1079.87,1026.54 1082.41,1034.07 1084.96,1041.38 1087.5,1048.47 1090.05,1055.31 1092.6,1061.91 
  1095.14,1068.26 1097.69,1074.36 1100.23,1080.2 1102.78,1085.77 1105.32,1091.05 1107.87,1096.05 1110.42,1100.74 1112.96,1105.16 1115.51,1109.27 1118.05,1113.08 
  1120.6,1116.57 1123.15,1119.74 1125.69,1122.58 1128.24,1125.12 1130.78,1127.32 1133.33,1129.2 1135.87,1130.75 1138.42,1131.95 1140.97,1132.8 1143.51,1133.33 
  1146.06,1133.53 1148.6,1133.39 1151.15,1132.9 1153.69,1132.06 1156.24,1130.88 1158.79,1129.36 1161.33,1127.51 1163.88,1125.32 1166.42,1122.8 1168.97,1119.93 
  1171.51,1116.72 1174.06,1113.18 1176.61,1109.33 1179.15,1105.15 1181.7,1100.64 1184.24,1095.81 1186.79,1090.66 1189.34,1085.2 1191.88,1079.44 1194.43,1073.38 
  1196.97,1067.03 1199.52,1060.37 1202.06,1053.43 1204.61,1046.19 1207.16,1038.7 1209.7,1030.93 1212.25,1022.9 1214.79,1014.61 1217.34,1006.06 1219.88,997.259 
  1222.43,988.229 1224.98,978.968 1227.52,969.48 1230.07,959.771 1232.61,949.848 1235.16,939.716 1237.71,929.389 1240.25,918.871 1242.8,908.168 1245.34,897.286 
  1247.89,886.232 1250.43,875.012 1252.98,863.633 1255.53,852.102 1258.07,840.424 1260.62,828.608 1263.16,816.658 1265.71,804.583 1268.25,792.578 1270.8,787.537 
  1273.35,782.46 1275.89,777.349 1278.44,772.216 1280.98,767.063 1283.53,761.885 1286.07,756.704 1288.62,751.519 1291.17,746.324 1293.71,741.148 1296.26,735.982 
  1298.8,730.825 1301.35,725.706 1303.9,720.614 1306.44,715.548 1308.99,710.547 1311.53,705.595 1314.08,700.695 1316.62,695.849 1319.17,691.06 1321.72,686.348 
  1324.26,681.718 1326.81,677.169 1329.35,672.705 1331.9,668.331 1334.44,664.055 1336.99,659.886 1339.54,655.825 1342.08,651.879 1344.63,648.053 1347.17,644.353 
  1349.72,640.779 1352.27,637.338 1354.81,634.036 1357.36,630.878 1359.9,627.87 1362.45,625.009 1364.99,622.301 1367.54,619.751 1370.09,617.365 1372.63,615.145 
  1375.18,613.095 1377.72,611.21 1380.27,609.499 1382.81,607.965 1385.36,606.612 1387.91,605.443 1390.45,604.449 1393,603.64 1395.54,603.018 1398.09,602.585 
  1400.63,602.344 1403.18,602.289 1405.73,602.422 1408.27,602.746 1410.82,603.264 1413.36,603.976 1415.91,604.88 1418.46,605.966 1421,607.243 1423.55,608.709 
  1426.09,610.365 1428.64,612.212 1431.18,614.248 1433.73,616.475 1436.28,618.893 1438.82,621.5 1441.37,624.275 1443.91,627.23 1446.46,630.365 1449,633.678 
  1451.55,637.168 1454.1,640.833 1456.64,644.671 1459.19,648.679 1461.73,652.858 1464.28,657.192 1466.83,661.685 1469.37,666.333 1471.92,671.136 1474.46,676.088 
  1477.01,681.187 1479.55,686.428 1482.1,691.808 1484.65,697.324 1487.19,702.972 1489.74,708.749 1492.28,714.65 1494.83,720.67 1497.37,726.805 1499.92,733.05 
  1502.47,739.401 1505.01,745.853 1507.56,752.4 1510.1,759.039 1512.65,765.767 1515.19,772.576 1517.74,779.463 1520.29,786.423 1522.83,792.678 1525.38,792.678 
  1527.92,792.678 1530.47,792.678 1533.02,792.678 1535.56,792.678 1538.11,792.678 1540.65,792.678 1543.2,792.678 1545.74,792.678 1548.29,792.678 1550.84,792.678 
  1553.38,792.678 1555.93,792.678 1558.47,792.678 1561.02,792.678 1563.56,792.678 1566.11,792.678 1568.66,792.678 1571.2,792.678 1573.75,792.678 1576.29,792.678 
  1578.84,792.678 1581.39,792.678 1583.93,792.678 1586.48,792.678 1589.02,792.678 1591.57,792.678 1594.11,792.678 1596.66,792.678 1599.21,792.678 1601.75,792.678 
  1604.3,792.678 1606.84,792.678 1609.39,792.678 1611.93,792.678 1614.48,792.678 1617.03,792.678 1619.57,792.678 1622.12,792.678 1624.66,792.678 1627.21,792.678 
  1629.75,792.678 1632.3,792.678 1634.85,792.678 1637.39,792.678 1639.94,792.678 1642.48,792.678 1645.03,792.678 1647.58,792.678 1650.12,792.678 1652.67,792.678 
  1655.21,792.678 1657.76,792.678 1660.3,792.678 1662.85,792.678 1665.4,792.678 1667.94,792.678 1670.49,792.678 1673.03,792.678 1675.58,792.678 1678.12,792.678 
  1680.67,792.678 1683.22,792.678 1685.76,792.678 1688.31,792.678 1690.85,792.678 1693.4,792.678 1695.95,792.678 1698.49,792.678 1701.04,792.678 1703.58,792.678 
  1706.13,792.678 1708.67,792.678 1711.22,792.678 1713.77,792.678 1716.31,792.678 1718.86,792.678 1721.4,792.678 1723.95,792.678 1726.49,792.678 1729.04,792.678 
  1731.59,792.678 1734.13,792.678 1736.68,792.678 1739.22,792.678 1741.77,792.678 1744.31,792.678 1746.86,792.678 1749.41,792.678 1751.95,792.678 1754.5,792.678 
  1757.04,792.678 1759.59,792.678 1762.14,792.678 1764.68,792.678 1767.23,792.678 1769.77,792.678 1772.32,792.678 1774.86,792.678 1777.41,792.678 1779.96,792.678 
  1782.5,792.678 1785.05,792.678 1787.59,792.678 1790.14,792.678 1792.68,792.678 1795.23,792.678 1797.78,792.678 1800.32,792.678 1802.87,792.678 1805.41,792.678 
  1807.96,792.678 1810.51,792.678 1813.05,792.678 1815.6,792.678 1818.14,792.678 1820.69,792.678 1823.23,792.678 1825.78,792.678 1828.33,792.678 1830.87,792.678 
  1833.42,792.678 1835.96,792.678 1838.51,792.678 1841.05,792.678 1843.6,792.678 1846.15,792.678 1848.69,792.678 1851.24,792.678 1853.78,792.678 1856.33,792.678 
  1858.87,792.678 1861.42,792.678 1863.97,792.678 1866.51,792.678 1869.06,792.678 1871.6,792.678 1874.15,792.678 1876.7,792.678 1879.24,792.678 1881.79,792.678 
  1884.33,792.678 1886.88,792.678 1889.42,792.678 1891.97,792.678 1894.52,792.678 1897.06,792.678 1899.61,792.678 1902.15,792.678 1904.7,792.678 1907.24,792.678 
  1909.79,792.678 1912.34,792.678 1914.88,792.678 1917.43,792.678 1919.97,792.678 1922.52,792.678 1925.07,792.678 1927.61,792.678 1930.16,792.678 1932.7,792.678 
  1935.25,792.678 1937.79,792.678 1940.34,792.678 1942.89,792.678 1945.43,792.678 1947.98,792.678 1950.52,792.678 1953.07,792.678 1955.61,792.678 1958.16,792.678 
  1960.71,792.678 1963.25,792.678 1965.8,792.678 1968.34,792.678 1970.89,792.678 1973.43,792.678 1975.98,792.678 1978.53,792.678 1981.07,792.678 1983.62,792.678 
  1986.16,792.678 1988.71,792.678 1991.26,792.678 1993.8,792.678 1996.35,792.678 1998.89,792.678 2001.44,792.678 2003.98,792.678 2006.53,792.678 2009.08,792.678 
  2011.62,792.678 2014.17,792.678 2016.71,792.678 2019.26,792.678 2021.8,792.678 2024.35,792.678 2026.9,792.678 2029.44,792.678 2031.99,792.678 2034.53,792.678 
  2037.08,792.678 2039.63,792.678 2042.17,792.678 2044.72,792.678 2047.26,792.678 2049.81,792.678 2052.35,792.678 2054.9,792.678 2057.45,792.678 2059.99,792.678 
  2062.54,792.678 2065.08,792.678 2067.63,792.678 2070.17,792.678 2072.72,792.678 2075.27,792.678 2077.81,792.678 2080.36,792.678 2082.9,792.678 2085.45,792.678 
  2087.99,792.678 2090.54,792.678 2093.09,792.678 2095.63,792.678 2098.18,792.678 2100.72,792.678 2103.27,792.678 2105.82,792.678 2108.36,792.678 2110.91,792.678 
  2113.45,792.678 2116,792.678 2118.54,792.678 2121.09,792.678 2123.64,792.678 2126.18,792.678 2128.73,792.678 2131.27,792.678 2133.82,792.678 2136.36,792.678 
  2138.91,792.678 2141.46,792.678 2144,792.678 2146.55,792.678 2149.09,792.678 2151.64,792.678 2154.19,792.678 2156.73,792.678 2159.28,792.678 2161.82,792.678 
  2164.37,792.678 2166.91,792.678 2169.46,792.678 2172.01,792.678 2174.55,792.678 2177.1,792.678 2179.64,792.678 2182.19,792.678 2184.73,792.678 2187.28,792.678 
  2189.83,792.678 2192.37,792.678 2194.92,792.678 2197.46,792.678 2200.01,792.678 2202.55,792.678 2205.1,792.678 2207.65,792.678 2210.19,792.678 2212.74,792.678 
  2215.28,792.678 2217.83,792.678 2220.38,792.678 2222.92,792.678 2225.47,792.678 2228.01,792.678 2230.56,792.678 2233.1,792.678 2235.65,792.678 2238.2,792.678 
  2240.74,792.678 2243.29,792.678 2245.83,792.678 2248.38,792.678 2250.92,792.678 2253.47,792.678 2256.02,792.678 2258.56,792.678 2261.11,792.678 2263.65,792.678 
  2266.2,792.678 2268.75,792.678 2271.29,792.678 2273.84,792.678 2276.38,792.678 2278.93,792.678 2281.47,792.678 2284.02,792.678 2286.57,792.678 2289.11,792.678 
  2291.66,792.678 
  "/>
<path clip-path="url(#clip580)" d="
M1612.18 1377.32 L2280.8 1377.32 L2280.8 1221.8 L1612.18 1221.8  Z
  " fill="#ffffff" fill-rule="evenodd" fill-opacity="1"/>
<polyline clip-path="url(#clip580)" style="stroke:#000000; stroke-linecap:round; stroke-linejoin:round; stroke-width:4; stroke-opacity:1; fill:none" points="
  1612.18,1377.32 2280.8,1377.32 2280.8,1221.8 1612.18,1221.8 1612.18,1377.32 
  "/>
<polyline clip-path="url(#clip580)" style="stroke:#009af9; stroke-linecap:round; stroke-linejoin:round; stroke-width:4; stroke-opacity:1; fill:none" points="
  1636.17,1273.64 1780.09,1273.64 
  "/>
<path clip-path="url(#clip580)" d="M1824.43 1269.97 Q1826.02 1267.1 1828.25 1265.73 Q1830.47 1264.36 1833.48 1264.36 Q1837.53 1264.36 1839.73 1267.21 Q1841.93 1270.04 1841.93 1275.27 L1841.93 1290.92 L1837.64 1290.92 L1837.64 1275.41 Q1837.64 1271.68 1836.32 1269.87 Q1835.01 1268.07 1832.3 1268.07 Q1828.99 1268.07 1827.07 1270.27 Q1825.14 1272.47 1825.14 1276.26 L1825.14 1290.92 L1820.86 1290.92 L1820.86 1275.41 Q1820.86 1271.66 1819.54 1269.87 Q1818.22 1268.07 1815.47 1268.07 Q1812.2 1268.07 1810.28 1270.29 Q1808.36 1272.49 1808.36 1276.26 L1808.36 1290.92 L1804.08 1290.92 L1804.08 1264.99 L1808.36 1264.99 L1808.36 1269.02 Q1809.82 1266.63 1811.86 1265.5 Q1813.89 1264.36 1816.69 1264.36 Q1819.52 1264.36 1821.49 1265.8 Q1823.48 1267.23 1824.43 1269.97 Z" fill="#000000" fill-rule="evenodd" fill-opacity="1" /><path clip-path="url(#clip580)" d="M1862.2 1277.88 Q1857.04 1277.88 1855.05 1279.06 Q1853.06 1280.24 1853.06 1283.09 Q1853.06 1285.36 1854.54 1286.7 Q1856.05 1288.02 1858.62 1288.02 Q1862.16 1288.02 1864.29 1285.52 Q1866.44 1283 1866.44 1278.83 L1866.44 1277.88 L1862.2 1277.88 M1870.7 1276.12 L1870.7 1290.92 L1866.44 1290.92 L1866.44 1286.98 Q1864.98 1289.34 1862.81 1290.48 Q1860.63 1291.59 1857.48 1291.59 Q1853.5 1291.59 1851.14 1289.36 Q1848.8 1287.12 1848.8 1283.37 Q1848.8 1278.99 1851.72 1276.77 Q1854.66 1274.55 1860.47 1274.55 L1866.44 1274.55 L1866.44 1274.13 Q1866.44 1271.19 1864.5 1269.6 Q1862.57 1267.98 1859.08 1267.98 Q1856.86 1267.98 1854.75 1268.51 Q1852.64 1269.04 1850.7 1270.11 L1850.7 1266.17 Q1853.04 1265.27 1855.24 1264.83 Q1857.44 1264.36 1859.52 1264.36 Q1865.14 1264.36 1867.92 1267.28 Q1870.7 1270.2 1870.7 1276.12 Z" fill="#000000" fill-rule="evenodd" fill-opacity="1" /><path clip-path="url(#clip580)" d="M1896 1265.75 L1896 1269.78 Q1894.19 1268.86 1892.25 1268.39 Q1890.31 1267.93 1888.22 1267.93 Q1885.05 1267.93 1883.45 1268.9 Q1881.88 1269.87 1881.88 1271.82 Q1881.88 1273.3 1883.01 1274.16 Q1884.15 1274.99 1887.57 1275.75 L1889.03 1276.08 Q1893.57 1277.05 1895.47 1278.83 Q1897.39 1280.59 1897.39 1283.76 Q1897.39 1287.37 1894.52 1289.48 Q1891.67 1291.59 1886.67 1291.59 Q1884.59 1291.59 1882.32 1291.17 Q1880.07 1290.78 1877.57 1289.97 L1877.57 1285.57 Q1879.94 1286.79 1882.23 1287.42 Q1884.52 1288.02 1886.76 1288.02 Q1889.77 1288.02 1891.39 1287 Q1893.01 1285.96 1893.01 1284.09 Q1893.01 1282.35 1891.83 1281.42 Q1890.68 1280.5 1886.72 1279.64 L1885.24 1279.3 Q1881.28 1278.46 1879.52 1276.75 Q1877.76 1275.01 1877.76 1272 Q1877.76 1268.35 1880.35 1266.36 Q1882.94 1264.36 1887.71 1264.36 Q1890.07 1264.36 1892.16 1264.71 Q1894.24 1265.06 1896 1265.75 Z" fill="#000000" fill-rule="evenodd" fill-opacity="1" /><path clip-path="url(#clip580)" d="M1920.7 1265.75 L1920.7 1269.78 Q1918.89 1268.86 1916.95 1268.39 Q1915 1267.93 1912.92 1267.93 Q1909.75 1267.93 1908.15 1268.9 Q1906.58 1269.87 1906.58 1271.82 Q1906.58 1273.3 1907.71 1274.16 Q1908.85 1274.99 1912.27 1275.75 L1913.73 1276.08 Q1918.27 1277.05 1920.17 1278.83 Q1922.09 1280.59 1922.09 1283.76 Q1922.09 1287.37 1919.22 1289.48 Q1916.37 1291.59 1911.37 1291.59 Q1909.29 1291.59 1907.02 1291.17 Q1904.77 1290.78 1902.27 1289.97 L1902.27 1285.57 Q1904.63 1286.79 1906.93 1287.42 Q1909.22 1288.02 1911.46 1288.02 Q1914.47 1288.02 1916.09 1287 Q1917.71 1285.96 1917.71 1284.09 Q1917.71 1282.35 1916.53 1281.42 Q1915.37 1280.5 1911.42 1279.64 L1909.94 1279.3 Q1905.98 1278.46 1904.22 1276.75 Q1902.46 1275.01 1902.46 1272 Q1902.46 1268.35 1905.05 1266.36 Q1907.64 1264.36 1912.41 1264.36 Q1914.77 1264.36 1916.86 1264.71 Q1918.94 1265.06 1920.7 1265.75 Z" fill="#000000" fill-rule="evenodd" fill-opacity="1" /><path clip-path="url(#clip580)" d="M1929.47 1285.04 L1934.36 1285.04 L1934.36 1290.92 L1929.47 1290.92 L1929.47 1285.04 Z" fill="#000000" fill-rule="evenodd" fill-opacity="1" /><path clip-path="url(#clip580)" d="M1960.47 1265.75 L1960.47 1269.78 Q1958.66 1268.86 1956.72 1268.39 Q1954.77 1267.93 1952.69 1267.93 Q1949.52 1267.93 1947.92 1268.9 Q1946.35 1269.87 1946.35 1271.82 Q1946.35 1273.3 1947.48 1274.16 Q1948.62 1274.99 1952.04 1275.75 L1953.5 1276.08 Q1958.04 1277.05 1959.93 1278.83 Q1961.86 1280.59 1961.86 1283.76 Q1961.86 1287.37 1958.99 1289.48 Q1956.14 1291.59 1951.14 1291.59 Q1949.06 1291.59 1946.79 1291.17 Q1944.54 1290.78 1942.04 1289.97 L1942.04 1285.57 Q1944.4 1286.79 1946.69 1287.42 Q1948.99 1288.02 1951.23 1288.02 Q1954.24 1288.02 1955.86 1287 Q1957.48 1285.96 1957.48 1284.09 Q1957.48 1282.35 1956.3 1281.42 Q1955.14 1280.5 1951.18 1279.64 L1949.7 1279.3 Q1945.75 1278.46 1943.99 1276.75 Q1942.23 1275.01 1942.23 1272 Q1942.23 1268.35 1944.82 1266.36 Q1947.41 1264.36 1952.18 1264.36 Q1954.54 1264.36 1956.62 1264.71 Q1958.71 1265.06 1960.47 1265.75 Z" fill="#000000" fill-rule="evenodd" fill-opacity="1" /><path clip-path="url(#clip580)" d="M1993.94 1254.94 Q1990.84 1260.27 1989.33 1265.48 Q1987.83 1270.68 1987.83 1276.03 Q1987.83 1281.38 1989.33 1286.63 Q1990.86 1291.86 1993.94 1297.17 L1990.24 1297.17 Q1986.76 1291.73 1985.03 1286.47 Q1983.31 1281.22 1983.31 1276.03 Q1983.31 1270.87 1985.03 1265.64 Q1986.74 1260.41 1990.24 1254.94 L1993.94 1254.94 Z" fill="#000000" fill-rule="evenodd" fill-opacity="1" /><path clip-path="url(#clip580)" d="M2016.97 1272.28 Q2020.33 1273 2022.2 1275.27 Q2024.1 1277.54 2024.1 1280.87 Q2024.1 1285.98 2020.58 1288.79 Q2017.06 1291.59 2010.58 1291.59 Q2008.41 1291.59 2006.09 1291.15 Q2003.8 1290.73 2001.35 1289.87 L2001.35 1285.36 Q2003.29 1286.49 2005.61 1287.07 Q2007.92 1287.65 2010.44 1287.65 Q2014.84 1287.65 2017.13 1285.92 Q2019.45 1284.18 2019.45 1280.87 Q2019.45 1277.81 2017.3 1276.1 Q2015.17 1274.36 2011.35 1274.36 L2007.32 1274.36 L2007.32 1270.52 L2011.53 1270.52 Q2014.98 1270.52 2016.81 1269.16 Q2018.64 1267.77 2018.64 1265.17 Q2018.64 1262.51 2016.74 1261.1 Q2014.87 1259.67 2011.35 1259.67 Q2009.43 1259.67 2007.23 1260.08 Q2005.03 1260.5 2002.39 1261.38 L2002.39 1257.21 Q2005.05 1256.47 2007.37 1256.1 Q2009.7 1255.73 2011.76 1255.73 Q2017.09 1255.73 2020.19 1258.16 Q2023.29 1260.57 2023.29 1264.69 Q2023.29 1267.56 2021.65 1269.55 Q2020 1271.52 2016.97 1272.28 Z" fill="#000000" fill-rule="evenodd" fill-opacity="1" /><path clip-path="url(#clip580)" d="M2047.13 1272.28 Q2050.49 1273 2052.37 1275.27 Q2054.26 1277.54 2054.26 1280.87 Q2054.26 1285.98 2050.74 1288.79 Q2047.23 1291.59 2040.74 1291.59 Q2038.57 1291.59 2036.25 1291.15 Q2033.96 1290.73 2031.51 1289.87 L2031.51 1285.36 Q2033.45 1286.49 2035.77 1287.07 Q2038.08 1287.65 2040.61 1287.65 Q2045 1287.65 2047.3 1285.92 Q2049.61 1284.18 2049.61 1280.87 Q2049.61 1277.81 2047.46 1276.1 Q2045.33 1274.36 2041.51 1274.36 L2037.48 1274.36 L2037.48 1270.52 L2041.69 1270.52 Q2045.14 1270.52 2046.97 1269.16 Q2048.8 1267.77 2048.8 1265.17 Q2048.8 1262.51 2046.9 1261.1 Q2045.03 1259.67 2041.51 1259.67 Q2039.59 1259.67 2037.39 1260.08 Q2035.19 1260.5 2032.55 1261.38 L2032.55 1257.21 Q2035.21 1256.47 2037.53 1256.1 Q2039.87 1255.73 2041.93 1255.73 Q2047.25 1255.73 2050.35 1258.16 Q2053.45 1260.57 2053.45 1264.69 Q2053.45 1267.56 2051.81 1269.55 Q2050.17 1271.52 2047.13 1272.28 Z" fill="#000000" fill-rule="evenodd" fill-opacity="1" /><path clip-path="url(#clip580)" d="M2063.18 1256.36 L2081.53 1256.36 L2081.53 1260.29 L2067.46 1260.29 L2067.46 1268.76 Q2068.48 1268.42 2069.49 1268.25 Q2070.51 1268.07 2071.53 1268.07 Q2077.32 1268.07 2080.7 1271.24 Q2084.08 1274.41 2084.08 1279.83 Q2084.08 1285.41 2080.61 1288.51 Q2077.13 1291.59 2070.81 1291.59 Q2068.64 1291.59 2066.37 1291.22 Q2064.12 1290.85 2061.72 1290.11 L2061.72 1285.41 Q2063.8 1286.54 2066.02 1287.1 Q2068.24 1287.65 2070.72 1287.65 Q2074.73 1287.65 2077.06 1285.54 Q2079.4 1283.44 2079.4 1279.83 Q2079.4 1276.22 2077.06 1274.11 Q2074.73 1272 2070.72 1272 Q2068.85 1272 2066.97 1272.42 Q2065.12 1272.84 2063.18 1273.72 L2063.18 1256.36 Z" fill="#000000" fill-rule="evenodd" fill-opacity="1" /><path clip-path="url(#clip580)" d="M2093.34 1256.36 L2111.69 1256.36 L2111.69 1260.29 L2097.62 1260.29 L2097.62 1268.76 Q2098.64 1268.42 2099.66 1268.25 Q2100.67 1268.07 2101.69 1268.07 Q2107.48 1268.07 2110.86 1271.24 Q2114.24 1274.41 2114.24 1279.83 Q2114.24 1285.41 2110.77 1288.51 Q2107.3 1291.59 2100.98 1291.59 Q2098.8 1291.59 2096.53 1291.22 Q2094.29 1290.85 2091.88 1290.11 L2091.88 1285.41 Q2093.96 1286.54 2096.18 1287.1 Q2098.41 1287.65 2100.88 1287.65 Q2104.89 1287.65 2107.23 1285.54 Q2109.56 1283.44 2109.56 1279.83 Q2109.56 1276.22 2107.23 1274.11 Q2104.89 1272 2100.88 1272 Q2099.01 1272 2097.13 1272.42 Q2095.28 1272.84 2093.34 1273.72 L2093.34 1256.36 Z" fill="#000000" fill-rule="evenodd" fill-opacity="1" /><path clip-path="url(#clip580)" d="M2136.3 1260.43 L2124.49 1278.88 L2136.3 1278.88 L2136.3 1260.43 M2135.07 1256.36 L2140.95 1256.36 L2140.95 1278.88 L2145.88 1278.88 L2145.88 1282.77 L2140.95 1282.77 L2140.95 1290.92 L2136.3 1290.92 L2136.3 1282.77 L2120.7 1282.77 L2120.7 1278.25 L2135.07 1256.36 Z" fill="#000000" fill-rule="evenodd" fill-opacity="1" /><path clip-path="url(#clip580)" d="M2166.46 1260.43 L2154.66 1278.88 L2166.46 1278.88 L2166.46 1260.43 M2165.23 1256.36 L2171.11 1256.36 L2171.11 1278.88 L2176.04 1278.88 L2176.04 1282.77 L2171.11 1282.77 L2171.11 1290.92 L2166.46 1290.92 L2166.46 1282.77 L2150.86 1282.77 L2150.86 1278.25 L2165.23 1256.36 Z" fill="#000000" fill-rule="evenodd" fill-opacity="1" /><path clip-path="url(#clip580)" d="M2197.94 1272.28 Q2201.3 1273 2203.17 1275.27 Q2205.07 1277.54 2205.07 1280.87 Q2205.07 1285.98 2201.55 1288.79 Q2198.04 1291.59 2191.55 1291.59 Q2189.38 1291.59 2187.06 1291.15 Q2184.77 1290.73 2182.32 1289.87 L2182.32 1285.36 Q2184.26 1286.49 2186.58 1287.07 Q2188.89 1287.65 2191.42 1287.65 Q2195.81 1287.65 2198.1 1285.92 Q2200.42 1284.18 2200.42 1280.87 Q2200.42 1277.81 2198.27 1276.1 Q2196.14 1274.36 2192.32 1274.36 L2188.29 1274.36 L2188.29 1270.52 L2192.5 1270.52 Q2195.95 1270.52 2197.78 1269.16 Q2199.61 1267.77 2199.61 1265.17 Q2199.61 1262.51 2197.71 1261.1 Q2195.84 1259.67 2192.32 1259.67 Q2190.4 1259.67 2188.2 1260.08 Q2186 1260.5 2183.36 1261.38 L2183.36 1257.21 Q2186.02 1256.47 2188.34 1256.1 Q2190.67 1255.73 2192.73 1255.73 Q2198.06 1255.73 2201.16 1258.16 Q2204.26 1260.57 2204.26 1264.69 Q2204.26 1267.56 2202.62 1269.55 Q2200.98 1271.52 2197.94 1272.28 Z" fill="#000000" fill-rule="evenodd" fill-opacity="1" /><path clip-path="url(#clip580)" d="M2217.97 1286.98 L2234.29 1286.98 L2234.29 1290.92 L2212.34 1290.92 L2212.34 1286.98 Q2215 1284.23 2219.59 1279.6 Q2224.19 1274.94 2225.37 1273.6 Q2227.62 1271.08 2228.5 1269.34 Q2229.4 1267.58 2229.4 1265.89 Q2229.4 1263.14 2227.46 1261.4 Q2225.54 1259.67 2222.43 1259.67 Q2220.23 1259.67 2217.78 1260.43 Q2215.35 1261.19 2212.57 1262.74 L2212.57 1258.02 Q2215.4 1256.89 2217.85 1256.31 Q2220.3 1255.73 2222.34 1255.73 Q2227.71 1255.73 2230.91 1258.42 Q2234.1 1261.1 2234.1 1265.59 Q2234.1 1267.72 2233.29 1269.64 Q2232.5 1271.54 2230.4 1274.13 Q2229.82 1274.8 2226.72 1278.02 Q2223.61 1281.22 2217.97 1286.98 Z" fill="#000000" fill-rule="evenodd" fill-opacity="1" /><path clip-path="url(#clip580)" d="M2242.83 1254.94 L2246.53 1254.94 Q2250 1260.41 2251.72 1265.64 Q2253.45 1270.87 2253.45 1276.03 Q2253.45 1281.22 2251.72 1286.47 Q2250 1291.73 2246.53 1297.17 L2242.83 1297.17 Q2245.91 1291.86 2247.41 1286.63 Q2248.94 1281.38 2248.94 1276.03 Q2248.94 1270.68 2247.41 1265.48 Q2245.91 1260.27 2242.83 1254.94 Z" fill="#000000" fill-rule="evenodd" fill-opacity="1" /><polyline clip-path="url(#clip580)" style="stroke:#e26f46; stroke-linecap:round; stroke-linejoin:round; stroke-width:4; stroke-opacity:1; fill:none" points="
  1636.17,1325.48 1780.09,1325.48 
  "/>
<path clip-path="url(#clip580)" d="M1824.43 1321.81 Q1826.02 1318.94 1828.25 1317.57 Q1830.47 1316.2 1833.48 1316.2 Q1837.53 1316.2 1839.73 1319.05 Q1841.93 1321.88 1841.93 1327.11 L1841.93 1342.76 L1837.64 1342.76 L1837.64 1327.25 Q1837.64 1323.52 1836.32 1321.71 Q1835.01 1319.91 1832.3 1319.91 Q1828.99 1319.91 1827.07 1322.11 Q1825.14 1324.31 1825.14 1328.1 L1825.14 1342.76 L1820.86 1342.76 L1820.86 1327.25 Q1820.86 1323.5 1819.54 1321.71 Q1818.22 1319.91 1815.47 1319.91 Q1812.2 1319.91 1810.28 1322.13 Q1808.36 1324.33 1808.36 1328.1 L1808.36 1342.76 L1804.08 1342.76 L1804.08 1316.83 L1808.36 1316.83 L1808.36 1320.86 Q1809.82 1318.47 1811.86 1317.34 Q1813.89 1316.2 1816.69 1316.2 Q1819.52 1316.2 1821.49 1317.64 Q1823.48 1319.07 1824.43 1321.81 Z" fill="#000000" fill-rule="evenodd" fill-opacity="1" /><path clip-path="url(#clip580)" d="M1862.2 1329.72 Q1857.04 1329.72 1855.05 1330.9 Q1853.06 1332.08 1853.06 1334.93 Q1853.06 1337.2 1854.54 1338.54 Q1856.05 1339.86 1858.62 1339.86 Q1862.16 1339.86 1864.29 1337.36 Q1866.44 1334.84 1866.44 1330.67 L1866.44 1329.72 L1862.2 1329.72 M1870.7 1327.96 L1870.7 1342.76 L1866.44 1342.76 L1866.44 1338.82 Q1864.98 1341.18 1862.81 1342.32 Q1860.63 1343.43 1857.48 1343.43 Q1853.5 1343.43 1851.14 1341.2 Q1848.8 1338.96 1848.8 1335.21 Q1848.8 1330.83 1851.72 1328.61 Q1854.66 1326.39 1860.47 1326.39 L1866.44 1326.39 L1866.44 1325.97 Q1866.44 1323.03 1864.5 1321.44 Q1862.57 1319.82 1859.08 1319.82 Q1856.86 1319.82 1854.75 1320.35 Q1852.64 1320.88 1850.7 1321.95 L1850.7 1318.01 Q1853.04 1317.11 1855.24 1316.67 Q1857.44 1316.2 1859.52 1316.2 Q1865.14 1316.2 1867.92 1319.12 Q1870.7 1322.04 1870.7 1327.96 Z" fill="#000000" fill-rule="evenodd" fill-opacity="1" /><path clip-path="url(#clip580)" d="M1896 1317.59 L1896 1321.62 Q1894.19 1320.7 1892.25 1320.23 Q1890.31 1319.77 1888.22 1319.77 Q1885.05 1319.77 1883.45 1320.74 Q1881.88 1321.71 1881.88 1323.66 Q1881.88 1325.14 1883.01 1326 Q1884.15 1326.83 1887.57 1327.59 L1889.03 1327.92 Q1893.57 1328.89 1895.47 1330.67 Q1897.39 1332.43 1897.39 1335.6 Q1897.39 1339.21 1894.52 1341.32 Q1891.67 1343.43 1886.67 1343.43 Q1884.59 1343.43 1882.32 1343.01 Q1880.07 1342.62 1877.57 1341.81 L1877.57 1337.41 Q1879.94 1338.63 1882.23 1339.26 Q1884.52 1339.86 1886.76 1339.86 Q1889.77 1339.86 1891.39 1338.84 Q1893.01 1337.8 1893.01 1335.93 Q1893.01 1334.19 1891.83 1333.26 Q1890.68 1332.34 1886.72 1331.48 L1885.24 1331.14 Q1881.28 1330.3 1879.52 1328.59 Q1877.76 1326.85 1877.76 1323.84 Q1877.76 1320.19 1880.35 1318.2 Q1882.94 1316.2 1887.71 1316.2 Q1890.07 1316.2 1892.16 1316.55 Q1894.24 1316.9 1896 1317.59 Z" fill="#000000" fill-rule="evenodd" fill-opacity="1" /><path clip-path="url(#clip580)" d="M1920.7 1317.59 L1920.7 1321.62 Q1918.89 1320.7 1916.95 1320.23 Q1915 1319.77 1912.92 1319.77 Q1909.75 1319.77 1908.15 1320.74 Q1906.58 1321.71 1906.58 1323.66 Q1906.58 1325.14 1907.71 1326 Q1908.85 1326.83 1912.27 1327.59 L1913.73 1327.92 Q1918.27 1328.89 1920.17 1330.67 Q1922.09 1332.43 1922.09 1335.6 Q1922.09 1339.21 1919.22 1341.32 Q1916.37 1343.43 1911.37 1343.43 Q1909.29 1343.43 1907.02 1343.01 Q1904.77 1342.62 1902.27 1341.81 L1902.27 1337.41 Q1904.63 1338.63 1906.93 1339.26 Q1909.22 1339.86 1911.46 1339.86 Q1914.47 1339.86 1916.09 1338.84 Q1917.71 1337.8 1917.71 1335.93 Q1917.71 1334.19 1916.53 1333.26 Q1915.37 1332.34 1911.42 1331.48 L1909.94 1331.14 Q1905.98 1330.3 1904.22 1328.59 Q1902.46 1326.85 1902.46 1323.84 Q1902.46 1320.19 1905.05 1318.2 Q1907.64 1316.2 1912.41 1316.2 Q1914.77 1316.2 1916.86 1316.55 Q1918.94 1316.9 1920.7 1317.59 Z" fill="#000000" fill-rule="evenodd" fill-opacity="1" /><path clip-path="url(#clip580)" d="M1929.47 1336.88 L1934.36 1336.88 L1934.36 1342.76 L1929.47 1342.76 L1929.47 1336.88 Z" fill="#000000" fill-rule="evenodd" fill-opacity="1" /><path clip-path="url(#clip580)" d="M1940.88 1316.83 L1945.4 1316.83 L1953.5 1338.59 L1961.6 1316.83 L1966.12 1316.83 L1956.39 1342.76 L1950.61 1342.76 L1940.88 1316.83 Z" fill="#000000" fill-rule="evenodd" fill-opacity="1" /><path clip-path="url(#clip580)" d="M1997.3 1306.78 Q1994.19 1312.11 1992.69 1317.32 Q1991.18 1322.52 1991.18 1327.87 Q1991.18 1333.22 1992.69 1338.47 Q1994.22 1343.7 1997.3 1349.01 L1993.59 1349.01 Q1990.12 1343.57 1988.38 1338.31 Q1986.67 1333.06 1986.67 1327.87 Q1986.67 1322.71 1988.38 1317.48 Q1990.1 1312.25 1993.59 1306.78 L1997.3 1306.78 Z" fill="#000000" fill-rule="evenodd" fill-opacity="1" /><path clip-path="url(#clip580)" d="M2020.33 1324.12 Q2023.68 1324.84 2025.56 1327.11 Q2027.46 1329.38 2027.46 1332.71 Q2027.46 1337.82 2023.94 1340.63 Q2020.42 1343.43 2013.94 1343.43 Q2011.76 1343.43 2009.45 1342.99 Q2007.16 1342.57 2004.7 1341.71 L2004.7 1337.2 Q2006.65 1338.33 2008.96 1338.91 Q2011.28 1339.49 2013.8 1339.49 Q2018.2 1339.49 2020.49 1337.76 Q2022.8 1336.02 2022.8 1332.71 Q2022.8 1329.65 2020.65 1327.94 Q2018.52 1326.2 2014.7 1326.2 L2010.68 1326.2 L2010.68 1322.36 L2014.89 1322.36 Q2018.34 1322.36 2020.17 1321 Q2021.99 1319.61 2021.99 1317.01 Q2021.99 1314.35 2020.1 1312.94 Q2018.22 1311.51 2014.7 1311.51 Q2012.78 1311.51 2010.58 1311.92 Q2008.38 1312.34 2005.74 1313.22 L2005.74 1309.05 Q2008.41 1308.31 2010.72 1307.94 Q2013.06 1307.57 2015.12 1307.57 Q2020.44 1307.57 2023.55 1310 Q2026.65 1312.41 2026.65 1316.53 Q2026.65 1319.4 2025 1321.39 Q2023.36 1323.36 2020.33 1324.12 Z" fill="#000000" fill-rule="evenodd" fill-opacity="1" /><path clip-path="url(#clip580)" d="M2050.49 1324.12 Q2053.85 1324.84 2055.72 1327.11 Q2057.62 1329.38 2057.62 1332.71 Q2057.62 1337.82 2054.1 1340.63 Q2050.58 1343.43 2044.1 1343.43 Q2041.93 1343.43 2039.61 1342.99 Q2037.32 1342.57 2034.87 1341.71 L2034.87 1337.2 Q2036.81 1338.33 2039.12 1338.91 Q2041.44 1339.49 2043.96 1339.49 Q2048.36 1339.49 2050.65 1337.76 Q2052.97 1336.02 2052.97 1332.71 Q2052.97 1329.65 2050.81 1327.94 Q2048.68 1326.2 2044.87 1326.2 L2040.84 1326.2 L2040.84 1322.36 L2045.05 1322.36 Q2048.5 1322.36 2050.33 1321 Q2052.16 1319.61 2052.16 1317.01 Q2052.16 1314.35 2050.26 1312.94 Q2048.38 1311.51 2044.87 1311.51 Q2042.94 1311.51 2040.74 1311.92 Q2038.55 1312.34 2035.91 1313.22 L2035.91 1309.05 Q2038.57 1308.31 2040.88 1307.94 Q2043.22 1307.57 2045.28 1307.57 Q2050.61 1307.57 2053.71 1310 Q2056.81 1312.41 2056.81 1316.53 Q2056.81 1319.4 2055.17 1321.39 Q2053.52 1323.36 2050.49 1324.12 Z" fill="#000000" fill-rule="evenodd" fill-opacity="1" /><path clip-path="url(#clip580)" d="M2066.53 1308.2 L2084.89 1308.2 L2084.89 1312.13 L2070.81 1312.13 L2070.81 1320.6 Q2071.83 1320.26 2072.85 1320.09 Q2073.87 1319.91 2074.89 1319.91 Q2080.68 1319.91 2084.05 1323.08 Q2087.43 1326.25 2087.43 1331.67 Q2087.43 1337.25 2083.96 1340.35 Q2080.49 1343.43 2074.17 1343.43 Q2071.99 1343.43 2069.73 1343.06 Q2067.48 1342.69 2065.07 1341.95 L2065.07 1337.25 Q2067.16 1338.38 2069.38 1338.94 Q2071.6 1339.49 2074.08 1339.49 Q2078.08 1339.49 2080.42 1337.38 Q2082.76 1335.28 2082.76 1331.67 Q2082.76 1328.06 2080.42 1325.95 Q2078.08 1323.84 2074.08 1323.84 Q2072.2 1323.84 2070.33 1324.26 Q2068.48 1324.68 2066.53 1325.56 L2066.53 1308.2 Z" fill="#000000" fill-rule="evenodd" fill-opacity="1" /><path clip-path="url(#clip580)" d="M2096.69 1308.2 L2115.05 1308.2 L2115.05 1312.13 L2100.98 1312.13 L2100.98 1320.6 Q2101.99 1320.26 2103.01 1320.09 Q2104.03 1319.91 2105.05 1319.91 Q2110.84 1319.91 2114.22 1323.08 Q2117.6 1326.25 2117.6 1331.67 Q2117.6 1337.25 2114.12 1340.35 Q2110.65 1343.43 2104.33 1343.43 Q2102.16 1343.43 2099.89 1343.06 Q2097.64 1342.69 2095.24 1341.95 L2095.24 1337.25 Q2097.32 1338.38 2099.54 1338.94 Q2101.76 1339.49 2104.24 1339.49 Q2108.24 1339.49 2110.58 1337.38 Q2112.92 1335.28 2112.92 1331.67 Q2112.92 1328.06 2110.58 1325.95 Q2108.24 1323.84 2104.24 1323.84 Q2102.36 1323.84 2100.49 1324.26 Q2098.64 1324.68 2096.69 1325.56 L2096.69 1308.2 Z" fill="#000000" fill-rule="evenodd" fill-opacity="1" /><path clip-path="url(#clip580)" d="M2139.66 1312.27 L2127.85 1330.72 L2139.66 1330.72 L2139.66 1312.27 M2138.43 1308.2 L2144.31 1308.2 L2144.31 1330.72 L2149.24 1330.72 L2149.24 1334.61 L2144.31 1334.61 L2144.31 1342.76 L2139.66 1342.76 L2139.66 1334.61 L2124.05 1334.61 L2124.05 1330.09 L2138.43 1308.2 Z" fill="#000000" fill-rule="evenodd" fill-opacity="1" /><path clip-path="url(#clip580)" d="M2169.82 1312.27 L2158.01 1330.72 L2169.82 1330.72 L2169.82 1312.27 M2168.59 1308.2 L2174.47 1308.2 L2174.47 1330.72 L2179.4 1330.72 L2179.4 1334.61 L2174.47 1334.61 L2174.47 1342.76 L2169.82 1342.76 L2169.82 1334.61 L2154.22 1334.61 L2154.22 1330.09 L2168.59 1308.2 Z" fill="#000000" fill-rule="evenodd" fill-opacity="1" /><path clip-path="url(#clip580)" d="M2201.3 1324.12 Q2204.66 1324.84 2206.53 1327.11 Q2208.43 1329.38 2208.43 1332.71 Q2208.43 1337.82 2204.91 1340.63 Q2201.39 1343.43 2194.91 1343.43 Q2192.73 1343.43 2190.42 1342.99 Q2188.13 1342.57 2185.67 1341.71 L2185.67 1337.2 Q2187.62 1338.33 2189.93 1338.91 Q2192.25 1339.49 2194.77 1339.49 Q2199.17 1339.49 2201.46 1337.76 Q2203.78 1336.02 2203.78 1332.71 Q2203.78 1329.65 2201.62 1327.94 Q2199.49 1326.2 2195.67 1326.2 L2191.65 1326.2 L2191.65 1322.36 L2195.86 1322.36 Q2199.31 1322.36 2201.14 1321 Q2202.97 1319.61 2202.97 1317.01 Q2202.97 1314.35 2201.07 1312.94 Q2199.19 1311.51 2195.67 1311.51 Q2193.75 1311.51 2191.55 1311.92 Q2189.36 1312.34 2186.72 1313.22 L2186.72 1309.05 Q2189.38 1308.31 2191.69 1307.94 Q2194.03 1307.57 2196.09 1307.57 Q2201.42 1307.57 2204.52 1310 Q2207.62 1312.41 2207.62 1316.53 Q2207.62 1319.4 2205.98 1321.39 Q2204.33 1323.36 2201.3 1324.12 Z" fill="#000000" fill-rule="evenodd" fill-opacity="1" /><path clip-path="url(#clip580)" d="M2231.46 1324.12 Q2234.82 1324.84 2236.69 1327.11 Q2238.59 1329.38 2238.59 1332.71 Q2238.59 1337.82 2235.07 1340.63 Q2231.55 1343.43 2225.07 1343.43 Q2222.9 1343.43 2220.58 1342.99 Q2218.29 1342.57 2215.84 1341.71 L2215.84 1337.2 Q2217.78 1338.33 2220.1 1338.91 Q2222.41 1339.49 2224.93 1339.49 Q2229.33 1339.49 2231.62 1337.76 Q2233.94 1336.02 2233.94 1332.71 Q2233.94 1329.65 2231.79 1327.94 Q2229.66 1326.2 2225.84 1326.2 L2221.81 1326.2 L2221.81 1322.36 L2226.02 1322.36 Q2229.47 1322.36 2231.3 1321 Q2233.13 1319.61 2233.13 1317.01 Q2233.13 1314.35 2231.23 1312.94 Q2229.35 1311.51 2225.84 1311.51 Q2223.92 1311.51 2221.72 1311.92 Q2219.52 1312.34 2216.88 1313.22 L2216.88 1309.05 Q2219.54 1308.31 2221.85 1307.94 Q2224.19 1307.57 2226.25 1307.57 Q2231.58 1307.57 2234.68 1310 Q2237.78 1312.41 2237.78 1316.53 Q2237.78 1319.4 2236.14 1321.39 Q2234.49 1323.36 2231.46 1324.12 Z" fill="#000000" fill-rule="evenodd" fill-opacity="1" /><path clip-path="url(#clip580)" d="M2246.18 1306.78 L2249.89 1306.78 Q2253.36 1312.25 2255.07 1317.48 Q2256.81 1322.71 2256.81 1327.87 Q2256.81 1333.06 2255.07 1338.31 Q2253.36 1343.57 2249.89 1349.01 L2246.18 1349.01 Q2249.26 1343.7 2250.77 1338.47 Q2252.29 1333.22 2252.29 1327.87 Q2252.29 1322.52 2250.77 1317.32 Q2249.26 1312.11 2246.18 1306.78 Z" fill="#000000" fill-rule="evenodd" fill-opacity="1" /></svg>
