<?xml version="1.0" encoding="utf-8"?>
<svg xmlns="http://www.w3.org/2000/svg" xmlns:xlink="http://www.w3.org/1999/xlink" width="600" height="400" viewBox="0 0 2400 1600">
<defs>
  <clipPath id="clip480">
    <rect x="0" y="0" width="2400" height="1600"/>
  </clipPath>
</defs>
<path clip-path="url(#clip480)" d="M0 1600 L2400 1600 L2400 0 L0 0  Z" fill="#ffffff" fill-rule="evenodd" fill-opacity="1"/>
<defs>
  <clipPath id="clip481">
    <rect x="480" y="0" width="1681" height="1600"/>
  </clipPath>
</defs>
<path clip-path="url(#clip480)" d="M193.936 1423.18 L2352.76 1423.18 L2352.76 47.2441 L193.936 47.2441  Z" fill="#ffffff" fill-rule="evenodd" fill-opacity="1"/>
<defs>
  <clipPath id="clip482">
    <rect x="193" y="47" width="2160" height="1377"/>
  </clipPath>
</defs>
<polyline clip-path="url(#clip482)" style="stroke:#000000; stroke-linecap:round; stroke-linejoin:round; stroke-width:2; stroke-opacity:0.1; fill:none" points="255.035,1423.18 255.035,47.2441 "/>
<polyline clip-path="url(#clip482)" style="stroke:#000000; stroke-linecap:round; stroke-linejoin:round; stroke-width:2; stroke-opacity:0.1; fill:none" points="764.19,1423.18 764.19,47.2441 "/>
<polyline clip-path="url(#clip482)" style="stroke:#000000; stroke-linecap:round; stroke-linejoin:round; stroke-width:2; stroke-opacity:0.1; fill:none" points="1273.35,1423.18 1273.35,47.2441 "/>
<polyline clip-path="url(#clip482)" style="stroke:#000000; stroke-linecap:round; stroke-linejoin:round; stroke-width:2; stroke-opacity:0.1; fill:none" points="1782.5,1423.18 1782.5,47.2441 "/>
<polyline clip-path="url(#clip482)" style="stroke:#000000; stroke-linecap:round; stroke-linejoin:round; stroke-width:2; stroke-opacity:0.1; fill:none" points="2291.66,1423.18 2291.66,47.2441 "/>
<polyline clip-path="url(#clip480)" style="stroke:#000000; stroke-linecap:round; stroke-linejoin:round; stroke-width:4; stroke-opacity:1; fill:none" points="193.936,1423.18 2352.76,1423.18 "/>
<polyline clip-path="url(#clip480)" style="stroke:#000000; stroke-linecap:round; stroke-linejoin:round; stroke-width:4; stroke-opacity:1; fill:none" points="255.035,1423.18 255.035,1404.28 "/>
<polyline clip-path="url(#clip480)" style="stroke:#000000; stroke-linecap:round; stroke-linejoin:round; stroke-width:4; stroke-opacity:1; fill:none" points="764.19,1423.18 764.19,1404.28 "/>
<polyline clip-path="url(#clip480)" style="stroke:#000000; stroke-linecap:round; stroke-linejoin:round; stroke-width:4; stroke-opacity:1; fill:none" points="1273.35,1423.18 1273.35,1404.28 "/>
<polyline clip-path="url(#clip480)" style="stroke:#000000; stroke-linecap:round; stroke-linejoin:round; stroke-width:4; stroke-opacity:1; fill:none" points="1782.5,1423.18 1782.5,1404.28 "/>
<polyline clip-path="url(#clip480)" style="stroke:#000000; stroke-linecap:round; stroke-linejoin:round; stroke-width:4; stroke-opacity:1; fill:none" points="2291.66,1423.18 2291.66,1404.28 "/>
<path clip-path="url(#clip480)" d="M255.035 1454.1 Q251.424 1454.1 249.595 1457.66 Q247.789 1461.2 247.789 1468.33 Q247.789 1475.44 249.595 1479.01 Q251.424 1482.55 255.035 1482.55 Q258.669 1482.55 260.474 1479.01 Q262.303 1475.44 262.303 1468.33 Q262.303 1461.2 260.474 1457.66 Q258.669 1454.1 255.035 1454.1 M255.035 1450.39 Q260.845 1450.39 263.9 1455 Q266.979 1459.58 266.979 1468.33 Q266.979 1477.06 263.9 1481.67 Q260.845 1486.25 255.035 1486.25 Q249.225 1486.25 246.146 1481.67 Q243.09 1477.06 243.09 1468.33 Q243.09 1459.58 246.146 1455 Q249.225 1450.39 255.035 1450.39 Z" fill="#000000" fill-rule="nonzero" fill-opacity="1" /><path clip-path="url(#clip480)" d="M758.843 1481.64 L775.162 1481.64 L775.162 1485.58 L753.218 1485.58 L753.218 1481.64 Q755.88 1478.89 760.463 1474.26 Q765.07 1469.61 766.25 1468.27 Q768.496 1465.74 769.375 1464.01 Q770.278 1462.25 770.278 1460.56 Q770.278 1457.8 768.334 1456.07 Q766.413 1454.33 763.311 1454.33 Q761.112 1454.33 758.658 1455.09 Q756.227 1455.86 753.45 1457.41 L753.45 1452.69 Q756.274 1451.55 758.727 1450.97 Q761.181 1450.39 763.218 1450.39 Q768.588 1450.39 771.783 1453.08 Q774.977 1455.77 774.977 1460.26 Q774.977 1462.39 774.167 1464.31 Q773.38 1466.2 771.274 1468.8 Q770.695 1469.47 767.593 1472.69 Q764.491 1475.88 758.843 1481.64 Z" fill="#000000" fill-rule="nonzero" fill-opacity="1" /><path clip-path="url(#clip480)" d="M1276.36 1455.09 L1264.55 1473.54 L1276.36 1473.54 L1276.36 1455.09 M1275.13 1451.02 L1281.01 1451.02 L1281.01 1473.54 L1285.94 1473.54 L1285.94 1477.43 L1281.01 1477.43 L1281.01 1485.58 L1276.36 1485.58 L1276.36 1477.43 L1260.75 1477.43 L1260.75 1472.92 L1275.13 1451.02 Z" fill="#000000" fill-rule="nonzero" fill-opacity="1" /><path clip-path="url(#clip480)" d="M1782.91 1466.44 Q1779.76 1466.44 1777.91 1468.59 Q1776.08 1470.74 1776.08 1474.49 Q1776.08 1478.22 1777.91 1480.39 Q1779.76 1482.55 1782.91 1482.55 Q1786.05 1482.55 1787.88 1480.39 Q1789.74 1478.22 1789.74 1474.49 Q1789.74 1470.74 1787.88 1468.59 Q1786.05 1466.44 1782.91 1466.44 M1792.19 1451.78 L1792.19 1456.04 Q1790.43 1455.21 1788.62 1454.77 Q1786.84 1454.33 1785.08 1454.33 Q1780.45 1454.33 1778 1457.45 Q1775.57 1460.58 1775.22 1466.9 Q1776.59 1464.89 1778.65 1463.82 Q1780.71 1462.73 1783.18 1462.73 Q1788.39 1462.73 1791.4 1465.9 Q1794.43 1469.05 1794.43 1474.49 Q1794.43 1479.82 1791.29 1483.03 Q1788.14 1486.25 1782.91 1486.25 Q1776.91 1486.25 1773.74 1481.67 Q1770.57 1477.06 1770.57 1468.33 Q1770.57 1460.14 1774.46 1455.28 Q1778.35 1450.39 1784.9 1450.39 Q1786.66 1450.39 1788.44 1450.74 Q1790.24 1451.09 1792.19 1451.78 Z" fill="#000000" fill-rule="nonzero" fill-opacity="1" /><path clip-path="url(#clip480)" d="M2291.66 1469.17 Q2288.32 1469.17 2286.4 1470.95 Q2284.5 1472.73 2284.5 1475.86 Q2284.5 1478.98 2286.4 1480.77 Q2288.32 1482.55 2291.66 1482.55 Q2294.99 1482.55 2296.91 1480.77 Q2298.83 1478.96 2298.83 1475.86 Q2298.83 1472.73 2296.91 1470.95 Q2295.01 1469.17 2291.66 1469.17 M2286.98 1467.18 Q2283.97 1466.44 2282.28 1464.38 Q2280.62 1462.32 2280.62 1459.35 Q2280.62 1455.21 2283.56 1452.8 Q2286.52 1450.39 2291.66 1450.39 Q2296.82 1450.39 2299.76 1452.8 Q2302.7 1455.21 2302.7 1459.35 Q2302.7 1462.32 2301.01 1464.38 Q2299.34 1466.44 2296.36 1467.18 Q2299.74 1467.96 2301.61 1470.26 Q2303.51 1472.55 2303.51 1475.86 Q2303.51 1480.88 2300.43 1483.57 Q2297.37 1486.25 2291.66 1486.25 Q2285.94 1486.25 2282.86 1483.57 Q2279.81 1480.88 2279.81 1475.86 Q2279.81 1472.55 2281.7 1470.26 Q2283.6 1467.96 2286.98 1467.18 M2285.27 1459.79 Q2285.27 1462.48 2286.94 1463.98 Q2288.62 1465.49 2291.66 1465.49 Q2294.67 1465.49 2296.36 1463.98 Q2298.07 1462.48 2298.07 1459.79 Q2298.07 1457.11 2296.36 1455.6 Q2294.67 1454.1 2291.66 1454.1 Q2288.62 1454.1 2286.94 1455.6 Q2285.27 1457.11 2285.27 1459.79 Z" fill="#000000" fill-rule="nonzero" fill-opacity="1" /><path clip-path="url(#clip480)" d="M1221.66 1522.27 L1221.66 1532.4 L1233.72 1532.4 L1233.72 1536.95 L1221.66 1536.95 L1221.66 1556.3 Q1221.66 1560.66 1222.83 1561.9 Q1224.04 1563.14 1227.7 1563.14 L1233.72 1563.14 L1233.72 1568.04 L1227.7 1568.04 Q1220.92 1568.04 1218.35 1565.53 Q1215.77 1562.98 1215.77 1556.3 L1215.77 1536.95 L1211.47 1536.95 L1211.47 1532.4 L1215.77 1532.4 L1215.77 1522.27 L1221.66 1522.27 Z" fill="#000000" fill-rule="nonzero" fill-opacity="1" /><path clip-path="url(#clip480)" d="M1261.6 1518.52 L1275.1 1518.52 L1275.1 1523.07 L1267.46 1523.07 L1267.46 1572.09 L1275.1 1572.09 L1275.1 1576.64 L1261.6 1576.64 L1261.6 1518.52 Z" fill="#000000" fill-rule="nonzero" fill-opacity="1" /><path clip-path="url(#clip480)" d="M1310.3 1533.45 L1310.3 1538.98 Q1307.82 1537.71 1305.14 1537.07 Q1302.47 1536.44 1299.6 1536.44 Q1295.24 1536.44 1293.05 1537.77 Q1290.88 1539.11 1290.88 1541.79 Q1290.88 1543.82 1292.44 1545 Q1294 1546.15 1298.71 1547.2 L1300.72 1547.64 Q1306.96 1548.98 1309.57 1551.43 Q1312.21 1553.85 1312.21 1558.21 Q1312.21 1563.17 1308.26 1566.07 Q1304.35 1568.97 1297.47 1568.97 Q1294.61 1568.97 1291.49 1568.39 Q1288.4 1567.85 1284.96 1566.74 L1284.96 1560.69 Q1288.21 1562.38 1291.36 1563.24 Q1294.51 1564.07 1297.6 1564.07 Q1301.74 1564.07 1303.97 1562.66 Q1306.19 1561.23 1306.19 1558.65 Q1306.19 1556.27 1304.57 1554.99 Q1302.98 1553.72 1297.54 1552.54 L1295.5 1552.07 Q1290.06 1550.92 1287.64 1548.56 Q1285.22 1546.18 1285.22 1542.04 Q1285.22 1537.01 1288.78 1534.27 Q1292.35 1531.54 1298.9 1531.54 Q1302.15 1531.54 1305.02 1532.01 Q1307.88 1532.49 1310.3 1533.45 Z" fill="#000000" fill-rule="nonzero" fill-opacity="1" /><path clip-path="url(#clip480)" d="M1335.22 1518.52 L1335.22 1576.64 L1321.73 1576.64 L1321.73 1572.09 L1329.33 1572.09 L1329.33 1523.07 L1321.73 1523.07 L1321.73 1518.52 L1335.22 1518.52 Z" fill="#000000" fill-rule="nonzero" fill-opacity="1" /><polyline clip-path="url(#clip482)" style="stroke:#000000; stroke-linecap:round; stroke-linejoin:round; stroke-width:2; stroke-opacity:0.1; fill:none" points="193.936,1276.45 2352.76,1276.45 "/>
<polyline clip-path="url(#clip482)" style="stroke:#000000; stroke-linecap:round; stroke-linejoin:round; stroke-width:2; stroke-opacity:0.1; fill:none" points="193.936,1034.82 2352.76,1034.82 "/>
<polyline clip-path="url(#clip482)" style="stroke:#000000; stroke-linecap:round; stroke-linejoin:round; stroke-width:2; stroke-opacity:0.1; fill:none" points="193.936,793.181 2352.76,793.181 "/>
<polyline clip-path="url(#clip482)" style="stroke:#000000; stroke-linecap:round; stroke-linejoin:round; stroke-width:2; stroke-opacity:0.1; fill:none" points="193.936,551.545 2352.76,551.545 "/>
<polyline clip-path="url(#clip482)" style="stroke:#000000; stroke-linecap:round; stroke-linejoin:round; stroke-width:2; stroke-opacity:0.1; fill:none" points="193.936,309.908 2352.76,309.908 "/>
<polyline clip-path="url(#clip482)" style="stroke:#000000; stroke-linecap:round; stroke-linejoin:round; stroke-width:2; stroke-opacity:0.1; fill:none" points="193.936,68.2718 2352.76,68.2718 "/>
<polyline clip-path="url(#clip480)" style="stroke:#000000; stroke-linecap:round; stroke-linejoin:round; stroke-width:4; stroke-opacity:1; fill:none" points="193.936,1423.18 193.936,47.2441 "/>
<polyline clip-path="url(#clip480)" style="stroke:#000000; stroke-linecap:round; stroke-linejoin:round; stroke-width:4; stroke-opacity:1; fill:none" points="193.936,1276.45 212.834,1276.45 "/>
<polyline clip-path="url(#clip480)" style="stroke:#000000; stroke-linecap:round; stroke-linejoin:round; stroke-width:4; stroke-opacity:1; fill:none" points="193.936,1034.82 212.834,1034.82 "/>
<polyline clip-path="url(#clip480)" style="stroke:#000000; stroke-linecap:round; stroke-linejoin:round; stroke-width:4; stroke-opacity:1; fill:none" points="193.936,793.181 212.834,793.181 "/>
<polyline clip-path="url(#clip480)" style="stroke:#000000; stroke-linecap:round; stroke-linejoin:round; stroke-width:4; stroke-opacity:1; fill:none" points="193.936,551.545 212.834,551.545 "/>
<polyline clip-path="url(#clip480)" style="stroke:#000000; stroke-linecap:round; stroke-linejoin:round; stroke-width:4; stroke-opacity:1; fill:none" points="193.936,309.908 212.834,309.908 "/>
<polyline clip-path="url(#clip480)" style="stroke:#000000; stroke-linecap:round; stroke-linejoin:round; stroke-width:4; stroke-opacity:1; fill:none" points="193.936,68.2718 212.834,68.2718 "/>
<path clip-path="url(#clip480)" d="M50.9921 1276.91 L80.6679 1276.91 L80.6679 1280.84 L50.9921 1280.84 L50.9921 1276.91 Z" fill="#000000" fill-rule="nonzero" fill-opacity="1" /><path clip-path="url(#clip480)" d="M91.5706 1289.8 L99.2095 1289.8 L99.2095 1263.43 L90.8993 1265.1 L90.8993 1260.84 L99.1632 1259.17 L103.839 1259.17 L103.839 1289.8 L111.478 1289.8 L111.478 1293.73 L91.5706 1293.73 L91.5706 1289.8 Z" fill="#000000" fill-rule="nonzero" fill-opacity="1" /><path clip-path="url(#clip480)" d="M120.922 1287.85 L125.807 1287.85 L125.807 1293.73 L120.922 1293.73 L120.922 1287.85 Z" fill="#000000" fill-rule="nonzero" fill-opacity="1" /><path clip-path="url(#clip480)" d="M145.992 1262.25 Q142.381 1262.25 140.552 1265.82 Q138.746 1269.36 138.746 1276.49 Q138.746 1283.6 140.552 1287.16 Q142.381 1290.7 145.992 1290.7 Q149.626 1290.7 151.431 1287.16 Q153.26 1283.6 153.26 1276.49 Q153.26 1269.36 151.431 1265.82 Q149.626 1262.25 145.992 1262.25 M145.992 1258.55 Q151.802 1258.55 154.857 1263.16 Q157.936 1267.74 157.936 1276.49 Q157.936 1285.22 154.857 1289.82 Q151.802 1294.41 145.992 1294.41 Q140.181 1294.41 137.103 1289.82 Q134.047 1285.22 134.047 1276.49 Q134.047 1267.74 137.103 1263.16 Q140.181 1258.55 145.992 1258.55 Z" fill="#000000" fill-rule="nonzero" fill-opacity="1" /><path clip-path="url(#clip480)" d="M51.9875 1035.27 L81.6633 1035.27 L81.6633 1039.2 L51.9875 1039.2 L51.9875 1035.27 Z" fill="#000000" fill-rule="nonzero" fill-opacity="1" /><path clip-path="url(#clip480)" d="M101.756 1020.62 Q98.1447 1020.62 96.316 1024.18 Q94.5104 1027.72 94.5104 1034.85 Q94.5104 1041.96 96.316 1045.52 Q98.1447 1049.07 101.756 1049.07 Q105.39 1049.07 107.196 1045.52 Q109.024 1041.96 109.024 1034.85 Q109.024 1027.72 107.196 1024.18 Q105.39 1020.62 101.756 1020.62 M101.756 1016.91 Q107.566 1016.91 110.621 1021.52 Q113.7 1026.1 113.7 1034.85 Q113.7 1043.58 110.621 1048.19 Q107.566 1052.77 101.756 1052.77 Q95.9456 1052.77 92.8669 1048.19 Q89.8114 1043.58 89.8114 1034.85 Q89.8114 1026.1 92.8669 1021.52 Q95.9456 1016.91 101.756 1016.91 Z" fill="#000000" fill-rule="nonzero" fill-opacity="1" /><path clip-path="url(#clip480)" d="M121.918 1046.22 L126.802 1046.22 L126.802 1052.1 L121.918 1052.1 L121.918 1046.22 Z" fill="#000000" fill-rule="nonzero" fill-opacity="1" /><path clip-path="url(#clip480)" d="M137.033 1017.54 L155.39 1017.54 L155.39 1021.47 L141.316 1021.47 L141.316 1029.95 Q142.334 1029.6 143.353 1029.44 Q144.371 1029.25 145.39 1029.25 Q151.177 1029.25 154.556 1032.42 Q157.936 1035.59 157.936 1041.01 Q157.936 1046.59 154.464 1049.69 Q150.992 1052.77 144.672 1052.77 Q142.496 1052.77 140.228 1052.4 Q137.982 1052.03 135.575 1051.29 L135.575 1046.59 Q137.658 1047.72 139.881 1048.28 Q142.103 1048.83 144.58 1048.83 Q148.584 1048.83 150.922 1046.73 Q153.26 1044.62 153.26 1041.01 Q153.26 1037.4 150.922 1035.29 Q148.584 1033.19 144.58 1033.19 Q142.705 1033.19 140.83 1033.6 Q138.978 1034.02 137.033 1034.9 L137.033 1017.54 Z" fill="#000000" fill-rule="nonzero" fill-opacity="1" /><path clip-path="url(#clip480)" d="M100.76 778.98 Q97.1493 778.98 95.3206 782.545 Q93.515 786.087 93.515 793.216 Q93.515 800.323 95.3206 803.887 Q97.1493 807.429 100.76 807.429 Q104.395 807.429 106.2 803.887 Q108.029 800.323 108.029 793.216 Q108.029 786.087 106.2 782.545 Q104.395 778.98 100.76 778.98 M100.76 775.276 Q106.571 775.276 109.626 779.883 Q112.705 784.466 112.705 793.216 Q112.705 801.943 109.626 806.549 Q106.571 811.133 100.76 811.133 Q94.9502 811.133 91.8715 806.549 Q88.816 801.943 88.816 793.216 Q88.816 784.466 91.8715 779.883 Q94.9502 775.276 100.76 775.276 Z" fill="#000000" fill-rule="nonzero" fill-opacity="1" /><path clip-path="url(#clip480)" d="M120.922 804.582 L125.807 804.582 L125.807 810.461 L120.922 810.461 L120.922 804.582 Z" fill="#000000" fill-rule="nonzero" fill-opacity="1" /><path clip-path="url(#clip480)" d="M145.992 778.98 Q142.381 778.98 140.552 782.545 Q138.746 786.087 138.746 793.216 Q138.746 800.323 140.552 803.887 Q142.381 807.429 145.992 807.429 Q149.626 807.429 151.431 803.887 Q153.26 800.323 153.26 793.216 Q153.26 786.087 151.431 782.545 Q149.626 778.98 145.992 778.98 M145.992 775.276 Q151.802 775.276 154.857 779.883 Q157.936 784.466 157.936 793.216 Q157.936 801.943 154.857 806.549 Q151.802 811.133 145.992 811.133 Q140.181 811.133 137.103 806.549 Q134.047 801.943 134.047 793.216 Q134.047 784.466 137.103 779.883 Q140.181 775.276 145.992 775.276 Z" fill="#000000" fill-rule="nonzero" fill-opacity="1" /><path clip-path="url(#clip480)" d="M101.756 537.344 Q98.1447 537.344 96.316 540.908 Q94.5104 544.45 94.5104 551.58 Q94.5104 558.686 96.316 562.251 Q98.1447 565.792 101.756 565.792 Q105.39 565.792 107.196 562.251 Q109.024 558.686 109.024 551.58 Q109.024 544.45 107.196 540.908 Q105.39 537.344 101.756 537.344 M101.756 533.64 Q107.566 533.64 110.621 538.246 Q113.7 542.83 113.7 551.58 Q113.7 560.306 110.621 564.913 Q107.566 569.496 101.756 569.496 Q95.9456 569.496 92.8669 564.913 Q89.8114 560.306 89.8114 551.58 Q89.8114 542.83 92.8669 538.246 Q95.9456 533.64 101.756 533.64 Z" fill="#000000" fill-rule="nonzero" fill-opacity="1" /><path clip-path="url(#clip480)" d="M121.918 562.945 L126.802 562.945 L126.802 568.825 L121.918 568.825 L121.918 562.945 Z" fill="#000000" fill-rule="nonzero" fill-opacity="1" /><path clip-path="url(#clip480)" d="M137.033 534.265 L155.39 534.265 L155.39 538.2 L141.316 538.2 L141.316 546.672 Q142.334 546.325 143.353 546.163 Q144.371 545.978 145.39 545.978 Q151.177 545.978 154.556 549.149 Q157.936 552.32 157.936 557.737 Q157.936 563.316 154.464 566.417 Q150.992 569.496 144.672 569.496 Q142.496 569.496 140.228 569.126 Q137.982 568.755 135.575 568.015 L135.575 563.316 Q137.658 564.45 139.881 565.005 Q142.103 565.561 144.58 565.561 Q148.584 565.561 150.922 563.455 Q153.26 561.348 153.26 557.737 Q153.26 554.126 150.922 552.019 Q148.584 549.913 144.58 549.913 Q142.705 549.913 140.83 550.33 Q138.978 550.746 137.033 551.626 L137.033 534.265 Z" fill="#000000" fill-rule="nonzero" fill-opacity="1" /><path clip-path="url(#clip480)" d="M91.5706 323.253 L99.2095 323.253 L99.2095 296.888 L90.8993 298.554 L90.8993 294.295 L99.1632 292.628 L103.839 292.628 L103.839 323.253 L111.478 323.253 L111.478 327.188 L91.5706 327.188 L91.5706 323.253 Z" fill="#000000" fill-rule="nonzero" fill-opacity="1" /><path clip-path="url(#clip480)" d="M120.922 321.309 L125.807 321.309 L125.807 327.188 L120.922 327.188 L120.922 321.309 Z" fill="#000000" fill-rule="nonzero" fill-opacity="1" /><path clip-path="url(#clip480)" d="M145.992 295.707 Q142.381 295.707 140.552 299.272 Q138.746 302.813 138.746 309.943 Q138.746 317.05 140.552 320.614 Q142.381 324.156 145.992 324.156 Q149.626 324.156 151.431 320.614 Q153.26 317.05 153.26 309.943 Q153.26 302.813 151.431 299.272 Q149.626 295.707 145.992 295.707 M145.992 292.003 Q151.802 292.003 154.857 296.61 Q157.936 301.193 157.936 309.943 Q157.936 318.67 154.857 323.276 Q151.802 327.86 145.992 327.86 Q140.181 327.86 137.103 323.276 Q134.047 318.67 134.047 309.943 Q134.047 301.193 137.103 296.61 Q140.181 292.003 145.992 292.003 Z" fill="#000000" fill-rule="nonzero" fill-opacity="1" /><path clip-path="url(#clip480)" d="M92.566 81.6167 L100.205 81.6167 L100.205 55.2511 L91.8947 56.9177 L91.8947 52.6585 L100.159 50.9918 L104.834 50.9918 L104.834 81.6167 L112.473 81.6167 L112.473 85.5518 L92.566 85.5518 L92.566 81.6167 Z" fill="#000000" fill-rule="nonzero" fill-opacity="1" /><path clip-path="url(#clip480)" d="M121.918 79.6722 L126.802 79.6722 L126.802 85.5518 L121.918 85.5518 L121.918 79.6722 Z" fill="#000000" fill-rule="nonzero" fill-opacity="1" /><path clip-path="url(#clip480)" d="M137.033 50.9918 L155.39 50.9918 L155.39 54.927 L141.316 54.927 L141.316 63.3992 Q142.334 63.0519 143.353 62.8899 Q144.371 62.7047 145.39 62.7047 Q151.177 62.7047 154.556 65.876 Q157.936 69.0473 157.936 74.4639 Q157.936 80.0426 154.464 83.1444 Q150.992 86.2231 144.672 86.2231 Q142.496 86.2231 140.228 85.8527 Q137.982 85.4824 135.575 84.7416 L135.575 80.0426 Q137.658 81.1768 139.881 81.7324 Q142.103 82.288 144.58 82.288 Q148.584 82.288 150.922 80.1815 Q153.26 78.075 153.26 74.4639 Q153.26 70.8528 150.922 68.7464 Q148.584 66.6399 144.58 66.6399 Q142.705 66.6399 140.83 67.0566 Q138.978 67.4732 137.033 68.3528 L137.033 50.9918 Z" fill="#000000" fill-rule="nonzero" fill-opacity="1" /><polyline clip-path="url(#clip482)" style="stroke:#009af9; stroke-linecap:round; stroke-linejoin:round; stroke-width:4; stroke-opacity:1; fill:none" points="255.035,551.545 257.58,551.442 260.126,551.132 262.672,550.613 265.218,549.885 267.764,548.946 270.309,547.797 272.855,546.437 275.401,544.866 277.947,543.085 280.492,541.096 283.038,538.898 285.584,536.494 288.13,533.886 290.676,531.075 293.221,528.063 295.767,524.854 298.313,521.449 300.859,517.853 303.404,514.067 305.95,510.097 308.496,505.945 311.042,501.615 313.588,497.112 316.133,492.439 318.679,487.602 321.225,482.605 323.771,477.453 326.316,472.151 328.862,466.704 331.408,461.117 333.954,455.397 336.5,449.548 339.045,443.577 341.591,437.489 344.137,431.29 346.683,424.988 349.228,418.587 351.774,412.094 354.32,405.517 356.866,398.86 359.412,392.132 361.957,385.338 364.503,378.486 367.049,371.582 369.595,364.634 372.14,357.647 374.686,350.63 377.232,343.589 379.778,336.531 382.324,329.464 384.869,322.394 387.415,315.328 389.961,308.274 392.507,301.238 395.052,294.228 397.598,287.251 400.144,280.313 402.69,273.422 405.236,266.584 407.781,259.806 410.327,253.095 412.873,246.458 415.419,239.902 417.964,233.432 420.51,227.056 423.056,220.78 425.602,214.61 428.148,208.552 430.693,202.613 433.239,196.798 435.785,191.113 438.331,185.565 440.876,180.158 443.422,174.898 445.968,169.791 448.514,164.841 451.06,160.054 453.605,155.435 456.151,150.989 458.697,146.72 461.243,142.632 463.788,138.73 466.334,135.019 468.88,131.501 471.426,128.182 473.972,125.064 476.517,122.152 479.063,119.449 481.609,116.957 484.155,114.681 486.7,112.623 489.246,110.786 491.792,109.173 494.338,107.787 496.884,106.63 499.429,105.704 501.975,105.013 504.521,104.557 507.067,104.34 509.612,104.351 512.158,104.538 514.704,104.897 517.25,105.428 519.796,106.132 522.341,107.011 524.887,108.063 527.433,109.29 529.979,110.69 532.524,112.264 535.07,114.01 537.616,115.927 540.162,118.016 542.708,120.273 545.253,122.697 547.799,125.286 550.345,128.039 552.891,130.952 555.437,134.024 557.982,137.252 560.528,140.632 563.074,144.162 565.62,147.838 568.165,151.658 570.711,155.616 573.257,159.711 575.803,163.937 578.349,168.291 580.894,172.768 583.44,177.364 585.986,182.075 588.532,186.896 591.077,191.822 593.623,196.848 596.169,201.97 598.715,207.182 601.261,212.48 603.806,217.858 606.352,223.31 608.898,228.832 611.444,234.417 613.989,240.061 616.535,245.757 619.081,251.5 621.627,257.285 624.173,263.105 626.718,268.954 629.264,274.827 631.81,280.719 634.356,286.622 636.901,292.531 639.447,298.441 641.993,304.345 644.539,310.238 647.085,316.113 649.63,321.964 652.176,327.787 654.722,333.574 657.268,339.321 659.813,345.021 662.359,350.668 664.905,356.258 667.451,361.784 669.997,367.241 672.542,372.623 675.088,377.925 677.634,383.141 680.18,388.267 682.725,393.297 685.271,398.226 687.817,403.048 690.363,407.76 692.909,412.356 695.454,416.832 698,421.182 700.546,425.403 703.092,429.49 705.637,433.439 708.183,437.245 710.729,440.905 713.275,444.414 715.821,447.77 718.366,450.967 720.912,454.004 723.458,456.875 726.004,459.579 728.549,462.111 731.095,464.469 733.641,466.649 736.187,468.65 738.733,470.468 741.278,472.101 743.824,473.545 746.37,474.8 748.916,475.862 751.461,476.73 754.007,477.4 756.553,477.872 759.099,478.142 761.645,478.211 764.19,478.122 766.736,477.9 769.282,477.543 771.828,477.051 774.373,476.424 776.919,475.661 779.465,474.761 782.011,473.726 784.557,472.555 787.102,471.248 789.648,469.806 792.194,468.231 794.74,466.522 797.285,464.681 799.831,462.709 802.377,460.608 804.923,458.38 807.469,456.025 810.014,453.547 812.56,450.947 815.106,448.227 817.652,445.39 820.197,442.438 822.743,439.374 825.289,436.202 827.835,432.923 830.381,429.54 832.926,426.058 835.472,422.479 838.018,418.807 840.564,415.045 843.109,411.197 845.655,407.267 848.201,403.258 850.747,399.174 853.293,395.019 855.838,390.798 858.384,386.515 860.93,382.173 863.476,377.777 866.021,373.331 868.567,368.84 871.113,364.308 873.659,359.74 876.205,355.14 878.75,350.512 881.296,345.862 883.842,341.194 886.388,336.513 888.933,331.823 891.479,327.129 894.025,322.435 896.571,317.747 899.117,313.069 901.662,308.406 904.208,303.762 906.754,299.142 909.3,294.551 911.845,289.994 914.391,285.474 916.937,280.997 919.483,276.567 922.029,272.188 924.574,267.865 927.12,263.603 929.666,259.405 932.212,255.277 934.757,251.221 937.303,247.243 939.849,243.347 942.395,239.536 944.941,235.814 947.486,232.185 950.032,228.654 952.578,225.224 955.124,221.897 957.669,218.679 960.215,215.572 962.761,212.58 965.307,209.706 967.853,206.954 970.398,204.325 972.944,201.824 975.49,199.453 978.036,197.215 980.581,195.113 983.127,193.149 985.673,191.326 988.219,189.646 990.765,188.111 993.31,186.725 995.856,185.488 998.402,184.404 1000.95,183.473 1003.49,182.699 1006.04,182.082 1008.59,181.624 1011.13,181.328 1013.68,181.195 1016.22,181.212 1018.77,181.324 1021.31,181.529 1023.86,181.828 1026.41,182.222 1028.95,182.712 1031.5,183.297 1034.04,183.978 1036.59,184.754 1039.13,185.626 1041.68,186.592 1044.23,187.654 1046.77,188.81 1049.32,190.06 1051.86,191.403 1054.41,192.838 1056.95,194.364 1059.5,195.98 1062.05,197.685 1064.59,199.477 1067.14,201.356 1069.68,203.319 1072.23,205.366 1074.78,207.493 1077.32,209.7 1079.87,211.984 1082.41,214.344 1084.96,216.777 1087.5,219.281 1090.05,221.854 1092.6,224.493 1095.14,227.196 1097.69,229.961 1100.23,232.785 1102.78,235.665 1105.32,238.598 1107.87,241.582 1110.42,244.614 1112.96,247.69 1115.51,250.809 1118.05,253.966 1120.6,257.159 1123.15,260.385 1125.69,263.64 1128.24,266.922 1130.78,270.226 1133.33,273.551 1135.87,276.892 1138.42,280.246 1140.97,283.61 1143.51,286.981 1146.06,290.354 1148.6,293.728 1151.15,297.098 1153.69,300.461 1156.24,303.814 1158.79,307.153 1161.33,310.475 1163.88,313.776 1166.42,317.054 1168.97,320.305 1171.51,323.525 1174.06,326.711 1176.61,329.861 1179.15,332.97 1181.7,336.036 1184.24,339.055 1186.79,342.025 1189.34,344.941 1191.88,347.802 1194.43,350.604 1196.97,353.344 1199.52,356.02 1202.06,358.628 1204.61,361.165 1207.16,363.629 1209.7,366.018 1212.25,368.327 1214.79,370.556 1217.34,372.701 1219.88,374.761 1222.43,376.731 1224.98,378.611 1227.52,380.398 1230.07,382.09 1232.61,383.684 1235.16,385.179 1237.71,386.573 1240.25,387.864 1242.8,389.049 1245.34,390.127 1247.89,391.097 1250.43,391.957 1252.98,392.704 1255.53,393.339 1258.07,393.858 1260.62,394.261 1263.16,394.547 1265.71,394.714 1268.25,394.761 1270.8,394.731 1273.35,394.651 1275.89,394.523 1278.44,394.344 1280.98,394.116 1283.53,393.837 1286.07,393.508 1288.62,393.128 1291.17,392.698 1293.71,392.217 1296.26,391.686 1298.8,391.105 1301.35,390.474 1303.9,389.793 1306.44,389.062 1308.99,388.283 1311.53,387.455 1314.08,386.579 1316.62,385.656 1319.17,384.685 1321.72,383.669 1324.26,382.607 1326.81,381.5 1329.35,380.35 1331.9,379.157 1334.44,377.921 1336.99,376.645 1339.54,375.329 1342.08,373.974 1344.63,372.582 1347.17,371.153 1349.72,369.689 1352.27,368.192 1354.81,366.661 1357.36,365.1 1359.9,363.509 1362.45,361.889 1364.99,360.243 1367.54,358.571 1370.09,356.876 1372.63,355.159 1375.18,353.421 1377.72,351.664 1380.27,349.89 1382.81,348.101 1385.36,346.298 1387.91,344.483 1390.45,342.658 1393,340.824 1395.54,338.984 1398.09,337.139 1400.63,335.291 1403.18,333.442 1405.73,331.594 1408.27,329.748 1410.82,327.907 1413.36,326.072 1415.91,324.245 1418.46,322.428 1421,320.623 1423.55,318.831 1426.09,317.056 1428.64,315.297 1431.18,313.559 1433.73,311.841 1436.28,310.146 1438.82,308.476 1441.37,306.832 1443.91,305.217 1446.46,303.631 1449,302.078 1451.55,300.557 1454.1,299.072 1456.64,297.624 1459.19,296.215 1461.73,294.845 1464.28,293.517 1466.83,292.232 1469.37,290.992 1471.92,289.798 1474.46,288.652 1477.01,287.555 1479.55,286.508 1482.1,285.513 1484.65,284.572 1487.19,283.684 1489.74,282.853 1492.28,282.078 1494.83,281.361 1497.37,280.704 1499.92,280.106 1502.47,279.57 1505.01,279.097 1507.56,278.686 1510.1,278.34 1512.65,278.058 1515.19,277.843 1517.74,277.694 1520.29,277.612 1522.83,277.596 1525.38,277.596 1527.92,277.597 1530.47,277.597 1533.02,277.597 1535.56,277.598 1538.11,277.598 1540.65,277.598 1543.2,277.599 1545.74,277.599 1548.29,277.599 1550.84,277.6 1553.38,277.6 1555.93,277.601 1558.47,277.601 1561.02,277.601 1563.56,277.602 1566.11,277.602 1568.66,277.602 1571.2,277.603 1573.75,277.603 1576.29,277.603 1578.84,277.604 1581.39,277.604 1583.93,277.605 1586.48,277.605 1589.02,277.605 1591.57,277.606 1594.11,277.606 1596.66,277.606 1599.21,277.607 1601.75,277.607 1604.3,277.608 1606.84,277.608 1609.39,277.608 1611.93,277.609 1614.48,277.609 1617.03,277.609 1619.57,277.61 1622.12,277.61 1624.66,277.61 1627.21,277.611 1629.75,277.611 1632.3,277.612 1634.85,277.612 1637.39,277.612 1639.94,277.613 1642.48,277.613 1645.03,277.613 1647.58,277.614 1650.12,277.614 1652.67,277.615 1655.21,277.615 1657.76,277.615 1660.3,277.616 1662.85,277.616 1665.4,277.616 1667.94,277.617 1670.49,277.617 1673.03,277.617 1675.58,277.618 1678.12,277.618 1680.67,277.619 1683.22,277.619 1685.76,277.619 1688.31,277.62 1690.85,277.62 1693.4,277.62 1695.95,277.621 1698.49,277.621 1701.04,277.622 1703.58,277.622 1706.13,277.622 1708.67,277.623 1711.22,277.623 1713.77,277.623 1716.31,277.624 1718.86,277.624 1721.4,277.624 1723.95,277.625 1726.49,277.625 1729.04,277.626 1731.59,277.626 1734.13,277.626 1736.68,277.627 1739.22,277.627 1741.77,277.627 1744.31,277.628 1746.86,277.628 1749.41,277.628 1751.95,277.629 1754.5,277.629 1757.04,277.63 1759.59,277.63 1762.14,277.63 1764.68,277.631 1767.23,277.631 1769.77,277.631 1772.32,277.632 1774.86,277.632 1777.41,277.633 1779.96,277.633 1782.5,277.633 1785.05,277.634 1787.59,277.634 1790.14,277.634 1792.68,277.635 1795.23,277.635 1797.78,277.635 1800.32,277.636 1802.87,277.636 1805.41,277.637 1807.96,277.637 1810.51,277.637 1813.05,277.638 1815.6,277.638 1818.14,277.638 1820.69,277.639 1823.23,277.639 1825.78,277.64 1828.33,277.64 1830.87,277.64 1833.42,277.641 1835.96,277.641 1838.51,277.641 1841.05,277.642 1843.6,277.642 1846.15,277.642 1848.69,277.643 1851.24,277.643 1853.78,277.644 1856.33,277.644 1858.87,277.644 1861.42,277.645 1863.97,277.645 1866.51,277.645 1869.06,277.646 1871.6,277.646 1874.15,277.646 1876.7,277.647 1879.24,277.647 1881.79,277.648 1884.33,277.648 1886.88,277.648 1889.42,277.649 1891.97,277.649 1894.52,277.649 1897.06,277.65 1899.61,277.65 1902.15,277.651 1904.7,277.651 1907.24,277.651 1909.79,277.652 1912.34,277.652 1914.88,277.652 1917.43,277.653 1919.97,277.653 1922.52,277.653 1925.07,277.654 1927.61,277.654 1930.16,277.655 1932.7,277.655 1935.25,277.655 1937.79,277.656 1940.34,277.656 1942.89,277.656 1945.43,277.657 1947.98,277.657 1950.52,277.658 1953.07,277.658 1955.61,277.658 1958.16,277.659 1960.71,277.659 1963.25,277.659 1965.8,277.66 1968.34,277.66 1970.89,277.66 1973.43,277.661 1975.98,277.661 1978.53,277.662 1981.07,277.662 1983.62,277.662 1986.16,277.663 1988.71,277.663 1991.26,277.663 1993.8,277.664 1996.35,277.664 1998.89,277.664 2001.44,277.665 2003.98,277.665 2006.53,277.666 2009.08,277.666 2011.62,277.666 2014.17,277.667 2016.71,277.667 2019.26,277.667 2021.8,277.668 2024.35,277.668 2026.9,277.669 2029.44,277.669 2031.99,277.669 2034.53,277.67 2037.08,277.67 2039.63,277.67 2042.17,277.671 2044.72,277.671 2047.26,277.671 2049.81,277.672 2052.35,277.672 2054.9,277.673 2057.45,277.673 2059.99,277.673 2062.54,277.674 2065.08,277.674 2067.63,277.674 2070.17,277.675 2072.72,277.675 2075.27,277.676 2077.81,277.676 2080.36,277.676 2082.9,277.677 2085.45,277.677 2087.99,277.677 2090.54,277.678 2093.09,277.678 2095.63,277.678 2098.18,277.679 2100.72,277.679 2103.27,277.68 2105.82,277.68 2108.36,277.68 2110.91,277.681 2113.45,277.681 2116,277.681 2118.54,277.682 2121.09,277.682 2123.64,277.683 2126.18,277.683 2128.73,277.683 2131.27,277.684 2133.82,277.684 2136.36,277.684 2138.91,277.685 2141.46,277.685 2144,277.685 2146.55,277.686 2149.09,277.686 2151.64,277.687 2154.19,277.687 2156.73,277.687 2159.28,277.688 2161.82,277.688 2164.37,277.688 2166.91,277.689 2169.46,277.689 2172.01,277.689 2174.55,277.69 2177.1,277.69 2179.64,277.691 2182.19,277.691 2184.73,277.691 2187.28,277.692 2189.83,277.692 2192.37,277.692 2194.92,277.693 2197.46,277.693 2200.01,277.694 2202.55,277.694 2205.1,277.694 2207.65,277.695 2210.19,277.695 2212.74,277.695 2215.28,277.696 2217.83,277.696 2220.38,277.696 2222.92,277.697 2225.47,277.697 2228.01,277.698 2230.56,277.698 2233.1,277.698 2235.65,277.699 2238.2,277.699 2240.74,277.699 2243.29,277.7 2245.83,277.7 2248.38,277.701 2250.92,277.701 2253.47,277.701 2256.02,277.702 2258.56,277.702 2261.11,277.702 2263.65,277.703 2266.2,277.703 2268.75,277.703 2271.29,277.704 2273.84,277.704 2276.38,277.705 2278.93,277.705 2281.47,277.705 2284.02,277.706 2286.57,277.706 2289.11,277.706 2291.66,277.707 "/>
<polyline clip-path="url(#clip482)" style="stroke:#e26f46; stroke-linecap:round; stroke-linejoin:round; stroke-width:4; stroke-opacity:1; fill:none" points="255.035,793.181 257.58,772.551 260.126,751.761 262.672,730.847 265.218,709.844 267.764,688.786 270.309,667.705 272.855,646.636 275.401,625.608 277.947,604.654 280.492,583.802 283.038,563.083 285.584,542.525 288.13,522.155 290.676,502 293.221,482.086 295.767,462.439 298.313,443.082 300.859,424.04 303.404,405.335 305.95,386.99 308.496,369.027 311.042,351.465 313.588,334.327 316.133,317.63 318.679,301.394 321.225,285.637 323.771,270.376 326.316,255.628 328.862,241.409 331.408,227.734 333.954,214.619 336.5,202.077 339.045,190.121 341.591,178.765 344.137,168.02 346.683,157.898 349.228,148.408 351.774,139.561 354.32,131.367 356.866,123.833 359.412,116.968 361.957,110.778 364.503,105.269 367.049,100.448 369.595,96.32 372.14,92.8881 374.686,90.1563 377.232,88.1274 379.778,86.8034 382.324,86.1857 384.869,86.2749 387.415,87.0709 389.961,88.5731 392.507,90.7798 395.052,93.689 397.598,97.2979 400.144,101.603 402.69,106.6 405.236,112.283 407.781,118.649 410.327,125.689 412.873,133.398 415.419,141.768 417.964,150.79 420.51,160.457 423.056,170.759 425.602,181.686 428.148,193.228 430.693,205.374 433.239,218.112 435.785,231.43 438.331,245.317 440.876,259.76 443.422,274.744 445.968,290.257 448.514,306.285 451.06,322.814 453.605,339.828 456.151,357.313 458.697,375.255 461.243,393.637 463.788,412.446 466.334,431.665 468.88,451.279 471.426,471.274 473.972,491.633 476.517,512.343 479.063,533.388 481.609,554.755 484.155,576.43 486.7,598.4 489.246,620.653 491.792,643.177 494.338,665.961 496.884,688.996 499.429,712.274 501.975,735.789 504.521,759.537 507.067,783.515 509.612,803.342 512.158,820.435 514.704,837.646 517.25,854.948 519.796,872.313 522.341,889.715 524.887,907.13 527.433,924.53 529.979,941.891 532.524,959.189 535.07,976.399 537.616,993.497 540.162,1010.46 542.708,1027.27 545.253,1043.9 547.799,1060.32 550.345,1076.53 552.891,1092.5 555.437,1108.2 557.982,1123.62 560.528,1138.75 563.074,1153.55 565.62,1168.03 568.165,1182.15 570.711,1195.9 573.257,1209.27 575.803,1222.24 578.349,1234.79 580.894,1246.92 583.44,1258.61 585.986,1269.84 588.532,1280.61 591.077,1290.89 593.623,1300.69 596.169,1309.99 598.715,1318.77 601.261,1327.04 603.806,1334.77 606.352,1341.97 608.898,1348.63 611.444,1354.73 613.989,1360.27 616.535,1365.25 619.081,1369.66 621.627,1373.49 624.173,1376.75 626.718,1379.42 629.264,1381.51 631.81,1383.01 634.356,1383.92 636.901,1384.24 639.447,1383.97 641.993,1383.11 644.539,1381.65 647.085,1379.61 649.63,1376.98 652.176,1373.77 654.722,1369.97 657.268,1365.6 659.813,1360.65 662.359,1355.13 664.905,1349.05 667.451,1342.41 669.997,1335.22 672.542,1327.47 675.088,1319.19 677.634,1310.38 680.18,1301.05 682.725,1291.2 685.271,1280.84 687.817,1269.99 690.363,1258.66 692.909,1246.84 695.454,1234.56 698,1221.82 700.546,1208.64 703.092,1195.03 705.637,1181 708.183,1166.55 710.729,1151.71 713.275,1136.49 715.821,1120.89 718.366,1104.93 720.912,1088.62 723.458,1071.98 726.004,1055.01 728.549,1037.74 731.095,1020.16 733.641,1002.3 736.187,984.157 738.733,965.752 741.278,947.093 743.824,928.191 746.37,909.054 748.916,889.691 751.461,870.111 754.007,850.321 756.553,830.326 759.099,810.132 761.645,790.92 764.19,777.635 766.736,764.247 769.282,750.776 771.828,737.24 774.373,723.66 776.919,710.054 779.465,696.441 782.011,682.841 784.557,669.272 787.102,655.752 789.648,642.3 792.194,628.934 794.74,615.671 797.285,602.529 799.831,589.525 802.377,576.675 804.923,563.996 807.469,551.503 810.014,539.213 812.56,527.14 815.106,515.3 817.652,503.706 820.197,492.372 822.743,481.313 825.289,470.541 827.835,460.069 830.381,449.909 832.926,440.074 835.472,430.573 838.018,421.42 840.564,412.623 843.109,404.193 845.655,396.14 848.201,388.472 850.747,381.199 853.293,374.328 855.838,367.868 858.384,361.826 860.93,356.208 863.476,351.021 866.021,346.27 868.567,341.961 871.113,338.1 873.659,334.689 876.205,331.734 878.75,329.238 881.296,327.203 883.842,325.633 886.388,324.528 888.933,323.892 891.479,323.724 894.025,324.026 896.571,324.798 899.117,326.039 901.662,327.748 904.208,329.925 906.754,332.567 909.3,335.672 911.845,339.239 914.391,343.263 916.937,347.742 919.483,352.671 922.029,358.046 924.574,363.863 927.12,370.116 929.666,376.801 932.212,383.91 934.757,391.439 937.303,399.38 939.849,407.727 942.395,416.472 944.941,425.608 947.486,435.128 950.032,445.023 952.578,455.285 955.124,465.905 957.669,476.875 960.215,488.186 962.761,499.828 965.307,511.793 967.853,524.071 970.398,536.653 972.944,549.529 975.49,562.69 978.036,576.126 980.581,589.827 983.127,603.785 985.673,617.989 988.219,632.43 990.765,647.1 993.31,661.989 995.856,677.089 998.402,692.392 1000.95,707.889 1003.49,723.574 1006.04,739.438 1008.59,755.476 1011.13,771.682 1013.68,788.05 1016.22,799.64 1018.77,808.983 1021.31,818.394 1023.86,827.86 1026.41,837.368 1028.95,846.907 1031.5,856.464 1034.04,866.026 1036.59,875.582 1039.13,885.118 1041.68,894.623 1044.23,904.083 1046.77,913.488 1049.32,922.825 1051.86,932.082 1054.41,941.247 1056.95,950.309 1059.5,959.256 1062.05,968.078 1064.59,976.763 1067.14,985.3 1069.68,993.679 1072.23,1001.89 1074.78,1009.92 1077.32,1017.77 1079.87,1025.41 1082.41,1032.85 1084.96,1040.07 1087.5,1047.07 1090.05,1053.84 1092.6,1060.36 1095.14,1066.63 1097.69,1072.65 1100.23,1078.4 1102.78,1083.89 1105.32,1089.09 1107.87,1094.01 1110.42,1098.65 1112.96,1102.98 1115.51,1107.02 1118.05,1110.75 1120.6,1114.18 1123.15,1117.29 1125.69,1120.08 1128.24,1122.55 1130.78,1124.69 1133.33,1126.51 1135.87,1127.99 1138.42,1129.15 1140.97,1129.97 1143.51,1130.46 1146.06,1130.61 1148.6,1130.42 1151.15,1129.89 1153.69,1129.03 1156.24,1127.82 1158.79,1126.28 1161.33,1124.41 1163.88,1122.2 1166.42,1119.65 1168.97,1116.77 1171.51,1113.57 1174.06,1110.03 1176.61,1106.17 1179.15,1101.99 1181.7,1097.49 1184.24,1092.67 1186.79,1087.55 1189.34,1082.11 1191.88,1076.37 1194.43,1070.34 1196.97,1064.01 1199.52,1057.39 1202.06,1050.49 1204.61,1043.31 1207.16,1035.86 1209.7,1028.14 1212.25,1020.16 1214.79,1011.92 1217.34,1003.44 1219.88,994.714 1222.43,985.754 1224.98,976.565 1227.52,967.153 1230.07,957.526 1232.61,947.691 1235.16,937.653 1237.71,927.42 1240.25,916.999 1242.8,906.396 1245.34,895.618 1247.89,884.673 1250.43,873.566 1252.98,862.303 1255.53,850.892 1258.07,839.339 1260.62,827.65 1263.16,815.829 1265.71,803.884 1268.25,792.599 1270.8,787.711 1273.35,782.782 1275.89,777.82 1278.44,772.828 1280.98,767.814 1283.53,762.782 1286.07,757.738 1288.62,752.689 1291.17,747.64 1293.71,742.598 1296.26,737.567 1298.8,732.555 1301.35,727.567 1303.9,722.61 1306.44,717.688 1308.99,712.809 1311.53,707.977 1314.08,703.2 1316.62,698.482 1319.17,693.829 1321.72,689.247 1324.26,684.742 1326.81,680.319 1329.35,675.984 1331.9,671.742 1334.44,667.598 1336.99,663.557 1339.54,659.624 1342.08,655.805 1344.63,652.103 1347.17,648.525 1349.72,645.073 1352.27,641.752 1354.81,638.568 1357.36,635.523 1359.9,632.621 1362.45,629.868 1364.99,627.265 1367.54,624.816 1370.09,622.525 1372.63,620.396 1375.18,618.43 1377.72,616.63 1380.27,615 1382.81,613.541 1385.36,612.256 1387.91,611.146 1390.45,610.215 1393,609.463 1395.54,608.891 1398.09,608.503 1400.63,608.297 1403.18,608.276 1405.73,608.44 1408.27,608.79 1410.82,609.326 1413.36,610.049 1415.91,610.958 1418.46,612.054 1421,613.335 1423.55,614.803 1426.09,616.455 1428.64,618.292 1431.18,620.312 1433.73,622.514 1436.28,624.897 1438.82,627.459 1441.37,630.199 1443.91,633.115 1446.46,636.205 1449,639.467 1451.55,642.898 1454.1,646.497 1456.64,650.261 1459.19,654.187 1461.73,658.273 1464.28,662.516 1466.83,666.912 1469.37,671.458 1471.92,676.152 1474.46,680.99 1477.01,685.969 1479.55,691.084 1482.1,696.333 1484.65,701.712 1487.19,707.217 1489.74,712.844 1492.28,718.589 1494.83,724.449 1497.37,730.419 1499.92,736.495 1502.47,742.673 1505.01,748.949 1507.56,755.319 1510.1,761.778 1512.65,768.323 1515.19,774.948 1517.74,781.65 1520.29,788.425 1522.83,793.218 1525.38,793.218 1527.92,793.218 1530.47,793.218 1533.02,793.218 1535.56,793.218 1538.11,793.218 1540.65,793.218 1543.2,793.218 1545.74,793.218 1548.29,793.218 1550.84,793.218 1553.38,793.218 1555.93,793.218 1558.47,793.218 1561.02,793.218 1563.56,793.218 1566.11,793.218 1568.66,793.218 1571.2,793.218 1573.75,793.218 1576.29,793.218 1578.84,793.218 1581.39,793.218 1583.93,793.218 1586.48,793.218 1589.02,793.218 1591.57,793.218 1594.11,793.218 1596.66,793.218 1599.21,793.218 1601.75,793.218 1604.3,793.218 1606.84,793.218 1609.39,793.218 1611.93,793.218 1614.48,793.218 1617.03,793.218 1619.57,793.218 1622.12,793.218 1624.66,793.218 1627.21,793.218 1629.75,793.218 1632.3,793.218 1634.85,793.218 1637.39,793.218 1639.94,793.218 1642.48,793.218 1645.03,793.218 1647.58,793.218 1650.12,793.218 1652.67,793.218 1655.21,793.218 1657.76,793.218 1660.3,793.218 1662.85,793.218 1665.4,793.218 1667.94,793.218 1670.49,793.218 1673.03,793.218 1675.58,793.218 1678.12,793.218 1680.67,793.218 1683.22,793.218 1685.76,793.218 1688.31,793.218 1690.85,793.218 1693.4,793.218 1695.95,793.218 1698.49,793.218 1701.04,793.218 1703.58,793.218 1706.13,793.218 1708.67,793.218 1711.22,793.218 1713.77,793.218 1716.31,793.218 1718.86,793.218 1721.4,793.218 1723.95,793.218 1726.49,793.218 1729.04,793.218 1731.59,793.218 1734.13,793.218 1736.68,793.218 1739.22,793.218 1741.77,793.218 1744.31,793.218 1746.86,793.218 1749.41,793.218 1751.95,793.218 1754.5,793.218 1757.04,793.218 1759.59,793.218 1762.14,793.218 1764.68,793.218 1767.23,793.218 1769.77,793.218 1772.32,793.218 1774.86,793.218 1777.41,793.218 1779.96,793.218 1782.5,793.218 1785.05,793.218 1787.59,793.218 1790.14,793.218 1792.68,793.218 1795.23,793.218 1797.78,793.218 1800.32,793.218 1802.87,793.218 1805.41,793.218 1807.96,793.218 1810.51,793.218 1813.05,793.218 1815.6,793.218 1818.14,793.218 1820.69,793.218 1823.23,793.218 1825.78,793.218 1828.33,793.218 1830.87,793.218 1833.42,793.218 1835.96,793.218 1838.51,793.218 1841.05,793.218 1843.6,793.218 1846.15,793.218 1848.69,793.218 1851.24,793.218 1853.78,793.218 1856.33,793.218 1858.87,793.218 1861.42,793.218 1863.97,793.218 1866.51,793.218 1869.06,793.218 1871.6,793.218 1874.15,793.218 1876.7,793.218 1879.24,793.218 1881.79,793.218 1884.33,793.218 1886.88,793.218 1889.42,793.218 1891.97,793.218 1894.52,793.218 1897.06,793.218 1899.61,793.218 1902.15,793.218 1904.7,793.218 1907.24,793.218 1909.79,793.218 1912.34,793.218 1914.88,793.218 1917.43,793.218 1919.97,793.218 1922.52,793.218 1925.07,793.218 1927.61,793.218 1930.16,793.218 1932.7,793.218 1935.25,793.218 1937.79,793.218 1940.34,793.218 1942.89,793.218 1945.43,793.218 1947.98,793.218 1950.52,793.218 1953.07,793.218 1955.61,793.218 1958.16,793.218 1960.71,793.218 1963.25,793.218 1965.8,793.218 1968.34,793.218 1970.89,793.218 1973.43,793.218 1975.98,793.218 1978.53,793.218 1981.07,793.218 1983.62,793.218 1986.16,793.218 1988.71,793.218 1991.26,793.218 1993.8,793.218 1996.35,793.218 1998.89,793.218 2001.44,793.218 2003.98,793.218 2006.53,793.218 2009.08,793.218 2011.62,793.218 2014.17,793.218 2016.71,793.218 2019.26,793.218 2021.8,793.218 2024.35,793.218 2026.9,793.218 2029.44,793.218 2031.99,793.218 2034.53,793.218 2037.08,793.218 2039.63,793.218 2042.17,793.218 2044.72,793.218 2047.26,793.218 2049.81,793.218 2052.35,793.218 2054.9,793.218 2057.45,793.218 2059.99,793.218 2062.54,793.218 2065.08,793.218 2067.63,793.218 2070.17,793.218 2072.72,793.218 2075.27,793.218 2077.81,793.218 2080.36,793.218 2082.9,793.218 2085.45,793.218 2087.99,793.218 2090.54,793.218 2093.09,793.218 2095.63,793.218 2098.18,793.218 2100.72,793.218 2103.27,793.218 2105.82,793.218 2108.36,793.218 2110.91,793.218 2113.45,793.218 2116,793.218 2118.54,793.218 2121.09,793.218 2123.64,793.218 2126.18,793.218 2128.73,793.218 2131.27,793.218 2133.82,793.218 2136.36,793.218 2138.91,793.218 2141.46,793.218 2144,793.218 2146.55,793.218 2149.09,793.218 2151.64,793.218 2154.19,793.218 2156.73,793.218 2159.28,793.218 2161.82,793.218 2164.37,793.218 2166.91,793.218 2169.46,793.218 2172.01,793.218 2174.55,793.218 2177.1,793.218 2179.64,793.218 2182.19,793.218 2184.73,793.218 2187.28,793.218 2189.83,793.218 2192.37,793.218 2194.92,793.218 2197.46,793.218 2200.01,793.218 2202.55,793.218 2205.1,793.218 2207.65,793.218 2210.19,793.218 2212.74,793.218 2215.28,793.218 2217.83,793.218 2220.38,793.218 2222.92,793.218 2225.47,793.218 2228.01,793.218 2230.56,793.218 2233.1,793.218 2235.65,793.218 2238.2,793.218 2240.74,793.218 2243.29,793.218 2245.83,793.218 2248.38,793.218 2250.92,793.218 2253.47,793.218 2256.02,793.218 2258.56,793.218 2261.11,793.218 2263.65,793.218 2266.2,793.218 2268.75,793.218 2271.29,793.218 2273.84,793.218 2276.38,793.218 2278.93,793.218 2281.47,793.218 2284.02,793.218 2286.57,793.218 2289.11,793.218 2291.66,793.218 "/>
<polyline clip-path="url(#clip482)" style="stroke:#0000ff; stroke-linecap:round; stroke-linejoin:round; stroke-width:4; stroke-opacity:1; fill:none" stroke-dasharray="16, 10" points="255.035,1384.24 255.035,86.1857 "/>
<polyline clip-path="url(#clip482)" style="stroke:#0000ff; stroke-linecap:round; stroke-linejoin:round; stroke-width:4; stroke-opacity:1; fill:none" stroke-dasharray="16, 10" points="508.096,1384.24 508.096,86.1857 "/>
<polyline clip-path="url(#clip482)" style="stroke:#0000ff; stroke-linecap:round; stroke-linejoin:round; stroke-width:4; stroke-opacity:1; fill:none" stroke-dasharray="16, 10" points="761.217,1384.24 761.217,86.1857 "/>
<polyline clip-path="url(#clip482)" style="stroke:#0000ff; stroke-linecap:round; stroke-linejoin:round; stroke-width:4; stroke-opacity:1; fill:none" stroke-dasharray="16, 10" points="1014.46,1384.24 1014.46,86.1857 "/>
<polyline clip-path="url(#clip482)" style="stroke:#0000ff; stroke-linecap:round; stroke-linejoin:round; stroke-width:4; stroke-opacity:1; fill:none" stroke-dasharray="16, 10" points="1267.97,1384.24 1267.97,86.1857 "/>
<polyline clip-path="url(#clip482)" style="stroke:#0000ff; stroke-linecap:round; stroke-linejoin:round; stroke-width:4; stroke-opacity:1; fill:none" stroke-dasharray="16, 10" points="1522.07,1384.24 1522.07,86.1857 "/>
<path clip-path="url(#clip480)" d="M1612.18 1377.32 L2280.8 1377.32 L2280.8 1169.96 L1612.18 1169.96  Z" fill="#ffffff" fill-rule="evenodd" fill-opacity="1"/>
<polyline clip-path="url(#clip480)" style="stroke:#000000; stroke-linecap:round; stroke-linejoin:round; stroke-width:4; stroke-opacity:1; fill:none" points="1612.18,1377.32 2280.8,1377.32 2280.8,1169.96 1612.18,1169.96 1612.18,1377.32 "/>
<polyline clip-path="url(#clip480)" style="stroke:#009af9; stroke-linecap:round; stroke-linejoin:round; stroke-width:4; stroke-opacity:1; fill:none" points="1636.17,1221.8 1780.09,1221.8 "/>
<path clip-path="url(#clip480)" d="M1824.43 1218.13 Q1826.02 1215.26 1828.25 1213.89 Q1830.47 1212.52 1833.48 1212.52 Q1837.53 1212.52 1839.73 1215.37 Q1841.93 1218.2 1841.93 1223.43 L1841.93 1239.08 L1837.64 1239.08 L1837.64 1223.57 Q1837.64 1219.84 1836.32 1218.03 Q1835.01 1216.23 1832.3 1216.23 Q1828.99 1216.23 1827.07 1218.43 Q1825.14 1220.63 1825.14 1224.42 L1825.14 1239.08 L1820.86 1239.08 L1820.86 1223.57 Q1820.86 1219.82 1819.54 1218.03 Q1818.22 1216.23 1815.47 1216.23 Q1812.2 1216.23 1810.28 1218.45 Q1808.36 1220.65 1808.36 1224.42 L1808.36 1239.08 L1804.08 1239.08 L1804.08 1213.15 L1808.36 1213.15 L1808.36 1217.18 Q1809.82 1214.79 1811.86 1213.66 Q1813.89 1212.52 1816.69 1212.52 Q1819.52 1212.52 1821.49 1213.96 Q1823.48 1215.39 1824.43 1218.13 Z" fill="#000000" fill-rule="nonzero" fill-opacity="1" /><path clip-path="url(#clip480)" d="M1862.2 1226.04 Q1857.04 1226.04 1855.05 1227.22 Q1853.06 1228.4 1853.06 1231.25 Q1853.06 1233.52 1854.54 1234.86 Q1856.05 1236.18 1858.62 1236.18 Q1862.16 1236.18 1864.29 1233.68 Q1866.44 1231.16 1866.44 1226.99 L1866.44 1226.04 L1862.2 1226.04 M1870.7 1224.28 L1870.7 1239.08 L1866.44 1239.08 L1866.44 1235.14 Q1864.98 1237.5 1862.81 1238.64 Q1860.63 1239.75 1857.48 1239.75 Q1853.5 1239.75 1851.14 1237.52 Q1848.8 1235.28 1848.8 1231.53 Q1848.8 1227.15 1851.72 1224.93 Q1854.66 1222.71 1860.47 1222.71 L1866.44 1222.71 L1866.44 1222.29 Q1866.44 1219.35 1864.5 1217.76 Q1862.57 1216.14 1859.08 1216.14 Q1856.86 1216.14 1854.75 1216.67 Q1852.64 1217.2 1850.7 1218.27 L1850.7 1214.33 Q1853.04 1213.43 1855.24 1212.99 Q1857.44 1212.52 1859.52 1212.52 Q1865.14 1212.52 1867.92 1215.44 Q1870.7 1218.36 1870.7 1224.28 Z" fill="#000000" fill-rule="nonzero" fill-opacity="1" /><path clip-path="url(#clip480)" d="M1896 1213.91 L1896 1217.94 Q1894.19 1217.02 1892.25 1216.55 Q1890.31 1216.09 1888.22 1216.09 Q1885.05 1216.09 1883.45 1217.06 Q1881.88 1218.03 1881.88 1219.98 Q1881.88 1221.46 1883.01 1222.32 Q1884.15 1223.15 1887.57 1223.91 L1889.03 1224.24 Q1893.57 1225.21 1895.47 1226.99 Q1897.39 1228.75 1897.39 1231.92 Q1897.39 1235.53 1894.52 1237.64 Q1891.67 1239.75 1886.67 1239.75 Q1884.59 1239.75 1882.32 1239.33 Q1880.07 1238.94 1877.57 1238.13 L1877.57 1233.73 Q1879.94 1234.95 1882.23 1235.58 Q1884.52 1236.18 1886.76 1236.18 Q1889.77 1236.18 1891.39 1235.16 Q1893.01 1234.12 1893.01 1232.25 Q1893.01 1230.51 1891.83 1229.58 Q1890.68 1228.66 1886.72 1227.8 L1885.24 1227.46 Q1881.28 1226.62 1879.52 1224.91 Q1877.76 1223.17 1877.76 1220.16 Q1877.76 1216.51 1880.35 1214.52 Q1882.94 1212.52 1887.71 1212.52 Q1890.07 1212.52 1892.16 1212.87 Q1894.24 1213.22 1896 1213.91 Z" fill="#000000" fill-rule="nonzero" fill-opacity="1" /><path clip-path="url(#clip480)" d="M1920.7 1213.91 L1920.7 1217.94 Q1918.89 1217.02 1916.95 1216.55 Q1915 1216.09 1912.92 1216.09 Q1909.75 1216.09 1908.15 1217.06 Q1906.58 1218.03 1906.58 1219.98 Q1906.58 1221.46 1907.71 1222.32 Q1908.85 1223.15 1912.27 1223.91 L1913.73 1224.24 Q1918.27 1225.21 1920.17 1226.99 Q1922.09 1228.75 1922.09 1231.92 Q1922.09 1235.53 1919.22 1237.64 Q1916.37 1239.75 1911.37 1239.75 Q1909.29 1239.75 1907.02 1239.33 Q1904.77 1238.94 1902.27 1238.13 L1902.27 1233.73 Q1904.63 1234.95 1906.93 1235.58 Q1909.22 1236.18 1911.46 1236.18 Q1914.47 1236.18 1916.09 1235.16 Q1917.71 1234.12 1917.71 1232.25 Q1917.71 1230.51 1916.53 1229.58 Q1915.37 1228.66 1911.42 1227.8 L1909.94 1227.46 Q1905.98 1226.62 1904.22 1224.91 Q1902.46 1223.17 1902.46 1220.16 Q1902.46 1216.51 1905.05 1214.52 Q1907.64 1212.52 1912.41 1212.52 Q1914.77 1212.52 1916.86 1212.87 Q1918.94 1213.22 1920.7 1213.91 Z" fill="#000000" fill-rule="nonzero" fill-opacity="1" /><path clip-path="url(#clip480)" d="M1929.47 1233.2 L1934.36 1233.2 L1934.36 1239.08 L1929.47 1239.08 L1929.47 1233.2 Z" fill="#000000" fill-rule="nonzero" fill-opacity="1" /><path clip-path="url(#clip480)" d="M1960.47 1213.91 L1960.47 1217.94 Q1958.66 1217.02 1956.72 1216.55 Q1954.77 1216.09 1952.69 1216.09 Q1949.52 1216.09 1947.92 1217.06 Q1946.35 1218.03 1946.35 1219.98 Q1946.35 1221.46 1947.48 1222.32 Q1948.62 1223.15 1952.04 1223.91 L1953.5 1224.24 Q1958.04 1225.21 1959.93 1226.99 Q1961.86 1228.75 1961.86 1231.92 Q1961.86 1235.53 1958.99 1237.64 Q1956.14 1239.75 1951.14 1239.75 Q1949.06 1239.75 1946.79 1239.33 Q1944.54 1238.94 1942.04 1238.13 L1942.04 1233.73 Q1944.4 1234.95 1946.69 1235.58 Q1948.99 1236.18 1951.23 1236.18 Q1954.24 1236.18 1955.86 1235.16 Q1957.48 1234.12 1957.48 1232.25 Q1957.48 1230.51 1956.3 1229.58 Q1955.14 1228.66 1951.18 1227.8 L1949.7 1227.46 Q1945.75 1226.62 1943.99 1224.91 Q1942.23 1223.17 1942.23 1220.16 Q1942.23 1216.51 1944.82 1214.52 Q1947.41 1212.52 1952.18 1212.52 Q1954.54 1212.52 1956.62 1212.87 Q1958.71 1213.22 1960.47 1213.91 Z" fill="#000000" fill-rule="nonzero" fill-opacity="1" /><path clip-path="url(#clip480)" d="M1993.94 1203.1 Q1990.84 1208.43 1989.33 1213.64 Q1987.83 1218.84 1987.83 1224.19 Q1987.83 1229.54 1989.33 1234.79 Q1990.86 1240.02 1993.94 1245.33 L1990.24 1245.33 Q1986.76 1239.89 1985.03 1234.63 Q1983.31 1229.38 1983.31 1224.19 Q1983.31 1219.03 1985.03 1213.8 Q1986.74 1208.57 1990.24 1203.1 L1993.94 1203.1 Z" fill="#000000" fill-rule="nonzero" fill-opacity="1" /><path clip-path="url(#clip480)" d="M2016.97 1220.44 Q2020.33 1221.16 2022.2 1223.43 Q2024.1 1225.7 2024.1 1229.03 Q2024.1 1234.14 2020.58 1236.95 Q2017.06 1239.75 2010.58 1239.75 Q2008.41 1239.75 2006.09 1239.31 Q2003.8 1238.89 2001.35 1238.03 L2001.35 1233.52 Q2003.29 1234.65 2005.61 1235.23 Q2007.92 1235.81 2010.44 1235.81 Q2014.84 1235.81 2017.13 1234.08 Q2019.45 1232.34 2019.45 1229.03 Q2019.45 1225.97 2017.3 1224.26 Q2015.17 1222.52 2011.35 1222.52 L2007.32 1222.52 L2007.32 1218.68 L2011.53 1218.68 Q2014.98 1218.68 2016.81 1217.32 Q2018.64 1215.93 2018.64 1213.33 Q2018.64 1210.67 2016.74 1209.26 Q2014.87 1207.83 2011.35 1207.83 Q2009.43 1207.83 2007.23 1208.24 Q2005.03 1208.66 2002.39 1209.54 L2002.39 1205.37 Q2005.05 1204.63 2007.37 1204.26 Q2009.7 1203.89 2011.76 1203.89 Q2017.09 1203.89 2020.19 1206.32 Q2023.29 1208.73 2023.29 1212.85 Q2023.29 1215.72 2021.65 1217.71 Q2020 1219.68 2016.97 1220.44 Z" fill="#000000" fill-rule="nonzero" fill-opacity="1" /><path clip-path="url(#clip480)" d="M2047.13 1220.44 Q2050.49 1221.16 2052.37 1223.43 Q2054.26 1225.7 2054.26 1229.03 Q2054.26 1234.14 2050.74 1236.95 Q2047.23 1239.75 2040.74 1239.75 Q2038.57 1239.75 2036.25 1239.31 Q2033.96 1238.89 2031.51 1238.03 L2031.51 1233.52 Q2033.45 1234.65 2035.77 1235.23 Q2038.08 1235.81 2040.61 1235.81 Q2045 1235.81 2047.3 1234.08 Q2049.61 1232.34 2049.61 1229.03 Q2049.61 1225.97 2047.46 1224.26 Q2045.33 1222.52 2041.51 1222.52 L2037.48 1222.52 L2037.48 1218.68 L2041.69 1218.68 Q2045.14 1218.68 2046.97 1217.32 Q2048.8 1215.93 2048.8 1213.33 Q2048.8 1210.67 2046.9 1209.26 Q2045.03 1207.83 2041.51 1207.83 Q2039.59 1207.83 2037.39 1208.24 Q2035.19 1208.66 2032.55 1209.54 L2032.55 1205.37 Q2035.21 1204.63 2037.53 1204.26 Q2039.87 1203.89 2041.93 1203.89 Q2047.25 1203.89 2050.35 1206.32 Q2053.45 1208.73 2053.45 1212.85 Q2053.45 1215.72 2051.81 1217.71 Q2050.17 1219.68 2047.13 1220.44 Z" fill="#000000" fill-rule="nonzero" fill-opacity="1" /><path clip-path="url(#clip480)" d="M2063.18 1204.52 L2081.53 1204.52 L2081.53 1208.45 L2067.46 1208.45 L2067.46 1216.92 Q2068.48 1216.58 2069.49 1216.41 Q2070.51 1216.23 2071.53 1216.23 Q2077.32 1216.23 2080.7 1219.4 Q2084.08 1222.57 2084.08 1227.99 Q2084.08 1233.57 2080.61 1236.67 Q2077.13 1239.75 2070.81 1239.75 Q2068.64 1239.75 2066.37 1239.38 Q2064.12 1239.01 2061.72 1238.27 L2061.72 1233.57 Q2063.8 1234.7 2066.02 1235.26 Q2068.24 1235.81 2070.72 1235.81 Q2074.73 1235.81 2077.06 1233.7 Q2079.4 1231.6 2079.4 1227.99 Q2079.4 1224.38 2077.06 1222.27 Q2074.73 1220.16 2070.72 1220.16 Q2068.85 1220.16 2066.97 1220.58 Q2065.12 1221 2063.18 1221.88 L2063.18 1204.52 Z" fill="#000000" fill-rule="nonzero" fill-opacity="1" /><path clip-path="url(#clip480)" d="M2093.34 1204.52 L2111.69 1204.52 L2111.69 1208.45 L2097.62 1208.45 L2097.62 1216.92 Q2098.64 1216.58 2099.66 1216.41 Q2100.67 1216.23 2101.69 1216.23 Q2107.48 1216.23 2110.86 1219.4 Q2114.24 1222.57 2114.24 1227.99 Q2114.24 1233.57 2110.77 1236.67 Q2107.3 1239.75 2100.98 1239.75 Q2098.8 1239.75 2096.53 1239.38 Q2094.29 1239.01 2091.88 1238.27 L2091.88 1233.57 Q2093.96 1234.7 2096.18 1235.26 Q2098.41 1235.81 2100.88 1235.81 Q2104.89 1235.81 2107.23 1233.7 Q2109.56 1231.6 2109.56 1227.99 Q2109.56 1224.38 2107.23 1222.27 Q2104.89 1220.16 2100.88 1220.16 Q2099.01 1220.16 2097.13 1220.58 Q2095.28 1221 2093.34 1221.88 L2093.34 1204.52 Z" fill="#000000" fill-rule="nonzero" fill-opacity="1" /><path clip-path="url(#clip480)" d="M2136.3 1208.59 L2124.49 1227.04 L2136.3 1227.04 L2136.3 1208.59 M2135.07 1204.52 L2140.95 1204.52 L2140.95 1227.04 L2145.88 1227.04 L2145.88 1230.93 L2140.95 1230.93 L2140.95 1239.08 L2136.3 1239.08 L2136.3 1230.93 L2120.7 1230.93 L2120.7 1226.41 L2135.07 1204.52 Z" fill="#000000" fill-rule="nonzero" fill-opacity="1" /><path clip-path="url(#clip480)" d="M2166.46 1208.59 L2154.66 1227.04 L2166.46 1227.04 L2166.46 1208.59 M2165.23 1204.52 L2171.11 1204.52 L2171.11 1227.04 L2176.04 1227.04 L2176.04 1230.93 L2171.11 1230.93 L2171.11 1239.08 L2166.46 1239.08 L2166.46 1230.93 L2150.86 1230.93 L2150.86 1226.41 L2165.23 1204.52 Z" fill="#000000" fill-rule="nonzero" fill-opacity="1" /><path clip-path="url(#clip480)" d="M2197.94 1220.44 Q2201.3 1221.16 2203.17 1223.43 Q2205.07 1225.7 2205.07 1229.03 Q2205.07 1234.14 2201.55 1236.95 Q2198.04 1239.75 2191.55 1239.75 Q2189.38 1239.75 2187.06 1239.31 Q2184.77 1238.89 2182.32 1238.03 L2182.32 1233.52 Q2184.26 1234.65 2186.58 1235.23 Q2188.89 1235.81 2191.42 1235.81 Q2195.81 1235.81 2198.1 1234.08 Q2200.42 1232.34 2200.42 1229.03 Q2200.42 1225.97 2198.27 1224.26 Q2196.14 1222.52 2192.32 1222.52 L2188.29 1222.52 L2188.29 1218.68 L2192.5 1218.68 Q2195.95 1218.68 2197.78 1217.32 Q2199.61 1215.93 2199.61 1213.33 Q2199.61 1210.67 2197.71 1209.26 Q2195.84 1207.83 2192.32 1207.83 Q2190.4 1207.83 2188.2 1208.24 Q2186 1208.66 2183.36 1209.54 L2183.36 1205.37 Q2186.02 1204.63 2188.34 1204.26 Q2190.67 1203.89 2192.73 1203.89 Q2198.06 1203.89 2201.16 1206.32 Q2204.26 1208.73 2204.26 1212.85 Q2204.26 1215.72 2202.62 1217.71 Q2200.98 1219.68 2197.94 1220.44 Z" fill="#000000" fill-rule="nonzero" fill-opacity="1" /><path clip-path="url(#clip480)" d="M2217.97 1235.14 L2234.29 1235.14 L2234.29 1239.08 L2212.34 1239.08 L2212.34 1235.14 Q2215 1232.39 2219.59 1227.76 Q2224.19 1223.1 2225.37 1221.76 Q2227.62 1219.24 2228.5 1217.5 Q2229.4 1215.74 2229.4 1214.05 Q2229.4 1211.3 2227.46 1209.56 Q2225.54 1207.83 2222.43 1207.83 Q2220.23 1207.83 2217.78 1208.59 Q2215.35 1209.35 2212.57 1210.9 L2212.57 1206.18 Q2215.4 1205.05 2217.85 1204.47 Q2220.3 1203.89 2222.34 1203.89 Q2227.71 1203.89 2230.91 1206.58 Q2234.1 1209.26 2234.1 1213.75 Q2234.1 1215.88 2233.29 1217.8 Q2232.5 1219.7 2230.4 1222.29 Q2229.82 1222.96 2226.72 1226.18 Q2223.61 1229.38 2217.97 1235.14 Z" fill="#000000" fill-rule="nonzero" fill-opacity="1" /><path clip-path="url(#clip480)" d="M2242.83 1203.1 L2246.53 1203.1 Q2250 1208.57 2251.72 1213.8 Q2253.45 1219.03 2253.45 1224.19 Q2253.45 1229.38 2251.72 1234.63 Q2250 1239.89 2246.53 1245.33 L2242.83 1245.33 Q2245.91 1240.02 2247.41 1234.79 Q2248.94 1229.54 2248.94 1224.19 Q2248.94 1218.84 2247.41 1213.64 Q2245.91 1208.43 2242.83 1203.1 Z" fill="#000000" fill-rule="nonzero" fill-opacity="1" /><polyline clip-path="url(#clip480)" style="stroke:#e26f46; stroke-linecap:round; stroke-linejoin:round; stroke-width:4; stroke-opacity:1; fill:none" points="1636.17,1273.64 1780.09,1273.64 "/>
<path clip-path="url(#clip480)" d="M1824.43 1269.97 Q1826.02 1267.1 1828.25 1265.73 Q1830.47 1264.36 1833.48 1264.36 Q1837.53 1264.36 1839.73 1267.21 Q1841.93 1270.04 1841.93 1275.27 L1841.93 1290.92 L1837.64 1290.92 L1837.64 1275.41 Q1837.64 1271.68 1836.32 1269.87 Q1835.01 1268.07 1832.3 1268.07 Q1828.99 1268.07 1827.07 1270.27 Q1825.14 1272.47 1825.14 1276.26 L1825.14 1290.92 L1820.86 1290.92 L1820.86 1275.41 Q1820.86 1271.66 1819.54 1269.87 Q1818.22 1268.07 1815.47 1268.07 Q1812.2 1268.07 1810.28 1270.29 Q1808.36 1272.49 1808.36 1276.26 L1808.36 1290.92 L1804.08 1290.92 L1804.08 1264.99 L1808.36 1264.99 L1808.36 1269.02 Q1809.82 1266.63 1811.86 1265.5 Q1813.89 1264.36 1816.69 1264.36 Q1819.52 1264.36 1821.49 1265.8 Q1823.48 1267.23 1824.43 1269.97 Z" fill="#000000" fill-rule="nonzero" fill-opacity="1" /><path clip-path="url(#clip480)" d="M1862.2 1277.88 Q1857.04 1277.88 1855.05 1279.06 Q1853.06 1280.24 1853.06 1283.09 Q1853.06 1285.36 1854.54 1286.7 Q1856.05 1288.02 1858.62 1288.02 Q1862.16 1288.02 1864.29 1285.52 Q1866.44 1283 1866.44 1278.83 L1866.44 1277.88 L1862.2 1277.88 M1870.7 1276.12 L1870.7 1290.92 L1866.44 1290.92 L1866.44 1286.98 Q1864.98 1289.34 1862.81 1290.48 Q1860.63 1291.59 1857.48 1291.59 Q1853.5 1291.59 1851.14 1289.36 Q1848.8 1287.12 1848.8 1283.37 Q1848.8 1278.99 1851.72 1276.77 Q1854.66 1274.55 1860.47 1274.55 L1866.44 1274.55 L1866.44 1274.13 Q1866.44 1271.19 1864.5 1269.6 Q1862.57 1267.98 1859.08 1267.98 Q1856.86 1267.98 1854.75 1268.51 Q1852.64 1269.04 1850.7 1270.11 L1850.7 1266.17 Q1853.04 1265.27 1855.24 1264.83 Q1857.44 1264.36 1859.52 1264.36 Q1865.14 1264.36 1867.92 1267.28 Q1870.7 1270.2 1870.7 1276.12 Z" fill="#000000" fill-rule="nonzero" fill-opacity="1" /><path clip-path="url(#clip480)" d="M1896 1265.75 L1896 1269.78 Q1894.19 1268.86 1892.25 1268.39 Q1890.31 1267.93 1888.22 1267.93 Q1885.05 1267.93 1883.45 1268.9 Q1881.88 1269.87 1881.88 1271.82 Q1881.88 1273.3 1883.01 1274.16 Q1884.15 1274.99 1887.57 1275.75 L1889.03 1276.08 Q1893.57 1277.05 1895.47 1278.83 Q1897.39 1280.59 1897.39 1283.76 Q1897.39 1287.37 1894.52 1289.48 Q1891.67 1291.59 1886.67 1291.59 Q1884.59 1291.59 1882.32 1291.17 Q1880.07 1290.78 1877.57 1289.97 L1877.57 1285.57 Q1879.94 1286.79 1882.23 1287.42 Q1884.52 1288.02 1886.76 1288.02 Q1889.77 1288.02 1891.39 1287 Q1893.01 1285.96 1893.01 1284.09 Q1893.01 1282.35 1891.83 1281.42 Q1890.68 1280.5 1886.72 1279.64 L1885.24 1279.3 Q1881.28 1278.46 1879.52 1276.75 Q1877.76 1275.01 1877.76 1272 Q1877.76 1268.35 1880.35 1266.36 Q1882.94 1264.36 1887.71 1264.36 Q1890.07 1264.36 1892.16 1264.71 Q1894.24 1265.06 1896 1265.75 Z" fill="#000000" fill-rule="nonzero" fill-opacity="1" /><path clip-path="url(#clip480)" d="M1920.7 1265.75 L1920.7 1269.78 Q1918.89 1268.86 1916.95 1268.39 Q1915 1267.93 1912.92 1267.93 Q1909.75 1267.93 1908.15 1268.9 Q1906.58 1269.87 1906.58 1271.82 Q1906.58 1273.3 1907.71 1274.16 Q1908.85 1274.99 1912.27 1275.75 L1913.73 1276.08 Q1918.27 1277.05 1920.17 1278.83 Q1922.09 1280.59 1922.09 1283.76 Q1922.09 1287.37 1919.22 1289.48 Q1916.37 1291.59 1911.37 1291.59 Q1909.29 1291.59 1907.02 1291.17 Q1904.77 1290.78 1902.27 1289.97 L1902.27 1285.57 Q1904.63 1286.79 1906.93 1287.42 Q1909.22 1288.02 1911.46 1288.02 Q1914.47 1288.02 1916.09 1287 Q1917.71 1285.96 1917.71 1284.09 Q1917.71 1282.35 1916.53 1281.42 Q1915.37 1280.5 1911.42 1279.64 L1909.94 1279.3 Q1905.98 1278.46 1904.22 1276.75 Q1902.46 1275.01 1902.46 1272 Q1902.46 1268.35 1905.05 1266.36 Q1907.64 1264.36 1912.41 1264.36 Q1914.77 1264.36 1916.86 1264.71 Q1918.94 1265.06 1920.7 1265.75 Z" fill="#000000" fill-rule="nonzero" fill-opacity="1" /><path clip-path="url(#clip480)" d="M1929.47 1285.04 L1934.36 1285.04 L1934.36 1290.92 L1929.47 1290.92 L1929.47 1285.04 Z" fill="#000000" fill-rule="nonzero" fill-opacity="1" /><path clip-path="url(#clip480)" d="M1940.88 1264.99 L1945.4 1264.99 L1953.5 1286.75 L1961.6 1264.99 L1966.12 1264.99 L1956.39 1290.92 L1950.61 1290.92 L1940.88 1264.99 Z" fill="#000000" fill-rule="nonzero" fill-opacity="1" /><path clip-path="url(#clip480)" d="M1997.3 1254.94 Q1994.19 1260.27 1992.69 1265.48 Q1991.18 1270.68 1991.18 1276.03 Q1991.18 1281.38 1992.69 1286.63 Q1994.22 1291.86 1997.3 1297.17 L1993.59 1297.17 Q1990.12 1291.73 1988.38 1286.47 Q1986.67 1281.22 1986.67 1276.03 Q1986.67 1270.87 1988.38 1265.64 Q1990.1 1260.41 1993.59 1254.94 L1997.3 1254.94 Z" fill="#000000" fill-rule="nonzero" fill-opacity="1" /><path clip-path="url(#clip480)" d="M2020.33 1272.28 Q2023.68 1273 2025.56 1275.27 Q2027.46 1277.54 2027.46 1280.87 Q2027.46 1285.98 2023.94 1288.79 Q2020.42 1291.59 2013.94 1291.59 Q2011.76 1291.59 2009.45 1291.15 Q2007.16 1290.73 2004.7 1289.87 L2004.7 1285.36 Q2006.65 1286.49 2008.96 1287.07 Q2011.28 1287.65 2013.8 1287.65 Q2018.2 1287.65 2020.49 1285.92 Q2022.8 1284.18 2022.8 1280.87 Q2022.8 1277.81 2020.65 1276.1 Q2018.52 1274.36 2014.7 1274.36 L2010.68 1274.36 L2010.68 1270.52 L2014.89 1270.52 Q2018.34 1270.52 2020.17 1269.16 Q2021.99 1267.77 2021.99 1265.17 Q2021.99 1262.51 2020.1 1261.1 Q2018.22 1259.67 2014.7 1259.67 Q2012.78 1259.67 2010.58 1260.08 Q2008.38 1260.5 2005.74 1261.38 L2005.74 1257.21 Q2008.41 1256.47 2010.72 1256.1 Q2013.06 1255.73 2015.12 1255.73 Q2020.44 1255.73 2023.55 1258.16 Q2026.65 1260.57 2026.65 1264.69 Q2026.65 1267.56 2025 1269.55 Q2023.36 1271.52 2020.33 1272.28 Z" fill="#000000" fill-rule="nonzero" fill-opacity="1" /><path clip-path="url(#clip480)" d="M2050.49 1272.28 Q2053.85 1273 2055.72 1275.27 Q2057.62 1277.54 2057.62 1280.87 Q2057.62 1285.98 2054.1 1288.79 Q2050.58 1291.59 2044.1 1291.59 Q2041.93 1291.59 2039.61 1291.15 Q2037.32 1290.73 2034.87 1289.87 L2034.87 1285.36 Q2036.81 1286.49 2039.12 1287.07 Q2041.44 1287.65 2043.96 1287.65 Q2048.36 1287.65 2050.65 1285.92 Q2052.97 1284.18 2052.97 1280.87 Q2052.97 1277.81 2050.81 1276.1 Q2048.68 1274.36 2044.87 1274.36 L2040.84 1274.36 L2040.84 1270.52 L2045.05 1270.52 Q2048.5 1270.52 2050.33 1269.16 Q2052.16 1267.77 2052.16 1265.17 Q2052.16 1262.51 2050.26 1261.1 Q2048.38 1259.67 2044.87 1259.67 Q2042.94 1259.67 2040.74 1260.08 Q2038.55 1260.5 2035.91 1261.38 L2035.91 1257.21 Q2038.57 1256.47 2040.88 1256.1 Q2043.22 1255.73 2045.28 1255.73 Q2050.61 1255.73 2053.71 1258.16 Q2056.81 1260.57 2056.81 1264.69 Q2056.81 1267.56 2055.17 1269.55 Q2053.52 1271.52 2050.49 1272.28 Z" fill="#000000" fill-rule="nonzero" fill-opacity="1" /><path clip-path="url(#clip480)" d="M2066.53 1256.36 L2084.89 1256.36 L2084.89 1260.29 L2070.81 1260.29 L2070.81 1268.76 Q2071.83 1268.42 2072.85 1268.25 Q2073.87 1268.07 2074.89 1268.07 Q2080.68 1268.07 2084.05 1271.24 Q2087.43 1274.41 2087.43 1279.83 Q2087.43 1285.41 2083.96 1288.51 Q2080.49 1291.59 2074.17 1291.59 Q2071.99 1291.59 2069.73 1291.22 Q2067.48 1290.85 2065.07 1290.11 L2065.07 1285.41 Q2067.16 1286.54 2069.38 1287.1 Q2071.6 1287.65 2074.08 1287.65 Q2078.08 1287.65 2080.42 1285.54 Q2082.76 1283.44 2082.76 1279.83 Q2082.76 1276.22 2080.42 1274.11 Q2078.08 1272 2074.08 1272 Q2072.2 1272 2070.33 1272.42 Q2068.48 1272.84 2066.53 1273.72 L2066.53 1256.36 Z" fill="#000000" fill-rule="nonzero" fill-opacity="1" /><path clip-path="url(#clip480)" d="M2096.69 1256.36 L2115.05 1256.36 L2115.05 1260.29 L2100.98 1260.29 L2100.98 1268.76 Q2101.99 1268.42 2103.01 1268.25 Q2104.03 1268.07 2105.05 1268.07 Q2110.84 1268.07 2114.22 1271.24 Q2117.6 1274.41 2117.6 1279.83 Q2117.6 1285.41 2114.12 1288.51 Q2110.65 1291.59 2104.33 1291.59 Q2102.16 1291.59 2099.89 1291.22 Q2097.64 1290.85 2095.24 1290.11 L2095.24 1285.41 Q2097.32 1286.54 2099.54 1287.1 Q2101.76 1287.65 2104.24 1287.65 Q2108.24 1287.65 2110.58 1285.54 Q2112.92 1283.44 2112.92 1279.83 Q2112.92 1276.22 2110.58 1274.11 Q2108.24 1272 2104.24 1272 Q2102.36 1272 2100.49 1272.42 Q2098.64 1272.84 2096.69 1273.72 L2096.69 1256.36 Z" fill="#000000" fill-rule="nonzero" fill-opacity="1" /><path clip-path="url(#clip480)" d="M2139.66 1260.43 L2127.85 1278.88 L2139.66 1278.88 L2139.66 1260.43 M2138.43 1256.36 L2144.31 1256.36 L2144.31 1278.88 L2149.24 1278.88 L2149.24 1282.77 L2144.31 1282.77 L2144.31 1290.92 L2139.66 1290.92 L2139.66 1282.77 L2124.05 1282.77 L2124.05 1278.25 L2138.43 1256.36 Z" fill="#000000" fill-rule="nonzero" fill-opacity="1" /><path clip-path="url(#clip480)" d="M2169.82 1260.43 L2158.01 1278.88 L2169.82 1278.88 L2169.82 1260.43 M2168.59 1256.36 L2174.47 1256.36 L2174.47 1278.88 L2179.4 1278.88 L2179.4 1282.77 L2174.47 1282.77 L2174.47 1290.92 L2169.82 1290.92 L2169.82 1282.77 L2154.22 1282.77 L2154.22 1278.25 L2168.59 1256.36 Z" fill="#000000" fill-rule="nonzero" fill-opacity="1" /><path clip-path="url(#clip480)" d="M2201.3 1272.28 Q2204.66 1273 2206.53 1275.27 Q2208.43 1277.54 2208.43 1280.87 Q2208.43 1285.98 2204.91 1288.79 Q2201.39 1291.59 2194.91 1291.59 Q2192.73 1291.59 2190.42 1291.15 Q2188.13 1290.73 2185.67 1289.87 L2185.67 1285.36 Q2187.62 1286.49 2189.93 1287.07 Q2192.25 1287.65 2194.77 1287.65 Q2199.17 1287.65 2201.46 1285.92 Q2203.78 1284.18 2203.78 1280.87 Q2203.78 1277.81 2201.62 1276.1 Q2199.49 1274.36 2195.67 1274.36 L2191.65 1274.36 L2191.65 1270.52 L2195.86 1270.52 Q2199.31 1270.52 2201.14 1269.16 Q2202.97 1267.77 2202.97 1265.17 Q2202.97 1262.51 2201.07 1261.1 Q2199.19 1259.67 2195.67 1259.67 Q2193.75 1259.67 2191.55 1260.08 Q2189.36 1260.5 2186.72 1261.38 L2186.72 1257.21 Q2189.38 1256.47 2191.69 1256.1 Q2194.03 1255.73 2196.09 1255.73 Q2201.42 1255.73 2204.52 1258.16 Q2207.62 1260.57 2207.62 1264.69 Q2207.62 1267.56 2205.98 1269.55 Q2204.33 1271.52 2201.3 1272.28 Z" fill="#000000" fill-rule="nonzero" fill-opacity="1" /><path clip-path="url(#clip480)" d="M2231.46 1272.28 Q2234.82 1273 2236.69 1275.27 Q2238.59 1277.54 2238.59 1280.87 Q2238.59 1285.98 2235.07 1288.79 Q2231.55 1291.59 2225.07 1291.59 Q2222.9 1291.59 2220.58 1291.15 Q2218.29 1290.73 2215.84 1289.87 L2215.84 1285.36 Q2217.78 1286.49 2220.1 1287.07 Q2222.41 1287.65 2224.93 1287.65 Q2229.33 1287.65 2231.62 1285.92 Q2233.94 1284.18 2233.94 1280.87 Q2233.94 1277.81 2231.79 1276.1 Q2229.66 1274.36 2225.84 1274.36 L2221.81 1274.36 L2221.81 1270.52 L2226.02 1270.52 Q2229.47 1270.52 2231.3 1269.16 Q2233.13 1267.77 2233.13 1265.17 Q2233.13 1262.51 2231.23 1261.1 Q2229.35 1259.67 2225.84 1259.67 Q2223.92 1259.67 2221.72 1260.08 Q2219.52 1260.5 2216.88 1261.38 L2216.88 1257.21 Q2219.54 1256.47 2221.85 1256.1 Q2224.19 1255.73 2226.25 1255.73 Q2231.58 1255.73 2234.68 1258.16 Q2237.78 1260.57 2237.78 1264.69 Q2237.78 1267.56 2236.14 1269.55 Q2234.49 1271.52 2231.46 1272.28 Z" fill="#000000" fill-rule="nonzero" fill-opacity="1" /><path clip-path="url(#clip480)" d="M2246.18 1254.94 L2249.89 1254.94 Q2253.36 1260.41 2255.07 1265.64 Q2256.81 1270.87 2256.81 1276.03 Q2256.81 1281.22 2255.07 1286.47 Q2253.36 1291.73 2249.89 1297.17 L2246.18 1297.17 Q2249.26 1291.86 2250.77 1286.63 Q2252.29 1281.38 2252.29 1276.03 Q2252.29 1270.68 2250.77 1265.48 Q2249.26 1260.27 2246.18 1254.94 Z" fill="#000000" fill-rule="nonzero" fill-opacity="1" /><polyline clip-path="url(#clip480)" style="stroke:#0000ff; stroke-linecap:round; stroke-linejoin:round; stroke-width:4; stroke-opacity:1; fill:none" stroke-dasharray="16, 10" points="1636.17,1325.48 1780.09,1325.48 "/>
<path clip-path="url(#clip480)" d="M1826.32 1309.33 L1826.32 1313.89 Q1823.66 1312.62 1821.3 1311.99 Q1818.94 1311.37 1816.74 1311.37 Q1812.92 1311.37 1810.84 1312.85 Q1808.78 1314.33 1808.78 1317.06 Q1808.78 1319.35 1810.14 1320.53 Q1811.53 1321.69 1815.38 1322.41 L1818.2 1322.99 Q1823.43 1323.98 1825.91 1326.51 Q1828.41 1329.01 1828.41 1333.22 Q1828.41 1338.24 1825.03 1340.83 Q1821.67 1343.43 1815.17 1343.43 Q1812.71 1343.43 1809.94 1342.87 Q1807.18 1342.32 1804.22 1341.23 L1804.22 1336.41 Q1807.07 1338.01 1809.8 1338.82 Q1812.53 1339.63 1815.17 1339.63 Q1819.17 1339.63 1821.35 1338.06 Q1823.52 1336.48 1823.52 1333.57 Q1823.52 1331.02 1821.95 1329.58 Q1820.4 1328.15 1816.83 1327.43 L1813.99 1326.88 Q1808.76 1325.83 1806.42 1323.61 Q1804.08 1321.39 1804.08 1317.43 Q1804.08 1312.85 1807.3 1310.21 Q1810.54 1307.57 1816.21 1307.57 Q1818.64 1307.57 1821.16 1308.01 Q1823.69 1308.45 1826.32 1309.33 Z" fill="#000000" fill-rule="nonzero" fill-opacity="1" /><path clip-path="url(#clip480)" d="M1839.73 1309.47 L1839.73 1316.83 L1848.5 1316.83 L1848.5 1320.14 L1839.73 1320.14 L1839.73 1334.21 Q1839.73 1337.38 1840.58 1338.29 Q1841.46 1339.19 1844.13 1339.19 L1848.5 1339.19 L1848.5 1342.76 L1844.13 1342.76 Q1839.19 1342.76 1837.32 1340.93 Q1835.44 1339.07 1835.44 1334.21 L1835.44 1320.14 L1832.32 1320.14 L1832.32 1316.83 L1835.44 1316.83 L1835.44 1309.47 L1839.73 1309.47 Z" fill="#000000" fill-rule="nonzero" fill-opacity="1" /><path clip-path="url(#clip480)" d="M1865.88 1329.72 Q1860.72 1329.72 1858.73 1330.9 Q1856.74 1332.08 1856.74 1334.93 Q1856.74 1337.2 1858.22 1338.54 Q1859.73 1339.86 1862.3 1339.86 Q1865.84 1339.86 1867.97 1337.36 Q1870.12 1334.84 1870.12 1330.67 L1870.12 1329.72 L1865.88 1329.72 M1874.38 1327.96 L1874.38 1342.76 L1870.12 1342.76 L1870.12 1338.82 Q1868.66 1341.18 1866.49 1342.32 Q1864.31 1343.43 1861.16 1343.43 Q1857.18 1343.43 1854.82 1341.2 Q1852.48 1338.96 1852.48 1335.21 Q1852.48 1330.83 1855.4 1328.61 Q1858.34 1326.39 1864.15 1326.39 L1870.12 1326.39 L1870.12 1325.97 Q1870.12 1323.03 1868.18 1321.44 Q1866.25 1319.82 1862.76 1319.82 Q1860.54 1319.82 1858.43 1320.35 Q1856.32 1320.88 1854.38 1321.95 L1854.38 1318.01 Q1856.72 1317.11 1858.92 1316.67 Q1861.12 1316.2 1863.2 1316.2 Q1868.82 1316.2 1871.6 1319.12 Q1874.38 1322.04 1874.38 1327.96 Z" fill="#000000" fill-rule="nonzero" fill-opacity="1" /><path clip-path="url(#clip480)" d="M1887.37 1309.47 L1887.37 1316.83 L1896.14 1316.83 L1896.14 1320.14 L1887.37 1320.14 L1887.37 1334.21 Q1887.37 1337.38 1888.22 1338.29 Q1889.1 1339.19 1891.76 1339.19 L1896.14 1339.19 L1896.14 1342.76 L1891.76 1342.76 Q1886.83 1342.76 1884.96 1340.93 Q1883.08 1339.07 1883.08 1334.21 L1883.08 1320.14 L1879.96 1320.14 L1879.96 1316.83 L1883.08 1316.83 L1883.08 1309.47 L1887.37 1309.47 Z" fill="#000000" fill-rule="nonzero" fill-opacity="1" /><path clip-path="url(#clip480)" d="M1923.92 1328.73 L1923.92 1330.81 L1904.33 1330.81 Q1904.61 1335.21 1906.97 1337.52 Q1909.36 1339.82 1913.59 1339.82 Q1916.05 1339.82 1918.34 1339.21 Q1920.65 1338.61 1922.92 1337.41 L1922.92 1341.44 Q1920.63 1342.41 1918.22 1342.92 Q1915.81 1343.43 1913.34 1343.43 Q1907.13 1343.43 1903.5 1339.82 Q1899.89 1336.2 1899.89 1330.05 Q1899.89 1323.68 1903.31 1319.95 Q1906.76 1316.2 1912.6 1316.2 Q1917.83 1316.2 1920.86 1319.58 Q1923.92 1322.94 1923.92 1328.73 M1919.66 1327.48 Q1919.61 1323.98 1917.69 1321.9 Q1915.79 1319.82 1912.64 1319.82 Q1909.08 1319.82 1906.93 1321.83 Q1904.8 1323.84 1904.47 1327.5 L1919.66 1327.48 Z" fill="#000000" fill-rule="nonzero" fill-opacity="1" /><path clip-path="url(#clip480)" d="M1968.15 1328.73 L1968.15 1330.81 L1948.57 1330.81 Q1948.85 1335.21 1951.21 1337.52 Q1953.59 1339.82 1957.83 1339.82 Q1960.28 1339.82 1962.57 1339.21 Q1964.89 1338.61 1967.16 1337.41 L1967.16 1341.44 Q1964.87 1342.41 1962.46 1342.92 Q1960.05 1343.43 1957.57 1343.43 Q1951.37 1343.43 1947.74 1339.82 Q1944.12 1336.2 1944.12 1330.05 Q1944.12 1323.68 1947.55 1319.95 Q1951 1316.2 1956.83 1316.2 Q1962.06 1316.2 1965.1 1319.58 Q1968.15 1322.94 1968.15 1328.73 M1963.89 1327.48 Q1963.85 1323.98 1961.93 1321.9 Q1960.03 1319.82 1956.88 1319.82 Q1953.31 1319.82 1951.16 1321.83 Q1949.03 1323.84 1948.71 1327.5 L1963.89 1327.48 Z" fill="#000000" fill-rule="nonzero" fill-opacity="1" /><path clip-path="url(#clip480)" d="M1972.09 1316.83 L1976.6 1316.83 L1984.7 1338.59 L1992.81 1316.83 L1997.32 1316.83 L1987.6 1342.76 L1981.81 1342.76 L1972.09 1316.83 Z" fill="#000000" fill-rule="nonzero" fill-opacity="1" /><path clip-path="url(#clip480)" d="M2025.37 1328.73 L2025.37 1330.81 L2005.79 1330.81 Q2006.07 1335.21 2008.43 1337.52 Q2010.81 1339.82 2015.05 1339.82 Q2017.5 1339.82 2019.8 1339.21 Q2022.11 1338.61 2024.38 1337.41 L2024.38 1341.44 Q2022.09 1342.41 2019.68 1342.92 Q2017.27 1343.43 2014.8 1343.43 Q2008.59 1343.43 2004.96 1339.82 Q2001.35 1336.2 2001.35 1330.05 Q2001.35 1323.68 2004.77 1319.95 Q2008.22 1316.2 2014.06 1316.2 Q2019.29 1316.2 2022.32 1319.58 Q2025.37 1322.94 2025.37 1328.73 M2021.12 1327.48 Q2021.07 1323.98 2019.15 1321.9 Q2017.25 1319.82 2014.1 1319.82 Q2010.54 1319.82 2008.38 1321.83 Q2006.25 1323.84 2005.93 1327.5 L2021.12 1327.48 Z" fill="#000000" fill-rule="nonzero" fill-opacity="1" /><path clip-path="url(#clip480)" d="M2053.92 1327.11 L2053.92 1342.76 L2049.66 1342.76 L2049.66 1327.25 Q2049.66 1323.57 2048.22 1321.74 Q2046.79 1319.91 2043.92 1319.91 Q2040.47 1319.91 2038.48 1322.11 Q2036.49 1324.31 2036.49 1328.1 L2036.49 1342.76 L2032.2 1342.76 L2032.2 1316.83 L2036.49 1316.83 L2036.49 1320.86 Q2038.01 1318.52 2040.07 1317.36 Q2042.16 1316.2 2044.87 1316.2 Q2049.33 1316.2 2051.62 1318.98 Q2053.92 1321.74 2053.92 1327.11 Z" fill="#000000" fill-rule="nonzero" fill-opacity="1" /><path clip-path="url(#clip480)" d="M2066.62 1309.47 L2066.62 1316.83 L2075.4 1316.83 L2075.4 1320.14 L2066.62 1320.14 L2066.62 1334.21 Q2066.62 1337.38 2067.48 1338.29 Q2068.36 1339.19 2071.02 1339.19 L2075.4 1339.19 L2075.4 1342.76 L2071.02 1342.76 Q2066.09 1342.76 2064.22 1340.93 Q2062.34 1339.07 2062.34 1334.21 L2062.34 1320.14 L2059.22 1320.14 L2059.22 1316.83 L2062.34 1316.83 L2062.34 1309.47 L2066.62 1309.47 Z" fill="#000000" fill-rule="nonzero" fill-opacity="1" /><path clip-path="url(#clip480)" d="M2091.23 1306.78 Q2088.13 1312.11 2086.62 1317.32 Q2085.12 1322.52 2085.12 1327.87 Q2085.12 1333.22 2086.62 1338.47 Q2088.15 1343.7 2091.23 1349.01 L2087.53 1349.01 Q2084.05 1343.57 2082.32 1338.31 Q2080.61 1333.06 2080.61 1327.87 Q2080.61 1322.71 2082.32 1317.48 Q2084.03 1312.25 2087.53 1306.78 L2091.23 1306.78 Z" fill="#000000" fill-rule="nonzero" fill-opacity="1" /><path clip-path="url(#clip480)" d="M2116.02 1317.59 L2116.02 1321.62 Q2114.22 1320.7 2112.27 1320.23 Q2110.33 1319.77 2108.24 1319.77 Q2105.07 1319.77 2103.48 1320.74 Q2101.9 1321.71 2101.9 1323.66 Q2101.9 1325.14 2103.04 1326 Q2104.17 1326.83 2107.6 1327.59 L2109.05 1327.92 Q2113.59 1328.89 2115.49 1330.67 Q2117.41 1332.43 2117.41 1335.6 Q2117.41 1339.21 2114.54 1341.32 Q2111.69 1343.43 2106.69 1343.43 Q2104.61 1343.43 2102.34 1343.01 Q2100.1 1342.62 2097.6 1341.81 L2097.6 1337.41 Q2099.96 1338.63 2102.25 1339.26 Q2104.54 1339.86 2106.79 1339.86 Q2109.8 1339.86 2111.42 1338.84 Q2113.04 1337.8 2113.04 1335.93 Q2113.04 1334.19 2111.86 1333.26 Q2110.7 1332.34 2106.74 1331.48 L2105.26 1331.14 Q2101.3 1330.3 2099.54 1328.59 Q2097.78 1326.85 2097.78 1323.84 Q2097.78 1320.19 2100.37 1318.2 Q2102.97 1316.2 2107.74 1316.2 Q2110.1 1316.2 2112.18 1316.55 Q2114.26 1316.9 2116.02 1317.59 Z" fill="#000000" fill-rule="nonzero" fill-opacity="1" /><path clip-path="url(#clip480)" d="M2123.52 1306.78 L2127.23 1306.78 Q2130.7 1312.25 2132.41 1317.48 Q2134.15 1322.71 2134.15 1327.87 Q2134.15 1333.06 2132.41 1338.31 Q2130.7 1343.57 2127.23 1349.01 L2123.52 1349.01 Q2126.6 1343.7 2128.11 1338.47 Q2129.63 1333.22 2129.63 1327.87 Q2129.63 1322.52 2128.11 1317.32 Q2126.6 1312.11 2123.52 1306.78 Z" fill="#000000" fill-rule="nonzero" fill-opacity="1" /></svg>
