<?xml version="1.0" encoding="utf-8"?>
<svg xmlns="http://www.w3.org/2000/svg" xmlns:xlink="http://www.w3.org/1999/xlink" width="600" height="400" viewBox="0 0 2400 1600">
<defs>
  <clipPath id="clip870">
    <rect x="0" y="0" width="2400" height="1600"/>
  </clipPath>
</defs>
<path clip-path="url(#clip870)" d="M0 1600 L2400 1600 L2400 0 L0 0  Z" fill="#ffffff" fill-rule="evenodd" fill-opacity="1"/>
<defs>
  <clipPath id="clip871">
    <rect x="480" y="0" width="1681" height="1600"/>
  </clipPath>
</defs>
<path clip-path="url(#clip870)" d="M147.478 1423.18 L2352.76 1423.18 L2352.76 47.2441 L147.478 47.2441  Z" fill="#ffffff" fill-rule="evenodd" fill-opacity="1"/>
<defs>
  <clipPath id="clip872">
    <rect x="147" y="47" width="2206" height="1377"/>
  </clipPath>
</defs>
<polyline clip-path="url(#clip872)" style="stroke:#000000; stroke-linecap:round; stroke-linejoin:round; stroke-width:2; stroke-opacity:0.1; fill:none" points="209.891,1423.18 209.891,47.2441 "/>
<polyline clip-path="url(#clip872)" style="stroke:#000000; stroke-linecap:round; stroke-linejoin:round; stroke-width:2; stroke-opacity:0.1; fill:none" points="730.004,1423.18 730.004,47.2441 "/>
<polyline clip-path="url(#clip872)" style="stroke:#000000; stroke-linecap:round; stroke-linejoin:round; stroke-width:2; stroke-opacity:0.1; fill:none" points="1250.12,1423.18 1250.12,47.2441 "/>
<polyline clip-path="url(#clip872)" style="stroke:#000000; stroke-linecap:round; stroke-linejoin:round; stroke-width:2; stroke-opacity:0.1; fill:none" points="1770.23,1423.18 1770.23,47.2441 "/>
<polyline clip-path="url(#clip872)" style="stroke:#000000; stroke-linecap:round; stroke-linejoin:round; stroke-width:2; stroke-opacity:0.1; fill:none" points="2290.34,1423.18 2290.34,47.2441 "/>
<polyline clip-path="url(#clip872)" style="stroke:#000000; stroke-linecap:round; stroke-linejoin:round; stroke-width:2; stroke-opacity:0.1; fill:none" points="147.478,1382.7 2352.76,1382.7 "/>
<polyline clip-path="url(#clip872)" style="stroke:#000000; stroke-linecap:round; stroke-linejoin:round; stroke-width:2; stroke-opacity:0.1; fill:none" points="147.478,1059.34 2352.76,1059.34 "/>
<polyline clip-path="url(#clip872)" style="stroke:#000000; stroke-linecap:round; stroke-linejoin:round; stroke-width:2; stroke-opacity:0.1; fill:none" points="147.478,735.972 2352.76,735.972 "/>
<polyline clip-path="url(#clip872)" style="stroke:#000000; stroke-linecap:round; stroke-linejoin:round; stroke-width:2; stroke-opacity:0.1; fill:none" points="147.478,412.608 2352.76,412.608 "/>
<polyline clip-path="url(#clip872)" style="stroke:#000000; stroke-linecap:round; stroke-linejoin:round; stroke-width:2; stroke-opacity:0.1; fill:none" points="147.478,89.2432 2352.76,89.2432 "/>
<polyline clip-path="url(#clip870)" style="stroke:#000000; stroke-linecap:round; stroke-linejoin:round; stroke-width:4; stroke-opacity:1; fill:none" points="147.478,1423.18 2352.76,1423.18 "/>
<polyline clip-path="url(#clip870)" style="stroke:#000000; stroke-linecap:round; stroke-linejoin:round; stroke-width:4; stroke-opacity:1; fill:none" points="209.891,1423.18 209.891,1404.28 "/>
<polyline clip-path="url(#clip870)" style="stroke:#000000; stroke-linecap:round; stroke-linejoin:round; stroke-width:4; stroke-opacity:1; fill:none" points="730.004,1423.18 730.004,1404.28 "/>
<polyline clip-path="url(#clip870)" style="stroke:#000000; stroke-linecap:round; stroke-linejoin:round; stroke-width:4; stroke-opacity:1; fill:none" points="1250.12,1423.18 1250.12,1404.28 "/>
<polyline clip-path="url(#clip870)" style="stroke:#000000; stroke-linecap:round; stroke-linejoin:round; stroke-width:4; stroke-opacity:1; fill:none" points="1770.23,1423.18 1770.23,1404.28 "/>
<polyline clip-path="url(#clip870)" style="stroke:#000000; stroke-linecap:round; stroke-linejoin:round; stroke-width:4; stroke-opacity:1; fill:none" points="2290.34,1423.18 2290.34,1404.28 "/>
<path clip-path="url(#clip870)" d="M209.891 1454.1 Q206.28 1454.1 204.452 1457.66 Q202.646 1461.2 202.646 1468.33 Q202.646 1475.44 204.452 1479.01 Q206.28 1482.55 209.891 1482.55 Q213.526 1482.55 215.331 1479.01 Q217.16 1475.44 217.16 1468.33 Q217.16 1461.2 215.331 1457.66 Q213.526 1454.1 209.891 1454.1 M209.891 1450.39 Q215.702 1450.39 218.757 1455 Q221.836 1459.58 221.836 1468.33 Q221.836 1477.06 218.757 1481.67 Q215.702 1486.25 209.891 1486.25 Q204.081 1486.25 201.003 1481.67 Q197.947 1477.06 197.947 1468.33 Q197.947 1459.58 201.003 1455 Q204.081 1450.39 209.891 1450.39 Z" fill="#000000" fill-rule="nonzero" fill-opacity="1" /><path clip-path="url(#clip870)" d="M724.657 1481.64 L740.976 1481.64 L740.976 1485.58 L719.032 1485.58 L719.032 1481.64 Q721.694 1478.89 726.277 1474.26 Q730.884 1469.61 732.064 1468.27 Q734.31 1465.74 735.189 1464.01 Q736.092 1462.25 736.092 1460.56 Q736.092 1457.8 734.148 1456.07 Q732.226 1454.33 729.125 1454.33 Q726.925 1454.33 724.472 1455.09 Q722.041 1455.86 719.263 1457.41 L719.263 1452.69 Q722.088 1451.55 724.541 1450.97 Q726.995 1450.39 729.032 1450.39 Q734.402 1450.39 737.597 1453.08 Q740.791 1455.77 740.791 1460.26 Q740.791 1462.39 739.981 1464.31 Q739.194 1466.2 737.087 1468.8 Q736.509 1469.47 733.407 1472.69 Q730.305 1475.88 724.657 1481.64 Z" fill="#000000" fill-rule="nonzero" fill-opacity="1" /><path clip-path="url(#clip870)" d="M1253.13 1455.09 L1241.32 1473.54 L1253.13 1473.54 L1253.13 1455.09 M1251.9 1451.02 L1257.78 1451.02 L1257.78 1473.54 L1262.71 1473.54 L1262.71 1477.43 L1257.78 1477.43 L1257.78 1485.58 L1253.13 1485.58 L1253.13 1477.43 L1237.52 1477.43 L1237.52 1472.92 L1251.9 1451.02 Z" fill="#000000" fill-rule="nonzero" fill-opacity="1" /><path clip-path="url(#clip870)" d="M1770.63 1466.44 Q1767.49 1466.44 1765.63 1468.59 Q1763.81 1470.74 1763.81 1474.49 Q1763.81 1478.22 1765.63 1480.39 Q1767.49 1482.55 1770.63 1482.55 Q1773.78 1482.55 1775.61 1480.39 Q1777.46 1478.22 1777.46 1474.49 Q1777.46 1470.74 1775.61 1468.59 Q1773.78 1466.44 1770.63 1466.44 M1779.92 1451.78 L1779.92 1456.04 Q1778.16 1455.21 1776.35 1454.77 Q1774.57 1454.33 1772.81 1454.33 Q1768.18 1454.33 1765.73 1457.45 Q1763.3 1460.58 1762.95 1466.9 Q1764.32 1464.89 1766.38 1463.82 Q1768.44 1462.73 1770.91 1462.73 Q1776.12 1462.73 1779.13 1465.9 Q1782.16 1469.05 1782.16 1474.49 Q1782.16 1479.82 1779.01 1483.03 Q1775.87 1486.25 1770.63 1486.25 Q1764.64 1486.25 1761.47 1481.67 Q1758.3 1477.06 1758.3 1468.33 Q1758.3 1460.14 1762.19 1455.28 Q1766.07 1450.39 1772.63 1450.39 Q1774.38 1450.39 1776.17 1450.74 Q1777.97 1451.09 1779.92 1451.78 Z" fill="#000000" fill-rule="nonzero" fill-opacity="1" /><path clip-path="url(#clip870)" d="M2290.34 1469.17 Q2287.01 1469.17 2285.09 1470.95 Q2283.19 1472.73 2283.19 1475.86 Q2283.19 1478.98 2285.09 1480.77 Q2287.01 1482.55 2290.34 1482.55 Q2293.68 1482.55 2295.6 1480.77 Q2297.52 1478.96 2297.52 1475.86 Q2297.52 1472.73 2295.6 1470.95 Q2293.7 1469.17 2290.34 1469.17 M2285.67 1467.18 Q2282.66 1466.44 2280.97 1464.38 Q2279.3 1462.32 2279.3 1459.35 Q2279.3 1455.21 2282.24 1452.8 Q2285.2 1450.39 2290.34 1450.39 Q2295.5 1450.39 2298.44 1452.8 Q2301.38 1455.21 2301.38 1459.35 Q2301.38 1462.32 2299.69 1464.38 Q2298.03 1466.44 2295.04 1467.18 Q2298.42 1467.96 2300.3 1470.26 Q2302.19 1472.55 2302.19 1475.86 Q2302.19 1480.88 2299.12 1483.57 Q2296.06 1486.25 2290.34 1486.25 Q2284.62 1486.25 2281.55 1483.57 Q2278.49 1480.88 2278.49 1475.86 Q2278.49 1472.55 2280.39 1470.26 Q2282.29 1467.96 2285.67 1467.18 M2283.95 1459.79 Q2283.95 1462.48 2285.62 1463.98 Q2287.31 1465.49 2290.34 1465.49 Q2293.35 1465.49 2295.04 1463.98 Q2296.75 1462.48 2296.75 1459.79 Q2296.75 1457.11 2295.04 1455.6 Q2293.35 1454.1 2290.34 1454.1 Q2287.31 1454.1 2285.62 1455.6 Q2283.95 1457.11 2283.95 1459.79 Z" fill="#000000" fill-rule="nonzero" fill-opacity="1" /><path clip-path="url(#clip870)" d="M1198.43 1522.27 L1198.43 1532.4 L1210.49 1532.4 L1210.49 1536.95 L1198.43 1536.95 L1198.43 1556.3 Q1198.43 1560.66 1199.61 1561.9 Q1200.81 1563.14 1204.47 1563.14 L1210.49 1563.14 L1210.49 1568.04 L1204.47 1568.04 Q1197.7 1568.04 1195.12 1565.53 Q1192.54 1562.98 1192.54 1556.3 L1192.54 1536.95 L1188.24 1536.95 L1188.24 1532.4 L1192.54 1532.4 L1192.54 1522.27 L1198.43 1522.27 Z" fill="#000000" fill-rule="nonzero" fill-opacity="1" /><path clip-path="url(#clip870)" d="M1238.37 1518.52 L1251.87 1518.52 L1251.87 1523.07 L1244.23 1523.07 L1244.23 1572.09 L1251.87 1572.09 L1251.87 1576.64 L1238.37 1576.64 L1238.37 1518.52 Z" fill="#000000" fill-rule="nonzero" fill-opacity="1" /><path clip-path="url(#clip870)" d="M1287.07 1533.45 L1287.07 1538.98 Q1284.59 1537.71 1281.91 1537.07 Q1279.24 1536.44 1276.38 1536.44 Q1272.01 1536.44 1269.82 1537.77 Q1267.65 1539.11 1267.65 1541.79 Q1267.65 1543.82 1269.21 1545 Q1270.77 1546.15 1275.48 1547.2 L1277.49 1547.64 Q1283.73 1548.98 1286.34 1551.43 Q1288.98 1553.85 1288.98 1558.21 Q1288.98 1563.17 1285.03 1566.07 Q1281.12 1568.97 1274.24 1568.97 Q1271.38 1568.97 1268.26 1568.39 Q1265.17 1567.85 1261.73 1566.74 L1261.73 1560.69 Q1264.98 1562.38 1268.13 1563.24 Q1271.28 1564.07 1274.37 1564.07 Q1278.51 1564.07 1280.74 1562.66 Q1282.96 1561.23 1282.96 1558.65 Q1282.96 1556.27 1281.34 1554.99 Q1279.75 1553.72 1274.31 1552.54 L1272.27 1552.07 Q1266.83 1550.92 1264.41 1548.56 Q1261.99 1546.18 1261.99 1542.04 Q1261.99 1537.01 1265.55 1534.27 Q1269.12 1531.54 1275.68 1531.54 Q1278.92 1531.54 1281.79 1532.01 Q1284.65 1532.49 1287.07 1533.45 Z" fill="#000000" fill-rule="nonzero" fill-opacity="1" /><path clip-path="url(#clip870)" d="M1311.99 1518.52 L1311.99 1576.64 L1298.5 1576.64 L1298.5 1572.09 L1306.1 1572.09 L1306.1 1523.07 L1298.5 1523.07 L1298.5 1518.52 L1311.99 1518.52 Z" fill="#000000" fill-rule="nonzero" fill-opacity="1" /><polyline clip-path="url(#clip870)" style="stroke:#000000; stroke-linecap:round; stroke-linejoin:round; stroke-width:4; stroke-opacity:1; fill:none" points="147.478,1423.18 147.478,47.2441 "/>
<polyline clip-path="url(#clip870)" style="stroke:#000000; stroke-linecap:round; stroke-linejoin:round; stroke-width:4; stroke-opacity:1; fill:none" points="147.478,1382.7 166.376,1382.7 "/>
<polyline clip-path="url(#clip870)" style="stroke:#000000; stroke-linecap:round; stroke-linejoin:round; stroke-width:4; stroke-opacity:1; fill:none" points="147.478,1059.34 166.376,1059.34 "/>
<polyline clip-path="url(#clip870)" style="stroke:#000000; stroke-linecap:round; stroke-linejoin:round; stroke-width:4; stroke-opacity:1; fill:none" points="147.478,735.972 166.376,735.972 "/>
<polyline clip-path="url(#clip870)" style="stroke:#000000; stroke-linecap:round; stroke-linejoin:round; stroke-width:4; stroke-opacity:1; fill:none" points="147.478,412.608 166.376,412.608 "/>
<polyline clip-path="url(#clip870)" style="stroke:#000000; stroke-linecap:round; stroke-linejoin:round; stroke-width:4; stroke-opacity:1; fill:none" points="147.478,89.2432 166.376,89.2432 "/>
<path clip-path="url(#clip870)" d="M51.3625 1383.15 L81.0383 1383.15 L81.0383 1387.09 L51.3625 1387.09 L51.3625 1383.15 Z" fill="#000000" fill-rule="nonzero" fill-opacity="1" /><path clip-path="url(#clip870)" d="M95.1586 1396.05 L111.478 1396.05 L111.478 1399.98 L89.5336 1399.98 L89.5336 1396.05 Q92.1956 1393.29 96.7789 1388.66 Q101.385 1384.01 102.566 1382.67 Q104.811 1380.14 105.691 1378.41 Q106.594 1376.65 106.594 1374.96 Q106.594 1372.2 104.649 1370.47 Q102.728 1368.73 99.6261 1368.73 Q97.4271 1368.73 94.9734 1369.5 Q92.5428 1370.26 89.7651 1371.81 L89.7651 1367.09 Q92.5891 1365.95 95.0428 1365.37 Q97.4965 1364.8 99.5335 1364.8 Q104.904 1364.8 108.098 1367.48 Q111.293 1370.17 111.293 1374.66 Q111.293 1376.79 110.483 1378.71 Q109.696 1380.61 107.589 1383.2 Q107.01 1383.87 103.909 1387.09 Q100.807 1390.28 95.1586 1396.05 Z" fill="#000000" fill-rule="nonzero" fill-opacity="1" /><path clip-path="url(#clip870)" d="M50.9921 1059.79 L80.6679 1059.79 L80.6679 1063.72 L50.9921 1063.72 L50.9921 1059.79 Z" fill="#000000" fill-rule="nonzero" fill-opacity="1" /><path clip-path="url(#clip870)" d="M91.5706 1072.68 L99.2095 1072.68 L99.2095 1046.32 L90.8993 1047.98 L90.8993 1043.72 L99.1632 1042.06 L103.839 1042.06 L103.839 1072.68 L111.478 1072.68 L111.478 1076.62 L91.5706 1076.62 L91.5706 1072.68 Z" fill="#000000" fill-rule="nonzero" fill-opacity="1" /><path clip-path="url(#clip870)" d="M99.5335 721.771 Q95.9224 721.771 94.0937 725.336 Q92.2882 728.877 92.2882 736.007 Q92.2882 743.113 94.0937 746.678 Q95.9224 750.22 99.5335 750.22 Q103.168 750.22 104.973 746.678 Q106.802 743.113 106.802 736.007 Q106.802 728.877 104.973 725.336 Q103.168 721.771 99.5335 721.771 M99.5335 718.067 Q105.344 718.067 108.399 722.674 Q111.478 727.257 111.478 736.007 Q111.478 744.734 108.399 749.34 Q105.344 753.923 99.5335 753.923 Q93.7234 753.923 90.6447 749.34 Q87.5892 744.734 87.5892 736.007 Q87.5892 727.257 90.6447 722.674 Q93.7234 718.067 99.5335 718.067 Z" fill="#000000" fill-rule="nonzero" fill-opacity="1" /><path clip-path="url(#clip870)" d="M91.5706 425.952 L99.2095 425.952 L99.2095 399.587 L90.8993 401.254 L90.8993 396.994 L99.1632 395.328 L103.839 395.328 L103.839 425.952 L111.478 425.952 L111.478 429.888 L91.5706 429.888 L91.5706 425.952 Z" fill="#000000" fill-rule="nonzero" fill-opacity="1" /><path clip-path="url(#clip870)" d="M95.1586 102.588 L111.478 102.588 L111.478 106.523 L89.5336 106.523 L89.5336 102.588 Q92.1956 99.8334 96.7789 95.2038 Q101.385 90.551 102.566 89.2084 Q104.811 86.6853 105.691 84.9492 Q106.594 83.19 106.594 81.5002 Q106.594 78.7455 104.649 77.0094 Q102.728 75.2733 99.6261 75.2733 Q97.4271 75.2733 94.9734 76.0372 Q92.5428 76.8011 89.7651 78.352 L89.7651 73.6298 Q92.5891 72.4956 95.0428 71.9169 Q97.4965 71.3382 99.5335 71.3382 Q104.904 71.3382 108.098 74.0233 Q111.293 76.7085 111.293 81.1992 Q111.293 83.3288 110.483 85.2501 Q109.696 87.1483 107.589 89.7408 Q107.01 90.4121 103.909 93.6297 Q100.807 96.8241 95.1586 102.588 Z" fill="#000000" fill-rule="nonzero" fill-opacity="1" /><polyline clip-path="url(#clip872)" style="stroke:#009af9; stroke-linecap:round; stroke-linejoin:round; stroke-width:4; stroke-opacity:1; fill:none" points="209.891,574.29 212.492,574.193 215.093,573.901 217.693,573.416 220.294,572.736 222.894,571.863 225.495,570.796 228.095,569.537 230.696,568.087 233.297,566.446 235.897,564.616 238.498,562.598 241.098,560.395 243.699,558.008 246.299,555.438 248.9,552.689 251.5,549.763 254.101,546.662 256.702,543.39 259.302,539.948 261.903,536.341 264.503,532.571 267.104,528.642 269.704,524.558 272.305,520.322 274.906,515.938 277.506,511.411 280.107,506.744 282.707,501.942 285.308,497.01 287.908,491.952 290.509,486.772 293.109,481.476 295.71,476.069 298.311,470.555 300.911,464.94 303.512,459.23 306.112,453.429 308.713,447.544 311.313,441.579 313.914,435.54 316.515,429.434 319.115,423.266 321.716,417.041 324.316,410.766 326.917,404.447 329.517,398.09 332.118,391.701 334.718,385.285 337.319,378.85 339.92,372.4 342.52,365.943 345.121,359.485 347.721,353.031 350.322,346.589 352.922,340.163 355.523,333.761 358.124,327.387 360.724,321.05 363.325,314.753 365.925,308.505 368.526,302.31 371.126,296.174 373.727,290.103 376.328,284.104 378.928,278.182 381.529,272.342 384.129,266.59 386.73,260.931 389.33,255.372 391.931,249.917 394.531,244.572 397.132,239.341 399.733,234.229 402.333,229.243 404.934,224.385 407.534,219.661 410.135,215.076 412.735,210.633 415.336,206.337 417.937,202.192 420.537,198.202 423.138,194.371 425.738,190.702 428.339,187.198 430.939,183.864 433.54,180.701 436.14,177.714 438.741,174.904 441.342,172.275 443.942,169.829 446.543,167.568 449.143,165.494 451.744,163.609 454.344,161.915 456.945,160.413 459.546,159.104 462.146,157.991 464.747,157.072 467.347,156.35 469.948,155.825 472.548,155.498 475.149,155.367 477.749,155.434 480.35,155.698 482.951,156.159 485.551,156.816 488.152,157.668 490.752,158.714 493.353,159.953 495.953,161.384 498.554,163.005 501.155,164.814 503.755,166.809 506.356,168.989 508.956,171.351 511.557,173.892 514.157,176.609 516.758,179.501 519.359,182.563 521.959,185.794 524.56,189.188 527.16,192.743 529.761,196.456 532.361,200.321 534.962,204.336 537.562,208.497 540.163,212.798 542.764,217.236 545.364,221.806 547.965,226.503 550.565,231.323 553.166,236.261 555.766,241.311 558.367,246.469 560.968,251.729 563.568,257.086 566.169,262.535 568.769,268.069 571.37,273.685 573.97,279.375 576.571,285.134 579.171,290.956 581.772,296.835 584.373,302.766 586.973,308.743 589.574,314.758 592.174,320.808 594.775,326.884 597.375,332.982 599.976,339.094 602.577,345.216 605.177,351.34 607.778,357.461 610.378,363.573 612.979,369.669 615.579,375.743 618.18,381.789 620.781,387.802 623.381,393.775 625.982,399.702 628.582,405.577 631.183,411.394 633.783,417.148 636.384,422.833 638.984,428.443 641.585,433.973 644.186,439.417 646.786,444.769 649.387,450.025 651.987,455.179 654.588,460.226 657.188,465.161 659.789,469.979 662.39,474.676 664.99,479.246 667.591,483.686 670.191,487.99 672.792,492.155 675.392,496.177 677.993,500.051 680.593,503.773 683.194,507.341 685.795,510.751 688.395,513.998 690.996,517.081 693.596,519.996 696.197,522.74 698.797,525.311 701.398,527.706 703.999,529.923 706.599,531.96 709.2,533.815 711.8,535.485 714.401,536.97 717.001,538.269 719.602,539.379 722.202,540.3 724.803,541.032 727.404,541.573 730.004,541.923 732.605,542.082 735.205,542.051 737.806,541.828 740.406,541.415 743.007,540.811 745.608,540.019 748.208,539.038 750.809,537.87 753.409,536.517 756.01,534.979 758.61,533.258 761.211,531.357 763.812,529.277 766.412,527.02 769.013,524.59 771.613,521.988 774.214,519.218 776.814,516.282 779.415,513.184 782.015,509.926 784.616,506.513 787.217,502.947 789.817,499.233 792.418,495.374 795.018,491.375 797.619,487.24 800.219,482.973 802.82,478.578 805.421,474.061 808.021,469.425 810.622,464.676 813.222,459.819 815.823,454.859 818.423,449.8 821.024,444.649 823.624,439.411 826.225,434.09 828.826,428.693 831.426,423.226 834.027,417.693 836.627,412.102 839.228,406.456 841.828,400.764 844.429,395.029 847.03,389.259 849.63,383.46 852.231,377.636 854.831,371.796 857.432,365.944 860.032,360.086 862.633,354.23 865.233,348.38 867.834,342.544 870.435,336.727 873.035,330.934 875.636,325.174 878.236,319.45 880.837,313.77 883.437,308.139 886.038,302.564 888.639,297.049 891.239,291.601 893.84,286.226 896.44,280.929 899.041,275.715 901.641,270.591 904.242,265.562 906.843,260.633 909.443,255.809 912.044,251.095 914.644,246.497 917.245,242.019 919.845,237.666 922.446,233.442 925.046,229.353 927.647,225.402 930.248,221.594 932.848,217.933 935.449,214.423 938.049,211.068 940.65,207.871 943.25,204.836 945.851,201.966 948.452,199.264 951.052,196.734 953.653,194.378 956.253,192.199 958.854,190.199 961.454,188.381 964.055,186.747 966.655,185.298 969.256,184.038 971.857,182.966 974.457,182.084 977.058,181.395 979.658,180.898 982.259,180.595 984.859,180.485 987.46,180.571 990.061,180.851 992.661,181.326 995.262,181.996 997.862,182.86 1000.46,183.917 1003.06,185.168 1005.66,186.611 1008.26,188.245 1010.87,190.069 1013.47,192.081 1016.07,194.279 1018.67,196.662 1021.27,199.228 1023.87,201.974 1026.47,204.898 1029.07,207.997 1031.67,211.269 1034.27,214.71 1036.87,218.318 1039.47,222.089 1042.07,226.019 1044.67,230.106 1047.27,234.345 1049.87,238.733 1052.47,243.265 1055.07,247.937 1057.68,252.745 1060.28,257.684 1062.88,262.75 1065.48,267.938 1068.08,273.243 1070.68,278.66 1073.28,284.185 1075.88,289.811 1078.48,295.533 1081.08,301.347 1083.68,307.246 1086.28,313.226 1088.88,319.279 1091.48,325.401 1094.08,331.587 1096.68,337.829 1099.28,344.122 1101.88,350.46 1104.49,356.837 1107.09,363.247 1109.69,369.684 1112.29,376.141 1114.89,382.613 1117.49,389.094 1120.09,395.577 1122.69,402.055 1125.29,408.524 1127.89,414.976 1130.49,421.406 1133.09,427.808 1135.69,434.174 1138.29,440.5 1140.89,446.779 1143.49,453.005 1146.09,459.173 1148.69,465.276 1151.3,471.308 1153.9,477.265 1156.5,483.14 1159.1,488.927 1161.7,494.621 1164.3,500.217 1166.9,505.709 1169.5,511.093 1172.1,516.362 1174.7,521.513 1177.3,526.54 1179.9,531.438 1182.5,536.203 1185.1,540.83 1187.7,545.315 1190.3,549.654 1192.9,553.843 1195.51,557.877 1198.11,561.753 1200.71,565.468 1203.31,569.017 1205.91,572.398 1208.51,575.608 1211.11,578.643 1213.71,581.5 1216.31,584.178 1218.91,586.673 1221.51,588.983 1224.11,591.107 1226.71,593.043 1229.31,594.788 1231.91,596.341 1234.51,597.701 1237.11,598.867 1239.71,599.838 1242.32,600.613 1244.92,601.191 1247.52,601.572 1250.12,601.757 1252.72,601.744 1255.32,601.535 1257.92,601.129 1260.52,600.527 1263.12,599.731 1265.72,598.74 1268.32,597.557 1270.92,596.183 1273.52,594.618 1276.12,592.866 1278.72,590.927 1281.32,588.805 1283.92,586.501 1286.52,584.017 1289.13,581.357 1291.73,578.524 1294.33,575.519 1296.93,572.347 1299.53,569.011 1302.13,565.514 1304.73,561.86 1307.33,558.053 1309.93,554.097 1312.53,549.995 1315.13,545.753 1317.73,541.374 1320.33,536.863 1322.93,532.225 1325.53,527.464 1328.13,522.585 1330.73,517.594 1333.33,512.495 1335.94,507.293 1338.54,501.995 1341.14,496.605 1343.74,491.129 1346.34,485.573 1348.94,479.942 1351.54,474.241 1354.14,468.478 1356.74,462.657 1359.34,456.784 1361.94,450.866 1364.54,444.908 1367.14,438.917 1369.74,432.898 1372.34,426.859 1374.94,420.803 1377.54,414.739 1380.15,408.672 1382.75,402.608 1385.35,396.554 1387.95,390.515 1390.55,384.497 1393.15,378.507 1395.75,372.551 1398.35,366.634 1400.95,360.764 1403.55,354.944 1406.15,349.182 1408.75,343.484 1411.35,337.854 1413.95,332.299 1416.55,326.824 1419.15,321.434 1421.75,316.136 1424.35,310.934 1426.96,305.834 1429.56,300.841 1432.16,295.959 1434.76,291.194 1437.36,286.551 1439.96,282.033 1442.56,277.646 1445.16,273.394 1447.76,269.281 1450.36,265.312 1452.96,261.489 1455.56,257.818 1458.16,254.301 1460.76,250.943 1463.36,247.746 1465.96,244.714 1468.56,241.849 1471.16,239.155 1473.77,236.634 1476.37,234.288 1478.97,232.121 1481.57,230.133 1484.17,228.328 1486.77,226.706 1489.37,225.269 1491.97,224.019 1494.57,222.957 1497.17,222.084 1499.77,221.4 1502.37,220.906 1504.97,220.603 1507.57,220.491 1510.17,220.57 1512.77,220.839 1515.37,221.299 1517.97,221.949 1520.58,222.787 1523.18,223.814 1525.78,225.027 1528.38,226.427 1530.98,228.01 1533.58,229.776 1536.18,231.722 1538.78,233.847 1541.38,236.148 1543.98,238.623 1546.58,241.269 1549.18,244.083 1551.78,247.063 1554.38,250.205 1556.98,253.506 1559.58,256.963 1562.18,260.572 1564.79,264.329 1567.39,268.231 1569.99,272.273 1572.59,276.451 1575.19,280.76 1577.79,285.197 1580.39,289.757 1582.99,294.434 1585.59,299.225 1588.19,304.124 1590.79,309.125 1593.39,314.225 1595.99,319.417 1598.59,324.697 1601.19,330.058 1603.79,335.495 1606.39,341.003 1608.99,346.576 1611.6,352.208 1614.2,357.893 1616.8,363.626 1619.4,369.399 1622,375.209 1624.6,381.048 1627.2,386.91 1629.8,392.789 1632.4,398.68 1635,404.576 1637.6,410.47 1640.2,416.358 1642.8,422.232 1645.4,428.087 1648,433.916 1650.6,439.714 1653.2,445.475 1655.8,451.191 1658.41,456.859 1661.01,462.47 1663.61,468.021 1666.21,473.505 1668.81,478.915 1671.41,484.247 1674.01,489.495 1676.61,494.654 1679.21,499.718 1681.81,504.681 1684.41,509.539 1687.01,514.286 1689.61,518.917 1692.21,523.428 1694.81,527.813 1697.41,532.069 1700.01,536.19 1702.61,540.172 1705.22,544.011 1707.82,547.703 1710.42,551.243 1713.02,554.628 1715.62,557.855 1718.22,560.919 1720.82,563.818 1723.42,566.548 1726.02,569.106 1728.62,571.489 1731.22,573.695 1733.82,575.721 1736.42,577.565 1739.02,579.225 1741.62,580.699 1744.22,581.984 1746.82,583.08 1749.43,583.985 1752.03,584.697 1754.63,585.217 1757.23,585.542 1759.83,585.673 1762.43,585.609 1765.03,585.349 1767.63,584.894 1770.23,584.243 1772.83,583.398 1775.43,582.358 1778.03,581.125 1780.63,579.699 1783.23,578.081 1785.83,576.273 1788.43,574.276 1791.03,572.092 1793.63,569.722 1796.24,567.17 1798.84,564.436 1801.44,561.524 1804.04,558.436 1806.64,555.175 1809.24,551.743 1811.84,548.144 1814.44,544.382 1817.04,540.459 1819.64,536.379 1822.24,532.146 1824.84,527.763 1827.44,523.236 1830.04,518.568 1832.64,513.763 1835.24,508.826 1837.84,503.762 1840.44,498.575 1843.05,493.27 1845.65,487.852 1848.25,482.326 1850.85,476.698 1853.45,470.972 1856.05,465.155 1858.65,459.251 1861.25,453.267 1863.85,447.207 1866.45,441.078 1869.05,434.885 1871.65,428.634 1874.25,422.332 1876.85,415.984 1879.45,409.596 1882.05,403.174 1884.65,396.725 1887.26,390.254 1889.86,383.768 1892.46,377.273 1895.06,370.775 1897.66,364.279 1900.26,357.794 1902.86,351.323 1905.46,344.875 1908.06,338.454 1910.66,332.067 1913.26,325.72 1915.86,319.419 1918.46,313.17 1921.06,306.979 1923.66,300.852 1926.26,294.795 1928.86,288.813 1931.46,282.912 1934.07,277.097 1936.67,271.375 1939.27,265.751 1941.87,260.229 1944.47,254.816 1947.07,249.515 1949.67,244.333 1952.27,239.274 1954.87,234.343 1957.47,229.545 1960.07,224.884 1962.67,220.364 1965.27,215.989 1967.87,211.765 1970.47,207.694 1973.07,203.78 1975.67,200.027 1978.27,196.44 1980.88,193.019 1983.48,189.77 1986.08,186.695 1988.68,183.797 1991.28,181.077 1993.88,178.54 1996.48,176.187 1999.08,174.02 2001.68,172.041 2004.28,170.252 2006.88,168.654 2009.48,167.249 2012.08,166.037 2014.68,165.02 2017.28,164.199 2019.88,163.574 2022.48,163.145 2025.08,162.913 2027.69,162.877 2030.29,163.038 2032.89,163.395 2035.49,163.947 2038.09,164.694 2040.69,165.634 2043.29,166.767 2045.89,168.091 2048.49,169.604 2051.09,171.305 2053.69,173.192 2056.29,175.263 2058.89,177.515 2061.49,179.946 2064.09,182.553 2066.69,185.333 2069.29,188.285 2071.9,191.403 2074.5,194.686 2077.1,198.129 2079.7,201.729 2082.3,205.482 2084.9,209.384 2087.5,213.431 2090.1,217.619 2092.7,221.943 2095.3,226.399 2097.9,230.983 2100.5,235.689 2103.1,240.512 2105.7,245.448 2108.3,250.492 2110.9,255.637 2113.5,260.88 2116.1,266.215 2118.71,271.635 2121.31,277.136 2123.91,282.712 2126.51,288.356 2129.11,294.064 2131.71,299.83 2134.31,305.647 2136.91,311.509 2139.51,317.412 2142.11,323.347 2144.71,329.31 2147.31,335.295 2149.91,341.294 2152.51,347.303 2155.11,353.315 2157.71,359.324 2160.31,365.323 2162.91,371.307 2165.52,377.269 2168.12,383.204 2170.72,389.106 2173.32,394.968 2175.92,400.784 2178.52,406.549 2181.12,412.256 2183.72,417.901 2186.32,423.476 2188.92,428.977 2191.52,434.398 2194.12,439.733 2196.72,444.978 2199.32,450.126 2201.92,455.172 2204.52,460.112 2207.12,464.941 2209.72,469.653 2212.33,474.243 2214.93,478.708 2217.53,483.042 2220.13,487.241 2222.73,491.302 2225.33,495.219 2227.93,498.989 2230.53,502.608 2233.13,506.073 2235.73,509.38 2238.33,512.525 2240.93,515.506 2243.53,518.319 2246.13,520.962 2248.73,523.432 2251.33,525.726 2253.93,527.843 2256.54,529.779 2259.14,531.534 2261.74,533.106 2264.34,534.492 2266.94,535.692 2269.54,536.704 2272.14,537.527 2274.74,538.161 2277.34,538.604 2279.94,538.858 2282.54,538.92 2285.14,538.792 2287.74,538.473 2290.34,537.964 "/>
<polyline clip-path="url(#clip872)" style="stroke:#e26f46; stroke-linecap:round; stroke-linejoin:round; stroke-width:4; stroke-opacity:1; fill:none" points="209.891,735.972 212.492,716.557 215.093,697.13 217.693,677.708 220.294,658.313 222.894,638.963 225.495,619.678 228.095,600.477 230.696,581.379 233.297,562.403 235.897,543.569 238.498,524.895 241.098,506.4 243.699,488.102 246.299,470.02 248.9,452.172 251.5,434.576 254.101,417.249 256.702,400.209 259.302,383.473 261.903,367.058 264.503,350.98 267.104,335.255 269.704,319.9 272.305,304.929 274.906,290.357 277.506,276.2 280.107,262.471 282.707,249.185 285.308,236.354 287.908,223.992 290.509,212.111 293.109,200.723 295.71,189.839 298.311,179.471 300.911,169.629 303.512,160.323 306.112,151.562 308.713,143.356 311.313,135.712 313.914,128.638 316.515,122.142 319.115,116.229 321.716,110.907 324.316,106.181 326.917,102.055 329.517,98.5342 332.118,95.6215 334.718,93.3202 337.319,91.6329 339.92,90.5614 342.52,90.1068 345.121,90.2698 347.721,91.0505 350.322,92.448 352.922,94.4614 355.523,97.0886 358.124,100.327 360.724,104.174 363.325,108.626 365.925,113.678 368.526,119.326 371.126,125.564 373.727,132.385 376.328,139.785 378.928,147.754 381.529,156.286 384.129,165.372 386.73,175.003 389.33,185.17 391.931,195.863 394.531,207.071 397.132,218.783 399.733,230.989 402.333,243.675 404.934,256.829 407.534,270.439 410.135,284.491 412.735,298.972 415.336,313.866 417.937,329.159 420.537,344.837 423.138,360.884 425.738,377.283 428.339,394.02 430.939,411.077 433.54,428.437 436.14,446.084 438.741,463.999 441.342,482.166 443.942,500.567 446.543,519.183 449.143,537.996 451.744,556.987 454.344,576.137 456.945,595.429 459.546,614.842 462.146,634.358 464.747,653.957 467.347,673.62 469.948,693.328 472.548,713.061 475.149,732.799 477.749,752.524 480.35,772.216 482.951,791.855 485.551,811.422 488.152,830.898 490.752,850.263 493.353,869.499 495.953,888.586 498.554,907.507 501.155,926.241 503.755,944.771 506.356,963.078 508.956,981.145 511.557,998.953 514.157,1016.49 516.758,1033.73 519.359,1050.65 521.959,1067.26 524.56,1083.52 527.16,1099.42 529.761,1114.94 532.361,1130.08 534.962,1144.81 537.562,1159.13 540.163,1173.01 542.764,1186.44 545.364,1199.41 547.965,1211.91 550.565,1223.93 553.166,1235.45 555.766,1246.46 558.367,1256.96 560.968,1266.92 563.568,1276.35 566.169,1285.23 568.769,1293.56 571.37,1301.32 573.97,1308.51 576.571,1315.13 579.171,1321.16 581.772,1326.59 584.373,1331.44 586.973,1335.68 589.574,1339.32 592.174,1342.36 594.775,1344.78 597.375,1346.59 599.976,1347.79 602.577,1348.38 605.177,1348.35 607.778,1347.7 610.378,1346.45 612.979,1344.58 615.579,1342.1 618.18,1339.02 620.781,1335.33 623.381,1331.05 625.982,1326.17 628.582,1320.7 631.183,1314.65 633.783,1308.02 636.384,1300.82 638.984,1293.06 641.585,1284.74 644.186,1275.88 646.786,1266.48 649.387,1256.55 651.987,1246.11 654.588,1235.16 657.188,1223.72 659.789,1211.79 662.39,1199.39 664.99,1186.54 667.591,1173.24 670.191,1159.51 672.792,1145.36 675.392,1130.81 677.993,1115.87 680.593,1100.56 683.194,1084.89 685.795,1068.89 688.395,1052.55 690.996,1035.91 693.596,1018.98 696.197,1001.77 698.797,984.311 701.398,966.611 703.999,948.69 706.599,930.566 709.2,912.259 711.8,893.787 714.401,875.168 717.001,856.422 719.602,837.567 722.202,818.623 724.803,799.609 727.404,780.544 730.004,761.448 732.605,742.339 735.205,723.238 737.806,704.164 740.406,685.136 743.007,666.174 745.608,647.296 748.208,628.522 750.809,609.871 753.409,591.361 756.01,573.013 758.61,554.843 761.211,536.872 763.812,519.116 766.412,501.594 769.013,484.325 771.613,467.324 774.214,450.61 776.814,434.2 779.415,418.11 782.015,402.356 784.616,386.955 787.217,371.922 789.817,357.273 792.418,343.023 795.018,329.185 797.619,315.775 800.219,302.805 802.82,290.289 805.421,278.24 808.021,266.669 810.622,255.59 813.222,245.013 815.823,234.948 818.423,225.407 821.024,216.399 823.624,207.933 826.225,200.018 828.826,192.663 831.426,185.874 834.027,179.658 836.627,174.023 839.228,168.973 841.828,164.515 844.429,160.653 847.03,157.391 849.63,154.732 852.231,152.679 854.831,151.235 857.432,150.401 860.032,150.179 862.633,150.568 865.233,151.568 867.834,153.18 870.435,155.4 873.035,158.227 875.636,161.66 878.236,165.693 880.837,170.324 883.437,175.548 886.038,181.359 888.639,187.753 891.239,194.723 893.84,202.262 896.44,210.364 899.041,219.019 901.641,228.219 904.242,237.956 906.843,248.219 909.443,259 912.044,270.286 914.644,282.067 917.245,294.331 919.845,307.067 922.446,320.261 925.046,333.9 927.647,347.972 930.248,362.461 932.848,377.354 935.449,392.636 938.049,408.291 940.65,424.305 943.25,440.66 945.851,457.342 948.452,474.333 951.052,491.617 953.653,509.176 956.253,526.993 958.854,545.049 961.454,563.328 964.055,581.811 966.655,600.48 969.256,619.315 971.857,638.299 974.457,657.412 977.058,676.635 979.658,695.949 982.259,715.335 984.859,734.774 987.46,754.245 990.061,773.731 992.661,793.21 995.262,812.664 997.862,832.074 1000.46,851.42 1003.06,870.683 1005.66,889.843 1008.26,908.881 1010.87,927.779 1013.47,946.517 1016.07,965.077 1018.67,983.441 1021.27,1001.59 1023.87,1019.5 1026.47,1037.17 1029.07,1054.56 1031.67,1071.67 1034.27,1088.48 1036.87,1104.96 1039.47,1121.11 1042.07,1136.91 1044.67,1152.33 1047.27,1167.38 1049.87,1182.02 1052.47,1196.25 1055.07,1210.05 1057.68,1223.41 1060.28,1236.32 1062.88,1248.75 1065.48,1260.71 1068.08,1272.17 1070.68,1283.13 1073.28,1293.57 1075.88,1303.49 1078.48,1312.87 1081.08,1321.71 1083.68,1329.99 1086.28,1337.71 1088.88,1344.87 1091.48,1351.44 1094.08,1357.43 1096.68,1362.83 1099.28,1367.63 1101.88,1371.83 1104.49,1375.43 1107.09,1378.42 1109.69,1380.8 1112.29,1382.56 1114.89,1383.71 1117.49,1384.24 1120.09,1384.15 1122.69,1383.45 1125.29,1382.12 1127.89,1380.19 1130.49,1377.63 1133.09,1374.47 1135.69,1370.69 1138.29,1366.32 1140.89,1361.34 1143.49,1355.76 1146.09,1349.6 1148.69,1342.85 1151.3,1335.52 1153.9,1327.62 1156.5,1319.16 1159.1,1310.14 1161.7,1300.58 1164.3,1290.48 1166.9,1279.85 1169.5,1268.71 1172.1,1257.06 1174.7,1244.92 1177.3,1232.3 1179.9,1219.21 1182.5,1205.66 1185.1,1191.67 1187.7,1177.25 1190.3,1162.41 1192.9,1147.18 1195.51,1131.56 1198.11,1115.57 1200.71,1099.22 1203.31,1082.54 1205.91,1065.54 1208.51,1048.23 1211.11,1030.64 1213.71,1012.77 1216.31,994.653 1218.91,976.301 1221.51,957.732 1224.11,938.965 1226.71,920.019 1229.31,900.912 1231.91,881.663 1234.51,862.291 1237.11,842.815 1239.71,823.255 1242.32,803.63 1244.92,783.959 1247.52,764.261 1250.12,744.557 1252.72,724.865 1255.32,705.205 1257.92,685.597 1260.52,666.059 1263.12,646.612 1265.72,627.274 1268.32,608.063 1270.92,589.001 1273.52,570.104 1276.12,551.392 1278.72,532.883 1281.32,514.596 1283.92,496.548 1286.52,478.757 1289.13,461.241 1291.73,444.017 1294.33,427.101 1296.93,410.512 1299.53,394.264 1302.13,378.374 1304.73,362.857 1307.33,347.729 1309.93,333.004 1312.53,318.698 1315.13,304.823 1317.73,291.394 1320.33,278.424 1322.93,265.925 1325.53,253.909 1328.13,242.389 1330.73,231.375 1333.33,220.878 1335.94,210.909 1338.54,201.477 1341.14,192.592 1343.74,184.261 1346.34,176.492 1348.94,169.294 1351.54,162.674 1354.14,156.637 1356.74,151.189 1359.34,146.335 1361.94,142.08 1364.54,138.428 1367.14,135.383 1369.74,132.946 1372.34,131.12 1374.94,129.907 1377.54,129.307 1380.15,129.321 1382.75,129.949 1385.35,131.189 1387.95,133.04 1390.55,135.499 1393.15,138.565 1395.75,142.233 1398.35,146.5 1400.95,151.361 1403.55,156.81 1406.15,162.843 1408.75,169.452 1411.35,176.631 1413.95,184.373 1416.55,192.669 1419.15,201.51 1421.75,210.887 1424.35,220.792 1426.96,231.213 1429.56,242.139 1432.16,253.561 1434.76,265.465 1437.36,277.839 1439.96,290.671 1442.56,303.949 1445.16,317.657 1447.76,331.782 1450.36,346.31 1452.96,361.225 1455.56,376.513 1458.16,392.159 1460.76,408.145 1463.36,424.455 1465.96,441.074 1468.56,457.984 1471.16,475.167 1473.77,492.607 1476.37,510.286 1478.97,528.185 1481.57,546.286 1484.17,564.572 1486.77,583.023 1489.37,601.62 1491.97,620.345 1494.57,639.179 1497.17,658.102 1499.77,677.096 1502.37,696.14 1504.97,715.216 1507.57,734.304 1510.17,753.385 1512.77,772.44 1515.37,791.448 1517.97,810.391 1520.58,829.25 1523.18,848.005 1525.78,866.637 1528.38,885.128 1530.98,903.458 1533.58,921.609 1536.18,939.563 1538.78,957.301 1541.38,974.805 1543.98,992.057 1546.58,1009.04 1549.18,1025.74 1551.78,1042.13 1554.38,1058.2 1556.98,1073.94 1559.58,1089.32 1562.18,1104.34 1564.79,1118.97 1567.39,1133.21 1569.99,1147.03 1572.59,1160.42 1575.19,1173.37 1577.79,1185.87 1580.39,1197.91 1582.99,1209.46 1585.59,1220.52 1588.19,1231.08 1590.79,1241.13 1593.39,1250.66 1595.99,1259.65 1598.59,1268.1 1601.19,1275.99 1603.79,1283.33 1606.39,1290.11 1608.99,1296.3 1611.6,1301.92 1614.2,1306.95 1616.8,1311.39 1619.4,1315.24 1622,1318.48 1624.6,1321.12 1627.2,1323.15 1629.8,1324.58 1632.4,1325.39 1635,1325.59 1637.6,1325.18 1640.2,1324.16 1642.8,1322.53 1645.4,1320.29 1648,1317.44 1650.6,1313.98 1653.2,1309.93 1655.8,1305.27 1658.41,1300.02 1661.01,1294.19 1663.61,1287.77 1666.21,1280.77 1668.81,1273.21 1671.41,1265.08 1674.01,1256.4 1676.61,1247.17 1679.21,1237.4 1681.81,1227.11 1684.41,1216.3 1687.01,1204.98 1689.61,1193.17 1692.21,1180.87 1694.81,1168.1 1697.41,1154.87 1700.01,1141.2 1702.61,1127.09 1705.22,1112.57 1707.82,1097.64 1710.42,1082.32 1713.02,1066.62 1715.62,1050.57 1718.22,1034.17 1720.82,1017.45 1723.42,1000.42 1726.02,983.089 1728.62,965.486 1731.22,947.625 1733.82,929.522 1736.42,911.197 1739.02,892.666 1741.62,873.95 1744.22,855.065 1746.82,836.031 1749.43,816.867 1752.03,797.592 1754.63,778.226 1757.23,758.786 1759.83,739.293 1762.43,719.766 1765.03,700.224 1767.63,680.688 1770.23,661.176 1772.83,641.707 1775.43,622.301 1778.03,602.978 1780.63,583.757 1783.23,564.657 1785.83,545.696 1788.43,526.894 1791.03,508.27 1793.63,489.841 1796.24,471.627 1798.84,453.645 1801.44,435.914 1804.04,418.451 1806.64,401.274 1809.24,384.399 1811.84,367.844 1814.44,351.625 1817.04,335.758 1819.64,320.259 1822.24,305.143 1824.84,290.426 1827.44,276.122 1830.04,262.246 1832.64,248.811 1835.24,235.831 1837.84,223.319 1840.44,211.287 1843.05,199.748 1845.65,188.712 1848.25,178.191 1850.85,168.196 1853.45,158.736 1856.05,149.82 1858.65,141.459 1861.25,133.66 1863.85,126.431 1866.45,119.779 1869.05,113.711 1871.65,108.233 1874.25,103.35 1876.85,99.0683 1879.45,95.3911 1882.05,92.3224 1884.65,89.8653 1887.26,88.0223 1889.86,86.7954 1892.46,86.1857 1895.06,86.194 1897.66,86.8203 1900.26,88.064 1902.86,89.924 1905.46,92.3985 1908.06,95.4852 1910.66,99.1808 1913.26,103.482 1915.86,108.384 1918.46,113.883 1921.06,119.973 1923.66,126.648 1926.26,133.901 1928.86,141.726 1931.46,150.114 1934.07,159.058 1936.67,168.548 1939.27,178.575 1941.87,189.129 1944.47,200.2 1947.07,211.776 1949.67,223.848 1952.27,236.401 1954.87,249.424 1957.47,262.905 1960.07,276.829 1962.67,291.183 1965.27,305.953 1967.87,321.124 1970.47,336.681 1973.07,352.609 1975.67,368.892 1978.27,385.513 1980.88,402.457 1983.48,419.706 1986.08,437.244 1988.68,455.053 1991.28,473.115 1993.88,491.413 1996.48,509.928 1999.08,528.643 2001.68,547.537 2004.28,566.594 2006.88,585.794 2009.48,605.118 2012.08,624.547 2014.68,644.061 2017.28,663.641 2019.88,683.269 2022.48,702.924 2025.08,722.587 2027.69,742.238 2030.29,761.859 2032.89,781.429 2035.49,800.93 2038.09,820.342 2040.69,839.646 2043.29,858.823 2045.89,877.853 2048.49,896.719 2051.09,915.401 2053.69,933.881 2056.29,952.141 2058.89,970.162 2061.49,987.928 2064.09,1005.42 2066.69,1022.62 2069.29,1039.51 2071.9,1056.08 2074.5,1072.31 2077.1,1088.18 2079.7,1103.68 2082.3,1118.79 2084.9,1133.5 2087.5,1147.79 2090.1,1161.65 2092.7,1175.07 2095.3,1188.03 2097.9,1200.52 2100.5,1212.52 2103.1,1224.03 2105.7,1235.04 2108.3,1245.53 2110.9,1255.49 2113.5,1264.92 2116.1,1273.8 2118.71,1282.13 2121.31,1289.89 2123.91,1297.09 2126.51,1303.71 2129.11,1309.75 2131.71,1315.2 2134.31,1320.05 2136.91,1324.31 2139.51,1327.96 2142.11,1331.01 2144.71,1333.45 2147.31,1335.28 2149.91,1336.5 2152.51,1337.1 2155.11,1337.1 2157.71,1336.47 2160.31,1335.24 2162.91,1333.4 2165.52,1330.95 2168.12,1327.89 2170.72,1324.23 2173.32,1319.97 2175.92,1315.12 2178.52,1309.68 2181.12,1303.66 2183.72,1297.06 2186.32,1289.89 2188.92,1282.16 2191.52,1273.88 2194.12,1265.05 2196.72,1255.68 2199.32,1245.79 2201.92,1235.38 2204.52,1224.47 2207.12,1213.06 2209.72,1201.17 2212.33,1188.81 2214.93,1175.99 2217.53,1162.73 2220.13,1149.03 2222.73,1134.92 2225.33,1120.4 2227.93,1105.5 2230.53,1090.23 2233.13,1074.59 2235.73,1058.62 2238.33,1042.32 2240.93,1025.72 2243.53,1008.82 2246.13,991.652 2248.73,974.225 2251.33,956.559 2253.93,938.672 2256.54,920.584 2259.14,902.31 2261.74,883.872 2264.34,865.287 2266.94,846.574 2269.54,827.752 2272.14,808.84 2274.74,789.859 2277.34,770.826 2279.94,751.761 2282.54,732.684 2285.14,713.614 2287.74,694.57 2290.34,675.572 "/>
<path clip-path="url(#clip870)" d="M220.987 1377.32 L894.244 1377.32 L894.244 1221.8 L220.987 1221.8  Z" fill="#ffffff" fill-rule="evenodd" fill-opacity="1"/>
<polyline clip-path="url(#clip870)" style="stroke:#000000; stroke-linecap:round; stroke-linejoin:round; stroke-width:4; stroke-opacity:1; fill:none" points="220.987,1377.32 894.244,1377.32 894.244,1221.8 220.987,1221.8 220.987,1377.32 "/>
<polyline clip-path="url(#clip870)" style="stroke:#009af9; stroke-linecap:round; stroke-linejoin:round; stroke-width:4; stroke-opacity:1; fill:none" points="245.49,1273.64 392.509,1273.64 "/>
<path clip-path="url(#clip870)" d="M437.359 1269.97 Q438.956 1267.1 441.178 1265.73 Q443.401 1264.36 446.41 1264.36 Q450.461 1264.36 452.66 1267.21 Q454.859 1270.04 454.859 1275.27 L454.859 1290.92 L450.577 1290.92 L450.577 1275.41 Q450.577 1271.68 449.257 1269.87 Q447.938 1268.07 445.229 1268.07 Q441.919 1268.07 439.998 1270.27 Q438.077 1272.47 438.077 1276.26 L438.077 1290.92 L433.794 1290.92 L433.794 1275.41 Q433.794 1271.66 432.475 1269.87 Q431.155 1268.07 428.401 1268.07 Q425.137 1268.07 423.216 1270.29 Q421.294 1272.49 421.294 1276.26 L421.294 1290.92 L417.012 1290.92 L417.012 1264.99 L421.294 1264.99 L421.294 1269.02 Q422.753 1266.63 424.79 1265.5 Q426.827 1264.36 429.628 1264.36 Q432.452 1264.36 434.419 1265.8 Q436.41 1267.23 437.359 1269.97 Z" fill="#000000" fill-rule="nonzero" fill-opacity="1" /><path clip-path="url(#clip870)" d="M475.137 1277.88 Q469.975 1277.88 467.984 1279.06 Q465.993 1280.24 465.993 1283.09 Q465.993 1285.36 467.475 1286.7 Q468.979 1288.02 471.549 1288.02 Q475.09 1288.02 477.22 1285.52 Q479.373 1283 479.373 1278.83 L479.373 1277.88 L475.137 1277.88 M483.632 1276.12 L483.632 1290.92 L479.373 1290.92 L479.373 1286.98 Q477.914 1289.34 475.738 1290.48 Q473.563 1291.59 470.414 1291.59 Q466.433 1291.59 464.072 1289.36 Q461.734 1287.12 461.734 1283.37 Q461.734 1278.99 464.651 1276.77 Q467.59 1274.55 473.4 1274.55 L479.373 1274.55 L479.373 1274.13 Q479.373 1271.19 477.428 1269.6 Q475.507 1267.98 472.012 1267.98 Q469.789 1267.98 467.683 1268.51 Q465.576 1269.04 463.632 1270.11 L463.632 1266.17 Q465.97 1265.27 468.169 1264.83 Q470.368 1264.36 472.451 1264.36 Q478.076 1264.36 480.854 1267.28 Q483.632 1270.2 483.632 1276.12 Z" fill="#000000" fill-rule="nonzero" fill-opacity="1" /><path clip-path="url(#clip870)" d="M508.933 1265.75 L508.933 1269.78 Q507.127 1268.86 505.183 1268.39 Q503.238 1267.93 501.155 1267.93 Q497.984 1267.93 496.386 1268.9 Q494.812 1269.87 494.812 1271.82 Q494.812 1273.3 495.947 1274.16 Q497.081 1274.99 500.507 1275.75 L501.965 1276.08 Q506.502 1277.05 508.4 1278.83 Q510.322 1280.59 510.322 1283.76 Q510.322 1287.37 507.451 1289.48 Q504.604 1291.59 499.604 1291.59 Q497.521 1291.59 495.252 1291.17 Q493.007 1290.78 490.507 1289.97 L490.507 1285.57 Q492.868 1286.79 495.16 1287.42 Q497.451 1288.02 499.697 1288.02 Q502.706 1288.02 504.326 1287 Q505.947 1285.96 505.947 1284.09 Q505.947 1282.35 504.766 1281.42 Q503.609 1280.5 499.65 1279.64 L498.169 1279.3 Q494.211 1278.46 492.451 1276.75 Q490.692 1275.01 490.692 1272 Q490.692 1268.35 493.285 1266.36 Q495.877 1264.36 500.646 1264.36 Q503.007 1264.36 505.09 1264.71 Q507.173 1265.06 508.933 1265.75 Z" fill="#000000" fill-rule="nonzero" fill-opacity="1" /><path clip-path="url(#clip870)" d="M533.632 1265.75 L533.632 1269.78 Q531.826 1268.86 529.882 1268.39 Q527.937 1267.93 525.854 1267.93 Q522.683 1267.93 521.085 1268.9 Q519.511 1269.87 519.511 1271.82 Q519.511 1273.3 520.646 1274.16 Q521.78 1274.99 525.206 1275.75 L526.664 1276.08 Q531.201 1277.05 533.099 1278.83 Q535.021 1280.59 535.021 1283.76 Q535.021 1287.37 532.15 1289.48 Q529.303 1291.59 524.303 1291.59 Q522.22 1291.59 519.951 1291.17 Q517.706 1290.78 515.206 1289.97 L515.206 1285.57 Q517.567 1286.79 519.859 1287.42 Q522.15 1288.02 524.396 1288.02 Q527.405 1288.02 529.025 1287 Q530.646 1285.96 530.646 1284.09 Q530.646 1282.35 529.465 1281.42 Q528.308 1280.5 524.349 1279.64 L522.868 1279.3 Q518.909 1278.46 517.15 1276.75 Q515.391 1275.01 515.391 1272 Q515.391 1268.35 517.984 1266.36 Q520.576 1264.36 525.345 1264.36 Q527.706 1264.36 529.789 1264.71 Q531.872 1265.06 533.632 1265.75 Z" fill="#000000" fill-rule="nonzero" fill-opacity="1" /><path clip-path="url(#clip870)" d="M542.405 1285.04 L547.289 1285.04 L547.289 1290.92 L542.405 1290.92 L542.405 1285.04 Z" fill="#000000" fill-rule="nonzero" fill-opacity="1" /><path clip-path="url(#clip870)" d="M573.4 1265.75 L573.4 1269.78 Q571.594 1268.86 569.65 1268.39 Q567.706 1267.93 565.622 1267.93 Q562.451 1267.93 560.854 1268.9 Q559.28 1269.87 559.28 1271.82 Q559.28 1273.3 560.414 1274.16 Q561.548 1274.99 564.974 1275.75 L566.432 1276.08 Q570.969 1277.05 572.868 1278.83 Q574.789 1280.59 574.789 1283.76 Q574.789 1287.37 571.918 1289.48 Q569.071 1291.59 564.071 1291.59 Q561.988 1291.59 559.719 1291.17 Q557.474 1290.78 554.974 1289.97 L554.974 1285.57 Q557.335 1286.79 559.627 1287.42 Q561.919 1288.02 564.164 1288.02 Q567.173 1288.02 568.793 1287 Q570.414 1285.96 570.414 1284.09 Q570.414 1282.35 569.233 1281.42 Q568.076 1280.5 564.118 1279.64 L562.636 1279.3 Q558.678 1278.46 556.919 1276.75 Q555.159 1275.01 555.159 1272 Q555.159 1268.35 557.752 1266.36 Q560.344 1264.36 565.113 1264.36 Q567.474 1264.36 569.557 1264.71 Q571.641 1265.06 573.4 1265.75 Z" fill="#000000" fill-rule="nonzero" fill-opacity="1" /><path clip-path="url(#clip870)" d="M606.872 1254.94 Q603.77 1260.27 602.266 1265.48 Q600.761 1270.68 600.761 1276.03 Q600.761 1281.38 602.266 1286.63 Q603.793 1291.86 606.872 1297.17 L603.168 1297.17 Q599.696 1291.73 597.96 1286.47 Q596.247 1281.22 596.247 1276.03 Q596.247 1270.87 597.96 1265.64 Q599.673 1260.41 603.168 1254.94 L606.872 1254.94 Z" fill="#000000" fill-rule="nonzero" fill-opacity="1" /><path clip-path="url(#clip870)" d="M629.904 1272.28 Q633.261 1273 635.136 1275.27 Q637.034 1277.54 637.034 1280.87 Q637.034 1285.98 633.515 1288.79 Q629.997 1291.59 623.515 1291.59 Q621.339 1291.59 619.025 1291.15 Q616.733 1290.73 614.279 1289.87 L614.279 1285.36 Q616.224 1286.49 618.539 1287.07 Q620.853 1287.65 623.377 1287.65 Q627.775 1287.65 630.066 1285.92 Q632.381 1284.18 632.381 1280.87 Q632.381 1277.81 630.228 1276.1 Q628.099 1274.36 624.279 1274.36 L620.252 1274.36 L620.252 1270.52 L624.464 1270.52 Q627.914 1270.52 629.742 1269.16 Q631.571 1267.77 631.571 1265.17 Q631.571 1262.51 629.673 1261.1 Q627.798 1259.67 624.279 1259.67 Q622.358 1259.67 620.159 1260.08 Q617.96 1260.5 615.321 1261.38 L615.321 1257.21 Q617.983 1256.47 620.298 1256.1 Q622.636 1255.73 624.696 1255.73 Q630.02 1255.73 633.122 1258.16 Q636.224 1260.57 636.224 1264.69 Q636.224 1267.56 634.58 1269.55 Q632.937 1271.52 629.904 1272.28 Z" fill="#000000" fill-rule="nonzero" fill-opacity="1" /><path clip-path="url(#clip870)" d="M660.066 1272.28 Q663.423 1273 665.298 1275.27 Q667.196 1277.54 667.196 1280.87 Q667.196 1285.98 663.677 1288.79 Q660.159 1291.59 653.677 1291.59 Q651.501 1291.59 649.187 1291.15 Q646.895 1290.73 644.441 1289.87 L644.441 1285.36 Q646.386 1286.49 648.7 1287.07 Q651.015 1287.65 653.538 1287.65 Q657.937 1287.65 660.228 1285.92 Q662.543 1284.18 662.543 1280.87 Q662.543 1277.81 660.39 1276.1 Q658.261 1274.36 654.441 1274.36 L650.413 1274.36 L650.413 1270.52 L654.626 1270.52 Q658.075 1270.52 659.904 1269.16 Q661.733 1267.77 661.733 1265.17 Q661.733 1262.51 659.835 1261.1 Q657.96 1259.67 654.441 1259.67 Q652.52 1259.67 650.321 1260.08 Q648.122 1260.5 645.483 1261.38 L645.483 1257.21 Q648.145 1256.47 650.46 1256.1 Q652.798 1255.73 654.858 1255.73 Q660.182 1255.73 663.284 1258.16 Q666.386 1260.57 666.386 1264.69 Q666.386 1267.56 664.742 1269.55 Q663.099 1271.52 660.066 1272.28 Z" fill="#000000" fill-rule="nonzero" fill-opacity="1" /><path clip-path="url(#clip870)" d="M676.108 1256.36 L694.464 1256.36 L694.464 1260.29 L680.39 1260.29 L680.39 1268.76 Q681.409 1268.42 682.427 1268.25 Q683.446 1268.07 684.464 1268.07 Q690.251 1268.07 693.631 1271.24 Q697.01 1274.41 697.01 1279.83 Q697.01 1285.41 693.538 1288.51 Q690.066 1291.59 683.747 1291.59 Q681.571 1291.59 679.302 1291.22 Q677.057 1290.85 674.649 1290.11 L674.649 1285.41 Q676.733 1286.54 678.955 1287.1 Q681.177 1287.65 683.654 1287.65 Q687.659 1287.65 689.997 1285.54 Q692.334 1283.44 692.334 1279.83 Q692.334 1276.22 689.997 1274.11 Q687.659 1272 683.654 1272 Q681.779 1272 679.904 1272.42 Q678.052 1272.84 676.108 1273.72 L676.108 1256.36 Z" fill="#000000" fill-rule="nonzero" fill-opacity="1" /><path clip-path="url(#clip870)" d="M706.27 1256.36 L724.626 1256.36 L724.626 1260.29 L710.552 1260.29 L710.552 1268.76 Q711.57 1268.42 712.589 1268.25 Q713.608 1268.07 714.626 1268.07 Q720.413 1268.07 723.793 1271.24 Q727.172 1274.41 727.172 1279.83 Q727.172 1285.41 723.7 1288.51 Q720.228 1291.59 713.908 1291.59 Q711.733 1291.59 709.464 1291.22 Q707.219 1290.85 704.811 1290.11 L704.811 1285.41 Q706.895 1286.54 709.117 1287.1 Q711.339 1287.65 713.816 1287.65 Q717.82 1287.65 720.158 1285.54 Q722.496 1283.44 722.496 1279.83 Q722.496 1276.22 720.158 1274.11 Q717.82 1272 713.816 1272 Q711.941 1272 710.066 1272.42 Q708.214 1272.84 706.27 1273.72 L706.27 1256.36 Z" fill="#000000" fill-rule="nonzero" fill-opacity="1" /><path clip-path="url(#clip870)" d="M749.232 1260.43 L737.427 1278.88 L749.232 1278.88 L749.232 1260.43 M748.005 1256.36 L753.885 1256.36 L753.885 1278.88 L758.816 1278.88 L758.816 1282.77 L753.885 1282.77 L753.885 1290.92 L749.232 1290.92 L749.232 1282.77 L733.631 1282.77 L733.631 1278.25 L748.005 1256.36 Z" fill="#000000" fill-rule="nonzero" fill-opacity="1" /><path clip-path="url(#clip870)" d="M779.394 1260.43 L767.589 1278.88 L779.394 1278.88 L779.394 1260.43 M778.167 1256.36 L784.047 1256.36 L784.047 1278.88 L788.977 1278.88 L788.977 1282.77 L784.047 1282.77 L784.047 1290.92 L779.394 1290.92 L779.394 1282.77 L763.792 1282.77 L763.792 1278.25 L778.167 1256.36 Z" fill="#000000" fill-rule="nonzero" fill-opacity="1" /><path clip-path="url(#clip870)" d="M810.876 1272.28 Q814.232 1273 816.107 1275.27 Q818.005 1277.54 818.005 1280.87 Q818.005 1285.98 814.487 1288.79 Q810.968 1291.59 804.487 1291.59 Q802.311 1291.59 799.996 1291.15 Q797.704 1290.73 795.251 1289.87 L795.251 1285.36 Q797.195 1286.49 799.51 1287.07 Q801.825 1287.65 804.348 1287.65 Q808.746 1287.65 811.038 1285.92 Q813.352 1284.18 813.352 1280.87 Q813.352 1277.81 811.2 1276.1 Q809.07 1274.36 805.251 1274.36 L801.223 1274.36 L801.223 1270.52 L805.436 1270.52 Q808.885 1270.52 810.713 1269.16 Q812.542 1267.77 812.542 1265.17 Q812.542 1262.51 810.644 1261.1 Q808.769 1259.67 805.251 1259.67 Q803.329 1259.67 801.13 1260.08 Q798.931 1260.5 796.292 1261.38 L796.292 1257.21 Q798.954 1256.47 801.269 1256.1 Q803.607 1255.73 805.667 1255.73 Q810.991 1255.73 814.093 1258.16 Q817.195 1260.57 817.195 1264.69 Q817.195 1267.56 815.551 1269.55 Q813.908 1271.52 810.876 1272.28 Z" fill="#000000" fill-rule="nonzero" fill-opacity="1" /><path clip-path="url(#clip870)" d="M830.899 1286.98 L847.218 1286.98 L847.218 1290.92 L825.274 1290.92 L825.274 1286.98 Q827.936 1284.23 832.519 1279.6 Q837.125 1274.94 838.306 1273.6 Q840.551 1271.08 841.431 1269.34 Q842.334 1267.58 842.334 1265.89 Q842.334 1263.14 840.389 1261.4 Q838.468 1259.67 835.366 1259.67 Q833.167 1259.67 830.713 1260.43 Q828.283 1261.19 825.505 1262.74 L825.505 1258.02 Q828.329 1256.89 830.783 1256.31 Q833.237 1255.73 835.274 1255.73 Q840.644 1255.73 843.838 1258.42 Q847.033 1261.1 847.033 1265.59 Q847.033 1267.72 846.223 1269.64 Q845.436 1271.54 843.329 1274.13 Q842.75 1274.8 839.649 1278.02 Q836.547 1281.22 830.899 1286.98 Z" fill="#000000" fill-rule="nonzero" fill-opacity="1" /><path clip-path="url(#clip870)" d="M855.76 1254.94 L859.463 1254.94 Q862.935 1260.41 864.648 1265.64 Q866.384 1270.87 866.384 1276.03 Q866.384 1281.22 864.648 1286.47 Q862.935 1291.73 859.463 1297.17 L855.76 1297.17 Q858.838 1291.86 860.343 1286.63 Q861.871 1281.38 861.871 1276.03 Q861.871 1270.68 860.343 1265.48 Q858.838 1260.27 855.76 1254.94 Z" fill="#000000" fill-rule="nonzero" fill-opacity="1" /><polyline clip-path="url(#clip870)" style="stroke:#e26f46; stroke-linecap:round; stroke-linejoin:round; stroke-width:4; stroke-opacity:1; fill:none" points="245.49,1325.48 392.509,1325.48 "/>
<path clip-path="url(#clip870)" d="M437.359 1321.81 Q438.956 1318.94 441.178 1317.57 Q443.401 1316.2 446.41 1316.2 Q450.461 1316.2 452.66 1319.05 Q454.859 1321.88 454.859 1327.11 L454.859 1342.76 L450.577 1342.76 L450.577 1327.25 Q450.577 1323.52 449.257 1321.71 Q447.938 1319.91 445.229 1319.91 Q441.919 1319.91 439.998 1322.11 Q438.077 1324.31 438.077 1328.1 L438.077 1342.76 L433.794 1342.76 L433.794 1327.25 Q433.794 1323.5 432.475 1321.71 Q431.155 1319.91 428.401 1319.91 Q425.137 1319.91 423.216 1322.13 Q421.294 1324.33 421.294 1328.1 L421.294 1342.76 L417.012 1342.76 L417.012 1316.83 L421.294 1316.83 L421.294 1320.86 Q422.753 1318.47 424.79 1317.34 Q426.827 1316.2 429.628 1316.2 Q432.452 1316.2 434.419 1317.64 Q436.41 1319.07 437.359 1321.81 Z" fill="#000000" fill-rule="nonzero" fill-opacity="1" /><path clip-path="url(#clip870)" d="M475.137 1329.72 Q469.975 1329.72 467.984 1330.9 Q465.993 1332.08 465.993 1334.93 Q465.993 1337.2 467.475 1338.54 Q468.979 1339.86 471.549 1339.86 Q475.09 1339.86 477.22 1337.36 Q479.373 1334.84 479.373 1330.67 L479.373 1329.72 L475.137 1329.72 M483.632 1327.96 L483.632 1342.76 L479.373 1342.76 L479.373 1338.82 Q477.914 1341.18 475.738 1342.32 Q473.563 1343.43 470.414 1343.43 Q466.433 1343.43 464.072 1341.2 Q461.734 1338.96 461.734 1335.21 Q461.734 1330.83 464.651 1328.61 Q467.59 1326.39 473.4 1326.39 L479.373 1326.39 L479.373 1325.97 Q479.373 1323.03 477.428 1321.44 Q475.507 1319.82 472.012 1319.82 Q469.789 1319.82 467.683 1320.35 Q465.576 1320.88 463.632 1321.95 L463.632 1318.01 Q465.97 1317.11 468.169 1316.67 Q470.368 1316.2 472.451 1316.2 Q478.076 1316.2 480.854 1319.12 Q483.632 1322.04 483.632 1327.96 Z" fill="#000000" fill-rule="nonzero" fill-opacity="1" /><path clip-path="url(#clip870)" d="M508.933 1317.59 L508.933 1321.62 Q507.127 1320.7 505.183 1320.23 Q503.238 1319.77 501.155 1319.77 Q497.984 1319.77 496.386 1320.74 Q494.812 1321.71 494.812 1323.66 Q494.812 1325.14 495.947 1326 Q497.081 1326.83 500.507 1327.59 L501.965 1327.92 Q506.502 1328.89 508.4 1330.67 Q510.322 1332.43 510.322 1335.6 Q510.322 1339.21 507.451 1341.32 Q504.604 1343.43 499.604 1343.43 Q497.521 1343.43 495.252 1343.01 Q493.007 1342.62 490.507 1341.81 L490.507 1337.41 Q492.868 1338.63 495.16 1339.26 Q497.451 1339.86 499.697 1339.86 Q502.706 1339.86 504.326 1338.84 Q505.947 1337.8 505.947 1335.93 Q505.947 1334.19 504.766 1333.26 Q503.609 1332.34 499.65 1331.48 L498.169 1331.14 Q494.211 1330.3 492.451 1328.59 Q490.692 1326.85 490.692 1323.84 Q490.692 1320.19 493.285 1318.2 Q495.877 1316.2 500.646 1316.2 Q503.007 1316.2 505.09 1316.55 Q507.173 1316.9 508.933 1317.59 Z" fill="#000000" fill-rule="nonzero" fill-opacity="1" /><path clip-path="url(#clip870)" d="M533.632 1317.59 L533.632 1321.62 Q531.826 1320.7 529.882 1320.23 Q527.937 1319.77 525.854 1319.77 Q522.683 1319.77 521.085 1320.74 Q519.511 1321.71 519.511 1323.66 Q519.511 1325.14 520.646 1326 Q521.78 1326.83 525.206 1327.59 L526.664 1327.92 Q531.201 1328.89 533.099 1330.67 Q535.021 1332.43 535.021 1335.6 Q535.021 1339.21 532.15 1341.32 Q529.303 1343.43 524.303 1343.43 Q522.22 1343.43 519.951 1343.01 Q517.706 1342.62 515.206 1341.81 L515.206 1337.41 Q517.567 1338.63 519.859 1339.26 Q522.15 1339.86 524.396 1339.86 Q527.405 1339.86 529.025 1338.84 Q530.646 1337.8 530.646 1335.93 Q530.646 1334.19 529.465 1333.26 Q528.308 1332.34 524.349 1331.48 L522.868 1331.14 Q518.909 1330.3 517.15 1328.59 Q515.391 1326.85 515.391 1323.84 Q515.391 1320.19 517.984 1318.2 Q520.576 1316.2 525.345 1316.2 Q527.706 1316.2 529.789 1316.55 Q531.872 1316.9 533.632 1317.59 Z" fill="#000000" fill-rule="nonzero" fill-opacity="1" /><path clip-path="url(#clip870)" d="M542.405 1336.88 L547.289 1336.88 L547.289 1342.76 L542.405 1342.76 L542.405 1336.88 Z" fill="#000000" fill-rule="nonzero" fill-opacity="1" /><path clip-path="url(#clip870)" d="M553.817 1316.83 L558.331 1316.83 L566.432 1338.59 L574.534 1316.83 L579.048 1316.83 L569.326 1342.76 L563.539 1342.76 L553.817 1316.83 Z" fill="#000000" fill-rule="nonzero" fill-opacity="1" /><path clip-path="url(#clip870)" d="M610.228 1306.78 Q607.127 1312.11 605.622 1317.32 Q604.117 1322.52 604.117 1327.87 Q604.117 1333.22 605.622 1338.47 Q607.15 1343.7 610.228 1349.01 L606.525 1349.01 Q603.053 1343.57 601.316 1338.31 Q599.604 1333.06 599.604 1327.87 Q599.604 1322.71 601.316 1317.48 Q603.029 1312.25 606.525 1306.78 L610.228 1306.78 Z" fill="#000000" fill-rule="nonzero" fill-opacity="1" /><path clip-path="url(#clip870)" d="M633.261 1324.12 Q636.617 1324.84 638.492 1327.11 Q640.39 1329.38 640.39 1332.71 Q640.39 1337.82 636.872 1340.63 Q633.353 1343.43 626.872 1343.43 Q624.696 1343.43 622.381 1342.99 Q620.09 1342.57 617.636 1341.71 L617.636 1337.2 Q619.58 1338.33 621.895 1338.91 Q624.21 1339.49 626.733 1339.49 Q631.131 1339.49 633.423 1337.76 Q635.738 1336.02 635.738 1332.71 Q635.738 1329.65 633.585 1327.94 Q631.455 1326.2 627.636 1326.2 L623.608 1326.2 L623.608 1322.36 L627.821 1322.36 Q631.27 1322.36 633.099 1321 Q634.927 1319.61 634.927 1317.01 Q634.927 1314.35 633.029 1312.94 Q631.154 1311.51 627.636 1311.51 Q625.714 1311.51 623.515 1311.92 Q621.316 1312.34 618.677 1313.22 L618.677 1309.05 Q621.339 1308.31 623.654 1307.94 Q625.992 1307.57 628.052 1307.57 Q633.376 1307.57 636.478 1310 Q639.58 1312.41 639.58 1316.53 Q639.58 1319.4 637.937 1321.39 Q636.293 1323.36 633.261 1324.12 Z" fill="#000000" fill-rule="nonzero" fill-opacity="1" /><path clip-path="url(#clip870)" d="M663.423 1324.12 Q666.779 1324.84 668.654 1327.11 Q670.552 1329.38 670.552 1332.71 Q670.552 1337.82 667.034 1340.63 Q663.515 1343.43 657.034 1343.43 Q654.858 1343.43 652.543 1342.99 Q650.251 1342.57 647.798 1341.71 L647.798 1337.2 Q649.742 1338.33 652.057 1338.91 Q654.372 1339.49 656.895 1339.49 Q661.293 1339.49 663.585 1337.76 Q665.899 1336.02 665.899 1332.71 Q665.899 1329.65 663.747 1327.94 Q661.617 1326.2 657.798 1326.2 L653.77 1326.2 L653.77 1322.36 L657.983 1322.36 Q661.432 1322.36 663.261 1321 Q665.089 1319.61 665.089 1317.01 Q665.089 1314.35 663.191 1312.94 Q661.316 1311.51 657.798 1311.51 Q655.876 1311.51 653.677 1311.92 Q651.478 1312.34 648.839 1313.22 L648.839 1309.05 Q651.501 1308.31 653.816 1307.94 Q656.154 1307.57 658.214 1307.57 Q663.538 1307.57 666.64 1310 Q669.742 1312.41 669.742 1316.53 Q669.742 1319.4 668.099 1321.39 Q666.455 1323.36 663.423 1324.12 Z" fill="#000000" fill-rule="nonzero" fill-opacity="1" /><path clip-path="url(#clip870)" d="M679.464 1308.2 L697.821 1308.2 L697.821 1312.13 L683.747 1312.13 L683.747 1320.6 Q684.765 1320.26 685.784 1320.09 Q686.802 1319.91 687.821 1319.91 Q693.608 1319.91 696.987 1323.08 Q700.367 1326.25 700.367 1331.67 Q700.367 1337.25 696.895 1340.35 Q693.422 1343.43 687.103 1343.43 Q684.927 1343.43 682.659 1343.06 Q680.413 1342.69 678.006 1341.95 L678.006 1337.25 Q680.089 1338.38 682.311 1338.94 Q684.534 1339.49 687.01 1339.49 Q691.015 1339.49 693.353 1337.38 Q695.691 1335.28 695.691 1331.67 Q695.691 1328.06 693.353 1325.95 Q691.015 1323.84 687.01 1323.84 Q685.135 1323.84 683.26 1324.26 Q681.409 1324.68 679.464 1325.56 L679.464 1308.2 Z" fill="#000000" fill-rule="nonzero" fill-opacity="1" /><path clip-path="url(#clip870)" d="M709.626 1308.2 L727.982 1308.2 L727.982 1312.13 L713.908 1312.13 L713.908 1320.6 Q714.927 1320.26 715.945 1320.09 Q716.964 1319.91 717.982 1319.91 Q723.77 1319.91 727.149 1323.08 Q730.529 1326.25 730.529 1331.67 Q730.529 1337.25 727.057 1340.35 Q723.584 1343.43 717.265 1343.43 Q715.089 1343.43 712.82 1343.06 Q710.575 1342.69 708.168 1341.95 L708.168 1337.25 Q710.251 1338.38 712.473 1338.94 Q714.695 1339.49 717.172 1339.49 Q721.177 1339.49 723.515 1337.38 Q725.853 1335.28 725.853 1331.67 Q725.853 1328.06 723.515 1325.95 Q721.177 1323.84 717.172 1323.84 Q715.297 1323.84 713.422 1324.26 Q711.57 1324.68 709.626 1325.56 L709.626 1308.2 Z" fill="#000000" fill-rule="nonzero" fill-opacity="1" /><path clip-path="url(#clip870)" d="M752.589 1312.27 L740.783 1330.72 L752.589 1330.72 L752.589 1312.27 M751.362 1308.2 L757.242 1308.2 L757.242 1330.72 L762.172 1330.72 L762.172 1334.61 L757.242 1334.61 L757.242 1342.76 L752.589 1342.76 L752.589 1334.61 L736.987 1334.61 L736.987 1330.09 L751.362 1308.2 Z" fill="#000000" fill-rule="nonzero" fill-opacity="1" /><path clip-path="url(#clip870)" d="M782.751 1312.27 L770.945 1330.72 L782.751 1330.72 L782.751 1312.27 M781.524 1308.2 L787.403 1308.2 L787.403 1330.72 L792.334 1330.72 L792.334 1334.61 L787.403 1334.61 L787.403 1342.76 L782.751 1342.76 L782.751 1334.61 L767.149 1334.61 L767.149 1330.09 L781.524 1308.2 Z" fill="#000000" fill-rule="nonzero" fill-opacity="1" /><path clip-path="url(#clip870)" d="M814.232 1324.12 Q817.588 1324.84 819.463 1327.11 Q821.362 1329.38 821.362 1332.71 Q821.362 1337.82 817.843 1340.63 Q814.325 1343.43 807.843 1343.43 Q805.667 1343.43 803.352 1342.99 Q801.061 1342.57 798.607 1341.71 L798.607 1337.2 Q800.552 1338.33 802.866 1338.91 Q805.181 1339.49 807.704 1339.49 Q812.102 1339.49 814.394 1337.76 Q816.709 1336.02 816.709 1332.71 Q816.709 1329.65 814.556 1327.94 Q812.426 1326.2 808.607 1326.2 L804.579 1326.2 L804.579 1322.36 L808.792 1322.36 Q812.241 1322.36 814.07 1321 Q815.899 1319.61 815.899 1317.01 Q815.899 1314.35 814.001 1312.94 Q812.126 1311.51 808.607 1311.51 Q806.686 1311.51 804.487 1311.92 Q802.288 1312.34 799.649 1313.22 L799.649 1309.05 Q802.311 1308.31 804.626 1307.94 Q806.964 1307.57 809.024 1307.57 Q814.348 1307.57 817.45 1310 Q820.551 1312.41 820.551 1316.53 Q820.551 1319.4 818.908 1321.39 Q817.264 1323.36 814.232 1324.12 Z" fill="#000000" fill-rule="nonzero" fill-opacity="1" /><path clip-path="url(#clip870)" d="M844.394 1324.12 Q847.75 1324.84 849.625 1327.11 Q851.523 1329.38 851.523 1332.71 Q851.523 1337.82 848.005 1340.63 Q844.486 1343.43 838.005 1343.43 Q835.829 1343.43 833.514 1342.99 Q831.223 1342.57 828.769 1341.71 L828.769 1337.2 Q830.713 1338.33 833.028 1338.91 Q835.343 1339.49 837.866 1339.49 Q842.264 1339.49 844.556 1337.76 Q846.871 1336.02 846.871 1332.71 Q846.871 1329.65 844.718 1327.94 Q842.588 1326.2 838.769 1326.2 L834.741 1326.2 L834.741 1322.36 L838.954 1322.36 Q842.403 1322.36 844.232 1321 Q846.061 1319.61 846.061 1317.01 Q846.061 1314.35 844.162 1312.94 Q842.287 1311.51 838.769 1311.51 Q836.848 1311.51 834.649 1311.92 Q832.449 1312.34 829.811 1313.22 L829.811 1309.05 Q832.473 1308.31 834.787 1307.94 Q837.125 1307.57 839.186 1307.57 Q844.51 1307.57 847.611 1310 Q850.713 1312.41 850.713 1316.53 Q850.713 1319.4 849.07 1321.39 Q847.426 1323.36 844.394 1324.12 Z" fill="#000000" fill-rule="nonzero" fill-opacity="1" /><path clip-path="url(#clip870)" d="M859.116 1306.78 L862.82 1306.78 Q866.292 1312.25 868.005 1317.48 Q869.741 1322.71 869.741 1327.87 Q869.741 1333.06 868.005 1338.31 Q866.292 1343.57 862.82 1349.01 L859.116 1349.01 Q862.195 1343.7 863.699 1338.47 Q865.227 1333.22 865.227 1327.87 Q865.227 1322.52 863.699 1317.32 Q862.195 1312.11 859.116 1306.78 Z" fill="#000000" fill-rule="nonzero" fill-opacity="1" /></svg>
