<?xml version="1.0" encoding="utf-8"?>
<svg xmlns="http://www.w3.org/2000/svg" xmlns:xlink="http://www.w3.org/1999/xlink" width="600" height="400" viewBox="0 0 2400 1600">
<defs>
  <clipPath id="clip180">
    <rect x="0" y="0" width="2400" height="1600"/>
  </clipPath>
</defs>
<path clip-path="url(#clip180)" d="
M0 1600 L2400 1600 L2400 0 L0 0  Z
  " fill="#ffffff" fill-rule="evenodd" fill-opacity="1"/>
<defs>
  <clipPath id="clip181">
    <rect x="480" y="0" width="1681" height="1600"/>
  </clipPath>
</defs>
<path clip-path="url(#clip180)" d="
M155.765 1423.18 L2352.76 1423.18 L2352.76 47.2441 L155.765 47.2441  Z
  " fill="#ffffff" fill-rule="evenodd" fill-opacity="1"/>
<defs>
  <clipPath id="clip182">
    <rect x="155" y="47" width="2198" height="1377"/>
  </clipPath>
</defs>
<polyline clip-path="url(#clip182)" style="stroke:#000000; stroke-linecap:butt; stroke-linejoin:round; stroke-width:2; stroke-opacity:0.1; fill:none" points="
  217.944,1423.18 217.944,47.2441 
  "/>
<polyline clip-path="url(#clip182)" style="stroke:#000000; stroke-linecap:butt; stroke-linejoin:round; stroke-width:2; stroke-opacity:0.1; fill:none" points="
  736.102,1423.18 736.102,47.2441 
  "/>
<polyline clip-path="url(#clip182)" style="stroke:#000000; stroke-linecap:butt; stroke-linejoin:round; stroke-width:2; stroke-opacity:0.1; fill:none" points="
  1254.26,1423.18 1254.26,47.2441 
  "/>
<polyline clip-path="url(#clip182)" style="stroke:#000000; stroke-linecap:butt; stroke-linejoin:round; stroke-width:2; stroke-opacity:0.1; fill:none" points="
  1772.42,1423.18 1772.42,47.2441 
  "/>
<polyline clip-path="url(#clip182)" style="stroke:#000000; stroke-linecap:butt; stroke-linejoin:round; stroke-width:2; stroke-opacity:0.1; fill:none" points="
  2290.58,1423.18 2290.58,47.2441 
  "/>
<polyline clip-path="url(#clip180)" style="stroke:#000000; stroke-linecap:butt; stroke-linejoin:round; stroke-width:4; stroke-opacity:1; fill:none" points="
  155.765,1423.18 2352.76,1423.18 
  "/>
<polyline clip-path="url(#clip180)" style="stroke:#000000; stroke-linecap:butt; stroke-linejoin:round; stroke-width:4; stroke-opacity:1; fill:none" points="
  217.944,1423.18 217.944,1404.28 
  "/>
<polyline clip-path="url(#clip180)" style="stroke:#000000; stroke-linecap:butt; stroke-linejoin:round; stroke-width:4; stroke-opacity:1; fill:none" points="
  736.102,1423.18 736.102,1404.28 
  "/>
<polyline clip-path="url(#clip180)" style="stroke:#000000; stroke-linecap:butt; stroke-linejoin:round; stroke-width:4; stroke-opacity:1; fill:none" points="
  1254.26,1423.18 1254.26,1404.28 
  "/>
<polyline clip-path="url(#clip180)" style="stroke:#000000; stroke-linecap:butt; stroke-linejoin:round; stroke-width:4; stroke-opacity:1; fill:none" points="
  1772.42,1423.18 1772.42,1404.28 
  "/>
<polyline clip-path="url(#clip180)" style="stroke:#000000; stroke-linecap:butt; stroke-linejoin:round; stroke-width:4; stroke-opacity:1; fill:none" points="
  2290.58,1423.18 2290.58,1404.28 
  "/>
<path clip-path="url(#clip180)" d="M217.944 1454.1 Q214.333 1454.1 212.504 1457.66 Q210.699 1461.2 210.699 1468.33 Q210.699 1475.44 212.504 1479.01 Q214.333 1482.55 217.944 1482.55 Q221.578 1482.55 223.384 1479.01 Q225.212 1475.44 225.212 1468.33 Q225.212 1461.2 223.384 1457.66 Q221.578 1454.1 217.944 1454.1 M217.944 1450.39 Q223.754 1450.39 226.81 1455 Q229.888 1459.58 229.888 1468.33 Q229.888 1477.06 226.81 1481.67 Q223.754 1486.25 217.944 1486.25 Q212.134 1486.25 209.055 1481.67 Q206 1477.06 206 1468.33 Q206 1459.58 209.055 1455 Q212.134 1450.39 217.944 1450.39 Z" fill="#000000" fill-rule="evenodd" fill-opacity="1" /><path clip-path="url(#clip180)" d="M730.755 1481.64 L747.074 1481.64 L747.074 1485.58 L725.13 1485.58 L725.13 1481.64 Q727.792 1478.89 732.375 1474.26 Q736.982 1469.61 738.162 1468.27 Q740.408 1465.74 741.287 1464.01 Q742.19 1462.25 742.19 1460.56 Q742.19 1457.8 740.246 1456.07 Q738.324 1454.33 735.223 1454.33 Q733.023 1454.33 730.57 1455.09 Q728.139 1455.86 725.361 1457.41 L725.361 1452.69 Q728.186 1451.55 730.639 1450.97 Q733.093 1450.39 735.13 1450.39 Q740.5 1450.39 743.695 1453.08 Q746.889 1455.77 746.889 1460.26 Q746.889 1462.39 746.079 1464.31 Q745.292 1466.2 743.185 1468.8 Q742.607 1469.47 739.505 1472.69 Q736.403 1475.88 730.755 1481.64 Z" fill="#000000" fill-rule="evenodd" fill-opacity="1" /><path clip-path="url(#clip180)" d="M1257.27 1455.09 L1245.46 1473.54 L1257.27 1473.54 L1257.27 1455.09 M1256.04 1451.02 L1261.92 1451.02 L1261.92 1473.54 L1266.85 1473.54 L1266.85 1477.43 L1261.92 1477.43 L1261.92 1485.58 L1257.27 1485.58 L1257.27 1477.43 L1241.67 1477.43 L1241.67 1472.92 L1256.04 1451.02 Z" fill="#000000" fill-rule="evenodd" fill-opacity="1" /><path clip-path="url(#clip180)" d="M1772.82 1466.44 Q1769.68 1466.44 1767.82 1468.59 Q1766 1470.74 1766 1474.49 Q1766 1478.22 1767.82 1480.39 Q1769.68 1482.55 1772.82 1482.55 Q1775.97 1482.55 1777.8 1480.39 Q1779.65 1478.22 1779.65 1474.49 Q1779.65 1470.74 1777.8 1468.59 Q1775.97 1466.44 1772.82 1466.44 M1782.11 1451.78 L1782.11 1456.04 Q1780.35 1455.21 1778.54 1454.77 Q1776.76 1454.33 1775 1454.33 Q1770.37 1454.33 1767.92 1457.45 Q1765.49 1460.58 1765.14 1466.9 Q1766.5 1464.89 1768.56 1463.82 Q1770.62 1462.73 1773.1 1462.73 Q1778.31 1462.73 1781.32 1465.9 Q1784.35 1469.05 1784.35 1474.49 Q1784.35 1479.82 1781.2 1483.03 Q1778.06 1486.25 1772.82 1486.25 Q1766.83 1486.25 1763.66 1481.67 Q1760.49 1477.06 1760.49 1468.33 Q1760.49 1460.14 1764.37 1455.28 Q1768.26 1450.39 1774.81 1450.39 Q1776.57 1450.39 1778.36 1450.74 Q1780.16 1451.09 1782.11 1451.78 Z" fill="#000000" fill-rule="evenodd" fill-opacity="1" /><path clip-path="url(#clip180)" d="M2290.58 1469.17 Q2287.24 1469.17 2285.32 1470.95 Q2283.42 1472.73 2283.42 1475.86 Q2283.42 1478.98 2285.32 1480.77 Q2287.24 1482.55 2290.58 1482.55 Q2293.91 1482.55 2295.83 1480.77 Q2297.75 1478.96 2297.75 1475.86 Q2297.75 1472.73 2295.83 1470.95 Q2293.93 1469.17 2290.58 1469.17 M2285.9 1467.18 Q2282.89 1466.44 2281.2 1464.38 Q2279.54 1462.32 2279.54 1459.35 Q2279.54 1455.21 2282.48 1452.8 Q2285.44 1450.39 2290.58 1450.39 Q2295.74 1450.39 2298.68 1452.8 Q2301.62 1455.21 2301.62 1459.35 Q2301.62 1462.32 2299.93 1464.38 Q2298.26 1466.44 2295.28 1467.18 Q2298.66 1467.96 2300.53 1470.26 Q2302.43 1472.55 2302.43 1475.86 Q2302.43 1480.88 2299.35 1483.57 Q2296.29 1486.25 2290.58 1486.25 Q2284.86 1486.25 2281.78 1483.57 Q2278.73 1480.88 2278.73 1475.86 Q2278.73 1472.55 2280.62 1470.26 Q2282.52 1467.96 2285.9 1467.18 M2284.19 1459.79 Q2284.19 1462.48 2285.85 1463.98 Q2287.54 1465.49 2290.58 1465.49 Q2293.59 1465.49 2295.28 1463.98 Q2296.99 1462.48 2296.99 1459.79 Q2296.99 1457.11 2295.28 1455.6 Q2293.59 1454.1 2290.58 1454.1 Q2287.54 1454.1 2285.85 1455.6 Q2284.19 1457.11 2284.19 1459.79 Z" fill="#000000" fill-rule="evenodd" fill-opacity="1" /><path clip-path="url(#clip180)" d="M1202.57 1522.27 L1202.57 1532.4 L1214.63 1532.4 L1214.63 1536.95 L1202.57 1536.95 L1202.57 1556.3 Q1202.57 1560.66 1203.75 1561.9 Q1204.96 1563.14 1208.62 1563.14 L1214.63 1563.14 L1214.63 1568.04 L1208.62 1568.04 Q1201.84 1568.04 1199.26 1565.53 Q1196.68 1562.98 1196.68 1556.3 L1196.68 1536.95 L1192.39 1536.95 L1192.39 1532.4 L1196.68 1532.4 L1196.68 1522.27 L1202.57 1522.27 Z" fill="#000000" fill-rule="evenodd" fill-opacity="1" /><path clip-path="url(#clip180)" d="M1242.52 1518.52 L1256.01 1518.52 L1256.01 1523.07 L1248.37 1523.07 L1248.37 1572.09 L1256.01 1572.09 L1256.01 1576.64 L1242.52 1576.64 L1242.52 1518.52 Z" fill="#000000" fill-rule="evenodd" fill-opacity="1" /><path clip-path="url(#clip180)" d="M1291.21 1533.45 L1291.21 1538.98 Q1288.73 1537.71 1286.06 1537.07 Q1283.38 1536.44 1280.52 1536.44 Q1276.16 1536.44 1273.96 1537.77 Q1271.8 1539.11 1271.8 1541.79 Q1271.8 1543.82 1273.36 1545 Q1274.92 1546.15 1279.63 1547.2 L1281.63 1547.64 Q1287.87 1548.98 1290.48 1551.43 Q1293.12 1553.85 1293.12 1558.21 Q1293.12 1563.17 1289.18 1566.07 Q1285.26 1568.97 1278.39 1568.97 Q1275.52 1568.97 1272.4 1568.39 Q1269.32 1567.85 1265.88 1566.74 L1265.88 1560.69 Q1269.12 1562.38 1272.28 1563.24 Q1275.43 1564.07 1278.51 1564.07 Q1282.65 1564.07 1284.88 1562.66 Q1287.11 1561.23 1287.11 1558.65 Q1287.11 1556.27 1285.48 1554.99 Q1283.89 1553.72 1278.45 1552.54 L1276.41 1552.07 Q1270.97 1550.92 1268.55 1548.56 Q1266.13 1546.18 1266.13 1542.04 Q1266.13 1537.01 1269.7 1534.27 Q1273.26 1531.54 1279.82 1531.54 Q1283.07 1531.54 1285.93 1532.01 Q1288.79 1532.49 1291.21 1533.45 Z" fill="#000000" fill-rule="evenodd" fill-opacity="1" /><path clip-path="url(#clip180)" d="M1316.14 1518.52 L1316.14 1576.64 L1302.64 1576.64 L1302.64 1572.09 L1310.25 1572.09 L1310.25 1523.07 L1302.64 1523.07 L1302.64 1518.52 L1316.14 1518.52 Z" fill="#000000" fill-rule="evenodd" fill-opacity="1" /><polyline clip-path="url(#clip182)" style="stroke:#000000; stroke-linecap:butt; stroke-linejoin:round; stroke-width:2; stroke-opacity:0.1; fill:none" points="
  155.765,1384.24 2352.76,1384.24 
  "/>
<polyline clip-path="url(#clip182)" style="stroke:#000000; stroke-linecap:butt; stroke-linejoin:round; stroke-width:2; stroke-opacity:0.1; fill:none" points="
  155.765,1108.15 2352.76,1108.15 
  "/>
<polyline clip-path="url(#clip182)" style="stroke:#000000; stroke-linecap:butt; stroke-linejoin:round; stroke-width:2; stroke-opacity:0.1; fill:none" points="
  155.765,832.066 2352.76,832.066 
  "/>
<polyline clip-path="url(#clip182)" style="stroke:#000000; stroke-linecap:butt; stroke-linejoin:round; stroke-width:2; stroke-opacity:0.1; fill:none" points="
  155.765,555.981 2352.76,555.981 
  "/>
<polyline clip-path="url(#clip182)" style="stroke:#000000; stroke-linecap:butt; stroke-linejoin:round; stroke-width:2; stroke-opacity:0.1; fill:none" points="
  155.765,279.895 2352.76,279.895 
  "/>
<polyline clip-path="url(#clip180)" style="stroke:#000000; stroke-linecap:butt; stroke-linejoin:round; stroke-width:4; stroke-opacity:1; fill:none" points="
  155.765,1423.18 155.765,47.2441 
  "/>
<polyline clip-path="url(#clip180)" style="stroke:#000000; stroke-linecap:butt; stroke-linejoin:round; stroke-width:4; stroke-opacity:1; fill:none" points="
  155.765,1384.24 174.663,1384.24 
  "/>
<polyline clip-path="url(#clip180)" style="stroke:#000000; stroke-linecap:butt; stroke-linejoin:round; stroke-width:4; stroke-opacity:1; fill:none" points="
  155.765,1108.15 174.663,1108.15 
  "/>
<polyline clip-path="url(#clip180)" style="stroke:#000000; stroke-linecap:butt; stroke-linejoin:round; stroke-width:4; stroke-opacity:1; fill:none" points="
  155.765,832.066 174.663,832.066 
  "/>
<polyline clip-path="url(#clip180)" style="stroke:#000000; stroke-linecap:butt; stroke-linejoin:round; stroke-width:4; stroke-opacity:1; fill:none" points="
  155.765,555.981 174.663,555.981 
  "/>
<polyline clip-path="url(#clip180)" style="stroke:#000000; stroke-linecap:butt; stroke-linejoin:round; stroke-width:4; stroke-opacity:1; fill:none" points="
  155.765,279.895 174.663,279.895 
  "/>
<path clip-path="url(#clip180)" d="M63.5847 1370.04 Q59.9736 1370.04 58.1449 1373.6 Q56.3393 1377.14 56.3393 1384.27 Q56.3393 1391.38 58.1449 1394.94 Q59.9736 1398.49 63.5847 1398.49 Q67.2189 1398.49 69.0244 1394.94 Q70.8531 1391.38 70.8531 1384.27 Q70.8531 1377.14 69.0244 1373.6 Q67.2189 1370.04 63.5847 1370.04 M63.5847 1366.33 Q69.3948 1366.33 72.4503 1370.94 Q75.529 1375.52 75.529 1384.27 Q75.529 1393 72.4503 1397.61 Q69.3948 1402.19 63.5847 1402.19 Q57.7745 1402.19 54.6958 1397.61 Q51.6403 1393 51.6403 1384.27 Q51.6403 1375.52 54.6958 1370.94 Q57.7745 1366.33 63.5847 1366.33 Z" fill="#000000" fill-rule="evenodd" fill-opacity="1" /><path clip-path="url(#clip180)" d="M83.7466 1395.64 L88.6308 1395.64 L88.6308 1401.52 L83.7466 1401.52 L83.7466 1395.64 Z" fill="#000000" fill-rule="evenodd" fill-opacity="1" /><path clip-path="url(#clip180)" d="M98.8622 1366.96 L117.219 1366.96 L117.219 1370.89 L103.145 1370.89 L103.145 1379.37 Q104.163 1379.02 105.182 1378.86 Q106.2 1378.67 107.219 1378.67 Q113.006 1378.67 116.385 1381.84 Q119.765 1385.01 119.765 1390.43 Q119.765 1396.01 116.293 1399.11 Q112.82 1402.19 106.501 1402.19 Q104.325 1402.19 102.057 1401.82 Q99.8113 1401.45 97.4039 1400.71 L97.4039 1396.01 Q99.4872 1397.14 101.709 1397.7 Q103.932 1398.25 106.408 1398.25 Q110.413 1398.25 112.751 1396.15 Q115.089 1394.04 115.089 1390.43 Q115.089 1386.82 112.751 1384.71 Q110.413 1382.61 106.408 1382.61 Q104.534 1382.61 102.659 1383.02 Q100.807 1383.44 98.8622 1384.32 L98.8622 1366.96 Z" fill="#000000" fill-rule="evenodd" fill-opacity="1" /><path clip-path="url(#clip180)" d="M53.3995 1121.5 L61.0384 1121.5 L61.0384 1095.13 L52.7282 1096.8 L52.7282 1092.54 L60.9921 1090.87 L65.668 1090.87 L65.668 1121.5 L73.3068 1121.5 L73.3068 1125.43 L53.3995 1125.43 L53.3995 1121.5 Z" fill="#000000" fill-rule="evenodd" fill-opacity="1" /><path clip-path="url(#clip180)" d="M82.7512 1119.55 L87.6354 1119.55 L87.6354 1125.43 L82.7512 1125.43 L82.7512 1119.55 Z" fill="#000000" fill-rule="evenodd" fill-opacity="1" /><path clip-path="url(#clip180)" d="M107.821 1093.95 Q104.209 1093.95 102.381 1097.52 Q100.575 1101.06 100.575 1108.19 Q100.575 1115.29 102.381 1118.86 Q104.209 1122.4 107.821 1122.4 Q111.455 1122.4 113.26 1118.86 Q115.089 1115.29 115.089 1108.19 Q115.089 1101.06 113.26 1097.52 Q111.455 1093.95 107.821 1093.95 M107.821 1090.25 Q113.631 1090.25 116.686 1094.85 Q119.765 1099.44 119.765 1108.19 Q119.765 1116.91 116.686 1121.52 Q113.631 1126.1 107.821 1126.1 Q102.01 1126.1 98.9317 1121.52 Q95.8761 1116.91 95.8761 1108.19 Q95.8761 1099.44 98.9317 1094.85 Q102.01 1090.25 107.821 1090.25 Z" fill="#000000" fill-rule="evenodd" fill-opacity="1" /><path clip-path="url(#clip180)" d="M54.3949 845.411 L62.0337 845.411 L62.0337 819.046 L53.7236 820.712 L53.7236 816.453 L61.9874 814.786 L66.6633 814.786 L66.6633 845.411 L74.3022 845.411 L74.3022 849.346 L54.3949 849.346 L54.3949 845.411 Z" fill="#000000" fill-rule="evenodd" fill-opacity="1" /><path clip-path="url(#clip180)" d="M83.7466 843.467 L88.6308 843.467 L88.6308 849.346 L83.7466 849.346 L83.7466 843.467 Z" fill="#000000" fill-rule="evenodd" fill-opacity="1" /><path clip-path="url(#clip180)" d="M98.8622 814.786 L117.219 814.786 L117.219 818.722 L103.145 818.722 L103.145 827.194 Q104.163 826.847 105.182 826.685 Q106.2 826.499 107.219 826.499 Q113.006 826.499 116.385 829.671 Q119.765 832.842 119.765 838.259 Q119.765 843.837 116.293 846.939 Q112.82 850.018 106.501 850.018 Q104.325 850.018 102.057 849.647 Q99.8113 849.277 97.4039 848.536 L97.4039 843.837 Q99.4872 844.971 101.709 845.527 Q103.932 846.083 106.408 846.083 Q110.413 846.083 112.751 843.976 Q115.089 841.87 115.089 838.259 Q115.089 834.647 112.751 832.541 Q110.413 830.434 106.408 830.434 Q104.534 830.434 102.659 830.851 Q100.807 831.268 98.8622 832.147 L98.8622 814.786 Z" fill="#000000" fill-rule="evenodd" fill-opacity="1" /><path clip-path="url(#clip180)" d="M56.6171 569.325 L72.9365 569.325 L72.9365 573.261 L50.9921 573.261 L50.9921 569.325 Q53.6541 566.571 58.2375 561.941 Q62.8439 557.288 64.0245 555.946 Q66.2698 553.423 67.1494 551.687 Q68.0522 549.927 68.0522 548.238 Q68.0522 545.483 66.1078 543.747 Q64.1865 542.011 61.0847 542.011 Q58.8856 542.011 56.4319 542.775 Q54.0014 543.538 51.2236 545.089 L51.2236 540.367 Q54.0477 539.233 56.5014 538.654 Q58.955 538.076 60.9921 538.076 Q66.3624 538.076 69.5568 540.761 Q72.7513 543.446 72.7513 547.937 Q72.7513 550.066 71.9411 551.987 Q71.1541 553.886 69.0476 556.478 Q68.4689 557.149 65.367 560.367 Q62.2652 563.561 56.6171 569.325 Z" fill="#000000" fill-rule="evenodd" fill-opacity="1" /><path clip-path="url(#clip180)" d="M82.7512 567.381 L87.6354 567.381 L87.6354 573.261 L82.7512 573.261 L82.7512 567.381 Z" fill="#000000" fill-rule="evenodd" fill-opacity="1" /><path clip-path="url(#clip180)" d="M107.821 541.779 Q104.209 541.779 102.381 545.344 Q100.575 548.886 100.575 556.015 Q100.575 563.122 102.381 566.686 Q104.209 570.228 107.821 570.228 Q111.455 570.228 113.26 566.686 Q115.089 563.122 115.089 556.015 Q115.089 548.886 113.26 545.344 Q111.455 541.779 107.821 541.779 M107.821 538.076 Q113.631 538.076 116.686 542.682 Q119.765 547.265 119.765 556.015 Q119.765 564.742 116.686 569.349 Q113.631 573.932 107.821 573.932 Q102.01 573.932 98.9317 569.349 Q95.8761 564.742 95.8761 556.015 Q95.8761 547.265 98.9317 542.682 Q102.01 538.076 107.821 538.076 Z" fill="#000000" fill-rule="evenodd" fill-opacity="1" /><path clip-path="url(#clip180)" d="M57.6125 293.239 L73.9318 293.239 L73.9318 297.175 L51.9875 297.175 L51.9875 293.239 Q54.6495 290.485 59.2328 285.855 Q63.8393 281.202 65.0198 279.86 Q67.2652 277.337 68.1448 275.601 Q69.0476 273.841 69.0476 272.152 Q69.0476 269.397 67.1032 267.661 Q65.1819 265.925 62.08 265.925 Q59.881 265.925 57.4273 266.689 Q54.9967 267.453 52.219 269.003 L52.219 264.281 Q55.043 263.147 57.4967 262.568 Q59.9504 261.99 61.9874 261.99 Q67.3578 261.99 70.5522 264.675 Q73.7466 267.36 73.7466 271.851 Q73.7466 273.98 72.9365 275.902 Q72.1494 277.8 70.0429 280.392 Q69.4642 281.064 66.3624 284.281 Q63.2606 287.476 57.6125 293.239 Z" fill="#000000" fill-rule="evenodd" fill-opacity="1" /><path clip-path="url(#clip180)" d="M83.7466 291.295 L88.6308 291.295 L88.6308 297.175 L83.7466 297.175 L83.7466 291.295 Z" fill="#000000" fill-rule="evenodd" fill-opacity="1" /><path clip-path="url(#clip180)" d="M98.8622 262.615 L117.219 262.615 L117.219 266.55 L103.145 266.55 L103.145 275.022 Q104.163 274.675 105.182 274.513 Q106.2 274.328 107.219 274.328 Q113.006 274.328 116.385 277.499 Q119.765 280.67 119.765 286.087 Q119.765 291.665 116.293 294.767 Q112.82 297.846 106.501 297.846 Q104.325 297.846 102.057 297.476 Q99.8113 297.105 97.4039 296.364 L97.4039 291.665 Q99.4872 292.8 101.709 293.355 Q103.932 293.911 106.408 293.911 Q110.413 293.911 112.751 291.804 Q115.089 289.698 115.089 286.087 Q115.089 282.476 112.751 280.369 Q110.413 278.263 106.408 278.263 Q104.534 278.263 102.659 278.679 Q100.807 279.096 98.8622 279.976 L98.8622 262.615 Z" fill="#000000" fill-rule="evenodd" fill-opacity="1" /><polyline clip-path="url(#clip182)" style="stroke:#009af9; stroke-linecap:butt; stroke-linejoin:round; stroke-width:4; stroke-opacity:1; fill:none" points="
  217.944,1384.24 217.944,1384.24 218.542,1384.23 222.522,1383.87 231.77,1380.85 248.631,1367.48 265.833,1343.67 286.56,1302.64 307.286,1250.51 328.012,1190.55 
  348.739,1126.58 369.465,1062.67 390.191,1002.89 410.918,951.044 431.644,910.488 452.37,883.921 473.097,873.371 475.479,873.255 496.206,879.551 516.932,898.45 
  537.658,929.138 558.385,969.848 579.111,1018.07 599.837,1070.77 620.564,1124.6 641.29,1176.14 662.016,1222.08 682.743,1259.46 703.469,1285.77 724.195,1299.09 
  733.065,1300.45 753.791,1295.53 774.517,1280.75 795.244,1256.68 815.97,1224.64 836.696,1186.56 857.423,1144.81 878.149,1102.04 898.875,1060.96 919.602,1024.22 
  940.328,994.221 961.054,973.014 981.781,962.215 990.787,961.088 1011.51,964.531 1032.24,974.915 1052.97,991.896 1073.69,1014.6 1094.42,1041.72 1115.15,1071.59 
  1135.87,1102.35 1156.6,1132.03 1177.32,1158.71 1198.05,1180.62 1218.78,1196.2 1239.5,1204.22 1248.78,1205.09 1269.5,1203.28 1290.23,1197.8 1310.95,1188.79 
  1331.68,1176.65 1352.41,1162.05 1373.13,1145.82 1393.86,1128.97 1414.59,1112.57 1435.31,1097.68 1456.04,1085.34 1476.77,1076.47 1497.49,1071.81 1507.37,1071.25 
  1528.1,1071.25 1548.83,1071.25 1569.55,1071.25 1590.28,1071.25 1611.01,1071.25 1631.73,1071.25 1652.46,1071.25 1673.19,1071.25 1693.91,1071.25 1714.64,1071.25 
  1735.36,1071.25 1756.09,1071.25 1776.82,1071.25 1797.54,1071.25 1818.27,1071.25 1839,1071.25 1859.72,1071.25 1880.45,1071.25 1901.17,1071.25 1921.9,1071.25 
  1942.63,1071.25 1963.35,1071.25 1984.08,1071.25 2004.81,1071.25 2025.53,1071.25 2046.26,1071.25 2066.99,1071.25 2087.71,1071.25 2108.44,1071.25 2129.16,1071.25 
  2149.89,1071.25 2170.62,1071.25 2191.34,1071.25 2212.07,1071.25 2232.8,1071.25 2253.52,1071.25 2274.25,1071.25 2290.58,1071.25 
  "/>
<polyline clip-path="url(#clip182)" style="stroke:#0000ff; stroke-linecap:butt; stroke-linejoin:round; stroke-width:4; stroke-opacity:1; fill:none" stroke-dasharray="16, 10" points="
  217.944,1384.24 217.944,873.255 
  "/>
<polyline clip-path="url(#clip182)" style="stroke:#0000ff; stroke-linecap:butt; stroke-linejoin:round; stroke-width:4; stroke-opacity:1; fill:none" stroke-dasharray="16, 10" points="
  475.479,1384.24 475.479,873.255 
  "/>
<polyline clip-path="url(#clip182)" style="stroke:#0000ff; stroke-linecap:butt; stroke-linejoin:round; stroke-width:4; stroke-opacity:1; fill:none" stroke-dasharray="16, 10" points="
  733.065,1384.24 733.065,873.255 
  "/>
<polyline clip-path="url(#clip182)" style="stroke:#0000ff; stroke-linecap:butt; stroke-linejoin:round; stroke-width:4; stroke-opacity:1; fill:none" stroke-dasharray="16, 10" points="
  990.787,1384.24 990.787,873.255 
  "/>
<polyline clip-path="url(#clip182)" style="stroke:#0000ff; stroke-linecap:butt; stroke-linejoin:round; stroke-width:4; stroke-opacity:1; fill:none" stroke-dasharray="16, 10" points="
  1248.78,1384.24 1248.78,873.255 
  "/>
<polyline clip-path="url(#clip182)" style="stroke:#0000ff; stroke-linecap:butt; stroke-linejoin:round; stroke-width:4; stroke-opacity:1; fill:none" stroke-dasharray="16, 10" points="
  1507.37,1384.24 1507.37,873.255 
  "/>
<polyline clip-path="url(#clip182)" style="stroke:#c68125; stroke-linecap:butt; stroke-linejoin:round; stroke-width:4; stroke-opacity:1; fill:none" stroke-dasharray="16, 10" points="
  217.944,1108.15 217.944,1108.15 218.542,1108.14 222.522,1107.42 231.77,1101.38 248.631,1074.64 265.833,1027.02 286.56,944.955 307.286,840.686 328.012,720.776 
  348.739,592.839 369.465,465.016 390.191,345.447 410.918,241.765 431.644,160.651 452.37,107.519 473.097,86.4172 475.479,86.1857 496.206,98.7771 516.932,136.576 
  537.658,197.952 558.385,279.372 579.111,375.819 599.837,481.219 620.564,588.883 641.29,691.953 662.016,783.836 682.743,858.588 703.469,911.222 724.195,937.859 
  733.065,940.569 753.791,930.744 774.517,901.184 795.244,853.037 815.97,788.953 836.696,712.793 857.423,629.3 878.149,543.75 898.875,461.592 919.602,388.112 
  940.328,328.118 961.054,285.703 981.781,264.105 990.787,261.852 1011.51,268.738 1032.24,289.506 1052.97,323.468 1073.69,368.883 1094.42,423.116 1115.15,482.859 
  1135.87,544.372 1156.6,603.737 1177.32,657.103 1198.05,700.911 1218.78,732.079 1239.5,748.113 1248.78,749.863 1269.5,746.241 1290.23,735.281 1310.95,717.256 
  1331.68,692.984 1352.41,663.771 1373.13,631.319 1393.86,597.618 1414.59,564.806 1435.31,535.039 1456.04,510.366 1476.77,492.611 1497.49,483.29 1507.37,482.167 
  1528.1,482.167 1548.83,482.167 1569.55,482.167 1590.28,482.167 1611.01,482.167 1631.73,482.167 1652.46,482.167 1673.19,482.167 1693.91,482.167 1714.64,482.167 
  1735.36,482.167 1756.09,482.167 1776.82,482.167 1797.54,482.167 1818.27,482.167 1839,482.167 1859.72,482.167 1880.45,482.167 1901.17,482.167 1921.9,482.167 
  1942.63,482.167 1963.35,482.167 1984.08,482.167 2004.81,482.167 2025.53,482.167 2046.26,482.167 2066.99,482.167 2087.71,482.167 2108.44,482.167 2129.16,482.167 
  2149.89,482.167 2170.62,482.167 2191.34,482.167 2212.07,482.167 2232.8,482.167 2253.52,482.167 2274.25,482.167 2290.58,482.167 
  "/>
<polyline clip-path="url(#clip182)" style="stroke:#0000ff; stroke-linecap:butt; stroke-linejoin:round; stroke-width:4; stroke-opacity:1; fill:none" stroke-dasharray="16, 10" points="
  217.944,1108.15 217.944,86.1857 
  "/>
<polyline clip-path="url(#clip182)" style="stroke:#0000ff; stroke-linecap:butt; stroke-linejoin:round; stroke-width:4; stroke-opacity:1; fill:none" stroke-dasharray="16, 10" points="
  475.479,1108.15 475.479,86.1857 
  "/>
<polyline clip-path="url(#clip182)" style="stroke:#0000ff; stroke-linecap:butt; stroke-linejoin:round; stroke-width:4; stroke-opacity:1; fill:none" stroke-dasharray="16, 10" points="
  733.065,1108.15 733.065,86.1857 
  "/>
<polyline clip-path="url(#clip182)" style="stroke:#0000ff; stroke-linecap:butt; stroke-linejoin:round; stroke-width:4; stroke-opacity:1; fill:none" stroke-dasharray="16, 10" points="
  990.787,1108.15 990.787,86.1857 
  "/>
<polyline clip-path="url(#clip182)" style="stroke:#0000ff; stroke-linecap:butt; stroke-linejoin:round; stroke-width:4; stroke-opacity:1; fill:none" stroke-dasharray="16, 10" points="
  1248.78,1108.15 1248.78,86.1857 
  "/>
<polyline clip-path="url(#clip182)" style="stroke:#0000ff; stroke-linecap:butt; stroke-linejoin:round; stroke-width:4; stroke-opacity:1; fill:none" stroke-dasharray="16, 10" points="
  1507.37,1108.15 1507.37,86.1857 
  "/>
<path clip-path="url(#clip180)" d="
M1586.04 352.309 L2279.52 352.309 L2279.52 93.1086 L1586.04 93.1086  Z
  " fill="#ffffff" fill-rule="evenodd" fill-opacity="1"/>
<polyline clip-path="url(#clip180)" style="stroke:#000000; stroke-linecap:butt; stroke-linejoin:round; stroke-width:4; stroke-opacity:1; fill:none" points="
  1586.04,352.309 2279.52,352.309 2279.52,93.1086 1586.04,93.1086 1586.04,352.309 
  "/>
<polyline clip-path="url(#clip180)" style="stroke:#009af9; stroke-linecap:butt; stroke-linejoin:round; stroke-width:4; stroke-opacity:1; fill:none" points="
  1610.45,144.949 1756.92,144.949 
  "/>
<path clip-path="url(#clip180)" d="M1801.68 141.28 Q1803.27 138.409 1805.49 137.044 Q1807.72 135.678 1810.73 135.678 Q1814.78 135.678 1816.98 138.525 Q1819.18 141.349 1819.18 146.581 L1819.18 162.229 L1814.89 162.229 L1814.89 146.719 Q1814.89 142.993 1813.57 141.187 Q1812.25 139.382 1809.55 139.382 Q1806.24 139.382 1804.31 141.581 Q1802.39 143.78 1802.39 147.576 L1802.39 162.229 L1798.11 162.229 L1798.11 146.719 Q1798.11 142.969 1796.79 141.187 Q1795.47 139.382 1792.72 139.382 Q1789.45 139.382 1787.53 141.604 Q1785.61 143.803 1785.61 147.576 L1785.61 162.229 L1781.33 162.229 L1781.33 136.303 L1785.61 136.303 L1785.61 140.331 Q1787.07 137.946 1789.11 136.812 Q1791.14 135.678 1793.94 135.678 Q1796.77 135.678 1798.74 137.113 Q1800.73 138.548 1801.68 141.28 Z" fill="#000000" fill-rule="evenodd" fill-opacity="1" /><path clip-path="url(#clip180)" d="M1839.45 149.196 Q1834.29 149.196 1832.3 150.377 Q1830.31 151.557 1830.31 154.405 Q1830.31 156.673 1831.79 158.016 Q1833.3 159.335 1835.87 159.335 Q1839.41 159.335 1841.54 156.835 Q1843.69 154.312 1843.69 150.145 L1843.69 149.196 L1839.45 149.196 M1847.95 147.437 L1847.95 162.229 L1843.69 162.229 L1843.69 158.293 Q1842.23 160.655 1840.05 161.789 Q1837.88 162.9 1834.73 162.9 Q1830.75 162.9 1828.39 160.678 Q1826.05 158.432 1826.05 154.682 Q1826.05 150.307 1828.97 148.085 Q1831.91 145.863 1837.72 145.863 L1843.69 145.863 L1843.69 145.446 Q1843.69 142.507 1841.74 140.909 Q1839.82 139.289 1836.33 139.289 Q1834.11 139.289 1832 139.821 Q1829.89 140.354 1827.95 141.419 L1827.95 137.483 Q1830.29 136.581 1832.49 136.141 Q1834.68 135.678 1836.77 135.678 Q1842.39 135.678 1845.17 138.594 Q1847.95 141.511 1847.95 147.437 Z" fill="#000000" fill-rule="evenodd" fill-opacity="1" /><path clip-path="url(#clip180)" d="M1873.25 137.067 L1873.25 141.094 Q1871.44 140.169 1869.5 139.706 Q1867.55 139.243 1865.47 139.243 Q1862.3 139.243 1860.7 140.215 Q1859.13 141.187 1859.13 143.131 Q1859.13 144.613 1860.26 145.469 Q1861.4 146.303 1864.82 147.067 L1866.28 147.391 Q1870.82 148.363 1872.72 150.145 Q1874.64 151.905 1874.64 155.076 Q1874.64 158.687 1871.77 160.793 Q1868.92 162.9 1863.92 162.9 Q1861.84 162.9 1859.57 162.483 Q1857.32 162.09 1854.82 161.28 L1854.82 156.881 Q1857.18 158.108 1859.48 158.733 Q1861.77 159.335 1864.01 159.335 Q1867.02 159.335 1868.64 158.317 Q1870.26 157.275 1870.26 155.4 Q1870.26 153.664 1869.08 152.738 Q1867.93 151.812 1863.97 150.956 L1862.49 150.608 Q1858.53 149.775 1856.77 148.062 Q1855.01 146.326 1855.01 143.317 Q1855.01 139.659 1857.6 137.669 Q1860.19 135.678 1864.96 135.678 Q1867.32 135.678 1869.41 136.025 Q1871.49 136.372 1873.25 137.067 Z" fill="#000000" fill-rule="evenodd" fill-opacity="1" /><path clip-path="url(#clip180)" d="M1897.95 137.067 L1897.95 141.094 Q1896.14 140.169 1894.2 139.706 Q1892.25 139.243 1890.17 139.243 Q1887 139.243 1885.4 140.215 Q1883.83 141.187 1883.83 143.131 Q1883.83 144.613 1884.96 145.469 Q1886.1 146.303 1889.52 147.067 L1890.98 147.391 Q1895.52 148.363 1897.42 150.145 Q1899.34 151.905 1899.34 155.076 Q1899.34 158.687 1896.47 160.793 Q1893.62 162.9 1888.62 162.9 Q1886.54 162.9 1884.27 162.483 Q1882.02 162.09 1879.52 161.28 L1879.52 156.881 Q1881.88 158.108 1884.17 158.733 Q1886.47 159.335 1888.71 159.335 Q1891.72 159.335 1893.34 158.317 Q1894.96 157.275 1894.96 155.4 Q1894.96 153.664 1893.78 152.738 Q1892.62 151.812 1888.67 150.956 L1887.18 150.608 Q1883.23 149.775 1881.47 148.062 Q1879.71 146.326 1879.71 143.317 Q1879.71 139.659 1882.3 137.669 Q1884.89 135.678 1889.66 135.678 Q1892.02 135.678 1894.11 136.025 Q1896.19 136.372 1897.95 137.067 Z" fill="#000000" fill-rule="evenodd" fill-opacity="1" /><path clip-path="url(#clip180)" d="M1906.72 156.349 L1911.61 156.349 L1911.61 162.229 L1906.72 162.229 L1906.72 156.349 Z" fill="#000000" fill-rule="evenodd" fill-opacity="1" /><path clip-path="url(#clip180)" d="M1937.72 137.067 L1937.72 141.094 Q1935.91 140.169 1933.97 139.706 Q1932.02 139.243 1929.94 139.243 Q1926.77 139.243 1925.17 140.215 Q1923.6 141.187 1923.6 143.131 Q1923.6 144.613 1924.73 145.469 Q1925.86 146.303 1929.29 147.067 L1930.75 147.391 Q1935.29 148.363 1937.18 150.145 Q1939.11 151.905 1939.11 155.076 Q1939.11 158.687 1936.23 160.793 Q1933.39 162.9 1928.39 162.9 Q1926.3 162.9 1924.04 162.483 Q1921.79 162.09 1919.29 161.28 L1919.29 156.881 Q1921.65 158.108 1923.94 158.733 Q1926.23 159.335 1928.48 159.335 Q1931.49 159.335 1933.11 158.317 Q1934.73 157.275 1934.73 155.4 Q1934.73 153.664 1933.55 152.738 Q1932.39 151.812 1928.43 150.956 L1926.95 150.608 Q1922.99 149.775 1921.23 148.062 Q1919.48 146.326 1919.48 143.317 Q1919.48 139.659 1922.07 137.669 Q1924.66 135.678 1929.43 135.678 Q1931.79 135.678 1933.87 136.025 Q1935.96 136.372 1937.72 137.067 Z" fill="#000000" fill-rule="evenodd" fill-opacity="1" /><path clip-path="url(#clip180)" d="M1971.19 126.257 Q1968.09 131.581 1966.58 136.789 Q1965.08 141.997 1965.08 147.344 Q1965.08 152.692 1966.58 157.946 Q1968.11 163.178 1971.19 168.479 L1967.48 168.479 Q1964.01 163.039 1962.28 157.784 Q1960.56 152.53 1960.56 147.344 Q1960.56 142.182 1962.28 136.951 Q1963.99 131.72 1967.48 126.257 L1971.19 126.257 Z" fill="#000000" fill-rule="evenodd" fill-opacity="1" /><path clip-path="url(#clip180)" d="M1994.22 143.594 Q1997.58 144.312 1999.45 146.581 Q2001.35 148.849 2001.35 152.182 Q2001.35 157.298 1997.83 160.099 Q1994.31 162.9 1987.83 162.9 Q1985.66 162.9 1983.34 162.46 Q1981.05 162.043 1978.6 161.187 L1978.6 156.673 Q1980.54 157.807 1982.85 158.386 Q1985.17 158.965 1987.69 158.965 Q1992.09 158.965 1994.38 157.229 Q1996.7 155.493 1996.7 152.182 Q1996.7 149.127 1994.54 147.414 Q1992.42 145.678 1988.6 145.678 L1984.57 145.678 L1984.57 141.835 L1988.78 141.835 Q1992.23 141.835 1994.06 140.469 Q1995.89 139.081 1995.89 136.488 Q1995.89 133.826 1993.99 132.414 Q1992.11 130.979 1988.6 130.979 Q1986.67 130.979 1984.48 131.395 Q1982.28 131.812 1979.64 132.692 L1979.64 128.525 Q1982.3 127.784 1984.61 127.414 Q1986.95 127.044 1989.01 127.044 Q1994.34 127.044 1997.44 129.474 Q2000.54 131.882 2000.54 136.002 Q2000.54 138.872 1998.9 140.863 Q1997.25 142.831 1994.22 143.594 Z" fill="#000000" fill-rule="evenodd" fill-opacity="1" /><path clip-path="url(#clip180)" d="M2024.38 143.594 Q2027.74 144.312 2029.61 146.581 Q2031.51 148.849 2031.51 152.182 Q2031.51 157.298 2027.99 160.099 Q2024.48 162.9 2017.99 162.9 Q2015.82 162.9 2013.5 162.46 Q2011.21 162.043 2008.76 161.187 L2008.76 156.673 Q2010.7 157.807 2013.02 158.386 Q2015.33 158.965 2017.85 158.965 Q2022.25 158.965 2024.54 157.229 Q2026.86 155.493 2026.86 152.182 Q2026.86 149.127 2024.71 147.414 Q2022.58 145.678 2018.76 145.678 L2014.73 145.678 L2014.73 141.835 L2018.94 141.835 Q2022.39 141.835 2024.22 140.469 Q2026.05 139.081 2026.05 136.488 Q2026.05 133.826 2024.15 132.414 Q2022.28 130.979 2018.76 130.979 Q2016.84 130.979 2014.64 131.395 Q2012.44 131.812 2009.8 132.692 L2009.8 128.525 Q2012.46 127.784 2014.78 127.414 Q2017.11 127.044 2019.17 127.044 Q2024.5 127.044 2027.6 129.474 Q2030.7 131.882 2030.7 136.002 Q2030.7 138.872 2029.06 140.863 Q2027.41 142.831 2024.38 143.594 Z" fill="#000000" fill-rule="evenodd" fill-opacity="1" /><path clip-path="url(#clip180)" d="M2040.42 127.669 L2058.78 127.669 L2058.78 131.604 L2044.71 131.604 L2044.71 140.076 Q2045.72 139.729 2046.74 139.567 Q2047.76 139.382 2048.78 139.382 Q2054.57 139.382 2057.95 142.553 Q2061.33 145.724 2061.33 151.141 Q2061.33 156.719 2057.85 159.821 Q2054.38 162.9 2048.06 162.9 Q2045.89 162.9 2043.62 162.53 Q2041.37 162.159 2038.97 161.418 L2038.97 156.719 Q2041.05 157.854 2043.27 158.409 Q2045.49 158.965 2047.97 158.965 Q2051.97 158.965 2054.31 156.858 Q2056.65 154.752 2056.65 151.141 Q2056.65 147.53 2054.31 145.423 Q2051.97 143.317 2047.97 143.317 Q2046.1 143.317 2044.22 143.733 Q2042.37 144.15 2040.42 145.03 L2040.42 127.669 Z" fill="#000000" fill-rule="evenodd" fill-opacity="1" /><path clip-path="url(#clip180)" d="M2070.59 127.669 L2088.94 127.669 L2088.94 131.604 L2074.87 131.604 L2074.87 140.076 Q2075.89 139.729 2076.91 139.567 Q2077.92 139.382 2078.94 139.382 Q2084.73 139.382 2088.11 142.553 Q2091.49 145.724 2091.49 151.141 Q2091.49 156.719 2088.02 159.821 Q2084.54 162.9 2078.22 162.9 Q2076.05 162.9 2073.78 162.53 Q2071.54 162.159 2069.13 161.418 L2069.13 156.719 Q2071.21 157.854 2073.43 158.409 Q2075.66 158.965 2078.13 158.965 Q2082.14 158.965 2084.47 156.858 Q2086.81 154.752 2086.81 151.141 Q2086.81 147.53 2084.47 145.423 Q2082.14 143.317 2078.13 143.317 Q2076.26 143.317 2074.38 143.733 Q2072.53 144.15 2070.59 145.03 L2070.59 127.669 Z" fill="#000000" fill-rule="evenodd" fill-opacity="1" /><path clip-path="url(#clip180)" d="M2113.55 131.743 L2101.74 150.192 L2113.55 150.192 L2113.55 131.743 M2112.32 127.669 L2118.2 127.669 L2118.2 150.192 L2123.13 150.192 L2123.13 154.081 L2118.2 154.081 L2118.2 162.229 L2113.55 162.229 L2113.55 154.081 L2097.95 154.081 L2097.95 149.567 L2112.32 127.669 Z" fill="#000000" fill-rule="evenodd" fill-opacity="1" /><path clip-path="url(#clip180)" d="M2143.71 131.743 L2131.91 150.192 L2143.71 150.192 L2143.71 131.743 M2142.48 127.669 L2148.36 127.669 L2148.36 150.192 L2153.29 150.192 L2153.29 154.081 L2148.36 154.081 L2148.36 162.229 L2143.71 162.229 L2143.71 154.081 L2128.11 154.081 L2128.11 149.567 L2142.48 127.669 Z" fill="#000000" fill-rule="evenodd" fill-opacity="1" /><path clip-path="url(#clip180)" d="M2175.19 143.594 Q2178.55 144.312 2180.42 146.581 Q2182.32 148.849 2182.32 152.182 Q2182.32 157.298 2178.8 160.099 Q2175.28 162.9 2168.8 162.9 Q2166.63 162.9 2164.31 162.46 Q2162.02 162.043 2159.57 161.187 L2159.57 156.673 Q2161.51 157.807 2163.83 158.386 Q2166.14 158.965 2168.66 158.965 Q2173.06 158.965 2175.35 157.229 Q2177.67 155.493 2177.67 152.182 Q2177.67 149.127 2175.52 147.414 Q2173.39 145.678 2169.57 145.678 L2165.54 145.678 L2165.54 141.835 L2169.75 141.835 Q2173.2 141.835 2175.03 140.469 Q2176.86 139.081 2176.86 136.488 Q2176.86 133.826 2174.96 132.414 Q2173.09 130.979 2169.57 130.979 Q2167.65 130.979 2165.45 131.395 Q2163.25 131.812 2160.61 132.692 L2160.61 128.525 Q2163.27 127.784 2165.59 127.414 Q2167.92 127.044 2169.98 127.044 Q2175.31 127.044 2178.41 129.474 Q2181.51 131.882 2181.51 136.002 Q2181.51 138.872 2179.87 140.863 Q2178.22 142.831 2175.19 143.594 Z" fill="#000000" fill-rule="evenodd" fill-opacity="1" /><path clip-path="url(#clip180)" d="M2195.21 158.293 L2211.53 158.293 L2211.53 162.229 L2189.59 162.229 L2189.59 158.293 Q2192.25 155.539 2196.84 150.909 Q2201.44 146.256 2202.62 144.914 Q2204.87 142.391 2205.75 140.655 Q2206.65 138.895 2206.65 137.206 Q2206.65 134.451 2204.71 132.715 Q2202.78 130.979 2199.68 130.979 Q2197.48 130.979 2195.03 131.743 Q2192.6 132.507 2189.82 134.057 L2189.82 129.335 Q2192.65 128.201 2195.1 127.622 Q2197.55 127.044 2199.59 127.044 Q2204.96 127.044 2208.15 129.729 Q2211.35 132.414 2211.35 136.905 Q2211.35 139.034 2210.54 140.956 Q2209.75 142.854 2207.65 145.446 Q2207.07 146.118 2203.96 149.335 Q2200.86 152.53 2195.21 158.293 Z" fill="#000000" fill-rule="evenodd" fill-opacity="1" /><path clip-path="url(#clip180)" d="M2220.08 126.257 L2223.78 126.257 Q2227.25 131.72 2228.96 136.951 Q2230.7 142.182 2230.7 147.344 Q2230.7 152.53 2228.96 157.784 Q2227.25 163.039 2223.78 168.479 L2220.08 168.479 Q2223.15 163.178 2224.66 157.946 Q2226.19 152.692 2226.19 147.344 Q2226.19 141.997 2224.66 136.789 Q2223.15 131.581 2220.08 126.257 Z" fill="#000000" fill-rule="evenodd" fill-opacity="1" /><polyline clip-path="url(#clip180)" style="stroke:#0000ff; stroke-linecap:butt; stroke-linejoin:round; stroke-width:4; stroke-opacity:1; fill:none" stroke-dasharray="16, 10" points="
  1610.45,196.789 1756.92,196.789 
  "/>
<path clip-path="url(#clip180)" d="M1803.57 180.643 L1803.57 185.203 Q1800.91 183.93 1798.55 183.305 Q1796.19 182.68 1793.99 182.68 Q1790.17 182.68 1788.09 184.161 Q1786.03 185.643 1786.03 188.374 Q1786.03 190.666 1787.39 191.847 Q1788.78 193.004 1792.62 193.722 L1795.45 194.3 Q1800.68 195.296 1803.16 197.819 Q1805.66 200.319 1805.66 204.532 Q1805.66 209.555 1802.28 212.147 Q1798.92 214.74 1792.42 214.74 Q1789.96 214.74 1787.18 214.184 Q1784.43 213.629 1781.47 212.541 L1781.47 207.726 Q1784.31 209.323 1787.05 210.133 Q1789.78 210.944 1792.42 210.944 Q1796.42 210.944 1798.6 209.37 Q1800.77 207.796 1800.77 204.879 Q1800.77 202.333 1799.2 200.897 Q1797.65 199.462 1794.08 198.745 L1791.24 198.189 Q1786 197.147 1783.67 194.925 Q1781.33 192.703 1781.33 188.745 Q1781.33 184.161 1784.55 181.522 Q1787.79 178.884 1793.46 178.884 Q1795.89 178.884 1798.41 179.323 Q1800.93 179.763 1803.57 180.643 Z" fill="#000000" fill-rule="evenodd" fill-opacity="1" /><path clip-path="url(#clip180)" d="M1816.98 180.782 L1816.98 188.143 L1825.75 188.143 L1825.75 191.453 L1816.98 191.453 L1816.98 205.527 Q1816.98 208.698 1817.83 209.601 Q1818.71 210.504 1821.37 210.504 L1825.75 210.504 L1825.75 214.069 L1821.37 214.069 Q1816.44 214.069 1814.57 212.24 Q1812.69 210.388 1812.69 205.527 L1812.69 191.453 L1809.57 191.453 L1809.57 188.143 L1812.69 188.143 L1812.69 180.782 L1816.98 180.782 Z" fill="#000000" fill-rule="evenodd" fill-opacity="1" /><path clip-path="url(#clip180)" d="M1843.13 201.036 Q1837.97 201.036 1835.98 202.217 Q1833.99 203.397 1833.99 206.245 Q1833.99 208.513 1835.47 209.856 Q1836.98 211.175 1839.55 211.175 Q1843.09 211.175 1845.22 208.675 Q1847.37 206.152 1847.37 201.985 L1847.37 201.036 L1843.13 201.036 M1851.63 199.277 L1851.63 214.069 L1847.37 214.069 L1847.37 210.133 Q1845.91 212.495 1843.74 213.629 Q1841.56 214.74 1838.41 214.74 Q1834.43 214.74 1832.07 212.518 Q1829.73 210.272 1829.73 206.522 Q1829.73 202.147 1832.65 199.925 Q1835.59 197.703 1841.4 197.703 L1847.37 197.703 L1847.37 197.286 Q1847.37 194.347 1845.43 192.749 Q1843.5 191.129 1840.01 191.129 Q1837.79 191.129 1835.68 191.661 Q1833.57 192.194 1831.63 193.259 L1831.63 189.323 Q1833.97 188.421 1836.17 187.981 Q1838.36 187.518 1840.45 187.518 Q1846.07 187.518 1848.85 190.434 Q1851.63 193.351 1851.63 199.277 Z" fill="#000000" fill-rule="evenodd" fill-opacity="1" /><path clip-path="url(#clip180)" d="M1864.61 180.782 L1864.61 188.143 L1873.39 188.143 L1873.39 191.453 L1864.61 191.453 L1864.61 205.527 Q1864.61 208.698 1865.47 209.601 Q1866.35 210.504 1869.01 210.504 L1873.39 210.504 L1873.39 214.069 L1869.01 214.069 Q1864.08 214.069 1862.21 212.24 Q1860.33 210.388 1860.33 205.527 L1860.33 191.453 L1857.21 191.453 L1857.21 188.143 L1860.33 188.143 L1860.33 180.782 L1864.61 180.782 Z" fill="#000000" fill-rule="evenodd" fill-opacity="1" /><path clip-path="url(#clip180)" d="M1901.17 200.041 L1901.17 202.124 L1881.58 202.124 Q1881.86 206.522 1884.22 208.837 Q1886.61 211.129 1890.84 211.129 Q1893.3 211.129 1895.59 210.527 Q1897.9 209.925 1900.17 208.721 L1900.17 212.749 Q1897.88 213.721 1895.47 214.231 Q1893.06 214.74 1890.59 214.74 Q1884.38 214.74 1880.75 211.129 Q1877.14 207.518 1877.14 201.36 Q1877.14 194.995 1880.56 191.268 Q1884.01 187.518 1889.85 187.518 Q1895.08 187.518 1898.11 190.897 Q1901.17 194.254 1901.17 200.041 M1896.91 198.791 Q1896.86 195.296 1894.94 193.212 Q1893.04 191.129 1889.89 191.129 Q1886.33 191.129 1884.17 193.143 Q1882.05 195.157 1881.72 198.814 L1896.91 198.791 Z" fill="#000000" fill-rule="evenodd" fill-opacity="1" /><path clip-path="url(#clip180)" d="M1945.4 200.041 L1945.4 202.124 L1925.82 202.124 Q1926.1 206.522 1928.46 208.837 Q1930.84 211.129 1935.08 211.129 Q1937.53 211.129 1939.82 210.527 Q1942.14 209.925 1944.41 208.721 L1944.41 212.749 Q1942.11 213.721 1939.71 214.231 Q1937.3 214.74 1934.82 214.74 Q1928.62 214.74 1924.98 211.129 Q1921.37 207.518 1921.37 201.36 Q1921.37 194.995 1924.8 191.268 Q1928.25 187.518 1934.08 187.518 Q1939.31 187.518 1942.35 190.897 Q1945.4 194.254 1945.4 200.041 M1941.14 198.791 Q1941.1 195.296 1939.17 193.212 Q1937.28 191.129 1934.13 191.129 Q1930.56 191.129 1928.41 193.143 Q1926.28 195.157 1925.96 198.814 L1941.14 198.791 Z" fill="#000000" fill-rule="evenodd" fill-opacity="1" /><path clip-path="url(#clip180)" d="M1949.34 188.143 L1953.85 188.143 L1961.95 209.902 L1970.05 188.143 L1974.57 188.143 L1964.85 214.069 L1959.06 214.069 L1949.34 188.143 Z" fill="#000000" fill-rule="evenodd" fill-opacity="1" /><path clip-path="url(#clip180)" d="M2002.62 200.041 L2002.62 202.124 L1983.04 202.124 Q1983.32 206.522 1985.68 208.837 Q1988.06 211.129 1992.3 211.129 Q1994.75 211.129 1997.04 210.527 Q1999.36 209.925 2001.63 208.721 L2001.63 212.749 Q1999.34 213.721 1996.93 214.231 Q1994.52 214.74 1992.04 214.74 Q1985.84 214.74 1982.21 211.129 Q1978.6 207.518 1978.6 201.36 Q1978.6 194.995 1982.02 191.268 Q1985.47 187.518 1991.3 187.518 Q1996.54 187.518 1999.57 190.897 Q2002.62 194.254 2002.62 200.041 M1998.36 198.791 Q1998.32 195.296 1996.4 193.212 Q1994.5 191.129 1991.35 191.129 Q1987.79 191.129 1985.63 193.143 Q1983.5 195.157 1983.18 198.814 L1998.36 198.791 Z" fill="#000000" fill-rule="evenodd" fill-opacity="1" /><path clip-path="url(#clip180)" d="M2031.16 198.421 L2031.16 214.069 L2026.91 214.069 L2026.91 198.559 Q2026.91 194.879 2025.47 193.05 Q2024.04 191.222 2021.16 191.222 Q2017.72 191.222 2015.73 193.421 Q2013.73 195.62 2013.73 199.416 L2013.73 214.069 L2009.45 214.069 L2009.45 188.143 L2013.73 188.143 L2013.73 192.171 Q2015.26 189.833 2017.32 188.675 Q2019.41 187.518 2022.11 187.518 Q2026.58 187.518 2028.87 190.296 Q2031.16 193.05 2031.16 198.421 Z" fill="#000000" fill-rule="evenodd" fill-opacity="1" /><path clip-path="url(#clip180)" d="M2043.87 180.782 L2043.87 188.143 L2052.65 188.143 L2052.65 191.453 L2043.87 191.453 L2043.87 205.527 Q2043.87 208.698 2044.73 209.601 Q2045.61 210.504 2048.27 210.504 L2052.65 210.504 L2052.65 214.069 L2048.27 214.069 Q2043.34 214.069 2041.47 212.24 Q2039.59 210.388 2039.59 205.527 L2039.59 191.453 L2036.47 191.453 L2036.47 188.143 L2039.59 188.143 L2039.59 180.782 L2043.87 180.782 Z" fill="#000000" fill-rule="evenodd" fill-opacity="1" /><path clip-path="url(#clip180)" d="M2068.48 178.097 Q2065.38 183.421 2063.87 188.629 Q2062.37 193.837 2062.37 199.184 Q2062.37 204.532 2063.87 209.786 Q2065.4 215.018 2068.48 220.319 L2064.78 220.319 Q2061.3 214.879 2059.57 209.624 Q2057.85 204.37 2057.85 199.184 Q2057.85 194.022 2059.57 188.791 Q2061.28 183.56 2064.78 178.097 L2068.48 178.097 Z" fill="#000000" fill-rule="evenodd" fill-opacity="1" /><path clip-path="url(#clip180)" d="M2093.27 188.907 L2093.27 192.934 Q2091.47 192.009 2089.52 191.546 Q2087.58 191.083 2085.49 191.083 Q2082.32 191.083 2080.72 192.055 Q2079.15 193.027 2079.15 194.971 Q2079.15 196.453 2080.28 197.309 Q2081.42 198.143 2084.85 198.907 L2086.3 199.231 Q2090.84 200.203 2092.74 201.985 Q2094.66 203.745 2094.66 206.916 Q2094.66 210.527 2091.79 212.633 Q2088.94 214.74 2083.94 214.74 Q2081.86 214.74 2079.59 214.323 Q2077.35 213.93 2074.85 213.12 L2074.85 208.721 Q2077.21 209.948 2079.5 210.573 Q2081.79 211.175 2084.03 211.175 Q2087.04 211.175 2088.66 210.157 Q2090.28 209.115 2090.28 207.24 Q2090.28 205.504 2089.1 204.578 Q2087.95 203.652 2083.99 202.796 L2082.51 202.448 Q2078.55 201.615 2076.79 199.902 Q2075.03 198.166 2075.03 195.157 Q2075.03 191.499 2077.62 189.509 Q2080.22 187.518 2084.98 187.518 Q2087.35 187.518 2089.43 187.865 Q2091.51 188.212 2093.27 188.907 Z" fill="#000000" fill-rule="evenodd" fill-opacity="1" /><path clip-path="url(#clip180)" d="M2100.77 178.097 L2104.47 178.097 Q2107.95 183.56 2109.66 188.791 Q2111.4 194.022 2111.4 199.184 Q2111.4 204.37 2109.66 209.624 Q2107.95 214.879 2104.47 220.319 L2100.77 220.319 Q2103.85 215.018 2105.35 209.786 Q2106.88 204.532 2106.88 199.184 Q2106.88 193.837 2105.35 188.629 Q2103.85 183.421 2100.77 178.097 Z" fill="#000000" fill-rule="evenodd" fill-opacity="1" /><polyline clip-path="url(#clip180)" style="stroke:#c68125; stroke-linecap:butt; stroke-linejoin:round; stroke-width:4; stroke-opacity:1; fill:none" stroke-dasharray="16, 10" points="
  1610.45,248.629 1756.92,248.629 
  "/>
<path clip-path="url(#clip180)" d="M1801.68 244.96 Q1803.27 242.089 1805.49 240.724 Q1807.72 239.358 1810.73 239.358 Q1814.78 239.358 1816.98 242.205 Q1819.18 245.029 1819.18 250.261 L1819.18 265.909 L1814.89 265.909 L1814.89 250.399 Q1814.89 246.673 1813.57 244.867 Q1812.25 243.062 1809.55 243.062 Q1806.24 243.062 1804.31 245.261 Q1802.39 247.46 1802.39 251.256 L1802.39 265.909 L1798.11 265.909 L1798.11 250.399 Q1798.11 246.649 1796.79 244.867 Q1795.47 243.062 1792.72 243.062 Q1789.45 243.062 1787.53 245.284 Q1785.61 247.483 1785.61 251.256 L1785.61 265.909 L1781.33 265.909 L1781.33 239.983 L1785.61 239.983 L1785.61 244.011 Q1787.07 241.626 1789.11 240.492 Q1791.14 239.358 1793.94 239.358 Q1796.77 239.358 1798.74 240.793 Q1800.73 242.228 1801.68 244.96 Z" fill="#000000" fill-rule="evenodd" fill-opacity="1" /><path clip-path="url(#clip180)" d="M1839.45 252.876 Q1834.29 252.876 1832.3 254.057 Q1830.31 255.237 1830.31 258.085 Q1830.31 260.353 1831.79 261.696 Q1833.3 263.015 1835.87 263.015 Q1839.41 263.015 1841.54 260.515 Q1843.69 257.992 1843.69 253.825 L1843.69 252.876 L1839.45 252.876 M1847.95 251.117 L1847.95 265.909 L1843.69 265.909 L1843.69 261.973 Q1842.23 264.335 1840.05 265.469 Q1837.88 266.58 1834.73 266.58 Q1830.75 266.58 1828.39 264.358 Q1826.05 262.112 1826.05 258.362 Q1826.05 253.987 1828.97 251.765 Q1831.91 249.543 1837.72 249.543 L1843.69 249.543 L1843.69 249.126 Q1843.69 246.187 1841.74 244.589 Q1839.82 242.969 1836.33 242.969 Q1834.11 242.969 1832 243.501 Q1829.89 244.034 1827.95 245.099 L1827.95 241.163 Q1830.29 240.261 1832.49 239.821 Q1834.68 239.358 1836.77 239.358 Q1842.39 239.358 1845.17 242.274 Q1847.95 245.191 1847.95 251.117 Z" fill="#000000" fill-rule="evenodd" fill-opacity="1" /><path clip-path="url(#clip180)" d="M1873.25 240.747 L1873.25 244.774 Q1871.44 243.849 1869.5 243.386 Q1867.55 242.923 1865.47 242.923 Q1862.3 242.923 1860.7 243.895 Q1859.13 244.867 1859.13 246.811 Q1859.13 248.293 1860.26 249.149 Q1861.4 249.983 1864.82 250.747 L1866.28 251.071 Q1870.82 252.043 1872.72 253.825 Q1874.64 255.585 1874.64 258.756 Q1874.64 262.367 1871.77 264.473 Q1868.92 266.58 1863.92 266.58 Q1861.84 266.58 1859.57 266.163 Q1857.32 265.77 1854.82 264.96 L1854.82 260.561 Q1857.18 261.788 1859.48 262.413 Q1861.77 263.015 1864.01 263.015 Q1867.02 263.015 1868.64 261.997 Q1870.26 260.955 1870.26 259.08 Q1870.26 257.344 1869.08 256.418 Q1867.93 255.492 1863.97 254.636 L1862.49 254.288 Q1858.53 253.455 1856.77 251.742 Q1855.01 250.006 1855.01 246.997 Q1855.01 243.339 1857.6 241.349 Q1860.19 239.358 1864.96 239.358 Q1867.32 239.358 1869.41 239.705 Q1871.49 240.052 1873.25 240.747 Z" fill="#000000" fill-rule="evenodd" fill-opacity="1" /><path clip-path="url(#clip180)" d="M1897.95 240.747 L1897.95 244.774 Q1896.14 243.849 1894.2 243.386 Q1892.25 242.923 1890.17 242.923 Q1887 242.923 1885.4 243.895 Q1883.83 244.867 1883.83 246.811 Q1883.83 248.293 1884.96 249.149 Q1886.1 249.983 1889.52 250.747 L1890.98 251.071 Q1895.52 252.043 1897.42 253.825 Q1899.34 255.585 1899.34 258.756 Q1899.34 262.367 1896.47 264.473 Q1893.62 266.58 1888.62 266.58 Q1886.54 266.58 1884.27 266.163 Q1882.02 265.77 1879.52 264.96 L1879.52 260.561 Q1881.88 261.788 1884.17 262.413 Q1886.47 263.015 1888.71 263.015 Q1891.72 263.015 1893.34 261.997 Q1894.96 260.955 1894.96 259.08 Q1894.96 257.344 1893.78 256.418 Q1892.62 255.492 1888.67 254.636 L1887.18 254.288 Q1883.23 253.455 1881.47 251.742 Q1879.71 250.006 1879.71 246.997 Q1879.71 243.339 1882.3 241.349 Q1884.89 239.358 1889.66 239.358 Q1892.02 239.358 1894.11 239.705 Q1896.19 240.052 1897.95 240.747 Z" fill="#000000" fill-rule="evenodd" fill-opacity="1" /><path clip-path="url(#clip180)" d="M1906.72 260.029 L1911.61 260.029 L1911.61 265.909 L1906.72 265.909 L1906.72 260.029 Z" fill="#000000" fill-rule="evenodd" fill-opacity="1" /><path clip-path="url(#clip180)" d="M1937.72 240.747 L1937.72 244.774 Q1935.91 243.849 1933.97 243.386 Q1932.02 242.923 1929.94 242.923 Q1926.77 242.923 1925.17 243.895 Q1923.6 244.867 1923.6 246.811 Q1923.6 248.293 1924.73 249.149 Q1925.86 249.983 1929.29 250.747 L1930.75 251.071 Q1935.29 252.043 1937.18 253.825 Q1939.11 255.585 1939.11 258.756 Q1939.11 262.367 1936.23 264.473 Q1933.39 266.58 1928.39 266.58 Q1926.3 266.58 1924.04 266.163 Q1921.79 265.77 1919.29 264.96 L1919.29 260.561 Q1921.65 261.788 1923.94 262.413 Q1926.23 263.015 1928.48 263.015 Q1931.49 263.015 1933.11 261.997 Q1934.73 260.955 1934.73 259.08 Q1934.73 257.344 1933.55 256.418 Q1932.39 255.492 1928.43 254.636 L1926.95 254.288 Q1922.99 253.455 1921.23 251.742 Q1919.48 250.006 1919.48 246.997 Q1919.48 243.339 1922.07 241.349 Q1924.66 239.358 1929.43 239.358 Q1931.79 239.358 1933.87 239.705 Q1935.96 240.052 1937.72 240.747 Z" fill="#000000" fill-rule="evenodd" fill-opacity="1" /><path clip-path="url(#clip180)" d="M1971.19 229.937 Q1968.09 235.261 1966.58 240.469 Q1965.08 245.677 1965.08 251.024 Q1965.08 256.372 1966.58 261.626 Q1968.11 266.858 1971.19 272.159 L1967.48 272.159 Q1964.01 266.719 1962.28 261.464 Q1960.56 256.21 1960.56 251.024 Q1960.56 245.862 1962.28 240.631 Q1963.99 235.4 1967.48 229.937 L1971.19 229.937 Z" fill="#000000" fill-rule="evenodd" fill-opacity="1" /><path clip-path="url(#clip180)" d="M1994.22 247.274 Q1997.58 247.992 1999.45 250.261 Q2001.35 252.529 2001.35 255.862 Q2001.35 260.978 1997.83 263.779 Q1994.31 266.58 1987.83 266.58 Q1985.66 266.58 1983.34 266.14 Q1981.05 265.723 1978.6 264.867 L1978.6 260.353 Q1980.54 261.487 1982.85 262.066 Q1985.17 262.645 1987.69 262.645 Q1992.09 262.645 1994.38 260.909 Q1996.7 259.173 1996.7 255.862 Q1996.7 252.807 1994.54 251.094 Q1992.42 249.358 1988.6 249.358 L1984.57 249.358 L1984.57 245.515 L1988.78 245.515 Q1992.23 245.515 1994.06 244.149 Q1995.89 242.761 1995.89 240.168 Q1995.89 237.506 1993.99 236.094 Q1992.11 234.659 1988.6 234.659 Q1986.67 234.659 1984.48 235.075 Q1982.28 235.492 1979.64 236.372 L1979.64 232.205 Q1982.3 231.464 1984.61 231.094 Q1986.95 230.724 1989.01 230.724 Q1994.34 230.724 1997.44 233.154 Q2000.54 235.562 2000.54 239.682 Q2000.54 242.552 1998.9 244.543 Q1997.25 246.511 1994.22 247.274 Z" fill="#000000" fill-rule="evenodd" fill-opacity="1" /><path clip-path="url(#clip180)" d="M2024.38 247.274 Q2027.74 247.992 2029.61 250.261 Q2031.51 252.529 2031.51 255.862 Q2031.51 260.978 2027.99 263.779 Q2024.48 266.58 2017.99 266.58 Q2015.82 266.58 2013.5 266.14 Q2011.21 265.723 2008.76 264.867 L2008.76 260.353 Q2010.7 261.487 2013.02 262.066 Q2015.33 262.645 2017.85 262.645 Q2022.25 262.645 2024.54 260.909 Q2026.86 259.173 2026.86 255.862 Q2026.86 252.807 2024.71 251.094 Q2022.58 249.358 2018.76 249.358 L2014.73 249.358 L2014.73 245.515 L2018.94 245.515 Q2022.39 245.515 2024.22 244.149 Q2026.05 242.761 2026.05 240.168 Q2026.05 237.506 2024.15 236.094 Q2022.28 234.659 2018.76 234.659 Q2016.84 234.659 2014.64 235.075 Q2012.44 235.492 2009.8 236.372 L2009.8 232.205 Q2012.46 231.464 2014.78 231.094 Q2017.11 230.724 2019.17 230.724 Q2024.5 230.724 2027.6 233.154 Q2030.7 235.562 2030.7 239.682 Q2030.7 242.552 2029.06 244.543 Q2027.41 246.511 2024.38 247.274 Z" fill="#000000" fill-rule="evenodd" fill-opacity="1" /><path clip-path="url(#clip180)" d="M2040.42 231.349 L2058.78 231.349 L2058.78 235.284 L2044.71 235.284 L2044.71 243.756 Q2045.72 243.409 2046.74 243.247 Q2047.76 243.062 2048.78 243.062 Q2054.57 243.062 2057.95 246.233 Q2061.33 249.404 2061.33 254.821 Q2061.33 260.399 2057.85 263.501 Q2054.38 266.58 2048.06 266.58 Q2045.89 266.58 2043.62 266.21 Q2041.37 265.839 2038.97 265.098 L2038.97 260.399 Q2041.05 261.534 2043.27 262.089 Q2045.49 262.645 2047.97 262.645 Q2051.97 262.645 2054.31 260.538 Q2056.65 258.432 2056.65 254.821 Q2056.65 251.21 2054.31 249.103 Q2051.97 246.997 2047.97 246.997 Q2046.1 246.997 2044.22 247.413 Q2042.37 247.83 2040.42 248.71 L2040.42 231.349 Z" fill="#000000" fill-rule="evenodd" fill-opacity="1" /><path clip-path="url(#clip180)" d="M2070.59 231.349 L2088.94 231.349 L2088.94 235.284 L2074.87 235.284 L2074.87 243.756 Q2075.89 243.409 2076.91 243.247 Q2077.92 243.062 2078.94 243.062 Q2084.73 243.062 2088.11 246.233 Q2091.49 249.404 2091.49 254.821 Q2091.49 260.399 2088.02 263.501 Q2084.54 266.58 2078.22 266.58 Q2076.05 266.58 2073.78 266.21 Q2071.54 265.839 2069.13 265.098 L2069.13 260.399 Q2071.21 261.534 2073.43 262.089 Q2075.66 262.645 2078.13 262.645 Q2082.14 262.645 2084.47 260.538 Q2086.81 258.432 2086.81 254.821 Q2086.81 251.21 2084.47 249.103 Q2082.14 246.997 2078.13 246.997 Q2076.26 246.997 2074.38 247.413 Q2072.53 247.83 2070.59 248.71 L2070.59 231.349 Z" fill="#000000" fill-rule="evenodd" fill-opacity="1" /><path clip-path="url(#clip180)" d="M2113.55 235.423 L2101.74 253.872 L2113.55 253.872 L2113.55 235.423 M2112.32 231.349 L2118.2 231.349 L2118.2 253.872 L2123.13 253.872 L2123.13 257.761 L2118.2 257.761 L2118.2 265.909 L2113.55 265.909 L2113.55 257.761 L2097.95 257.761 L2097.95 253.247 L2112.32 231.349 Z" fill="#000000" fill-rule="evenodd" fill-opacity="1" /><path clip-path="url(#clip180)" d="M2143.71 235.423 L2131.91 253.872 L2143.71 253.872 L2143.71 235.423 M2142.48 231.349 L2148.36 231.349 L2148.36 253.872 L2153.29 253.872 L2153.29 257.761 L2148.36 257.761 L2148.36 265.909 L2143.71 265.909 L2143.71 257.761 L2128.11 257.761 L2128.11 253.247 L2142.48 231.349 Z" fill="#000000" fill-rule="evenodd" fill-opacity="1" /><path clip-path="url(#clip180)" d="M2175.19 247.274 Q2178.55 247.992 2180.42 250.261 Q2182.32 252.529 2182.32 255.862 Q2182.32 260.978 2178.8 263.779 Q2175.28 266.58 2168.8 266.58 Q2166.63 266.58 2164.31 266.14 Q2162.02 265.723 2159.57 264.867 L2159.57 260.353 Q2161.51 261.487 2163.83 262.066 Q2166.14 262.645 2168.66 262.645 Q2173.06 262.645 2175.35 260.909 Q2177.67 259.173 2177.67 255.862 Q2177.67 252.807 2175.52 251.094 Q2173.39 249.358 2169.57 249.358 L2165.54 249.358 L2165.54 245.515 L2169.75 245.515 Q2173.2 245.515 2175.03 244.149 Q2176.86 242.761 2176.86 240.168 Q2176.86 237.506 2174.96 236.094 Q2173.09 234.659 2169.57 234.659 Q2167.65 234.659 2165.45 235.075 Q2163.25 235.492 2160.61 236.372 L2160.61 232.205 Q2163.27 231.464 2165.59 231.094 Q2167.92 230.724 2169.98 230.724 Q2175.31 230.724 2178.41 233.154 Q2181.51 235.562 2181.51 239.682 Q2181.51 242.552 2179.87 244.543 Q2178.22 246.511 2175.19 247.274 Z" fill="#000000" fill-rule="evenodd" fill-opacity="1" /><path clip-path="url(#clip180)" d="M2195.21 261.973 L2211.53 261.973 L2211.53 265.909 L2189.59 265.909 L2189.59 261.973 Q2192.25 259.219 2196.84 254.589 Q2201.44 249.936 2202.62 248.594 Q2204.87 246.071 2205.75 244.335 Q2206.65 242.575 2206.65 240.886 Q2206.65 238.131 2204.71 236.395 Q2202.78 234.659 2199.68 234.659 Q2197.48 234.659 2195.03 235.423 Q2192.6 236.187 2189.82 237.737 L2189.82 233.015 Q2192.65 231.881 2195.1 231.302 Q2197.55 230.724 2199.59 230.724 Q2204.96 230.724 2208.15 233.409 Q2211.35 236.094 2211.35 240.585 Q2211.35 242.714 2210.54 244.636 Q2209.75 246.534 2207.65 249.126 Q2207.07 249.798 2203.96 253.015 Q2200.86 256.21 2195.21 261.973 Z" fill="#000000" fill-rule="evenodd" fill-opacity="1" /><path clip-path="url(#clip180)" d="M2220.08 229.937 L2223.78 229.937 Q2227.25 235.4 2228.96 240.631 Q2230.7 245.862 2230.7 251.024 Q2230.7 256.21 2228.96 261.464 Q2227.25 266.719 2223.78 272.159 L2220.08 272.159 Q2223.15 266.858 2224.66 261.626 Q2226.19 256.372 2226.19 251.024 Q2226.19 245.677 2224.66 240.469 Q2223.15 235.261 2220.08 229.937 Z" fill="#000000" fill-rule="evenodd" fill-opacity="1" /><polyline clip-path="url(#clip180)" style="stroke:#0000ff; stroke-linecap:butt; stroke-linejoin:round; stroke-width:4; stroke-opacity:1; fill:none" stroke-dasharray="16, 10" points="
  1610.45,300.469 1756.92,300.469 
  "/>
<path clip-path="url(#clip180)" d="M1803.57 284.323 L1803.57 288.883 Q1800.91 287.61 1798.55 286.985 Q1796.19 286.36 1793.99 286.36 Q1790.17 286.36 1788.09 287.841 Q1786.03 289.323 1786.03 292.054 Q1786.03 294.346 1787.39 295.527 Q1788.78 296.684 1792.62 297.402 L1795.45 297.98 Q1800.68 298.976 1803.16 301.499 Q1805.66 303.999 1805.66 308.212 Q1805.66 313.235 1802.28 315.827 Q1798.92 318.42 1792.42 318.42 Q1789.96 318.42 1787.18 317.864 Q1784.43 317.309 1781.47 316.221 L1781.47 311.406 Q1784.31 313.003 1787.05 313.813 Q1789.78 314.624 1792.42 314.624 Q1796.42 314.624 1798.6 313.05 Q1800.77 311.476 1800.77 308.559 Q1800.77 306.013 1799.2 304.577 Q1797.65 303.142 1794.08 302.425 L1791.24 301.869 Q1786 300.827 1783.67 298.605 Q1781.33 296.383 1781.33 292.425 Q1781.33 287.841 1784.55 285.202 Q1787.79 282.564 1793.46 282.564 Q1795.89 282.564 1798.41 283.003 Q1800.93 283.443 1803.57 284.323 Z" fill="#000000" fill-rule="evenodd" fill-opacity="1" /><path clip-path="url(#clip180)" d="M1816.98 284.462 L1816.98 291.823 L1825.75 291.823 L1825.75 295.133 L1816.98 295.133 L1816.98 309.207 Q1816.98 312.378 1817.83 313.281 Q1818.71 314.184 1821.37 314.184 L1825.75 314.184 L1825.75 317.749 L1821.37 317.749 Q1816.44 317.749 1814.57 315.92 Q1812.69 314.068 1812.69 309.207 L1812.69 295.133 L1809.57 295.133 L1809.57 291.823 L1812.69 291.823 L1812.69 284.462 L1816.98 284.462 Z" fill="#000000" fill-rule="evenodd" fill-opacity="1" /><path clip-path="url(#clip180)" d="M1843.13 304.716 Q1837.97 304.716 1835.98 305.897 Q1833.99 307.077 1833.99 309.925 Q1833.99 312.193 1835.47 313.536 Q1836.98 314.855 1839.55 314.855 Q1843.09 314.855 1845.22 312.355 Q1847.37 309.832 1847.37 305.665 L1847.37 304.716 L1843.13 304.716 M1851.63 302.957 L1851.63 317.749 L1847.37 317.749 L1847.37 313.813 Q1845.91 316.175 1843.74 317.309 Q1841.56 318.42 1838.41 318.42 Q1834.43 318.42 1832.07 316.198 Q1829.73 313.952 1829.73 310.202 Q1829.73 305.827 1832.65 303.605 Q1835.59 301.383 1841.4 301.383 L1847.37 301.383 L1847.37 300.966 Q1847.37 298.027 1845.43 296.429 Q1843.5 294.809 1840.01 294.809 Q1837.79 294.809 1835.68 295.341 Q1833.57 295.874 1831.63 296.939 L1831.63 293.003 Q1833.97 292.101 1836.17 291.661 Q1838.36 291.198 1840.45 291.198 Q1846.07 291.198 1848.85 294.114 Q1851.63 297.031 1851.63 302.957 Z" fill="#000000" fill-rule="evenodd" fill-opacity="1" /><path clip-path="url(#clip180)" d="M1864.61 284.462 L1864.61 291.823 L1873.39 291.823 L1873.39 295.133 L1864.61 295.133 L1864.61 309.207 Q1864.61 312.378 1865.47 313.281 Q1866.35 314.184 1869.01 314.184 L1873.39 314.184 L1873.39 317.749 L1869.01 317.749 Q1864.08 317.749 1862.21 315.92 Q1860.33 314.068 1860.33 309.207 L1860.33 295.133 L1857.21 295.133 L1857.21 291.823 L1860.33 291.823 L1860.33 284.462 L1864.61 284.462 Z" fill="#000000" fill-rule="evenodd" fill-opacity="1" /><path clip-path="url(#clip180)" d="M1901.17 303.721 L1901.17 305.804 L1881.58 305.804 Q1881.86 310.202 1884.22 312.517 Q1886.61 314.809 1890.84 314.809 Q1893.3 314.809 1895.59 314.207 Q1897.9 313.605 1900.17 312.401 L1900.17 316.429 Q1897.88 317.401 1895.47 317.911 Q1893.06 318.42 1890.59 318.42 Q1884.38 318.42 1880.75 314.809 Q1877.14 311.198 1877.14 305.04 Q1877.14 298.675 1880.56 294.948 Q1884.01 291.198 1889.85 291.198 Q1895.08 291.198 1898.11 294.577 Q1901.17 297.934 1901.17 303.721 M1896.91 302.471 Q1896.86 298.976 1894.94 296.892 Q1893.04 294.809 1889.89 294.809 Q1886.33 294.809 1884.17 296.823 Q1882.05 298.837 1881.72 302.494 L1896.91 302.471 Z" fill="#000000" fill-rule="evenodd" fill-opacity="1" /><path clip-path="url(#clip180)" d="M1945.4 303.721 L1945.4 305.804 L1925.82 305.804 Q1926.1 310.202 1928.46 312.517 Q1930.84 314.809 1935.08 314.809 Q1937.53 314.809 1939.82 314.207 Q1942.14 313.605 1944.41 312.401 L1944.41 316.429 Q1942.11 317.401 1939.71 317.911 Q1937.3 318.42 1934.82 318.42 Q1928.62 318.42 1924.98 314.809 Q1921.37 311.198 1921.37 305.04 Q1921.37 298.675 1924.8 294.948 Q1928.25 291.198 1934.08 291.198 Q1939.31 291.198 1942.35 294.577 Q1945.4 297.934 1945.4 303.721 M1941.14 302.471 Q1941.1 298.976 1939.17 296.892 Q1937.28 294.809 1934.13 294.809 Q1930.56 294.809 1928.41 296.823 Q1926.28 298.837 1925.96 302.494 L1941.14 302.471 Z" fill="#000000" fill-rule="evenodd" fill-opacity="1" /><path clip-path="url(#clip180)" d="M1949.34 291.823 L1953.85 291.823 L1961.95 313.582 L1970.05 291.823 L1974.57 291.823 L1964.85 317.749 L1959.06 317.749 L1949.34 291.823 Z" fill="#000000" fill-rule="evenodd" fill-opacity="1" /><path clip-path="url(#clip180)" d="M2002.62 303.721 L2002.62 305.804 L1983.04 305.804 Q1983.32 310.202 1985.68 312.517 Q1988.06 314.809 1992.3 314.809 Q1994.75 314.809 1997.04 314.207 Q1999.36 313.605 2001.63 312.401 L2001.63 316.429 Q1999.34 317.401 1996.93 317.911 Q1994.52 318.42 1992.04 318.42 Q1985.84 318.42 1982.21 314.809 Q1978.6 311.198 1978.6 305.04 Q1978.6 298.675 1982.02 294.948 Q1985.47 291.198 1991.3 291.198 Q1996.54 291.198 1999.57 294.577 Q2002.62 297.934 2002.62 303.721 M1998.36 302.471 Q1998.32 298.976 1996.4 296.892 Q1994.5 294.809 1991.35 294.809 Q1987.79 294.809 1985.63 296.823 Q1983.5 298.837 1983.18 302.494 L1998.36 302.471 Z" fill="#000000" fill-rule="evenodd" fill-opacity="1" /><path clip-path="url(#clip180)" d="M2031.16 302.101 L2031.16 317.749 L2026.91 317.749 L2026.91 302.239 Q2026.91 298.559 2025.47 296.73 Q2024.04 294.902 2021.16 294.902 Q2017.72 294.902 2015.73 297.101 Q2013.73 299.3 2013.73 303.096 L2013.73 317.749 L2009.45 317.749 L2009.45 291.823 L2013.73 291.823 L2013.73 295.851 Q2015.26 293.513 2017.32 292.355 Q2019.41 291.198 2022.11 291.198 Q2026.58 291.198 2028.87 293.976 Q2031.16 296.73 2031.16 302.101 Z" fill="#000000" fill-rule="evenodd" fill-opacity="1" /><path clip-path="url(#clip180)" d="M2043.87 284.462 L2043.87 291.823 L2052.65 291.823 L2052.65 295.133 L2043.87 295.133 L2043.87 309.207 Q2043.87 312.378 2044.73 313.281 Q2045.61 314.184 2048.27 314.184 L2052.65 314.184 L2052.65 317.749 L2048.27 317.749 Q2043.34 317.749 2041.47 315.92 Q2039.59 314.068 2039.59 309.207 L2039.59 295.133 L2036.47 295.133 L2036.47 291.823 L2039.59 291.823 L2039.59 284.462 L2043.87 284.462 Z" fill="#000000" fill-rule="evenodd" fill-opacity="1" /><path clip-path="url(#clip180)" d="M2068.48 281.777 Q2065.38 287.101 2063.87 292.309 Q2062.37 297.517 2062.37 302.864 Q2062.37 308.212 2063.87 313.466 Q2065.4 318.698 2068.48 323.999 L2064.78 323.999 Q2061.3 318.559 2059.57 313.304 Q2057.85 308.05 2057.85 302.864 Q2057.85 297.702 2059.57 292.471 Q2061.28 287.24 2064.78 281.777 L2068.48 281.777 Z" fill="#000000" fill-rule="evenodd" fill-opacity="1" /><path clip-path="url(#clip180)" d="M2093.27 292.587 L2093.27 296.614 Q2091.47 295.689 2089.52 295.226 Q2087.58 294.763 2085.49 294.763 Q2082.32 294.763 2080.72 295.735 Q2079.15 296.707 2079.15 298.651 Q2079.15 300.133 2080.28 300.989 Q2081.42 301.823 2084.85 302.587 L2086.3 302.911 Q2090.84 303.883 2092.74 305.665 Q2094.66 307.425 2094.66 310.596 Q2094.66 314.207 2091.79 316.313 Q2088.94 318.42 2083.94 318.42 Q2081.86 318.42 2079.59 318.003 Q2077.35 317.61 2074.85 316.8 L2074.85 312.401 Q2077.21 313.628 2079.5 314.253 Q2081.79 314.855 2084.03 314.855 Q2087.04 314.855 2088.66 313.837 Q2090.28 312.795 2090.28 310.92 Q2090.28 309.184 2089.1 308.258 Q2087.95 307.332 2083.99 306.476 L2082.51 306.128 Q2078.55 305.295 2076.79 303.582 Q2075.03 301.846 2075.03 298.837 Q2075.03 295.179 2077.62 293.189 Q2080.22 291.198 2084.98 291.198 Q2087.35 291.198 2089.43 291.545 Q2091.51 291.892 2093.27 292.587 Z" fill="#000000" fill-rule="evenodd" fill-opacity="1" /><path clip-path="url(#clip180)" d="M2100.77 281.777 L2104.47 281.777 Q2107.95 287.24 2109.66 292.471 Q2111.4 297.702 2111.4 302.864 Q2111.4 308.05 2109.66 313.304 Q2107.95 318.559 2104.47 323.999 L2100.77 323.999 Q2103.85 318.698 2105.35 313.466 Q2106.88 308.212 2106.88 302.864 Q2106.88 297.517 2105.35 292.309 Q2103.85 287.101 2100.77 281.777 Z" fill="#000000" fill-rule="evenodd" fill-opacity="1" /></svg>
