<?xml version="1.0" encoding="utf-8"?>
<!-- Generator: Adobe Illustrator 25.3.1, SVG Export Plug-In . SVG Version: 6.00 Build 0)  -->
<svg version="1.1" xmlns="http://www.w3.org/2000/svg" xmlns:xlink="http://www.w3.org/1999/xlink" x="0px" y="0px" width="200px"
	 height="150px" viewBox="0 0 200 150" style="enable-background:new 0 0 200 150;" xml:space="preserve">
<style type="text/css">
	.st0{fill:#1D1D1B;}
	.st1{fill:#CB3C33;}
	.st2{fill:#9558B2;}
	.st3{fill:#389826;}
	.st4{fill:#FFFFFF;}
</style>
<g id="Layer_1">
	<g>
		<path class="st0" d="M35.8,55.8c-1.2,1.1-2,2.8-2.3,5l-0.8,5.9h10.7l-1.7,6h-9.8L30.1,86c-0.6,4.1-1.5,9.4-2.8,11.8
			c-1.3,2.4-3,4.4-5.1,5.9c-2.1,1.5-5,3.1-8.6,4.6l-2.2-5.8c2.4-1.1,4.2-2.1,5.6-3.1c1.4-1,2.5-2.4,3.5-4.2c0.9-1.8,1.6-6.2,2.1-9.3
			l1.7-13.3h-7.8l0.8-6H25l0.9-6.3c0.5-3.8,2.1-6.8,4.7-9.1c2.6-2.2,6.1-3.4,10.3-3.4c2,0,3.8,0.3,5.4,0.8c1.6,0.5,3.3,1.3,5,2.4
			l-2.9,5.1c-2.1-1.4-4.5-2.1-7.2-2.1C38.8,54.2,37,54.7,35.8,55.8z"/>
		<path class="st0" d="M101.8,68.7c1.8,2,2.7,4.7,2.7,8c0,1.2-0.1,2.2-0.2,2.8l-1.3,10h-7.4l1-9.4c0.1-0.7,0.2-1.5,0.2-2.6
			c0-2-0.4-3.4-1.3-4.2c-0.8-0.8-2-1.1-3.5-1.1c-2.1,0-4.2,1.1-6.3,3.3c-1.8,1.9-3.5,4.3-5.3,7.2c-0.6,1-1,2.1-1.2,3.3l-0.5,3.5
			h-7.4l1-9.4c0.1-0.7,0.2-1.5,0.2-2.6c0-2-0.4-3.4-1.3-4.2c-0.8-0.8-2-1.1-3.5-1.1c-2.1,0-4.2,1.1-6.3,3.4
			c-1.7,1.9-3.5,4.3-5.2,7.2c-0.6,1.1-1,2.3-1.2,3.5l-0.3,3.2h-7.4l2.9-22.7h6.6L56,75.2c2.2-3.1,4.4-5.4,6.8-7.1
			c2.3-1.6,4.9-2.4,7.7-2.4c2.5,0,4.6,0.8,6.4,2.4c1.8,1.6,2.9,3.8,3.3,6.6c2.2-3,4.6-5.2,6.9-6.7c2.4-1.5,4.9-2.3,7.6-2.3
			C97.6,65.7,100,66.7,101.8,68.7z"/>
		<path class="st0" d="M115.2,68.6l-2.6,20.8h7.6l2.4-18.7C119.9,70.6,117.4,69.9,115.2,68.6z"/>
		<path class="st0" d="M159.4,70.8h-0.8l-2,15.2c-0.4,3-1.1,5.4-2,7.2s-2.1,3.2-3.4,4.3c-1.4,1-3.3,2-5.6,3.2l2.2,5.7
			c3.6-1.5,6.5-3.1,8.6-4.6c2.1-1.5,3.8-3.5,5.1-5.9c1.3-2.5,2.2-5.7,2.8-9.8l2.2-16.7C164.3,70.3,161.9,70.8,159.4,70.8z"/>
		<path class="st0" d="M182.8,79.9c-0.1,0.3-0.1,0.6-0.1,1.1c0,0.8,0.2,1.3,0.5,1.7c0.3,0.3,0.9,0.5,1.6,0.5c0.8,0,1.9-0.2,3-0.6
			l1.6,5.6c-2.1,1-4.2,1.4-6.1,1.4c-2.6,0-4.6-0.7-6-2.1c-1.4-1.4-2.1-3.5-2.1-6.2c0-0.5,0.1-1.4,0.2-2.6l3.9-29.8l7.7-0.9
			L182.8,79.9z"/>
		<g>
			<path class="st1" d="M134.4,54.6c0,3.2-1,5.8-3,7.9c-2,2-4.7,3.1-7.9,3.1c-3.2,0-5.8-1.1-7.9-3.1c-2-2-3-4.7-3-7.9
				c0-3,1-5.6,3-7.7c2-2.2,4.7-3.2,7.9-3.2c3.2,0,5.9,1.1,7.9,3.2C133.4,49,134.4,51.6,134.4,54.6z"/>
		</g>
		<g>
			<path class="st2" d="M170.3,54.6c0,3.2-1.1,5.8-3.1,7.9c-2,2-4.6,3.1-7.9,3.1c-3.2,0-5.8-1.1-7.9-3.1c-2-2-3.1-4.7-3.1-7.9
				c0-3,1.1-5.6,3.1-7.7c2-2.2,4.7-3.2,7.9-3.2c3.2,0,5.8,1.1,7.9,3.2C169.3,49,170.3,51.6,170.3,54.6z"/>
		</g>
		<path class="st3" d="M148,70.8c-2-2.2-4.7-3.2-7.9-3.2c-3.2,0-5.8,1.1-7.8,3.2c-2,2.2-3,4.8-3,7.9c0,3,1,5.6,3,7.8
			c2,2.2,4.6,3.2,7.8,3.2c3.2,0,5.9-1.1,7.9-3.2c2.1-2.2,3.2-4.8,3.2-7.8C151.2,75.6,150.1,73,148,70.8z"/>
	</g>
</g>
<g id="Layer_2">
	<g>
		<g>
			<path class="st0" d="M10,102l0.9-0.4c2.3-1,4.1-2,5.4-3c1.2-0.9,2.3-2.2,3.2-3.9c0.9-1.7,1.6-6.4,2-8.9L23,73.7h-7.8l1.1-8h7.8
				l0.8-5.5c0.5-4,2.2-7.3,5.1-9.7c2.8-2.4,6.5-3.6,11-3.6c2.1,0,4,0.3,5.7,0.8c1.6,0.5,3.4,1.4,5.3,2.5l0.8,0.5l-4,6.9l-0.9-0.6
				c-1.9-1.3-4.1-1.9-6.7-1.9c-2.2,0-3.8,0.5-4.8,1.4c-1,0.9-1.7,2.4-1.9,4.4l-0.7,4.8h10.9l-2.2,8h-9.7l-1.6,12.4
				c-0.8,6-1.8,10.1-2.9,12.2c-1.4,2.6-3.2,4.7-5.4,6.3c-2.2,1.6-5.1,3.1-8.8,4.7l-1,0.4L10,102z"/>
			<path class="st4" d="M41,47.9c2,0,3.8,0.3,5.4,0.8c1.6,0.5,3.3,1.3,5,2.4l-2.9,5.1c-2.1-1.4-4.5-2.1-7.2-2.1
				c-2.4,0-4.2,0.5-5.5,1.6c-1.2,1.1-2,2.8-2.3,5l-0.8,5.9h10.7l-1.7,6h-9.8L30.1,86c-0.6,4.1-1.5,9.4-2.8,11.8
				c-1.3,2.4-3,4.4-5.1,5.9c-2.1,1.5-5,3.1-8.6,4.6l-2.2-5.8c2.4-1.1,4.2-2.1,5.6-3.1c1.4-1,2.5-2.4,3.5-4.2
				c0.9-1.8,1.6-6.2,2.1-9.3l1.7-13.3h-7.8l0.8-6H25l0.9-6.3c0.5-3.8,2.1-6.8,4.7-9.1C33.3,49,36.7,47.9,41,47.9 M41,45.9
				c-4.7,0-8.6,1.3-11.6,3.8c-3,2.6-4.8,6-5.4,10.3l-0.7,4.6h-6.1h-1.7l-0.2,1.7l-0.8,6L14,74.7h2.3h5.5l-1.4,11.1
				c-0.3,2.1-1,7-1.9,8.6c-0.8,1.5-1.7,2.7-2.9,3.5c-1.3,0.9-3,1.9-5.2,2.9l-1.7,0.8l0.7,1.8l2.2,5.8l0.7,2l1.9-0.8
				c3.8-1.6,6.8-3.2,9-4.8c2.3-1.7,4.3-3.9,5.7-6.6c1.2-2.2,2.2-6.4,3-12.5l1.5-11.6h8.1h1.5l0.4-1.5l1.7-6l0.7-2.5h-2.6H35l0.5-3.6
				c0.2-1.8,0.8-3,1.6-3.8c0.9-0.8,2.2-1.1,4.1-1.1c2.4,0,4.4,0.6,6.1,1.8l1.8,1.2l1.1-1.9l2.9-5.1l1-1.7l-1.6-1
				c-1.9-1.2-3.8-2.1-5.5-2.6C45.2,46.2,43.2,45.9,41,45.9L41,45.9z"/>
		</g>
		<g>
			<path class="st0" d="M94.4,90.4L95.5,80c0.1-0.7,0.2-1.5,0.2-2.5c0-1.7-0.3-2.9-0.9-3.4c-0.7-0.6-1.6-0.9-2.9-0.9
				c-1.8,0-3.7,1-5.6,3c-1.7,1.8-3.4,4.2-5.1,7c-0.5,0.9-0.9,1.9-1,2.9l-0.6,4.3h-9.4L71.3,80c0.1-0.7,0.2-1.5,0.2-2.5
				c0-1.7-0.3-2.9-0.9-3.4c-0.7-0.6-1.6-0.9-2.9-0.9c-1.8,0-3.7,1-5.6,3c-1.7,1.8-3.4,4.2-5.1,7c-0.6,0.9-0.9,2-1,3.1l-0.4,4.1h-9.4
				l3.1-24.7h8.5l-0.5,6.2c1.6-1.9,3.3-3.4,4.9-4.6c2.5-1.7,5.3-2.6,8.3-2.6c2.7,0,5.1,0.9,7.1,2.6c1.5,1.3,2.5,3,3.2,5.1
				c1.9-2.2,3.9-4,5.9-5.3c2.5-1.6,5.3-2.4,8.1-2.4c3.3,0,5.9,1.1,7.9,3.3c1.9,2.2,2.9,5.1,2.9,8.7c0,1.3-0.1,2.3-0.2,3l-1.5,10.8
				H94.4z"/>
			<path class="st4" d="M94.7,65.7c3,0,5.3,1,7.1,3c1.8,2,2.7,4.7,2.7,8c0,1.2-0.1,2.2-0.2,2.8l-1.3,10h-7.4l1-9.4
				c0.1-0.7,0.2-1.5,0.2-2.6c0-2-0.4-3.4-1.3-4.2c-0.8-0.8-2-1.1-3.5-1.1c-2.1,0-4.2,1.1-6.3,3.3c-1.8,1.9-3.5,4.3-5.3,7.2
				c-0.6,1-1,2.1-1.2,3.3l-0.5,3.5h-7.4l1-9.4c0.1-0.7,0.2-1.5,0.2-2.6c0-2-0.4-3.4-1.3-4.2c-0.8-0.8-2-1.1-3.5-1.1
				c-2.1,0-4.2,1.1-6.3,3.4c-1.7,1.9-3.5,4.3-5.2,7.2c-0.6,1.1-1,2.3-1.2,3.5l-0.3,3.2h-7.4l2.9-22.7h6.6L56,75.2
				c2.2-3.1,4.4-5.4,6.8-7.1c2.3-1.6,4.9-2.4,7.7-2.4c2.5,0,4.6,0.8,6.4,2.4c1.8,1.6,2.9,3.8,3.3,6.6c2.2-3,4.6-5.2,6.9-6.7
				C89.4,66.4,92,65.7,94.7,65.7 M94.7,63.7c-3.1,0-6,0.9-8.7,2.6c-1.7,1.1-3.3,2.5-5,4.2c-0.7-1.6-1.6-2.9-2.9-3.9
				c-2.2-1.9-4.8-2.9-7.7-2.9c-3.2,0-6.2,0.9-8.8,2.8c-1.1,0.7-2.1,1.6-3.1,2.6l0.2-2.3l0.2-2.2h-2.2h-6.6h-1.8l-0.2,1.8l-2.9,22.7
				L45,91.4h2.3h7.4h1.8l0.2-1.8l0.3-3.2c0.1-0.9,0.4-1.9,0.9-2.7c1.7-2.8,3.3-5.1,5-6.9c1.7-1.8,3.3-2.7,4.8-2.7
				c1,0,1.7,0.2,2.2,0.6c0.1,0.1,0.6,0.7,0.6,2.7c0,0.9,0,1.7-0.1,2.3l0,0.1l0,0.1l-1,9.4l-0.2,2.2h2.2h7.4h1.8l0.2-1.7l0.5-3.5
				c0.1-0.9,0.4-1.8,0.9-2.5c1.7-2.8,3.4-5.1,5-6.8c1.7-1.8,3.3-2.7,4.8-2.7c1,0,1.7,0.2,2.2,0.6c0.1,0.1,0.6,0.7,0.6,2.7
				c0,0.9,0,1.7-0.1,2.3l0,0.1l0,0.1l-1,9.4l-0.2,2.2h2.2h7.4h1.7l0.2-1.7l1.3-9.9c0.1-0.7,0.2-1.8,0.2-3.1c0-3.9-1.1-7-3.2-9.4
				C101.1,64.9,98.2,63.7,94.7,63.7L94.7,63.7z"/>
		</g>
		<g>
			<path class="st0" d="M111.5,90.4l2.9-23.5l1.3,0.8c2,1.2,4.3,1.9,6.9,2l1.1,0l-2.6,20.7H111.5z"/>
			<path class="st4" d="M115.2,68.6c2.2,1.3,4.7,2,7.4,2.1l-2.4,18.7h-7.6L115.2,68.6 M113.6,65.3l-0.4,3.1l-2.6,20.8l-0.3,2.2h2.3
				h7.6h1.8l0.2-1.7l2.4-18.7l0.3-2.2l-2.2-0.1c-2.4-0.1-4.6-0.7-6.4-1.8L113.6,65.3L113.6,65.3z"/>
		</g>
		<g>
			<path class="st0" d="M144.2,100.1l0.8-0.4c2.3-1.1,4.2-2.2,5.5-3.1c1.3-1,2.3-2.3,3.1-3.9c0.9-1.8,1.5-4.1,1.9-6.9l2.1-16.1h1.7
				c2.4,0,4.6-0.5,6.6-1.4l1.7-0.8l-2.5,18.5c-0.6,4.3-1.5,7.6-2.9,10.2c-1.5,2.7-3.3,4.7-5.4,6.2c-2.1,1.6-5.1,3.2-8.8,4.7l-1,0.4
				L144.2,100.1z"/>
			<path class="st4" d="M166.4,69.3L164.1,86c-0.6,4.1-1.5,7.4-2.8,9.8c-1.3,2.4-3,4.4-5.1,5.9c-2.1,1.5-5,3.1-8.6,4.6l-2.2-5.7
				c2.3-1.1,4.2-2.2,5.6-3.2c1.3-1.1,2.5-2.5,3.4-4.3s1.6-4.2,2-7.2l2-15.2h0.8C161.9,70.8,164.3,70.3,166.4,69.3 M168.9,65.9
				l-3.3,1.5c-1.8,0.9-3.9,1.3-6.2,1.3h-0.8h-1.8l-0.2,1.7l-2,15.2c-0.4,2.7-1,4.9-1.8,6.6c-0.7,1.4-1.7,2.6-2.8,3.6
				c-1.3,0.9-3,1.9-5.3,3l-1.7,0.8l0.7,1.7l2.2,5.7l0.7,1.9l1.9-0.8c3.8-1.6,6.8-3.2,9-4.9c2.2-1.5,4.1-3.7,5.7-6.5
				c1.4-2.6,2.4-6.1,3-10.5l2.2-16.7L168.9,65.9L168.9,65.9z"/>
		</g>
		<g>
			<path class="st0" d="M183.3,90.6c-2.8,0-5.1-0.8-6.7-2.4c-1.6-1.6-2.4-3.9-2.4-6.9c0-0.6,0.1-1.4,0.2-2.7l4-30.6l9.8-1.2
				l-4.3,33.3c-0.1,0.3-0.1,0.6-0.1,1c0,0.7,0.2,0.9,0.2,1c0.1,0.1,0.3,0.2,0.9,0.2c0.7,0,1.6-0.2,2.7-0.5l1-0.3l2.1,7.4l-0.8,0.4
				C187.6,90.1,185.4,90.6,183.3,90.6z"/>
			<path class="st4" d="M187,47.9l-4.2,32c-0.1,0.3-0.1,0.6-0.1,1.1c0,0.8,0.2,1.3,0.5,1.7c0.3,0.3,0.9,0.5,1.6,0.5
				c0.8,0,1.9-0.2,3-0.6l1.6,5.6c-2.1,1-4.2,1.4-6.1,1.4c-2.6,0-4.6-0.7-6-2.1c-1.4-1.4-2.1-3.5-2.1-6.2c0-0.5,0.1-1.4,0.2-2.6
				l3.9-29.8L187,47.9 M189.3,45.6l-2.6,0.3l-7.7,0.9l-1.5,0.2l-0.2,1.5l-3.9,29.8l0,0l0,0c-0.1,1.3-0.2,2.2-0.2,2.8
				c0,3.3,0.9,5.9,2.7,7.7c1.8,1.8,4.3,2.7,7.4,2.7c2.2,0,4.6-0.5,7-1.6l1.6-0.7l-0.5-1.7l-1.6-5.6l-0.6-2l-2,0.7
				c-1,0.3-1.8,0.5-2.4,0.5c0,0-0.1,0-0.1,0c0-0.1,0-0.1,0-0.2c0-0.4,0-0.6,0-0.7l0-0.1l0-0.1l4.2-32L189.3,45.6L189.3,45.6z"/>
		</g>
		<g>
			<g>
				<path class="st1" d="M123.5,66.5c-3.4,0-6.3-1.1-8.6-3.4c-2.2-2.2-3.3-5.1-3.3-8.6c0-3.3,1.1-6.1,3.3-8.4
					c2.2-2.3,5.1-3.5,8.6-3.5c3.5,0,6.5,1.2,8.7,3.5c2.2,2.2,3.3,5.1,3.3,8.4c0,3.5-1.1,6.4-3.3,8.6C129.9,65.4,127,66.5,123.5,66.5
					z"/>
				<path class="st4" d="M123.5,43.6c3.2,0,5.9,1.1,7.9,3.2c2,2.1,3,4.7,3,7.7c0,3.2-1,5.8-3,7.9c-2,2-4.7,3.1-7.9,3.1
					c-3.2,0-5.8-1.1-7.9-3.1c-2-2-3-4.7-3-7.9c0-3,1-5.6,3-7.7C117.7,44.7,120.3,43.6,123.5,43.6 M123.5,41.6
					c-3.8,0-6.9,1.3-9.3,3.9c-2.4,2.4-3.6,5.5-3.6,9.1c0,3.8,1.2,6.9,3.6,9.3c2.4,2.4,5.6,3.7,9.3,3.7c3.8,0,6.9-1.2,9.3-3.7
					c2.4-2.4,3.6-5.5,3.6-9.3c0-3.6-1.2-6.6-3.6-9.1C130.5,42.9,127.3,41.6,123.5,41.6L123.5,41.6z"/>
			</g>
		</g>
		<g>
			<g>
				<path class="st2" d="M159.4,66.5c-3.4,0-6.3-1.2-8.6-3.4c-2.2-2.2-3.4-5.1-3.4-8.6c0-3.3,1.1-6.1,3.4-8.4
					c2.2-2.3,5.1-3.5,8.6-3.5c3.5,0,6.4,1.2,8.6,3.5c2.2,2.3,3.4,5.1,3.4,8.4c0,3.4-1.2,6.3-3.4,8.6
					C165.7,65.4,162.8,66.5,159.4,66.5z"/>
				<path class="st4" d="M159.4,43.6c3.2,0,5.8,1.1,7.9,3.2c2,2.1,3.1,4.7,3.1,7.7c0,3.2-1.1,5.8-3.1,7.9c-2,2-4.6,3.1-7.9,3.1
					c-3.2,0-5.8-1.1-7.9-3.1c-2-2-3.1-4.7-3.1-7.9c0-3,1.1-5.6,3.1-7.7C153.6,44.7,156.2,43.6,159.4,43.6 M159.4,41.6
					c-3.8,0-6.9,1.3-9.3,3.9c-2.4,2.5-3.6,5.5-3.6,9.1c0,3.7,1.3,6.9,3.7,9.3c2.4,2.4,5.6,3.7,9.3,3.7c3.7,0,6.8-1.2,9.3-3.7
					c2.4-2.4,3.7-5.6,3.7-9.3c0-3.5-1.2-6.6-3.6-9.1C166.3,42.9,163.2,41.6,159.4,41.6L159.4,41.6z"/>
			</g>
		</g>
		<g>
			<path class="st3" d="M140.1,90.7c-3.5,0-6.4-1.2-8.5-3.6c-2.2-2.3-3.3-5.2-3.3-8.5c0-3.3,1.1-6.2,3.3-8.5c2.1-2.3,5-3.5,8.5-3.5
				c3.5,0,6.5,1.2,8.7,3.5c2.3,2.3,3.4,5.2,3.4,8.5c0,3.3-1.2,6.1-3.4,8.5C146.6,89.5,143.6,90.7,140.1,90.7z"/>
			<path class="st4" d="M140.1,67.6c3.2,0,5.9,1.1,7.9,3.2c2.1,2.2,3.2,4.8,3.2,7.9c0,3-1.1,5.6-3.2,7.8c-2,2.2-4.7,3.2-7.9,3.2
				c-3.2,0-5.8-1.1-7.8-3.2c-2-2.2-3-4.8-3-7.8c0-3.1,1-5.7,3-7.9C134.3,68.7,136.9,67.6,140.1,67.6 M140.1,65.6
				c-3.8,0-6.9,1.3-9.3,3.9c-2.3,2.5-3.5,5.6-3.5,9.2c0,3.5,1.2,6.6,3.6,9.1c2.3,2.6,5.4,3.9,9.2,3.9c3.8,0,7-1.3,9.4-3.9
				c2.4-2.5,3.7-5.6,3.7-9.1c0-3.6-1.3-6.7-3.7-9.2C147.1,66.9,143.9,65.6,140.1,65.6L140.1,65.6z"/>
		</g>
	</g>
</g>
</svg>
