<?xml version="1.0" encoding="utf-8"?>
<svg xmlns="http://www.w3.org/2000/svg" xmlns:xlink="http://www.w3.org/1999/xlink" width="600" height="400" viewBox="0 0 2400 1600">
<defs>
  <clipPath id="clip220">
    <rect x="0" y="0" width="2400" height="1600"/>
  </clipPath>
</defs>
<path clip-path="url(#clip220)" d="M0 1600 L2400 1600 L2400 0 L0 0  Z" fill="#ffffff" fill-rule="evenodd" fill-opacity="1"/>
<defs>
  <clipPath id="clip221">
    <rect x="480" y="0" width="1681" height="1600"/>
  </clipPath>
</defs>
<path clip-path="url(#clip220)" d="M156.274 1423.18 L2352.76 1423.18 L2352.76 47.2441 L156.274 47.2441  Z" fill="#ffffff" fill-rule="evenodd" fill-opacity="1"/>
<defs>
  <clipPath id="clip222">
    <rect x="156" y="47" width="2197" height="1377"/>
  </clipPath>
</defs>
<polyline clip-path="url(#clip222)" style="stroke:#000000; stroke-linecap:round; stroke-linejoin:round; stroke-width:2; stroke-opacity:0.1; fill:none" points="218.439,1423.18 218.439,47.2441 "/>
<polyline clip-path="url(#clip222)" style="stroke:#000000; stroke-linecap:round; stroke-linejoin:round; stroke-width:2; stroke-opacity:0.1; fill:none" points="736.477,1423.18 736.477,47.2441 "/>
<polyline clip-path="url(#clip222)" style="stroke:#000000; stroke-linecap:round; stroke-linejoin:round; stroke-width:2; stroke-opacity:0.1; fill:none" points="1254.52,1423.18 1254.52,47.2441 "/>
<polyline clip-path="url(#clip222)" style="stroke:#000000; stroke-linecap:round; stroke-linejoin:round; stroke-width:2; stroke-opacity:0.1; fill:none" points="1772.55,1423.18 1772.55,47.2441 "/>
<polyline clip-path="url(#clip222)" style="stroke:#000000; stroke-linecap:round; stroke-linejoin:round; stroke-width:2; stroke-opacity:0.1; fill:none" points="2290.59,1423.18 2290.59,47.2441 "/>
<polyline clip-path="url(#clip220)" style="stroke:#000000; stroke-linecap:round; stroke-linejoin:round; stroke-width:4; stroke-opacity:1; fill:none" points="156.274,1423.18 2352.76,1423.18 "/>
<polyline clip-path="url(#clip220)" style="stroke:#000000; stroke-linecap:round; stroke-linejoin:round; stroke-width:4; stroke-opacity:1; fill:none" points="218.439,1423.18 218.439,1404.28 "/>
<polyline clip-path="url(#clip220)" style="stroke:#000000; stroke-linecap:round; stroke-linejoin:round; stroke-width:4; stroke-opacity:1; fill:none" points="736.477,1423.18 736.477,1404.28 "/>
<polyline clip-path="url(#clip220)" style="stroke:#000000; stroke-linecap:round; stroke-linejoin:round; stroke-width:4; stroke-opacity:1; fill:none" points="1254.52,1423.18 1254.52,1404.28 "/>
<polyline clip-path="url(#clip220)" style="stroke:#000000; stroke-linecap:round; stroke-linejoin:round; stroke-width:4; stroke-opacity:1; fill:none" points="1772.55,1423.18 1772.55,1404.28 "/>
<polyline clip-path="url(#clip220)" style="stroke:#000000; stroke-linecap:round; stroke-linejoin:round; stroke-width:4; stroke-opacity:1; fill:none" points="2290.59,1423.18 2290.59,1404.28 "/>
<path clip-path="url(#clip220)" d="M218.439 1454.1 Q214.828 1454.1 212.999 1457.66 Q211.193 1461.2 211.193 1468.33 Q211.193 1475.44 212.999 1479.01 Q214.828 1482.55 218.439 1482.55 Q222.073 1482.55 223.879 1479.01 Q225.707 1475.44 225.707 1468.33 Q225.707 1461.2 223.879 1457.66 Q222.073 1454.1 218.439 1454.1 M218.439 1450.39 Q224.249 1450.39 227.304 1455 Q230.383 1459.58 230.383 1468.33 Q230.383 1477.06 227.304 1481.67 Q224.249 1486.25 218.439 1486.25 Q212.629 1486.25 209.55 1481.67 Q206.494 1477.06 206.494 1468.33 Q206.494 1459.58 209.55 1455 Q212.629 1450.39 218.439 1450.39 Z" fill="#000000" fill-rule="evenodd" fill-opacity="1" /><path clip-path="url(#clip220)" d="M731.13 1481.64 L747.449 1481.64 L747.449 1485.58 L725.505 1485.58 L725.505 1481.64 Q728.167 1478.89 732.75 1474.26 Q737.357 1469.61 738.537 1468.27 Q740.782 1465.74 741.662 1464.01 Q742.565 1462.25 742.565 1460.56 Q742.565 1457.8 740.62 1456.07 Q738.699 1454.33 735.597 1454.33 Q733.398 1454.33 730.945 1455.09 Q728.514 1455.86 725.736 1457.41 L725.736 1452.69 Q728.56 1451.55 731.014 1450.97 Q733.468 1450.39 735.505 1450.39 Q740.875 1450.39 744.069 1453.08 Q747.264 1455.77 747.264 1460.26 Q747.264 1462.39 746.454 1464.31 Q745.667 1466.2 743.56 1468.8 Q742.981 1469.47 739.88 1472.69 Q736.778 1475.88 731.13 1481.64 Z" fill="#000000" fill-rule="evenodd" fill-opacity="1" /><path clip-path="url(#clip220)" d="M1257.52 1455.09 L1245.72 1473.54 L1257.52 1473.54 L1257.52 1455.09 M1256.3 1451.02 L1262.18 1451.02 L1262.18 1473.54 L1267.11 1473.54 L1267.11 1477.43 L1262.18 1477.43 L1262.18 1485.58 L1257.52 1485.58 L1257.52 1477.43 L1241.92 1477.43 L1241.92 1472.92 L1256.3 1451.02 Z" fill="#000000" fill-rule="evenodd" fill-opacity="1" /><path clip-path="url(#clip220)" d="M1772.96 1466.44 Q1769.81 1466.44 1767.96 1468.59 Q1766.13 1470.74 1766.13 1474.49 Q1766.13 1478.22 1767.96 1480.39 Q1769.81 1482.55 1772.96 1482.55 Q1776.11 1482.55 1777.94 1480.39 Q1779.79 1478.22 1779.79 1474.49 Q1779.79 1470.74 1777.94 1468.59 Q1776.11 1466.44 1772.96 1466.44 M1782.24 1451.78 L1782.24 1456.04 Q1780.48 1455.21 1778.68 1454.77 Q1776.89 1454.33 1775.13 1454.33 Q1770.5 1454.33 1768.05 1457.45 Q1765.62 1460.58 1765.27 1466.9 Q1766.64 1464.89 1768.7 1463.82 Q1770.76 1462.73 1773.24 1462.73 Q1778.44 1462.73 1781.45 1465.9 Q1784.49 1469.05 1784.49 1474.49 Q1784.49 1479.82 1781.34 1483.03 Q1778.19 1486.25 1772.96 1486.25 Q1766.96 1486.25 1763.79 1481.67 Q1760.62 1477.06 1760.62 1468.33 Q1760.62 1460.14 1764.51 1455.28 Q1768.4 1450.39 1774.95 1450.39 Q1776.71 1450.39 1778.49 1450.74 Q1780.3 1451.09 1782.24 1451.78 Z" fill="#000000" fill-rule="evenodd" fill-opacity="1" /><path clip-path="url(#clip220)" d="M2290.59 1469.17 Q2287.26 1469.17 2285.34 1470.95 Q2283.44 1472.73 2283.44 1475.86 Q2283.44 1478.98 2285.34 1480.77 Q2287.26 1482.55 2290.59 1482.55 Q2293.92 1482.55 2295.85 1480.77 Q2297.77 1478.96 2297.77 1475.86 Q2297.77 1472.73 2295.85 1470.95 Q2293.95 1469.17 2290.59 1469.17 M2285.92 1467.18 Q2282.91 1466.44 2281.22 1464.38 Q2279.55 1462.32 2279.55 1459.35 Q2279.55 1455.21 2282.49 1452.8 Q2285.45 1450.39 2290.59 1450.39 Q2295.75 1450.39 2298.69 1452.8 Q2301.63 1455.21 2301.63 1459.35 Q2301.63 1462.32 2299.94 1464.38 Q2298.28 1466.44 2295.29 1467.18 Q2298.67 1467.96 2300.54 1470.26 Q2302.44 1472.55 2302.44 1475.86 Q2302.44 1480.88 2299.36 1483.57 Q2296.31 1486.25 2290.59 1486.25 Q2284.87 1486.25 2281.8 1483.57 Q2278.74 1480.88 2278.74 1475.86 Q2278.74 1472.55 2280.64 1470.26 Q2282.54 1467.96 2285.92 1467.18 M2284.2 1459.79 Q2284.2 1462.48 2285.87 1463.98 Q2287.56 1465.49 2290.59 1465.49 Q2293.6 1465.49 2295.29 1463.98 Q2297 1462.48 2297 1459.79 Q2297 1457.11 2295.29 1455.6 Q2293.6 1454.1 2290.59 1454.1 Q2287.56 1454.1 2285.87 1455.6 Q2284.2 1457.11 2284.2 1459.79 Z" fill="#000000" fill-rule="evenodd" fill-opacity="1" /><path clip-path="url(#clip220)" d="M1202.83 1522.27 L1202.83 1532.4 L1214.89 1532.4 L1214.89 1536.95 L1202.83 1536.95 L1202.83 1556.3 Q1202.83 1560.66 1204 1561.9 Q1205.21 1563.14 1208.87 1563.14 L1214.89 1563.14 L1214.89 1568.04 L1208.87 1568.04 Q1202.09 1568.04 1199.52 1565.53 Q1196.94 1562.98 1196.94 1556.3 L1196.94 1536.95 L1192.64 1536.95 L1192.64 1532.4 L1196.94 1532.4 L1196.94 1522.27 L1202.83 1522.27 Z" fill="#000000" fill-rule="evenodd" fill-opacity="1" /><path clip-path="url(#clip220)" d="M1242.77 1518.52 L1256.27 1518.52 L1256.27 1523.07 L1248.63 1523.07 L1248.63 1572.09 L1256.27 1572.09 L1256.27 1576.64 L1242.77 1576.64 L1242.77 1518.52 Z" fill="#000000" fill-rule="evenodd" fill-opacity="1" /><path clip-path="url(#clip220)" d="M1291.47 1533.45 L1291.47 1538.98 Q1288.99 1537.71 1286.31 1537.07 Q1283.64 1536.44 1280.77 1536.44 Q1276.41 1536.44 1274.22 1537.77 Q1272.05 1539.11 1272.05 1541.79 Q1272.05 1543.82 1273.61 1545 Q1275.17 1546.15 1279.88 1547.2 L1281.89 1547.64 Q1288.13 1548.98 1290.74 1551.43 Q1293.38 1553.85 1293.38 1558.21 Q1293.38 1563.17 1289.43 1566.07 Q1285.52 1568.97 1278.64 1568.97 Q1275.78 1568.97 1272.66 1568.39 Q1269.57 1567.85 1266.13 1566.74 L1266.13 1560.69 Q1269.38 1562.38 1272.53 1563.24 Q1275.68 1564.07 1278.77 1564.07 Q1282.91 1564.07 1285.13 1562.66 Q1287.36 1561.23 1287.36 1558.65 Q1287.36 1556.27 1285.74 1554.99 Q1284.15 1553.72 1278.7 1552.54 L1276.67 1552.07 Q1271.23 1550.92 1268.81 1548.56 Q1266.39 1546.18 1266.39 1542.04 Q1266.39 1537.01 1269.95 1534.27 Q1273.52 1531.54 1280.07 1531.54 Q1283.32 1531.54 1286.18 1532.01 Q1289.05 1532.49 1291.47 1533.45 Z" fill="#000000" fill-rule="evenodd" fill-opacity="1" /><path clip-path="url(#clip220)" d="M1316.39 1518.52 L1316.39 1576.64 L1302.89 1576.64 L1302.89 1572.09 L1310.5 1572.09 L1310.5 1523.07 L1302.89 1523.07 L1302.89 1518.52 L1316.39 1518.52 Z" fill="#000000" fill-rule="evenodd" fill-opacity="1" /><polyline clip-path="url(#clip222)" style="stroke:#000000; stroke-linecap:round; stroke-linejoin:round; stroke-width:2; stroke-opacity:0.1; fill:none" points="156.274,1247.02 2352.76,1247.02 "/>
<polyline clip-path="url(#clip222)" style="stroke:#000000; stroke-linecap:round; stroke-linejoin:round; stroke-width:2; stroke-opacity:0.1; fill:none" points="156.274,972.57 2352.76,972.57 "/>
<polyline clip-path="url(#clip222)" style="stroke:#000000; stroke-linecap:round; stroke-linejoin:round; stroke-width:2; stroke-opacity:0.1; fill:none" points="156.274,698.124 2352.76,698.124 "/>
<polyline clip-path="url(#clip222)" style="stroke:#000000; stroke-linecap:round; stroke-linejoin:round; stroke-width:2; stroke-opacity:0.1; fill:none" points="156.274,423.678 2352.76,423.678 "/>
<polyline clip-path="url(#clip222)" style="stroke:#000000; stroke-linecap:round; stroke-linejoin:round; stroke-width:2; stroke-opacity:0.1; fill:none" points="156.274,149.232 2352.76,149.232 "/>
<polyline clip-path="url(#clip220)" style="stroke:#000000; stroke-linecap:round; stroke-linejoin:round; stroke-width:4; stroke-opacity:1; fill:none" points="156.274,1423.18 156.274,47.2441 "/>
<polyline clip-path="url(#clip220)" style="stroke:#000000; stroke-linecap:round; stroke-linejoin:round; stroke-width:4; stroke-opacity:1; fill:none" points="156.274,1247.02 175.172,1247.02 "/>
<polyline clip-path="url(#clip220)" style="stroke:#000000; stroke-linecap:round; stroke-linejoin:round; stroke-width:4; stroke-opacity:1; fill:none" points="156.274,972.57 175.172,972.57 "/>
<polyline clip-path="url(#clip220)" style="stroke:#000000; stroke-linecap:round; stroke-linejoin:round; stroke-width:4; stroke-opacity:1; fill:none" points="156.274,698.124 175.172,698.124 "/>
<polyline clip-path="url(#clip220)" style="stroke:#000000; stroke-linecap:round; stroke-linejoin:round; stroke-width:4; stroke-opacity:1; fill:none" points="156.274,423.678 175.172,423.678 "/>
<polyline clip-path="url(#clip220)" style="stroke:#000000; stroke-linecap:round; stroke-linejoin:round; stroke-width:4; stroke-opacity:1; fill:none" points="156.274,149.232 175.172,149.232 "/>
<path clip-path="url(#clip220)" d="M62.9365 1232.81 Q59.3254 1232.81 57.4967 1236.38 Q55.6912 1239.92 55.6912 1247.05 Q55.6912 1254.16 57.4967 1257.72 Q59.3254 1261.26 62.9365 1261.26 Q66.5707 1261.26 68.3763 1257.72 Q70.205 1254.16 70.205 1247.05 Q70.205 1239.92 68.3763 1236.38 Q66.5707 1232.81 62.9365 1232.81 M62.9365 1229.11 Q68.7467 1229.11 71.8022 1233.72 Q74.8809 1238.3 74.8809 1247.05 Q74.8809 1255.78 71.8022 1260.38 Q68.7467 1264.97 62.9365 1264.97 Q57.1264 1264.97 54.0477 1260.38 Q50.9921 1255.78 50.9921 1247.05 Q50.9921 1238.3 54.0477 1233.72 Q57.1264 1229.11 62.9365 1229.11 Z" fill="#000000" fill-rule="evenodd" fill-opacity="1" /><path clip-path="url(#clip220)" d="M83.0984 1258.42 L87.9827 1258.42 L87.9827 1264.3 L83.0984 1264.3 L83.0984 1258.42 Z" fill="#000000" fill-rule="evenodd" fill-opacity="1" /><path clip-path="url(#clip220)" d="M108.746 1245.15 Q105.598 1245.15 103.746 1247.3 Q101.918 1249.46 101.918 1253.21 Q101.918 1256.93 103.746 1259.11 Q105.598 1261.26 108.746 1261.26 Q111.895 1261.26 113.723 1259.11 Q115.575 1256.93 115.575 1253.21 Q115.575 1249.46 113.723 1247.3 Q111.895 1245.15 108.746 1245.15 M118.029 1230.5 L118.029 1234.76 Q116.27 1233.93 114.464 1233.49 Q112.682 1233.05 110.922 1233.05 Q106.293 1233.05 103.839 1236.17 Q101.409 1239.3 101.061 1245.61 Q102.427 1243.6 104.487 1242.54 Q106.547 1241.45 109.024 1241.45 Q114.233 1241.45 117.242 1244.62 Q120.274 1247.77 120.274 1253.21 Q120.274 1258.53 117.126 1261.75 Q113.978 1264.97 108.746 1264.97 Q102.751 1264.97 99.5798 1260.38 Q96.4085 1255.78 96.4085 1247.05 Q96.4085 1238.86 100.297 1233.99 Q104.186 1229.11 110.737 1229.11 Q112.496 1229.11 114.279 1229.46 Q116.084 1229.8 118.029 1230.5 Z" fill="#000000" fill-rule="evenodd" fill-opacity="1" /><path clip-path="url(#clip220)" d="M63.1911 958.368 Q59.58 958.368 57.7513 961.933 Q55.9458 965.475 55.9458 972.604 Q55.9458 979.711 57.7513 983.276 Q59.58 986.817 63.1911 986.817 Q66.8254 986.817 68.6309 983.276 Q70.4596 979.711 70.4596 972.604 Q70.4596 965.475 68.6309 961.933 Q66.8254 958.368 63.1911 958.368 M63.1911 954.665 Q69.0013 954.665 72.0568 959.271 Q75.1355 963.854 75.1355 972.604 Q75.1355 981.331 72.0568 985.938 Q69.0013 990.521 63.1911 990.521 Q57.381 990.521 54.3023 985.938 Q51.2468 981.331 51.2468 972.604 Q51.2468 963.854 54.3023 959.271 Q57.381 954.665 63.1911 954.665 Z" fill="#000000" fill-rule="evenodd" fill-opacity="1" /><path clip-path="url(#clip220)" d="M83.3531 983.97 L88.2373 983.97 L88.2373 989.85 L83.3531 989.85 L83.3531 983.97 Z" fill="#000000" fill-rule="evenodd" fill-opacity="1" /><path clip-path="url(#clip220)" d="M108.422 973.438 Q105.089 973.438 103.168 975.22 Q101.27 977.002 101.27 980.127 Q101.27 983.252 103.168 985.035 Q105.089 986.817 108.422 986.817 Q111.756 986.817 113.677 985.035 Q115.598 983.229 115.598 980.127 Q115.598 977.002 113.677 975.22 Q111.779 973.438 108.422 973.438 M103.746 971.447 Q100.737 970.706 99.0474 968.646 Q97.3808 966.586 97.3808 963.623 Q97.3808 959.479 100.321 957.072 Q103.284 954.665 108.422 954.665 Q113.584 954.665 116.524 957.072 Q119.464 959.479 119.464 963.623 Q119.464 966.586 117.774 968.646 Q116.108 970.706 113.121 971.447 Q116.501 972.234 118.376 974.526 Q120.274 976.817 120.274 980.127 Q120.274 985.151 117.195 987.836 Q114.14 990.521 108.422 990.521 Q102.705 990.521 99.6261 987.836 Q96.5706 985.151 96.5706 980.127 Q96.5706 976.817 98.4687 974.526 Q100.367 972.234 103.746 971.447 M102.034 964.063 Q102.034 966.748 103.7 968.252 Q105.39 969.757 108.422 969.757 Q111.432 969.757 113.121 968.252 Q114.834 966.748 114.834 964.063 Q114.834 961.378 113.121 959.873 Q111.432 958.368 108.422 958.368 Q105.39 958.368 103.7 959.873 Q102.034 961.378 102.034 964.063 Z" fill="#000000" fill-rule="evenodd" fill-opacity="1" /><path clip-path="url(#clip220)" d="M53.9088 711.469 L61.5476 711.469 L61.5476 685.103 L53.2375 686.77 L53.2375 682.51 L61.5013 680.844 L66.1772 680.844 L66.1772 711.469 L73.8161 711.469 L73.8161 715.404 L53.9088 715.404 L53.9088 711.469 Z" fill="#000000" fill-rule="evenodd" fill-opacity="1" /><path clip-path="url(#clip220)" d="M83.2605 709.524 L88.1447 709.524 L88.1447 715.404 L83.2605 715.404 L83.2605 709.524 Z" fill="#000000" fill-rule="evenodd" fill-opacity="1" /><path clip-path="url(#clip220)" d="M108.33 683.923 Q104.719 683.923 102.89 687.487 Q101.084 691.029 101.084 698.159 Q101.084 705.265 102.89 708.83 Q104.719 712.371 108.33 712.371 Q111.964 712.371 113.77 708.83 Q115.598 705.265 115.598 698.159 Q115.598 691.029 113.77 687.487 Q111.964 683.923 108.33 683.923 M108.33 680.219 Q114.14 680.219 117.195 684.825 Q120.274 689.409 120.274 698.159 Q120.274 706.885 117.195 711.492 Q114.14 716.075 108.33 716.075 Q102.52 716.075 99.4409 711.492 Q96.3854 706.885 96.3854 698.159 Q96.3854 689.409 99.4409 684.825 Q102.52 680.219 108.33 680.219 Z" fill="#000000" fill-rule="evenodd" fill-opacity="1" /><path clip-path="url(#clip220)" d="M55.506 437.023 L63.1448 437.023 L63.1448 410.657 L54.8347 412.324 L54.8347 408.065 L63.0985 406.398 L67.7744 406.398 L67.7744 437.023 L75.4133 437.023 L75.4133 440.958 L55.506 440.958 L55.506 437.023 Z" fill="#000000" fill-rule="evenodd" fill-opacity="1" /><path clip-path="url(#clip220)" d="M84.8577 435.078 L89.7419 435.078 L89.7419 440.958 L84.8577 440.958 L84.8577 435.078 Z" fill="#000000" fill-rule="evenodd" fill-opacity="1" /><path clip-path="url(#clip220)" d="M103.955 437.023 L120.274 437.023 L120.274 440.958 L98.3298 440.958 L98.3298 437.023 Q100.992 434.268 105.575 429.639 Q110.182 424.986 111.362 423.643 Q113.608 421.12 114.487 419.384 Q115.39 417.625 115.39 415.935 Q115.39 413.18 113.445 411.444 Q111.524 409.708 108.422 409.708 Q106.223 409.708 103.77 410.472 Q101.339 411.236 98.5613 412.787 L98.5613 408.065 Q101.385 406.93 103.839 406.352 Q106.293 405.773 108.33 405.773 Q113.7 405.773 116.895 408.458 Q120.089 411.143 120.089 415.634 Q120.089 417.764 119.279 419.685 Q118.492 421.583 116.385 424.176 Q115.807 424.847 112.705 428.065 Q109.603 431.259 103.955 437.023 Z" fill="#000000" fill-rule="evenodd" fill-opacity="1" /><path clip-path="url(#clip220)" d="M53.4227 162.577 L61.0615 162.577 L61.0615 136.211 L52.7514 137.878 L52.7514 133.619 L61.0152 131.952 L65.6911 131.952 L65.6911 162.577 L73.33 162.577 L73.33 166.512 L53.4227 166.512 L53.4227 162.577 Z" fill="#000000" fill-rule="evenodd" fill-opacity="1" /><path clip-path="url(#clip220)" d="M82.7744 160.633 L87.6586 160.633 L87.6586 166.512 L82.7744 166.512 L82.7744 160.633 Z" fill="#000000" fill-rule="evenodd" fill-opacity="1" /><path clip-path="url(#clip220)" d="M110.691 136.026 L98.8854 154.475 L110.691 154.475 L110.691 136.026 M109.464 131.952 L115.344 131.952 L115.344 154.475 L120.274 154.475 L120.274 158.364 L115.344 158.364 L115.344 166.512 L110.691 166.512 L110.691 158.364 L95.0891 158.364 L95.0891 153.85 L109.464 131.952 Z" fill="#000000" fill-rule="evenodd" fill-opacity="1" /><polyline clip-path="url(#clip222)" style="stroke:#009af9; stroke-linecap:round; stroke-linejoin:round; stroke-width:4; stroke-opacity:1; fill:none" points="218.439,1384.24 218.439,1384.24 219.036,1384.23 219.536,1384.2 220.111,1384.15 220.736,1384.05 221.426,1383.91 222.188,1383.7 223.029,1383.41 223.96,1383.03 224.992,1382.52 226.136,1381.84 227.407,1380.96 228.818,1379.82 230.38,1378.36 232.101,1376.51 233.978,1374.2 236.003,1371.36 238.163,1367.94 240.445,1363.88 242.836,1359.14 245.325,1353.67 247.901,1347.45 250.554,1340.43 253.278,1332.6 256.064,1323.92 258.907,1314.4 261.801,1304.01 264.741,1292.74 267.725,1280.59 270.747,1267.56 273.806,1253.65 276.899,1238.86 280.023,1223.19 283.178,1206.67 286.36,1189.29 289.57,1171.07 292.805,1152.03 296.064,1132.19 299.347,1111.57 302.652,1090.2 305.978,1068.1 309.324,1045.31 312.689,1021.87 316.072,997.798 319.472,973.149 322.888,947.962 326.318,922.284 329.762,896.161 333.218,869.646 336.686,842.789 340.163,815.646 343.65,788.271 347.145,760.721 350.647,733.055 354.155,705.329 357.668,677.599 361.186,649.919 364.708,622.348 368.235,594.941 371.764,567.756 375.295,540.848 378.828,514.273 382.363,488.086 385.898,462.34 389.433,437.088 392.968,412.381 396.501,388.27 400.034,364.804 403.564,342.029 407.092,319.992 410.617,298.737 414.138,278.307 417.655,258.742 421.166,240.082 424.67,222.365 428.167,205.625 431.655,189.897 435.132,175.213 438.596,161.601 442.043,149.089 445.469,137.7 448.871,127.454 452.242,118.367 455.574,110.449 458.856,103.701 462.076,98.1171 465.216,93.6749 468.256,90.3364 471.165,88.0404 473.908,86.6967 476.221,86.1887 476.402,86.1857 476.559,86.1882 476.837,86.1963 477.133,86.2113 477.475,86.2364 477.863,86.2753 478.304,86.3328 478.803,86.4149 479.366,86.5295 480.001,86.6864 480.714,86.8981 481.514,87.1805 482.413,87.5539 483.422,88.0444 484.557,88.686 485.836,89.5239 487.285,90.6197 488.939,92.0599 490.844,93.9709 493.06,96.5306 495.588,99.896 498.318,104.076 501.195,109.096 504.193,115.003 507.293,121.832 510.48,129.612 513.737,138.356 517.054,148.073 520.42,158.76 523.826,170.41 527.265,183.01 530.731,196.541 534.218,210.98 537.724,226.301 541.244,242.476 544.775,259.474 548.316,277.261 551.865,295.802 555.419,315.061 558.978,334.999 562.541,355.577 566.107,376.755 569.675,398.491 573.245,420.744 576.817,443.469 580.389,466.622 583.962,490.16 587.536,514.036 591.109,538.204 594.683,562.618 598.257,587.229 601.83,611.99 605.403,636.853 608.975,661.768 612.546,686.686 616.116,711.562 619.685,736.349 623.254,760.998 626.821,785.462 630.387,809.692 633.95,833.639 637.512,857.254 641.071,880.49 644.626,903.299 648.177,925.634 651.724,947.45 655.264,968.701 658.798,989.344 662.324,1009.34 665.842,1028.64 669.35,1047.21 672.846,1065.02 676.331,1082.03 679.801,1098.21 683.257,1113.54 686.695,1127.97 690.115,1141.5 693.514,1154.11 696.891,1165.76 700.242,1176.46 703.565,1186.19 706.855,1194.95 710.108,1202.72 713.319,1209.51 716.479,1215.33 719.58,1220.19 722.608,1224.1 725.548,1227.11 728.376,1229.25 731.062,1230.59 733.563,1231.22 734.1,1231.22 734.257,1231.22 734.394,1231.22 734.647,1231.21 734.918,1231.2 735.234,1231.18 735.595,1231.16 736.006,1231.12 736.474,1231.06 737.003,1230.97 737.6,1230.86 738.272,1230.7 739.027,1230.49 739.874,1230.21 740.823,1229.85 741.885,1229.38 743.076,1228.76 744.41,1227.97 745.909,1226.94 747.592,1225.62 749.48,1223.92 751.581,1221.77 753.882,1219.08 756.359,1215.81 758.984,1211.92 761.737,1207.35 764.6,1202.08 767.557,1196.08 770.596,1189.34 773.704,1181.84 776.871,1173.56 780.091,1164.52 783.354,1154.7 786.655,1144.13 789.989,1132.8 793.352,1120.72 796.739,1107.93 800.148,1094.42 803.576,1080.23 807.021,1065.37 810.481,1049.87 813.953,1033.76 817.438,1017.06 820.933,999.799 824.437,982.015 827.951,963.737 831.471,944.999 834.999,925.836 838.532,906.286 842.071,886.385 845.614,866.173 849.162,845.69 852.712,824.975 856.266,804.072 859.821,783.021 863.379,761.866 866.937,740.648 870.496,719.412 874.055,698.199 877.615,677.047 881.174,655.999 884.734,635.096 888.293,614.38 891.851,593.893 895.409,573.674 898.964,553.765 902.519,534.205 906.071,515.034 909.62,496.289 913.166,478.008 916.709,460.229 920.248,442.986 923.783,426.314 927.312,410.248 930.835,394.818 934.35,380.058 937.858,365.996 941.357,352.661 944.844,340.08 948.318,328.278 951.777,317.279 955.219,307.103 958.638,297.77 962.032,289.296 965.396,281.692 968.722,274.968 972.003,269.128 975.229,264.167 978.387,260.076 981.462,256.834 984.434,254.406 987.278,252.745 989.959,251.782 992.108,251.441 992.259,251.439 992.39,251.44 992.641,251.444 992.909,251.452 993.223,251.466 993.583,251.488 993.996,251.521 994.465,251.568 994.997,251.635 995.597,251.727 996.273,251.852 997.033,252.02 997.884,252.243 998.838,252.535 999.906,252.916 1001.1,253.411 1002.45,254.053 1003.96,254.885 1005.68,255.969 1007.65,257.393 1009.94,259.293 1012.62,261.85 1015.58,265.108 1018.71,269.03 1021.95,273.648 1025.31,278.989 1028.74,285.066 1032.25,291.886 1035.81,299.448 1039.41,307.741 1043.04,316.753 1046.7,326.464 1050.37,336.854 1054.06,347.899 1057.75,359.571 1061.45,371.842 1065.15,384.684 1068.84,398.065 1072.54,411.956 1076.23,426.323 1079.92,441.136 1083.61,456.361 1087.29,471.965 1090.96,487.917 1094.63,504.182 1098.29,520.726 1101.95,537.517 1105.6,554.521 1109.25,571.702 1112.89,589.029 1116.52,606.465 1120.15,623.977 1123.77,641.531 1127.39,659.091 1131,676.625 1134.61,694.101 1138.21,711.486 1141.81,728.748 1145.4,745.854 1148.99,762.77 1152.57,779.465 1156.15,795.905 1159.73,812.058 1163.29,827.892 1166.86,843.377 1170.42,858.481 1173.97,873.175 1177.51,887.429 1181.05,901.214 1184.57,914.504 1188.09,927.271 1191.6,939.492 1195.09,951.14 1198.58,962.195 1202.04,972.636 1205.49,982.442 1208.92,991.596 1212.33,1000.08 1215.72,1007.89 1219.07,1015 1222.4,1021.42 1225.68,1027.12 1228.92,1032.12 1232.11,1036.42 1235.24,1040.02 1238.29,1042.94 1241.25,1045.21 1244.11,1046.84 1246.82,1047.9 1249.37,1048.44 1250.34,1048.47 1250.49,1048.47 1250.61,1048.47 1250.86,1048.46 1251.13,1048.46 1251.45,1048.45 1251.81,1048.43 1252.23,1048.41 1252.71,1048.37 1253.25,1048.32 1253.86,1048.26 1254.56,1048.16 1255.33,1048.04 1256.2,1047.87 1257.17,1047.65 1258.26,1047.37 1259.48,1047 1260.83,1046.53 1262.35,1045.92 1264.07,1045.13 1266,1044.11 1268.21,1042.78 1270.75,1041.03 1273.6,1038.79 1276.67,1036.03 1279.91,1032.75 1283.27,1028.92 1286.73,1024.54 1290.27,1019.59 1293.88,1014.08 1297.54,1008.01 1301.23,1001.39 1304.96,994.229 1308.7,986.55 1312.46,978.37 1316.22,969.708 1320,960.587 1323.77,951.03 1327.54,941.061 1331.31,930.706 1335.07,919.988 1338.83,908.933 1342.58,897.568 1346.32,885.917 1350.05,874.007 1353.78,861.864 1357.5,849.514 1361.2,836.983 1364.9,824.298 1368.59,811.485 1372.28,798.57 1375.95,785.579 1379.61,772.538 1383.27,759.474 1386.92,746.412 1390.56,733.379 1394.19,720.398 1397.82,707.491 1401.43,694.686 1405.04,682.004 1408.65,669.472 1412.25,657.112 1415.84,644.949 1419.42,633.005 1422.99,621.305 1426.56,609.871 1430.12,598.726 1433.68,587.89 1437.22,577.386 1440.75,567.234 1444.28,557.454 1447.79,548.066 1451.29,539.088 1454.78,530.538 1458.25,522.433 1461.71,514.787 1465.15,507.616 1468.57,500.933 1471.96,494.75 1475.33,489.075 1478.67,483.918 1481.97,479.283 1485.23,475.175 1488.44,471.592 1491.59,468.532 1494.68,465.986 1497.69,463.941 1500.61,462.38 1503.42,461.274 1506.08,460.588 1508.57,460.275 1508.94,460.276 1509.07,460.276 1509.19,460.276 1509.44,460.278 1509.72,460.281 1510.05,460.287 1510.44,460.296 1510.89,460.31 1511.41,460.332 1512,460.362 1512.66,460.405 1513.42,460.464 1514.26,460.543 1515.21,460.648 1516.27,460.787 1517.45,460.968 1518.77,461.202 1520.24,461.504 1521.88,461.892 1523.72,462.391 1525.81,463.038 1528.2,463.885 1531.01,465.025 1534.43,466.623 1538.18,468.642 1542,471.005 1545.93,473.746 1549.94,476.869 1554.01,480.371 1558.12,484.246 1562.25,488.481 1566.39,493.062 1570.54,497.972 1574.68,503.194 1578.81,508.708 1582.93,514.495 1587.02,520.535 1591.1,526.809 1595.15,533.297 1599.18,539.98 1603.18,546.84 1607.16,553.857 1611.12,561.013 1615.05,568.291 1618.96,575.673 1622.85,583.142 1626.71,590.681 1630.56,598.274 1634.38,605.904 1638.18,613.556 1641.97,621.213 1645.73,628.861 1649.48,636.484 1653.2,644.067 1656.92,651.598 1660.61,659.063 1664.29,666.447 1667.96,673.736 1671.61,680.918 1675.25,687.979 1678.87,694.905 1682.48,701.684 1686.08,708.304 1689.66,714.75 1693.23,721.012 1696.78,727.078 1700.32,732.936 1703.85,738.575 1707.35,743.984 1710.84,749.155 1714.31,754.076 1717.77,758.739 1721.2,763.135 1724.6,767.259 1727.99,771.101 1731.34,774.658 1734.66,777.924 1737.96,780.895 1741.21,783.569 1744.42,785.945 1747.58,788.024 1750.69,789.807 1753.74,791.301 1756.71,792.51 1759.6,793.447 1762.39,794.124 1765.06,794.558 1767.59,794.774 1768.33,794.779 1768.46,794.779 1768.58,794.779 1769.69,794.778 1780.88,794.774 1801.6,794.766 1822.32,794.758 1843.05,794.75 1863.77,794.742 1884.49,794.734 1905.21,794.726 1925.93,794.719 1946.65,794.711 1967.38,794.703 1988.1,794.695 2008.82,794.687 2029.54,794.679 2050.26,794.671 2070.98,794.663 2091.7,794.655 2112.43,794.647 2133.15,794.639 2153.87,794.631 2174.59,794.623 2195.31,794.615 2216.03,794.607 2236.76,794.599 2257.48,794.591 2278.2,794.584 2290.59,794.579 "/>
<polyline clip-path="url(#clip222)" style="stroke:#0000ff; stroke-linecap:round; stroke-linejoin:round; stroke-width:4; stroke-opacity:1; fill:none" stroke-dasharray="16, 10" points="218.439,1384.24 218.439,86.1857 "/>
<polyline clip-path="url(#clip222)" style="stroke:#0000ff; stroke-linecap:round; stroke-linejoin:round; stroke-width:4; stroke-opacity:1; fill:none" stroke-dasharray="16, 10" points="476.221,1384.24 476.221,86.1857 "/>
<polyline clip-path="url(#clip222)" style="stroke:#0000ff; stroke-linecap:round; stroke-linejoin:round; stroke-width:4; stroke-opacity:1; fill:none" stroke-dasharray="16, 10" points="734.1,1384.24 734.1,86.1857 "/>
<polyline clip-path="url(#clip222)" style="stroke:#0000ff; stroke-linecap:round; stroke-linejoin:round; stroke-width:4; stroke-opacity:1; fill:none" stroke-dasharray="16, 10" points="992.108,1384.24 992.108,86.1857 "/>
<polyline clip-path="url(#clip222)" style="stroke:#0000ff; stroke-linecap:round; stroke-linejoin:round; stroke-width:4; stroke-opacity:1; fill:none" stroke-dasharray="16, 10" points="1250.34,1384.24 1250.34,86.1857 "/>
<polyline clip-path="url(#clip222)" style="stroke:#0000ff; stroke-linecap:round; stroke-linejoin:round; stroke-width:4; stroke-opacity:1; fill:none" stroke-dasharray="16, 10" points="1508.94,1384.24 1508.94,86.1857 "/>
<polyline clip-path="url(#clip222)" style="stroke:#0000ff; stroke-linecap:round; stroke-linejoin:round; stroke-width:4; stroke-opacity:1; fill:none" stroke-dasharray="16, 10" points="1768.33,1384.24 1768.33,86.1857 "/>
<path clip-path="url(#clip220)" d="M1610.52 248.629 L2279.54 248.629 L2279.54 93.1086 L1610.52 93.1086  Z" fill="#ffffff" fill-rule="evenodd" fill-opacity="1"/>
<polyline clip-path="url(#clip220)" style="stroke:#000000; stroke-linecap:round; stroke-linejoin:round; stroke-width:4; stroke-opacity:1; fill:none" points="1610.52,248.629 2279.54,248.629 2279.54,93.1086 1610.52,93.1086 1610.52,248.629 "/>
<polyline clip-path="url(#clip220)" style="stroke:#009af9; stroke-linecap:round; stroke-linejoin:round; stroke-width:4; stroke-opacity:1; fill:none" points="1634.92,144.949 1781.36,144.949 "/>
<path clip-path="url(#clip220)" d="M1826.11 141.28 Q1827.71 138.409 1829.93 137.044 Q1832.15 135.678 1835.16 135.678 Q1839.21 135.678 1841.41 138.525 Q1843.61 141.349 1843.61 146.581 L1843.61 162.229 L1839.33 162.229 L1839.33 146.719 Q1839.33 142.993 1838.01 141.187 Q1836.69 139.382 1833.98 139.382 Q1830.67 139.382 1828.75 141.581 Q1826.83 143.78 1826.83 147.576 L1826.83 162.229 L1822.54 162.229 L1822.54 146.719 Q1822.54 142.969 1821.22 141.187 Q1819.91 139.382 1817.15 139.382 Q1813.89 139.382 1811.97 141.604 Q1810.04 143.803 1810.04 147.576 L1810.04 162.229 L1805.76 162.229 L1805.76 136.303 L1810.04 136.303 L1810.04 140.331 Q1811.5 137.946 1813.54 136.812 Q1815.58 135.678 1818.38 135.678 Q1821.2 135.678 1823.17 137.113 Q1825.16 138.548 1826.11 141.28 Z" fill="#000000" fill-rule="evenodd" fill-opacity="1" /><path clip-path="url(#clip220)" d="M1863.89 149.196 Q1858.72 149.196 1856.73 150.377 Q1854.74 151.557 1854.74 154.405 Q1854.74 156.673 1856.22 158.016 Q1857.73 159.335 1860.3 159.335 Q1863.84 159.335 1865.97 156.835 Q1868.12 154.312 1868.12 150.145 L1868.12 149.196 L1863.89 149.196 M1872.38 147.437 L1872.38 162.229 L1868.12 162.229 L1868.12 158.293 Q1866.66 160.655 1864.49 161.789 Q1862.31 162.9 1859.16 162.9 Q1855.18 162.9 1852.82 160.678 Q1850.48 158.432 1850.48 154.682 Q1850.48 150.307 1853.4 148.085 Q1856.34 145.863 1862.15 145.863 L1868.12 145.863 L1868.12 145.446 Q1868.12 142.507 1866.18 140.909 Q1864.26 139.289 1860.76 139.289 Q1858.54 139.289 1856.43 139.821 Q1854.33 140.354 1852.38 141.419 L1852.38 137.483 Q1854.72 136.581 1856.92 136.141 Q1859.12 135.678 1861.2 135.678 Q1866.83 135.678 1869.6 138.594 Q1872.38 141.511 1872.38 147.437 Z" fill="#000000" fill-rule="evenodd" fill-opacity="1" /><path clip-path="url(#clip220)" d="M1897.68 137.067 L1897.68 141.094 Q1895.88 140.169 1893.93 139.706 Q1891.99 139.243 1889.9 139.243 Q1886.73 139.243 1885.14 140.215 Q1883.56 141.187 1883.56 143.131 Q1883.56 144.613 1884.7 145.469 Q1885.83 146.303 1889.26 147.067 L1890.72 147.391 Q1895.25 148.363 1897.15 150.145 Q1899.07 151.905 1899.07 155.076 Q1899.07 158.687 1896.2 160.793 Q1893.35 162.9 1888.35 162.9 Q1886.27 162.9 1884 162.483 Q1881.76 162.09 1879.26 161.28 L1879.26 156.881 Q1881.62 158.108 1883.91 158.733 Q1886.2 159.335 1888.45 159.335 Q1891.46 159.335 1893.08 158.317 Q1894.7 157.275 1894.7 155.4 Q1894.7 153.664 1893.52 152.738 Q1892.36 151.812 1888.4 150.956 L1886.92 150.608 Q1882.96 149.775 1881.2 148.062 Q1879.44 146.326 1879.44 143.317 Q1879.44 139.659 1882.03 137.669 Q1884.63 135.678 1889.4 135.678 Q1891.76 135.678 1893.84 136.025 Q1895.92 136.372 1897.68 137.067 Z" fill="#000000" fill-rule="evenodd" fill-opacity="1" /><path clip-path="url(#clip220)" d="M1922.38 137.067 L1922.38 141.094 Q1920.58 140.169 1918.63 139.706 Q1916.69 139.243 1914.6 139.243 Q1911.43 139.243 1909.84 140.215 Q1908.26 141.187 1908.26 143.131 Q1908.26 144.613 1909.4 145.469 Q1910.53 146.303 1913.96 147.067 L1915.41 147.391 Q1919.95 148.363 1921.85 150.145 Q1923.77 151.905 1923.77 155.076 Q1923.77 158.687 1920.9 160.793 Q1918.05 162.9 1913.05 162.9 Q1910.97 162.9 1908.7 162.483 Q1906.46 162.09 1903.96 161.28 L1903.96 156.881 Q1906.32 158.108 1908.61 158.733 Q1910.9 159.335 1913.15 159.335 Q1916.15 159.335 1917.78 158.317 Q1919.4 157.275 1919.4 155.4 Q1919.4 153.664 1918.22 152.738 Q1917.06 151.812 1913.1 150.956 L1911.62 150.608 Q1907.66 149.775 1905.9 148.062 Q1904.14 146.326 1904.14 143.317 Q1904.14 139.659 1906.73 137.669 Q1909.33 135.678 1914.09 135.678 Q1916.46 135.678 1918.54 136.025 Q1920.62 136.372 1922.38 137.067 Z" fill="#000000" fill-rule="evenodd" fill-opacity="1" /><path clip-path="url(#clip220)" d="M1931.15 156.349 L1936.04 156.349 L1936.04 162.229 L1931.15 162.229 L1931.15 156.349 Z" fill="#000000" fill-rule="evenodd" fill-opacity="1" /><path clip-path="url(#clip220)" d="M1962.15 137.067 L1962.15 141.094 Q1960.34 140.169 1958.4 139.706 Q1956.46 139.243 1954.37 139.243 Q1951.2 139.243 1949.6 140.215 Q1948.03 141.187 1948.03 143.131 Q1948.03 144.613 1949.16 145.469 Q1950.3 146.303 1953.72 147.067 L1955.18 147.391 Q1959.72 148.363 1961.62 150.145 Q1963.54 151.905 1963.54 155.076 Q1963.54 158.687 1960.67 160.793 Q1957.82 162.9 1952.82 162.9 Q1950.74 162.9 1948.47 162.483 Q1946.22 162.09 1943.72 161.28 L1943.72 156.881 Q1946.09 158.108 1948.38 158.733 Q1950.67 159.335 1952.91 159.335 Q1955.92 159.335 1957.54 158.317 Q1959.16 157.275 1959.16 155.4 Q1959.16 153.664 1957.98 152.738 Q1956.83 151.812 1952.87 150.956 L1951.39 150.608 Q1947.43 149.775 1945.67 148.062 Q1943.91 146.326 1943.91 143.317 Q1943.91 139.659 1946.5 137.669 Q1949.09 135.678 1953.86 135.678 Q1956.22 135.678 1958.31 136.025 Q1960.39 136.372 1962.15 137.067 Z" fill="#000000" fill-rule="evenodd" fill-opacity="1" /><path clip-path="url(#clip220)" d="M1995.62 126.257 Q1992.52 131.581 1991.02 136.789 Q1989.51 141.997 1989.51 147.344 Q1989.51 152.692 1991.02 157.946 Q1992.54 163.178 1995.62 168.479 L1991.92 168.479 Q1988.45 163.039 1986.71 157.784 Q1985 152.53 1985 147.344 Q1985 142.182 1986.71 136.951 Q1988.42 131.72 1991.92 126.257 L1995.62 126.257 Z" fill="#000000" fill-rule="evenodd" fill-opacity="1" /><path clip-path="url(#clip220)" d="M2018.65 143.594 Q2022.01 144.312 2023.89 146.581 Q2025.78 148.849 2025.78 152.182 Q2025.78 157.298 2022.27 160.099 Q2018.75 162.9 2012.27 162.9 Q2010.09 162.9 2007.77 162.46 Q2005.48 162.043 2003.03 161.187 L2003.03 156.673 Q2004.97 157.807 2007.29 158.386 Q2009.6 158.965 2012.13 158.965 Q2016.52 158.965 2018.82 157.229 Q2021.13 155.493 2021.13 152.182 Q2021.13 149.127 2018.98 147.414 Q2016.85 145.678 2013.03 145.678 L2009 145.678 L2009 141.835 L2013.21 141.835 Q2016.66 141.835 2018.49 140.469 Q2020.32 139.081 2020.32 136.488 Q2020.32 133.826 2018.42 132.414 Q2016.55 130.979 2013.03 130.979 Q2011.11 130.979 2008.91 131.395 Q2006.71 131.812 2004.07 132.692 L2004.07 128.525 Q2006.73 127.784 2009.05 127.414 Q2011.39 127.044 2013.45 127.044 Q2018.77 127.044 2021.87 129.474 Q2024.97 131.882 2024.97 136.002 Q2024.97 138.872 2023.33 140.863 Q2021.69 142.831 2018.65 143.594 Z" fill="#000000" fill-rule="evenodd" fill-opacity="1" /><path clip-path="url(#clip220)" d="M2048.82 143.594 Q2052.17 144.312 2054.05 146.581 Q2055.95 148.849 2055.95 152.182 Q2055.95 157.298 2052.43 160.099 Q2048.91 162.9 2042.43 162.9 Q2040.25 162.9 2037.94 162.46 Q2035.64 162.043 2033.19 161.187 L2033.19 156.673 Q2035.14 157.807 2037.45 158.386 Q2039.77 158.965 2042.29 158.965 Q2046.69 158.965 2048.98 157.229 Q2051.29 155.493 2051.29 152.182 Q2051.29 149.127 2049.14 147.414 Q2047.01 145.678 2043.19 145.678 L2039.16 145.678 L2039.16 141.835 L2043.38 141.835 Q2046.83 141.835 2048.65 140.469 Q2050.48 139.081 2050.48 136.488 Q2050.48 133.826 2048.58 132.414 Q2046.71 130.979 2043.19 130.979 Q2041.27 130.979 2039.07 131.395 Q2036.87 131.812 2034.23 132.692 L2034.23 128.525 Q2036.89 127.784 2039.21 127.414 Q2041.55 127.044 2043.61 127.044 Q2048.93 127.044 2052.03 129.474 Q2055.14 131.882 2055.14 136.002 Q2055.14 138.872 2053.49 140.863 Q2051.85 142.831 2048.82 143.594 Z" fill="#000000" fill-rule="evenodd" fill-opacity="1" /><path clip-path="url(#clip220)" d="M2064.86 127.669 L2083.21 127.669 L2083.21 131.604 L2069.14 131.604 L2069.14 140.076 Q2070.16 139.729 2071.18 139.567 Q2072.2 139.382 2073.21 139.382 Q2079 139.382 2082.38 142.553 Q2085.76 145.724 2085.76 151.141 Q2085.76 156.719 2082.29 159.821 Q2078.82 162.9 2072.5 162.9 Q2070.32 162.9 2068.05 162.53 Q2065.81 162.159 2063.4 161.418 L2063.4 156.719 Q2065.48 157.854 2067.7 158.409 Q2069.93 158.965 2072.4 158.965 Q2076.41 158.965 2078.75 156.858 Q2081.08 154.752 2081.08 151.141 Q2081.08 147.53 2078.75 145.423 Q2076.41 143.317 2072.4 143.317 Q2070.53 143.317 2068.65 143.733 Q2066.8 144.15 2064.86 145.03 L2064.86 127.669 Z" fill="#000000" fill-rule="evenodd" fill-opacity="1" /><path clip-path="url(#clip220)" d="M2095.02 127.669 L2113.38 127.669 L2113.38 131.604 L2099.3 131.604 L2099.3 140.076 Q2100.32 139.729 2101.34 139.567 Q2102.36 139.382 2103.38 139.382 Q2109.16 139.382 2112.54 142.553 Q2115.92 145.724 2115.92 151.141 Q2115.92 156.719 2112.45 159.821 Q2108.98 162.9 2102.66 162.9 Q2100.48 162.9 2098.21 162.53 Q2095.97 162.159 2093.56 161.418 L2093.56 156.719 Q2095.64 157.854 2097.87 158.409 Q2100.09 158.965 2102.57 158.965 Q2106.57 158.965 2108.91 156.858 Q2111.25 154.752 2111.25 151.141 Q2111.25 147.53 2108.91 145.423 Q2106.57 143.317 2102.57 143.317 Q2100.69 143.317 2098.82 143.733 Q2096.96 144.15 2095.02 145.03 L2095.02 127.669 Z" fill="#000000" fill-rule="evenodd" fill-opacity="1" /><path clip-path="url(#clip220)" d="M2137.98 131.743 L2126.18 150.192 L2137.98 150.192 L2137.98 131.743 M2136.76 127.669 L2142.64 127.669 L2142.64 150.192 L2147.57 150.192 L2147.57 154.081 L2142.64 154.081 L2142.64 162.229 L2137.98 162.229 L2137.98 154.081 L2122.38 154.081 L2122.38 149.567 L2136.76 127.669 Z" fill="#000000" fill-rule="evenodd" fill-opacity="1" /><path clip-path="url(#clip220)" d="M2168.14 131.743 L2156.34 150.192 L2168.14 150.192 L2168.14 131.743 M2166.92 127.669 L2172.8 127.669 L2172.8 150.192 L2177.73 150.192 L2177.73 154.081 L2172.8 154.081 L2172.8 162.229 L2168.14 162.229 L2168.14 154.081 L2152.54 154.081 L2152.54 149.567 L2166.92 127.669 Z" fill="#000000" fill-rule="evenodd" fill-opacity="1" /><path clip-path="url(#clip220)" d="M2199.63 143.594 Q2202.98 144.312 2204.86 146.581 Q2206.76 148.849 2206.76 152.182 Q2206.76 157.298 2203.24 160.099 Q2199.72 162.9 2193.24 162.9 Q2191.06 162.9 2188.75 162.46 Q2186.45 162.043 2184 161.187 L2184 156.673 Q2185.95 157.807 2188.26 158.386 Q2190.57 158.965 2193.1 158.965 Q2197.5 158.965 2199.79 157.229 Q2202.1 155.493 2202.1 152.182 Q2202.1 149.127 2199.95 147.414 Q2197.82 145.678 2194 145.678 L2189.97 145.678 L2189.97 141.835 L2194.19 141.835 Q2197.63 141.835 2199.46 140.469 Q2201.29 139.081 2201.29 136.488 Q2201.29 133.826 2199.39 132.414 Q2197.52 130.979 2194 130.979 Q2192.08 130.979 2189.88 131.395 Q2187.68 131.812 2185.04 132.692 L2185.04 128.525 Q2187.7 127.784 2190.02 127.414 Q2192.36 127.044 2194.42 127.044 Q2199.74 127.044 2202.84 129.474 Q2205.94 131.882 2205.94 136.002 Q2205.94 138.872 2204.3 140.863 Q2202.66 142.831 2199.63 143.594 Z" fill="#000000" fill-rule="evenodd" fill-opacity="1" /><path clip-path="url(#clip220)" d="M2219.65 158.293 L2235.97 158.293 L2235.97 162.229 L2214.02 162.229 L2214.02 158.293 Q2216.69 155.539 2221.27 150.909 Q2225.88 146.256 2227.06 144.914 Q2229.3 142.391 2230.18 140.655 Q2231.08 138.895 2231.08 137.206 Q2231.08 134.451 2229.14 132.715 Q2227.22 130.979 2224.12 130.979 Q2221.92 130.979 2219.46 131.743 Q2217.03 132.507 2214.26 134.057 L2214.26 129.335 Q2217.08 128.201 2219.53 127.622 Q2221.99 127.044 2224.02 127.044 Q2229.39 127.044 2232.59 129.729 Q2235.78 132.414 2235.78 136.905 Q2235.78 139.034 2234.97 140.956 Q2234.19 142.854 2232.08 145.446 Q2231.5 146.118 2228.4 149.335 Q2225.3 152.53 2219.65 158.293 Z" fill="#000000" fill-rule="evenodd" fill-opacity="1" /><path clip-path="url(#clip220)" d="M2244.51 126.257 L2248.21 126.257 Q2251.69 131.72 2253.4 136.951 Q2255.13 142.182 2255.13 147.344 Q2255.13 152.53 2253.4 157.784 Q2251.69 163.039 2248.21 168.479 L2244.51 168.479 Q2247.59 163.178 2249.09 157.946 Q2250.62 152.692 2250.62 147.344 Q2250.62 141.997 2249.09 136.789 Q2247.59 131.581 2244.51 126.257 Z" fill="#000000" fill-rule="evenodd" fill-opacity="1" /><polyline clip-path="url(#clip220)" style="stroke:#0000ff; stroke-linecap:round; stroke-linejoin:round; stroke-width:4; stroke-opacity:1; fill:none" stroke-dasharray="16, 10" points="1634.92,196.789 1781.36,196.789 "/>
<path clip-path="url(#clip220)" d="M1828.01 180.643 L1828.01 185.203 Q1825.35 183.93 1822.98 183.305 Q1820.62 182.68 1818.42 182.68 Q1814.6 182.68 1812.52 184.161 Q1810.46 185.643 1810.46 188.374 Q1810.46 190.666 1811.83 191.847 Q1813.22 193.004 1817.06 193.722 L1819.88 194.3 Q1825.11 195.296 1827.59 197.819 Q1830.09 200.319 1830.09 204.532 Q1830.09 209.555 1826.71 212.147 Q1823.35 214.74 1816.85 214.74 Q1814.4 214.74 1811.62 214.184 Q1808.86 213.629 1805.9 212.541 L1805.9 207.726 Q1808.75 209.323 1811.48 210.133 Q1814.21 210.944 1816.85 210.944 Q1820.85 210.944 1823.03 209.37 Q1825.21 207.796 1825.21 204.879 Q1825.21 202.333 1823.63 200.897 Q1822.08 199.462 1818.52 198.745 L1815.67 198.189 Q1810.44 197.147 1808.1 194.925 Q1805.76 192.703 1805.76 188.745 Q1805.76 184.161 1808.98 181.522 Q1812.22 178.884 1817.89 178.884 Q1820.32 178.884 1822.85 179.323 Q1825.37 179.763 1828.01 180.643 Z" fill="#000000" fill-rule="evenodd" fill-opacity="1" /><path clip-path="url(#clip220)" d="M1841.41 180.782 L1841.41 188.143 L1850.18 188.143 L1850.18 191.453 L1841.41 191.453 L1841.41 205.527 Q1841.41 208.698 1842.27 209.601 Q1843.15 210.504 1845.81 210.504 L1850.18 210.504 L1850.18 214.069 L1845.81 214.069 Q1840.88 214.069 1839 212.24 Q1837.13 210.388 1837.13 205.527 L1837.13 191.453 L1834 191.453 L1834 188.143 L1837.13 188.143 L1837.13 180.782 L1841.41 180.782 Z" fill="#000000" fill-rule="evenodd" fill-opacity="1" /><path clip-path="url(#clip220)" d="M1867.57 201.036 Q1862.41 201.036 1860.41 202.217 Q1858.42 203.397 1858.42 206.245 Q1858.42 208.513 1859.91 209.856 Q1861.41 211.175 1863.98 211.175 Q1867.52 211.175 1869.65 208.675 Q1871.8 206.152 1871.8 201.985 L1871.8 201.036 L1867.57 201.036 M1876.06 199.277 L1876.06 214.069 L1871.8 214.069 L1871.8 210.133 Q1870.34 212.495 1868.17 213.629 Q1865.99 214.74 1862.84 214.74 Q1858.86 214.74 1856.5 212.518 Q1854.16 210.272 1854.16 206.522 Q1854.16 202.147 1857.08 199.925 Q1860.02 197.703 1865.83 197.703 L1871.8 197.703 L1871.8 197.286 Q1871.8 194.347 1869.86 192.749 Q1867.94 191.129 1864.44 191.129 Q1862.22 191.129 1860.11 191.661 Q1858.01 192.194 1856.06 193.259 L1856.06 189.323 Q1858.4 188.421 1860.6 187.981 Q1862.8 187.518 1864.88 187.518 Q1870.51 187.518 1873.28 190.434 Q1876.06 193.351 1876.06 199.277 Z" fill="#000000" fill-rule="evenodd" fill-opacity="1" /><path clip-path="url(#clip220)" d="M1889.05 180.782 L1889.05 188.143 L1897.82 188.143 L1897.82 191.453 L1889.05 191.453 L1889.05 205.527 Q1889.05 208.698 1889.9 209.601 Q1890.78 210.504 1893.45 210.504 L1897.82 210.504 L1897.82 214.069 L1893.45 214.069 Q1888.52 214.069 1886.64 212.24 Q1884.77 210.388 1884.77 205.527 L1884.77 191.453 L1881.64 191.453 L1881.64 188.143 L1884.77 188.143 L1884.77 180.782 L1889.05 180.782 Z" fill="#000000" fill-rule="evenodd" fill-opacity="1" /><path clip-path="url(#clip220)" d="M1925.6 200.041 L1925.6 202.124 L1906.02 202.124 Q1906.29 206.522 1908.65 208.837 Q1911.04 211.129 1915.28 211.129 Q1917.73 211.129 1920.02 210.527 Q1922.34 209.925 1924.6 208.721 L1924.6 212.749 Q1922.31 213.721 1919.9 214.231 Q1917.5 214.74 1915.02 214.74 Q1908.82 214.74 1905.18 211.129 Q1901.57 207.518 1901.57 201.36 Q1901.57 194.995 1905 191.268 Q1908.45 187.518 1914.28 187.518 Q1919.51 187.518 1922.54 190.897 Q1925.6 194.254 1925.6 200.041 M1921.34 198.791 Q1921.29 195.296 1919.37 193.212 Q1917.47 191.129 1914.33 191.129 Q1910.76 191.129 1908.61 193.143 Q1906.48 195.157 1906.15 198.814 L1921.34 198.791 Z" fill="#000000" fill-rule="evenodd" fill-opacity="1" /><path clip-path="url(#clip220)" d="M1969.84 200.041 L1969.84 202.124 L1950.25 202.124 Q1950.53 206.522 1952.89 208.837 Q1955.27 211.129 1959.51 211.129 Q1961.96 211.129 1964.26 210.527 Q1966.57 209.925 1968.84 208.721 L1968.84 212.749 Q1966.55 213.721 1964.14 214.231 Q1961.73 214.74 1959.26 214.74 Q1953.05 214.74 1949.42 211.129 Q1945.81 207.518 1945.81 201.36 Q1945.81 194.995 1949.23 191.268 Q1952.68 187.518 1958.52 187.518 Q1963.75 187.518 1966.78 190.897 Q1969.84 194.254 1969.84 200.041 M1965.58 198.791 Q1965.53 195.296 1963.61 193.212 Q1961.71 191.129 1958.56 191.129 Q1955 191.129 1952.84 193.143 Q1950.71 195.157 1950.39 198.814 L1965.58 198.791 Z" fill="#000000" fill-rule="evenodd" fill-opacity="1" /><path clip-path="url(#clip220)" d="M1973.77 188.143 L1978.28 188.143 L1986.39 209.902 L1994.49 188.143 L1999 188.143 L1989.28 214.069 L1983.49 214.069 L1973.77 188.143 Z" fill="#000000" fill-rule="evenodd" fill-opacity="1" /><path clip-path="url(#clip220)" d="M2027.06 200.041 L2027.06 202.124 L2007.47 202.124 Q2007.75 206.522 2010.11 208.837 Q2012.5 211.129 2016.73 211.129 Q2019.19 211.129 2021.48 210.527 Q2023.79 209.925 2026.06 208.721 L2026.06 212.749 Q2023.77 213.721 2021.36 214.231 Q2018.96 214.74 2016.48 214.74 Q2010.27 214.74 2006.64 211.129 Q2003.03 207.518 2003.03 201.36 Q2003.03 194.995 2006.46 191.268 Q2009.9 187.518 2015.74 187.518 Q2020.97 187.518 2024 190.897 Q2027.06 194.254 2027.06 200.041 M2022.8 198.791 Q2022.75 195.296 2020.83 193.212 Q2018.93 191.129 2015.78 191.129 Q2012.22 191.129 2010.07 193.143 Q2007.94 195.157 2007.61 198.814 L2022.8 198.791 Z" fill="#000000" fill-rule="evenodd" fill-opacity="1" /><path clip-path="url(#clip220)" d="M2055.6 198.421 L2055.6 214.069 L2051.34 214.069 L2051.34 198.559 Q2051.34 194.879 2049.9 193.05 Q2048.47 191.222 2045.6 191.222 Q2042.15 191.222 2040.16 193.421 Q2038.17 195.62 2038.17 199.416 L2038.17 214.069 L2033.89 214.069 L2033.89 188.143 L2038.17 188.143 L2038.17 192.171 Q2039.7 189.833 2041.76 188.675 Q2043.84 187.518 2046.55 187.518 Q2051.02 187.518 2053.31 190.296 Q2055.6 193.05 2055.6 198.421 Z" fill="#000000" fill-rule="evenodd" fill-opacity="1" /><path clip-path="url(#clip220)" d="M2068.31 180.782 L2068.31 188.143 L2077.08 188.143 L2077.08 191.453 L2068.31 191.453 L2068.31 205.527 Q2068.31 208.698 2069.16 209.601 Q2070.04 210.504 2072.7 210.504 L2077.08 210.504 L2077.08 214.069 L2072.7 214.069 Q2067.77 214.069 2065.9 212.24 Q2064.02 210.388 2064.02 205.527 L2064.02 191.453 L2060.9 191.453 L2060.9 188.143 L2064.02 188.143 L2064.02 180.782 L2068.31 180.782 Z" fill="#000000" fill-rule="evenodd" fill-opacity="1" /><path clip-path="url(#clip220)" d="M2092.91 178.097 Q2089.81 183.421 2088.31 188.629 Q2086.8 193.837 2086.8 199.184 Q2086.8 204.532 2088.31 209.786 Q2089.83 215.018 2092.91 220.319 L2089.21 220.319 Q2085.74 214.879 2084 209.624 Q2082.29 204.37 2082.29 199.184 Q2082.29 194.022 2084 188.791 Q2085.71 183.56 2089.21 178.097 L2092.91 178.097 Z" fill="#000000" fill-rule="evenodd" fill-opacity="1" /><path clip-path="url(#clip220)" d="M2117.7 188.907 L2117.7 192.934 Q2115.9 192.009 2113.95 191.546 Q2112.01 191.083 2109.93 191.083 Q2106.76 191.083 2105.16 192.055 Q2103.58 193.027 2103.58 194.971 Q2103.58 196.453 2104.72 197.309 Q2105.85 198.143 2109.28 198.907 L2110.74 199.231 Q2115.27 200.203 2117.17 201.985 Q2119.09 203.745 2119.09 206.916 Q2119.09 210.527 2116.22 212.633 Q2113.38 214.74 2108.38 214.74 Q2106.29 214.74 2104.02 214.323 Q2101.78 213.93 2099.28 213.12 L2099.28 208.721 Q2101.64 209.948 2103.93 210.573 Q2106.22 211.175 2108.47 211.175 Q2111.48 211.175 2113.1 210.157 Q2114.72 209.115 2114.72 207.24 Q2114.72 205.504 2113.54 204.578 Q2112.38 203.652 2108.42 202.796 L2106.94 202.448 Q2102.98 201.615 2101.22 199.902 Q2099.46 198.166 2099.46 195.157 Q2099.46 191.499 2102.06 189.509 Q2104.65 187.518 2109.42 187.518 Q2111.78 187.518 2113.86 187.865 Q2115.95 188.212 2117.7 188.907 Z" fill="#000000" fill-rule="evenodd" fill-opacity="1" /><path clip-path="url(#clip220)" d="M2125.2 178.097 L2128.91 178.097 Q2132.38 183.56 2134.09 188.791 Q2135.83 194.022 2135.83 199.184 Q2135.83 204.37 2134.09 209.624 Q2132.38 214.879 2128.91 220.319 L2125.2 220.319 Q2128.28 215.018 2129.79 209.786 Q2131.32 204.532 2131.32 199.184 Q2131.32 193.837 2129.79 188.629 Q2128.28 183.421 2125.2 178.097 Z" fill="#000000" fill-rule="evenodd" fill-opacity="1" /></svg>
