<?xml version="1.0" encoding="utf-8"?>
<svg xmlns="http://www.w3.org/2000/svg" xmlns:xlink="http://www.w3.org/1999/xlink" width="600" height="400" viewBox="0 0 2400 1600">
<defs>
  <clipPath id="clip970">
    <rect x="0" y="0" width="2400" height="1600"/>
  </clipPath>
</defs>
<path clip-path="url(#clip970)" d="M0 1600 L2400 1600 L2400 0 L0 0  Z" fill="#ffffff" fill-rule="evenodd" fill-opacity="1"/>
<defs>
  <clipPath id="clip971">
    <rect x="480" y="0" width="1681" height="1600"/>
  </clipPath>
</defs>
<path clip-path="url(#clip970)" d="M155.765 1423.18 L2352.76 1423.18 L2352.76 47.2441 L155.765 47.2441  Z" fill="#ffffff" fill-rule="evenodd" fill-opacity="1"/>
<defs>
  <clipPath id="clip972">
    <rect x="155" y="47" width="2198" height="1377"/>
  </clipPath>
</defs>
<polyline clip-path="url(#clip972)" style="stroke:#000000; stroke-linecap:round; stroke-linejoin:round; stroke-width:2; stroke-opacity:0.1; fill:none" points="217.944,1423.18 217.944,47.2441 "/>
<polyline clip-path="url(#clip972)" style="stroke:#000000; stroke-linecap:round; stroke-linejoin:round; stroke-width:2; stroke-opacity:0.1; fill:none" points="736.102,1423.18 736.102,47.2441 "/>
<polyline clip-path="url(#clip972)" style="stroke:#000000; stroke-linecap:round; stroke-linejoin:round; stroke-width:2; stroke-opacity:0.1; fill:none" points="1254.26,1423.18 1254.26,47.2441 "/>
<polyline clip-path="url(#clip972)" style="stroke:#000000; stroke-linecap:round; stroke-linejoin:round; stroke-width:2; stroke-opacity:0.1; fill:none" points="1772.42,1423.18 1772.42,47.2441 "/>
<polyline clip-path="url(#clip972)" style="stroke:#000000; stroke-linecap:round; stroke-linejoin:round; stroke-width:2; stroke-opacity:0.1; fill:none" points="2290.58,1423.18 2290.58,47.2441 "/>
<polyline clip-path="url(#clip970)" style="stroke:#000000; stroke-linecap:round; stroke-linejoin:round; stroke-width:4; stroke-opacity:1; fill:none" points="155.765,1423.18 2352.76,1423.18 "/>
<polyline clip-path="url(#clip970)" style="stroke:#000000; stroke-linecap:round; stroke-linejoin:round; stroke-width:4; stroke-opacity:1; fill:none" points="217.944,1423.18 217.944,1404.28 "/>
<polyline clip-path="url(#clip970)" style="stroke:#000000; stroke-linecap:round; stroke-linejoin:round; stroke-width:4; stroke-opacity:1; fill:none" points="736.102,1423.18 736.102,1404.28 "/>
<polyline clip-path="url(#clip970)" style="stroke:#000000; stroke-linecap:round; stroke-linejoin:round; stroke-width:4; stroke-opacity:1; fill:none" points="1254.26,1423.18 1254.26,1404.28 "/>
<polyline clip-path="url(#clip970)" style="stroke:#000000; stroke-linecap:round; stroke-linejoin:round; stroke-width:4; stroke-opacity:1; fill:none" points="1772.42,1423.18 1772.42,1404.28 "/>
<polyline clip-path="url(#clip970)" style="stroke:#000000; stroke-linecap:round; stroke-linejoin:round; stroke-width:4; stroke-opacity:1; fill:none" points="2290.58,1423.18 2290.58,1404.28 "/>
<path clip-path="url(#clip970)" d="M217.944 1454.1 Q214.333 1454.1 212.504 1457.66 Q210.699 1461.2 210.699 1468.33 Q210.699 1475.44 212.504 1479.01 Q214.333 1482.55 217.944 1482.55 Q221.578 1482.55 223.384 1479.01 Q225.212 1475.44 225.212 1468.33 Q225.212 1461.2 223.384 1457.66 Q221.578 1454.1 217.944 1454.1 M217.944 1450.39 Q223.754 1450.39 226.81 1455 Q229.888 1459.58 229.888 1468.33 Q229.888 1477.06 226.81 1481.67 Q223.754 1486.25 217.944 1486.25 Q212.134 1486.25 209.055 1481.67 Q206 1477.06 206 1468.33 Q206 1459.58 209.055 1455 Q212.134 1450.39 217.944 1450.39 Z" fill="#000000" fill-rule="evenodd" fill-opacity="1" /><path clip-path="url(#clip970)" d="M730.755 1481.64 L747.074 1481.64 L747.074 1485.58 L725.13 1485.58 L725.13 1481.64 Q727.792 1478.89 732.375 1474.26 Q736.982 1469.61 738.162 1468.27 Q740.408 1465.74 741.287 1464.01 Q742.19 1462.25 742.19 1460.56 Q742.19 1457.8 740.246 1456.07 Q738.324 1454.33 735.223 1454.33 Q733.023 1454.33 730.57 1455.09 Q728.139 1455.86 725.361 1457.41 L725.361 1452.69 Q728.186 1451.55 730.639 1450.97 Q733.093 1450.39 735.13 1450.39 Q740.5 1450.39 743.695 1453.08 Q746.889 1455.77 746.889 1460.26 Q746.889 1462.39 746.079 1464.31 Q745.292 1466.2 743.185 1468.8 Q742.607 1469.47 739.505 1472.69 Q736.403 1475.88 730.755 1481.64 Z" fill="#000000" fill-rule="evenodd" fill-opacity="1" /><path clip-path="url(#clip970)" d="M1257.27 1455.09 L1245.46 1473.54 L1257.27 1473.54 L1257.27 1455.09 M1256.04 1451.02 L1261.92 1451.02 L1261.92 1473.54 L1266.85 1473.54 L1266.85 1477.43 L1261.92 1477.43 L1261.92 1485.58 L1257.27 1485.58 L1257.27 1477.43 L1241.67 1477.43 L1241.67 1472.92 L1256.04 1451.02 Z" fill="#000000" fill-rule="evenodd" fill-opacity="1" /><path clip-path="url(#clip970)" d="M1772.82 1466.44 Q1769.68 1466.44 1767.82 1468.59 Q1766 1470.74 1766 1474.49 Q1766 1478.22 1767.82 1480.39 Q1769.68 1482.55 1772.82 1482.55 Q1775.97 1482.55 1777.8 1480.39 Q1779.65 1478.22 1779.65 1474.49 Q1779.65 1470.74 1777.8 1468.59 Q1775.97 1466.44 1772.82 1466.44 M1782.11 1451.78 L1782.11 1456.04 Q1780.35 1455.21 1778.54 1454.77 Q1776.76 1454.33 1775 1454.33 Q1770.37 1454.33 1767.92 1457.45 Q1765.49 1460.58 1765.14 1466.9 Q1766.5 1464.89 1768.56 1463.82 Q1770.62 1462.73 1773.1 1462.73 Q1778.31 1462.73 1781.32 1465.9 Q1784.35 1469.05 1784.35 1474.49 Q1784.35 1479.82 1781.2 1483.03 Q1778.06 1486.25 1772.82 1486.25 Q1766.83 1486.25 1763.66 1481.67 Q1760.49 1477.06 1760.49 1468.33 Q1760.49 1460.14 1764.37 1455.28 Q1768.26 1450.39 1774.81 1450.39 Q1776.57 1450.39 1778.36 1450.74 Q1780.16 1451.09 1782.11 1451.78 Z" fill="#000000" fill-rule="evenodd" fill-opacity="1" /><path clip-path="url(#clip970)" d="M2290.58 1469.17 Q2287.24 1469.17 2285.32 1470.95 Q2283.42 1472.73 2283.42 1475.86 Q2283.42 1478.98 2285.32 1480.77 Q2287.24 1482.55 2290.58 1482.55 Q2293.91 1482.55 2295.83 1480.77 Q2297.75 1478.96 2297.75 1475.86 Q2297.75 1472.73 2295.83 1470.95 Q2293.93 1469.17 2290.58 1469.17 M2285.9 1467.18 Q2282.89 1466.44 2281.2 1464.38 Q2279.54 1462.32 2279.54 1459.35 Q2279.54 1455.21 2282.48 1452.8 Q2285.44 1450.39 2290.58 1450.39 Q2295.74 1450.39 2298.68 1452.8 Q2301.62 1455.21 2301.62 1459.35 Q2301.62 1462.32 2299.93 1464.38 Q2298.26 1466.44 2295.28 1467.18 Q2298.66 1467.96 2300.53 1470.26 Q2302.43 1472.55 2302.43 1475.86 Q2302.43 1480.88 2299.35 1483.57 Q2296.29 1486.25 2290.58 1486.25 Q2284.86 1486.25 2281.78 1483.57 Q2278.73 1480.88 2278.73 1475.86 Q2278.73 1472.55 2280.62 1470.26 Q2282.52 1467.96 2285.9 1467.18 M2284.19 1459.79 Q2284.19 1462.48 2285.85 1463.98 Q2287.54 1465.49 2290.58 1465.49 Q2293.59 1465.49 2295.28 1463.98 Q2296.99 1462.48 2296.99 1459.79 Q2296.99 1457.11 2295.28 1455.6 Q2293.59 1454.1 2290.58 1454.1 Q2287.54 1454.1 2285.85 1455.6 Q2284.19 1457.11 2284.19 1459.79 Z" fill="#000000" fill-rule="evenodd" fill-opacity="1" /><path clip-path="url(#clip970)" d="M1202.57 1522.27 L1202.57 1532.4 L1214.63 1532.4 L1214.63 1536.95 L1202.57 1536.95 L1202.57 1556.3 Q1202.57 1560.66 1203.75 1561.9 Q1204.96 1563.14 1208.62 1563.14 L1214.63 1563.14 L1214.63 1568.04 L1208.62 1568.04 Q1201.84 1568.04 1199.26 1565.53 Q1196.68 1562.98 1196.68 1556.3 L1196.68 1536.95 L1192.39 1536.95 L1192.39 1532.4 L1196.68 1532.4 L1196.68 1522.27 L1202.57 1522.27 Z" fill="#000000" fill-rule="evenodd" fill-opacity="1" /><path clip-path="url(#clip970)" d="M1242.52 1518.52 L1256.01 1518.52 L1256.01 1523.07 L1248.37 1523.07 L1248.37 1572.09 L1256.01 1572.09 L1256.01 1576.64 L1242.52 1576.64 L1242.52 1518.52 Z" fill="#000000" fill-rule="evenodd" fill-opacity="1" /><path clip-path="url(#clip970)" d="M1291.21 1533.45 L1291.21 1538.98 Q1288.73 1537.71 1286.06 1537.07 Q1283.38 1536.44 1280.52 1536.44 Q1276.16 1536.44 1273.96 1537.77 Q1271.8 1539.11 1271.8 1541.79 Q1271.8 1543.82 1273.36 1545 Q1274.92 1546.15 1279.63 1547.2 L1281.63 1547.64 Q1287.87 1548.98 1290.48 1551.43 Q1293.12 1553.85 1293.12 1558.21 Q1293.12 1563.17 1289.18 1566.07 Q1285.26 1568.97 1278.39 1568.97 Q1275.52 1568.97 1272.4 1568.39 Q1269.32 1567.85 1265.88 1566.74 L1265.88 1560.69 Q1269.12 1562.38 1272.28 1563.24 Q1275.43 1564.07 1278.51 1564.07 Q1282.65 1564.07 1284.88 1562.66 Q1287.11 1561.23 1287.11 1558.65 Q1287.11 1556.27 1285.48 1554.99 Q1283.89 1553.72 1278.45 1552.54 L1276.41 1552.07 Q1270.97 1550.92 1268.55 1548.56 Q1266.13 1546.18 1266.13 1542.04 Q1266.13 1537.01 1269.7 1534.27 Q1273.26 1531.54 1279.82 1531.54 Q1283.07 1531.54 1285.93 1532.01 Q1288.79 1532.49 1291.21 1533.45 Z" fill="#000000" fill-rule="evenodd" fill-opacity="1" /><path clip-path="url(#clip970)" d="M1316.14 1518.52 L1316.14 1576.64 L1302.64 1576.64 L1302.64 1572.09 L1310.25 1572.09 L1310.25 1523.07 L1302.64 1523.07 L1302.64 1518.52 L1316.14 1518.52 Z" fill="#000000" fill-rule="evenodd" fill-opacity="1" /><polyline clip-path="url(#clip972)" style="stroke:#000000; stroke-linecap:round; stroke-linejoin:round; stroke-width:2; stroke-opacity:0.1; fill:none" points="155.765,1384.24 2352.76,1384.24 "/>
<polyline clip-path="url(#clip972)" style="stroke:#000000; stroke-linecap:round; stroke-linejoin:round; stroke-width:2; stroke-opacity:0.1; fill:none" points="155.765,1112.89 2352.76,1112.89 "/>
<polyline clip-path="url(#clip972)" style="stroke:#000000; stroke-linecap:round; stroke-linejoin:round; stroke-width:2; stroke-opacity:0.1; fill:none" points="155.765,841.549 2352.76,841.549 "/>
<polyline clip-path="url(#clip972)" style="stroke:#000000; stroke-linecap:round; stroke-linejoin:round; stroke-width:2; stroke-opacity:0.1; fill:none" points="155.765,570.204 2352.76,570.204 "/>
<polyline clip-path="url(#clip972)" style="stroke:#000000; stroke-linecap:round; stroke-linejoin:round; stroke-width:2; stroke-opacity:0.1; fill:none" points="155.765,298.86 2352.76,298.86 "/>
<polyline clip-path="url(#clip970)" style="stroke:#000000; stroke-linecap:round; stroke-linejoin:round; stroke-width:4; stroke-opacity:1; fill:none" points="155.765,1423.18 155.765,47.2441 "/>
<polyline clip-path="url(#clip970)" style="stroke:#000000; stroke-linecap:round; stroke-linejoin:round; stroke-width:4; stroke-opacity:1; fill:none" points="155.765,1384.24 174.663,1384.24 "/>
<polyline clip-path="url(#clip970)" style="stroke:#000000; stroke-linecap:round; stroke-linejoin:round; stroke-width:4; stroke-opacity:1; fill:none" points="155.765,1112.89 174.663,1112.89 "/>
<polyline clip-path="url(#clip970)" style="stroke:#000000; stroke-linecap:round; stroke-linejoin:round; stroke-width:4; stroke-opacity:1; fill:none" points="155.765,841.549 174.663,841.549 "/>
<polyline clip-path="url(#clip970)" style="stroke:#000000; stroke-linecap:round; stroke-linejoin:round; stroke-width:4; stroke-opacity:1; fill:none" points="155.765,570.204 174.663,570.204 "/>
<polyline clip-path="url(#clip970)" style="stroke:#000000; stroke-linecap:round; stroke-linejoin:round; stroke-width:4; stroke-opacity:1; fill:none" points="155.765,298.86 174.663,298.86 "/>
<path clip-path="url(#clip970)" d="M63.5847 1370.04 Q59.9736 1370.04 58.1449 1373.6 Q56.3393 1377.14 56.3393 1384.27 Q56.3393 1391.38 58.1449 1394.94 Q59.9736 1398.49 63.5847 1398.49 Q67.2189 1398.49 69.0244 1394.94 Q70.8531 1391.38 70.8531 1384.27 Q70.8531 1377.14 69.0244 1373.6 Q67.2189 1370.04 63.5847 1370.04 M63.5847 1366.33 Q69.3948 1366.33 72.4503 1370.94 Q75.529 1375.52 75.529 1384.27 Q75.529 1393 72.4503 1397.61 Q69.3948 1402.19 63.5847 1402.19 Q57.7745 1402.19 54.6958 1397.61 Q51.6403 1393 51.6403 1384.27 Q51.6403 1375.52 54.6958 1370.94 Q57.7745 1366.33 63.5847 1366.33 Z" fill="#000000" fill-rule="evenodd" fill-opacity="1" /><path clip-path="url(#clip970)" d="M83.7466 1395.64 L88.6308 1395.64 L88.6308 1401.52 L83.7466 1401.52 L83.7466 1395.64 Z" fill="#000000" fill-rule="evenodd" fill-opacity="1" /><path clip-path="url(#clip970)" d="M98.8622 1366.96 L117.219 1366.96 L117.219 1370.89 L103.145 1370.89 L103.145 1379.37 Q104.163 1379.02 105.182 1378.86 Q106.2 1378.67 107.219 1378.67 Q113.006 1378.67 116.385 1381.84 Q119.765 1385.01 119.765 1390.43 Q119.765 1396.01 116.293 1399.11 Q112.82 1402.19 106.501 1402.19 Q104.325 1402.19 102.057 1401.82 Q99.8113 1401.45 97.4039 1400.71 L97.4039 1396.01 Q99.4872 1397.14 101.709 1397.7 Q103.932 1398.25 106.408 1398.25 Q110.413 1398.25 112.751 1396.15 Q115.089 1394.04 115.089 1390.43 Q115.089 1386.82 112.751 1384.71 Q110.413 1382.61 106.408 1382.61 Q104.534 1382.61 102.659 1383.02 Q100.807 1383.44 98.8622 1384.32 L98.8622 1366.96 Z" fill="#000000" fill-rule="evenodd" fill-opacity="1" /><path clip-path="url(#clip970)" d="M53.3995 1126.24 L61.0384 1126.24 L61.0384 1099.87 L52.7282 1101.54 L52.7282 1097.28 L60.9921 1095.61 L65.668 1095.61 L65.668 1126.24 L73.3068 1126.24 L73.3068 1130.17 L53.3995 1130.17 L53.3995 1126.24 Z" fill="#000000" fill-rule="evenodd" fill-opacity="1" /><path clip-path="url(#clip970)" d="M82.7512 1124.29 L87.6354 1124.29 L87.6354 1130.17 L82.7512 1130.17 L82.7512 1124.29 Z" fill="#000000" fill-rule="evenodd" fill-opacity="1" /><path clip-path="url(#clip970)" d="M107.821 1098.69 Q104.209 1098.69 102.381 1102.26 Q100.575 1105.8 100.575 1112.93 Q100.575 1120.03 102.381 1123.6 Q104.209 1127.14 107.821 1127.14 Q111.455 1127.14 113.26 1123.6 Q115.089 1120.03 115.089 1112.93 Q115.089 1105.8 113.26 1102.26 Q111.455 1098.69 107.821 1098.69 M107.821 1094.99 Q113.631 1094.99 116.686 1099.6 Q119.765 1104.18 119.765 1112.93 Q119.765 1121.66 116.686 1126.26 Q113.631 1130.84 107.821 1130.84 Q102.01 1130.84 98.9317 1126.26 Q95.8761 1121.66 95.8761 1112.93 Q95.8761 1104.18 98.9317 1099.6 Q102.01 1094.99 107.821 1094.99 Z" fill="#000000" fill-rule="evenodd" fill-opacity="1" /><path clip-path="url(#clip970)" d="M54.3949 854.894 L62.0337 854.894 L62.0337 828.528 L53.7236 830.195 L53.7236 825.936 L61.9874 824.269 L66.6633 824.269 L66.6633 854.894 L74.3022 854.894 L74.3022 858.829 L54.3949 858.829 L54.3949 854.894 Z" fill="#000000" fill-rule="evenodd" fill-opacity="1" /><path clip-path="url(#clip970)" d="M83.7466 852.949 L88.6308 852.949 L88.6308 858.829 L83.7466 858.829 L83.7466 852.949 Z" fill="#000000" fill-rule="evenodd" fill-opacity="1" /><path clip-path="url(#clip970)" d="M98.8622 824.269 L117.219 824.269 L117.219 828.204 L103.145 828.204 L103.145 836.676 Q104.163 836.329 105.182 836.167 Q106.2 835.982 107.219 835.982 Q113.006 835.982 116.385 839.153 Q119.765 842.324 119.765 847.741 Q119.765 853.32 116.293 856.422 Q112.82 859.5 106.501 859.5 Q104.325 859.5 102.057 859.13 Q99.8113 858.76 97.4039 858.019 L97.4039 853.32 Q99.4872 854.454 101.709 855.01 Q103.932 855.565 106.408 855.565 Q110.413 855.565 112.751 853.459 Q115.089 851.352 115.089 847.741 Q115.089 844.13 112.751 842.024 Q110.413 839.917 106.408 839.917 Q104.534 839.917 102.659 840.334 Q100.807 840.75 98.8622 841.63 L98.8622 824.269 Z" fill="#000000" fill-rule="evenodd" fill-opacity="1" /><path clip-path="url(#clip970)" d="M56.6171 583.549 L72.9365 583.549 L72.9365 587.484 L50.9921 587.484 L50.9921 583.549 Q53.6541 580.795 58.2375 576.165 Q62.8439 571.512 64.0245 570.17 Q66.2698 567.647 67.1494 565.91 Q68.0522 564.151 68.0522 562.461 Q68.0522 559.707 66.1078 557.971 Q64.1865 556.235 61.0847 556.235 Q58.8856 556.235 56.4319 556.998 Q54.0014 557.762 51.2236 559.313 L51.2236 554.591 Q54.0477 553.457 56.5014 552.878 Q58.955 552.299 60.9921 552.299 Q66.3624 552.299 69.5568 554.985 Q72.7513 557.67 72.7513 562.16 Q72.7513 564.29 71.9411 566.211 Q71.1541 568.11 69.0476 570.702 Q68.4689 571.373 65.367 574.591 Q62.2652 577.785 56.6171 583.549 Z" fill="#000000" fill-rule="evenodd" fill-opacity="1" /><path clip-path="url(#clip970)" d="M82.7512 581.605 L87.6354 581.605 L87.6354 587.484 L82.7512 587.484 L82.7512 581.605 Z" fill="#000000" fill-rule="evenodd" fill-opacity="1" /><path clip-path="url(#clip970)" d="M107.821 556.003 Q104.209 556.003 102.381 559.568 Q100.575 563.11 100.575 570.239 Q100.575 577.346 102.381 580.91 Q104.209 584.452 107.821 584.452 Q111.455 584.452 113.26 580.91 Q115.089 577.346 115.089 570.239 Q115.089 563.11 113.26 559.568 Q111.455 556.003 107.821 556.003 M107.821 552.299 Q113.631 552.299 116.686 556.906 Q119.765 561.489 119.765 570.239 Q119.765 578.966 116.686 583.572 Q113.631 588.156 107.821 588.156 Q102.01 588.156 98.9317 583.572 Q95.8761 578.966 95.8761 570.239 Q95.8761 561.489 98.9317 556.906 Q102.01 552.299 107.821 552.299 Z" fill="#000000" fill-rule="evenodd" fill-opacity="1" /><path clip-path="url(#clip970)" d="M57.6125 312.205 L73.9318 312.205 L73.9318 316.14 L51.9875 316.14 L51.9875 312.205 Q54.6495 309.45 59.2328 304.82 Q63.8393 300.168 65.0198 298.825 Q67.2652 296.302 68.1448 294.566 Q69.0476 292.807 69.0476 291.117 Q69.0476 288.362 67.1032 286.626 Q65.1819 284.89 62.08 284.89 Q59.881 284.89 57.4273 285.654 Q54.9967 286.418 52.219 287.969 L52.219 283.246 Q55.043 282.112 57.4967 281.533 Q59.9504 280.955 61.9874 280.955 Q67.3578 280.955 70.5522 283.64 Q73.7466 286.325 73.7466 290.816 Q73.7466 292.945 72.9365 294.867 Q72.1494 296.765 70.0429 299.357 Q69.4642 300.029 66.3624 303.246 Q63.2606 306.441 57.6125 312.205 Z" fill="#000000" fill-rule="evenodd" fill-opacity="1" /><path clip-path="url(#clip970)" d="M83.7466 310.26 L88.6308 310.26 L88.6308 316.14 L83.7466 316.14 L83.7466 310.26 Z" fill="#000000" fill-rule="evenodd" fill-opacity="1" /><path clip-path="url(#clip970)" d="M98.8622 281.58 L117.219 281.58 L117.219 285.515 L103.145 285.515 L103.145 293.987 Q104.163 293.64 105.182 293.478 Q106.2 293.293 107.219 293.293 Q113.006 293.293 116.385 296.464 Q119.765 299.635 119.765 305.052 Q119.765 310.631 116.293 313.732 Q112.82 316.811 106.501 316.811 Q104.325 316.811 102.057 316.441 Q99.8113 316.07 97.4039 315.33 L97.4039 310.631 Q99.4872 311.765 101.709 312.32 Q103.932 312.876 106.408 312.876 Q110.413 312.876 112.751 310.769 Q115.089 308.663 115.089 305.052 Q115.089 301.441 112.751 299.334 Q110.413 297.228 106.408 297.228 Q104.534 297.228 102.659 297.645 Q100.807 298.061 98.8622 298.941 L98.8622 281.58 Z" fill="#000000" fill-rule="evenodd" fill-opacity="1" /><polyline clip-path="url(#clip972)" style="stroke:#009af9; stroke-linecap:round; stroke-linejoin:round; stroke-width:4; stroke-opacity:1; fill:none" points="217.944,1384.24 217.944,1384.24 218.542,1384.24 219.042,1384.22 219.616,1384.2 220.242,1384.16 220.932,1384.11 221.694,1384.03 222.535,1383.91 223.466,1383.76 224.498,1383.56 225.643,1383.29 226.915,1382.94 228.326,1382.49 229.888,1381.91 231.609,1381.18 233.487,1380.27 235.512,1379.14 237.673,1377.79 239.956,1376.19 242.347,1374.31 244.836,1372.15 247.413,1369.69 250.067,1366.91 252.791,1363.81 255.578,1360.39 258.421,1356.62 261.316,1352.51 264.257,1348.05 267.241,1343.25 270.264,1338.09 273.324,1332.59 276.417,1326.74 279.543,1320.55 282.698,1314.01 285.881,1307.14 289.091,1299.93 292.327,1292.4 295.588,1284.56 298.871,1276.4 302.177,1267.95 305.504,1259.21 308.851,1250.2 312.216,1240.93 315.6,1231.41 319.001,1221.66 322.417,1211.7 325.848,1201.54 329.293,1191.21 332.75,1180.73 336.218,1170.11 339.697,1159.37 343.184,1148.55 346.68,1137.65 350.183,1126.71 353.691,1115.74 357.205,1104.78 360.724,1093.83 364.248,1082.93 367.774,1072.09 371.304,1061.34 374.837,1050.69 378.371,1040.18 381.906,1029.83 385.442,1019.65 388.978,1009.66 392.513,999.888 396.048,990.353 399.581,981.072 403.112,972.065 406.641,963.35 410.167,954.944 413.689,946.864 417.206,939.127 420.718,931.747 424.223,924.74 427.721,918.12 431.21,911.9 434.688,906.093 438.152,900.71 441.6,895.761 445.027,891.257 448.43,887.205 451.801,883.611 455.134,880.48 458.417,877.811 461.637,875.603 464.779,873.846 467.819,872.526 470.729,871.618 473.472,871.086 475.786,870.885 475.967,870.884 476.124,870.885 476.402,870.888 476.698,870.894 477.04,870.904 477.429,870.92 477.87,870.942 478.369,870.975 478.932,871.02 479.566,871.082 480.28,871.166 481.08,871.278 481.979,871.425 482.989,871.619 484.124,871.873 485.403,872.204 486.853,872.638 488.506,873.207 490.412,873.963 492.629,874.975 495.157,876.306 497.889,877.96 500.765,879.945 503.764,882.281 506.866,884.982 510.053,888.058 513.311,891.517 516.629,895.359 519.995,899.586 523.402,904.194 526.842,909.176 530.308,914.527 533.797,920.238 537.303,926.297 540.824,932.694 544.356,939.416 547.898,946.451 551.447,953.784 555.002,961.4 558.562,969.285 562.126,977.423 565.693,985.799 569.262,994.395 572.833,1003.2 576.405,1012.18 579.978,1021.34 583.552,1030.65 587.126,1040.09 590.701,1049.65 594.276,1059.3 597.85,1069.04 601.425,1078.83 604.998,1088.66 608.571,1098.52 612.143,1108.37 615.713,1118.21 619.284,1128.01 622.853,1137.76 626.421,1147.43 629.987,1157.02 633.552,1166.49 637.114,1175.83 640.674,1185.02 644.23,1194.04 647.782,1202.87 651.329,1211.5 654.871,1219.9 658.405,1228.07 661.932,1235.97 665.451,1243.61 668.959,1250.95 672.457,1257.99 675.942,1264.72 679.413,1271.12 682.87,1277.18 686.309,1282.89 689.73,1288.24 693.13,1293.23 696.507,1297.84 699.859,1302.07 703.182,1305.92 706.473,1309.38 709.727,1312.45 712.939,1315.14 716.1,1317.44 719.201,1319.36 722.23,1320.91 725.17,1322.1 727.999,1322.94 730.686,1323.47 733.188,1323.72 733.725,1323.72 733.881,1323.72 734.018,1323.72 734.272,1323.72 734.543,1323.72 734.859,1323.71 735.22,1323.7 735.631,1323.68 736.099,1323.66 736.628,1323.62 737.226,1323.58 737.898,1323.52 738.653,1323.43 739.5,1323.33 740.449,1323.18 741.512,1322.99 742.703,1322.75 744.037,1322.44 745.536,1322.03 747.22,1321.51 749.108,1320.84 751.21,1319.98 753.512,1318.92 755.989,1317.63 758.615,1316.09 761.368,1314.28 764.232,1312.2 767.19,1309.83 770.229,1307.16 773.337,1304.19 776.506,1300.92 779.726,1297.34 782.99,1293.46 786.292,1289.28 789.627,1284.8 792.99,1280.02 796.379,1274.96 799.788,1269.62 803.217,1264.01 806.663,1258.13 810.123,1252 813.597,1245.63 817.082,1239.03 820.578,1232.2 824.083,1225.17 827.597,1217.94 831.118,1210.53 834.647,1202.95 838.181,1195.22 841.721,1187.35 845.265,1179.35 848.813,1171.25 852.365,1163.06 855.919,1154.79 859.475,1146.47 863.033,1138.1 866.593,1129.71 870.152,1121.31 873.712,1112.92 877.273,1104.56 880.833,1096.23 884.394,1087.97 887.953,1079.77 891.513,1071.67 895.071,1063.68 898.627,1055.8 902.182,1048.07 905.735,1040.49 909.285,1033.07 912.833,1025.84 916.376,1018.81 919.916,1011.99 923.451,1005.4 926.981,999.044 930.505,992.942 934.022,987.105 937.53,981.544 941.029,976.27 944.517,971.294 947.993,966.627 951.453,962.277 954.895,958.253 958.315,954.562 961.71,951.21 965.074,948.203 968.401,945.544 971.683,943.234 974.909,941.272 978.068,939.654 981.144,938.372 984.117,937.412 986.961,936.755 989.643,936.374 991.792,936.239 991.943,936.239 992.074,936.239 992.325,936.241 992.593,936.244 992.908,936.249 993.268,936.258 993.681,936.271 994.15,936.29 994.682,936.316 995.282,936.353 995.959,936.402 996.718,936.469 997.57,936.556 998.524,936.672 999.592,936.823 1000.79,937.019 1002.13,937.272 1003.65,937.602 1005.37,938.03 1007.34,938.594 1009.63,939.345 1012.31,940.356 1015.27,941.645 1018.4,943.196 1021.65,945.022 1025,947.134 1028.44,949.538 1031.94,952.235 1035.5,955.225 1039.1,958.505 1042.74,962.069 1046.39,965.91 1050.07,970.019 1053.76,974.387 1057.45,979.003 1061.15,983.856 1064.85,988.934 1068.55,994.226 1072.24,999.72 1075.94,1005.4 1079.63,1011.26 1083.31,1017.28 1087,1023.45 1090.67,1029.76 1094.34,1036.19 1098,1042.74 1101.66,1049.38 1105.31,1056.1 1108.96,1062.9 1112.6,1069.75 1116.23,1076.64 1119.86,1083.57 1123.49,1090.51 1127.1,1097.46 1130.72,1104.39 1134.32,1111.3 1137.93,1118.18 1141.52,1125.01 1145.12,1131.77 1148.71,1138.46 1152.29,1145.06 1155.87,1151.56 1159.45,1157.95 1163.02,1164.21 1166.58,1170.34 1170.14,1176.31 1173.69,1182.12 1177.24,1187.76 1180.78,1193.21 1184.3,1198.47 1187.82,1203.52 1191.33,1208.35 1194.83,1212.96 1198.31,1217.33 1201.78,1221.46 1205.23,1225.34 1208.66,1228.96 1212.07,1232.31 1215.45,1235.4 1218.81,1238.21 1222.14,1240.75 1225.42,1243.01 1228.66,1244.98 1231.85,1246.68 1234.98,1248.11 1238.03,1249.26 1241,1250.16 1243.85,1250.81 1246.57,1251.22 1249.11,1251.44 1250.08,1251.45 1250.23,1251.45 1250.36,1251.45 1250.61,1251.45 1250.87,1251.44 1251.19,1251.44 1251.55,1251.43 1251.97,1251.42 1252.45,1251.41 1253,1251.39 1253.61,1251.36 1254.3,1251.33 1255.08,1251.28 1255.95,1251.21 1256.92,1251.13 1258.01,1251.01 1259.22,1250.87 1260.58,1250.68 1262.1,1250.44 1263.81,1250.13 1265.75,1249.72 1267.96,1249.2 1270.5,1248.51 1273.35,1247.62 1276.42,1246.53 1279.66,1245.23 1283.02,1243.72 1286.48,1241.98 1290.03,1240.03 1293.63,1237.85 1297.29,1235.45 1300.99,1232.83 1304.71,1230 1308.46,1226.96 1312.22,1223.73 1315.98,1220.3 1319.76,1216.69 1323.53,1212.91 1327.3,1208.97 1331.07,1204.88 1334.84,1200.64 1338.59,1196.26 1342.34,1191.77 1346.09,1187.16 1349.82,1182.45 1353.55,1177.65 1357.26,1172.77 1360.97,1167.81 1364.67,1162.79 1368.37,1157.73 1372.05,1152.62 1375.72,1147.48 1379.39,1142.32 1383.05,1137.16 1386.7,1131.99 1390.34,1126.84 1393.97,1121.7 1397.59,1116.6 1401.21,1111.53 1404.83,1106.52 1408.43,1101.56 1412.03,1096.67 1415.62,1091.86 1419.2,1087.14 1422.78,1082.51 1426.35,1077.99 1429.91,1073.58 1433.46,1069.3 1437.01,1065.14 1440.54,1061.13 1444.07,1057.26 1447.58,1053.55 1451.08,1050 1454.57,1046.62 1458.05,1043.41 1461.51,1040.39 1464.94,1037.55 1468.36,1034.91 1471.76,1032.46 1475.13,1030.22 1478.46,1028.18 1481.77,1026.35 1485.03,1024.72 1488.24,1023.3 1491.39,1022.09 1494.48,1021.09 1497.5,1020.28 1500.41,1019.66 1503.22,1019.22 1505.89,1018.95 1508.38,1018.83 1508.74,1018.83 1508.88,1018.83 1508.99,1018.83 1509.25,1018.83 1509.53,1018.83 1509.86,1018.83 1510.25,1018.84 1510.7,1018.84 1511.21,1018.85 1511.8,1018.86 1512.47,1018.88 1513.22,1018.9 1514.07,1018.94 1515.02,1018.98 1516.07,1019.03 1517.26,1019.1 1518.57,1019.2 1520.04,1019.32 1521.69,1019.47 1523.53,1019.67 1525.62,1019.92 1528.01,1020.26 1530.81,1020.71 1534.24,1021.34 1537.99,1022.14 1541.82,1023.07 1545.75,1024.16 1549.76,1025.39 1553.82,1026.78 1557.93,1028.31 1562.07,1029.98 1566.21,1031.8 1570.36,1033.74 1574.5,1035.8 1578.63,1037.98 1582.75,1040.27 1586.84,1042.66 1590.92,1045.14 1594.97,1047.71 1599,1050.35 1603.01,1053.06 1606.99,1055.84 1610.95,1058.67 1614.88,1061.55 1618.79,1064.47 1622.68,1067.42 1626.55,1070.4 1630.39,1073.4 1634.21,1076.42 1638.02,1079.45 1641.8,1082.48 1645.57,1085.5 1649.31,1088.52 1653.04,1091.52 1656.75,1094.49 1660.45,1097.45 1664.13,1100.37 1667.8,1103.25 1671.45,1106.09 1675.09,1108.88 1678.72,1111.62 1682.33,1114.3 1685.93,1116.92 1689.51,1119.47 1693.08,1121.95 1696.63,1124.34 1700.17,1126.66 1703.7,1128.89 1707.2,1131.03 1710.69,1133.08 1714.17,1135.02 1717.62,1136.87 1721.05,1138.6 1724.46,1140.24 1727.84,1141.75 1731.2,1143.16 1734.52,1144.45 1737.81,1145.63 1741.07,1146.69 1744.28,1147.63 1747.44,1148.45 1750.55,1149.15 1753.6,1149.74 1756.57,1150.22 1759.46,1150.59 1762.25,1150.86 1764.93,1151.03 1767.45,1151.12 1768.19,1151.12 1768.33,1151.12 1768.44,1151.12 1769.56,1151.12 1780.75,1151.12 1801.48,1151.11 1822.2,1151.11 1842.93,1151.11 1863.65,1151.1 1884.38,1151.1 1905.11,1151.1 1925.83,1151.09 1946.56,1151.09 1967.29,1151.09 1988.01,1151.09 2008.74,1151.08 2029.46,1151.08 2050.19,1151.08 2070.92,1151.07 2091.64,1151.07 2112.37,1151.07 2133.1,1151.06 2153.82,1151.06 2174.55,1151.06 2195.28,1151.05 2216,1151.05 2236.73,1151.05 2257.45,1151.04 2278.18,1151.04 2290.58,1151.04 "/>
<polyline clip-path="url(#clip972)" style="stroke:#0000ff; stroke-linecap:round; stroke-linejoin:round; stroke-width:4; stroke-opacity:1; fill:none" stroke-dasharray="16, 10" points="217.944,1384.24 217.944,870.884 "/>
<polyline clip-path="url(#clip972)" style="stroke:#0000ff; stroke-linecap:round; stroke-linejoin:round; stroke-width:4; stroke-opacity:1; fill:none" stroke-dasharray="16, 10" points="475.786,1384.24 475.786,870.884 "/>
<polyline clip-path="url(#clip972)" style="stroke:#0000ff; stroke-linecap:round; stroke-linejoin:round; stroke-width:4; stroke-opacity:1; fill:none" stroke-dasharray="16, 10" points="733.725,1384.24 733.725,870.884 "/>
<polyline clip-path="url(#clip972)" style="stroke:#0000ff; stroke-linecap:round; stroke-linejoin:round; stroke-width:4; stroke-opacity:1; fill:none" stroke-dasharray="16, 10" points="991.792,1384.24 991.792,870.884 "/>
<polyline clip-path="url(#clip972)" style="stroke:#0000ff; stroke-linecap:round; stroke-linejoin:round; stroke-width:4; stroke-opacity:1; fill:none" stroke-dasharray="16, 10" points="1250.08,1384.24 1250.08,870.884 "/>
<polyline clip-path="url(#clip972)" style="stroke:#0000ff; stroke-linecap:round; stroke-linejoin:round; stroke-width:4; stroke-opacity:1; fill:none" stroke-dasharray="16, 10" points="1508.74,1384.24 1508.74,870.884 "/>
<polyline clip-path="url(#clip972)" style="stroke:#0000ff; stroke-linecap:round; stroke-linejoin:round; stroke-width:4; stroke-opacity:1; fill:none" stroke-dasharray="16, 10" points="1768.19,1384.24 1768.19,870.884 "/>
<polyline clip-path="url(#clip972)" style="stroke:#00a98d; stroke-linecap:round; stroke-linejoin:round; stroke-width:4; stroke-opacity:1; fill:none" stroke-dasharray="16, 10" points="217.944,1112.89 217.944,1112.89 218.542,1112.89 219.042,1112.87 219.616,1112.82 220.242,1112.74 220.932,1112.63 221.694,1112.47 222.535,1112.24 223.466,1111.94 224.498,1111.53 225.643,1111 226.915,1110.3 228.326,1109.4 229.888,1108.24 231.609,1106.78 233.487,1104.95 235.512,1102.71 237.673,1100 239.956,1096.79 242.347,1093.04 244.836,1088.72 247.413,1083.79 250.067,1078.24 252.791,1072.05 255.578,1065.19 258.421,1057.65 261.316,1049.43 264.257,1040.52 267.241,1030.91 270.264,1020.61 273.324,1009.6 276.417,997.902 279.543,985.513 282.698,972.441 285.881,958.694 289.091,944.285 292.327,929.226 295.588,913.533 298.871,897.225 302.177,880.321 305.504,862.844 308.851,844.818 312.216,826.272 315.6,807.235 319.001,787.738 322.417,767.817 325.848,747.506 329.293,726.844 332.75,705.872 336.218,684.629 339.697,663.16 343.184,641.507 346.68,619.717 350.183,597.833 353.691,575.903 357.205,553.97 360.724,532.077 364.248,510.269 367.774,488.591 371.304,467.089 374.837,445.806 378.371,424.786 381.906,404.073 385.442,383.709 388.978,363.735 392.513,344.193 396.048,325.122 399.581,306.561 403.112,288.548 406.641,271.117 410.167,254.305 413.689,238.146 417.206,222.671 420.718,207.912 424.223,193.898 427.721,180.657 431.21,168.217 434.688,156.603 438.152,145.836 441.6,135.94 445.027,126.931 448.43,118.827 451.801,111.64 455.134,105.377 458.417,100.04 461.637,95.623 464.779,92.1094 467.819,89.4687 470.729,87.6527 473.472,86.5899 475.786,86.1881 475.967,86.1857 476.124,86.1877 476.402,86.1941 476.698,86.2059 477.04,86.2258 477.429,86.2566 477.87,86.302 478.369,86.367 478.932,86.4576 479.566,86.5817 480.28,86.7492 481.08,86.9726 481.979,87.2679 482.989,87.6559 484.124,88.1633 485.403,88.8261 486.853,89.6928 488.506,90.832 490.412,92.3435 492.629,94.3681 495.157,97.03 497.889,100.336 500.765,104.307 503.764,108.979 506.866,114.381 510.053,120.534 513.311,127.451 516.629,135.136 519.995,143.589 523.402,152.804 526.842,162.77 530.308,173.472 533.797,184.893 537.303,197.011 540.824,209.805 544.356,223.25 547.898,237.319 551.447,251.984 555.002,267.217 558.562,282.987 562.126,299.264 565.693,316.015 569.262,333.207 572.833,350.808 576.405,368.782 579.978,387.096 583.552,405.713 587.126,424.598 590.701,443.714 594.276,463.024 597.85,482.491 601.425,502.076 604.998,521.741 608.571,541.448 612.143,561.157 615.713,580.833 619.284,600.439 622.853,619.936 626.421,639.286 629.987,658.45 633.552,677.391 637.114,696.07 640.674,714.449 644.23,732.49 647.782,750.156 651.329,767.411 654.871,784.22 658.405,800.548 661.932,816.361 665.451,831.628 668.959,846.32 672.457,860.406 675.942,873.861 679.413,886.659 682.87,898.779 686.309,910.198 689.73,920.9 693.13,930.869 696.507,940.09 699.859,948.552 703.182,956.248 706.473,963.17 709.727,969.318 712.939,974.69 716.1,979.293 719.201,983.135 722.23,986.232 725.17,988.61 727.999,990.303 730.686,991.363 733.188,991.86 733.725,991.862 733.881,991.862 734.018,991.861 734.272,991.856 734.543,991.848 734.859,991.834 735.22,991.812 735.631,991.78 736.099,991.733 736.628,991.666 737.226,991.575 737.898,991.452 738.653,991.286 739.5,991.067 740.449,990.78 741.512,990.405 742.703,989.919 744.037,989.289 745.536,988.477 747.22,987.431 749.108,986.089 751.21,984.385 753.512,982.262 755.989,979.676 758.615,976.593 761.368,972.981 764.232,968.814 767.19,964.072 770.229,958.738 773.337,952.802 776.506,946.258 779.726,939.104 782.99,931.342 786.292,922.976 789.627,914.013 792.99,904.464 796.379,894.342 799.788,883.659 803.217,872.433 806.663,860.681 810.123,848.422 813.597,835.677 817.082,822.468 820.578,808.818 824.083,794.751 827.597,780.294 831.118,765.473 834.647,750.316 838.181,734.852 841.721,719.112 845.265,703.125 848.813,686.923 852.365,670.539 855.919,654.005 859.475,637.355 863.033,620.622 866.593,603.84 870.152,587.043 873.712,570.264 877.273,553.533 880.833,536.885 884.394,520.352 887.953,503.967 891.513,487.762 895.071,471.77 898.627,456.023 902.182,440.551 905.735,425.387 909.285,410.561 912.833,396.102 916.376,382.039 919.916,368.4 923.451,355.214 926.981,342.506 930.505,330.302 934.022,318.627 937.53,307.505 941.029,296.957 944.517,287.006 947.993,277.671 951.453,268.971 954.895,260.923 958.315,253.541 961.71,246.838 965.074,240.824 968.401,235.505 971.683,230.886 974.909,226.962 978.068,223.726 981.144,221.161 984.117,219.241 986.961,217.928 989.643,217.166 991.792,216.896 991.943,216.894 992.074,216.895 992.325,216.899 992.593,216.905 992.908,216.916 993.268,216.933 993.681,216.959 994.15,216.996 994.682,217.049 995.282,217.122 995.959,217.221 996.718,217.354 997.57,217.53 998.524,217.761 999.592,218.063 1000.79,218.454 1002.13,218.962 1003.65,219.62 1005.37,220.478 1007.34,221.604 1009.63,223.107 1012.31,225.129 1015.27,227.706 1018.4,230.808 1021.65,234.461 1025,238.685 1028.44,243.492 1031.94,248.887 1035.5,254.867 1039.1,261.427 1042.74,268.555 1046.39,276.236 1050.07,284.455 1053.76,293.19 1057.45,302.422 1061.15,312.128 1064.85,322.286 1068.55,332.87 1072.24,343.857 1075.94,355.221 1079.63,366.937 1083.31,378.979 1087,391.322 1090.67,403.939 1094.34,416.804 1098,429.89 1101.66,443.171 1105.31,456.62 1108.96,470.21 1112.6,483.914 1116.23,497.706 1119.86,511.557 1123.49,525.441 1127.1,539.331 1130.72,553.2 1134.32,567.022 1137.93,580.774 1141.52,594.427 1145.12,607.957 1148.71,621.337 1152.29,634.542 1155.87,647.545 1159.45,660.322 1163.02,672.846 1166.58,685.094 1170.14,697.041 1173.69,708.663 1177.24,719.937 1180.78,730.841 1184.3,741.352 1187.82,751.451 1191.33,761.117 1194.83,770.33 1198.31,779.075 1201.78,787.332 1205.23,795.088 1208.66,802.329 1212.07,809.042 1215.45,815.216 1218.81,820.842 1222.14,825.915 1225.42,830.43 1228.66,834.386 1231.85,837.785 1234.98,840.634 1238.03,842.944 1241,844.734 1243.85,846.028 1246.57,846.863 1249.11,847.287 1250.08,847.312 1250.23,847.313 1250.36,847.312 1250.61,847.31 1250.87,847.305 1251.19,847.298 1251.55,847.285 1251.97,847.266 1252.45,847.239 1253,847.199 1253.61,847.145 1254.3,847.071 1255.08,846.972 1255.95,846.841 1256.92,846.669 1258.01,846.444 1259.22,846.154 1260.58,845.778 1262.1,845.295 1263.81,844.671 1265.75,843.864 1267.96,842.811 1270.5,841.432 1273.35,839.658 1276.42,837.476 1279.66,834.879 1283.02,831.852 1286.48,828.386 1290.03,824.473 1293.63,820.113 1297.29,815.311 1300.99,810.074 1304.71,804.412 1308.46,798.338 1312.22,791.868 1315.98,785.016 1319.76,777.802 1323.53,770.243 1327.3,762.358 1331.07,754.167 1334.84,745.69 1338.59,736.946 1342.34,727.956 1346.09,718.741 1349.82,709.321 1353.55,699.716 1357.26,689.948 1360.97,680.037 1364.67,670.003 1368.37,659.868 1372.05,649.653 1375.72,639.378 1379.39,629.063 1383.05,618.73 1386.7,608.399 1390.34,598.09 1393.97,587.822 1397.59,577.614 1401.21,567.485 1404.83,557.454 1408.43,547.542 1412.03,537.766 1415.62,528.145 1419.2,518.698 1422.78,509.444 1426.35,500.4 1429.91,491.584 1433.46,483.014 1437.01,474.705 1440.54,466.676 1444.07,458.94 1447.58,451.515 1451.08,444.414 1454.57,437.651 1458.05,431.24 1461.51,425.192 1464.94,419.521 1468.36,414.235 1471.76,409.344 1475.13,404.855 1478.46,400.776 1481.77,397.11 1485.03,393.861 1488.24,391.027 1491.39,388.606 1494.48,386.592 1497.5,384.976 1500.41,383.74 1503.22,382.865 1505.89,382.323 1508.38,382.075 1508.74,382.076 1508.88,382.076 1508.99,382.077 1509.25,382.078 1509.53,382.08 1509.86,382.085 1510.25,382.092 1510.7,382.103 1511.21,382.12 1511.8,382.145 1512.47,382.178 1513.22,382.225 1514.07,382.288 1515.02,382.371 1516.07,382.48 1517.26,382.623 1518.57,382.809 1520.04,383.047 1521.69,383.354 1523.53,383.749 1525.62,384.261 1528.01,384.931 1530.81,385.832 1534.24,387.096 1537.99,388.694 1541.82,390.562 1545.75,392.73 1549.76,395.2 1553.82,397.971 1557.93,401.035 1562.07,404.385 1566.21,408.009 1570.36,411.892 1574.5,416.022 1578.63,420.384 1582.75,424.961 1586.84,429.739 1590.92,434.701 1594.97,439.833 1599,445.119 1603.01,450.545 1606.99,456.095 1610.95,461.755 1614.88,467.512 1618.79,473.351 1622.68,479.258 1626.55,485.221 1630.39,491.227 1634.21,497.262 1638.02,503.314 1641.8,509.371 1645.57,515.42 1649.31,521.45 1653.04,527.448 1656.75,533.405 1660.45,539.309 1664.13,545.149 1667.8,550.915 1671.45,556.595 1675.09,562.18 1678.72,567.659 1682.33,573.021 1685.93,578.256 1689.51,583.355 1693.08,588.308 1696.63,593.106 1700.17,597.739 1703.7,602.2 1707.2,606.478 1710.69,610.568 1714.17,614.46 1717.62,618.148 1721.05,621.626 1724.46,624.887 1727.84,627.927 1731.2,630.74 1734.52,633.323 1737.81,635.673 1741.07,637.788 1744.28,639.667 1747.44,641.312 1750.55,642.722 1753.6,643.903 1756.57,644.86 1759.46,645.601 1762.25,646.136 1764.93,646.48 1767.45,646.651 1768.19,646.655 1768.33,646.655 1768.44,646.655 1769.56,646.654 1780.75,646.651 1801.48,646.645 1822.2,646.638 1842.93,646.632 1863.65,646.626 1884.38,646.62 1905.11,646.613 1925.83,646.607 1946.56,646.601 1967.29,646.594 1988.01,646.588 2008.74,646.582 2029.46,646.576 2050.19,646.569 2070.92,646.563 2091.64,646.557 2112.37,646.55 2133.1,646.544 2153.82,646.538 2174.55,646.532 2195.28,646.525 2216,646.519 2236.73,646.513 2257.45,646.506 2278.18,646.5 2290.58,646.496 "/>
<polyline clip-path="url(#clip972)" style="stroke:#0000ff; stroke-linecap:round; stroke-linejoin:round; stroke-width:4; stroke-opacity:1; fill:none" stroke-dasharray="16, 10" points="217.944,1112.89 217.944,86.1857 "/>
<polyline clip-path="url(#clip972)" style="stroke:#0000ff; stroke-linecap:round; stroke-linejoin:round; stroke-width:4; stroke-opacity:1; fill:none" stroke-dasharray="16, 10" points="475.786,1112.89 475.786,86.1857 "/>
<polyline clip-path="url(#clip972)" style="stroke:#0000ff; stroke-linecap:round; stroke-linejoin:round; stroke-width:4; stroke-opacity:1; fill:none" stroke-dasharray="16, 10" points="733.725,1112.89 733.725,86.1857 "/>
<polyline clip-path="url(#clip972)" style="stroke:#0000ff; stroke-linecap:round; stroke-linejoin:round; stroke-width:4; stroke-opacity:1; fill:none" stroke-dasharray="16, 10" points="991.792,1112.89 991.792,86.1857 "/>
<polyline clip-path="url(#clip972)" style="stroke:#0000ff; stroke-linecap:round; stroke-linejoin:round; stroke-width:4; stroke-opacity:1; fill:none" stroke-dasharray="16, 10" points="1250.08,1112.89 1250.08,86.1857 "/>
<polyline clip-path="url(#clip972)" style="stroke:#0000ff; stroke-linecap:round; stroke-linejoin:round; stroke-width:4; stroke-opacity:1; fill:none" stroke-dasharray="16, 10" points="1508.74,1112.89 1508.74,86.1857 "/>
<polyline clip-path="url(#clip972)" style="stroke:#0000ff; stroke-linecap:round; stroke-linejoin:round; stroke-width:4; stroke-opacity:1; fill:none" stroke-dasharray="16, 10" points="1768.19,1112.89 1768.19,86.1857 "/>
<path clip-path="url(#clip970)" d="M1610.45 352.309 L2279.52 352.309 L2279.52 93.1086 L1610.45 93.1086  Z" fill="#ffffff" fill-rule="evenodd" fill-opacity="1"/>
<polyline clip-path="url(#clip970)" style="stroke:#000000; stroke-linecap:round; stroke-linejoin:round; stroke-width:4; stroke-opacity:1; fill:none" points="1610.45,352.309 2279.52,352.309 2279.52,93.1086 1610.45,93.1086 1610.45,352.309 "/>
<polyline clip-path="url(#clip970)" style="stroke:#009af9; stroke-linecap:round; stroke-linejoin:round; stroke-width:4; stroke-opacity:1; fill:none" points="1634.86,144.949 1781.33,144.949 "/>
<path clip-path="url(#clip970)" d="M1826.09 141.28 Q1827.68 138.409 1829.91 137.044 Q1832.13 135.678 1835.14 135.678 Q1839.19 135.678 1841.39 138.525 Q1843.59 141.349 1843.59 146.581 L1843.59 162.229 L1839.3 162.229 L1839.3 146.719 Q1839.3 142.993 1837.98 141.187 Q1836.67 139.382 1833.96 139.382 Q1830.65 139.382 1828.73 141.581 Q1826.8 143.78 1826.8 147.576 L1826.8 162.229 L1822.52 162.229 L1822.52 146.719 Q1822.52 142.969 1821.2 141.187 Q1819.88 139.382 1817.13 139.382 Q1813.86 139.382 1811.94 141.604 Q1810.02 143.803 1810.02 147.576 L1810.02 162.229 L1805.74 162.229 L1805.74 136.303 L1810.02 136.303 L1810.02 140.331 Q1811.48 137.946 1813.52 136.812 Q1815.55 135.678 1818.35 135.678 Q1821.18 135.678 1823.15 137.113 Q1825.14 138.548 1826.09 141.28 Z" fill="#000000" fill-rule="evenodd" fill-opacity="1" /><path clip-path="url(#clip970)" d="M1863.86 149.196 Q1858.7 149.196 1856.71 150.377 Q1854.72 151.557 1854.72 154.405 Q1854.72 156.673 1856.2 158.016 Q1857.71 159.335 1860.28 159.335 Q1863.82 159.335 1865.95 156.835 Q1868.1 154.312 1868.1 150.145 L1868.1 149.196 L1863.86 149.196 M1872.36 147.437 L1872.36 162.229 L1868.1 162.229 L1868.1 158.293 Q1866.64 160.655 1864.47 161.789 Q1862.29 162.9 1859.14 162.9 Q1855.16 162.9 1852.8 160.678 Q1850.46 158.432 1850.46 154.682 Q1850.46 150.307 1853.38 148.085 Q1856.32 145.863 1862.13 145.863 L1868.1 145.863 L1868.1 145.446 Q1868.1 142.507 1866.16 140.909 Q1864.23 139.289 1860.74 139.289 Q1858.52 139.289 1856.41 139.821 Q1854.3 140.354 1852.36 141.419 L1852.36 137.483 Q1854.7 136.581 1856.9 136.141 Q1859.1 135.678 1861.18 135.678 Q1866.8 135.678 1869.58 138.594 Q1872.36 141.511 1872.36 147.437 Z" fill="#000000" fill-rule="evenodd" fill-opacity="1" /><path clip-path="url(#clip970)" d="M1897.66 137.067 L1897.66 141.094 Q1895.85 140.169 1893.91 139.706 Q1891.97 139.243 1889.88 139.243 Q1886.71 139.243 1885.11 140.215 Q1883.54 141.187 1883.54 143.131 Q1883.54 144.613 1884.67 145.469 Q1885.81 146.303 1889.23 147.067 L1890.69 147.391 Q1895.23 148.363 1897.13 150.145 Q1899.05 151.905 1899.05 155.076 Q1899.05 158.687 1896.18 160.793 Q1893.33 162.9 1888.33 162.9 Q1886.25 162.9 1883.98 162.483 Q1881.73 162.09 1879.23 161.28 L1879.23 156.881 Q1881.6 158.108 1883.89 158.733 Q1886.18 159.335 1888.42 159.335 Q1891.43 159.335 1893.05 158.317 Q1894.67 157.275 1894.67 155.4 Q1894.67 153.664 1893.49 152.738 Q1892.34 151.812 1888.38 150.956 L1886.9 150.608 Q1882.94 149.775 1881.18 148.062 Q1879.42 146.326 1879.42 143.317 Q1879.42 139.659 1882.01 137.669 Q1884.6 135.678 1889.37 135.678 Q1891.73 135.678 1893.82 136.025 Q1895.9 136.372 1897.66 137.067 Z" fill="#000000" fill-rule="evenodd" fill-opacity="1" /><path clip-path="url(#clip970)" d="M1922.36 137.067 L1922.36 141.094 Q1920.55 140.169 1918.61 139.706 Q1916.66 139.243 1914.58 139.243 Q1911.41 139.243 1909.81 140.215 Q1908.24 141.187 1908.24 143.131 Q1908.24 144.613 1909.37 145.469 Q1910.51 146.303 1913.93 147.067 L1915.39 147.391 Q1919.93 148.363 1921.83 150.145 Q1923.75 151.905 1923.75 155.076 Q1923.75 158.687 1920.88 160.793 Q1918.03 162.9 1913.03 162.9 Q1910.95 162.9 1908.68 162.483 Q1906.43 162.09 1903.93 161.28 L1903.93 156.881 Q1906.29 158.108 1908.59 158.733 Q1910.88 159.335 1913.12 159.335 Q1916.13 159.335 1917.75 158.317 Q1919.37 157.275 1919.37 155.4 Q1919.37 153.664 1918.19 152.738 Q1917.03 151.812 1913.08 150.956 L1911.6 150.608 Q1907.64 149.775 1905.88 148.062 Q1904.12 146.326 1904.12 143.317 Q1904.12 139.659 1906.71 137.669 Q1909.3 135.678 1914.07 135.678 Q1916.43 135.678 1918.52 136.025 Q1920.6 136.372 1922.36 137.067 Z" fill="#000000" fill-rule="evenodd" fill-opacity="1" /><path clip-path="url(#clip970)" d="M1931.13 156.349 L1936.02 156.349 L1936.02 162.229 L1931.13 162.229 L1931.13 156.349 Z" fill="#000000" fill-rule="evenodd" fill-opacity="1" /><path clip-path="url(#clip970)" d="M1962.13 137.067 L1962.13 141.094 Q1960.32 140.169 1958.38 139.706 Q1956.43 139.243 1954.35 139.243 Q1951.18 139.243 1949.58 140.215 Q1948.01 141.187 1948.01 143.131 Q1948.01 144.613 1949.14 145.469 Q1950.28 146.303 1953.7 147.067 L1955.16 147.391 Q1959.7 148.363 1961.59 150.145 Q1963.52 151.905 1963.52 155.076 Q1963.52 158.687 1960.65 160.793 Q1957.8 162.9 1952.8 162.9 Q1950.72 162.9 1948.45 162.483 Q1946.2 162.09 1943.7 161.28 L1943.7 156.881 Q1946.06 158.108 1948.35 158.733 Q1950.65 159.335 1952.89 159.335 Q1955.9 159.335 1957.52 158.317 Q1959.14 157.275 1959.14 155.4 Q1959.14 153.664 1957.96 152.738 Q1956.8 151.812 1952.84 150.956 L1951.36 150.608 Q1947.41 149.775 1945.65 148.062 Q1943.89 146.326 1943.89 143.317 Q1943.89 139.659 1946.48 137.669 Q1949.07 135.678 1953.84 135.678 Q1956.2 135.678 1958.28 136.025 Q1960.37 136.372 1962.13 137.067 Z" fill="#000000" fill-rule="evenodd" fill-opacity="1" /><path clip-path="url(#clip970)" d="M1995.6 126.257 Q1992.5 131.581 1990.99 136.789 Q1989.49 141.997 1989.49 147.344 Q1989.49 152.692 1990.99 157.946 Q1992.52 163.178 1995.6 168.479 L1991.9 168.479 Q1988.42 163.039 1986.69 157.784 Q1984.97 152.53 1984.97 147.344 Q1984.97 142.182 1986.69 136.951 Q1988.4 131.72 1991.9 126.257 L1995.6 126.257 Z" fill="#000000" fill-rule="evenodd" fill-opacity="1" /><path clip-path="url(#clip970)" d="M2018.63 143.594 Q2021.99 144.312 2023.86 146.581 Q2025.76 148.849 2025.76 152.182 Q2025.76 157.298 2022.24 160.099 Q2018.72 162.9 2012.24 162.9 Q2010.07 162.9 2007.75 162.46 Q2005.46 162.043 2003.01 161.187 L2003.01 156.673 Q2004.95 157.807 2007.27 158.386 Q2009.58 158.965 2012.1 158.965 Q2016.5 158.965 2018.79 157.229 Q2021.11 155.493 2021.11 152.182 Q2021.11 149.127 2018.96 147.414 Q2016.83 145.678 2013.01 145.678 L2008.98 145.678 L2008.98 141.835 L2013.19 141.835 Q2016.64 141.835 2018.47 140.469 Q2020.3 139.081 2020.3 136.488 Q2020.3 133.826 2018.4 132.414 Q2016.53 130.979 2013.01 130.979 Q2011.09 130.979 2008.89 131.395 Q2006.69 131.812 2004.05 132.692 L2004.05 128.525 Q2006.71 127.784 2009.03 127.414 Q2011.36 127.044 2013.42 127.044 Q2018.75 127.044 2021.85 129.474 Q2024.95 131.882 2024.95 136.002 Q2024.95 138.872 2023.31 140.863 Q2021.66 142.831 2018.63 143.594 Z" fill="#000000" fill-rule="evenodd" fill-opacity="1" /><path clip-path="url(#clip970)" d="M2048.79 143.594 Q2052.15 144.312 2054.02 146.581 Q2055.92 148.849 2055.92 152.182 Q2055.92 157.298 2052.4 160.099 Q2048.89 162.9 2042.4 162.9 Q2040.23 162.9 2037.91 162.46 Q2035.62 162.043 2033.17 161.187 L2033.17 156.673 Q2035.11 157.807 2037.43 158.386 Q2039.74 158.965 2042.27 158.965 Q2046.66 158.965 2048.96 157.229 Q2051.27 155.493 2051.27 152.182 Q2051.27 149.127 2049.12 147.414 Q2046.99 145.678 2043.17 145.678 L2039.14 145.678 L2039.14 141.835 L2043.35 141.835 Q2046.8 141.835 2048.63 140.469 Q2050.46 139.081 2050.46 136.488 Q2050.46 133.826 2048.56 132.414 Q2046.69 130.979 2043.17 130.979 Q2041.25 130.979 2039.05 131.395 Q2036.85 131.812 2034.21 132.692 L2034.21 128.525 Q2036.87 127.784 2039.19 127.414 Q2041.53 127.044 2043.59 127.044 Q2048.91 127.044 2052.01 129.474 Q2055.11 131.882 2055.11 136.002 Q2055.11 138.872 2053.47 140.863 Q2051.83 142.831 2048.79 143.594 Z" fill="#000000" fill-rule="evenodd" fill-opacity="1" /><path clip-path="url(#clip970)" d="M2064.84 127.669 L2083.19 127.669 L2083.19 131.604 L2069.12 131.604 L2069.12 140.076 Q2070.14 139.729 2071.15 139.567 Q2072.17 139.382 2073.19 139.382 Q2078.98 139.382 2082.36 142.553 Q2085.74 145.724 2085.74 151.141 Q2085.74 156.719 2082.27 159.821 Q2078.79 162.9 2072.47 162.9 Q2070.3 162.9 2068.03 162.53 Q2065.78 162.159 2063.38 161.418 L2063.38 156.719 Q2065.46 157.854 2067.68 158.409 Q2069.9 158.965 2072.38 158.965 Q2076.39 158.965 2078.72 156.858 Q2081.06 154.752 2081.06 151.141 Q2081.06 147.53 2078.72 145.423 Q2076.39 143.317 2072.38 143.317 Q2070.51 143.317 2068.63 143.733 Q2066.78 144.15 2064.84 145.03 L2064.84 127.669 Z" fill="#000000" fill-rule="evenodd" fill-opacity="1" /><path clip-path="url(#clip970)" d="M2095 127.669 L2113.35 127.669 L2113.35 131.604 L2099.28 131.604 L2099.28 140.076 Q2100.3 139.729 2101.32 139.567 Q2102.33 139.382 2103.35 139.382 Q2109.14 139.382 2112.52 142.553 Q2115.9 145.724 2115.9 151.141 Q2115.9 156.719 2112.43 159.821 Q2108.96 162.9 2102.64 162.9 Q2100.46 162.9 2098.19 162.53 Q2095.95 162.159 2093.54 161.418 L2093.54 156.719 Q2095.62 157.854 2097.84 158.409 Q2100.07 158.965 2102.54 158.965 Q2106.55 158.965 2108.89 156.858 Q2111.22 154.752 2111.22 151.141 Q2111.22 147.53 2108.89 145.423 Q2106.55 143.317 2102.54 143.317 Q2100.67 143.317 2098.79 143.733 Q2096.94 144.15 2095 145.03 L2095 127.669 Z" fill="#000000" fill-rule="evenodd" fill-opacity="1" /><path clip-path="url(#clip970)" d="M2137.96 131.743 L2126.15 150.192 L2137.96 150.192 L2137.96 131.743 M2136.73 127.669 L2142.61 127.669 L2142.61 150.192 L2147.54 150.192 L2147.54 154.081 L2142.61 154.081 L2142.61 162.229 L2137.96 162.229 L2137.96 154.081 L2122.36 154.081 L2122.36 149.567 L2136.73 127.669 Z" fill="#000000" fill-rule="evenodd" fill-opacity="1" /><path clip-path="url(#clip970)" d="M2168.12 131.743 L2156.32 150.192 L2168.12 150.192 L2168.12 131.743 M2166.89 127.669 L2172.77 127.669 L2172.77 150.192 L2177.7 150.192 L2177.7 154.081 L2172.77 154.081 L2172.77 162.229 L2168.12 162.229 L2168.12 154.081 L2152.52 154.081 L2152.52 149.567 L2166.89 127.669 Z" fill="#000000" fill-rule="evenodd" fill-opacity="1" /><path clip-path="url(#clip970)" d="M2199.6 143.594 Q2202.96 144.312 2204.83 146.581 Q2206.73 148.849 2206.73 152.182 Q2206.73 157.298 2203.21 160.099 Q2199.7 162.9 2193.21 162.9 Q2191.04 162.9 2188.72 162.46 Q2186.43 162.043 2183.98 161.187 L2183.98 156.673 Q2185.92 157.807 2188.24 158.386 Q2190.55 158.965 2193.08 158.965 Q2197.47 158.965 2199.76 157.229 Q2202.08 155.493 2202.08 152.182 Q2202.08 149.127 2199.93 147.414 Q2197.8 145.678 2193.98 145.678 L2189.95 145.678 L2189.95 141.835 L2194.16 141.835 Q2197.61 141.835 2199.44 140.469 Q2201.27 139.081 2201.27 136.488 Q2201.27 133.826 2199.37 132.414 Q2197.5 130.979 2193.98 130.979 Q2192.06 130.979 2189.86 131.395 Q2187.66 131.812 2185.02 132.692 L2185.02 128.525 Q2187.68 127.784 2190 127.414 Q2192.33 127.044 2194.39 127.044 Q2199.72 127.044 2202.82 129.474 Q2205.92 131.882 2205.92 136.002 Q2205.92 138.872 2204.28 140.863 Q2202.64 142.831 2199.6 143.594 Z" fill="#000000" fill-rule="evenodd" fill-opacity="1" /><path clip-path="url(#clip970)" d="M2219.63 158.293 L2235.95 158.293 L2235.95 162.229 L2214 162.229 L2214 158.293 Q2216.66 155.539 2221.25 150.909 Q2225.85 146.256 2227.03 144.914 Q2229.28 142.391 2230.16 140.655 Q2231.06 138.895 2231.06 137.206 Q2231.06 134.451 2229.12 132.715 Q2227.2 130.979 2224.09 130.979 Q2221.89 130.979 2219.44 131.743 Q2217.01 132.507 2214.23 134.057 L2214.23 129.335 Q2217.06 128.201 2219.51 127.622 Q2221.96 127.044 2224 127.044 Q2229.37 127.044 2232.57 129.729 Q2235.76 132.414 2235.76 136.905 Q2235.76 139.034 2234.95 140.956 Q2234.16 142.854 2232.06 145.446 Q2231.48 146.118 2228.38 149.335 Q2225.27 152.53 2219.63 158.293 Z" fill="#000000" fill-rule="evenodd" fill-opacity="1" /><path clip-path="url(#clip970)" d="M2244.49 126.257 L2248.19 126.257 Q2251.66 131.72 2253.38 136.951 Q2255.11 142.182 2255.11 147.344 Q2255.11 152.53 2253.38 157.784 Q2251.66 163.039 2248.19 168.479 L2244.49 168.479 Q2247.57 163.178 2249.07 157.946 Q2250.6 152.692 2250.6 147.344 Q2250.6 141.997 2249.07 136.789 Q2247.57 131.581 2244.49 126.257 Z" fill="#000000" fill-rule="evenodd" fill-opacity="1" /><polyline clip-path="url(#clip970)" style="stroke:#0000ff; stroke-linecap:round; stroke-linejoin:round; stroke-width:4; stroke-opacity:1; fill:none" stroke-dasharray="16, 10" points="1634.86,196.789 1781.33,196.789 "/>
<path clip-path="url(#clip970)" d="M1827.98 180.643 L1827.98 185.203 Q1825.32 183.93 1822.96 183.305 Q1820.6 182.68 1818.4 182.68 Q1814.58 182.68 1812.5 184.161 Q1810.44 185.643 1810.44 188.374 Q1810.44 190.666 1811.8 191.847 Q1813.19 193.004 1817.04 193.722 L1819.86 194.3 Q1825.09 195.296 1827.57 197.819 Q1830.07 200.319 1830.07 204.532 Q1830.07 209.555 1826.69 212.147 Q1823.33 214.74 1816.83 214.74 Q1814.37 214.74 1811.6 214.184 Q1808.84 213.629 1805.88 212.541 L1805.88 207.726 Q1808.73 209.323 1811.46 210.133 Q1814.19 210.944 1816.83 210.944 Q1820.83 210.944 1823.01 209.37 Q1825.18 207.796 1825.18 204.879 Q1825.18 202.333 1823.61 200.897 Q1822.06 199.462 1818.49 198.745 L1815.65 198.189 Q1810.42 197.147 1808.08 194.925 Q1805.74 192.703 1805.74 188.745 Q1805.74 184.161 1808.96 181.522 Q1812.2 178.884 1817.87 178.884 Q1820.3 178.884 1822.82 179.323 Q1825.35 179.763 1827.98 180.643 Z" fill="#000000" fill-rule="evenodd" fill-opacity="1" /><path clip-path="url(#clip970)" d="M1841.39 180.782 L1841.39 188.143 L1850.16 188.143 L1850.16 191.453 L1841.39 191.453 L1841.39 205.527 Q1841.39 208.698 1842.24 209.601 Q1843.12 210.504 1845.79 210.504 L1850.16 210.504 L1850.16 214.069 L1845.79 214.069 Q1840.85 214.069 1838.98 212.24 Q1837.1 210.388 1837.1 205.527 L1837.1 191.453 L1833.98 191.453 L1833.98 188.143 L1837.1 188.143 L1837.1 180.782 L1841.39 180.782 Z" fill="#000000" fill-rule="evenodd" fill-opacity="1" /><path clip-path="url(#clip970)" d="M1867.54 201.036 Q1862.38 201.036 1860.39 202.217 Q1858.4 203.397 1858.4 206.245 Q1858.4 208.513 1859.88 209.856 Q1861.39 211.175 1863.96 211.175 Q1867.5 211.175 1869.63 208.675 Q1871.78 206.152 1871.78 201.985 L1871.78 201.036 L1867.54 201.036 M1876.04 199.277 L1876.04 214.069 L1871.78 214.069 L1871.78 210.133 Q1870.32 212.495 1868.15 213.629 Q1865.97 214.74 1862.82 214.74 Q1858.84 214.74 1856.48 212.518 Q1854.14 210.272 1854.14 206.522 Q1854.14 202.147 1857.06 199.925 Q1860 197.703 1865.81 197.703 L1871.78 197.703 L1871.78 197.286 Q1871.78 194.347 1869.84 192.749 Q1867.91 191.129 1864.42 191.129 Q1862.2 191.129 1860.09 191.661 Q1857.98 192.194 1856.04 193.259 L1856.04 189.323 Q1858.38 188.421 1860.58 187.981 Q1862.78 187.518 1864.86 187.518 Q1870.48 187.518 1873.26 190.434 Q1876.04 193.351 1876.04 199.277 Z" fill="#000000" fill-rule="evenodd" fill-opacity="1" /><path clip-path="url(#clip970)" d="M1889.03 180.782 L1889.03 188.143 L1897.8 188.143 L1897.8 191.453 L1889.03 191.453 L1889.03 205.527 Q1889.03 208.698 1889.88 209.601 Q1890.76 210.504 1893.42 210.504 L1897.8 210.504 L1897.8 214.069 L1893.42 214.069 Q1888.49 214.069 1886.62 212.24 Q1884.74 210.388 1884.74 205.527 L1884.74 191.453 L1881.62 191.453 L1881.62 188.143 L1884.74 188.143 L1884.74 180.782 L1889.03 180.782 Z" fill="#000000" fill-rule="evenodd" fill-opacity="1" /><path clip-path="url(#clip970)" d="M1925.58 200.041 L1925.58 202.124 L1905.99 202.124 Q1906.27 206.522 1908.63 208.837 Q1911.02 211.129 1915.25 211.129 Q1917.71 211.129 1920 210.527 Q1922.31 209.925 1924.58 208.721 L1924.58 212.749 Q1922.29 213.721 1919.88 214.231 Q1917.47 214.74 1915 214.74 Q1908.79 214.74 1905.16 211.129 Q1901.55 207.518 1901.55 201.36 Q1901.55 194.995 1904.97 191.268 Q1908.42 187.518 1914.26 187.518 Q1919.49 187.518 1922.52 190.897 Q1925.58 194.254 1925.58 200.041 M1921.32 198.791 Q1921.27 195.296 1919.35 193.212 Q1917.45 191.129 1914.3 191.129 Q1910.74 191.129 1908.59 193.143 Q1906.46 195.157 1906.13 198.814 L1921.32 198.791 Z" fill="#000000" fill-rule="evenodd" fill-opacity="1" /><path clip-path="url(#clip970)" d="M1969.81 200.041 L1969.81 202.124 L1950.23 202.124 Q1950.51 206.522 1952.87 208.837 Q1955.25 211.129 1959.49 211.129 Q1961.94 211.129 1964.23 210.527 Q1966.55 209.925 1968.82 208.721 L1968.82 212.749 Q1966.53 213.721 1964.12 214.231 Q1961.71 214.74 1959.23 214.74 Q1953.03 214.74 1949.4 211.129 Q1945.78 207.518 1945.78 201.36 Q1945.78 194.995 1949.21 191.268 Q1952.66 187.518 1958.49 187.518 Q1963.72 187.518 1966.76 190.897 Q1969.81 194.254 1969.81 200.041 M1965.55 198.791 Q1965.51 195.296 1963.59 193.212 Q1961.69 191.129 1958.54 191.129 Q1954.97 191.129 1952.82 193.143 Q1950.69 195.157 1950.37 198.814 L1965.55 198.791 Z" fill="#000000" fill-rule="evenodd" fill-opacity="1" /><path clip-path="url(#clip970)" d="M1973.75 188.143 L1978.26 188.143 L1986.36 209.902 L1994.47 188.143 L1998.98 188.143 L1989.26 214.069 L1983.47 214.069 L1973.75 188.143 Z" fill="#000000" fill-rule="evenodd" fill-opacity="1" /><path clip-path="url(#clip970)" d="M2027.03 200.041 L2027.03 202.124 L2007.45 202.124 Q2007.73 206.522 2010.09 208.837 Q2012.47 211.129 2016.71 211.129 Q2019.16 211.129 2021.46 210.527 Q2023.77 209.925 2026.04 208.721 L2026.04 212.749 Q2023.75 213.721 2021.34 214.231 Q2018.93 214.74 2016.46 214.74 Q2010.25 214.74 2006.62 211.129 Q2003.01 207.518 2003.01 201.36 Q2003.01 194.995 2006.43 191.268 Q2009.88 187.518 2015.71 187.518 Q2020.95 187.518 2023.98 190.897 Q2027.03 194.254 2027.03 200.041 M2022.78 198.791 Q2022.73 195.296 2020.81 193.212 Q2018.91 191.129 2015.76 191.129 Q2012.2 191.129 2010.04 193.143 Q2007.91 195.157 2007.59 198.814 L2022.78 198.791 Z" fill="#000000" fill-rule="evenodd" fill-opacity="1" /><path clip-path="url(#clip970)" d="M2055.58 198.421 L2055.58 214.069 L2051.32 214.069 L2051.32 198.559 Q2051.32 194.879 2049.88 193.05 Q2048.45 191.222 2045.58 191.222 Q2042.13 191.222 2040.14 193.421 Q2038.15 195.62 2038.15 199.416 L2038.15 214.069 L2033.86 214.069 L2033.86 188.143 L2038.15 188.143 L2038.15 192.171 Q2039.67 189.833 2041.73 188.675 Q2043.82 187.518 2046.53 187.518 Q2050.99 187.518 2053.28 190.296 Q2055.58 193.05 2055.58 198.421 Z" fill="#000000" fill-rule="evenodd" fill-opacity="1" /><path clip-path="url(#clip970)" d="M2068.28 180.782 L2068.28 188.143 L2077.06 188.143 L2077.06 191.453 L2068.28 191.453 L2068.28 205.527 Q2068.28 208.698 2069.14 209.601 Q2070.02 210.504 2072.68 210.504 L2077.06 210.504 L2077.06 214.069 L2072.68 214.069 Q2067.75 214.069 2065.88 212.24 Q2064 210.388 2064 205.527 L2064 191.453 L2060.88 191.453 L2060.88 188.143 L2064 188.143 L2064 180.782 L2068.28 180.782 Z" fill="#000000" fill-rule="evenodd" fill-opacity="1" /><path clip-path="url(#clip970)" d="M2092.89 178.097 Q2089.79 183.421 2088.28 188.629 Q2086.78 193.837 2086.78 199.184 Q2086.78 204.532 2088.28 209.786 Q2089.81 215.018 2092.89 220.319 L2089.19 220.319 Q2085.71 214.879 2083.98 209.624 Q2082.27 204.37 2082.27 199.184 Q2082.27 194.022 2083.98 188.791 Q2085.69 183.56 2089.19 178.097 L2092.89 178.097 Z" fill="#000000" fill-rule="evenodd" fill-opacity="1" /><path clip-path="url(#clip970)" d="M2117.68 188.907 L2117.68 192.934 Q2115.88 192.009 2113.93 191.546 Q2111.99 191.083 2109.9 191.083 Q2106.73 191.083 2105.14 192.055 Q2103.56 193.027 2103.56 194.971 Q2103.56 196.453 2104.7 197.309 Q2105.83 198.143 2109.26 198.907 L2110.71 199.231 Q2115.25 200.203 2117.15 201.985 Q2119.07 203.745 2119.07 206.916 Q2119.07 210.527 2116.2 212.633 Q2113.35 214.74 2108.35 214.74 Q2106.27 214.74 2104 214.323 Q2101.76 213.93 2099.26 213.12 L2099.26 208.721 Q2101.62 209.948 2103.91 210.573 Q2106.2 211.175 2108.45 211.175 Q2111.46 211.175 2113.08 210.157 Q2114.7 209.115 2114.7 207.24 Q2114.7 205.504 2113.52 204.578 Q2112.36 203.652 2108.4 202.796 L2106.92 202.448 Q2102.96 201.615 2101.2 199.902 Q2099.44 198.166 2099.44 195.157 Q2099.44 191.499 2102.03 189.509 Q2104.63 187.518 2109.4 187.518 Q2111.76 187.518 2113.84 187.865 Q2115.92 188.212 2117.68 188.907 Z" fill="#000000" fill-rule="evenodd" fill-opacity="1" /><path clip-path="url(#clip970)" d="M2125.18 178.097 L2128.89 178.097 Q2132.36 183.56 2134.07 188.791 Q2135.81 194.022 2135.81 199.184 Q2135.81 204.37 2134.07 209.624 Q2132.36 214.879 2128.89 220.319 L2125.18 220.319 Q2128.26 215.018 2129.77 209.786 Q2131.29 204.532 2131.29 199.184 Q2131.29 193.837 2129.77 188.629 Q2128.26 183.421 2125.18 178.097 Z" fill="#000000" fill-rule="evenodd" fill-opacity="1" /><polyline clip-path="url(#clip970)" style="stroke:#00a98d; stroke-linecap:round; stroke-linejoin:round; stroke-width:4; stroke-opacity:1; fill:none" stroke-dasharray="16, 10" points="1634.86,248.629 1781.33,248.629 "/>
<path clip-path="url(#clip970)" d="M1826.09 244.96 Q1827.68 242.089 1829.91 240.724 Q1832.13 239.358 1835.14 239.358 Q1839.19 239.358 1841.39 242.205 Q1843.59 245.029 1843.59 250.261 L1843.59 265.909 L1839.3 265.909 L1839.3 250.399 Q1839.3 246.673 1837.98 244.867 Q1836.67 243.062 1833.96 243.062 Q1830.65 243.062 1828.73 245.261 Q1826.8 247.46 1826.8 251.256 L1826.8 265.909 L1822.52 265.909 L1822.52 250.399 Q1822.52 246.649 1821.2 244.867 Q1819.88 243.062 1817.13 243.062 Q1813.86 243.062 1811.94 245.284 Q1810.02 247.483 1810.02 251.256 L1810.02 265.909 L1805.74 265.909 L1805.74 239.983 L1810.02 239.983 L1810.02 244.011 Q1811.48 241.626 1813.52 240.492 Q1815.55 239.358 1818.35 239.358 Q1821.18 239.358 1823.15 240.793 Q1825.14 242.228 1826.09 244.96 Z" fill="#000000" fill-rule="evenodd" fill-opacity="1" /><path clip-path="url(#clip970)" d="M1863.86 252.876 Q1858.7 252.876 1856.71 254.057 Q1854.72 255.237 1854.72 258.085 Q1854.72 260.353 1856.2 261.696 Q1857.71 263.015 1860.28 263.015 Q1863.82 263.015 1865.95 260.515 Q1868.1 257.992 1868.1 253.825 L1868.1 252.876 L1863.86 252.876 M1872.36 251.117 L1872.36 265.909 L1868.1 265.909 L1868.1 261.973 Q1866.64 264.335 1864.47 265.469 Q1862.29 266.58 1859.14 266.58 Q1855.16 266.58 1852.8 264.358 Q1850.46 262.112 1850.46 258.362 Q1850.46 253.987 1853.38 251.765 Q1856.32 249.543 1862.13 249.543 L1868.1 249.543 L1868.1 249.126 Q1868.1 246.187 1866.16 244.589 Q1864.23 242.969 1860.74 242.969 Q1858.52 242.969 1856.41 243.501 Q1854.3 244.034 1852.36 245.099 L1852.36 241.163 Q1854.7 240.261 1856.9 239.821 Q1859.1 239.358 1861.18 239.358 Q1866.8 239.358 1869.58 242.274 Q1872.36 245.191 1872.36 251.117 Z" fill="#000000" fill-rule="evenodd" fill-opacity="1" /><path clip-path="url(#clip970)" d="M1897.66 240.747 L1897.66 244.774 Q1895.85 243.849 1893.91 243.386 Q1891.97 242.923 1889.88 242.923 Q1886.71 242.923 1885.11 243.895 Q1883.54 244.867 1883.54 246.811 Q1883.54 248.293 1884.67 249.149 Q1885.81 249.983 1889.23 250.747 L1890.69 251.071 Q1895.23 252.043 1897.13 253.825 Q1899.05 255.585 1899.05 258.756 Q1899.05 262.367 1896.18 264.473 Q1893.33 266.58 1888.33 266.58 Q1886.25 266.58 1883.98 266.163 Q1881.73 265.77 1879.23 264.96 L1879.23 260.561 Q1881.6 261.788 1883.89 262.413 Q1886.18 263.015 1888.42 263.015 Q1891.43 263.015 1893.05 261.997 Q1894.67 260.955 1894.67 259.08 Q1894.67 257.344 1893.49 256.418 Q1892.34 255.492 1888.38 254.636 L1886.9 254.288 Q1882.94 253.455 1881.18 251.742 Q1879.42 250.006 1879.42 246.997 Q1879.42 243.339 1882.01 241.349 Q1884.6 239.358 1889.37 239.358 Q1891.73 239.358 1893.82 239.705 Q1895.9 240.052 1897.66 240.747 Z" fill="#000000" fill-rule="evenodd" fill-opacity="1" /><path clip-path="url(#clip970)" d="M1922.36 240.747 L1922.36 244.774 Q1920.55 243.849 1918.61 243.386 Q1916.66 242.923 1914.58 242.923 Q1911.41 242.923 1909.81 243.895 Q1908.24 244.867 1908.24 246.811 Q1908.24 248.293 1909.37 249.149 Q1910.51 249.983 1913.93 250.747 L1915.39 251.071 Q1919.93 252.043 1921.83 253.825 Q1923.75 255.585 1923.75 258.756 Q1923.75 262.367 1920.88 264.473 Q1918.03 266.58 1913.03 266.58 Q1910.95 266.58 1908.68 266.163 Q1906.43 265.77 1903.93 264.96 L1903.93 260.561 Q1906.29 261.788 1908.59 262.413 Q1910.88 263.015 1913.12 263.015 Q1916.13 263.015 1917.75 261.997 Q1919.37 260.955 1919.37 259.08 Q1919.37 257.344 1918.19 256.418 Q1917.03 255.492 1913.08 254.636 L1911.6 254.288 Q1907.64 253.455 1905.88 251.742 Q1904.12 250.006 1904.12 246.997 Q1904.12 243.339 1906.71 241.349 Q1909.3 239.358 1914.07 239.358 Q1916.43 239.358 1918.52 239.705 Q1920.6 240.052 1922.36 240.747 Z" fill="#000000" fill-rule="evenodd" fill-opacity="1" /><path clip-path="url(#clip970)" d="M1931.13 260.029 L1936.02 260.029 L1936.02 265.909 L1931.13 265.909 L1931.13 260.029 Z" fill="#000000" fill-rule="evenodd" fill-opacity="1" /><path clip-path="url(#clip970)" d="M1962.13 240.747 L1962.13 244.774 Q1960.32 243.849 1958.38 243.386 Q1956.43 242.923 1954.35 242.923 Q1951.18 242.923 1949.58 243.895 Q1948.01 244.867 1948.01 246.811 Q1948.01 248.293 1949.14 249.149 Q1950.28 249.983 1953.7 250.747 L1955.16 251.071 Q1959.7 252.043 1961.59 253.825 Q1963.52 255.585 1963.52 258.756 Q1963.52 262.367 1960.65 264.473 Q1957.8 266.58 1952.8 266.58 Q1950.72 266.58 1948.45 266.163 Q1946.2 265.77 1943.7 264.96 L1943.7 260.561 Q1946.06 261.788 1948.35 262.413 Q1950.65 263.015 1952.89 263.015 Q1955.9 263.015 1957.52 261.997 Q1959.14 260.955 1959.14 259.08 Q1959.14 257.344 1957.96 256.418 Q1956.8 255.492 1952.84 254.636 L1951.36 254.288 Q1947.41 253.455 1945.65 251.742 Q1943.89 250.006 1943.89 246.997 Q1943.89 243.339 1946.48 241.349 Q1949.07 239.358 1953.84 239.358 Q1956.2 239.358 1958.28 239.705 Q1960.37 240.052 1962.13 240.747 Z" fill="#000000" fill-rule="evenodd" fill-opacity="1" /><path clip-path="url(#clip970)" d="M1995.6 229.937 Q1992.5 235.261 1990.99 240.469 Q1989.49 245.677 1989.49 251.024 Q1989.49 256.372 1990.99 261.626 Q1992.52 266.858 1995.6 272.159 L1991.9 272.159 Q1988.42 266.719 1986.69 261.464 Q1984.97 256.21 1984.97 251.024 Q1984.97 245.862 1986.69 240.631 Q1988.4 235.4 1991.9 229.937 L1995.6 229.937 Z" fill="#000000" fill-rule="evenodd" fill-opacity="1" /><path clip-path="url(#clip970)" d="M2018.63 247.274 Q2021.99 247.992 2023.86 250.261 Q2025.76 252.529 2025.76 255.862 Q2025.76 260.978 2022.24 263.779 Q2018.72 266.58 2012.24 266.58 Q2010.07 266.58 2007.75 266.14 Q2005.46 265.723 2003.01 264.867 L2003.01 260.353 Q2004.95 261.487 2007.27 262.066 Q2009.58 262.645 2012.1 262.645 Q2016.5 262.645 2018.79 260.909 Q2021.11 259.173 2021.11 255.862 Q2021.11 252.807 2018.96 251.094 Q2016.83 249.358 2013.01 249.358 L2008.98 249.358 L2008.98 245.515 L2013.19 245.515 Q2016.64 245.515 2018.47 244.149 Q2020.3 242.761 2020.3 240.168 Q2020.3 237.506 2018.4 236.094 Q2016.53 234.659 2013.01 234.659 Q2011.09 234.659 2008.89 235.075 Q2006.69 235.492 2004.05 236.372 L2004.05 232.205 Q2006.71 231.464 2009.03 231.094 Q2011.36 230.724 2013.42 230.724 Q2018.75 230.724 2021.85 233.154 Q2024.95 235.562 2024.95 239.682 Q2024.95 242.552 2023.31 244.543 Q2021.66 246.511 2018.63 247.274 Z" fill="#000000" fill-rule="evenodd" fill-opacity="1" /><path clip-path="url(#clip970)" d="M2048.79 247.274 Q2052.15 247.992 2054.02 250.261 Q2055.92 252.529 2055.92 255.862 Q2055.92 260.978 2052.4 263.779 Q2048.89 266.58 2042.4 266.58 Q2040.23 266.58 2037.91 266.14 Q2035.62 265.723 2033.17 264.867 L2033.17 260.353 Q2035.11 261.487 2037.43 262.066 Q2039.74 262.645 2042.27 262.645 Q2046.66 262.645 2048.96 260.909 Q2051.27 259.173 2051.27 255.862 Q2051.27 252.807 2049.12 251.094 Q2046.99 249.358 2043.17 249.358 L2039.14 249.358 L2039.14 245.515 L2043.35 245.515 Q2046.8 245.515 2048.63 244.149 Q2050.46 242.761 2050.46 240.168 Q2050.46 237.506 2048.56 236.094 Q2046.69 234.659 2043.17 234.659 Q2041.25 234.659 2039.05 235.075 Q2036.85 235.492 2034.21 236.372 L2034.21 232.205 Q2036.87 231.464 2039.19 231.094 Q2041.53 230.724 2043.59 230.724 Q2048.91 230.724 2052.01 233.154 Q2055.11 235.562 2055.11 239.682 Q2055.11 242.552 2053.47 244.543 Q2051.83 246.511 2048.79 247.274 Z" fill="#000000" fill-rule="evenodd" fill-opacity="1" /><path clip-path="url(#clip970)" d="M2064.84 231.349 L2083.19 231.349 L2083.19 235.284 L2069.12 235.284 L2069.12 243.756 Q2070.14 243.409 2071.15 243.247 Q2072.17 243.062 2073.19 243.062 Q2078.98 243.062 2082.36 246.233 Q2085.74 249.404 2085.74 254.821 Q2085.74 260.399 2082.27 263.501 Q2078.79 266.58 2072.47 266.58 Q2070.3 266.58 2068.03 266.21 Q2065.78 265.839 2063.38 265.098 L2063.38 260.399 Q2065.46 261.534 2067.68 262.089 Q2069.9 262.645 2072.38 262.645 Q2076.39 262.645 2078.72 260.538 Q2081.06 258.432 2081.06 254.821 Q2081.06 251.21 2078.72 249.103 Q2076.39 246.997 2072.38 246.997 Q2070.51 246.997 2068.63 247.413 Q2066.78 247.83 2064.84 248.71 L2064.84 231.349 Z" fill="#000000" fill-rule="evenodd" fill-opacity="1" /><path clip-path="url(#clip970)" d="M2095 231.349 L2113.35 231.349 L2113.35 235.284 L2099.28 235.284 L2099.28 243.756 Q2100.3 243.409 2101.32 243.247 Q2102.33 243.062 2103.35 243.062 Q2109.14 243.062 2112.52 246.233 Q2115.9 249.404 2115.9 254.821 Q2115.9 260.399 2112.43 263.501 Q2108.96 266.58 2102.64 266.58 Q2100.46 266.58 2098.19 266.21 Q2095.95 265.839 2093.54 265.098 L2093.54 260.399 Q2095.62 261.534 2097.84 262.089 Q2100.07 262.645 2102.54 262.645 Q2106.55 262.645 2108.89 260.538 Q2111.22 258.432 2111.22 254.821 Q2111.22 251.21 2108.89 249.103 Q2106.55 246.997 2102.54 246.997 Q2100.67 246.997 2098.79 247.413 Q2096.94 247.83 2095 248.71 L2095 231.349 Z" fill="#000000" fill-rule="evenodd" fill-opacity="1" /><path clip-path="url(#clip970)" d="M2137.96 235.423 L2126.15 253.872 L2137.96 253.872 L2137.96 235.423 M2136.73 231.349 L2142.61 231.349 L2142.61 253.872 L2147.54 253.872 L2147.54 257.761 L2142.61 257.761 L2142.61 265.909 L2137.96 265.909 L2137.96 257.761 L2122.36 257.761 L2122.36 253.247 L2136.73 231.349 Z" fill="#000000" fill-rule="evenodd" fill-opacity="1" /><path clip-path="url(#clip970)" d="M2168.12 235.423 L2156.32 253.872 L2168.12 253.872 L2168.12 235.423 M2166.89 231.349 L2172.77 231.349 L2172.77 253.872 L2177.7 253.872 L2177.7 257.761 L2172.77 257.761 L2172.77 265.909 L2168.12 265.909 L2168.12 257.761 L2152.52 257.761 L2152.52 253.247 L2166.89 231.349 Z" fill="#000000" fill-rule="evenodd" fill-opacity="1" /><path clip-path="url(#clip970)" d="M2199.6 247.274 Q2202.96 247.992 2204.83 250.261 Q2206.73 252.529 2206.73 255.862 Q2206.73 260.978 2203.21 263.779 Q2199.7 266.58 2193.21 266.58 Q2191.04 266.58 2188.72 266.14 Q2186.43 265.723 2183.98 264.867 L2183.98 260.353 Q2185.92 261.487 2188.24 262.066 Q2190.55 262.645 2193.08 262.645 Q2197.47 262.645 2199.76 260.909 Q2202.08 259.173 2202.08 255.862 Q2202.08 252.807 2199.93 251.094 Q2197.8 249.358 2193.98 249.358 L2189.95 249.358 L2189.95 245.515 L2194.16 245.515 Q2197.61 245.515 2199.44 244.149 Q2201.27 242.761 2201.27 240.168 Q2201.27 237.506 2199.37 236.094 Q2197.5 234.659 2193.98 234.659 Q2192.06 234.659 2189.86 235.075 Q2187.66 235.492 2185.02 236.372 L2185.02 232.205 Q2187.68 231.464 2190 231.094 Q2192.33 230.724 2194.39 230.724 Q2199.72 230.724 2202.82 233.154 Q2205.92 235.562 2205.92 239.682 Q2205.92 242.552 2204.28 244.543 Q2202.64 246.511 2199.6 247.274 Z" fill="#000000" fill-rule="evenodd" fill-opacity="1" /><path clip-path="url(#clip970)" d="M2219.63 261.973 L2235.95 261.973 L2235.95 265.909 L2214 265.909 L2214 261.973 Q2216.66 259.219 2221.25 254.589 Q2225.85 249.936 2227.03 248.594 Q2229.28 246.071 2230.16 244.335 Q2231.06 242.575 2231.06 240.886 Q2231.06 238.131 2229.12 236.395 Q2227.2 234.659 2224.09 234.659 Q2221.89 234.659 2219.44 235.423 Q2217.01 236.187 2214.23 237.737 L2214.23 233.015 Q2217.06 231.881 2219.51 231.302 Q2221.96 230.724 2224 230.724 Q2229.37 230.724 2232.57 233.409 Q2235.76 236.094 2235.76 240.585 Q2235.76 242.714 2234.95 244.636 Q2234.16 246.534 2232.06 249.126 Q2231.48 249.798 2228.38 253.015 Q2225.27 256.21 2219.63 261.973 Z" fill="#000000" fill-rule="evenodd" fill-opacity="1" /><path clip-path="url(#clip970)" d="M2244.49 229.937 L2248.19 229.937 Q2251.66 235.4 2253.38 240.631 Q2255.11 245.862 2255.11 251.024 Q2255.11 256.21 2253.38 261.464 Q2251.66 266.719 2248.19 272.159 L2244.49 272.159 Q2247.57 266.858 2249.07 261.626 Q2250.6 256.372 2250.6 251.024 Q2250.6 245.677 2249.07 240.469 Q2247.57 235.261 2244.49 229.937 Z" fill="#000000" fill-rule="evenodd" fill-opacity="1" /><polyline clip-path="url(#clip970)" style="stroke:#0000ff; stroke-linecap:round; stroke-linejoin:round; stroke-width:4; stroke-opacity:1; fill:none" stroke-dasharray="16, 10" points="1634.86,300.469 1781.33,300.469 "/>
<path clip-path="url(#clip970)" d="M1827.98 284.323 L1827.98 288.883 Q1825.32 287.61 1822.96 286.985 Q1820.6 286.36 1818.4 286.36 Q1814.58 286.36 1812.5 287.841 Q1810.44 289.323 1810.44 292.054 Q1810.44 294.346 1811.8 295.527 Q1813.19 296.684 1817.04 297.402 L1819.86 297.98 Q1825.09 298.976 1827.57 301.499 Q1830.07 303.999 1830.07 308.212 Q1830.07 313.235 1826.69 315.827 Q1823.33 318.42 1816.83 318.42 Q1814.37 318.42 1811.6 317.864 Q1808.84 317.309 1805.88 316.221 L1805.88 311.406 Q1808.73 313.003 1811.46 313.813 Q1814.19 314.624 1816.83 314.624 Q1820.83 314.624 1823.01 313.05 Q1825.18 311.476 1825.18 308.559 Q1825.18 306.013 1823.61 304.577 Q1822.06 303.142 1818.49 302.425 L1815.65 301.869 Q1810.42 300.827 1808.08 298.605 Q1805.74 296.383 1805.74 292.425 Q1805.74 287.841 1808.96 285.202 Q1812.2 282.564 1817.87 282.564 Q1820.3 282.564 1822.82 283.003 Q1825.35 283.443 1827.98 284.323 Z" fill="#000000" fill-rule="evenodd" fill-opacity="1" /><path clip-path="url(#clip970)" d="M1841.39 284.462 L1841.39 291.823 L1850.16 291.823 L1850.16 295.133 L1841.39 295.133 L1841.39 309.207 Q1841.39 312.378 1842.24 313.281 Q1843.12 314.184 1845.79 314.184 L1850.16 314.184 L1850.16 317.749 L1845.79 317.749 Q1840.85 317.749 1838.98 315.92 Q1837.1 314.068 1837.1 309.207 L1837.1 295.133 L1833.98 295.133 L1833.98 291.823 L1837.1 291.823 L1837.1 284.462 L1841.39 284.462 Z" fill="#000000" fill-rule="evenodd" fill-opacity="1" /><path clip-path="url(#clip970)" d="M1867.54 304.716 Q1862.38 304.716 1860.39 305.897 Q1858.4 307.077 1858.4 309.925 Q1858.4 312.193 1859.88 313.536 Q1861.39 314.855 1863.96 314.855 Q1867.5 314.855 1869.63 312.355 Q1871.78 309.832 1871.78 305.665 L1871.78 304.716 L1867.54 304.716 M1876.04 302.957 L1876.04 317.749 L1871.78 317.749 L1871.78 313.813 Q1870.32 316.175 1868.15 317.309 Q1865.97 318.42 1862.82 318.42 Q1858.84 318.42 1856.48 316.198 Q1854.14 313.952 1854.14 310.202 Q1854.14 305.827 1857.06 303.605 Q1860 301.383 1865.81 301.383 L1871.78 301.383 L1871.78 300.966 Q1871.78 298.027 1869.84 296.429 Q1867.91 294.809 1864.42 294.809 Q1862.2 294.809 1860.09 295.341 Q1857.98 295.874 1856.04 296.939 L1856.04 293.003 Q1858.38 292.101 1860.58 291.661 Q1862.78 291.198 1864.86 291.198 Q1870.48 291.198 1873.26 294.114 Q1876.04 297.031 1876.04 302.957 Z" fill="#000000" fill-rule="evenodd" fill-opacity="1" /><path clip-path="url(#clip970)" d="M1889.03 284.462 L1889.03 291.823 L1897.8 291.823 L1897.8 295.133 L1889.03 295.133 L1889.03 309.207 Q1889.03 312.378 1889.88 313.281 Q1890.76 314.184 1893.42 314.184 L1897.8 314.184 L1897.8 317.749 L1893.42 317.749 Q1888.49 317.749 1886.62 315.92 Q1884.74 314.068 1884.74 309.207 L1884.74 295.133 L1881.62 295.133 L1881.62 291.823 L1884.74 291.823 L1884.74 284.462 L1889.03 284.462 Z" fill="#000000" fill-rule="evenodd" fill-opacity="1" /><path clip-path="url(#clip970)" d="M1925.58 303.721 L1925.58 305.804 L1905.99 305.804 Q1906.27 310.202 1908.63 312.517 Q1911.02 314.809 1915.25 314.809 Q1917.71 314.809 1920 314.207 Q1922.31 313.605 1924.58 312.401 L1924.58 316.429 Q1922.29 317.401 1919.88 317.911 Q1917.47 318.42 1915 318.42 Q1908.79 318.42 1905.16 314.809 Q1901.55 311.198 1901.55 305.04 Q1901.55 298.675 1904.97 294.948 Q1908.42 291.198 1914.26 291.198 Q1919.49 291.198 1922.52 294.577 Q1925.58 297.934 1925.58 303.721 M1921.32 302.471 Q1921.27 298.976 1919.35 296.892 Q1917.45 294.809 1914.3 294.809 Q1910.74 294.809 1908.59 296.823 Q1906.46 298.837 1906.13 302.494 L1921.32 302.471 Z" fill="#000000" fill-rule="evenodd" fill-opacity="1" /><path clip-path="url(#clip970)" d="M1969.81 303.721 L1969.81 305.804 L1950.23 305.804 Q1950.51 310.202 1952.87 312.517 Q1955.25 314.809 1959.49 314.809 Q1961.94 314.809 1964.23 314.207 Q1966.55 313.605 1968.82 312.401 L1968.82 316.429 Q1966.53 317.401 1964.12 317.911 Q1961.71 318.42 1959.23 318.42 Q1953.03 318.42 1949.4 314.809 Q1945.78 311.198 1945.78 305.04 Q1945.78 298.675 1949.21 294.948 Q1952.66 291.198 1958.49 291.198 Q1963.72 291.198 1966.76 294.577 Q1969.81 297.934 1969.81 303.721 M1965.55 302.471 Q1965.51 298.976 1963.59 296.892 Q1961.69 294.809 1958.54 294.809 Q1954.97 294.809 1952.82 296.823 Q1950.69 298.837 1950.37 302.494 L1965.55 302.471 Z" fill="#000000" fill-rule="evenodd" fill-opacity="1" /><path clip-path="url(#clip970)" d="M1973.75 291.823 L1978.26 291.823 L1986.36 313.582 L1994.47 291.823 L1998.98 291.823 L1989.26 317.749 L1983.47 317.749 L1973.75 291.823 Z" fill="#000000" fill-rule="evenodd" fill-opacity="1" /><path clip-path="url(#clip970)" d="M2027.03 303.721 L2027.03 305.804 L2007.45 305.804 Q2007.73 310.202 2010.09 312.517 Q2012.47 314.809 2016.71 314.809 Q2019.16 314.809 2021.46 314.207 Q2023.77 313.605 2026.04 312.401 L2026.04 316.429 Q2023.75 317.401 2021.34 317.911 Q2018.93 318.42 2016.46 318.42 Q2010.25 318.42 2006.62 314.809 Q2003.01 311.198 2003.01 305.04 Q2003.01 298.675 2006.43 294.948 Q2009.88 291.198 2015.71 291.198 Q2020.95 291.198 2023.98 294.577 Q2027.03 297.934 2027.03 303.721 M2022.78 302.471 Q2022.73 298.976 2020.81 296.892 Q2018.91 294.809 2015.76 294.809 Q2012.2 294.809 2010.04 296.823 Q2007.91 298.837 2007.59 302.494 L2022.78 302.471 Z" fill="#000000" fill-rule="evenodd" fill-opacity="1" /><path clip-path="url(#clip970)" d="M2055.58 302.101 L2055.58 317.749 L2051.32 317.749 L2051.32 302.239 Q2051.32 298.559 2049.88 296.73 Q2048.45 294.902 2045.58 294.902 Q2042.13 294.902 2040.14 297.101 Q2038.15 299.3 2038.15 303.096 L2038.15 317.749 L2033.86 317.749 L2033.86 291.823 L2038.15 291.823 L2038.15 295.851 Q2039.67 293.513 2041.73 292.355 Q2043.82 291.198 2046.53 291.198 Q2050.99 291.198 2053.28 293.976 Q2055.58 296.73 2055.58 302.101 Z" fill="#000000" fill-rule="evenodd" fill-opacity="1" /><path clip-path="url(#clip970)" d="M2068.28 284.462 L2068.28 291.823 L2077.06 291.823 L2077.06 295.133 L2068.28 295.133 L2068.28 309.207 Q2068.28 312.378 2069.14 313.281 Q2070.02 314.184 2072.68 314.184 L2077.06 314.184 L2077.06 317.749 L2072.68 317.749 Q2067.75 317.749 2065.88 315.92 Q2064 314.068 2064 309.207 L2064 295.133 L2060.88 295.133 L2060.88 291.823 L2064 291.823 L2064 284.462 L2068.28 284.462 Z" fill="#000000" fill-rule="evenodd" fill-opacity="1" /><path clip-path="url(#clip970)" d="M2092.89 281.777 Q2089.79 287.101 2088.28 292.309 Q2086.78 297.517 2086.78 302.864 Q2086.78 308.212 2088.28 313.466 Q2089.81 318.698 2092.89 323.999 L2089.19 323.999 Q2085.71 318.559 2083.98 313.304 Q2082.27 308.05 2082.27 302.864 Q2082.27 297.702 2083.98 292.471 Q2085.69 287.24 2089.19 281.777 L2092.89 281.777 Z" fill="#000000" fill-rule="evenodd" fill-opacity="1" /><path clip-path="url(#clip970)" d="M2117.68 292.587 L2117.68 296.614 Q2115.88 295.689 2113.93 295.226 Q2111.99 294.763 2109.9 294.763 Q2106.73 294.763 2105.14 295.735 Q2103.56 296.707 2103.56 298.651 Q2103.56 300.133 2104.7 300.989 Q2105.83 301.823 2109.26 302.587 L2110.71 302.911 Q2115.25 303.883 2117.15 305.665 Q2119.07 307.425 2119.07 310.596 Q2119.07 314.207 2116.2 316.313 Q2113.35 318.42 2108.35 318.42 Q2106.27 318.42 2104 318.003 Q2101.76 317.61 2099.26 316.8 L2099.26 312.401 Q2101.62 313.628 2103.91 314.253 Q2106.2 314.855 2108.45 314.855 Q2111.46 314.855 2113.08 313.837 Q2114.7 312.795 2114.7 310.92 Q2114.7 309.184 2113.52 308.258 Q2112.36 307.332 2108.4 306.476 L2106.92 306.128 Q2102.96 305.295 2101.2 303.582 Q2099.44 301.846 2099.44 298.837 Q2099.44 295.179 2102.03 293.189 Q2104.63 291.198 2109.4 291.198 Q2111.76 291.198 2113.84 291.545 Q2115.92 291.892 2117.68 292.587 Z" fill="#000000" fill-rule="evenodd" fill-opacity="1" /><path clip-path="url(#clip970)" d="M2125.18 281.777 L2128.89 281.777 Q2132.36 287.24 2134.07 292.471 Q2135.81 297.702 2135.81 302.864 Q2135.81 308.05 2134.07 313.304 Q2132.36 318.559 2128.89 323.999 L2125.18 323.999 Q2128.26 318.698 2129.77 313.466 Q2131.29 308.212 2131.29 302.864 Q2131.29 297.517 2129.77 292.309 Q2128.26 287.101 2125.18 281.777 Z" fill="#000000" fill-rule="evenodd" fill-opacity="1" /></svg>
