<?xml version="1.0" encoding="utf-8"?>
<svg xmlns="http://www.w3.org/2000/svg" xmlns:xlink="http://www.w3.org/1999/xlink" width="600" height="400" viewBox="0 0 2400 1600">
<defs>
  <clipPath id="clip170">
    <rect x="0" y="0" width="2400" height="1600"/>
  </clipPath>
</defs>
<path clip-path="url(#clip170)" d="M0 1600 L2400 1600 L2400 0 L0 0  Z" fill="#ffffff" fill-rule="evenodd" fill-opacity="1"/>
<defs>
  <clipPath id="clip171">
    <rect x="480" y="0" width="1681" height="1600"/>
  </clipPath>
</defs>
<path clip-path="url(#clip170)" d="M155.765 1423.18 L2352.76 1423.18 L2352.76 47.2441 L155.765 47.2441  Z" fill="#ffffff" fill-rule="evenodd" fill-opacity="1"/>
<defs>
  <clipPath id="clip172">
    <rect x="155" y="47" width="2198" height="1377"/>
  </clipPath>
</defs>
<polyline clip-path="url(#clip172)" style="stroke:#000000; stroke-linecap:round; stroke-linejoin:round; stroke-width:2; stroke-opacity:0.1; fill:none" points="217.944,1423.18 217.944,47.2441 "/>
<polyline clip-path="url(#clip172)" style="stroke:#000000; stroke-linecap:round; stroke-linejoin:round; stroke-width:2; stroke-opacity:0.1; fill:none" points="736.102,1423.18 736.102,47.2441 "/>
<polyline clip-path="url(#clip172)" style="stroke:#000000; stroke-linecap:round; stroke-linejoin:round; stroke-width:2; stroke-opacity:0.1; fill:none" points="1254.26,1423.18 1254.26,47.2441 "/>
<polyline clip-path="url(#clip172)" style="stroke:#000000; stroke-linecap:round; stroke-linejoin:round; stroke-width:2; stroke-opacity:0.1; fill:none" points="1772.42,1423.18 1772.42,47.2441 "/>
<polyline clip-path="url(#clip172)" style="stroke:#000000; stroke-linecap:round; stroke-linejoin:round; stroke-width:2; stroke-opacity:0.1; fill:none" points="2290.58,1423.18 2290.58,47.2441 "/>
<polyline clip-path="url(#clip170)" style="stroke:#000000; stroke-linecap:round; stroke-linejoin:round; stroke-width:4; stroke-opacity:1; fill:none" points="155.765,1423.18 2352.76,1423.18 "/>
<polyline clip-path="url(#clip170)" style="stroke:#000000; stroke-linecap:round; stroke-linejoin:round; stroke-width:4; stroke-opacity:1; fill:none" points="217.944,1423.18 217.944,1404.28 "/>
<polyline clip-path="url(#clip170)" style="stroke:#000000; stroke-linecap:round; stroke-linejoin:round; stroke-width:4; stroke-opacity:1; fill:none" points="736.102,1423.18 736.102,1404.28 "/>
<polyline clip-path="url(#clip170)" style="stroke:#000000; stroke-linecap:round; stroke-linejoin:round; stroke-width:4; stroke-opacity:1; fill:none" points="1254.26,1423.18 1254.26,1404.28 "/>
<polyline clip-path="url(#clip170)" style="stroke:#000000; stroke-linecap:round; stroke-linejoin:round; stroke-width:4; stroke-opacity:1; fill:none" points="1772.42,1423.18 1772.42,1404.28 "/>
<polyline clip-path="url(#clip170)" style="stroke:#000000; stroke-linecap:round; stroke-linejoin:round; stroke-width:4; stroke-opacity:1; fill:none" points="2290.58,1423.18 2290.58,1404.28 "/>
<path clip-path="url(#clip170)" d="M217.944 1454.1 Q214.333 1454.1 212.504 1457.66 Q210.699 1461.2 210.699 1468.33 Q210.699 1475.44 212.504 1479.01 Q214.333 1482.55 217.944 1482.55 Q221.578 1482.55 223.384 1479.01 Q225.212 1475.44 225.212 1468.33 Q225.212 1461.2 223.384 1457.66 Q221.578 1454.1 217.944 1454.1 M217.944 1450.39 Q223.754 1450.39 226.81 1455 Q229.888 1459.58 229.888 1468.33 Q229.888 1477.06 226.81 1481.67 Q223.754 1486.25 217.944 1486.25 Q212.134 1486.25 209.055 1481.67 Q206 1477.06 206 1468.33 Q206 1459.58 209.055 1455 Q212.134 1450.39 217.944 1450.39 Z" fill="#000000" fill-rule="nonzero" fill-opacity="1" /><path clip-path="url(#clip170)" d="M730.755 1481.64 L747.074 1481.64 L747.074 1485.58 L725.13 1485.58 L725.13 1481.64 Q727.792 1478.89 732.375 1474.26 Q736.982 1469.61 738.162 1468.27 Q740.408 1465.74 741.287 1464.01 Q742.19 1462.25 742.19 1460.56 Q742.19 1457.8 740.246 1456.07 Q738.324 1454.33 735.223 1454.33 Q733.023 1454.33 730.57 1455.09 Q728.139 1455.86 725.361 1457.41 L725.361 1452.69 Q728.186 1451.55 730.639 1450.97 Q733.093 1450.39 735.13 1450.39 Q740.5 1450.39 743.695 1453.08 Q746.889 1455.77 746.889 1460.26 Q746.889 1462.39 746.079 1464.31 Q745.292 1466.2 743.185 1468.8 Q742.607 1469.47 739.505 1472.69 Q736.403 1475.88 730.755 1481.64 Z" fill="#000000" fill-rule="nonzero" fill-opacity="1" /><path clip-path="url(#clip170)" d="M1257.27 1455.09 L1245.46 1473.54 L1257.27 1473.54 L1257.27 1455.09 M1256.04 1451.02 L1261.92 1451.02 L1261.92 1473.54 L1266.85 1473.54 L1266.85 1477.43 L1261.92 1477.43 L1261.92 1485.58 L1257.27 1485.58 L1257.27 1477.43 L1241.67 1477.43 L1241.67 1472.92 L1256.04 1451.02 Z" fill="#000000" fill-rule="nonzero" fill-opacity="1" /><path clip-path="url(#clip170)" d="M1772.82 1466.44 Q1769.68 1466.44 1767.82 1468.59 Q1766 1470.74 1766 1474.49 Q1766 1478.22 1767.82 1480.39 Q1769.68 1482.55 1772.82 1482.55 Q1775.97 1482.55 1777.8 1480.39 Q1779.65 1478.22 1779.65 1474.49 Q1779.65 1470.74 1777.8 1468.59 Q1775.97 1466.44 1772.82 1466.44 M1782.11 1451.78 L1782.11 1456.04 Q1780.35 1455.21 1778.54 1454.77 Q1776.76 1454.33 1775 1454.33 Q1770.37 1454.33 1767.92 1457.45 Q1765.49 1460.58 1765.14 1466.9 Q1766.5 1464.89 1768.56 1463.82 Q1770.62 1462.73 1773.1 1462.73 Q1778.31 1462.73 1781.32 1465.9 Q1784.35 1469.05 1784.35 1474.49 Q1784.35 1479.82 1781.2 1483.03 Q1778.06 1486.25 1772.82 1486.25 Q1766.83 1486.25 1763.66 1481.67 Q1760.49 1477.06 1760.49 1468.33 Q1760.49 1460.14 1764.37 1455.28 Q1768.26 1450.39 1774.81 1450.39 Q1776.57 1450.39 1778.36 1450.74 Q1780.16 1451.09 1782.11 1451.78 Z" fill="#000000" fill-rule="nonzero" fill-opacity="1" /><path clip-path="url(#clip170)" d="M2290.58 1469.17 Q2287.24 1469.17 2285.32 1470.95 Q2283.42 1472.73 2283.42 1475.86 Q2283.42 1478.98 2285.32 1480.77 Q2287.24 1482.55 2290.58 1482.55 Q2293.91 1482.55 2295.83 1480.77 Q2297.75 1478.96 2297.75 1475.86 Q2297.75 1472.73 2295.83 1470.95 Q2293.93 1469.17 2290.58 1469.17 M2285.9 1467.18 Q2282.89 1466.44 2281.2 1464.38 Q2279.54 1462.32 2279.54 1459.35 Q2279.54 1455.21 2282.48 1452.8 Q2285.44 1450.39 2290.58 1450.39 Q2295.74 1450.39 2298.68 1452.8 Q2301.62 1455.21 2301.62 1459.35 Q2301.62 1462.32 2299.93 1464.38 Q2298.26 1466.44 2295.28 1467.18 Q2298.66 1467.96 2300.53 1470.26 Q2302.43 1472.55 2302.43 1475.86 Q2302.43 1480.88 2299.35 1483.57 Q2296.29 1486.25 2290.58 1486.25 Q2284.86 1486.25 2281.78 1483.57 Q2278.73 1480.88 2278.73 1475.86 Q2278.73 1472.55 2280.62 1470.26 Q2282.52 1467.96 2285.9 1467.18 M2284.19 1459.79 Q2284.19 1462.48 2285.85 1463.98 Q2287.54 1465.49 2290.58 1465.49 Q2293.59 1465.49 2295.28 1463.98 Q2296.99 1462.48 2296.99 1459.79 Q2296.99 1457.11 2295.28 1455.6 Q2293.59 1454.1 2290.58 1454.1 Q2287.54 1454.1 2285.85 1455.6 Q2284.19 1457.11 2284.19 1459.79 Z" fill="#000000" fill-rule="nonzero" fill-opacity="1" /><path clip-path="url(#clip170)" d="M1202.57 1522.27 L1202.57 1532.4 L1214.63 1532.4 L1214.63 1536.95 L1202.57 1536.95 L1202.57 1556.3 Q1202.57 1560.66 1203.75 1561.9 Q1204.96 1563.14 1208.62 1563.14 L1214.63 1563.14 L1214.63 1568.04 L1208.62 1568.04 Q1201.84 1568.04 1199.26 1565.53 Q1196.68 1562.98 1196.68 1556.3 L1196.68 1536.95 L1192.39 1536.95 L1192.39 1532.4 L1196.68 1532.4 L1196.68 1522.27 L1202.57 1522.27 Z" fill="#000000" fill-rule="nonzero" fill-opacity="1" /><path clip-path="url(#clip170)" d="M1242.52 1518.52 L1256.01 1518.52 L1256.01 1523.07 L1248.37 1523.07 L1248.37 1572.09 L1256.01 1572.09 L1256.01 1576.64 L1242.52 1576.64 L1242.52 1518.52 Z" fill="#000000" fill-rule="nonzero" fill-opacity="1" /><path clip-path="url(#clip170)" d="M1291.21 1533.45 L1291.21 1538.98 Q1288.73 1537.71 1286.06 1537.07 Q1283.38 1536.44 1280.52 1536.44 Q1276.16 1536.44 1273.96 1537.77 Q1271.8 1539.11 1271.8 1541.79 Q1271.8 1543.82 1273.36 1545 Q1274.92 1546.15 1279.63 1547.2 L1281.63 1547.64 Q1287.87 1548.98 1290.48 1551.43 Q1293.12 1553.85 1293.12 1558.21 Q1293.12 1563.17 1289.18 1566.07 Q1285.26 1568.97 1278.39 1568.97 Q1275.52 1568.97 1272.4 1568.39 Q1269.32 1567.85 1265.88 1566.74 L1265.88 1560.69 Q1269.12 1562.38 1272.28 1563.24 Q1275.43 1564.07 1278.51 1564.07 Q1282.65 1564.07 1284.88 1562.66 Q1287.11 1561.23 1287.11 1558.65 Q1287.11 1556.27 1285.48 1554.99 Q1283.89 1553.72 1278.45 1552.54 L1276.41 1552.07 Q1270.97 1550.92 1268.55 1548.56 Q1266.13 1546.18 1266.13 1542.04 Q1266.13 1537.01 1269.7 1534.27 Q1273.26 1531.54 1279.82 1531.54 Q1283.07 1531.54 1285.93 1532.01 Q1288.79 1532.49 1291.21 1533.45 Z" fill="#000000" fill-rule="nonzero" fill-opacity="1" /><path clip-path="url(#clip170)" d="M1316.14 1518.52 L1316.14 1576.64 L1302.64 1576.64 L1302.64 1572.09 L1310.25 1572.09 L1310.25 1523.07 L1302.64 1523.07 L1302.64 1518.52 L1316.14 1518.52 Z" fill="#000000" fill-rule="nonzero" fill-opacity="1" /><polyline clip-path="url(#clip172)" style="stroke:#000000; stroke-linecap:round; stroke-linejoin:round; stroke-width:2; stroke-opacity:0.1; fill:none" points="155.765,1384.24 2352.76,1384.24 "/>
<polyline clip-path="url(#clip172)" style="stroke:#000000; stroke-linecap:round; stroke-linejoin:round; stroke-width:2; stroke-opacity:0.1; fill:none" points="155.765,1108.15 2352.76,1108.15 "/>
<polyline clip-path="url(#clip172)" style="stroke:#000000; stroke-linecap:round; stroke-linejoin:round; stroke-width:2; stroke-opacity:0.1; fill:none" points="155.765,832.066 2352.76,832.066 "/>
<polyline clip-path="url(#clip172)" style="stroke:#000000; stroke-linecap:round; stroke-linejoin:round; stroke-width:2; stroke-opacity:0.1; fill:none" points="155.765,555.981 2352.76,555.981 "/>
<polyline clip-path="url(#clip172)" style="stroke:#000000; stroke-linecap:round; stroke-linejoin:round; stroke-width:2; stroke-opacity:0.1; fill:none" points="155.765,279.895 2352.76,279.895 "/>
<polyline clip-path="url(#clip170)" style="stroke:#000000; stroke-linecap:round; stroke-linejoin:round; stroke-width:4; stroke-opacity:1; fill:none" points="155.765,1423.18 155.765,47.2441 "/>
<polyline clip-path="url(#clip170)" style="stroke:#000000; stroke-linecap:round; stroke-linejoin:round; stroke-width:4; stroke-opacity:1; fill:none" points="155.765,1384.24 174.663,1384.24 "/>
<polyline clip-path="url(#clip170)" style="stroke:#000000; stroke-linecap:round; stroke-linejoin:round; stroke-width:4; stroke-opacity:1; fill:none" points="155.765,1108.15 174.663,1108.15 "/>
<polyline clip-path="url(#clip170)" style="stroke:#000000; stroke-linecap:round; stroke-linejoin:round; stroke-width:4; stroke-opacity:1; fill:none" points="155.765,832.066 174.663,832.066 "/>
<polyline clip-path="url(#clip170)" style="stroke:#000000; stroke-linecap:round; stroke-linejoin:round; stroke-width:4; stroke-opacity:1; fill:none" points="155.765,555.981 174.663,555.981 "/>
<polyline clip-path="url(#clip170)" style="stroke:#000000; stroke-linecap:round; stroke-linejoin:round; stroke-width:4; stroke-opacity:1; fill:none" points="155.765,279.895 174.663,279.895 "/>
<path clip-path="url(#clip170)" d="M63.5847 1370.04 Q59.9736 1370.04 58.1449 1373.6 Q56.3393 1377.14 56.3393 1384.27 Q56.3393 1391.38 58.1449 1394.94 Q59.9736 1398.49 63.5847 1398.49 Q67.2189 1398.49 69.0244 1394.94 Q70.8531 1391.38 70.8531 1384.27 Q70.8531 1377.14 69.0244 1373.6 Q67.2189 1370.04 63.5847 1370.04 M63.5847 1366.33 Q69.3948 1366.33 72.4503 1370.94 Q75.529 1375.52 75.529 1384.27 Q75.529 1393 72.4503 1397.61 Q69.3948 1402.19 63.5847 1402.19 Q57.7745 1402.19 54.6958 1397.61 Q51.6403 1393 51.6403 1384.27 Q51.6403 1375.52 54.6958 1370.94 Q57.7745 1366.33 63.5847 1366.33 Z" fill="#000000" fill-rule="nonzero" fill-opacity="1" /><path clip-path="url(#clip170)" d="M83.7466 1395.64 L88.6308 1395.64 L88.6308 1401.52 L83.7466 1401.52 L83.7466 1395.64 Z" fill="#000000" fill-rule="nonzero" fill-opacity="1" /><path clip-path="url(#clip170)" d="M98.8622 1366.96 L117.219 1366.96 L117.219 1370.89 L103.145 1370.89 L103.145 1379.37 Q104.163 1379.02 105.182 1378.86 Q106.2 1378.67 107.219 1378.67 Q113.006 1378.67 116.385 1381.84 Q119.765 1385.01 119.765 1390.43 Q119.765 1396.01 116.293 1399.11 Q112.82 1402.19 106.501 1402.19 Q104.325 1402.19 102.057 1401.82 Q99.8113 1401.45 97.4039 1400.71 L97.4039 1396.01 Q99.4872 1397.14 101.709 1397.7 Q103.932 1398.25 106.408 1398.25 Q110.413 1398.25 112.751 1396.15 Q115.089 1394.04 115.089 1390.43 Q115.089 1386.82 112.751 1384.71 Q110.413 1382.61 106.408 1382.61 Q104.534 1382.61 102.659 1383.02 Q100.807 1383.44 98.8622 1384.32 L98.8622 1366.96 Z" fill="#000000" fill-rule="nonzero" fill-opacity="1" /><path clip-path="url(#clip170)" d="M53.3995 1121.5 L61.0384 1121.5 L61.0384 1095.13 L52.7282 1096.8 L52.7282 1092.54 L60.9921 1090.87 L65.668 1090.87 L65.668 1121.5 L73.3068 1121.5 L73.3068 1125.43 L53.3995 1125.43 L53.3995 1121.5 Z" fill="#000000" fill-rule="nonzero" fill-opacity="1" /><path clip-path="url(#clip170)" d="M82.7512 1119.55 L87.6354 1119.55 L87.6354 1125.43 L82.7512 1125.43 L82.7512 1119.55 Z" fill="#000000" fill-rule="nonzero" fill-opacity="1" /><path clip-path="url(#clip170)" d="M107.821 1093.95 Q104.209 1093.95 102.381 1097.52 Q100.575 1101.06 100.575 1108.19 Q100.575 1115.29 102.381 1118.86 Q104.209 1122.4 107.821 1122.4 Q111.455 1122.4 113.26 1118.86 Q115.089 1115.29 115.089 1108.19 Q115.089 1101.06 113.26 1097.52 Q111.455 1093.95 107.821 1093.95 M107.821 1090.25 Q113.631 1090.25 116.686 1094.85 Q119.765 1099.44 119.765 1108.19 Q119.765 1116.91 116.686 1121.52 Q113.631 1126.1 107.821 1126.1 Q102.01 1126.1 98.9317 1121.52 Q95.8761 1116.91 95.8761 1108.19 Q95.8761 1099.44 98.9317 1094.85 Q102.01 1090.25 107.821 1090.25 Z" fill="#000000" fill-rule="nonzero" fill-opacity="1" /><path clip-path="url(#clip170)" d="M54.3949 845.411 L62.0337 845.411 L62.0337 819.046 L53.7236 820.712 L53.7236 816.453 L61.9874 814.786 L66.6633 814.786 L66.6633 845.411 L74.3022 845.411 L74.3022 849.346 L54.3949 849.346 L54.3949 845.411 Z" fill="#000000" fill-rule="nonzero" fill-opacity="1" /><path clip-path="url(#clip170)" d="M83.7466 843.467 L88.6308 843.467 L88.6308 849.346 L83.7466 849.346 L83.7466 843.467 Z" fill="#000000" fill-rule="nonzero" fill-opacity="1" /><path clip-path="url(#clip170)" d="M98.8622 814.786 L117.219 814.786 L117.219 818.722 L103.145 818.722 L103.145 827.194 Q104.163 826.847 105.182 826.685 Q106.2 826.499 107.219 826.499 Q113.006 826.499 116.385 829.671 Q119.765 832.842 119.765 838.259 Q119.765 843.837 116.293 846.939 Q112.82 850.018 106.501 850.018 Q104.325 850.018 102.057 849.647 Q99.8113 849.277 97.4039 848.536 L97.4039 843.837 Q99.4872 844.971 101.709 845.527 Q103.932 846.083 106.408 846.083 Q110.413 846.083 112.751 843.976 Q115.089 841.87 115.089 838.259 Q115.089 834.647 112.751 832.541 Q110.413 830.434 106.408 830.434 Q104.534 830.434 102.659 830.851 Q100.807 831.268 98.8622 832.147 L98.8622 814.786 Z" fill="#000000" fill-rule="nonzero" fill-opacity="1" /><path clip-path="url(#clip170)" d="M56.6171 569.325 L72.9365 569.325 L72.9365 573.261 L50.9921 573.261 L50.9921 569.325 Q53.6541 566.571 58.2375 561.941 Q62.8439 557.288 64.0245 555.946 Q66.2698 553.423 67.1494 551.687 Q68.0522 549.927 68.0522 548.238 Q68.0522 545.483 66.1078 543.747 Q64.1865 542.011 61.0847 542.011 Q58.8856 542.011 56.4319 542.775 Q54.0014 543.538 51.2236 545.089 L51.2236 540.367 Q54.0477 539.233 56.5014 538.654 Q58.955 538.076 60.9921 538.076 Q66.3624 538.076 69.5568 540.761 Q72.7513 543.446 72.7513 547.937 Q72.7513 550.066 71.9411 551.987 Q71.1541 553.886 69.0476 556.478 Q68.4689 557.149 65.367 560.367 Q62.2652 563.561 56.6171 569.325 Z" fill="#000000" fill-rule="nonzero" fill-opacity="1" /><path clip-path="url(#clip170)" d="M82.7512 567.381 L87.6354 567.381 L87.6354 573.261 L82.7512 573.261 L82.7512 567.381 Z" fill="#000000" fill-rule="nonzero" fill-opacity="1" /><path clip-path="url(#clip170)" d="M107.821 541.779 Q104.209 541.779 102.381 545.344 Q100.575 548.886 100.575 556.015 Q100.575 563.122 102.381 566.686 Q104.209 570.228 107.821 570.228 Q111.455 570.228 113.26 566.686 Q115.089 563.122 115.089 556.015 Q115.089 548.886 113.26 545.344 Q111.455 541.779 107.821 541.779 M107.821 538.076 Q113.631 538.076 116.686 542.682 Q119.765 547.265 119.765 556.015 Q119.765 564.742 116.686 569.348 Q113.631 573.932 107.821 573.932 Q102.01 573.932 98.9317 569.348 Q95.8761 564.742 95.8761 556.015 Q95.8761 547.265 98.9317 542.682 Q102.01 538.076 107.821 538.076 Z" fill="#000000" fill-rule="nonzero" fill-opacity="1" /><path clip-path="url(#clip170)" d="M57.6125 293.239 L73.9318 293.239 L73.9318 297.175 L51.9875 297.175 L51.9875 293.239 Q54.6495 290.485 59.2328 285.855 Q63.8393 281.202 65.0198 279.86 Q67.2652 277.337 68.1448 275.601 Q69.0476 273.841 69.0476 272.152 Q69.0476 269.397 67.1032 267.661 Q65.1819 265.925 62.08 265.925 Q59.881 265.925 57.4273 266.689 Q54.9967 267.453 52.219 269.003 L52.219 264.281 Q55.043 263.147 57.4967 262.568 Q59.9504 261.99 61.9874 261.99 Q67.3578 261.99 70.5522 264.675 Q73.7466 267.36 73.7466 271.851 Q73.7466 273.98 72.9365 275.902 Q72.1494 277.8 70.0429 280.392 Q69.4642 281.064 66.3624 284.281 Q63.2606 287.476 57.6125 293.239 Z" fill="#000000" fill-rule="nonzero" fill-opacity="1" /><path clip-path="url(#clip170)" d="M83.7466 291.295 L88.6308 291.295 L88.6308 297.175 L83.7466 297.175 L83.7466 291.295 Z" fill="#000000" fill-rule="nonzero" fill-opacity="1" /><path clip-path="url(#clip170)" d="M98.8622 262.615 L117.219 262.615 L117.219 266.55 L103.145 266.55 L103.145 275.022 Q104.163 274.675 105.182 274.513 Q106.2 274.327 107.219 274.327 Q113.006 274.327 116.385 277.499 Q119.765 280.67 119.765 286.087 Q119.765 291.665 116.293 294.767 Q112.82 297.846 106.501 297.846 Q104.325 297.846 102.057 297.476 Q99.8113 297.105 97.4039 296.364 L97.4039 291.665 Q99.4872 292.8 101.709 293.355 Q103.932 293.911 106.408 293.911 Q110.413 293.911 112.751 291.804 Q115.089 289.698 115.089 286.087 Q115.089 282.476 112.751 280.369 Q110.413 278.263 106.408 278.263 Q104.534 278.263 102.659 278.679 Q100.807 279.096 98.8622 279.976 L98.8622 262.615 Z" fill="#000000" fill-rule="nonzero" fill-opacity="1" /><polyline clip-path="url(#clip172)" style="stroke:#009af9; stroke-linecap:round; stroke-linejoin:round; stroke-width:4; stroke-opacity:1; fill:none" points="217.944,1384.24 217.944,1384.24 218.542,1384.23 222.548,1383.87 231.826,1380.83 248.652,1367.46 265.843,1343.66 286.57,1302.62 307.296,1250.48 328.022,1190.52 348.748,1126.55 369.475,1062.64 390.201,1002.86 410.927,951.023 431.654,910.472 452.38,883.913 473.106,873.37 475.479,873.255 475.64,873.255 475.776,873.256 477.133,873.295 483.16,874.114 496.21,879.558 512.901,893.818 532.516,920.516 553.242,958.952 573.968,1005.58 594.695,1057.47 615.421,1111.34 636.147,1163.77 656.873,1211.39 677.6,1251.14 698.326,1280.4 719.052,1297.09 733.035,1300.45 733.076,1300.45 733.226,1300.45 733.322,1300.45 734.282,1300.43 740.242,1299.87 756.275,1294.29 774.041,1281.21 794.767,1257.34 815.493,1225.46 836.22,1187.49 856.946,1145.8 877.672,1103.02 898.399,1061.87 919.125,1025 939.851,994.819 960.578,973.388 981.304,962.332 990.798,961.083 990.942,961.083 991.029,961.083 991.898,961.093 998.608,961.568 1011.94,964.671 1028.56,972.565 1048.9,988.076 1069.63,1009.75 1090.35,1036.13 1111.08,1065.6 1131.81,1096.34 1152.53,1126.39 1173.26,1153.81 1193.99,1176.78 1214.71,1193.71 1235.44,1203.3 1248.12,1205.1 1248.79,1205.1 1248.93,1205.1 1249.04,1205.1 1250.12,1205.1 1256.23,1204.87 1267.87,1203.57 1283.18,1200.08 1302.27,1192.98 1323,1182.08 1343.72,1168.41 1364.45,1152.75 1385.18,1136.03 1405.9,1119.3 1426.63,1103.65 1447.36,1090.13 1468.08,1079.7 1488.81,1073.19 1505.28,1071.26 1507.38,1071.23 1507.52,1071.23 1507.64,1071.23 1508.82,1071.23 1520.66,1071.24 1541.38,1071.24 1562.11,1071.24 1582.83,1071.25 1603.56,1071.25 1624.29,1071.25 1645.01,1071.26 1665.74,1071.26 1686.47,1071.26 1707.19,1071.27 1727.92,1071.27 1748.65,1071.27 1769.37,1071.28 1790.1,1071.28 1810.82,1071.28 1831.55,1071.29 1852.28,1071.29 1873,1071.29 1893.73,1071.3 1914.46,1071.3 1935.18,1071.3 1955.91,1071.31 1976.63,1071.31 1997.36,1071.31 2018.09,1071.32 2038.81,1071.32 2059.54,1071.32 2080.27,1071.33 2100.99,1071.33 2121.72,1071.33 2142.45,1071.34 2163.17,1071.34 2183.9,1071.34 2204.62,1071.35 2225.35,1071.35 2246.08,1071.35 2266.8,1071.36 2287.53,1071.36 2290.58,1071.36 "/>
<polyline clip-path="url(#clip172)" style="stroke:#0000ff; stroke-linecap:round; stroke-linejoin:round; stroke-width:4; stroke-opacity:1; fill:none" stroke-dasharray="16, 10" points="217.944,1384.24 217.944,873.255 "/>
<polyline clip-path="url(#clip172)" style="stroke:#0000ff; stroke-linecap:round; stroke-linejoin:round; stroke-width:4; stroke-opacity:1; fill:none" stroke-dasharray="16, 10" points="475.479,1384.24 475.479,873.255 "/>
<polyline clip-path="url(#clip172)" style="stroke:#0000ff; stroke-linecap:round; stroke-linejoin:round; stroke-width:4; stroke-opacity:1; fill:none" stroke-dasharray="16, 10" points="733.076,1384.24 733.076,873.255 "/>
<polyline clip-path="url(#clip172)" style="stroke:#0000ff; stroke-linecap:round; stroke-linejoin:round; stroke-width:4; stroke-opacity:1; fill:none" stroke-dasharray="16, 10" points="990.798,1384.24 990.798,873.255 "/>
<polyline clip-path="url(#clip172)" style="stroke:#0000ff; stroke-linecap:round; stroke-linejoin:round; stroke-width:4; stroke-opacity:1; fill:none" stroke-dasharray="16, 10" points="1248.79,1384.24 1248.79,873.255 "/>
<polyline clip-path="url(#clip172)" style="stroke:#0000ff; stroke-linecap:round; stroke-linejoin:round; stroke-width:4; stroke-opacity:1; fill:none" stroke-dasharray="16, 10" points="1507.38,1384.24 1507.38,873.255 "/>
<polyline clip-path="url(#clip172)" style="stroke:#c68125; stroke-linecap:round; stroke-linejoin:round; stroke-width:4; stroke-opacity:1; fill:none" stroke-dasharray="16, 10" points="217.944,1108.15 217.944,1108.15 218.542,1108.14 222.548,1107.41 231.826,1101.33 248.652,1074.6 265.843,1026.99 286.57,944.911 307.296,840.633 328.022,720.718 348.748,592.779 369.475,464.957 390.201,345.394 410.927,241.721 431.654,160.619 452.38,107.501 473.106,86.4154 475.479,86.1857 475.64,86.1865 475.776,86.1883 477.133,86.2653 483.16,87.9033 496.21,98.7909 512.901,127.312 532.516,180.709 553.242,257.579 573.968,350.835 594.695,454.623 615.421,562.366 636.147,667.206 656.873,762.447 677.6,841.95 698.326,900.47 719.052,933.851 733.035,940.579 733.076,940.579 733.226,940.578 733.322,940.577 734.282,940.546 740.242,939.413 756.275,928.247 774.041,902.095 794.767,854.352 815.493,790.595 836.22,714.662 856.946,631.279 877.672,545.711 898.399,463.412 919.125,389.672 939.851,329.315 960.578,286.451 981.304,264.34 990.798,261.842 990.942,261.842 991.029,261.843 991.898,261.861 998.608,262.813 1011.94,269.019 1028.56,284.807 1048.9,315.828 1069.63,359.181 1090.35,411.93 1111.08,470.881 1131.81,532.357 1152.53,592.455 1173.26,647.292 1193.99,693.237 1214.71,727.102 1235.44,746.271 1248.12,749.872 1248.79,749.881 1248.93,749.881 1249.04,749.88 1250.12,749.866 1256.23,749.417 1267.87,746.808 1283.18,739.835 1302.27,725.634 1323,703.841 1343.72,676.504 1364.45,645.175 1385.18,611.737 1405.9,578.284 1426.63,546.979 1447.36,519.933 1468.08,499.075 1488.81,486.061 1505.28,482.193 1507.38,482.142 1507.52,482.142 1507.64,482.142 1508.82,482.142 1520.66,482.146 1541.38,482.153 1562.11,482.159 1582.83,482.166 1603.56,482.173 1624.29,482.18 1645.01,482.186 1665.74,482.193 1686.47,482.2 1707.19,482.206 1727.92,482.213 1748.65,482.22 1769.37,482.227 1790.1,482.233 1810.82,482.24 1831.55,482.247 1852.28,482.254 1873,482.26 1893.73,482.267 1914.46,482.274 1935.18,482.28 1955.91,482.287 1976.63,482.294 1997.36,482.301 2018.09,482.307 2038.81,482.314 2059.54,482.321 2080.27,482.327 2100.99,482.334 2121.72,482.341 2142.45,482.348 2163.17,482.354 2183.9,482.361 2204.62,482.368 2225.35,482.374 2246.08,482.381 2266.8,482.388 2287.53,482.395 2290.58,482.396 "/>
<polyline clip-path="url(#clip172)" style="stroke:#0000ff; stroke-linecap:round; stroke-linejoin:round; stroke-width:4; stroke-opacity:1; fill:none" stroke-dasharray="16, 10" points="217.944,1108.15 217.944,86.1857 "/>
<polyline clip-path="url(#clip172)" style="stroke:#0000ff; stroke-linecap:round; stroke-linejoin:round; stroke-width:4; stroke-opacity:1; fill:none" stroke-dasharray="16, 10" points="475.479,1108.15 475.479,86.1857 "/>
<polyline clip-path="url(#clip172)" style="stroke:#0000ff; stroke-linecap:round; stroke-linejoin:round; stroke-width:4; stroke-opacity:1; fill:none" stroke-dasharray="16, 10" points="733.076,1108.15 733.076,86.1857 "/>
<polyline clip-path="url(#clip172)" style="stroke:#0000ff; stroke-linecap:round; stroke-linejoin:round; stroke-width:4; stroke-opacity:1; fill:none" stroke-dasharray="16, 10" points="990.798,1108.15 990.798,86.1857 "/>
<polyline clip-path="url(#clip172)" style="stroke:#0000ff; stroke-linecap:round; stroke-linejoin:round; stroke-width:4; stroke-opacity:1; fill:none" stroke-dasharray="16, 10" points="1248.79,1108.15 1248.79,86.1857 "/>
<polyline clip-path="url(#clip172)" style="stroke:#0000ff; stroke-linecap:round; stroke-linejoin:round; stroke-width:4; stroke-opacity:1; fill:none" stroke-dasharray="16, 10" points="1507.38,1108.15 1507.38,86.1857 "/>
<path clip-path="url(#clip170)" d="M1610.45 352.309 L2279.52 352.309 L2279.52 93.1086 L1610.45 93.1086  Z" fill="#ffffff" fill-rule="evenodd" fill-opacity="1"/>
<polyline clip-path="url(#clip170)" style="stroke:#000000; stroke-linecap:round; stroke-linejoin:round; stroke-width:4; stroke-opacity:1; fill:none" points="1610.45,352.309 2279.52,352.309 2279.52,93.1086 1610.45,93.1086 1610.45,352.309 "/>
<polyline clip-path="url(#clip170)" style="stroke:#009af9; stroke-linecap:round; stroke-linejoin:round; stroke-width:4; stroke-opacity:1; fill:none" points="1634.86,144.949 1781.33,144.949 "/>
<path clip-path="url(#clip170)" d="M1826.09 141.28 Q1827.68 138.409 1829.91 137.044 Q1832.13 135.678 1835.14 135.678 Q1839.19 135.678 1841.39 138.525 Q1843.59 141.349 1843.59 146.581 L1843.59 162.229 L1839.3 162.229 L1839.3 146.719 Q1839.3 142.993 1837.98 141.187 Q1836.67 139.382 1833.96 139.382 Q1830.65 139.382 1828.73 141.581 Q1826.8 143.78 1826.8 147.576 L1826.8 162.229 L1822.52 162.229 L1822.52 146.719 Q1822.52 142.969 1821.2 141.187 Q1819.88 139.382 1817.13 139.382 Q1813.86 139.382 1811.94 141.604 Q1810.02 143.803 1810.02 147.576 L1810.02 162.229 L1805.74 162.229 L1805.74 136.303 L1810.02 136.303 L1810.02 140.331 Q1811.48 137.946 1813.52 136.812 Q1815.55 135.678 1818.35 135.678 Q1821.18 135.678 1823.15 137.113 Q1825.14 138.548 1826.09 141.28 Z" fill="#000000" fill-rule="nonzero" fill-opacity="1" /><path clip-path="url(#clip170)" d="M1863.86 149.196 Q1858.7 149.196 1856.71 150.377 Q1854.72 151.557 1854.72 154.405 Q1854.72 156.673 1856.2 158.016 Q1857.71 159.335 1860.28 159.335 Q1863.82 159.335 1865.95 156.835 Q1868.1 154.312 1868.1 150.145 L1868.1 149.196 L1863.86 149.196 M1872.36 147.437 L1872.36 162.229 L1868.1 162.229 L1868.1 158.293 Q1866.64 160.655 1864.47 161.789 Q1862.29 162.9 1859.14 162.9 Q1855.16 162.9 1852.8 160.678 Q1850.46 158.432 1850.46 154.682 Q1850.46 150.307 1853.38 148.085 Q1856.32 145.863 1862.13 145.863 L1868.1 145.863 L1868.1 145.446 Q1868.1 142.507 1866.16 140.909 Q1864.23 139.289 1860.74 139.289 Q1858.52 139.289 1856.41 139.821 Q1854.3 140.354 1852.36 141.419 L1852.36 137.483 Q1854.7 136.581 1856.9 136.141 Q1859.1 135.678 1861.18 135.678 Q1866.8 135.678 1869.58 138.594 Q1872.36 141.511 1872.36 147.437 Z" fill="#000000" fill-rule="nonzero" fill-opacity="1" /><path clip-path="url(#clip170)" d="M1897.66 137.067 L1897.66 141.094 Q1895.85 140.169 1893.91 139.706 Q1891.97 139.243 1889.88 139.243 Q1886.71 139.243 1885.11 140.215 Q1883.54 141.187 1883.54 143.131 Q1883.54 144.613 1884.67 145.469 Q1885.81 146.303 1889.23 147.067 L1890.69 147.391 Q1895.23 148.363 1897.13 150.145 Q1899.05 151.905 1899.05 155.076 Q1899.05 158.687 1896.18 160.793 Q1893.33 162.9 1888.33 162.9 Q1886.25 162.9 1883.98 162.483 Q1881.73 162.09 1879.23 161.28 L1879.23 156.881 Q1881.6 158.108 1883.89 158.733 Q1886.18 159.335 1888.42 159.335 Q1891.43 159.335 1893.05 158.317 Q1894.67 157.275 1894.67 155.4 Q1894.67 153.664 1893.49 152.738 Q1892.34 151.812 1888.38 150.956 L1886.9 150.608 Q1882.94 149.775 1881.18 148.062 Q1879.42 146.326 1879.42 143.317 Q1879.42 139.659 1882.01 137.669 Q1884.6 135.678 1889.37 135.678 Q1891.73 135.678 1893.82 136.025 Q1895.9 136.372 1897.66 137.067 Z" fill="#000000" fill-rule="nonzero" fill-opacity="1" /><path clip-path="url(#clip170)" d="M1922.36 137.067 L1922.36 141.094 Q1920.55 140.169 1918.61 139.706 Q1916.66 139.243 1914.58 139.243 Q1911.41 139.243 1909.81 140.215 Q1908.24 141.187 1908.24 143.131 Q1908.24 144.613 1909.37 145.469 Q1910.51 146.303 1913.93 147.067 L1915.39 147.391 Q1919.93 148.363 1921.83 150.145 Q1923.75 151.905 1923.75 155.076 Q1923.75 158.687 1920.88 160.793 Q1918.03 162.9 1913.03 162.9 Q1910.95 162.9 1908.68 162.483 Q1906.43 162.09 1903.93 161.28 L1903.93 156.881 Q1906.29 158.108 1908.59 158.733 Q1910.88 159.335 1913.12 159.335 Q1916.13 159.335 1917.75 158.317 Q1919.37 157.275 1919.37 155.4 Q1919.37 153.664 1918.19 152.738 Q1917.03 151.812 1913.08 150.956 L1911.6 150.608 Q1907.64 149.775 1905.88 148.062 Q1904.12 146.326 1904.12 143.317 Q1904.12 139.659 1906.71 137.669 Q1909.3 135.678 1914.07 135.678 Q1916.43 135.678 1918.52 136.025 Q1920.6 136.372 1922.36 137.067 Z" fill="#000000" fill-rule="nonzero" fill-opacity="1" /><path clip-path="url(#clip170)" d="M1931.13 156.349 L1936.02 156.349 L1936.02 162.229 L1931.13 162.229 L1931.13 156.349 Z" fill="#000000" fill-rule="nonzero" fill-opacity="1" /><path clip-path="url(#clip170)" d="M1962.13 137.067 L1962.13 141.094 Q1960.32 140.169 1958.38 139.706 Q1956.43 139.243 1954.35 139.243 Q1951.18 139.243 1949.58 140.215 Q1948.01 141.187 1948.01 143.131 Q1948.01 144.613 1949.14 145.469 Q1950.28 146.303 1953.7 147.067 L1955.16 147.391 Q1959.7 148.363 1961.59 150.145 Q1963.52 151.905 1963.52 155.076 Q1963.52 158.687 1960.65 160.793 Q1957.8 162.9 1952.8 162.9 Q1950.72 162.9 1948.45 162.483 Q1946.2 162.09 1943.7 161.28 L1943.7 156.881 Q1946.06 158.108 1948.35 158.733 Q1950.65 159.335 1952.89 159.335 Q1955.9 159.335 1957.52 158.317 Q1959.14 157.275 1959.14 155.4 Q1959.14 153.664 1957.96 152.738 Q1956.8 151.812 1952.84 150.956 L1951.36 150.608 Q1947.41 149.775 1945.65 148.062 Q1943.89 146.326 1943.89 143.317 Q1943.89 139.659 1946.48 137.669 Q1949.07 135.678 1953.84 135.678 Q1956.2 135.678 1958.28 136.025 Q1960.37 136.372 1962.13 137.067 Z" fill="#000000" fill-rule="nonzero" fill-opacity="1" /><path clip-path="url(#clip170)" d="M1995.6 126.257 Q1992.5 131.581 1990.99 136.789 Q1989.49 141.997 1989.49 147.344 Q1989.49 152.692 1990.99 157.946 Q1992.52 163.178 1995.6 168.479 L1991.9 168.479 Q1988.42 163.039 1986.69 157.784 Q1984.97 152.53 1984.97 147.344 Q1984.97 142.182 1986.69 136.951 Q1988.4 131.72 1991.9 126.257 L1995.6 126.257 Z" fill="#000000" fill-rule="nonzero" fill-opacity="1" /><path clip-path="url(#clip170)" d="M2018.63 143.594 Q2021.99 144.312 2023.86 146.581 Q2025.76 148.849 2025.76 152.182 Q2025.76 157.298 2022.24 160.099 Q2018.72 162.9 2012.24 162.9 Q2010.07 162.9 2007.75 162.46 Q2005.46 162.043 2003.01 161.187 L2003.01 156.673 Q2004.95 157.807 2007.27 158.386 Q2009.58 158.965 2012.1 158.965 Q2016.5 158.965 2018.79 157.229 Q2021.11 155.493 2021.11 152.182 Q2021.11 149.127 2018.96 147.414 Q2016.83 145.678 2013.01 145.678 L2008.98 145.678 L2008.98 141.835 L2013.19 141.835 Q2016.64 141.835 2018.47 140.469 Q2020.3 139.081 2020.3 136.488 Q2020.3 133.826 2018.4 132.414 Q2016.53 130.979 2013.01 130.979 Q2011.09 130.979 2008.89 131.395 Q2006.69 131.812 2004.05 132.692 L2004.05 128.525 Q2006.71 127.784 2009.03 127.414 Q2011.36 127.044 2013.42 127.044 Q2018.75 127.044 2021.85 129.474 Q2024.95 131.882 2024.95 136.002 Q2024.95 138.872 2023.31 140.863 Q2021.66 142.831 2018.63 143.594 Z" fill="#000000" fill-rule="nonzero" fill-opacity="1" /><path clip-path="url(#clip170)" d="M2048.79 143.594 Q2052.15 144.312 2054.02 146.581 Q2055.92 148.849 2055.92 152.182 Q2055.92 157.298 2052.4 160.099 Q2048.89 162.9 2042.4 162.9 Q2040.23 162.9 2037.91 162.46 Q2035.62 162.043 2033.17 161.187 L2033.17 156.673 Q2035.11 157.807 2037.43 158.386 Q2039.74 158.965 2042.27 158.965 Q2046.66 158.965 2048.96 157.229 Q2051.27 155.493 2051.27 152.182 Q2051.27 149.127 2049.12 147.414 Q2046.99 145.678 2043.17 145.678 L2039.14 145.678 L2039.14 141.835 L2043.35 141.835 Q2046.8 141.835 2048.63 140.469 Q2050.46 139.081 2050.46 136.488 Q2050.46 133.826 2048.56 132.414 Q2046.69 130.979 2043.17 130.979 Q2041.25 130.979 2039.05 131.395 Q2036.85 131.812 2034.21 132.692 L2034.21 128.525 Q2036.87 127.784 2039.19 127.414 Q2041.53 127.044 2043.59 127.044 Q2048.91 127.044 2052.01 129.474 Q2055.11 131.882 2055.11 136.002 Q2055.11 138.872 2053.47 140.863 Q2051.83 142.831 2048.79 143.594 Z" fill="#000000" fill-rule="nonzero" fill-opacity="1" /><path clip-path="url(#clip170)" d="M2064.84 127.669 L2083.19 127.669 L2083.19 131.604 L2069.12 131.604 L2069.12 140.076 Q2070.14 139.729 2071.15 139.567 Q2072.17 139.382 2073.19 139.382 Q2078.98 139.382 2082.36 142.553 Q2085.74 145.724 2085.74 151.141 Q2085.74 156.719 2082.27 159.821 Q2078.79 162.9 2072.47 162.9 Q2070.3 162.9 2068.03 162.53 Q2065.78 162.159 2063.38 161.418 L2063.38 156.719 Q2065.46 157.854 2067.68 158.409 Q2069.9 158.965 2072.38 158.965 Q2076.39 158.965 2078.72 156.858 Q2081.06 154.752 2081.06 151.141 Q2081.06 147.53 2078.72 145.423 Q2076.39 143.317 2072.38 143.317 Q2070.51 143.317 2068.63 143.733 Q2066.78 144.15 2064.84 145.03 L2064.84 127.669 Z" fill="#000000" fill-rule="nonzero" fill-opacity="1" /><path clip-path="url(#clip170)" d="M2095 127.669 L2113.35 127.669 L2113.35 131.604 L2099.28 131.604 L2099.28 140.076 Q2100.3 139.729 2101.32 139.567 Q2102.33 139.382 2103.35 139.382 Q2109.14 139.382 2112.52 142.553 Q2115.9 145.724 2115.9 151.141 Q2115.9 156.719 2112.43 159.821 Q2108.96 162.9 2102.64 162.9 Q2100.46 162.9 2098.19 162.53 Q2095.95 162.159 2093.54 161.418 L2093.54 156.719 Q2095.62 157.854 2097.84 158.409 Q2100.07 158.965 2102.54 158.965 Q2106.55 158.965 2108.89 156.858 Q2111.22 154.752 2111.22 151.141 Q2111.22 147.53 2108.89 145.423 Q2106.55 143.317 2102.54 143.317 Q2100.67 143.317 2098.79 143.733 Q2096.94 144.15 2095 145.03 L2095 127.669 Z" fill="#000000" fill-rule="nonzero" fill-opacity="1" /><path clip-path="url(#clip170)" d="M2137.96 131.743 L2126.15 150.192 L2137.96 150.192 L2137.96 131.743 M2136.73 127.669 L2142.61 127.669 L2142.61 150.192 L2147.54 150.192 L2147.54 154.081 L2142.61 154.081 L2142.61 162.229 L2137.96 162.229 L2137.96 154.081 L2122.36 154.081 L2122.36 149.567 L2136.73 127.669 Z" fill="#000000" fill-rule="nonzero" fill-opacity="1" /><path clip-path="url(#clip170)" d="M2168.12 131.743 L2156.32 150.192 L2168.12 150.192 L2168.12 131.743 M2166.89 127.669 L2172.77 127.669 L2172.77 150.192 L2177.7 150.192 L2177.7 154.081 L2172.77 154.081 L2172.77 162.229 L2168.12 162.229 L2168.12 154.081 L2152.52 154.081 L2152.52 149.567 L2166.89 127.669 Z" fill="#000000" fill-rule="nonzero" fill-opacity="1" /><path clip-path="url(#clip170)" d="M2199.6 143.594 Q2202.96 144.312 2204.83 146.581 Q2206.73 148.849 2206.73 152.182 Q2206.73 157.298 2203.21 160.099 Q2199.7 162.9 2193.21 162.9 Q2191.04 162.9 2188.72 162.46 Q2186.43 162.043 2183.98 161.187 L2183.98 156.673 Q2185.92 157.807 2188.24 158.386 Q2190.55 158.965 2193.08 158.965 Q2197.47 158.965 2199.76 157.229 Q2202.08 155.493 2202.08 152.182 Q2202.08 149.127 2199.93 147.414 Q2197.8 145.678 2193.98 145.678 L2189.95 145.678 L2189.95 141.835 L2194.16 141.835 Q2197.61 141.835 2199.44 140.469 Q2201.27 139.081 2201.27 136.488 Q2201.27 133.826 2199.37 132.414 Q2197.5 130.979 2193.98 130.979 Q2192.06 130.979 2189.86 131.395 Q2187.66 131.812 2185.02 132.692 L2185.02 128.525 Q2187.68 127.784 2190 127.414 Q2192.33 127.044 2194.39 127.044 Q2199.72 127.044 2202.82 129.474 Q2205.92 131.882 2205.92 136.002 Q2205.92 138.872 2204.28 140.863 Q2202.64 142.831 2199.6 143.594 Z" fill="#000000" fill-rule="nonzero" fill-opacity="1" /><path clip-path="url(#clip170)" d="M2219.63 158.293 L2235.95 158.293 L2235.95 162.229 L2214 162.229 L2214 158.293 Q2216.66 155.539 2221.25 150.909 Q2225.85 146.256 2227.03 144.914 Q2229.28 142.391 2230.16 140.655 Q2231.06 138.895 2231.06 137.206 Q2231.06 134.451 2229.12 132.715 Q2227.2 130.979 2224.09 130.979 Q2221.89 130.979 2219.44 131.743 Q2217.01 132.507 2214.23 134.057 L2214.23 129.335 Q2217.06 128.201 2219.51 127.622 Q2221.96 127.044 2224 127.044 Q2229.37 127.044 2232.57 129.729 Q2235.76 132.414 2235.76 136.905 Q2235.76 139.034 2234.95 140.956 Q2234.16 142.854 2232.06 145.446 Q2231.48 146.118 2228.38 149.335 Q2225.27 152.53 2219.63 158.293 Z" fill="#000000" fill-rule="nonzero" fill-opacity="1" /><path clip-path="url(#clip170)" d="M2244.49 126.257 L2248.19 126.257 Q2251.66 131.72 2253.38 136.951 Q2255.11 142.182 2255.11 147.344 Q2255.11 152.53 2253.38 157.784 Q2251.66 163.039 2248.19 168.479 L2244.49 168.479 Q2247.57 163.178 2249.07 157.946 Q2250.6 152.692 2250.6 147.344 Q2250.6 141.997 2249.07 136.789 Q2247.57 131.581 2244.49 126.257 Z" fill="#000000" fill-rule="nonzero" fill-opacity="1" /><polyline clip-path="url(#clip170)" style="stroke:#0000ff; stroke-linecap:round; stroke-linejoin:round; stroke-width:4; stroke-opacity:1; fill:none" stroke-dasharray="16, 10" points="1634.86,196.789 1781.33,196.789 "/>
<path clip-path="url(#clip170)" d="M1827.98 180.643 L1827.98 185.203 Q1825.32 183.93 1822.96 183.305 Q1820.6 182.68 1818.4 182.68 Q1814.58 182.68 1812.5 184.161 Q1810.44 185.643 1810.44 188.374 Q1810.44 190.666 1811.8 191.847 Q1813.19 193.004 1817.04 193.722 L1819.86 194.3 Q1825.09 195.296 1827.57 197.819 Q1830.07 200.319 1830.07 204.532 Q1830.07 209.555 1826.69 212.147 Q1823.33 214.74 1816.83 214.74 Q1814.37 214.74 1811.6 214.184 Q1808.84 213.629 1805.88 212.541 L1805.88 207.726 Q1808.73 209.323 1811.46 210.133 Q1814.19 210.944 1816.83 210.944 Q1820.83 210.944 1823.01 209.37 Q1825.18 207.796 1825.18 204.879 Q1825.18 202.333 1823.61 200.897 Q1822.06 199.462 1818.49 198.745 L1815.65 198.189 Q1810.42 197.147 1808.08 194.925 Q1805.74 192.703 1805.74 188.745 Q1805.74 184.161 1808.96 181.522 Q1812.2 178.884 1817.87 178.884 Q1820.3 178.884 1822.82 179.323 Q1825.35 179.763 1827.98 180.643 Z" fill="#000000" fill-rule="nonzero" fill-opacity="1" /><path clip-path="url(#clip170)" d="M1841.39 180.782 L1841.39 188.143 L1850.16 188.143 L1850.16 191.453 L1841.39 191.453 L1841.39 205.527 Q1841.39 208.698 1842.24 209.601 Q1843.12 210.504 1845.79 210.504 L1850.16 210.504 L1850.16 214.069 L1845.79 214.069 Q1840.85 214.069 1838.98 212.24 Q1837.1 210.388 1837.1 205.527 L1837.1 191.453 L1833.98 191.453 L1833.98 188.143 L1837.1 188.143 L1837.1 180.782 L1841.39 180.782 Z" fill="#000000" fill-rule="nonzero" fill-opacity="1" /><path clip-path="url(#clip170)" d="M1867.54 201.036 Q1862.38 201.036 1860.39 202.217 Q1858.4 203.397 1858.4 206.245 Q1858.4 208.513 1859.88 209.856 Q1861.39 211.175 1863.96 211.175 Q1867.5 211.175 1869.63 208.675 Q1871.78 206.152 1871.78 201.985 L1871.78 201.036 L1867.54 201.036 M1876.04 199.277 L1876.04 214.069 L1871.78 214.069 L1871.78 210.133 Q1870.32 212.495 1868.15 213.629 Q1865.97 214.74 1862.82 214.74 Q1858.84 214.74 1856.48 212.518 Q1854.14 210.272 1854.14 206.522 Q1854.14 202.147 1857.06 199.925 Q1860 197.703 1865.81 197.703 L1871.78 197.703 L1871.78 197.286 Q1871.78 194.347 1869.84 192.749 Q1867.91 191.129 1864.42 191.129 Q1862.2 191.129 1860.09 191.661 Q1857.98 192.194 1856.04 193.259 L1856.04 189.323 Q1858.38 188.421 1860.58 187.981 Q1862.78 187.518 1864.86 187.518 Q1870.48 187.518 1873.26 190.434 Q1876.04 193.351 1876.04 199.277 Z" fill="#000000" fill-rule="nonzero" fill-opacity="1" /><path clip-path="url(#clip170)" d="M1889.03 180.782 L1889.03 188.143 L1897.8 188.143 L1897.8 191.453 L1889.03 191.453 L1889.03 205.527 Q1889.03 208.698 1889.88 209.601 Q1890.76 210.504 1893.42 210.504 L1897.8 210.504 L1897.8 214.069 L1893.42 214.069 Q1888.49 214.069 1886.62 212.24 Q1884.74 210.388 1884.74 205.527 L1884.74 191.453 L1881.62 191.453 L1881.62 188.143 L1884.74 188.143 L1884.74 180.782 L1889.03 180.782 Z" fill="#000000" fill-rule="nonzero" fill-opacity="1" /><path clip-path="url(#clip170)" d="M1925.58 200.041 L1925.58 202.124 L1905.99 202.124 Q1906.27 206.522 1908.63 208.837 Q1911.02 211.129 1915.25 211.129 Q1917.71 211.129 1920 210.527 Q1922.31 209.925 1924.58 208.721 L1924.58 212.749 Q1922.29 213.721 1919.88 214.231 Q1917.47 214.74 1915 214.74 Q1908.79 214.74 1905.16 211.129 Q1901.55 207.518 1901.55 201.36 Q1901.55 194.995 1904.97 191.268 Q1908.42 187.518 1914.26 187.518 Q1919.49 187.518 1922.52 190.897 Q1925.58 194.254 1925.58 200.041 M1921.32 198.791 Q1921.27 195.296 1919.35 193.212 Q1917.45 191.129 1914.3 191.129 Q1910.74 191.129 1908.59 193.143 Q1906.46 195.157 1906.13 198.814 L1921.32 198.791 Z" fill="#000000" fill-rule="nonzero" fill-opacity="1" /><path clip-path="url(#clip170)" d="M1969.81 200.041 L1969.81 202.124 L1950.23 202.124 Q1950.51 206.522 1952.87 208.837 Q1955.25 211.129 1959.49 211.129 Q1961.94 211.129 1964.23 210.527 Q1966.55 209.925 1968.82 208.721 L1968.82 212.749 Q1966.53 213.721 1964.12 214.231 Q1961.71 214.74 1959.23 214.74 Q1953.03 214.74 1949.4 211.129 Q1945.78 207.518 1945.78 201.36 Q1945.78 194.995 1949.21 191.268 Q1952.66 187.518 1958.49 187.518 Q1963.72 187.518 1966.76 190.897 Q1969.81 194.254 1969.81 200.041 M1965.55 198.791 Q1965.51 195.296 1963.59 193.212 Q1961.69 191.129 1958.54 191.129 Q1954.97 191.129 1952.82 193.143 Q1950.69 195.157 1950.37 198.814 L1965.55 198.791 Z" fill="#000000" fill-rule="nonzero" fill-opacity="1" /><path clip-path="url(#clip170)" d="M1973.75 188.143 L1978.26 188.143 L1986.36 209.902 L1994.47 188.143 L1998.98 188.143 L1989.26 214.069 L1983.47 214.069 L1973.75 188.143 Z" fill="#000000" fill-rule="nonzero" fill-opacity="1" /><path clip-path="url(#clip170)" d="M2027.03 200.041 L2027.03 202.124 L2007.45 202.124 Q2007.73 206.522 2010.09 208.837 Q2012.47 211.129 2016.71 211.129 Q2019.16 211.129 2021.46 210.527 Q2023.77 209.925 2026.04 208.721 L2026.04 212.749 Q2023.75 213.721 2021.34 214.231 Q2018.93 214.74 2016.46 214.74 Q2010.25 214.74 2006.62 211.129 Q2003.01 207.518 2003.01 201.36 Q2003.01 194.995 2006.43 191.268 Q2009.88 187.518 2015.71 187.518 Q2020.95 187.518 2023.98 190.897 Q2027.03 194.254 2027.03 200.041 M2022.78 198.791 Q2022.73 195.296 2020.81 193.212 Q2018.91 191.129 2015.76 191.129 Q2012.2 191.129 2010.04 193.143 Q2007.91 195.157 2007.59 198.814 L2022.78 198.791 Z" fill="#000000" fill-rule="nonzero" fill-opacity="1" /><path clip-path="url(#clip170)" d="M2055.58 198.421 L2055.58 214.069 L2051.32 214.069 L2051.32 198.559 Q2051.32 194.879 2049.88 193.05 Q2048.45 191.222 2045.58 191.222 Q2042.13 191.222 2040.14 193.421 Q2038.15 195.62 2038.15 199.416 L2038.15 214.069 L2033.86 214.069 L2033.86 188.143 L2038.15 188.143 L2038.15 192.171 Q2039.67 189.833 2041.73 188.675 Q2043.82 187.518 2046.53 187.518 Q2050.99 187.518 2053.28 190.296 Q2055.58 193.05 2055.58 198.421 Z" fill="#000000" fill-rule="nonzero" fill-opacity="1" /><path clip-path="url(#clip170)" d="M2068.28 180.782 L2068.28 188.143 L2077.06 188.143 L2077.06 191.453 L2068.28 191.453 L2068.28 205.527 Q2068.28 208.698 2069.14 209.601 Q2070.02 210.504 2072.68 210.504 L2077.06 210.504 L2077.06 214.069 L2072.68 214.069 Q2067.75 214.069 2065.88 212.24 Q2064 210.388 2064 205.527 L2064 191.453 L2060.88 191.453 L2060.88 188.143 L2064 188.143 L2064 180.782 L2068.28 180.782 Z" fill="#000000" fill-rule="nonzero" fill-opacity="1" /><path clip-path="url(#clip170)" d="M2092.89 178.097 Q2089.79 183.421 2088.28 188.629 Q2086.78 193.837 2086.78 199.184 Q2086.78 204.532 2088.28 209.786 Q2089.81 215.018 2092.89 220.319 L2089.19 220.319 Q2085.71 214.879 2083.98 209.624 Q2082.27 204.37 2082.27 199.184 Q2082.27 194.022 2083.98 188.791 Q2085.69 183.56 2089.19 178.097 L2092.89 178.097 Z" fill="#000000" fill-rule="nonzero" fill-opacity="1" /><path clip-path="url(#clip170)" d="M2117.68 188.907 L2117.68 192.934 Q2115.88 192.009 2113.93 191.546 Q2111.99 191.083 2109.9 191.083 Q2106.73 191.083 2105.14 192.055 Q2103.56 193.027 2103.56 194.971 Q2103.56 196.453 2104.7 197.309 Q2105.83 198.143 2109.26 198.907 L2110.71 199.231 Q2115.25 200.203 2117.15 201.985 Q2119.07 203.745 2119.07 206.916 Q2119.07 210.527 2116.2 212.633 Q2113.35 214.74 2108.35 214.74 Q2106.27 214.74 2104 214.323 Q2101.76 213.93 2099.26 213.12 L2099.26 208.721 Q2101.62 209.948 2103.91 210.573 Q2106.2 211.175 2108.45 211.175 Q2111.46 211.175 2113.08 210.157 Q2114.7 209.115 2114.7 207.24 Q2114.7 205.504 2113.52 204.578 Q2112.36 203.652 2108.4 202.796 L2106.92 202.448 Q2102.96 201.615 2101.2 199.902 Q2099.44 198.166 2099.44 195.157 Q2099.44 191.499 2102.03 189.509 Q2104.63 187.518 2109.4 187.518 Q2111.76 187.518 2113.84 187.865 Q2115.92 188.212 2117.68 188.907 Z" fill="#000000" fill-rule="nonzero" fill-opacity="1" /><path clip-path="url(#clip170)" d="M2125.18 178.097 L2128.89 178.097 Q2132.36 183.56 2134.07 188.791 Q2135.81 194.022 2135.81 199.184 Q2135.81 204.37 2134.07 209.624 Q2132.36 214.879 2128.89 220.319 L2125.18 220.319 Q2128.26 215.018 2129.77 209.786 Q2131.29 204.532 2131.29 199.184 Q2131.29 193.837 2129.77 188.629 Q2128.26 183.421 2125.18 178.097 Z" fill="#000000" fill-rule="nonzero" fill-opacity="1" /><polyline clip-path="url(#clip170)" style="stroke:#c68125; stroke-linecap:round; stroke-linejoin:round; stroke-width:4; stroke-opacity:1; fill:none" stroke-dasharray="16, 10" points="1634.86,248.629 1781.33,248.629 "/>
<path clip-path="url(#clip170)" d="M1826.09 244.96 Q1827.68 242.089 1829.91 240.724 Q1832.13 239.358 1835.14 239.358 Q1839.19 239.358 1841.39 242.205 Q1843.59 245.029 1843.59 250.261 L1843.59 265.909 L1839.3 265.909 L1839.3 250.399 Q1839.3 246.673 1837.98 244.867 Q1836.67 243.062 1833.96 243.062 Q1830.65 243.062 1828.73 245.261 Q1826.8 247.46 1826.8 251.256 L1826.8 265.909 L1822.52 265.909 L1822.52 250.399 Q1822.52 246.649 1821.2 244.867 Q1819.88 243.062 1817.13 243.062 Q1813.86 243.062 1811.94 245.284 Q1810.02 247.483 1810.02 251.256 L1810.02 265.909 L1805.74 265.909 L1805.74 239.983 L1810.02 239.983 L1810.02 244.011 Q1811.48 241.626 1813.52 240.492 Q1815.55 239.358 1818.35 239.358 Q1821.18 239.358 1823.15 240.793 Q1825.14 242.228 1826.09 244.96 Z" fill="#000000" fill-rule="nonzero" fill-opacity="1" /><path clip-path="url(#clip170)" d="M1863.86 252.876 Q1858.7 252.876 1856.71 254.057 Q1854.72 255.237 1854.72 258.085 Q1854.72 260.353 1856.2 261.696 Q1857.71 263.015 1860.28 263.015 Q1863.82 263.015 1865.95 260.515 Q1868.1 257.992 1868.1 253.825 L1868.1 252.876 L1863.86 252.876 M1872.36 251.117 L1872.36 265.909 L1868.1 265.909 L1868.1 261.973 Q1866.64 264.335 1864.47 265.469 Q1862.29 266.58 1859.14 266.58 Q1855.16 266.58 1852.8 264.358 Q1850.46 262.112 1850.46 258.362 Q1850.46 253.987 1853.38 251.765 Q1856.32 249.543 1862.13 249.543 L1868.1 249.543 L1868.1 249.126 Q1868.1 246.187 1866.16 244.589 Q1864.23 242.969 1860.74 242.969 Q1858.52 242.969 1856.41 243.501 Q1854.3 244.034 1852.36 245.099 L1852.36 241.163 Q1854.7 240.261 1856.9 239.821 Q1859.1 239.358 1861.18 239.358 Q1866.8 239.358 1869.58 242.274 Q1872.36 245.191 1872.36 251.117 Z" fill="#000000" fill-rule="nonzero" fill-opacity="1" /><path clip-path="url(#clip170)" d="M1897.66 240.747 L1897.66 244.774 Q1895.85 243.849 1893.91 243.386 Q1891.97 242.923 1889.88 242.923 Q1886.71 242.923 1885.11 243.895 Q1883.54 244.867 1883.54 246.811 Q1883.54 248.293 1884.67 249.149 Q1885.81 249.983 1889.23 250.747 L1890.69 251.071 Q1895.23 252.043 1897.13 253.825 Q1899.05 255.585 1899.05 258.756 Q1899.05 262.367 1896.18 264.473 Q1893.33 266.58 1888.33 266.58 Q1886.25 266.58 1883.98 266.163 Q1881.73 265.77 1879.23 264.96 L1879.23 260.561 Q1881.6 261.788 1883.89 262.413 Q1886.18 263.015 1888.42 263.015 Q1891.43 263.015 1893.05 261.997 Q1894.67 260.955 1894.67 259.08 Q1894.67 257.344 1893.49 256.418 Q1892.34 255.492 1888.38 254.636 L1886.9 254.288 Q1882.94 253.455 1881.18 251.742 Q1879.42 250.006 1879.42 246.997 Q1879.42 243.339 1882.01 241.349 Q1884.6 239.358 1889.37 239.358 Q1891.73 239.358 1893.82 239.705 Q1895.9 240.052 1897.66 240.747 Z" fill="#000000" fill-rule="nonzero" fill-opacity="1" /><path clip-path="url(#clip170)" d="M1922.36 240.747 L1922.36 244.774 Q1920.55 243.849 1918.61 243.386 Q1916.66 242.923 1914.58 242.923 Q1911.41 242.923 1909.81 243.895 Q1908.24 244.867 1908.24 246.811 Q1908.24 248.293 1909.37 249.149 Q1910.51 249.983 1913.93 250.747 L1915.39 251.071 Q1919.93 252.043 1921.83 253.825 Q1923.75 255.585 1923.75 258.756 Q1923.75 262.367 1920.88 264.473 Q1918.03 266.58 1913.03 266.58 Q1910.95 266.58 1908.68 266.163 Q1906.43 265.77 1903.93 264.96 L1903.93 260.561 Q1906.29 261.788 1908.59 262.413 Q1910.88 263.015 1913.12 263.015 Q1916.13 263.015 1917.75 261.997 Q1919.37 260.955 1919.37 259.08 Q1919.37 257.344 1918.19 256.418 Q1917.03 255.492 1913.08 254.636 L1911.6 254.288 Q1907.64 253.455 1905.88 251.742 Q1904.12 250.006 1904.12 246.997 Q1904.12 243.339 1906.71 241.349 Q1909.3 239.358 1914.07 239.358 Q1916.43 239.358 1918.52 239.705 Q1920.6 240.052 1922.36 240.747 Z" fill="#000000" fill-rule="nonzero" fill-opacity="1" /><path clip-path="url(#clip170)" d="M1931.13 260.029 L1936.02 260.029 L1936.02 265.909 L1931.13 265.909 L1931.13 260.029 Z" fill="#000000" fill-rule="nonzero" fill-opacity="1" /><path clip-path="url(#clip170)" d="M1962.13 240.747 L1962.13 244.774 Q1960.32 243.849 1958.38 243.386 Q1956.43 242.923 1954.35 242.923 Q1951.18 242.923 1949.58 243.895 Q1948.01 244.867 1948.01 246.811 Q1948.01 248.293 1949.14 249.149 Q1950.28 249.983 1953.7 250.747 L1955.16 251.071 Q1959.7 252.043 1961.59 253.825 Q1963.52 255.585 1963.52 258.756 Q1963.52 262.367 1960.65 264.473 Q1957.8 266.58 1952.8 266.58 Q1950.72 266.58 1948.45 266.163 Q1946.2 265.77 1943.7 264.96 L1943.7 260.561 Q1946.06 261.788 1948.35 262.413 Q1950.65 263.015 1952.89 263.015 Q1955.9 263.015 1957.52 261.997 Q1959.14 260.955 1959.14 259.08 Q1959.14 257.344 1957.96 256.418 Q1956.8 255.492 1952.84 254.636 L1951.36 254.288 Q1947.41 253.455 1945.65 251.742 Q1943.89 250.006 1943.89 246.997 Q1943.89 243.339 1946.48 241.349 Q1949.07 239.358 1953.84 239.358 Q1956.2 239.358 1958.28 239.705 Q1960.37 240.052 1962.13 240.747 Z" fill="#000000" fill-rule="nonzero" fill-opacity="1" /><path clip-path="url(#clip170)" d="M1995.6 229.937 Q1992.5 235.261 1990.99 240.469 Q1989.49 245.677 1989.49 251.024 Q1989.49 256.372 1990.99 261.626 Q1992.52 266.858 1995.6 272.159 L1991.9 272.159 Q1988.42 266.719 1986.69 261.464 Q1984.97 256.21 1984.97 251.024 Q1984.97 245.862 1986.69 240.631 Q1988.4 235.4 1991.9 229.937 L1995.6 229.937 Z" fill="#000000" fill-rule="nonzero" fill-opacity="1" /><path clip-path="url(#clip170)" d="M2018.63 247.274 Q2021.99 247.992 2023.86 250.261 Q2025.76 252.529 2025.76 255.862 Q2025.76 260.978 2022.24 263.779 Q2018.72 266.58 2012.24 266.58 Q2010.07 266.58 2007.75 266.14 Q2005.46 265.723 2003.01 264.867 L2003.01 260.353 Q2004.95 261.487 2007.27 262.066 Q2009.58 262.645 2012.1 262.645 Q2016.5 262.645 2018.79 260.909 Q2021.11 259.173 2021.11 255.862 Q2021.11 252.807 2018.96 251.094 Q2016.83 249.358 2013.01 249.358 L2008.98 249.358 L2008.98 245.515 L2013.19 245.515 Q2016.64 245.515 2018.47 244.149 Q2020.3 242.761 2020.3 240.168 Q2020.3 237.506 2018.4 236.094 Q2016.53 234.659 2013.01 234.659 Q2011.09 234.659 2008.89 235.075 Q2006.69 235.492 2004.05 236.372 L2004.05 232.205 Q2006.71 231.464 2009.03 231.094 Q2011.36 230.724 2013.42 230.724 Q2018.75 230.724 2021.85 233.154 Q2024.95 235.562 2024.95 239.682 Q2024.95 242.552 2023.31 244.543 Q2021.66 246.511 2018.63 247.274 Z" fill="#000000" fill-rule="nonzero" fill-opacity="1" /><path clip-path="url(#clip170)" d="M2048.79 247.274 Q2052.15 247.992 2054.02 250.261 Q2055.92 252.529 2055.92 255.862 Q2055.92 260.978 2052.4 263.779 Q2048.89 266.58 2042.4 266.58 Q2040.23 266.58 2037.91 266.14 Q2035.62 265.723 2033.17 264.867 L2033.17 260.353 Q2035.11 261.487 2037.43 262.066 Q2039.74 262.645 2042.27 262.645 Q2046.66 262.645 2048.96 260.909 Q2051.27 259.173 2051.27 255.862 Q2051.27 252.807 2049.12 251.094 Q2046.99 249.358 2043.17 249.358 L2039.14 249.358 L2039.14 245.515 L2043.35 245.515 Q2046.8 245.515 2048.63 244.149 Q2050.46 242.761 2050.46 240.168 Q2050.46 237.506 2048.56 236.094 Q2046.69 234.659 2043.17 234.659 Q2041.25 234.659 2039.05 235.075 Q2036.85 235.492 2034.21 236.372 L2034.21 232.205 Q2036.87 231.464 2039.19 231.094 Q2041.53 230.724 2043.59 230.724 Q2048.91 230.724 2052.01 233.154 Q2055.11 235.562 2055.11 239.682 Q2055.11 242.552 2053.47 244.543 Q2051.83 246.511 2048.79 247.274 Z" fill="#000000" fill-rule="nonzero" fill-opacity="1" /><path clip-path="url(#clip170)" d="M2064.84 231.349 L2083.19 231.349 L2083.19 235.284 L2069.12 235.284 L2069.12 243.756 Q2070.14 243.409 2071.15 243.247 Q2072.17 243.062 2073.19 243.062 Q2078.98 243.062 2082.36 246.233 Q2085.74 249.404 2085.74 254.821 Q2085.74 260.399 2082.27 263.501 Q2078.79 266.58 2072.47 266.58 Q2070.3 266.58 2068.03 266.21 Q2065.78 265.839 2063.38 265.098 L2063.38 260.399 Q2065.46 261.534 2067.68 262.089 Q2069.9 262.645 2072.38 262.645 Q2076.39 262.645 2078.72 260.538 Q2081.06 258.432 2081.06 254.821 Q2081.06 251.21 2078.72 249.103 Q2076.39 246.997 2072.38 246.997 Q2070.51 246.997 2068.63 247.413 Q2066.78 247.83 2064.84 248.71 L2064.84 231.349 Z" fill="#000000" fill-rule="nonzero" fill-opacity="1" /><path clip-path="url(#clip170)" d="M2095 231.349 L2113.35 231.349 L2113.35 235.284 L2099.28 235.284 L2099.28 243.756 Q2100.3 243.409 2101.32 243.247 Q2102.33 243.062 2103.35 243.062 Q2109.14 243.062 2112.52 246.233 Q2115.9 249.404 2115.9 254.821 Q2115.9 260.399 2112.43 263.501 Q2108.96 266.58 2102.64 266.58 Q2100.46 266.58 2098.19 266.21 Q2095.95 265.839 2093.54 265.098 L2093.54 260.399 Q2095.62 261.534 2097.84 262.089 Q2100.07 262.645 2102.54 262.645 Q2106.55 262.645 2108.89 260.538 Q2111.22 258.432 2111.22 254.821 Q2111.22 251.21 2108.89 249.103 Q2106.55 246.997 2102.54 246.997 Q2100.67 246.997 2098.79 247.413 Q2096.94 247.83 2095 248.71 L2095 231.349 Z" fill="#000000" fill-rule="nonzero" fill-opacity="1" /><path clip-path="url(#clip170)" d="M2137.96 235.423 L2126.15 253.872 L2137.96 253.872 L2137.96 235.423 M2136.73 231.349 L2142.61 231.349 L2142.61 253.872 L2147.54 253.872 L2147.54 257.761 L2142.61 257.761 L2142.61 265.909 L2137.96 265.909 L2137.96 257.761 L2122.36 257.761 L2122.36 253.247 L2136.73 231.349 Z" fill="#000000" fill-rule="nonzero" fill-opacity="1" /><path clip-path="url(#clip170)" d="M2168.12 235.423 L2156.32 253.872 L2168.12 253.872 L2168.12 235.423 M2166.89 231.349 L2172.77 231.349 L2172.77 253.872 L2177.7 253.872 L2177.7 257.761 L2172.77 257.761 L2172.77 265.909 L2168.12 265.909 L2168.12 257.761 L2152.52 257.761 L2152.52 253.247 L2166.89 231.349 Z" fill="#000000" fill-rule="nonzero" fill-opacity="1" /><path clip-path="url(#clip170)" d="M2199.6 247.274 Q2202.96 247.992 2204.83 250.261 Q2206.73 252.529 2206.73 255.862 Q2206.73 260.978 2203.21 263.779 Q2199.7 266.58 2193.21 266.58 Q2191.04 266.58 2188.72 266.14 Q2186.43 265.723 2183.98 264.867 L2183.98 260.353 Q2185.92 261.487 2188.24 262.066 Q2190.55 262.645 2193.08 262.645 Q2197.47 262.645 2199.76 260.909 Q2202.08 259.173 2202.08 255.862 Q2202.08 252.807 2199.93 251.094 Q2197.8 249.358 2193.98 249.358 L2189.95 249.358 L2189.95 245.515 L2194.16 245.515 Q2197.61 245.515 2199.44 244.149 Q2201.27 242.761 2201.27 240.168 Q2201.27 237.506 2199.37 236.094 Q2197.5 234.659 2193.98 234.659 Q2192.06 234.659 2189.86 235.075 Q2187.66 235.492 2185.02 236.372 L2185.02 232.205 Q2187.68 231.464 2190 231.094 Q2192.33 230.724 2194.39 230.724 Q2199.72 230.724 2202.82 233.154 Q2205.92 235.562 2205.92 239.682 Q2205.92 242.552 2204.28 244.543 Q2202.64 246.511 2199.6 247.274 Z" fill="#000000" fill-rule="nonzero" fill-opacity="1" /><path clip-path="url(#clip170)" d="M2219.63 261.973 L2235.95 261.973 L2235.95 265.909 L2214 265.909 L2214 261.973 Q2216.66 259.219 2221.25 254.589 Q2225.85 249.936 2227.03 248.594 Q2229.28 246.071 2230.16 244.335 Q2231.06 242.575 2231.06 240.886 Q2231.06 238.131 2229.12 236.395 Q2227.2 234.659 2224.09 234.659 Q2221.89 234.659 2219.44 235.423 Q2217.01 236.187 2214.23 237.737 L2214.23 233.015 Q2217.06 231.881 2219.51 231.302 Q2221.96 230.724 2224 230.724 Q2229.37 230.724 2232.57 233.409 Q2235.76 236.094 2235.76 240.585 Q2235.76 242.714 2234.95 244.636 Q2234.16 246.534 2232.06 249.126 Q2231.48 249.798 2228.38 253.015 Q2225.27 256.21 2219.63 261.973 Z" fill="#000000" fill-rule="nonzero" fill-opacity="1" /><path clip-path="url(#clip170)" d="M2244.49 229.937 L2248.19 229.937 Q2251.66 235.4 2253.38 240.631 Q2255.11 245.862 2255.11 251.024 Q2255.11 256.21 2253.38 261.464 Q2251.66 266.719 2248.19 272.159 L2244.49 272.159 Q2247.57 266.858 2249.07 261.626 Q2250.6 256.372 2250.6 251.024 Q2250.6 245.677 2249.07 240.469 Q2247.57 235.261 2244.49 229.937 Z" fill="#000000" fill-rule="nonzero" fill-opacity="1" /><polyline clip-path="url(#clip170)" style="stroke:#0000ff; stroke-linecap:round; stroke-linejoin:round; stroke-width:4; stroke-opacity:1; fill:none" stroke-dasharray="16, 10" points="1634.86,300.469 1781.33,300.469 "/>
<path clip-path="url(#clip170)" d="M1827.98 284.323 L1827.98 288.883 Q1825.32 287.61 1822.96 286.985 Q1820.6 286.36 1818.4 286.36 Q1814.58 286.36 1812.5 287.841 Q1810.44 289.323 1810.44 292.054 Q1810.44 294.346 1811.8 295.527 Q1813.19 296.684 1817.04 297.402 L1819.86 297.98 Q1825.09 298.976 1827.57 301.499 Q1830.07 303.999 1830.07 308.212 Q1830.07 313.235 1826.69 315.827 Q1823.33 318.42 1816.83 318.42 Q1814.37 318.42 1811.6 317.864 Q1808.84 317.309 1805.88 316.221 L1805.88 311.406 Q1808.73 313.003 1811.46 313.813 Q1814.19 314.624 1816.83 314.624 Q1820.83 314.624 1823.01 313.05 Q1825.18 311.476 1825.18 308.559 Q1825.18 306.013 1823.61 304.577 Q1822.06 303.142 1818.49 302.425 L1815.65 301.869 Q1810.42 300.827 1808.08 298.605 Q1805.74 296.383 1805.74 292.425 Q1805.74 287.841 1808.96 285.202 Q1812.2 282.564 1817.87 282.564 Q1820.3 282.564 1822.82 283.003 Q1825.35 283.443 1827.98 284.323 Z" fill="#000000" fill-rule="nonzero" fill-opacity="1" /><path clip-path="url(#clip170)" d="M1841.39 284.462 L1841.39 291.823 L1850.16 291.823 L1850.16 295.133 L1841.39 295.133 L1841.39 309.207 Q1841.39 312.378 1842.24 313.281 Q1843.12 314.184 1845.79 314.184 L1850.16 314.184 L1850.16 317.749 L1845.79 317.749 Q1840.85 317.749 1838.98 315.92 Q1837.1 314.068 1837.1 309.207 L1837.1 295.133 L1833.98 295.133 L1833.98 291.823 L1837.1 291.823 L1837.1 284.462 L1841.39 284.462 Z" fill="#000000" fill-rule="nonzero" fill-opacity="1" /><path clip-path="url(#clip170)" d="M1867.54 304.716 Q1862.38 304.716 1860.39 305.897 Q1858.4 307.077 1858.4 309.925 Q1858.4 312.193 1859.88 313.536 Q1861.39 314.855 1863.96 314.855 Q1867.5 314.855 1869.63 312.355 Q1871.78 309.832 1871.78 305.665 L1871.78 304.716 L1867.54 304.716 M1876.04 302.957 L1876.04 317.749 L1871.78 317.749 L1871.78 313.813 Q1870.32 316.175 1868.15 317.309 Q1865.97 318.42 1862.82 318.42 Q1858.84 318.42 1856.48 316.198 Q1854.14 313.952 1854.14 310.202 Q1854.14 305.827 1857.06 303.605 Q1860 301.383 1865.81 301.383 L1871.78 301.383 L1871.78 300.966 Q1871.78 298.027 1869.84 296.429 Q1867.91 294.809 1864.42 294.809 Q1862.2 294.809 1860.09 295.341 Q1857.98 295.874 1856.04 296.939 L1856.04 293.003 Q1858.38 292.101 1860.58 291.661 Q1862.78 291.198 1864.86 291.198 Q1870.48 291.198 1873.26 294.114 Q1876.04 297.031 1876.04 302.957 Z" fill="#000000" fill-rule="nonzero" fill-opacity="1" /><path clip-path="url(#clip170)" d="M1889.03 284.462 L1889.03 291.823 L1897.8 291.823 L1897.8 295.133 L1889.03 295.133 L1889.03 309.207 Q1889.03 312.378 1889.88 313.281 Q1890.76 314.184 1893.42 314.184 L1897.8 314.184 L1897.8 317.749 L1893.42 317.749 Q1888.49 317.749 1886.62 315.92 Q1884.74 314.068 1884.74 309.207 L1884.74 295.133 L1881.62 295.133 L1881.62 291.823 L1884.74 291.823 L1884.74 284.462 L1889.03 284.462 Z" fill="#000000" fill-rule="nonzero" fill-opacity="1" /><path clip-path="url(#clip170)" d="M1925.58 303.721 L1925.58 305.804 L1905.99 305.804 Q1906.27 310.202 1908.63 312.517 Q1911.02 314.809 1915.25 314.809 Q1917.71 314.809 1920 314.207 Q1922.31 313.605 1924.58 312.401 L1924.58 316.429 Q1922.29 317.401 1919.88 317.911 Q1917.47 318.42 1915 318.42 Q1908.79 318.42 1905.16 314.809 Q1901.55 311.198 1901.55 305.04 Q1901.55 298.675 1904.97 294.948 Q1908.42 291.198 1914.26 291.198 Q1919.49 291.198 1922.52 294.577 Q1925.58 297.934 1925.58 303.721 M1921.32 302.471 Q1921.27 298.976 1919.35 296.892 Q1917.45 294.809 1914.3 294.809 Q1910.74 294.809 1908.59 296.823 Q1906.46 298.837 1906.13 302.494 L1921.32 302.471 Z" fill="#000000" fill-rule="nonzero" fill-opacity="1" /><path clip-path="url(#clip170)" d="M1969.81 303.721 L1969.81 305.804 L1950.23 305.804 Q1950.51 310.202 1952.87 312.517 Q1955.25 314.809 1959.49 314.809 Q1961.94 314.809 1964.23 314.207 Q1966.55 313.605 1968.82 312.401 L1968.82 316.429 Q1966.53 317.401 1964.12 317.911 Q1961.71 318.42 1959.23 318.42 Q1953.03 318.42 1949.4 314.809 Q1945.78 311.198 1945.78 305.04 Q1945.78 298.675 1949.21 294.948 Q1952.66 291.198 1958.49 291.198 Q1963.72 291.198 1966.76 294.577 Q1969.81 297.934 1969.81 303.721 M1965.55 302.471 Q1965.51 298.976 1963.59 296.892 Q1961.69 294.809 1958.54 294.809 Q1954.97 294.809 1952.82 296.823 Q1950.69 298.837 1950.37 302.494 L1965.55 302.471 Z" fill="#000000" fill-rule="nonzero" fill-opacity="1" /><path clip-path="url(#clip170)" d="M1973.75 291.823 L1978.26 291.823 L1986.36 313.582 L1994.47 291.823 L1998.98 291.823 L1989.26 317.749 L1983.47 317.749 L1973.75 291.823 Z" fill="#000000" fill-rule="nonzero" fill-opacity="1" /><path clip-path="url(#clip170)" d="M2027.03 303.721 L2027.03 305.804 L2007.45 305.804 Q2007.73 310.202 2010.09 312.517 Q2012.47 314.809 2016.71 314.809 Q2019.16 314.809 2021.46 314.207 Q2023.77 313.605 2026.04 312.401 L2026.04 316.429 Q2023.75 317.401 2021.34 317.911 Q2018.93 318.42 2016.46 318.42 Q2010.25 318.42 2006.62 314.809 Q2003.01 311.198 2003.01 305.04 Q2003.01 298.675 2006.43 294.948 Q2009.88 291.198 2015.71 291.198 Q2020.95 291.198 2023.98 294.577 Q2027.03 297.934 2027.03 303.721 M2022.78 302.471 Q2022.73 298.976 2020.81 296.892 Q2018.91 294.809 2015.76 294.809 Q2012.2 294.809 2010.04 296.823 Q2007.91 298.837 2007.59 302.494 L2022.78 302.471 Z" fill="#000000" fill-rule="nonzero" fill-opacity="1" /><path clip-path="url(#clip170)" d="M2055.58 302.101 L2055.58 317.749 L2051.32 317.749 L2051.32 302.239 Q2051.32 298.559 2049.88 296.73 Q2048.45 294.902 2045.58 294.902 Q2042.13 294.902 2040.14 297.101 Q2038.15 299.3 2038.15 303.096 L2038.15 317.749 L2033.86 317.749 L2033.86 291.823 L2038.15 291.823 L2038.15 295.851 Q2039.67 293.513 2041.73 292.355 Q2043.82 291.198 2046.53 291.198 Q2050.99 291.198 2053.28 293.976 Q2055.58 296.73 2055.58 302.101 Z" fill="#000000" fill-rule="nonzero" fill-opacity="1" /><path clip-path="url(#clip170)" d="M2068.28 284.462 L2068.28 291.823 L2077.06 291.823 L2077.06 295.133 L2068.28 295.133 L2068.28 309.207 Q2068.28 312.378 2069.14 313.281 Q2070.02 314.184 2072.68 314.184 L2077.06 314.184 L2077.06 317.749 L2072.68 317.749 Q2067.75 317.749 2065.88 315.92 Q2064 314.068 2064 309.207 L2064 295.133 L2060.88 295.133 L2060.88 291.823 L2064 291.823 L2064 284.462 L2068.28 284.462 Z" fill="#000000" fill-rule="nonzero" fill-opacity="1" /><path clip-path="url(#clip170)" d="M2092.89 281.777 Q2089.79 287.101 2088.28 292.309 Q2086.78 297.517 2086.78 302.864 Q2086.78 308.212 2088.28 313.466 Q2089.81 318.698 2092.89 323.999 L2089.19 323.999 Q2085.71 318.559 2083.98 313.304 Q2082.27 308.05 2082.27 302.864 Q2082.27 297.702 2083.98 292.471 Q2085.69 287.24 2089.19 281.777 L2092.89 281.777 Z" fill="#000000" fill-rule="nonzero" fill-opacity="1" /><path clip-path="url(#clip170)" d="M2117.68 292.587 L2117.68 296.614 Q2115.88 295.689 2113.93 295.226 Q2111.99 294.763 2109.9 294.763 Q2106.73 294.763 2105.14 295.735 Q2103.56 296.707 2103.56 298.651 Q2103.56 300.133 2104.7 300.989 Q2105.83 301.823 2109.26 302.587 L2110.71 302.911 Q2115.25 303.883 2117.15 305.665 Q2119.07 307.425 2119.07 310.596 Q2119.07 314.207 2116.2 316.313 Q2113.35 318.42 2108.35 318.42 Q2106.27 318.42 2104 318.003 Q2101.76 317.61 2099.26 316.8 L2099.26 312.401 Q2101.62 313.628 2103.91 314.253 Q2106.2 314.855 2108.45 314.855 Q2111.46 314.855 2113.08 313.837 Q2114.7 312.795 2114.7 310.92 Q2114.7 309.184 2113.52 308.258 Q2112.36 307.332 2108.4 306.476 L2106.92 306.128 Q2102.96 305.295 2101.2 303.582 Q2099.44 301.846 2099.44 298.837 Q2099.44 295.179 2102.03 293.189 Q2104.63 291.198 2109.4 291.198 Q2111.76 291.198 2113.84 291.545 Q2115.92 291.892 2117.68 292.587 Z" fill="#000000" fill-rule="nonzero" fill-opacity="1" /><path clip-path="url(#clip170)" d="M2125.18 281.777 L2128.89 281.777 Q2132.36 287.24 2134.07 292.471 Q2135.81 297.702 2135.81 302.864 Q2135.81 308.05 2134.07 313.304 Q2132.36 318.559 2128.89 323.999 L2125.18 323.999 Q2128.26 318.698 2129.77 313.466 Q2131.29 308.212 2131.29 302.864 Q2131.29 297.517 2129.77 292.309 Q2128.26 287.101 2125.18 281.777 Z" fill="#000000" fill-rule="nonzero" fill-opacity="1" /></svg>
