<?xml version="1.0" encoding="utf-8"?>
<svg xmlns="http://www.w3.org/2000/svg" xmlns:xlink="http://www.w3.org/1999/xlink" width="600" height="400" viewBox="0 0 2400 1600">
<defs>
  <clipPath id="clip880">
    <rect x="0" y="0" width="2400" height="1600"/>
  </clipPath>
</defs>
<path clip-path="url(#clip880)" d="M0 1600 L2400 1600 L2400 0 L0 0  Z" fill="#ffffff" fill-rule="evenodd" fill-opacity="1"/>
<defs>
  <clipPath id="clip881">
    <rect x="480" y="0" width="1681" height="1600"/>
  </clipPath>
</defs>
<path clip-path="url(#clip880)" d="M184.191 1423.18 L2352.76 1423.18 L2352.76 47.2441 L184.191 47.2441  Z" fill="#ffffff" fill-rule="evenodd" fill-opacity="1"/>
<defs>
  <clipPath id="clip882">
    <rect x="184" y="47" width="2170" height="1377"/>
  </clipPath>
</defs>
<polyline clip-path="url(#clip882)" style="stroke:#000000; stroke-linecap:round; stroke-linejoin:round; stroke-width:2; stroke-opacity:0.1; fill:none" points="245.565,1423.18 245.565,47.2441 "/>
<polyline clip-path="url(#clip882)" style="stroke:#000000; stroke-linecap:round; stroke-linejoin:round; stroke-width:2; stroke-opacity:0.1; fill:none" points="757.019,1423.18 757.019,47.2441 "/>
<polyline clip-path="url(#clip882)" style="stroke:#000000; stroke-linecap:round; stroke-linejoin:round; stroke-width:2; stroke-opacity:0.1; fill:none" points="1268.47,1423.18 1268.47,47.2441 "/>
<polyline clip-path="url(#clip882)" style="stroke:#000000; stroke-linecap:round; stroke-linejoin:round; stroke-width:2; stroke-opacity:0.1; fill:none" points="1779.93,1423.18 1779.93,47.2441 "/>
<polyline clip-path="url(#clip882)" style="stroke:#000000; stroke-linecap:round; stroke-linejoin:round; stroke-width:2; stroke-opacity:0.1; fill:none" points="2291.38,1423.18 2291.38,47.2441 "/>
<polyline clip-path="url(#clip882)" style="stroke:#000000; stroke-linecap:round; stroke-linejoin:round; stroke-width:2; stroke-opacity:0.1; fill:none" points="184.191,1343 2352.76,1343 "/>
<polyline clip-path="url(#clip882)" style="stroke:#000000; stroke-linecap:round; stroke-linejoin:round; stroke-width:2; stroke-opacity:0.1; fill:none" points="184.191,1037.75 2352.76,1037.75 "/>
<polyline clip-path="url(#clip882)" style="stroke:#000000; stroke-linecap:round; stroke-linejoin:round; stroke-width:2; stroke-opacity:0.1; fill:none" points="184.191,732.499 2352.76,732.499 "/>
<polyline clip-path="url(#clip882)" style="stroke:#000000; stroke-linecap:round; stroke-linejoin:round; stroke-width:2; stroke-opacity:0.1; fill:none" points="184.191,427.251 2352.76,427.251 "/>
<polyline clip-path="url(#clip882)" style="stroke:#000000; stroke-linecap:round; stroke-linejoin:round; stroke-width:2; stroke-opacity:0.1; fill:none" points="184.191,122.003 2352.76,122.003 "/>
<polyline clip-path="url(#clip880)" style="stroke:#000000; stroke-linecap:round; stroke-linejoin:round; stroke-width:4; stroke-opacity:1; fill:none" points="184.191,1423.18 2352.76,1423.18 "/>
<polyline clip-path="url(#clip880)" style="stroke:#000000; stroke-linecap:round; stroke-linejoin:round; stroke-width:4; stroke-opacity:1; fill:none" points="245.565,1423.18 245.565,1404.28 "/>
<polyline clip-path="url(#clip880)" style="stroke:#000000; stroke-linecap:round; stroke-linejoin:round; stroke-width:4; stroke-opacity:1; fill:none" points="757.019,1423.18 757.019,1404.28 "/>
<polyline clip-path="url(#clip880)" style="stroke:#000000; stroke-linecap:round; stroke-linejoin:round; stroke-width:4; stroke-opacity:1; fill:none" points="1268.47,1423.18 1268.47,1404.28 "/>
<polyline clip-path="url(#clip880)" style="stroke:#000000; stroke-linecap:round; stroke-linejoin:round; stroke-width:4; stroke-opacity:1; fill:none" points="1779.93,1423.18 1779.93,1404.28 "/>
<polyline clip-path="url(#clip880)" style="stroke:#000000; stroke-linecap:round; stroke-linejoin:round; stroke-width:4; stroke-opacity:1; fill:none" points="2291.38,1423.18 2291.38,1404.28 "/>
<path clip-path="url(#clip880)" d="M245.565 1454.1 Q241.954 1454.1 240.125 1457.66 Q238.32 1461.2 238.32 1468.33 Q238.32 1475.44 240.125 1479.01 Q241.954 1482.55 245.565 1482.55 Q249.199 1482.55 251.005 1479.01 Q252.834 1475.44 252.834 1468.33 Q252.834 1461.2 251.005 1457.66 Q249.199 1454.1 245.565 1454.1 M245.565 1450.39 Q251.375 1450.39 254.431 1455 Q257.51 1459.58 257.51 1468.33 Q257.51 1477.06 254.431 1481.67 Q251.375 1486.25 245.565 1486.25 Q239.755 1486.25 236.676 1481.67 Q233.621 1477.06 233.621 1468.33 Q233.621 1459.58 236.676 1455 Q239.755 1450.39 245.565 1450.39 Z" fill="#000000" fill-rule="nonzero" fill-opacity="1" /><path clip-path="url(#clip880)" d="M751.672 1481.64 L767.991 1481.64 L767.991 1485.58 L746.047 1485.58 L746.047 1481.64 Q748.709 1478.89 753.292 1474.26 Q757.899 1469.61 759.079 1468.27 Q761.325 1465.74 762.204 1464.01 Q763.107 1462.25 763.107 1460.56 Q763.107 1457.8 761.163 1456.07 Q759.241 1454.33 756.14 1454.33 Q753.941 1454.33 751.487 1455.09 Q749.056 1455.86 746.279 1457.41 L746.279 1452.69 Q749.103 1451.55 751.556 1450.97 Q754.01 1450.39 756.047 1450.39 Q761.417 1450.39 764.612 1453.08 Q767.806 1455.77 767.806 1460.26 Q767.806 1462.39 766.996 1464.31 Q766.209 1466.2 764.103 1468.8 Q763.524 1469.47 760.422 1472.69 Q757.32 1475.88 751.672 1481.64 Z" fill="#000000" fill-rule="nonzero" fill-opacity="1" /><path clip-path="url(#clip880)" d="M1271.48 1455.09 L1259.68 1473.54 L1271.48 1473.54 L1271.48 1455.09 M1270.26 1451.02 L1276.14 1451.02 L1276.14 1473.54 L1281.07 1473.54 L1281.07 1477.43 L1276.14 1477.43 L1276.14 1485.58 L1271.48 1485.58 L1271.48 1477.43 L1255.88 1477.43 L1255.88 1472.92 L1270.26 1451.02 Z" fill="#000000" fill-rule="nonzero" fill-opacity="1" /><path clip-path="url(#clip880)" d="M1780.33 1466.44 Q1777.18 1466.44 1775.33 1468.59 Q1773.5 1470.74 1773.5 1474.49 Q1773.5 1478.22 1775.33 1480.39 Q1777.18 1482.55 1780.33 1482.55 Q1783.48 1482.55 1785.31 1480.39 Q1787.16 1478.22 1787.16 1474.49 Q1787.16 1470.74 1785.31 1468.59 Q1783.48 1466.44 1780.33 1466.44 M1789.61 1451.78 L1789.61 1456.04 Q1787.86 1455.21 1786.05 1454.77 Q1784.27 1454.33 1782.51 1454.33 Q1777.88 1454.33 1775.43 1457.45 Q1772.99 1460.58 1772.65 1466.9 Q1774.01 1464.89 1776.07 1463.82 Q1778.13 1462.73 1780.61 1462.73 Q1785.82 1462.73 1788.83 1465.9 Q1791.86 1469.05 1791.86 1474.49 Q1791.86 1479.82 1788.71 1483.03 Q1785.56 1486.25 1780.33 1486.25 Q1774.34 1486.25 1771.17 1481.67 Q1767.99 1477.06 1767.99 1468.33 Q1767.99 1460.14 1771.88 1455.28 Q1775.77 1450.39 1782.32 1450.39 Q1784.08 1450.39 1785.86 1450.74 Q1787.67 1451.09 1789.61 1451.78 Z" fill="#000000" fill-rule="nonzero" fill-opacity="1" /><path clip-path="url(#clip880)" d="M2291.38 1469.17 Q2288.05 1469.17 2286.13 1470.95 Q2284.23 1472.73 2284.23 1475.86 Q2284.23 1478.98 2286.13 1480.77 Q2288.05 1482.55 2291.38 1482.55 Q2294.71 1482.55 2296.64 1480.77 Q2298.56 1478.96 2298.56 1475.86 Q2298.56 1472.73 2296.64 1470.95 Q2294.74 1469.17 2291.38 1469.17 M2286.71 1467.18 Q2283.7 1466.44 2282.01 1464.38 Q2280.34 1462.32 2280.34 1459.35 Q2280.34 1455.21 2283.28 1452.8 Q2286.24 1450.39 2291.38 1450.39 Q2296.54 1450.39 2299.48 1452.8 Q2302.42 1455.21 2302.42 1459.35 Q2302.42 1462.32 2300.73 1464.38 Q2299.07 1466.44 2296.08 1467.18 Q2299.46 1467.96 2301.34 1470.26 Q2303.23 1472.55 2303.23 1475.86 Q2303.23 1480.88 2300.15 1483.57 Q2297.1 1486.25 2291.38 1486.25 Q2285.66 1486.25 2282.59 1483.57 Q2279.53 1480.88 2279.53 1475.86 Q2279.53 1472.55 2281.43 1470.26 Q2283.33 1467.96 2286.71 1467.18 M2284.99 1459.79 Q2284.99 1462.48 2286.66 1463.98 Q2288.35 1465.49 2291.38 1465.49 Q2294.39 1465.49 2296.08 1463.98 Q2297.79 1462.48 2297.79 1459.79 Q2297.79 1457.11 2296.08 1455.6 Q2294.39 1454.1 2291.38 1454.1 Q2288.35 1454.1 2286.66 1455.6 Q2284.99 1457.11 2284.99 1459.79 Z" fill="#000000" fill-rule="nonzero" fill-opacity="1" /><path clip-path="url(#clip880)" d="M1216.78 1522.27 L1216.78 1532.4 L1228.85 1532.4 L1228.85 1536.95 L1216.78 1536.95 L1216.78 1556.3 Q1216.78 1560.66 1217.96 1561.9 Q1219.17 1563.14 1222.83 1563.14 L1228.85 1563.14 L1228.85 1568.04 L1222.83 1568.04 Q1216.05 1568.04 1213.47 1565.53 Q1210.9 1562.98 1210.9 1556.3 L1210.9 1536.95 L1206.6 1536.95 L1206.6 1532.4 L1210.9 1532.4 L1210.9 1522.27 L1216.78 1522.27 Z" fill="#000000" fill-rule="nonzero" fill-opacity="1" /><path clip-path="url(#clip880)" d="M1256.73 1518.52 L1270.22 1518.52 L1270.22 1523.07 L1262.59 1523.07 L1262.59 1572.09 L1270.22 1572.09 L1270.22 1576.64 L1256.73 1576.64 L1256.73 1518.52 Z" fill="#000000" fill-rule="nonzero" fill-opacity="1" /><path clip-path="url(#clip880)" d="M1305.43 1533.45 L1305.43 1538.98 Q1302.94 1537.71 1300.27 1537.07 Q1297.6 1536.44 1294.73 1536.44 Q1290.37 1536.44 1288.18 1537.77 Q1286.01 1539.11 1286.01 1541.79 Q1286.01 1543.82 1287.57 1545 Q1289.13 1546.15 1293.84 1547.2 L1295.85 1547.64 Q1302.08 1548.98 1304.69 1551.43 Q1307.34 1553.85 1307.34 1558.21 Q1307.34 1563.17 1303.39 1566.07 Q1299.47 1568.97 1292.6 1568.97 Q1289.73 1568.97 1286.62 1568.39 Q1283.53 1567.85 1280.09 1566.74 L1280.09 1560.69 Q1283.34 1562.38 1286.49 1563.24 Q1289.64 1564.07 1292.73 1564.07 Q1296.86 1564.07 1299.09 1562.66 Q1301.32 1561.23 1301.32 1558.65 Q1301.32 1556.27 1299.7 1554.99 Q1298.11 1553.72 1292.66 1552.54 L1290.63 1552.07 Q1285.18 1550.92 1282.76 1548.56 Q1280.35 1546.18 1280.35 1542.04 Q1280.35 1537.01 1283.91 1534.27 Q1287.47 1531.54 1294.03 1531.54 Q1297.28 1531.54 1300.14 1532.01 Q1303.01 1532.49 1305.43 1533.45 Z" fill="#000000" fill-rule="nonzero" fill-opacity="1" /><path clip-path="url(#clip880)" d="M1330.35 1518.52 L1330.35 1576.64 L1316.85 1576.64 L1316.85 1572.09 L1324.46 1572.09 L1324.46 1523.07 L1316.85 1523.07 L1316.85 1518.52 L1330.35 1518.52 Z" fill="#000000" fill-rule="nonzero" fill-opacity="1" /><polyline clip-path="url(#clip880)" style="stroke:#000000; stroke-linecap:round; stroke-linejoin:round; stroke-width:4; stroke-opacity:1; fill:none" points="184.191,1423.18 184.191,47.2441 "/>
<polyline clip-path="url(#clip880)" style="stroke:#000000; stroke-linecap:round; stroke-linejoin:round; stroke-width:4; stroke-opacity:1; fill:none" points="184.191,1343 203.088,1343 "/>
<polyline clip-path="url(#clip880)" style="stroke:#000000; stroke-linecap:round; stroke-linejoin:round; stroke-width:4; stroke-opacity:1; fill:none" points="184.191,1037.75 203.088,1037.75 "/>
<polyline clip-path="url(#clip880)" style="stroke:#000000; stroke-linecap:round; stroke-linejoin:round; stroke-width:4; stroke-opacity:1; fill:none" points="184.191,732.499 203.088,732.499 "/>
<polyline clip-path="url(#clip880)" style="stroke:#000000; stroke-linecap:round; stroke-linejoin:round; stroke-width:4; stroke-opacity:1; fill:none" points="184.191,427.251 203.088,427.251 "/>
<polyline clip-path="url(#clip880)" style="stroke:#000000; stroke-linecap:round; stroke-linejoin:round; stroke-width:4; stroke-opacity:1; fill:none" points="184.191,122.003 203.088,122.003 "/>
<path clip-path="url(#clip880)" d="M51.6634 1356.34 L59.3023 1356.34 L59.3023 1329.98 L50.9921 1331.64 L50.9921 1327.38 L59.256 1325.72 L63.9319 1325.72 L63.9319 1356.34 L71.5707 1356.34 L71.5707 1360.28 L51.6634 1360.28 L51.6634 1356.34 Z" fill="#000000" fill-rule="nonzero" fill-opacity="1" /><path clip-path="url(#clip880)" d="M81.0151 1354.4 L85.8993 1354.4 L85.8993 1360.28 L81.0151 1360.28 L81.0151 1354.4 Z" fill="#000000" fill-rule="nonzero" fill-opacity="1" /><path clip-path="url(#clip880)" d="M106.084 1328.79 Q102.473 1328.79 100.645 1332.36 Q98.8391 1335.9 98.8391 1343.03 Q98.8391 1350.14 100.645 1353.7 Q102.473 1357.24 106.084 1357.24 Q109.719 1357.24 111.524 1353.7 Q113.353 1350.14 113.353 1343.03 Q113.353 1335.9 111.524 1332.36 Q109.719 1328.79 106.084 1328.79 M106.084 1325.09 Q111.895 1325.09 114.95 1329.7 Q118.029 1334.28 118.029 1343.03 Q118.029 1351.76 114.95 1356.36 Q111.895 1360.95 106.084 1360.95 Q100.274 1360.95 97.1956 1356.36 Q94.14 1351.76 94.14 1343.03 Q94.14 1334.28 97.1956 1329.7 Q100.274 1325.09 106.084 1325.09 Z" fill="#000000" fill-rule="nonzero" fill-opacity="1" /><path clip-path="url(#clip880)" d="M136.246 1328.79 Q132.635 1328.79 130.807 1332.36 Q129.001 1335.9 129.001 1343.03 Q129.001 1350.14 130.807 1353.7 Q132.635 1357.24 136.246 1357.24 Q139.881 1357.24 141.686 1353.7 Q143.515 1350.14 143.515 1343.03 Q143.515 1335.9 141.686 1332.36 Q139.881 1328.79 136.246 1328.79 M136.246 1325.09 Q142.056 1325.09 145.112 1329.7 Q148.191 1334.28 148.191 1343.03 Q148.191 1351.76 145.112 1356.36 Q142.056 1360.95 136.246 1360.95 Q130.436 1360.95 127.357 1356.36 Q124.302 1351.76 124.302 1343.03 Q124.302 1334.28 127.357 1329.7 Q130.436 1325.09 136.246 1325.09 Z" fill="#000000" fill-rule="nonzero" fill-opacity="1" /><path clip-path="url(#clip880)" d="M52.6588 1051.09 L60.2976 1051.09 L60.2976 1024.73 L51.9875 1026.39 L51.9875 1022.13 L60.2513 1020.47 L64.9272 1020.47 L64.9272 1051.09 L72.5661 1051.09 L72.5661 1055.03 L52.6588 1055.03 L52.6588 1051.09 Z" fill="#000000" fill-rule="nonzero" fill-opacity="1" /><path clip-path="url(#clip880)" d="M82.0105 1049.15 L86.8947 1049.15 L86.8947 1055.03 L82.0105 1055.03 L82.0105 1049.15 Z" fill="#000000" fill-rule="nonzero" fill-opacity="1" /><path clip-path="url(#clip880)" d="M107.08 1023.55 Q103.469 1023.55 101.64 1027.11 Q99.8345 1030.65 99.8345 1037.78 Q99.8345 1044.89 101.64 1048.45 Q103.469 1052 107.08 1052 Q110.714 1052 112.52 1048.45 Q114.348 1044.89 114.348 1037.78 Q114.348 1030.65 112.52 1027.11 Q110.714 1023.55 107.08 1023.55 M107.08 1019.84 Q112.89 1019.84 115.945 1024.45 Q119.024 1029.03 119.024 1037.78 Q119.024 1046.51 115.945 1051.12 Q112.89 1055.7 107.08 1055.7 Q101.27 1055.7 98.1909 1051.12 Q95.1354 1046.51 95.1354 1037.78 Q95.1354 1029.03 98.1909 1024.45 Q101.27 1019.84 107.08 1019.84 Z" fill="#000000" fill-rule="nonzero" fill-opacity="1" /><path clip-path="url(#clip880)" d="M127.288 1020.47 L145.644 1020.47 L145.644 1024.4 L131.57 1024.4 L131.57 1032.87 Q132.589 1032.53 133.607 1032.37 Q134.626 1032.18 135.644 1032.18 Q141.431 1032.18 144.811 1035.35 Q148.191 1038.52 148.191 1043.94 Q148.191 1049.52 144.718 1052.62 Q141.246 1055.7 134.927 1055.7 Q132.751 1055.7 130.482 1055.33 Q128.237 1054.96 125.83 1054.22 L125.83 1049.52 Q127.913 1050.65 130.135 1051.21 Q132.357 1051.76 134.834 1051.76 Q138.839 1051.76 141.177 1049.66 Q143.515 1047.55 143.515 1043.94 Q143.515 1040.33 141.177 1038.22 Q138.839 1036.12 134.834 1036.12 Q132.959 1036.12 131.084 1036.53 Q129.232 1036.95 127.288 1037.83 L127.288 1020.47 Z" fill="#000000" fill-rule="nonzero" fill-opacity="1" /><path clip-path="url(#clip880)" d="M51.6634 745.844 L59.3023 745.844 L59.3023 719.479 L50.9921 721.145 L50.9921 716.886 L59.256 715.219 L63.9319 715.219 L63.9319 745.844 L71.5707 745.844 L71.5707 749.779 L51.6634 749.779 L51.6634 745.844 Z" fill="#000000" fill-rule="nonzero" fill-opacity="1" /><path clip-path="url(#clip880)" d="M81.0151 743.9 L85.8993 743.9 L85.8993 749.779 L81.0151 749.779 L81.0151 743.9 Z" fill="#000000" fill-rule="nonzero" fill-opacity="1" /><path clip-path="url(#clip880)" d="M96.8947 745.844 L104.534 745.844 L104.534 719.479 L96.2234 721.145 L96.2234 716.886 L104.487 715.219 L109.163 715.219 L109.163 745.844 L116.802 745.844 L116.802 749.779 L96.8947 749.779 L96.8947 745.844 Z" fill="#000000" fill-rule="nonzero" fill-opacity="1" /><path clip-path="url(#clip880)" d="M136.246 718.298 Q132.635 718.298 130.807 721.863 Q129.001 725.404 129.001 732.534 Q129.001 739.641 130.807 743.205 Q132.635 746.747 136.246 746.747 Q139.881 746.747 141.686 743.205 Q143.515 739.641 143.515 732.534 Q143.515 725.404 141.686 721.863 Q139.881 718.298 136.246 718.298 M136.246 714.594 Q142.056 714.594 145.112 719.201 Q148.191 723.784 148.191 732.534 Q148.191 741.261 145.112 745.867 Q142.056 750.451 136.246 750.451 Q130.436 750.451 127.357 745.867 Q124.302 741.261 124.302 732.534 Q124.302 723.784 127.357 719.201 Q130.436 714.594 136.246 714.594 Z" fill="#000000" fill-rule="nonzero" fill-opacity="1" /><path clip-path="url(#clip880)" d="M52.6588 440.596 L60.2976 440.596 L60.2976 414.23 L51.9875 415.897 L51.9875 411.638 L60.2513 409.971 L64.9272 409.971 L64.9272 440.596 L72.5661 440.596 L72.5661 444.531 L52.6588 444.531 L52.6588 440.596 Z" fill="#000000" fill-rule="nonzero" fill-opacity="1" /><path clip-path="url(#clip880)" d="M82.0105 438.652 L86.8947 438.652 L86.8947 444.531 L82.0105 444.531 L82.0105 438.652 Z" fill="#000000" fill-rule="nonzero" fill-opacity="1" /><path clip-path="url(#clip880)" d="M97.89 440.596 L105.529 440.596 L105.529 414.23 L97.2187 415.897 L97.2187 411.638 L105.483 409.971 L110.158 409.971 L110.158 440.596 L117.797 440.596 L117.797 444.531 L97.89 444.531 L97.89 440.596 Z" fill="#000000" fill-rule="nonzero" fill-opacity="1" /><path clip-path="url(#clip880)" d="M127.288 409.971 L145.644 409.971 L145.644 413.906 L131.57 413.906 L131.57 422.378 Q132.589 422.031 133.607 421.869 Q134.626 421.684 135.644 421.684 Q141.431 421.684 144.811 424.855 Q148.191 428.027 148.191 433.443 Q148.191 439.022 144.718 442.124 Q141.246 445.202 134.927 445.202 Q132.751 445.202 130.482 444.832 Q128.237 444.462 125.83 443.721 L125.83 439.022 Q127.913 440.156 130.135 440.712 Q132.357 441.267 134.834 441.267 Q138.839 441.267 141.177 439.161 Q143.515 437.054 143.515 433.443 Q143.515 429.832 141.177 427.726 Q138.839 425.619 134.834 425.619 Q132.959 425.619 131.084 426.036 Q129.232 426.453 127.288 427.332 L127.288 409.971 Z" fill="#000000" fill-rule="nonzero" fill-opacity="1" /><path clip-path="url(#clip880)" d="M51.6634 135.348 L59.3023 135.348 L59.3023 108.982 L50.9921 110.649 L50.9921 106.39 L59.256 104.723 L63.9319 104.723 L63.9319 135.348 L71.5707 135.348 L71.5707 139.283 L51.6634 139.283 L51.6634 135.348 Z" fill="#000000" fill-rule="nonzero" fill-opacity="1" /><path clip-path="url(#clip880)" d="M81.0151 133.403 L85.8993 133.403 L85.8993 139.283 L81.0151 139.283 L81.0151 133.403 Z" fill="#000000" fill-rule="nonzero" fill-opacity="1" /><path clip-path="url(#clip880)" d="M100.112 135.348 L116.432 135.348 L116.432 139.283 L94.4873 139.283 L94.4873 135.348 Q97.1493 132.593 101.733 127.964 Q106.339 123.311 107.52 121.968 Q109.765 119.445 110.645 117.709 Q111.547 115.95 111.547 114.26 Q111.547 111.505 109.603 109.769 Q107.682 108.033 104.58 108.033 Q102.381 108.033 99.927 108.797 Q97.4965 109.561 94.7187 111.112 L94.7187 106.39 Q97.5428 105.255 99.9965 104.677 Q102.45 104.098 104.487 104.098 Q109.858 104.098 113.052 106.783 Q116.246 109.468 116.246 113.959 Q116.246 116.089 115.436 118.01 Q114.649 119.908 112.543 122.501 Q111.964 123.172 108.862 126.389 Q105.76 129.584 100.112 135.348 Z" fill="#000000" fill-rule="nonzero" fill-opacity="1" /><path clip-path="url(#clip880)" d="M136.246 107.802 Q132.635 107.802 130.807 111.366 Q129.001 114.908 129.001 122.038 Q129.001 129.144 130.807 132.709 Q132.635 136.25 136.246 136.25 Q139.881 136.25 141.686 132.709 Q143.515 129.144 143.515 122.038 Q143.515 114.908 141.686 111.366 Q139.881 107.802 136.246 107.802 M136.246 104.098 Q142.056 104.098 145.112 108.704 Q148.191 113.288 148.191 122.038 Q148.191 130.764 145.112 135.371 Q142.056 139.954 136.246 139.954 Q130.436 139.954 127.357 135.371 Q124.302 130.764 124.302 122.038 Q124.302 113.288 127.357 108.704 Q130.436 104.098 136.246 104.098 Z" fill="#000000" fill-rule="nonzero" fill-opacity="1" /><polyline clip-path="url(#clip882)" style="stroke:#009af9; stroke-linecap:round; stroke-linejoin:round; stroke-width:4; stroke-opacity:1; fill:none" points="245.565,1343 248.122,1342.63 250.68,1341.68 253.237,1340.13 255.794,1337.99 258.352,1335.24 260.909,1331.9 263.466,1327.97 266.023,1323.44 268.581,1318.33 271.138,1312.64 273.695,1306.37 276.252,1299.52 278.81,1292.11 281.367,1284.15 283.924,1275.63 286.481,1266.56 289.039,1256.97 291.596,1246.85 294.153,1236.22 296.711,1225.07 299.268,1213.44 301.825,1201.33 304.382,1188.75 306.94,1175.7 309.497,1162.23 312.054,1148.34 314.611,1134.03 317.169,1119.33 319.726,1104.23 322.283,1088.75 324.841,1072.9 327.398,1056.73 329.955,1040.26 332.512,1023.47 335.07,1006.38 337.627,989.018 340.184,971.384 342.741,953.498 345.299,935.407 347.856,917.122 350.413,898.65 352.971,880.005 355.528,861.206 358.085,842.268 360.642,823.209 363.2,804.064 365.757,784.856 368.314,765.591 370.871,746.288 373.429,726.965 375.986,707.642 378.543,688.336 381.1,669.072 383.658,649.873 386.215,630.753 388.772,611.731 391.33,592.827 393.887,574.058 396.444,555.445 399.001,537.004 401.559,518.752 404.116,500.71 406.673,482.897 409.23,465.332 411.788,448.034 414.345,431.022 416.902,414.307 419.46,397.893 422.017,381.81 424.574,366.077 427.131,350.71 429.689,335.727 432.246,321.145 434.803,306.976 437.36,293.203 439.918,279.866 442.475,266.981 445.032,254.564 447.59,242.629 450.147,231.192 452.704,220.264 455.261,209.806 457.819,199.869 460.376,190.465 462.933,181.605 465.49,173.304 468.048,165.572 470.605,158.422 473.162,151.795 475.719,145.746 478.277,140.284 480.834,135.419 483.391,131.159 485.949,127.513 488.506,124.49 491.063,122.026 493.62,120.165 496.178,118.917 498.735,118.288 501.292,118.282 503.849,118.904 506.407,120.16 508.964,121.986 511.521,124.408 514.079,127.44 516.636,131.082 519.193,135.335 521.75,140.201 524.308,145.678 526.865,151.711 529.422,158.303 531.979,165.472 534.537,173.213 537.094,181.524 539.651,190.4 542.209,199.838 544.766,209.787 547.323,220.233 549.88,231.194 552.438,242.663 554.995,254.63 557.552,267.09 560.109,280.033 562.667,293.417 565.224,307.212 567.781,321.436 570.338,336.077 572.896,351.123 575.453,366.562 578.01,382.384 580.568,398.553 583.125,415.029 585.682,431.826 588.239,448.929 590.797,466.324 593.354,483.995 595.911,501.928 598.468,520.095 601.026,538.452 603.583,557.007 606.14,575.742 608.698,594.64 611.255,613.684 613.812,632.857 616.369,652.137 618.927,671.482 621.484,690.892 624.041,710.348 626.598,729.83 629.156,749.322 631.713,768.803 634.27,788.254 636.828,807.645 639.385,826.965 641.942,846.194 644.499,865.312 647.057,884.302 649.614,903.142 652.171,921.814 654.728,940.306 657.286,958.594 659.843,976.658 662.4,994.48 664.957,1012.04 667.515,1029.32 670.072,1046.31 672.629,1062.99 675.187,1079.36 677.744,1095.37 680.301,1111.03 682.858,1126.31 685.416,1141.18 687.973,1155.65 690.53,1169.71 693.087,1183.35 695.645,1196.54 698.202,1209.26 700.759,1221.51 703.317,1233.25 705.874,1244.49 708.431,1255.24 710.988,1265.49 713.546,1275.2 716.103,1284.37 718.66,1292.98 721.217,1301.02 723.775,1308.48 726.332,1315.39 728.889,1321.74 731.447,1327.5 734.004,1332.66 736.561,1337.21 739.118,1341.15 741.676,1344.47 744.233,1347.19 746.79,1349.32 749.347,1350.84 751.905,1351.74 754.462,1352.02 757.019,1351.66 759.576,1350.66 762.134,1349.05 764.691,1346.87 767.248,1344.07 769.806,1340.66 772.363,1336.63 774.92,1331.99 777.477,1326.72 780.035,1320.86 782.592,1314.46 785.149,1307.48 787.706,1299.91 790.264,1291.77 792.821,1283.06 795.378,1273.78 797.936,1263.95 800.493,1253.64 803.05,1242.81 805.607,1231.46 808.165,1219.6 810.722,1207.24 813.279,1194.39 815.836,1181.07 818.394,1167.34 820.951,1153.18 823.508,1138.59 826.066,1123.59 828.623,1108.18 831.18,1092.39 833.737,1076.21 836.295,1059.74 838.852,1042.93 841.409,1025.81 843.966,1008.39 846.524,990.687 849.081,972.711 851.638,954.479 854.196,936.051 856.753,917.421 859.31,898.601 861.867,879.61 864.425,860.464 866.982,841.18 869.539,821.776 872.096,802.295 874.654,782.745 877.211,763.141 879.768,743.502 882.325,723.846 884.883,704.193 887.44,684.56 889.997,664.976 892.555,645.46 895.112,626.026 897.669,606.696 900.226,587.487 902.784,568.421 905.341,549.516 907.898,530.787 910.455,512.255 913.013,493.939 915.57,475.86 918.127,458.035 920.685,440.485 923.242,423.229 925.799,406.273 928.356,389.63 930.914,373.326 933.471,357.381 936.028,341.81 938.585,326.634 941.143,311.868 943.7,297.516 946.257,283.576 948.815,270.081 951.372,257.049 953.929,244.494 956.486,232.433 959.044,220.881 961.601,209.838 964.158,199.283 966.715,189.259 969.273,179.779 971.83,170.855 974.387,162.5 976.944,154.728 979.502,147.537 982.059,140.886 984.616,134.826 987.174,129.364 989.731,124.51 992.288,120.274 994.845,116.664 997.403,113.682 999.96,111.265 1002.52,109.467 1005.07,108.295 1007.63,107.753 1010.19,107.846 1012.75,108.579 1015.3,109.957 1017.86,111.896 1020.42,114.455 1022.98,117.634 1025.53,121.435 1028.09,125.858 1030.65,130.903 1033.2,136.571 1035.76,142.785 1038.32,149.58 1040.88,156.962 1043.43,164.925 1045.99,173.467 1048.55,182.584 1051.11,192.272 1053.66,202.461 1056.22,213.168 1058.78,224.396 1061.33,236.14 1063.89,248.39 1066.45,261.139 1069.01,274.379 1071.56,288.051 1074.12,302.15 1076.68,316.683 1079.24,331.639 1081.79,347.004 1084.35,362.769 1086.91,378.92 1089.46,395.411 1092.02,412.22 1094.58,429.353 1097.14,446.795 1099.69,464.531 1102.25,482.547 1104.81,500.826 1107.37,519.332 1109.92,538.035 1112.48,556.936 1115.04,576.018 1117.59,595.264 1120.15,614.655 1122.71,634.175 1125.27,653.794 1127.82,673.481 1130.38,693.231 1132.94,713.024 1135.5,732.843 1138.05,752.667 1140.61,772.478 1143.17,792.253 1145.72,811.965 1148.28,831.602 1150.84,851.143 1153.4,870.569 1155.95,889.861 1158.51,908.998 1161.07,927.962 1163.63,946.739 1166.18,965.305 1168.74,983.642 1171.3,1001.73 1173.85,1019.55 1176.41,1037.08 1178.97,1054.3 1181.53,1071.23 1184.08,1087.82 1186.64,1104.05 1189.2,1119.92 1191.76,1135.39 1194.31,1150.46 1196.87,1165.11 1199.43,1179.35 1201.98,1193.15 1204.54,1206.49 1207.1,1219.36 1209.66,1231.74 1212.21,1243.61 1214.77,1254.95 1217.33,1265.81 1219.89,1276.15 1222.44,1285.95 1225,1295.18 1227.56,1303.85 1230.11,1311.94 1232.67,1319.44 1235.23,1326.38 1237.79,1332.75 1240.34,1338.51 1242.9,1343.66 1245.46,1348.2 1248.02,1352.11 1250.57,1355.38 1253.13,1358.06 1255.69,1360.14 1258.24,1361.59 1260.8,1362.41 1263.36,1362.58 1265.92,1362.12 1268.47,1361 1271.03,1359.28 1273.59,1356.97 1276.15,1354.03 1278.7,1350.46 1281.26,1346.26 1283.82,1341.44 1286.37,1335.99 1288.93,1329.95 1291.49,1323.35 1294.05,1316.15 1296.6,1308.37 1299.16,1300 1301.72,1291.05 1304.28,1281.52 1306.83,1271.45 1309.39,1260.88 1311.95,1249.78 1314.5,1238.15 1317.06,1226.01 1319.62,1213.37 1322.18,1200.22 1324.73,1186.61 1327.29,1172.58 1329.85,1158.1 1332.41,1143.2 1334.96,1127.88 1337.52,1112.15 1340.08,1096.02 1342.63,1079.52 1345.19,1062.71 1347.75,1045.57 1350.31,1028.11 1352.86,1010.35 1355.42,992.294 1357.98,973.97 1360.54,955.391 1363.09,936.619 1365.65,917.64 1368.21,898.47 1370.76,879.129 1373.32,859.633 1375.88,839.999 1378.44,820.246 1380.99,800.424 1383.55,780.531 1386.11,760.586 1388.66,740.607 1391.22,720.614 1393.78,700.627 1396.34,680.664 1398.89,660.756 1401.45,640.918 1404.01,621.167 1406.57,601.524 1409.12,582.009 1411.68,562.641 1414.24,543.44 1416.79,524.42 1419.35,505.604 1421.91,487.011 1424.47,468.662 1427.02,450.575 1429.58,432.77 1432.14,415.267 1434.7,398.067 1437.25,381.192 1439.81,364.665 1442.37,348.504 1444.92,332.729 1447.48,317.357 1450.04,302.406 1452.6,287.869 1455.15,273.759 1457.71,260.106 1460.27,246.925 1462.83,234.233 1465.38,222.045 1467.94,210.377 1470.5,199.218 1473.05,188.565 1475.61,178.455 1478.17,168.899 1480.73,159.912 1483.28,151.506 1485.84,143.693 1488.4,136.462 1490.96,129.789 1493.51,123.718 1496.07,118.259 1498.63,113.419 1501.18,109.208 1503.74,105.636 1506.3,102.69 1508.86,100.328 1511.41,98.5982 1513.97,97.5047 1516.53,97.053 1519.09,97.2482 1521.64,98.0953 1524.2,99.5843 1526.76,101.654 1529.31,104.354 1531.87,107.685 1534.43,111.649 1536.99,116.245 1539.54,121.475 1542.1,127.332 1544.66,133.737 1547.22,140.741 1549.77,148.34 1552.33,156.532 1554.89,165.311 1557.44,174.674 1560,184.618 1562.56,195.051 1565.12,206.022 1567.67,217.524 1570.23,229.549 1572.79,242.088 1575.35,255.133 1577.9,268.676 1580.46,282.641 1583.02,297.05 1585.57,311.898 1588.13,327.174 1590.69,342.866 1593.25,358.962 1595.8,375.45 1598.36,392.267 1600.92,409.415 1603.48,426.89 1606.03,444.678 1608.59,462.762 1611.15,481.128 1613.7,499.761 1616.26,518.611 1618.82,537.666 1621.38,556.919 1623.93,576.354 1626.49,595.952 1629.05,615.697 1631.61,635.569 1634.16,655.533 1636.72,675.568 1639.28,695.663 1641.83,715.8 1644.39,735.959 1646.95,756.121 1649.51,776.267 1652.06,796.37 1654.62,816.409 1657.18,836.367 1659.74,856.226 1662.29,875.964 1664.85,895.562 1667.41,915 1669.96,934.261 1672.52,953.326 1675.08,972.175 1677.64,990.787 1680.19,1009.14 1682.75,1027.22 1685.31,1045 1687.87,1062.48 1690.42,1079.64 1692.98,1096.46 1695.54,1112.91 1698.09,1128.99 1700.65,1144.67 1703.21,1159.93 1705.77,1174.76 1708.32,1189.18 1710.88,1203.15 1713.44,1216.64 1716,1229.65 1718.55,1242.16 1721.11,1254.15 1723.67,1265.61 1726.22,1276.58 1728.78,1287.01 1731.34,1296.89 1733.9,1306.19 1736.45,1314.92 1739.01,1323.05 1741.57,1330.58 1744.13,1337.56 1746.68,1343.94 1749.24,1349.71 1751.8,1354.86 1754.35,1359.37 1756.91,1363.25 1759.47,1366.48 1762.03,1369.12 1764.58,1371.13 1767.14,1372.51 1769.7,1373.24 1772.26,1373.32 1774.81,1372.74 1777.37,1371.5 1779.93,1369.67 1782.48,1367.22 1785.04,1364.13 1787.6,1360.4 1790.16,1356.03 1792.71,1351.03 1795.27,1345.38 1797.83,1339.16 1800.39,1332.35 1802.94,1324.94 1805.5,1316.93 1808.06,1308.33 1810.61,1299.13 1813.17,1289.35 1815.73,1279.04 1818.29,1268.2 1820.84,1256.82 1823.4,1244.92 1825.96,1232.49 1828.52,1219.55 1831.07,1206.1 1833.63,1192.19 1836.19,1177.85 1838.74,1163.06 1841.3,1147.84 1843.86,1132.19 1846.42,1116.13 1848.97,1099.66 1851.53,1082.84 1854.09,1065.69 1856.65,1048.2 1859.2,1030.39 1861.76,1012.28 1864.32,993.874 1866.87,975.195 1869.43,956.268 1871.99,937.142 1874.55,917.807 1877.1,898.282 1879.66,878.585 1882.22,858.733 1884.78,838.743 1887.33,818.641 1889.89,798.468 1892.45,778.225 1895,757.933 1897.56,737.609 1900.12,717.274 1902.68,696.948 1905.23,676.65 1907.79,656.413 1910.35,636.248 1912.91,616.176 1915.46,596.216 1918.02,576.389 1920.58,556.715 1923.13,537.214 1925.69,517.899 1928.25,498.795 1930.81,479.922 1933.36,461.299 1935.92,442.946 1938.48,424.884 1941.04,407.131 1943.59,389.684 1946.15,372.573 1948.71,355.821 1951.26,339.444 1953.82,323.461 1956.38,307.892 1958.94,292.753 1961.49,278.03 1964.05,263.75 1966.61,249.936 1969.17,236.606 1971.72,223.775 1974.28,211.46 1976.84,199.677 1979.39,188.401 1981.95,177.65 1984.51,167.453 1987.07,157.823 1989.62,148.773 1992.18,140.316 1994.74,132.466 1997.3,125.193 1999.85,118.5 2002.41,112.421 2004.97,106.965 2007.52,102.141 2010.08,97.9586 2012.64,94.4275 2015.2,91.5182 2017.75,89.215 2020.31,87.555 2022.87,86.5435 2025.43,86.1857 2027.98,86.4868 2030.54,87.4522 2033.1,89.0546 2035.65,91.2581 2038.21,94.1034 2040.77,97.5913 2043.33,101.722 2045.88,106.497 2048.44,111.917 2051,117.959 2053.56,124.567 2056.11,131.784 2058.67,139.607 2061.23,148.031 2063.78,157.053 2066.34,166.668 2068.9,176.859 2071.46,187.555 2074.01,198.798 2076.57,210.579 2079.13,222.89 2081.69,235.724 2084.24,249.072 2086.8,262.919 2089.36,277.186 2091.91,291.911 2094.47,307.081 2097.03,322.685 2099.59,338.71 2102.14,355.144 2104.7,371.975 2107.26,389.122 2109.82,406.616 2112.37,424.44 2114.93,442.579 2117.49,461.018 2120.04,479.741 2122.6,498.733 2125.16,517.933 2127.72,537.345 2130.27,556.957 2132.83,576.751 2135.39,596.708 2137.95,616.811 2140.5,637.042 2143.06,657.357 2145.62,677.744 2148.17,698.19 2150.73,718.676 2153.29,739.182 2155.85,759.687 2158.4,780.173 2160.96,800.61 2163.52,820.979 2166.08,841.264 2168.63,861.444 2171.19,881.499 2173.75,901.408 2176.3,921.152 2178.86,940.712 2181.42,960.071 2183.98,979.206 2186.53,998.096 2189.09,1016.72 2191.65,1035.06 2194.21,1053.1 2196.76,1070.83 2199.32,1088.23 2201.88,1105.28 2204.43,1121.96 2206.99,1138.25 2209.55,1154.13 2212.11,1169.58 2214.66,1184.61 2217.22,1199.2 2219.78,1213.33 2222.34,1226.99 2224.89,1240.14 2227.45,1252.78 2230.01,1264.89 2232.56,1276.48 2235.12,1287.55 2237.68,1298.07 2240.24,1308.03 2242.79,1317.4 2245.35,1326.19 2247.91,1334.36 2250.47,1341.93 2253.02,1348.94 2255.58,1355.34 2258.14,1361.1 2260.69,1366.24 2263.25,1370.73 2265.81,1374.57 2268.37,1377.76 2270.92,1380.35 2273.48,1382.3 2276.04,1383.6 2278.6,1384.24 2281.15,1384.22 2283.71,1383.53 2286.27,1382.16 2291.38,1377.62 "/>
<path clip-path="url(#clip880)" d="M256.476 196.789 L922.705 196.789 L922.705 93.1086 L256.476 93.1086  Z" fill="#ffffff" fill-rule="evenodd" fill-opacity="1"/>
<polyline clip-path="url(#clip880)" style="stroke:#000000; stroke-linecap:round; stroke-linejoin:round; stroke-width:4; stroke-opacity:1; fill:none" points="256.476,196.789 922.705,196.789 922.705,93.1086 256.476,93.1086 256.476,196.789 "/>
<polyline clip-path="url(#clip880)" style="stroke:#009af9; stroke-linecap:round; stroke-linejoin:round; stroke-width:4; stroke-opacity:1; fill:none" points="280.571,144.949 425.142,144.949 "/>
<path clip-path="url(#clip880)" d="M469.585 141.28 Q471.182 138.409 473.404 137.044 Q475.626 135.678 478.636 135.678 Q482.686 135.678 484.885 138.525 Q487.085 141.349 487.085 146.581 L487.085 162.229 L482.802 162.229 L482.802 146.719 Q482.802 142.993 481.483 141.187 Q480.163 139.382 477.455 139.382 Q474.145 139.382 472.224 141.581 Q470.302 143.78 470.302 147.576 L470.302 162.229 L466.02 162.229 L466.02 146.719 Q466.02 142.969 464.7 141.187 Q463.381 139.382 460.626 139.382 Q457.362 139.382 455.441 141.604 Q453.52 143.803 453.52 147.576 L453.52 162.229 L449.238 162.229 L449.238 136.303 L453.52 136.303 L453.52 140.331 Q454.978 137.946 457.015 136.812 Q459.052 135.678 461.853 135.678 Q464.677 135.678 466.645 137.113 Q468.636 138.548 469.585 141.28 Z" fill="#000000" fill-rule="nonzero" fill-opacity="1" /><path clip-path="url(#clip880)" d="M507.362 149.196 Q502.2 149.196 500.209 150.377 Q498.219 151.557 498.219 154.405 Q498.219 156.673 499.7 158.016 Q501.205 159.335 503.774 159.335 Q507.316 159.335 509.446 156.835 Q511.598 154.312 511.598 150.145 L511.598 149.196 L507.362 149.196 M515.858 147.437 L515.858 162.229 L511.598 162.229 L511.598 158.293 Q510.14 160.655 507.964 161.789 Q505.788 162.9 502.64 162.9 Q498.659 162.9 496.297 160.678 Q493.96 158.432 493.96 154.682 Q493.96 150.307 496.876 148.085 Q499.816 145.863 505.626 145.863 L511.598 145.863 L511.598 145.446 Q511.598 142.507 509.654 140.909 Q507.733 139.289 504.237 139.289 Q502.015 139.289 499.909 139.821 Q497.802 140.354 495.858 141.419 L495.858 137.483 Q498.196 136.581 500.395 136.141 Q502.594 135.678 504.677 135.678 Q510.302 135.678 513.08 138.594 Q515.858 141.511 515.858 147.437 Z" fill="#000000" fill-rule="nonzero" fill-opacity="1" /><path clip-path="url(#clip880)" d="M541.158 137.067 L541.158 141.094 Q539.353 140.169 537.408 139.706 Q535.464 139.243 533.381 139.243 Q530.209 139.243 528.612 140.215 Q527.038 141.187 527.038 143.131 Q527.038 144.613 528.172 145.469 Q529.307 146.303 532.732 147.067 L534.191 147.391 Q538.728 148.363 540.626 150.145 Q542.547 151.905 542.547 155.076 Q542.547 158.687 539.677 160.793 Q536.83 162.9 531.83 162.9 Q529.746 162.9 527.478 162.483 Q525.233 162.09 522.733 161.28 L522.733 156.881 Q525.094 158.108 527.385 158.733 Q529.677 159.335 531.922 159.335 Q534.932 159.335 536.552 158.317 Q538.172 157.275 538.172 155.4 Q538.172 153.664 536.992 152.738 Q535.834 151.812 531.876 150.956 L530.395 150.608 Q526.436 149.775 524.677 148.062 Q522.918 146.326 522.918 143.317 Q522.918 139.659 525.51 137.669 Q528.103 135.678 532.871 135.678 Q535.232 135.678 537.316 136.025 Q539.399 136.372 541.158 137.067 Z" fill="#000000" fill-rule="nonzero" fill-opacity="1" /><path clip-path="url(#clip880)" d="M565.857 137.067 L565.857 141.094 Q564.052 140.169 562.107 139.706 Q560.163 139.243 558.08 139.243 Q554.908 139.243 553.311 140.215 Q551.737 141.187 551.737 143.131 Q551.737 144.613 552.871 145.469 Q554.005 146.303 557.431 147.067 L558.89 147.391 Q563.427 148.363 565.325 150.145 Q567.246 151.905 567.246 155.076 Q567.246 158.687 564.376 160.793 Q561.529 162.9 556.529 162.9 Q554.445 162.9 552.177 162.483 Q549.931 162.09 547.431 161.28 L547.431 156.881 Q549.793 158.108 552.084 158.733 Q554.376 159.335 556.621 159.335 Q559.63 159.335 561.251 158.317 Q562.871 157.275 562.871 155.4 Q562.871 153.664 561.691 152.738 Q560.533 151.812 556.575 150.956 L555.093 150.608 Q551.135 149.775 549.376 148.062 Q547.617 146.326 547.617 143.317 Q547.617 139.659 550.209 137.669 Q552.802 135.678 557.57 135.678 Q559.931 135.678 562.015 136.025 Q564.098 136.372 565.857 137.067 Z" fill="#000000" fill-rule="nonzero" fill-opacity="1" /><path clip-path="url(#clip880)" d="M574.63 156.349 L579.515 156.349 L579.515 162.229 L574.63 162.229 L574.63 156.349 Z" fill="#000000" fill-rule="nonzero" fill-opacity="1" /><path clip-path="url(#clip880)" d="M605.626 137.067 L605.626 141.094 Q603.82 140.169 601.876 139.706 Q599.931 139.243 597.848 139.243 Q594.677 139.243 593.079 140.215 Q591.505 141.187 591.505 143.131 Q591.505 144.613 592.64 145.469 Q593.774 146.303 597.2 147.067 L598.658 147.391 Q603.195 148.363 605.093 150.145 Q607.014 151.905 607.014 155.076 Q607.014 158.687 604.144 160.793 Q601.297 162.9 596.297 162.9 Q594.214 162.9 591.945 162.483 Q589.7 162.09 587.2 161.28 L587.2 156.881 Q589.561 158.108 591.853 158.733 Q594.144 159.335 596.39 159.335 Q599.399 159.335 601.019 158.317 Q602.639 157.275 602.639 155.4 Q602.639 153.664 601.459 152.738 Q600.302 151.812 596.343 150.956 L594.862 150.608 Q590.903 149.775 589.144 148.062 Q587.385 146.326 587.385 143.317 Q587.385 139.659 589.978 137.669 Q592.57 135.678 597.339 135.678 Q599.7 135.678 601.783 136.025 Q603.866 136.372 605.626 137.067 Z" fill="#000000" fill-rule="nonzero" fill-opacity="1" /><path clip-path="url(#clip880)" d="M639.098 126.257 Q635.996 131.581 634.491 136.789 Q632.987 141.997 632.987 147.344 Q632.987 152.692 634.491 157.946 Q636.019 163.178 639.098 168.479 L635.394 168.479 Q631.922 163.039 630.186 157.784 Q628.473 152.53 628.473 147.344 Q628.473 142.182 630.186 136.951 Q631.899 131.72 635.394 126.257 L639.098 126.257 Z" fill="#000000" fill-rule="nonzero" fill-opacity="1" /><path clip-path="url(#clip880)" d="M662.13 143.594 Q665.486 144.312 667.361 146.581 Q669.26 148.849 669.26 152.182 Q669.26 157.298 665.741 160.099 Q662.223 162.9 655.741 162.9 Q653.565 162.9 651.25 162.46 Q648.959 162.043 646.505 161.187 L646.505 156.673 Q648.449 157.807 650.764 158.386 Q653.079 158.965 655.602 158.965 Q660 158.965 662.292 157.229 Q664.607 155.493 664.607 152.182 Q664.607 149.127 662.454 147.414 Q660.324 145.678 656.505 145.678 L652.477 145.678 L652.477 141.835 L656.69 141.835 Q660.139 141.835 661.968 140.469 Q663.797 139.081 663.797 136.488 Q663.797 133.826 661.898 132.414 Q660.023 130.979 656.505 130.979 Q654.584 130.979 652.385 131.395 Q650.186 131.812 647.547 132.692 L647.547 128.525 Q650.209 127.784 652.523 127.414 Q654.861 127.044 656.922 127.044 Q662.246 127.044 665.347 129.474 Q668.449 131.882 668.449 136.002 Q668.449 138.872 666.806 140.863 Q665.162 142.831 662.13 143.594 Z" fill="#000000" fill-rule="nonzero" fill-opacity="1" /><path clip-path="url(#clip880)" d="M692.292 143.594 Q695.648 144.312 697.523 146.581 Q699.421 148.849 699.421 152.182 Q699.421 157.298 695.903 160.099 Q692.384 162.9 685.903 162.9 Q683.727 162.9 681.412 162.46 Q679.121 162.043 676.667 161.187 L676.667 156.673 Q678.611 157.807 680.926 158.386 Q683.241 158.965 685.764 158.965 Q690.162 158.965 692.454 157.229 Q694.769 155.493 694.769 152.182 Q694.769 149.127 692.616 147.414 Q690.486 145.678 686.667 145.678 L682.639 145.678 L682.639 141.835 L686.852 141.835 Q690.301 141.835 692.13 140.469 Q693.958 139.081 693.958 136.488 Q693.958 133.826 692.06 132.414 Q690.185 130.979 686.667 130.979 Q684.746 130.979 682.546 131.395 Q680.347 131.812 677.709 132.692 L677.709 128.525 Q680.371 127.784 682.685 127.414 Q685.023 127.044 687.083 127.044 Q692.408 127.044 695.509 129.474 Q698.611 131.882 698.611 136.002 Q698.611 138.872 696.968 140.863 Q695.324 142.831 692.292 143.594 Z" fill="#000000" fill-rule="nonzero" fill-opacity="1" /><path clip-path="url(#clip880)" d="M708.333 127.669 L726.69 127.669 L726.69 131.604 L712.616 131.604 L712.616 140.076 Q713.634 139.729 714.653 139.567 Q715.671 139.382 716.69 139.382 Q722.477 139.382 725.856 142.553 Q729.236 145.724 729.236 151.141 Q729.236 156.719 725.764 159.821 Q722.292 162.9 715.972 162.9 Q713.796 162.9 711.528 162.53 Q709.282 162.159 706.875 161.418 L706.875 156.719 Q708.958 157.854 711.181 158.409 Q713.403 158.965 715.88 158.965 Q719.884 158.965 722.222 156.858 Q724.56 154.752 724.56 151.141 Q724.56 147.53 722.222 145.423 Q719.884 143.317 715.88 143.317 Q714.005 143.317 712.13 143.733 Q710.278 144.15 708.333 145.03 L708.333 127.669 Z" fill="#000000" fill-rule="nonzero" fill-opacity="1" /><path clip-path="url(#clip880)" d="M738.495 127.669 L756.852 127.669 L756.852 131.604 L742.778 131.604 L742.778 140.076 Q743.796 139.729 744.815 139.567 Q745.833 139.382 746.852 139.382 Q752.639 139.382 756.018 142.553 Q759.398 145.724 759.398 151.141 Q759.398 156.719 755.926 159.821 Q752.454 162.9 746.134 162.9 Q743.958 162.9 741.69 162.53 Q739.444 162.159 737.037 161.418 L737.037 156.719 Q739.12 157.854 741.342 158.409 Q743.565 158.965 746.042 158.965 Q750.046 158.965 752.384 156.858 Q754.722 154.752 754.722 151.141 Q754.722 147.53 752.384 145.423 Q750.046 143.317 746.042 143.317 Q744.167 143.317 742.292 143.733 Q740.44 144.15 738.495 145.03 L738.495 127.669 Z" fill="#000000" fill-rule="nonzero" fill-opacity="1" /><path clip-path="url(#clip880)" d="M781.458 131.743 L769.652 150.192 L781.458 150.192 L781.458 131.743 M780.231 127.669 L786.111 127.669 L786.111 150.192 L791.041 150.192 L791.041 154.081 L786.111 154.081 L786.111 162.229 L781.458 162.229 L781.458 154.081 L765.856 154.081 L765.856 149.567 L780.231 127.669 Z" fill="#000000" fill-rule="nonzero" fill-opacity="1" /><path clip-path="url(#clip880)" d="M811.62 131.743 L799.814 150.192 L811.62 150.192 L811.62 131.743 M810.393 127.669 L816.273 127.669 L816.273 150.192 L821.203 150.192 L821.203 154.081 L816.273 154.081 L816.273 162.229 L811.62 162.229 L811.62 154.081 L796.018 154.081 L796.018 149.567 L810.393 127.669 Z" fill="#000000" fill-rule="nonzero" fill-opacity="1" /><path clip-path="url(#clip880)" d="M843.101 143.594 Q846.458 144.312 848.333 146.581 Q850.231 148.849 850.231 152.182 Q850.231 157.298 846.712 160.099 Q843.194 162.9 836.712 162.9 Q834.536 162.9 832.222 162.46 Q829.93 162.043 827.476 161.187 L827.476 156.673 Q829.421 157.807 831.735 158.386 Q834.05 158.965 836.573 158.965 Q840.972 158.965 843.263 157.229 Q845.578 155.493 845.578 152.182 Q845.578 149.127 843.425 147.414 Q841.296 145.678 837.476 145.678 L833.448 145.678 L833.448 141.835 L837.661 141.835 Q841.11 141.835 842.939 140.469 Q844.768 139.081 844.768 136.488 Q844.768 133.826 842.87 132.414 Q840.995 130.979 837.476 130.979 Q835.555 130.979 833.356 131.395 Q831.157 131.812 828.518 132.692 L828.518 128.525 Q831.18 127.784 833.495 127.414 Q835.833 127.044 837.893 127.044 Q843.217 127.044 846.319 129.474 Q849.421 131.882 849.421 136.002 Q849.421 138.872 847.777 140.863 Q846.134 142.831 843.101 143.594 Z" fill="#000000" fill-rule="nonzero" fill-opacity="1" /><path clip-path="url(#clip880)" d="M863.124 158.293 L879.444 158.293 L879.444 162.229 L857.499 162.229 L857.499 158.293 Q860.161 155.539 864.745 150.909 Q869.351 146.256 870.532 144.914 Q872.777 142.391 873.657 140.655 Q874.559 138.895 874.559 137.206 Q874.559 134.451 872.615 132.715 Q870.694 130.979 867.592 130.979 Q865.393 130.979 862.939 131.743 Q860.508 132.507 857.731 134.057 L857.731 129.335 Q860.555 128.201 863.008 127.622 Q865.462 127.044 867.499 127.044 Q872.87 127.044 876.064 129.729 Q879.258 132.414 879.258 136.905 Q879.258 139.034 878.448 140.956 Q877.661 142.854 875.555 145.446 Q874.976 146.118 871.874 149.335 Q868.772 152.53 863.124 158.293 Z" fill="#000000" fill-rule="nonzero" fill-opacity="1" /><path clip-path="url(#clip880)" d="M887.985 126.257 L891.689 126.257 Q895.161 131.72 896.874 136.951 Q898.61 142.182 898.61 147.344 Q898.61 152.53 896.874 157.784 Q895.161 163.039 891.689 168.479 L887.985 168.479 Q891.064 163.178 892.568 157.946 Q894.096 152.692 894.096 147.344 Q894.096 141.997 892.568 136.789 Q891.064 131.581 887.985 126.257 Z" fill="#000000" fill-rule="nonzero" fill-opacity="1" /></svg>
