<?xml version="1.0" encoding="utf-8"?>
<svg xmlns="http://www.w3.org/2000/svg" xmlns:xlink="http://www.w3.org/1999/xlink" width="600" height="400" viewBox="0 0 2400 1600">
<defs>
  <clipPath id="clip790">
    <rect x="0" y="0" width="2400" height="1600"/>
  </clipPath>
</defs>
<path clip-path="url(#clip790)" d="M0 1600 L2400 1600 L2400 0 L0 0  Z" fill="#ffffff" fill-rule="evenodd" fill-opacity="1"/>
<defs>
  <clipPath id="clip791">
    <rect x="480" y="0" width="1681" height="1600"/>
  </clipPath>
</defs>
<path clip-path="url(#clip790)" d="M156.274 1423.18 L2352.76 1423.18 L2352.76 47.2441 L156.274 47.2441  Z" fill="#ffffff" fill-rule="evenodd" fill-opacity="1"/>
<defs>
  <clipPath id="clip792">
    <rect x="156" y="47" width="2197" height="1377"/>
  </clipPath>
</defs>
<polyline clip-path="url(#clip792)" style="stroke:#000000; stroke-linecap:round; stroke-linejoin:round; stroke-width:2; stroke-opacity:0.1; fill:none" points="218.439,1423.18 218.439,47.2441 "/>
<polyline clip-path="url(#clip792)" style="stroke:#000000; stroke-linecap:round; stroke-linejoin:round; stroke-width:2; stroke-opacity:0.1; fill:none" points="736.477,1423.18 736.477,47.2441 "/>
<polyline clip-path="url(#clip792)" style="stroke:#000000; stroke-linecap:round; stroke-linejoin:round; stroke-width:2; stroke-opacity:0.1; fill:none" points="1254.52,1423.18 1254.52,47.2441 "/>
<polyline clip-path="url(#clip792)" style="stroke:#000000; stroke-linecap:round; stroke-linejoin:round; stroke-width:2; stroke-opacity:0.1; fill:none" points="1772.55,1423.18 1772.55,47.2441 "/>
<polyline clip-path="url(#clip792)" style="stroke:#000000; stroke-linecap:round; stroke-linejoin:round; stroke-width:2; stroke-opacity:0.1; fill:none" points="2290.59,1423.18 2290.59,47.2441 "/>
<polyline clip-path="url(#clip792)" style="stroke:#000000; stroke-linecap:round; stroke-linejoin:round; stroke-width:2; stroke-opacity:0.1; fill:none" points="156.274,1243.97 2352.76,1243.97 "/>
<polyline clip-path="url(#clip792)" style="stroke:#000000; stroke-linecap:round; stroke-linejoin:round; stroke-width:2; stroke-opacity:0.1; fill:none" points="156.274,963.433 2352.76,963.433 "/>
<polyline clip-path="url(#clip792)" style="stroke:#000000; stroke-linecap:round; stroke-linejoin:round; stroke-width:2; stroke-opacity:0.1; fill:none" points="156.274,682.896 2352.76,682.896 "/>
<polyline clip-path="url(#clip792)" style="stroke:#000000; stroke-linecap:round; stroke-linejoin:round; stroke-width:2; stroke-opacity:0.1; fill:none" points="156.274,402.36 2352.76,402.36 "/>
<polyline clip-path="url(#clip792)" style="stroke:#000000; stroke-linecap:round; stroke-linejoin:round; stroke-width:2; stroke-opacity:0.1; fill:none" points="156.274,121.823 2352.76,121.823 "/>
<polyline clip-path="url(#clip790)" style="stroke:#000000; stroke-linecap:round; stroke-linejoin:round; stroke-width:4; stroke-opacity:1; fill:none" points="156.274,1423.18 2352.76,1423.18 "/>
<polyline clip-path="url(#clip790)" style="stroke:#000000; stroke-linecap:round; stroke-linejoin:round; stroke-width:4; stroke-opacity:1; fill:none" points="218.439,1423.18 218.439,1404.28 "/>
<polyline clip-path="url(#clip790)" style="stroke:#000000; stroke-linecap:round; stroke-linejoin:round; stroke-width:4; stroke-opacity:1; fill:none" points="736.477,1423.18 736.477,1404.28 "/>
<polyline clip-path="url(#clip790)" style="stroke:#000000; stroke-linecap:round; stroke-linejoin:round; stroke-width:4; stroke-opacity:1; fill:none" points="1254.52,1423.18 1254.52,1404.28 "/>
<polyline clip-path="url(#clip790)" style="stroke:#000000; stroke-linecap:round; stroke-linejoin:round; stroke-width:4; stroke-opacity:1; fill:none" points="1772.55,1423.18 1772.55,1404.28 "/>
<polyline clip-path="url(#clip790)" style="stroke:#000000; stroke-linecap:round; stroke-linejoin:round; stroke-width:4; stroke-opacity:1; fill:none" points="2290.59,1423.18 2290.59,1404.28 "/>
<path clip-path="url(#clip790)" d="M218.439 1454.1 Q214.828 1454.1 212.999 1457.66 Q211.193 1461.2 211.193 1468.33 Q211.193 1475.44 212.999 1479.01 Q214.828 1482.55 218.439 1482.55 Q222.073 1482.55 223.879 1479.01 Q225.707 1475.44 225.707 1468.33 Q225.707 1461.2 223.879 1457.66 Q222.073 1454.1 218.439 1454.1 M218.439 1450.39 Q224.249 1450.39 227.304 1455 Q230.383 1459.58 230.383 1468.33 Q230.383 1477.06 227.304 1481.67 Q224.249 1486.25 218.439 1486.25 Q212.629 1486.25 209.55 1481.67 Q206.494 1477.06 206.494 1468.33 Q206.494 1459.58 209.55 1455 Q212.629 1450.39 218.439 1450.39 Z" fill="#000000" fill-rule="nonzero" fill-opacity="1" /><path clip-path="url(#clip790)" d="M731.13 1481.64 L747.449 1481.64 L747.449 1485.58 L725.505 1485.58 L725.505 1481.64 Q728.167 1478.89 732.75 1474.26 Q737.357 1469.61 738.537 1468.27 Q740.782 1465.74 741.662 1464.01 Q742.565 1462.25 742.565 1460.56 Q742.565 1457.8 740.62 1456.07 Q738.699 1454.33 735.597 1454.33 Q733.398 1454.33 730.945 1455.09 Q728.514 1455.86 725.736 1457.41 L725.736 1452.69 Q728.56 1451.55 731.014 1450.97 Q733.468 1450.39 735.505 1450.39 Q740.875 1450.39 744.069 1453.08 Q747.264 1455.77 747.264 1460.26 Q747.264 1462.39 746.454 1464.31 Q745.667 1466.2 743.56 1468.8 Q742.981 1469.47 739.88 1472.69 Q736.778 1475.88 731.13 1481.64 Z" fill="#000000" fill-rule="nonzero" fill-opacity="1" /><path clip-path="url(#clip790)" d="M1257.52 1455.09 L1245.72 1473.54 L1257.52 1473.54 L1257.52 1455.09 M1256.3 1451.02 L1262.18 1451.02 L1262.18 1473.54 L1267.11 1473.54 L1267.11 1477.43 L1262.18 1477.43 L1262.18 1485.58 L1257.52 1485.58 L1257.52 1477.43 L1241.92 1477.43 L1241.92 1472.92 L1256.3 1451.02 Z" fill="#000000" fill-rule="nonzero" fill-opacity="1" /><path clip-path="url(#clip790)" d="M1772.96 1466.44 Q1769.81 1466.44 1767.96 1468.59 Q1766.13 1470.74 1766.13 1474.49 Q1766.13 1478.22 1767.96 1480.39 Q1769.81 1482.55 1772.96 1482.55 Q1776.11 1482.55 1777.94 1480.39 Q1779.79 1478.22 1779.79 1474.49 Q1779.79 1470.74 1777.94 1468.59 Q1776.11 1466.44 1772.96 1466.44 M1782.24 1451.78 L1782.24 1456.04 Q1780.48 1455.21 1778.68 1454.77 Q1776.89 1454.33 1775.13 1454.33 Q1770.5 1454.33 1768.05 1457.45 Q1765.62 1460.58 1765.27 1466.9 Q1766.64 1464.89 1768.7 1463.82 Q1770.76 1462.73 1773.24 1462.73 Q1778.44 1462.73 1781.45 1465.9 Q1784.49 1469.05 1784.49 1474.49 Q1784.49 1479.82 1781.34 1483.03 Q1778.19 1486.25 1772.96 1486.25 Q1766.96 1486.25 1763.79 1481.67 Q1760.62 1477.06 1760.62 1468.33 Q1760.62 1460.14 1764.51 1455.28 Q1768.4 1450.39 1774.95 1450.39 Q1776.71 1450.39 1778.49 1450.74 Q1780.3 1451.09 1782.24 1451.78 Z" fill="#000000" fill-rule="nonzero" fill-opacity="1" /><path clip-path="url(#clip790)" d="M2290.59 1469.17 Q2287.26 1469.17 2285.34 1470.95 Q2283.44 1472.73 2283.44 1475.86 Q2283.44 1478.98 2285.34 1480.77 Q2287.26 1482.55 2290.59 1482.55 Q2293.92 1482.55 2295.85 1480.77 Q2297.77 1478.96 2297.77 1475.86 Q2297.77 1472.73 2295.85 1470.95 Q2293.95 1469.17 2290.59 1469.17 M2285.92 1467.18 Q2282.91 1466.44 2281.22 1464.38 Q2279.55 1462.32 2279.55 1459.35 Q2279.55 1455.21 2282.49 1452.8 Q2285.45 1450.39 2290.59 1450.39 Q2295.75 1450.39 2298.69 1452.8 Q2301.63 1455.21 2301.63 1459.35 Q2301.63 1462.32 2299.94 1464.38 Q2298.28 1466.44 2295.29 1467.18 Q2298.67 1467.96 2300.54 1470.26 Q2302.44 1472.55 2302.44 1475.86 Q2302.44 1480.88 2299.36 1483.57 Q2296.31 1486.25 2290.59 1486.25 Q2284.87 1486.25 2281.8 1483.57 Q2278.74 1480.88 2278.74 1475.86 Q2278.74 1472.55 2280.64 1470.26 Q2282.54 1467.96 2285.92 1467.18 M2284.2 1459.79 Q2284.2 1462.48 2285.87 1463.98 Q2287.56 1465.49 2290.59 1465.49 Q2293.6 1465.49 2295.29 1463.98 Q2297 1462.48 2297 1459.79 Q2297 1457.11 2295.29 1455.6 Q2293.6 1454.1 2290.59 1454.1 Q2287.56 1454.1 2285.87 1455.6 Q2284.2 1457.11 2284.2 1459.79 Z" fill="#000000" fill-rule="nonzero" fill-opacity="1" /><path clip-path="url(#clip790)" d="M1202.83 1522.27 L1202.83 1532.4 L1214.89 1532.4 L1214.89 1536.95 L1202.83 1536.95 L1202.83 1556.3 Q1202.83 1560.66 1204 1561.9 Q1205.21 1563.14 1208.87 1563.14 L1214.89 1563.14 L1214.89 1568.04 L1208.87 1568.04 Q1202.09 1568.04 1199.52 1565.53 Q1196.94 1562.98 1196.94 1556.3 L1196.94 1536.95 L1192.64 1536.95 L1192.64 1532.4 L1196.94 1532.4 L1196.94 1522.27 L1202.83 1522.27 Z" fill="#000000" fill-rule="nonzero" fill-opacity="1" /><path clip-path="url(#clip790)" d="M1242.77 1518.52 L1256.27 1518.52 L1256.27 1523.07 L1248.63 1523.07 L1248.63 1572.09 L1256.27 1572.09 L1256.27 1576.64 L1242.77 1576.64 L1242.77 1518.52 Z" fill="#000000" fill-rule="nonzero" fill-opacity="1" /><path clip-path="url(#clip790)" d="M1291.47 1533.45 L1291.47 1538.98 Q1288.99 1537.71 1286.31 1537.07 Q1283.64 1536.44 1280.77 1536.44 Q1276.41 1536.44 1274.22 1537.77 Q1272.05 1539.11 1272.05 1541.79 Q1272.05 1543.82 1273.61 1545 Q1275.17 1546.15 1279.88 1547.2 L1281.89 1547.64 Q1288.13 1548.98 1290.74 1551.43 Q1293.38 1553.85 1293.38 1558.21 Q1293.38 1563.17 1289.43 1566.07 Q1285.52 1568.97 1278.64 1568.97 Q1275.78 1568.97 1272.66 1568.39 Q1269.57 1567.85 1266.13 1566.74 L1266.13 1560.69 Q1269.38 1562.38 1272.53 1563.24 Q1275.68 1564.07 1278.77 1564.07 Q1282.91 1564.07 1285.13 1562.66 Q1287.36 1561.23 1287.36 1558.65 Q1287.36 1556.27 1285.74 1554.99 Q1284.15 1553.72 1278.7 1552.54 L1276.67 1552.07 Q1271.23 1550.92 1268.81 1548.56 Q1266.39 1546.18 1266.39 1542.04 Q1266.39 1537.01 1269.95 1534.27 Q1273.52 1531.54 1280.07 1531.54 Q1283.32 1531.54 1286.18 1532.01 Q1289.05 1532.49 1291.47 1533.45 Z" fill="#000000" fill-rule="nonzero" fill-opacity="1" /><path clip-path="url(#clip790)" d="M1316.39 1518.52 L1316.39 1576.64 L1302.89 1576.64 L1302.89 1572.09 L1310.5 1572.09 L1310.5 1523.07 L1302.89 1523.07 L1302.89 1518.52 L1316.39 1518.52 Z" fill="#000000" fill-rule="nonzero" fill-opacity="1" /><polyline clip-path="url(#clip790)" style="stroke:#000000; stroke-linecap:round; stroke-linejoin:round; stroke-width:4; stroke-opacity:1; fill:none" points="156.274,1423.18 156.274,47.2441 "/>
<polyline clip-path="url(#clip790)" style="stroke:#000000; stroke-linecap:round; stroke-linejoin:round; stroke-width:4; stroke-opacity:1; fill:none" points="156.274,1243.97 175.172,1243.97 "/>
<polyline clip-path="url(#clip790)" style="stroke:#000000; stroke-linecap:round; stroke-linejoin:round; stroke-width:4; stroke-opacity:1; fill:none" points="156.274,963.433 175.172,963.433 "/>
<polyline clip-path="url(#clip790)" style="stroke:#000000; stroke-linecap:round; stroke-linejoin:round; stroke-width:4; stroke-opacity:1; fill:none" points="156.274,682.896 175.172,682.896 "/>
<polyline clip-path="url(#clip790)" style="stroke:#000000; stroke-linecap:round; stroke-linejoin:round; stroke-width:4; stroke-opacity:1; fill:none" points="156.274,402.36 175.172,402.36 "/>
<polyline clip-path="url(#clip790)" style="stroke:#000000; stroke-linecap:round; stroke-linejoin:round; stroke-width:4; stroke-opacity:1; fill:none" points="156.274,121.823 175.172,121.823 "/>
<path clip-path="url(#clip790)" d="M62.9365 1229.77 Q59.3254 1229.77 57.4967 1233.33 Q55.6912 1236.88 55.6912 1244 Q55.6912 1251.11 57.4967 1254.68 Q59.3254 1258.22 62.9365 1258.22 Q66.5707 1258.22 68.3763 1254.68 Q70.205 1251.11 70.205 1244 Q70.205 1236.88 68.3763 1233.33 Q66.5707 1229.77 62.9365 1229.77 M62.9365 1226.06 Q68.7467 1226.06 71.8022 1230.67 Q74.8809 1235.25 74.8809 1244 Q74.8809 1252.73 71.8022 1257.34 Q68.7467 1261.92 62.9365 1261.92 Q57.1264 1261.92 54.0477 1257.34 Q50.9921 1252.73 50.9921 1244 Q50.9921 1235.25 54.0477 1230.67 Q57.1264 1226.06 62.9365 1226.06 Z" fill="#000000" fill-rule="nonzero" fill-opacity="1" /><path clip-path="url(#clip790)" d="M83.0984 1255.37 L87.9827 1255.37 L87.9827 1261.25 L83.0984 1261.25 L83.0984 1255.37 Z" fill="#000000" fill-rule="nonzero" fill-opacity="1" /><path clip-path="url(#clip790)" d="M108.746 1242.11 Q105.598 1242.11 103.746 1244.26 Q101.918 1246.41 101.918 1250.16 Q101.918 1253.89 103.746 1256.06 Q105.598 1258.22 108.746 1258.22 Q111.895 1258.22 113.723 1256.06 Q115.575 1253.89 115.575 1250.16 Q115.575 1246.41 113.723 1244.26 Q111.895 1242.11 108.746 1242.11 M118.029 1227.45 L118.029 1231.71 Q116.27 1230.88 114.464 1230.44 Q112.682 1230 110.922 1230 Q106.293 1230 103.839 1233.13 Q101.409 1236.25 101.061 1242.57 Q102.427 1240.56 104.487 1239.49 Q106.547 1238.4 109.024 1238.4 Q114.233 1238.4 117.242 1241.57 Q120.274 1244.72 120.274 1250.16 Q120.274 1255.49 117.126 1258.7 Q113.978 1261.92 108.746 1261.92 Q102.751 1261.92 99.5798 1257.34 Q96.4085 1252.73 96.4085 1244 Q96.4085 1235.81 100.297 1230.95 Q104.186 1226.06 110.737 1226.06 Q112.496 1226.06 114.279 1226.41 Q116.084 1226.76 118.029 1227.45 Z" fill="#000000" fill-rule="nonzero" fill-opacity="1" /><path clip-path="url(#clip790)" d="M63.1911 949.232 Q59.58 949.232 57.7513 952.797 Q55.9458 956.338 55.9458 963.468 Q55.9458 970.574 57.7513 974.139 Q59.58 977.681 63.1911 977.681 Q66.8254 977.681 68.6309 974.139 Q70.4596 970.574 70.4596 963.468 Q70.4596 956.338 68.6309 952.797 Q66.8254 949.232 63.1911 949.232 M63.1911 945.528 Q69.0013 945.528 72.0568 950.135 Q75.1355 954.718 75.1355 963.468 Q75.1355 972.195 72.0568 976.801 Q69.0013 981.384 63.1911 981.384 Q57.381 981.384 54.3023 976.801 Q51.2468 972.195 51.2468 963.468 Q51.2468 954.718 54.3023 950.135 Q57.381 945.528 63.1911 945.528 Z" fill="#000000" fill-rule="nonzero" fill-opacity="1" /><path clip-path="url(#clip790)" d="M83.3531 974.834 L88.2373 974.834 L88.2373 980.713 L83.3531 980.713 L83.3531 974.834 Z" fill="#000000" fill-rule="nonzero" fill-opacity="1" /><path clip-path="url(#clip790)" d="M108.422 964.301 Q105.089 964.301 103.168 966.084 Q101.27 967.866 101.27 970.991 Q101.27 974.116 103.168 975.898 Q105.089 977.681 108.422 977.681 Q111.756 977.681 113.677 975.898 Q115.598 974.093 115.598 970.991 Q115.598 967.866 113.677 966.084 Q111.779 964.301 108.422 964.301 M103.746 962.31 Q100.737 961.57 99.0474 959.51 Q97.3808 957.449 97.3808 954.486 Q97.3808 950.343 100.321 947.936 Q103.284 945.528 108.422 945.528 Q113.584 945.528 116.524 947.936 Q119.464 950.343 119.464 954.486 Q119.464 957.449 117.774 959.51 Q116.108 961.57 113.121 962.31 Q116.501 963.097 118.376 965.389 Q120.274 967.681 120.274 970.991 Q120.274 976.014 117.195 978.699 Q114.14 981.384 108.422 981.384 Q102.705 981.384 99.6261 978.699 Q96.5706 976.014 96.5706 970.991 Q96.5706 967.681 98.4687 965.389 Q100.367 963.097 103.746 962.31 M102.034 954.926 Q102.034 957.611 103.7 959.116 Q105.39 960.621 108.422 960.621 Q111.432 960.621 113.121 959.116 Q114.834 957.611 114.834 954.926 Q114.834 952.241 113.121 950.736 Q111.432 949.232 108.422 949.232 Q105.39 949.232 103.7 950.736 Q102.034 952.241 102.034 954.926 Z" fill="#000000" fill-rule="nonzero" fill-opacity="1" /><path clip-path="url(#clip790)" d="M53.9088 696.241 L61.5476 696.241 L61.5476 669.876 L53.2375 671.542 L53.2375 667.283 L61.5013 665.616 L66.1772 665.616 L66.1772 696.241 L73.8161 696.241 L73.8161 700.176 L53.9088 700.176 L53.9088 696.241 Z" fill="#000000" fill-rule="nonzero" fill-opacity="1" /><path clip-path="url(#clip790)" d="M83.2605 694.297 L88.1447 694.297 L88.1447 700.176 L83.2605 700.176 L83.2605 694.297 Z" fill="#000000" fill-rule="nonzero" fill-opacity="1" /><path clip-path="url(#clip790)" d="M108.33 668.695 Q104.719 668.695 102.89 672.26 Q101.084 675.801 101.084 682.931 Q101.084 690.038 102.89 693.602 Q104.719 697.144 108.33 697.144 Q111.964 697.144 113.77 693.602 Q115.598 690.038 115.598 682.931 Q115.598 675.801 113.77 672.26 Q111.964 668.695 108.33 668.695 M108.33 664.991 Q114.14 664.991 117.195 669.598 Q120.274 674.181 120.274 682.931 Q120.274 691.658 117.195 696.264 Q114.14 700.848 108.33 700.848 Q102.52 700.848 99.4409 696.264 Q96.3854 691.658 96.3854 682.931 Q96.3854 674.181 99.4409 669.598 Q102.52 664.991 108.33 664.991 Z" fill="#000000" fill-rule="nonzero" fill-opacity="1" /><path clip-path="url(#clip790)" d="M55.506 415.704 L63.1448 415.704 L63.1448 389.339 L54.8347 391.005 L54.8347 386.746 L63.0985 385.08 L67.7744 385.08 L67.7744 415.704 L75.4133 415.704 L75.4133 419.64 L55.506 419.64 L55.506 415.704 Z" fill="#000000" fill-rule="nonzero" fill-opacity="1" /><path clip-path="url(#clip790)" d="M84.8577 413.76 L89.7419 413.76 L89.7419 419.64 L84.8577 419.64 L84.8577 413.76 Z" fill="#000000" fill-rule="nonzero" fill-opacity="1" /><path clip-path="url(#clip790)" d="M103.955 415.704 L120.274 415.704 L120.274 419.64 L98.3298 419.64 L98.3298 415.704 Q100.992 412.95 105.575 408.32 Q110.182 403.667 111.362 402.325 Q113.608 399.802 114.487 398.066 Q115.39 396.306 115.39 394.617 Q115.39 391.862 113.445 390.126 Q111.524 388.39 108.422 388.39 Q106.223 388.39 103.77 389.154 Q101.339 389.918 98.5613 391.468 L98.5613 386.746 Q101.385 385.612 103.839 385.033 Q106.293 384.455 108.33 384.455 Q113.7 384.455 116.895 387.14 Q120.089 389.825 120.089 394.316 Q120.089 396.445 119.279 398.367 Q118.492 400.265 116.385 402.857 Q115.807 403.529 112.705 406.746 Q109.603 409.941 103.955 415.704 Z" fill="#000000" fill-rule="nonzero" fill-opacity="1" /><path clip-path="url(#clip790)" d="M53.4227 135.168 L61.0615 135.168 L61.0615 108.802 L52.7514 110.469 L52.7514 106.209 L61.0152 104.543 L65.6911 104.543 L65.6911 135.168 L73.33 135.168 L73.33 139.103 L53.4227 139.103 L53.4227 135.168 Z" fill="#000000" fill-rule="nonzero" fill-opacity="1" /><path clip-path="url(#clip790)" d="M82.7744 133.223 L87.6586 133.223 L87.6586 139.103 L82.7744 139.103 L82.7744 133.223 Z" fill="#000000" fill-rule="nonzero" fill-opacity="1" /><path clip-path="url(#clip790)" d="M110.691 108.617 L98.8854 127.066 L110.691 127.066 L110.691 108.617 M109.464 104.543 L115.344 104.543 L115.344 127.066 L120.274 127.066 L120.274 130.955 L115.344 130.955 L115.344 139.103 L110.691 139.103 L110.691 130.955 L95.0891 130.955 L95.0891 126.441 L109.464 104.543 Z" fill="#000000" fill-rule="nonzero" fill-opacity="1" /><polyline clip-path="url(#clip792)" style="stroke:#009af9; stroke-linecap:round; stroke-linejoin:round; stroke-width:4; stroke-opacity:1; fill:none" points="218.439,1384.24 218.439,1384.24 219.036,1384.22 223.016,1383.3 232.261,1375.64 249.119,1341.68 266.317,1281.19 287.039,1176.95 307.76,1044.52 328.482,892.212 349.203,729.712 369.925,567.357 390.646,415.487 411.368,283.794 432.089,180.768 452.811,113.282 473.532,86.4798 475.915,86.1857 496.636,102.179 517.358,150.189 538.079,228.146 558.801,331.562 579.522,454.064 600.244,587.937 620.965,724.687 641.687,855.602 662.408,972.307 683.13,1067.25 703.851,1134.11 724.573,1167.94 733.44,1171.38 754.162,1158.9 774.883,1121.36 795.605,1060.2 816.326,978.806 837.048,882.072 857.769,776.024 878.491,667.361 899.212,563.009 919.934,469.678 940.655,393.477 961.377,339.603 982.098,312.17 991.103,309.309 1011.82,318.055 1032.55,344.433 1053.27,387.57 1073.99,445.254 1094.71,514.138 1115.43,590.021 1136.15,668.152 1156.88,743.554 1177.6,811.337 1198.32,866.981 1219.04,906.569 1239.76,926.933 1249.03,929.157 1269.75,924.556 1290.47,910.635 1311.2,887.741 1331.92,856.912 1352.64,819.806 1373.36,778.588 1394.08,735.782 1414.8,694.106 1435.53,656.298 1456.25,624.959 1476.97,602.407 1497.69,590.568 1507.57,589.142 1528.29,589.142 1549.01,589.142 1569.74,589.142 1590.46,589.142 1611.18,589.142 1631.9,589.142 1652.62,589.142 1673.34,589.142 1694.06,589.142 1714.79,589.142 1735.51,589.142 1756.23,589.142 1776.95,589.142 1797.67,589.142 1818.39,589.142 1839.11,589.142 1859.84,589.142 1880.56,589.142 1901.28,589.142 1922,589.142 1942.72,589.142 1963.44,589.142 1984.17,589.142 2004.89,589.142 2025.61,589.142 2046.33,589.142 2067.05,589.142 2087.77,589.142 2108.49,589.142 2129.22,589.142 2149.94,589.142 2170.66,589.142 2191.38,589.142 2212.1,589.142 2232.82,589.142 2253.55,589.142 2274.27,589.142 2290.59,589.142 "/>
<polyline clip-path="url(#clip792)" style="stroke:#0000ff; stroke-linecap:round; stroke-linejoin:round; stroke-width:4; stroke-opacity:1; fill:none" stroke-dasharray="16, 10" points="218.439,1384.24 218.439,86.1857 "/>
<polyline clip-path="url(#clip792)" style="stroke:#0000ff; stroke-linecap:round; stroke-linejoin:round; stroke-width:4; stroke-opacity:1; fill:none" stroke-dasharray="16, 10" points="475.915,1384.24 475.915,86.1857 "/>
<polyline clip-path="url(#clip792)" style="stroke:#0000ff; stroke-linecap:round; stroke-linejoin:round; stroke-width:4; stroke-opacity:1; fill:none" stroke-dasharray="16, 10" points="733.44,1384.24 733.44,86.1857 "/>
<polyline clip-path="url(#clip792)" style="stroke:#0000ff; stroke-linecap:round; stroke-linejoin:round; stroke-width:4; stroke-opacity:1; fill:none" stroke-dasharray="16, 10" points="991.103,1384.24 991.103,86.1857 "/>
<polyline clip-path="url(#clip792)" style="stroke:#0000ff; stroke-linecap:round; stroke-linejoin:round; stroke-width:4; stroke-opacity:1; fill:none" stroke-dasharray="16, 10" points="1249.03,1384.24 1249.03,86.1857 "/>
<polyline clip-path="url(#clip792)" style="stroke:#0000ff; stroke-linecap:round; stroke-linejoin:round; stroke-width:4; stroke-opacity:1; fill:none" stroke-dasharray="16, 10" points="1507.57,1384.24 1507.57,86.1857 "/>
<path clip-path="url(#clip790)" d="M1610.52 248.629 L2279.54 248.629 L2279.54 93.1086 L1610.52 93.1086  Z" fill="#ffffff" fill-rule="evenodd" fill-opacity="1"/>
<polyline clip-path="url(#clip790)" style="stroke:#000000; stroke-linecap:round; stroke-linejoin:round; stroke-width:4; stroke-opacity:1; fill:none" points="1610.52,248.629 2279.54,248.629 2279.54,93.1086 1610.52,93.1086 1610.52,248.629 "/>
<polyline clip-path="url(#clip790)" style="stroke:#009af9; stroke-linecap:round; stroke-linejoin:round; stroke-width:4; stroke-opacity:1; fill:none" points="1634.92,144.949 1781.36,144.949 "/>
<path clip-path="url(#clip790)" d="M1826.11 141.28 Q1827.71 138.409 1829.93 137.044 Q1832.15 135.678 1835.16 135.678 Q1839.21 135.678 1841.41 138.525 Q1843.61 141.349 1843.61 146.581 L1843.61 162.229 L1839.33 162.229 L1839.33 146.719 Q1839.33 142.993 1838.01 141.187 Q1836.69 139.382 1833.98 139.382 Q1830.67 139.382 1828.75 141.581 Q1826.83 143.78 1826.83 147.576 L1826.83 162.229 L1822.54 162.229 L1822.54 146.719 Q1822.54 142.969 1821.22 141.187 Q1819.91 139.382 1817.15 139.382 Q1813.89 139.382 1811.97 141.604 Q1810.04 143.803 1810.04 147.576 L1810.04 162.229 L1805.76 162.229 L1805.76 136.303 L1810.04 136.303 L1810.04 140.331 Q1811.5 137.946 1813.54 136.812 Q1815.58 135.678 1818.38 135.678 Q1821.2 135.678 1823.17 137.113 Q1825.16 138.548 1826.11 141.28 Z" fill="#000000" fill-rule="nonzero" fill-opacity="1" /><path clip-path="url(#clip790)" d="M1863.89 149.196 Q1858.72 149.196 1856.73 150.377 Q1854.74 151.557 1854.74 154.405 Q1854.74 156.673 1856.22 158.016 Q1857.73 159.335 1860.3 159.335 Q1863.84 159.335 1865.97 156.835 Q1868.12 154.312 1868.12 150.145 L1868.12 149.196 L1863.89 149.196 M1872.38 147.437 L1872.38 162.229 L1868.12 162.229 L1868.12 158.293 Q1866.66 160.655 1864.49 161.789 Q1862.31 162.9 1859.16 162.9 Q1855.18 162.9 1852.82 160.678 Q1850.48 158.432 1850.48 154.682 Q1850.48 150.307 1853.4 148.085 Q1856.34 145.863 1862.15 145.863 L1868.12 145.863 L1868.12 145.446 Q1868.12 142.507 1866.18 140.909 Q1864.26 139.289 1860.76 139.289 Q1858.54 139.289 1856.43 139.821 Q1854.33 140.354 1852.38 141.419 L1852.38 137.483 Q1854.72 136.581 1856.92 136.141 Q1859.12 135.678 1861.2 135.678 Q1866.83 135.678 1869.6 138.594 Q1872.38 141.511 1872.38 147.437 Z" fill="#000000" fill-rule="nonzero" fill-opacity="1" /><path clip-path="url(#clip790)" d="M1897.68 137.067 L1897.68 141.094 Q1895.88 140.169 1893.93 139.706 Q1891.99 139.243 1889.9 139.243 Q1886.73 139.243 1885.14 140.215 Q1883.56 141.187 1883.56 143.131 Q1883.56 144.613 1884.7 145.469 Q1885.83 146.303 1889.26 147.067 L1890.72 147.391 Q1895.25 148.363 1897.15 150.145 Q1899.07 151.905 1899.07 155.076 Q1899.07 158.687 1896.2 160.793 Q1893.35 162.9 1888.35 162.9 Q1886.27 162.9 1884 162.483 Q1881.76 162.09 1879.26 161.28 L1879.26 156.881 Q1881.62 158.108 1883.91 158.733 Q1886.2 159.335 1888.45 159.335 Q1891.46 159.335 1893.08 158.317 Q1894.7 157.275 1894.7 155.4 Q1894.7 153.664 1893.52 152.738 Q1892.36 151.812 1888.4 150.956 L1886.92 150.608 Q1882.96 149.775 1881.2 148.062 Q1879.44 146.326 1879.44 143.317 Q1879.44 139.659 1882.03 137.669 Q1884.63 135.678 1889.4 135.678 Q1891.76 135.678 1893.84 136.025 Q1895.92 136.372 1897.68 137.067 Z" fill="#000000" fill-rule="nonzero" fill-opacity="1" /><path clip-path="url(#clip790)" d="M1922.38 137.067 L1922.38 141.094 Q1920.58 140.169 1918.63 139.706 Q1916.69 139.243 1914.6 139.243 Q1911.43 139.243 1909.84 140.215 Q1908.26 141.187 1908.26 143.131 Q1908.26 144.613 1909.4 145.469 Q1910.53 146.303 1913.96 147.067 L1915.41 147.391 Q1919.95 148.363 1921.85 150.145 Q1923.77 151.905 1923.77 155.076 Q1923.77 158.687 1920.9 160.793 Q1918.05 162.9 1913.05 162.9 Q1910.97 162.9 1908.7 162.483 Q1906.46 162.09 1903.96 161.28 L1903.96 156.881 Q1906.32 158.108 1908.61 158.733 Q1910.9 159.335 1913.15 159.335 Q1916.15 159.335 1917.78 158.317 Q1919.4 157.275 1919.4 155.4 Q1919.4 153.664 1918.22 152.738 Q1917.06 151.812 1913.1 150.956 L1911.62 150.608 Q1907.66 149.775 1905.9 148.062 Q1904.14 146.326 1904.14 143.317 Q1904.14 139.659 1906.73 137.669 Q1909.33 135.678 1914.09 135.678 Q1916.46 135.678 1918.54 136.025 Q1920.62 136.372 1922.38 137.067 Z" fill="#000000" fill-rule="nonzero" fill-opacity="1" /><path clip-path="url(#clip790)" d="M1931.15 156.349 L1936.04 156.349 L1936.04 162.229 L1931.15 162.229 L1931.15 156.349 Z" fill="#000000" fill-rule="nonzero" fill-opacity="1" /><path clip-path="url(#clip790)" d="M1962.15 137.067 L1962.15 141.094 Q1960.34 140.169 1958.4 139.706 Q1956.46 139.243 1954.37 139.243 Q1951.2 139.243 1949.6 140.215 Q1948.03 141.187 1948.03 143.131 Q1948.03 144.613 1949.16 145.469 Q1950.3 146.303 1953.72 147.067 L1955.18 147.391 Q1959.72 148.363 1961.62 150.145 Q1963.54 151.905 1963.54 155.076 Q1963.54 158.687 1960.67 160.793 Q1957.82 162.9 1952.82 162.9 Q1950.74 162.9 1948.47 162.483 Q1946.22 162.09 1943.72 161.28 L1943.72 156.881 Q1946.09 158.108 1948.38 158.733 Q1950.67 159.335 1952.91 159.335 Q1955.92 159.335 1957.54 158.317 Q1959.16 157.275 1959.16 155.4 Q1959.16 153.664 1957.98 152.738 Q1956.83 151.812 1952.87 150.956 L1951.39 150.608 Q1947.43 149.775 1945.67 148.062 Q1943.91 146.326 1943.91 143.317 Q1943.91 139.659 1946.5 137.669 Q1949.09 135.678 1953.86 135.678 Q1956.22 135.678 1958.31 136.025 Q1960.39 136.372 1962.15 137.067 Z" fill="#000000" fill-rule="nonzero" fill-opacity="1" /><path clip-path="url(#clip790)" d="M1995.62 126.257 Q1992.52 131.581 1991.02 136.789 Q1989.51 141.997 1989.51 147.344 Q1989.51 152.692 1991.02 157.946 Q1992.54 163.178 1995.62 168.479 L1991.92 168.479 Q1988.45 163.039 1986.71 157.784 Q1985 152.53 1985 147.344 Q1985 142.182 1986.71 136.951 Q1988.42 131.72 1991.92 126.257 L1995.62 126.257 Z" fill="#000000" fill-rule="nonzero" fill-opacity="1" /><path clip-path="url(#clip790)" d="M2018.65 143.594 Q2022.01 144.312 2023.89 146.581 Q2025.78 148.849 2025.78 152.182 Q2025.78 157.298 2022.27 160.099 Q2018.75 162.9 2012.27 162.9 Q2010.09 162.9 2007.77 162.46 Q2005.48 162.043 2003.03 161.187 L2003.03 156.673 Q2004.97 157.807 2007.29 158.386 Q2009.6 158.965 2012.13 158.965 Q2016.52 158.965 2018.82 157.229 Q2021.13 155.493 2021.13 152.182 Q2021.13 149.127 2018.98 147.414 Q2016.85 145.678 2013.03 145.678 L2009 145.678 L2009 141.835 L2013.21 141.835 Q2016.66 141.835 2018.49 140.469 Q2020.32 139.081 2020.32 136.488 Q2020.32 133.826 2018.42 132.414 Q2016.55 130.979 2013.03 130.979 Q2011.11 130.979 2008.91 131.395 Q2006.71 131.812 2004.07 132.692 L2004.07 128.525 Q2006.73 127.784 2009.05 127.414 Q2011.39 127.044 2013.45 127.044 Q2018.77 127.044 2021.87 129.474 Q2024.97 131.882 2024.97 136.002 Q2024.97 138.872 2023.33 140.863 Q2021.69 142.831 2018.65 143.594 Z" fill="#000000" fill-rule="nonzero" fill-opacity="1" /><path clip-path="url(#clip790)" d="M2048.82 143.594 Q2052.17 144.312 2054.05 146.581 Q2055.95 148.849 2055.95 152.182 Q2055.95 157.298 2052.43 160.099 Q2048.91 162.9 2042.43 162.9 Q2040.25 162.9 2037.94 162.46 Q2035.64 162.043 2033.19 161.187 L2033.19 156.673 Q2035.14 157.807 2037.45 158.386 Q2039.77 158.965 2042.29 158.965 Q2046.69 158.965 2048.98 157.229 Q2051.29 155.493 2051.29 152.182 Q2051.29 149.127 2049.14 147.414 Q2047.01 145.678 2043.19 145.678 L2039.16 145.678 L2039.16 141.835 L2043.38 141.835 Q2046.83 141.835 2048.65 140.469 Q2050.48 139.081 2050.48 136.488 Q2050.48 133.826 2048.58 132.414 Q2046.71 130.979 2043.19 130.979 Q2041.27 130.979 2039.07 131.395 Q2036.87 131.812 2034.23 132.692 L2034.23 128.525 Q2036.89 127.784 2039.21 127.414 Q2041.55 127.044 2043.61 127.044 Q2048.93 127.044 2052.03 129.474 Q2055.14 131.882 2055.14 136.002 Q2055.14 138.872 2053.49 140.863 Q2051.85 142.831 2048.82 143.594 Z" fill="#000000" fill-rule="nonzero" fill-opacity="1" /><path clip-path="url(#clip790)" d="M2064.86 127.669 L2083.21 127.669 L2083.21 131.604 L2069.14 131.604 L2069.14 140.076 Q2070.16 139.729 2071.18 139.567 Q2072.2 139.382 2073.21 139.382 Q2079 139.382 2082.38 142.553 Q2085.76 145.724 2085.76 151.141 Q2085.76 156.719 2082.29 159.821 Q2078.82 162.9 2072.5 162.9 Q2070.32 162.9 2068.05 162.53 Q2065.81 162.159 2063.4 161.418 L2063.4 156.719 Q2065.48 157.854 2067.7 158.409 Q2069.93 158.965 2072.4 158.965 Q2076.41 158.965 2078.75 156.858 Q2081.08 154.752 2081.08 151.141 Q2081.08 147.53 2078.75 145.423 Q2076.41 143.317 2072.4 143.317 Q2070.53 143.317 2068.65 143.733 Q2066.8 144.15 2064.86 145.03 L2064.86 127.669 Z" fill="#000000" fill-rule="nonzero" fill-opacity="1" /><path clip-path="url(#clip790)" d="M2095.02 127.669 L2113.38 127.669 L2113.38 131.604 L2099.3 131.604 L2099.3 140.076 Q2100.32 139.729 2101.34 139.567 Q2102.36 139.382 2103.38 139.382 Q2109.16 139.382 2112.54 142.553 Q2115.92 145.724 2115.92 151.141 Q2115.92 156.719 2112.45 159.821 Q2108.98 162.9 2102.66 162.9 Q2100.48 162.9 2098.21 162.53 Q2095.97 162.159 2093.56 161.418 L2093.56 156.719 Q2095.64 157.854 2097.87 158.409 Q2100.09 158.965 2102.57 158.965 Q2106.57 158.965 2108.91 156.858 Q2111.25 154.752 2111.25 151.141 Q2111.25 147.53 2108.91 145.423 Q2106.57 143.317 2102.57 143.317 Q2100.69 143.317 2098.82 143.733 Q2096.96 144.15 2095.02 145.03 L2095.02 127.669 Z" fill="#000000" fill-rule="nonzero" fill-opacity="1" /><path clip-path="url(#clip790)" d="M2137.98 131.743 L2126.18 150.192 L2137.98 150.192 L2137.98 131.743 M2136.76 127.669 L2142.64 127.669 L2142.64 150.192 L2147.57 150.192 L2147.57 154.081 L2142.64 154.081 L2142.64 162.229 L2137.98 162.229 L2137.98 154.081 L2122.38 154.081 L2122.38 149.567 L2136.76 127.669 Z" fill="#000000" fill-rule="nonzero" fill-opacity="1" /><path clip-path="url(#clip790)" d="M2168.14 131.743 L2156.34 150.192 L2168.14 150.192 L2168.14 131.743 M2166.92 127.669 L2172.8 127.669 L2172.8 150.192 L2177.73 150.192 L2177.73 154.081 L2172.8 154.081 L2172.8 162.229 L2168.14 162.229 L2168.14 154.081 L2152.54 154.081 L2152.54 149.567 L2166.92 127.669 Z" fill="#000000" fill-rule="nonzero" fill-opacity="1" /><path clip-path="url(#clip790)" d="M2199.63 143.594 Q2202.98 144.312 2204.86 146.581 Q2206.76 148.849 2206.76 152.182 Q2206.76 157.298 2203.24 160.099 Q2199.72 162.9 2193.24 162.9 Q2191.06 162.9 2188.75 162.46 Q2186.45 162.043 2184 161.187 L2184 156.673 Q2185.95 157.807 2188.26 158.386 Q2190.57 158.965 2193.1 158.965 Q2197.5 158.965 2199.79 157.229 Q2202.1 155.493 2202.1 152.182 Q2202.1 149.127 2199.95 147.414 Q2197.82 145.678 2194 145.678 L2189.97 145.678 L2189.97 141.835 L2194.19 141.835 Q2197.63 141.835 2199.46 140.469 Q2201.29 139.081 2201.29 136.488 Q2201.29 133.826 2199.39 132.414 Q2197.52 130.979 2194 130.979 Q2192.08 130.979 2189.88 131.395 Q2187.68 131.812 2185.04 132.692 L2185.04 128.525 Q2187.7 127.784 2190.02 127.414 Q2192.36 127.044 2194.42 127.044 Q2199.74 127.044 2202.84 129.474 Q2205.94 131.882 2205.94 136.002 Q2205.94 138.872 2204.3 140.863 Q2202.66 142.831 2199.63 143.594 Z" fill="#000000" fill-rule="nonzero" fill-opacity="1" /><path clip-path="url(#clip790)" d="M2219.65 158.293 L2235.97 158.293 L2235.97 162.229 L2214.02 162.229 L2214.02 158.293 Q2216.69 155.539 2221.27 150.909 Q2225.88 146.256 2227.06 144.914 Q2229.3 142.391 2230.18 140.655 Q2231.08 138.895 2231.08 137.206 Q2231.08 134.451 2229.14 132.715 Q2227.22 130.979 2224.12 130.979 Q2221.92 130.979 2219.46 131.743 Q2217.03 132.507 2214.26 134.057 L2214.26 129.335 Q2217.08 128.201 2219.53 127.622 Q2221.99 127.044 2224.02 127.044 Q2229.39 127.044 2232.59 129.729 Q2235.78 132.414 2235.78 136.905 Q2235.78 139.034 2234.97 140.956 Q2234.19 142.854 2232.08 145.446 Q2231.5 146.118 2228.4 149.335 Q2225.3 152.53 2219.65 158.293 Z" fill="#000000" fill-rule="nonzero" fill-opacity="1" /><path clip-path="url(#clip790)" d="M2244.51 126.257 L2248.21 126.257 Q2251.69 131.72 2253.4 136.951 Q2255.13 142.182 2255.13 147.344 Q2255.13 152.53 2253.4 157.784 Q2251.69 163.039 2248.21 168.479 L2244.51 168.479 Q2247.59 163.178 2249.09 157.946 Q2250.62 152.692 2250.62 147.344 Q2250.62 141.997 2249.09 136.789 Q2247.59 131.581 2244.51 126.257 Z" fill="#000000" fill-rule="nonzero" fill-opacity="1" /><polyline clip-path="url(#clip790)" style="stroke:#0000ff; stroke-linecap:round; stroke-linejoin:round; stroke-width:4; stroke-opacity:1; fill:none" stroke-dasharray="16, 10" points="1634.92,196.789 1781.36,196.789 "/>
<path clip-path="url(#clip790)" d="M1828.01 180.643 L1828.01 185.203 Q1825.35 183.93 1822.98 183.305 Q1820.62 182.68 1818.42 182.68 Q1814.6 182.68 1812.52 184.161 Q1810.46 185.643 1810.46 188.374 Q1810.46 190.666 1811.83 191.847 Q1813.22 193.004 1817.06 193.722 L1819.88 194.3 Q1825.11 195.296 1827.59 197.819 Q1830.09 200.319 1830.09 204.532 Q1830.09 209.555 1826.71 212.147 Q1823.35 214.74 1816.85 214.74 Q1814.4 214.74 1811.62 214.184 Q1808.86 213.629 1805.9 212.541 L1805.9 207.726 Q1808.75 209.323 1811.48 210.133 Q1814.21 210.944 1816.85 210.944 Q1820.85 210.944 1823.03 209.37 Q1825.21 207.796 1825.21 204.879 Q1825.21 202.333 1823.63 200.897 Q1822.08 199.462 1818.52 198.745 L1815.67 198.189 Q1810.44 197.147 1808.1 194.925 Q1805.76 192.703 1805.76 188.745 Q1805.76 184.161 1808.98 181.522 Q1812.22 178.884 1817.89 178.884 Q1820.32 178.884 1822.85 179.323 Q1825.37 179.763 1828.01 180.643 Z" fill="#000000" fill-rule="nonzero" fill-opacity="1" /><path clip-path="url(#clip790)" d="M1841.41 180.782 L1841.41 188.143 L1850.18 188.143 L1850.18 191.453 L1841.41 191.453 L1841.41 205.527 Q1841.41 208.698 1842.27 209.601 Q1843.15 210.504 1845.81 210.504 L1850.18 210.504 L1850.18 214.069 L1845.81 214.069 Q1840.88 214.069 1839 212.24 Q1837.13 210.388 1837.13 205.527 L1837.13 191.453 L1834 191.453 L1834 188.143 L1837.13 188.143 L1837.13 180.782 L1841.41 180.782 Z" fill="#000000" fill-rule="nonzero" fill-opacity="1" /><path clip-path="url(#clip790)" d="M1867.57 201.036 Q1862.41 201.036 1860.41 202.217 Q1858.42 203.397 1858.42 206.245 Q1858.42 208.513 1859.91 209.856 Q1861.41 211.175 1863.98 211.175 Q1867.52 211.175 1869.65 208.675 Q1871.8 206.152 1871.8 201.985 L1871.8 201.036 L1867.57 201.036 M1876.06 199.277 L1876.06 214.069 L1871.8 214.069 L1871.8 210.133 Q1870.34 212.495 1868.17 213.629 Q1865.99 214.74 1862.84 214.74 Q1858.86 214.74 1856.5 212.518 Q1854.16 210.272 1854.16 206.522 Q1854.16 202.147 1857.08 199.925 Q1860.02 197.703 1865.83 197.703 L1871.8 197.703 L1871.8 197.286 Q1871.8 194.347 1869.86 192.749 Q1867.94 191.129 1864.44 191.129 Q1862.22 191.129 1860.11 191.661 Q1858.01 192.194 1856.06 193.259 L1856.06 189.323 Q1858.4 188.421 1860.6 187.981 Q1862.8 187.518 1864.88 187.518 Q1870.51 187.518 1873.28 190.434 Q1876.06 193.351 1876.06 199.277 Z" fill="#000000" fill-rule="nonzero" fill-opacity="1" /><path clip-path="url(#clip790)" d="M1889.05 180.782 L1889.05 188.143 L1897.82 188.143 L1897.82 191.453 L1889.05 191.453 L1889.05 205.527 Q1889.05 208.698 1889.9 209.601 Q1890.78 210.504 1893.45 210.504 L1897.82 210.504 L1897.82 214.069 L1893.45 214.069 Q1888.52 214.069 1886.64 212.24 Q1884.77 210.388 1884.77 205.527 L1884.77 191.453 L1881.64 191.453 L1881.64 188.143 L1884.77 188.143 L1884.77 180.782 L1889.05 180.782 Z" fill="#000000" fill-rule="nonzero" fill-opacity="1" /><path clip-path="url(#clip790)" d="M1925.6 200.041 L1925.6 202.124 L1906.02 202.124 Q1906.29 206.522 1908.65 208.837 Q1911.04 211.129 1915.28 211.129 Q1917.73 211.129 1920.02 210.527 Q1922.34 209.925 1924.6 208.721 L1924.6 212.749 Q1922.31 213.721 1919.9 214.231 Q1917.5 214.74 1915.02 214.74 Q1908.82 214.74 1905.18 211.129 Q1901.57 207.518 1901.57 201.36 Q1901.57 194.995 1905 191.268 Q1908.45 187.518 1914.28 187.518 Q1919.51 187.518 1922.54 190.897 Q1925.6 194.254 1925.6 200.041 M1921.34 198.791 Q1921.29 195.296 1919.37 193.212 Q1917.47 191.129 1914.33 191.129 Q1910.76 191.129 1908.61 193.143 Q1906.48 195.157 1906.15 198.814 L1921.34 198.791 Z" fill="#000000" fill-rule="nonzero" fill-opacity="1" /><path clip-path="url(#clip790)" d="M1969.84 200.041 L1969.84 202.124 L1950.25 202.124 Q1950.53 206.522 1952.89 208.837 Q1955.27 211.129 1959.51 211.129 Q1961.96 211.129 1964.26 210.527 Q1966.57 209.925 1968.84 208.721 L1968.84 212.749 Q1966.55 213.721 1964.14 214.231 Q1961.73 214.74 1959.26 214.74 Q1953.05 214.74 1949.42 211.129 Q1945.81 207.518 1945.81 201.36 Q1945.81 194.995 1949.23 191.268 Q1952.68 187.518 1958.52 187.518 Q1963.75 187.518 1966.78 190.897 Q1969.84 194.254 1969.84 200.041 M1965.58 198.791 Q1965.53 195.296 1963.61 193.212 Q1961.71 191.129 1958.56 191.129 Q1955 191.129 1952.84 193.143 Q1950.71 195.157 1950.39 198.814 L1965.58 198.791 Z" fill="#000000" fill-rule="nonzero" fill-opacity="1" /><path clip-path="url(#clip790)" d="M1973.77 188.143 L1978.28 188.143 L1986.39 209.902 L1994.49 188.143 L1999 188.143 L1989.28 214.069 L1983.49 214.069 L1973.77 188.143 Z" fill="#000000" fill-rule="nonzero" fill-opacity="1" /><path clip-path="url(#clip790)" d="M2027.06 200.041 L2027.06 202.124 L2007.47 202.124 Q2007.75 206.522 2010.11 208.837 Q2012.5 211.129 2016.73 211.129 Q2019.19 211.129 2021.48 210.527 Q2023.79 209.925 2026.06 208.721 L2026.06 212.749 Q2023.77 213.721 2021.36 214.231 Q2018.96 214.74 2016.48 214.74 Q2010.27 214.74 2006.64 211.129 Q2003.03 207.518 2003.03 201.36 Q2003.03 194.995 2006.46 191.268 Q2009.9 187.518 2015.74 187.518 Q2020.97 187.518 2024 190.897 Q2027.06 194.254 2027.06 200.041 M2022.8 198.791 Q2022.75 195.296 2020.83 193.212 Q2018.93 191.129 2015.78 191.129 Q2012.22 191.129 2010.07 193.143 Q2007.94 195.157 2007.61 198.814 L2022.8 198.791 Z" fill="#000000" fill-rule="nonzero" fill-opacity="1" /><path clip-path="url(#clip790)" d="M2055.6 198.421 L2055.6 214.069 L2051.34 214.069 L2051.34 198.559 Q2051.34 194.879 2049.9 193.05 Q2048.47 191.222 2045.6 191.222 Q2042.15 191.222 2040.16 193.421 Q2038.17 195.62 2038.17 199.416 L2038.17 214.069 L2033.89 214.069 L2033.89 188.143 L2038.17 188.143 L2038.17 192.171 Q2039.7 189.833 2041.76 188.675 Q2043.84 187.518 2046.55 187.518 Q2051.02 187.518 2053.31 190.296 Q2055.6 193.05 2055.6 198.421 Z" fill="#000000" fill-rule="nonzero" fill-opacity="1" /><path clip-path="url(#clip790)" d="M2068.31 180.782 L2068.31 188.143 L2077.08 188.143 L2077.08 191.453 L2068.31 191.453 L2068.31 205.527 Q2068.31 208.698 2069.16 209.601 Q2070.04 210.504 2072.7 210.504 L2077.08 210.504 L2077.08 214.069 L2072.7 214.069 Q2067.77 214.069 2065.9 212.24 Q2064.02 210.388 2064.02 205.527 L2064.02 191.453 L2060.9 191.453 L2060.9 188.143 L2064.02 188.143 L2064.02 180.782 L2068.31 180.782 Z" fill="#000000" fill-rule="nonzero" fill-opacity="1" /><path clip-path="url(#clip790)" d="M2092.91 178.097 Q2089.81 183.421 2088.31 188.629 Q2086.8 193.837 2086.8 199.184 Q2086.8 204.532 2088.31 209.786 Q2089.83 215.018 2092.91 220.319 L2089.21 220.319 Q2085.74 214.879 2084 209.624 Q2082.29 204.37 2082.29 199.184 Q2082.29 194.022 2084 188.791 Q2085.71 183.56 2089.21 178.097 L2092.91 178.097 Z" fill="#000000" fill-rule="nonzero" fill-opacity="1" /><path clip-path="url(#clip790)" d="M2117.7 188.907 L2117.7 192.934 Q2115.9 192.009 2113.95 191.546 Q2112.01 191.083 2109.93 191.083 Q2106.76 191.083 2105.16 192.055 Q2103.58 193.027 2103.58 194.971 Q2103.58 196.453 2104.72 197.309 Q2105.85 198.143 2109.28 198.907 L2110.74 199.231 Q2115.27 200.203 2117.17 201.985 Q2119.09 203.745 2119.09 206.916 Q2119.09 210.527 2116.22 212.633 Q2113.38 214.74 2108.38 214.74 Q2106.29 214.74 2104.02 214.323 Q2101.78 213.93 2099.28 213.12 L2099.28 208.721 Q2101.64 209.948 2103.93 210.573 Q2106.22 211.175 2108.47 211.175 Q2111.48 211.175 2113.1 210.157 Q2114.72 209.115 2114.72 207.24 Q2114.72 205.504 2113.54 204.578 Q2112.38 203.652 2108.42 202.796 L2106.94 202.448 Q2102.98 201.615 2101.22 199.902 Q2099.46 198.166 2099.46 195.157 Q2099.46 191.499 2102.06 189.509 Q2104.65 187.518 2109.42 187.518 Q2111.78 187.518 2113.86 187.865 Q2115.95 188.212 2117.7 188.907 Z" fill="#000000" fill-rule="nonzero" fill-opacity="1" /><path clip-path="url(#clip790)" d="M2125.2 178.097 L2128.91 178.097 Q2132.38 183.56 2134.09 188.791 Q2135.83 194.022 2135.83 199.184 Q2135.83 204.37 2134.09 209.624 Q2132.38 214.879 2128.91 220.319 L2125.2 220.319 Q2128.28 215.018 2129.79 209.786 Q2131.32 204.532 2131.32 199.184 Q2131.32 193.837 2129.79 188.629 Q2128.28 183.421 2125.2 178.097 Z" fill="#000000" fill-rule="nonzero" fill-opacity="1" /></svg>
